<svg width="300" height="100" viewBox="0 0 300 100" fill="none" xmlns="http://www.w3.org/2000/svg">
<rect width="300" height="100" rx="10" fill="white"/>
<g clip-path="url(#clip0)">
<path d="M272.875 91.5689L197.431 79.8757L208.15 10.7186C208.21 10.3328 208.571 10.0685 208.957 10.1283L283.004 21.6049C283.39 21.6647 283.654 22.0259 283.594 22.4117L272.875 91.5689Z" fill="#FFD782"/>
<path d="M274.824 78.9954L199.38 67.3022L197.648 78.479L273.092 90.1721L274.824 78.9954Z" fill="#FFAF5F"/>
<path d="M279.823 46.7407C279.526 46.7675 279.223 46.7709 278.915 46.7232C276.881 46.4079 275.487 44.5031 275.803 42.4689C275.487 44.503 273.583 45.8967 271.549 45.5814C269.514 45.2661 268.121 43.3614 268.436 41.3272C268.121 43.3612 266.216 44.7549 264.182 44.4396C262.148 44.1243 260.754 42.2196 261.069 40.1854C260.754 42.2195 258.849 43.6131 256.815 43.2979C254.781 42.9826 253.387 41.0778 253.703 39.0436C253.387 41.0777 251.483 42.4714 249.448 42.1561C247.414 41.8408 246.021 39.9361 246.336 37.9019C246.021 39.9359 244.116 41.3296 242.082 41.0143C240.047 40.699 238.654 38.7943 238.969 36.7601C238.654 38.7942 236.749 40.1879 234.715 39.8726C232.681 39.5573 231.287 37.6526 231.603 35.6184C231.287 37.6524 229.383 39.0461 227.348 38.7308C225.314 38.4155 223.921 36.5108 224.236 34.4766C223.921 36.5106 222.016 37.9043 219.982 37.589C217.948 37.2738 216.554 35.369 216.869 33.3348C216.554 35.3689 214.649 36.7626 212.615 36.4473C210.581 36.132 209.187 34.2273 209.503 32.1931C209.187 34.2271 207.283 35.6208 205.248 35.3055C204.94 35.2577 204.653 35.163 204.378 35.0474L203.94 37.8722C204.227 37.9583 204.511 38.0527 204.815 38.0999C206.183 38.3118 207.518 38.0828 208.677 37.5191C209.611 38.4073 210.815 39.0296 212.182 39.2415C213.55 39.4534 214.885 39.2245 216.044 38.6607C216.978 39.5489 218.182 40.1714 219.549 40.3833C220.916 40.5952 222.252 40.3662 223.411 39.8025C224.345 40.6906 225.548 41.3131 226.916 41.5251C228.283 41.737 229.619 41.508 230.778 40.9442C231.711 41.8324 232.915 42.4549 234.282 42.6668C235.65 42.8787 236.985 42.6498 238.144 42.086C239.078 42.9743 240.282 43.5966 241.649 43.8086C243.016 44.0205 244.352 43.7915 245.511 43.2277C246.445 44.1159 247.648 44.7384 249.016 44.9503C250.383 45.1622 251.718 44.9333 252.877 44.3695C253.811 45.2577 255.015 45.8802 256.382 46.0921C257.75 46.304 259.085 46.075 260.244 45.5113C261.178 46.3994 262.382 47.0219 263.749 47.2339C265.116 47.4458 266.452 47.2168 267.611 46.653C268.545 47.5412 269.748 48.1637 271.116 48.3756C272.483 48.5876 273.818 48.3586 274.977 47.7948C275.911 48.683 277.115 49.3055 278.482 49.5174C278.787 49.5645 279.086 49.5606 279.385 49.5653L279.823 46.7407L279.823 46.7407Z" fill="#FFAF5F"/>
<path d="M249.166 50.6963L210.047 44.6333L205.716 72.5753L244.835 78.6383L249.166 50.6963Z" fill="#B4E1FA"/>
<path d="M271.52 54.1609L254.755 51.5625L250.424 79.5045L267.189 82.1029L271.52 54.1609Z" fill="#B4E1FA"/>
<path d="M271.52 54.1614L254.755 51.563L254.105 55.7544L270.87 58.3528L271.52 54.1614Z" fill="#A0D2F0"/>
<path d="M269.499 67.2005L261.74 52.645L258.946 52.2119L268.921 70.9261L269.499 67.2005Z" fill="#DAF0FD"/>
<path d="M256.151 51.779L254.754 51.5625L253.888 57.1509L267.189 82.1031L268.344 74.6517L256.151 51.779Z" fill="#A0D2F0"/>
<path d="M264.234 57.3234L261.74 52.645L258.946 52.2119L261.44 56.8903L264.234 57.3234Z" fill="#B4E1FA"/>
<path d="M240.644 77.989L237.85 77.5559L221.224 46.3657L224.018 46.7988L240.644 77.989Z" fill="#DAF0FD"/>
<path d="M235.055 77.1228L229.467 76.2566L212.841 45.0664L218.429 45.9326L235.055 77.1228Z" fill="#A0D2F0"/>
<path d="M249.166 50.6973L210.047 44.6343L209.397 48.8257L248.516 54.8887L249.166 50.6973Z" fill="#A0D2F0"/>
<path d="M226.512 51.4772L224.018 46.7988L221.224 46.3657L223.718 51.0441L226.512 51.4772Z" fill="#B4E1FA"/>
<path d="M234.716 39.8729C232.682 39.5576 231.288 37.6528 231.603 35.6186L232.115 32.3164L239.482 33.4582L238.97 36.7604C238.655 38.7946 236.75 40.1881 234.716 39.8729Z" fill="#D2555A"/>
<path d="M249.449 42.1565C247.415 41.8413 246.022 39.9365 246.337 37.9023L246.849 34.6001L254.215 35.7419L253.703 39.0441C253.388 41.0783 251.483 42.4718 249.449 42.1565Z" fill="#D2555A"/>
<path d="M219.983 37.5897C217.949 37.2744 216.555 35.3696 216.871 33.3354L217.382 30.0332L224.749 31.175L224.237 34.4772C223.922 36.5114 222.017 37.9049 219.983 37.5897Z" fill="#D2555A"/>
<path d="M205.25 35.306C203.215 34.9907 201.822 33.0859 202.137 31.0517L202.649 27.7495L210.016 28.8913L209.504 32.1935C209.189 34.2277 207.284 35.6212 205.25 35.306Z" fill="#D2555A"/>
<path d="M264.182 44.4398C262.148 44.1245 260.754 42.2197 261.07 40.1855L261.582 36.8833L268.948 38.0251L268.436 41.3273C268.121 43.3615 266.217 44.7551 264.182 44.4398Z" fill="#D2555A"/>
<path d="M227.349 38.7313C225.315 38.416 223.921 36.5112 224.237 34.477L224.749 31.1748L232.115 32.3166L231.603 35.6188C231.288 37.653 229.384 39.0466 227.349 38.7313Z" fill="#C7CFE2"/>
<path d="M256.815 43.2981C254.781 42.9829 253.388 41.0781 253.703 39.0439L254.215 35.7417L261.582 36.8835L261.07 40.1857C260.754 42.2199 258.85 43.6134 256.815 43.2981Z" fill="#C7CFE2"/>
<path d="M278.916 46.7234C276.881 46.4082 275.488 44.5034 275.803 42.4692L276.315 39.167L283.682 40.3088L283.17 43.611C282.855 45.6452 280.95 47.0387 278.916 46.7234Z" fill="#D2555A"/>
<path d="M271.549 45.5814C269.515 45.2661 268.121 43.3613 268.436 41.3271L268.948 38.0249L276.315 39.1667L275.803 42.4689C275.488 44.5031 273.583 45.8966 271.549 45.5814Z" fill="#C7CFE2"/>
<path d="M212.616 36.4476C210.582 36.1323 209.189 34.2275 209.504 32.1933L210.016 28.8911L217.382 30.0329L216.87 33.3351C216.555 35.3693 214.65 36.7628 212.616 36.4476Z" fill="#C7CFE2"/>
<path d="M242.083 41.0145C240.048 40.6992 238.655 38.7944 238.97 36.7602L239.482 33.458L246.849 34.5998L246.337 37.902C246.022 39.9362 244.117 41.3297 242.083 41.0145Z" fill="#C7CFE2"/>
<path d="M239.482 33.4583L232.115 32.3166L234.61 21.2578L241.468 22.3208L239.482 33.4583Z" fill="#FF6464"/>
<path d="M254.215 35.7419L246.849 34.6001L248.327 23.3838L255.185 24.4468L254.215 35.7419Z" fill="#FF6464"/>
<path d="M224.749 31.1751L217.382 30.0334L220.893 19.132L227.751 20.195L224.749 31.1751Z" fill="#FF6464"/>
<path d="M210.016 28.8915L202.649 27.7497L207.176 17.0058L214.034 18.0689L210.016 28.8915Z" fill="#FF6464"/>
<path d="M268.948 38.0253L261.582 36.8836L262.044 25.5098L268.902 26.5728L268.948 38.0253Z" fill="#FF6464"/>
<path d="M232.115 32.3163L224.749 31.1745L227.751 20.1944L234.61 21.2574L232.115 32.3163Z" fill="#EFF2FA"/>
<path d="M261.582 36.8831L254.215 35.7413L255.186 24.4463L262.044 25.5093L261.582 36.8831Z" fill="#EFF2FA"/>
<path d="M283.681 40.3088L276.315 39.167L275.761 27.6357L282.619 28.6988L283.681 40.3088Z" fill="#FF6464"/>
<path d="M276.315 39.167L268.948 38.0253L268.902 26.5728L275.761 27.6358L276.315 39.167Z" fill="#EFF2FA"/>
<path d="M217.382 30.033L210.016 28.8913L214.034 18.0687L220.893 19.1317L217.382 30.033Z" fill="#EFF2FA"/>
<path d="M246.849 34.6L239.482 33.4582L241.469 22.3206L248.327 23.3836L246.849 34.6Z" fill="#EFF2FA"/>
<path d="M247.552 51.8768L243.655 77.0249L207.33 71.3949L211.227 46.2468L247.552 51.8768ZM249.383 49.2992L210.263 43.2361C209.492 43.1165 208.769 43.6452 208.65 44.4167L204.319 72.359C204.199 73.1305 204.728 73.8531 205.5 73.9727L244.619 80.0358C245.39 80.1554 246.113 79.6267 246.232 78.8552L250.563 50.9129C250.683 50.1413 250.154 49.4188 249.383 49.2992Z" fill="#8F96AC"/>
<path d="M271.736 52.7637L254.971 50.1653C254.199 50.0457 253.477 50.5744 253.357 51.3459L247.944 86.2738L267.503 89.3053L272.917 54.3774C273.036 53.6059 272.508 52.8833 271.736 52.7637ZM266.008 80.4895L252.037 78.3241L255.935 53.176L269.906 55.3414L266.008 80.4895Z" fill="#8F96AC"/>
<path d="M267.251 26.3167L222.544 19.3875C221.001 19.1483 219.944 17.7034 220.183 16.1602L221.482 7.77759C221.721 6.23434 223.166 5.17728 224.709 5.41647L269.417 12.3457C270.96 12.5849 272.017 14.0297 271.778 15.573L270.479 23.9557C270.24 25.4988 268.795 26.5559 267.251 26.3167Z" fill="#AFB9D2"/>
<path d="M266.986 23.414L223.675 16.7013C223.289 16.6415 223.025 16.2803 223.085 15.8945L224.168 8.90904C224.227 8.52318 224.589 8.25892 224.974 8.31872L268.285 15.0314C268.671 15.0912 268.935 15.4524 268.875 15.8383L267.793 22.8239C267.733 23.2096 267.372 23.4738 266.986 23.414Z" fill="#FFD782"/>
<path d="M223.675 16.7016L266.986 23.4143C267.372 23.4741 267.733 23.2099 267.793 22.824L268.226 20.0298C268.166 20.4157 267.805 20.68 267.419 20.6201L224.108 13.9074C223.723 13.8476 223.458 13.4864 223.518 13.1006L223.085 15.8948C223.025 16.2807 223.29 16.6419 223.675 16.7016Z" fill="#FFAF5F"/>
<path d="M274.754 93.2907L195.119 80.948C194.733 80.8882 194.469 80.527 194.529 80.1412L194.745 78.744C194.805 78.3581 195.166 78.0939 195.552 78.1537L275.187 90.4964C275.573 90.5562 275.838 90.9174 275.778 91.3033L275.561 92.7004C275.501 93.0863 275.14 93.3505 274.754 93.2907Z" fill="#8F96AC"/>
</g>
<defs>
<clipPath id="clip0">
<rect width="82" height="82" fill="white" transform="translate(206.763 1.2041) rotate(8.81019)"/>
</clipPath>
</defs>
</svg>
