<svg width="45" height="45" viewBox="0 0 45 45" fill="none" xmlns="http://www.w3.org/2000/svg">
<g clip-path="url(#clip0)">
<path d="M22.5 13.125C20.4319 13.125 18.75 11.4431 18.75 9.375C18.75 7.80375 19.7213 6.45563 21.0938 5.89875V1.40625C21.0938 0.63 21.7238 0 22.5 0C23.2763 0 23.9063 0.63 23.9063 1.40625V7.03125C23.9063 7.8075 23.2763 8.4375 22.5 8.4375C21.9844 8.4375 21.5625 8.8575 21.5625 9.375C21.5625 9.8925 21.9844 10.3125 22.5 10.3125C23.0156 10.3125 23.4375 9.8925 23.4375 9.375C23.4375 8.59875 24.0675 7.96875 24.8438 7.96875C25.62 7.96875 26.25 8.59875 26.25 9.375C26.25 11.4431 24.5681 13.125 22.5 13.125Z" fill="#FF3737"/>
<path d="M43.5919 24.375C43.3294 24.375 43.0669 24.3019 42.8306 24.15L27.3619 14.1562C26.7094 13.7344 26.5238 12.8644 26.9438 12.2119C27.3638 11.5594 28.2356 11.3719 28.8881 11.7937L44.3569 21.7875C45.0094 22.2094 45.195 23.0794 44.775 23.7319C44.505 24.1481 44.0531 24.375 43.5919 24.375Z" fill="#FF3737"/>
<path d="M1.40808 24.375C0.946835 24.375 0.49496 24.1481 0.22496 23.7319C-0.196915 23.0794 -0.00941515 22.2094 0.643085 21.7875L16.1118 11.7937C16.7681 11.37 17.6343 11.5612 18.0562 12.2119C18.4762 12.8644 18.2906 13.7344 17.6381 14.1562L2.16933 24.15C1.93308 24.3019 1.66871 24.375 1.40808 24.375Z" fill="#FF3737"/>
<path d="M43.5938 21.5625H1.40625C0.629998 21.5625 -1.90735e-06 22.1925 -1.90735e-06 22.9688V43.5938C-1.90735e-06 44.37 0.629998 45 1.40625 45H43.5938C44.37 45 45 44.37 45 43.5938V22.9688C45 22.1925 44.37 21.5625 43.5938 21.5625ZM7.96875 38.9063C7.96875 39.6825 7.33875 40.3125 6.5625 40.3125C5.78625 40.3125 5.15625 39.6825 5.15625 38.9063V27.6563C5.15625 26.88 5.78625 26.25 6.5625 26.25C7.33875 26.25 7.96875 26.88 7.96875 27.6563V38.9063ZM15.4687 38.9063C15.4687 39.6825 14.8387 40.3125 14.0625 40.3125C13.2862 40.3125 12.6562 39.6825 12.6562 38.9063V27.6563C12.6562 26.88 13.2862 26.25 14.0625 26.25C14.8387 26.25 15.4687 26.88 15.4687 27.6563V38.9063ZM23.9062 38.9063C23.9062 39.6825 23.2762 40.3125 22.5 40.3125C21.7237 40.3125 21.0938 39.6825 21.0938 38.9063V27.6563C21.0938 26.88 21.7237 26.25 22.5 26.25C23.2762 26.25 23.9062 26.88 23.9062 27.6563V38.9063ZM32.3438 38.9063C32.3438 39.6825 31.7138 40.3125 30.9375 40.3125C30.1612 40.3125 29.5312 39.6825 29.5312 38.9063V27.6563C29.5312 26.88 30.1612 26.25 30.9375 26.25C31.7138 26.25 32.3438 26.88 32.3438 27.6563V38.9063ZM39.8438 38.9063C39.8438 39.6825 39.2138 40.3125 38.4375 40.3125C37.6612 40.3125 37.0313 39.6825 37.0313 38.9063V27.6563C37.0313 26.88 37.6612 26.25 38.4375 26.25C39.2138 26.25 39.8438 26.88 39.8438 27.6563V38.9063Z" fill="#FF3737"/>
</g>
<defs>
<clipPath id="clip0">
<rect width="45" height="45" fill="white"/>
</clipPath>
</defs>
</svg>
