<svg width="64" height="64" viewBox="0 0 64 64" fill="none" xmlns="http://www.w3.org/2000/svg">
<circle cx="32" cy="32" r="32" fill="#FFBB24"/>
<g clip-path="url(#clip0_2219_4)">
<path d="M44.932 28.9725C44.7608 28.4461 44.2939 28.0733 43.7436 28.0236L36.2382 27.3422L33.272 20.3977C33.053 19.8875 32.5547 19.5582 32 19.5582C31.4454 19.5582 30.9469 19.8875 30.7293 20.3977L27.7631 27.3422L20.2565 28.0236C19.7062 28.0743 19.2402 28.4471 19.0681 28.9725C18.8969 29.499 19.055 30.0765 19.4711 30.4415L25.1446 35.4163L23.4718 42.7841C23.3494 43.3258 23.5597 43.886 24.0092 44.2109C24.2508 44.3865 24.5347 44.4742 24.8195 44.4742C25.0643 44.4742 25.3093 44.4091 25.5281 44.2782L32 40.4084L38.4708 44.2782C38.9455 44.5618 39.5424 44.5359 39.9909 44.2109C40.4404 43.886 40.6506 43.3258 40.5283 42.7841L38.8554 35.4163L44.5289 30.4415C44.9449 30.0765 45.1032 29.5002 44.932 28.9725Z" fill="#A97400"/>
</g>
<defs>
<clipPath id="clip0_2219_4">
<rect width="26" height="26" fill="white" transform="translate(19 19)"/>
</clipPath>
</defs>
</svg>
