<?xml version="1.0" standalone="no"?>
<!DOCTYPE svg PUBLIC "-//W3C//DTD SVG 20010904//EN"
 "http://www.w3.org/TR/2001/REC-SVG-20010904/DTD/svg10.dtd">
<svg version="1.0" xmlns="http://www.w3.org/2000/svg"
 width="188.000000pt" height="188.000000pt" viewBox="0 0 188.000000 188.000000"
 preserveAspectRatio="xMidYMid meet">
<metadata>
Created by potrace 1.16, written by Peter Selinger 2001-2019
</metadata>
<g transform="translate(0.000000,188.000000) scale(0.100000,-0.100000)"
fill="#FF3737" stroke="none">
<path d="M703 1660 c-12 -5 -165 -46 -340 -90 -276 -70 -321 -84 -341 -107
-36 -39 -23 -73 69 -185 l80 -98 -86 -144 c-114 -190 -114 -197 6 -246 l86
-35 5 -233 c3 -128 9 -237 14 -242 5 -5 171 -61 369 -126 l360 -116 355 92
c195 52 363 100 372 108 16 14 18 40 18 287 l0 272 58 13 c76 17 110 35 118
64 9 37 -1 58 -80 164 l-73 98 94 88 c85 80 93 91 93 125 0 20 -6 44 -13 52
-11 15 -637 209 -719 224 -36 7 -39 4 -126 -79 l-90 -87 -84 103 c-84 103
-102 116 -145 98z m95 -202 c47 -62 67 -95 59 -99 -16 -9 -562 -149 -580 -149
-8 0 -49 44 -90 98 l-75 98 291 71 c161 39 299 72 308 72 9 1 47 -39 87 -91z
m660 -24 c158 -48 290 -89 294 -93 4 -3 -27 -44 -70 -90 l-77 -83 -65 16 c-36
8 -177 52 -314 96 l-249 82 79 79 c43 43 87 79 97 79 10 0 147 -39 305 -86z
m-588 -279 c0 -52 -3 -95 -7 -95 -21 0 -344 105 -334 108 51 17 301 81 319 81
21 1 22 -2 22 -94z m318 29 c67 -21 121 -39 119 -41 -4 -4 -312 -73 -327 -73
-6 0 -10 34 -10 90 l0 89 48 -14 c26 -8 102 -31 170 -51z m-615 -135 c144 -45
267 -84 274 -88 11 -6 -125 -238 -150 -254 -10 -7 -579 161 -593 175 -4 5 24
53 132 226 10 15 24 22 44 22 17 0 149 -37 293 -81z m1096 -40 c34 -50 60 -93
57 -96 -2 -3 -136 -38 -296 -78 l-291 -73 -74 94 c-41 51 -75 97 -75 102 0 4
44 18 98 31 53 12 178 42 277 66 99 24 194 44 210 44 28 1 37 -8 94 -90z
m-626 -277 c26 -34 58 -65 71 -68 13 -3 116 17 235 46 117 29 214 50 215 49 2
-2 6 -105 8 -229 l5 -225 -291 -74 c-160 -41 -297 -76 -303 -79 -10 -3 -13 68
-13 334 1 268 3 336 13 324 7 -9 34 -44 60 -78z m-177 -569 c-4 -4 -577 174
-582 180 -4 5 -10 377 -6 377 3 0 88 -27 191 -59 226 -72 237 -74 260 -61 11
5 46 51 78 102 l58 92 3 -314 c1 -172 0 -315 -2 -317z"/>
</g>
</svg>
