<svg width="140" height="140" viewBox="0 0 140 140" fill="none" xmlns="http://www.w3.org/2000/svg">
<path d="M0 10C0 4.47716 4.47715 0 10 0H130C135.523 0 140 4.47715 140 10V130C140 135.523 135.523 140 130 140H10C4.47716 140 0 135.523 0 130V10Z" fill="#FFE1E1"/>
<path d="M68.75 77.1875L60.9375 69.375L57.8125 72.5L59.6852 85.6088L68.75 77.1875Z" fill="#5BD2DE"/>
<path d="M107.813 116.25L115.625 124.062L112.5 127.188L98.709 125.217L107.813 116.25Z" fill="#5BD2DE"/>
<path d="M82.4652 71.1113L81.2373 77.2511C81.0008 78.4334 81.0599 79.6559 81.4093 80.8099C81.7587 81.9639 82.3876 83.0138 83.2402 83.8664C84.4765 85.1027 86.1143 85.8559 87.8575 85.99L97.7832 86.7535L82.4652 71.1113Z" fill="#FFBFA1"/>
<path d="M71.875 61.2946C71.8746 61.875 71.9888 62.4499 72.211 62.9861C72.4332 63.5224 72.7591 64.0095 73.1699 64.4196L140 126V81.0005L99.7324 40.9821C99.3221 40.5713 98.8349 40.2455 98.2986 40.0231C97.7623 39.8007 97.1875 39.6862 96.6069 39.686C96.0264 39.6859 95.4515 39.8001 94.9151 40.0222C94.3787 40.2443 93.8913 40.5699 93.4808 40.9805C93.0703 41.391 92.7447 41.8783 92.5226 42.4147C92.3005 42.9511 92.1862 43.526 92.1864 44.1066C92.1865 44.6871 92.3011 45.262 92.5234 45.7983C92.7458 46.3345 93.0717 46.8218 93.4824 47.2321L90.3574 44.1071C89.9471 43.6963 89.4599 43.3705 88.9236 43.1481C88.3873 42.9257 87.8125 42.8112 87.2319 42.811C86.6514 42.8109 86.0765 42.9251 85.5401 43.1472C85.0037 43.3693 84.5163 43.6949 84.1058 44.1055C83.6953 44.516 83.3697 45.0033 83.1476 45.5397C82.9255 46.0761 82.8112 46.651 82.8114 47.2316C82.8115 47.8121 82.9261 48.387 83.1484 48.9233C83.3708 49.4595 83.6967 49.9468 84.1074 50.3571L82.5449 48.7946C82.1346 48.3838 81.6474 48.058 81.1111 47.8356C80.5748 47.6132 80 47.4987 79.4194 47.4985C78.8389 47.4984 78.264 47.6126 77.7276 47.8347C77.1912 48.0568 76.7038 48.3824 76.2933 48.793C75.8828 49.2035 75.5572 49.6908 75.3351 50.2272C75.113 50.7636 74.9987 51.3385 74.9989 51.9191C74.999 52.4996 75.1136 53.0745 75.3359 53.6108C75.5583 54.147 75.8842 54.6343 76.2949 55.0446L79.4199 58.1696C78.8018 57.5516 78.0143 57.1307 77.157 56.9602C76.2997 56.7897 75.4111 56.8773 74.6036 57.2118C73.796 57.5462 73.1058 58.1126 72.6201 58.8394C72.1344 59.5661 71.8751 60.4205 71.875 61.2946Z" fill="#FFCEB6"/>
<path d="M132.818 74.0625L121.883 63.1266L96.8863 88.1228L107.822 99.0587L132.818 74.0625Z" fill="#FFA100"/>
<path d="M112.509 88.1245L107.823 83.4377L104.698 86.5622L109.385 91.249L112.509 88.1245Z" fill="#FFB401"/>
<path d="M117.843 71.5846L124.36 78.1017C125.58 79.3219 125.58 81.3002 124.36 82.5204L117.843 89.0375C116.623 90.2577 114.644 90.2577 113.424 89.0375L106.907 82.5204C105.687 81.3002 105.687 79.3219 106.907 78.1017L113.424 71.5846C114.644 70.3644 116.623 70.3644 117.843 71.5846Z" fill="#FFE28F"/>
<path d="M115.625 91.5148C116.241 91.5159 116.85 91.3954 117.419 91.1602C117.988 90.9249 118.505 90.5797 118.94 90.1442L125.458 83.626C126.336 82.7462 126.829 81.5542 126.829 80.3114C126.829 79.0686 126.336 77.8766 125.458 76.9968L118.94 70.4786C118.06 69.6009 116.868 69.1079 115.625 69.1079C114.382 69.1079 113.19 69.6009 112.311 70.4786L105.792 76.9968C104.915 77.8766 104.422 79.0686 104.422 80.3114C104.422 81.5542 104.915 82.7462 105.792 83.626L112.311 90.1442C112.746 90.5797 113.262 90.9249 113.831 91.1602C114.4 91.3954 115.01 91.5159 115.625 91.5148ZM115.625 72.2315C115.83 72.2311 116.034 72.2713 116.223 72.3498C116.413 72.4282 116.585 72.5433 116.73 72.6885L123.248 79.2067C123.541 79.4999 123.705 79.8972 123.705 80.3114C123.705 80.7256 123.541 81.1229 123.248 81.4161L116.73 87.9343C116.437 88.2269 116.039 88.3912 115.625 88.3912C115.211 88.3912 114.814 88.2269 114.52 87.9343L108.002 81.4161C107.71 81.1229 107.545 80.7256 107.545 80.3114C107.545 79.8972 107.71 79.4999 108.002 79.2067L114.52 72.6885C114.665 72.5433 114.838 72.4282 115.027 72.3498C115.217 72.2713 115.42 72.2311 115.625 72.2315Z" fill="#FFC431"/>
<path d="M67.1875 75.625L56.8972 85.9153C56.1966 86.6159 55.6409 87.4475 55.2618 88.3629C54.8826 89.2782 54.6875 90.2593 54.6875 91.25C54.6875 93.2509 55.4824 95.1699 56.8972 96.5847L67.3271 107.015C67.7514 107.439 68.2889 107.732 68.8753 107.859C69.4617 107.986 70.0723 107.942 70.6341 107.731L78.0314 104.957C78.3123 104.852 78.6176 104.829 78.9108 104.893C79.204 104.956 79.4727 105.103 79.6849 105.315C79.897 105.527 80.0436 105.796 80.1071 106.089C80.1706 106.382 80.1484 106.688 80.043 106.969L77.269 114.366C77.0584 114.928 77.0139 115.538 77.1409 116.125C77.2679 116.711 77.5611 117.249 77.9854 117.673L88.4153 128.103C89.1159 128.803 89.9475 129.359 90.8629 129.738C91.7782 130.117 92.7593 130.312 93.75 130.312C95.7509 130.312 97.6699 129.518 99.0847 128.103L109.375 117.812L67.1875 75.625Z" fill="#8BE0E8"/>
<path d="M65.625 88.125C65.625 87.2621 66.3246 86.5625 67.1875 86.5625C68.0504 86.5625 68.75 87.2621 68.75 88.125V97.5C68.75 98.3629 68.0504 99.0625 67.1875 99.0625C66.3246 99.0625 65.625 98.3629 65.625 97.5V88.125Z" fill="#BBEDF2"/>
<path d="M71.875 92.8125C71.875 91.9496 72.5746 91.25 73.4375 91.25C74.3004 91.25 75 91.9496 75 92.8125V94.375C75 95.2379 74.3004 95.9375 73.4375 95.9375C72.5746 95.9375 71.875 95.2379 71.875 94.375V92.8125Z" fill="#BBEDF2"/>
<path d="M87.5 110C87.5 109.137 88.1996 108.438 89.0625 108.438C89.9254 108.438 90.625 109.137 90.625 110V119.375C90.625 120.238 89.9254 120.938 89.0625 120.938C88.1996 120.938 87.5 120.238 87.5 119.375V110Z" fill="#BBEDF2"/>
<path d="M93.75 114.688C93.75 113.825 94.4496 113.125 95.3125 113.125C96.1754 113.125 96.875 113.825 96.875 114.688V116.25C96.875 117.113 96.1754 117.812 95.3125 117.812C94.4496 117.812 93.75 117.113 93.75 116.25V114.688Z" fill="#BBEDF2"/>
<path d="M85.0313 49.067L87.5085 51.5441C88.1186 52.1543 88.1187 53.1435 87.5085 53.7537C86.8984 54.3638 85.9091 54.3638 85.2989 53.7536L82.8218 51.2765C82.2116 50.6663 82.2116 49.677 82.8217 49.0669C83.4319 48.4568 84.4211 48.4568 85.0313 49.067Z" fill="#FFBFA1"/>
<path d="M94.4049 45.9415L96.882 48.4186C97.4922 49.0288 97.4922 50.0181 96.8821 50.6282C96.2719 51.2383 95.2826 51.2383 94.6725 50.6281L92.1953 48.151C91.5852 47.5408 91.5851 46.5516 92.1953 45.9414C92.8054 45.3313 93.7947 45.3313 94.4049 45.9415Z" fill="#FFBFA1"/>
<path d="M80.3453 56.8795L82.8224 59.3566C83.4326 59.9668 83.4326 60.956 82.8225 61.5662C82.2123 62.1763 81.2231 62.1763 80.6129 61.5661L78.1358 59.089C77.5256 58.4788 77.5256 57.4896 78.1357 56.8794C78.7459 56.2693 79.7351 56.2693 80.3453 56.8795Z" fill="#FFBFA1"/>
</svg>
