<svg width="64" height="64" viewBox="0 0 64 64" fill="none" xmlns="http://www.w3.org/2000/svg">
<circle cx="32" cy="32" r="32" fill="#7BD5E9"/>
<path d="M34.6899 24.8153C35.8921 25.569 36.735 26.8445 36.8885 28.3251C37.3788 28.5542 37.9229 28.6859 38.4998 28.6859C40.606 28.6859 42.313 26.9788 42.313 24.873C42.313 22.7669 40.606 21.0598 38.4998 21.0598C36.4138 21.0605 34.7217 22.737 34.6899 24.8153ZM32.1918 32.6227C34.2979 32.6227 36.005 30.9153 36.005 28.8095C36.005 26.7037 34.2976 24.9966 32.1918 24.9966C30.0859 24.9966 28.3779 26.704 28.3779 28.8098C28.3779 30.9157 30.0859 32.6227 32.1918 32.6227ZM33.8093 32.8826H30.5736C27.8815 32.8826 25.6913 35.0731 25.6913 37.7653V41.7222L25.7013 41.7842L25.9739 41.8696C28.5431 42.6723 30.7751 42.94 32.6123 42.94C36.2006 42.94 38.2805 41.9169 38.4087 41.8517L38.6634 41.7229H38.6906V37.7653C38.6916 35.0731 36.5014 32.8826 33.8093 32.8826ZM40.118 28.9461H36.9073C36.8726 30.2307 36.3242 31.3875 35.4569 32.2194C37.8499 32.931 39.6008 35.15 39.6008 37.7711V38.9905C42.7709 38.8743 44.5977 37.9759 44.718 37.9155L44.9727 37.7864H45V33.8281C45 31.1363 42.8098 28.9461 40.118 28.9461ZM25.5008 28.6865C26.2468 28.6865 26.9408 28.4688 27.5288 28.098C27.7157 26.8789 28.3692 25.8137 29.3027 25.0881C29.3066 25.0168 29.3134 24.946 29.3134 24.874C29.3134 22.7678 27.606 21.0608 25.5008 21.0608C23.3943 21.0608 21.6876 22.7678 21.6876 24.874C21.6876 26.9792 23.3943 28.6865 25.5008 28.6865ZM28.9253 32.2194C28.0622 31.3917 27.5158 30.2411 27.4759 28.9643C27.3568 28.9555 27.239 28.9461 27.1177 28.9461H23.8823C21.1902 28.9461 19 31.1363 19 33.8281V37.7857L19.0101 37.8467L19.2826 37.9327C21.3437 38.5762 23.1831 38.8727 24.7808 38.9662V37.7711C24.7815 35.15 26.5317 32.9316 28.9253 32.2194Z" fill="#4A7883"/>
</svg>
