<svg width="64" height="64" viewBox="0 0 64 64" fill="none" xmlns="http://www.w3.org/2000/svg">
<circle cx="32" cy="32" r="32" fill="#ABDD40"/>
<path d="M42.9355 42.0308L20.4975 42.0204C20.4975 42.0204 18.0821 42.1296 19.9957 40.3122C20.4975 40.0366 21.0877 39.7792 21.7481 39.5478C21.5843 39.176 21.4881 38.7626 21.4881 38.3258C21.4881 36.7606 22.6633 35.4892 24.1141 35.4892C25.5649 35.4892 26.7401 36.758 26.7401 38.3258C26.7401 38.3596 26.7375 38.3908 26.7349 38.4246C26.9039 38.4038 27.0755 38.3804 27.2471 38.3622V23.6878C27.2471 22.7232 27.9595 21.9614 28.9267 21.9614H38.9939C39.9611 21.9614 40.6345 22.7258 40.6345 23.6878V39.1786C41.8097 39.5088 42.8211 39.9014 43.6089 40.3408C46.4949 42.2648 42.9355 42.0308 42.9355 42.0308ZM32.8657 25.8484C32.8657 25.3674 32.4861 24.9852 32.0025 24.9852H30.2761C29.7925 24.9852 29.4129 25.3674 29.4129 25.8484V28.2248C29.4129 28.7058 30.0083 29.088 30.4919 29.088H32.0025C32.4861 29.088 32.8657 28.7058 32.8657 28.2248V25.8484ZM32.8657 32.1118C32.8657 31.6308 32.4861 31.2486 32.0025 31.2486H30.2761C29.7925 31.2486 29.4129 31.6308 29.4129 32.1118V34.4882C29.4129 34.9692 30.0083 35.3514 30.4919 35.3514H32.0025C32.4861 35.3514 32.8657 34.9692 32.8657 34.4882V32.1118ZM38.4791 25.8484C38.4791 25.3674 38.0995 24.9852 37.6159 24.9852H35.8895C35.4059 24.9852 35.0263 25.3674 35.0263 25.8484V28.2248C35.0263 28.7058 35.6217 29.088 36.1053 29.088H37.6159C38.0995 29.088 38.4791 28.7058 38.4791 28.2248V25.8484ZM38.4791 32.1118C38.4791 31.6308 38.0995 31.2486 37.6159 31.2486H35.8895C35.4059 31.2486 35.0263 31.6308 35.0263 32.1118V34.4882C35.0263 34.9692 35.6217 35.3514 36.1053 35.3514H37.6159C38.0995 35.3514 38.4791 34.9692 38.4791 34.4882V32.1118Z" fill="#526D17"/>
</svg>
