<svg width="64" height="64" viewBox="0 0 64 64" fill="none" xmlns="http://www.w3.org/2000/svg">
<circle cx="32" cy="32" r="32" fill="#6D93BF"/>
<path opacity="0.53" d="M48 37.25C45.55 37.25 43.1 36.3542 41 34.9208C36.8 37.9667 31.2 37.9667 27 34.9208C24.9 36.3542 22.45 37.25 20 37.25H16.5V40.8333H20C22.45 40.8333 24.725 40.1167 27 39.0417C31.375 41.3708 36.625 41.3708 41 39.0417C43.275 40.1167 45.55 40.8333 48 40.8333H51.5V37.25H48ZM48 28.2917H46.25V35.2792C45.025 35.1 43.8 34.7417 42.75 34.025V28.2917H34V35.4583C32.775 35.4583 31.725 35.2792 30.5 34.9208V28.2917H21.75V35.2792C21.225 35.4583 20.525 35.4583 20 35.4583H18.25V28.2917H16.5V24.7083H18.25V21.125H21.75V24.7083H30.5V21.125H34V24.7083H42.75V21.125H46.25V24.7083H48V28.2917Z" fill="black"/>
</svg>
