<svg width="64" height="64" viewBox="0 0 64 64" fill="none" xmlns="http://www.w3.org/2000/svg">
<circle cx="32" cy="32" r="32" fill="#5BDC96"/>
<path d="M43.0904 29.3455H39.3646C38.7848 29.3455 38.3064 29.8213 38.3064 30.4063V44.7401H44.146V30.4063C44.1486 29.8213 43.6728 29.3455 43.0904 29.3455ZM42.0244 42.0855H40.4306V40.4917H42.0244V42.0855ZM42.0244 38.3701H40.4306V36.7763H42.0244V38.3701ZM42.0244 34.1243H40.4306V32.5305H42.0244V34.1243Z" fill="#278351"/>
<path d="M36.718 33.5938H34.0608C33.4758 33.5938 33 34.0696 33 34.6572V44.74H37.7788V34.6545C37.7788 34.0721 37.303 33.5938 36.718 33.5938ZM36.185 42.0854H34.5912V40.4915H36.185V42.0854ZM36.185 38.37H34.5912V36.7762H36.185V38.37Z" fill="#278351"/>
<path d="M31.4114 25.0996H30.8758V25.097V23.511C30.8758 22.9156 30.4 22.445 29.8098 22.445H27.956V20.0608C27.956 19.6214 27.5998 19.26 27.1604 19.26C26.7184 19.26 26.3648 19.6188 26.3648 20.0608V22.445H24.511C23.9234 22.445 23.445 22.9208 23.445 23.511V25.097V25.0996H22.9094C22.3296 25.0996 21.8538 25.5754 21.8538 26.163V44.74H32.4696V26.1604C32.4696 25.5702 31.9964 25.0996 31.4114 25.0996ZM26.0996 42.0854H24.5058V40.4916H26.0996V42.0854ZM26.0996 38.37H24.5058V36.7762H26.0996V38.37ZM26.0996 34.1242H24.5058V32.5304H26.0996V34.1242ZM26.0996 29.8758H24.5058V28.282H26.0996V29.8758ZM29.815 42.0854H28.2212V40.4916H29.815V42.0854ZM29.815 38.37H28.2212V36.7762H29.815V38.37ZM29.815 34.1242H28.2212V32.5304H29.815V34.1242ZM29.815 29.8758H28.2212V28.282H29.815V29.8758Z" fill="#278351"/>
</svg>
