<svg width="64" height="64" viewBox="0 0 64 64" fill="none" xmlns="http://www.w3.org/2000/svg">
<circle cx="32" cy="32" r="32" fill="#656565"/>
<g clip-path="url(#clip0_2220_163)">
<path d="M30.6486 40.3077C32.8409 40.3077 34.8662 39.6396 36.5575 38.5121L42.6751 44.6298C43.1556 45.11 43.949 45.11 44.4499 44.6298L45.64 43.4396C46.1203 42.9594 46.1203 42.166 45.64 41.6649L39.5015 35.5681C40.6287 33.8768 41.2971 31.8515 41.2971 29.6592C41.2971 23.792 36.5157 19.0106 30.6486 19.0106C24.7814 19.0106 20 23.792 20 29.6592C20 35.5261 24.7605 40.3077 30.6486 40.3077ZM30.6486 23.1865C34.2189 23.1865 37.1212 26.0888 37.1212 29.6592C37.1212 33.2296 34.2189 36.1318 30.6486 36.1318C27.0782 36.1318 24.1759 33.2296 24.1759 29.6592C24.1759 26.0888 27.0782 23.1865 30.6486 23.1865Z" fill="white"/>
</g>
<defs>
<clipPath id="clip0_2220_163">
<rect width="26" height="26" fill="white" transform="translate(20 19)"/>
</clipPath>
</defs>
</svg>
