<svg width="67" height="64" viewBox="0 0 67 64" fill="none" xmlns="http://www.w3.org/2000/svg">
<g clip-path="url(#clip0_201_90)">
<path fill-rule="evenodd" clip-rule="evenodd" d="M63.9999 52.7847C63.9999 46.9805 50.1408 42.2753 33.0447 42.2753C15.9486 42.2753 2.08954 46.9805 2.08954 52.7847C2.08943 58.5889 15.9485 63.2942 33.0446 63.2942C50.1407 63.2943 63.9999 58.5891 64 52.7849L33.0447 52.7847H63.9999Z" fill="url(#paint0_radial_201_90)"/>
<path fill-rule="evenodd" clip-rule="evenodd" d="M27.4103 3.1548C28.1773 4.01853 29.0711 5.05967 29.8383 5.92315C31.1884 5.26119 32.5383 4.59897 33.8886 3.93675C34.625 2.98675 35.5563 2.40245 36.2929 1.4527C36.3849 1.1362 36.2544 0.79335 36.3464 0.398193C29.5303 3.60527 29.7834 0.585098 27.4103 3.1548Z" fill="url(#paint1_linear_201_90)"/>
<path fill-rule="evenodd" clip-rule="evenodd" d="M17.8225 12.9321C17.8225 12.9321 26.8722 18.7386 26.8722 18.638C26.8722 18.5373 34.2592 12.9993 34.2592 12.9993C29.5868 6.87451 37.7431 3.21285 36.2761 0.0262451C34.4946 1.13231 32.7845 4.44314 30.9316 3.34482C29.9987 4.70421 28.2814 3.85908 27.4196 3.085C26.5498 8.39883 26.4644 10.7473 17.8225 12.9321Z" fill="url(#paint2_linear_201_90)"/>
<path fill-rule="evenodd" clip-rule="evenodd" d="M26.9278 14.5342C28.2723 30.7927 29.6169 47.1493 30.9613 63.4077C28.8774 62.8043 26.7933 62.2009 24.7093 61.5976C-8.93743 69.4752 -8.24412 1.91625 26.9278 14.5342Z" fill="url(#paint3_radial_201_90)"/>
<path fill-rule="evenodd" clip-rule="evenodd" d="M31.7404 12.724C54.8165 7.4478 61.5059 27.8742 61.8935 32.3326C65.0278 51.4097 50.3014 59.9214 42.907 60.8937C39.3551 44.8032 35.2924 28.8146 31.7404 12.724Z" fill="url(#paint4_linear_201_90)"/>
<path fill-rule="evenodd" clip-rule="evenodd" d="M29.1634 4.03853C29.9768 3.94389 30.7902 3.97098 31.6035 3.87634C31.0342 7.02636 31.563 12.8938 30.9936 16.0438C32.783 15.8816 25.0154 13.8537 25.0154 13.8131C27.5774 11.4607 29.2448 4.97142 29.1634 4.03853Z" fill="url(#paint5_linear_201_90)"/>
<path fill-rule="evenodd" clip-rule="evenodd" d="M25.1125 13.9291C25.2134 13.9291 26.7056 14.5459 26.7056 14.5459L31.7679 12.7224L36.6082 14.1302L49.5157 33.9419C49.5157 33.9419 43.4652 53.1502 43.4652 53.2505C43.4652 53.3512 37.0115 61.9998 37.0115 61.9998H34.4906L31.4654 63.9107L24.709 61.497C3.86892 41.1157 16.1041 15.0018 25.1125 13.9291Z" fill="url(#paint6_radial_201_90)"/>
<path fill-rule="evenodd" clip-rule="evenodd" d="M26.6183 14.4224C19.9176 19.6133 18.1629 28.8575 18.1451 40.0184C18.6668 28.7519 19.9897 20.728 26.6183 14.4224Z" fill="#FFF4CC" fill-opacity="0.188235"/>
<path fill-rule="evenodd" clip-rule="evenodd" d="M24.3704 26.1906C23.575 31.949 22.753 36.3382 24.4907 45.8011C22.9959 40.6316 21.647 35.0374 24.3704 26.1906Z" fill="#FFA400"/>
<path fill-rule="evenodd" clip-rule="evenodd" d="M28.0446 63.0237C21.3437 58.1181 19.219 48.9745 19.2012 38.4268C19.7229 49.0744 21.416 57.0644 28.0446 63.0237Z" fill="url(#paint7_linear_201_90)"/>
<path fill-rule="evenodd" clip-rule="evenodd" d="M29.2285 13.7174C50.3026 23.4951 38.655 52.475 34.339 61.9497C35.381 62.4862 37.2297 62.6203 38.8264 62.4527C40.4231 62.285 41.9186 61.7656 43.4146 60.9947C52.2212 54.2231 55.4582 36.2494 53.5319 29.1023C51.5117 21.713 40.1804 9.61441 29.2285 13.7174Z" fill="url(#paint8_radial_201_90)"/>
<path fill-rule="evenodd" clip-rule="evenodd" d="M31.4023 63.6743C36.8049 58.7214 39.8432 45.5823 41.4359 38.6665C40.4149 47.2371 37.9208 57.24 33.7862 62.3018C33.0423 62.9876 31.7273 63.705 31.4023 63.6743Z" fill="url(#paint9_linear_201_90)"/>
<path fill-rule="evenodd" clip-rule="evenodd" d="M29.8978 12.8804C39.9748 16.2725 43.1699 22.5946 43.1965 29.8877C42.4121 22.5254 39.8663 17.0009 29.8978 12.8804Z" fill="url(#paint10_linear_201_90)"/>
<path fill-rule="evenodd" clip-rule="evenodd" d="M26.5709 61.9511C13.673 56.4482 9.79119 32.8134 17.0754 21.6781C7.2572 36.0075 15.4628 54.7308 23.6344 60.3113C24.5204 60.9054 24.4727 62.0683 26.5709 61.9511Z" fill="url(#paint11_linear_201_90)"/>
<path fill-rule="evenodd" clip-rule="evenodd" d="M31.6532 63.9001C34.8005 57.1307 36.1914 51.066 36.2098 44.1737C35.6647 51.1316 33.9729 56.0669 31.6532 63.9001Z" fill="#F7DE00" fill-opacity="0.251572"/>
<path fill-rule="evenodd" clip-rule="evenodd" d="M31.3315 63.9C34.4788 57.1307 36.2292 51.1556 36.2476 44.2633C35.7025 51.2212 33.6511 56.0668 31.3315 63.9Z" fill="url(#paint12_linear_201_90)"/>
<path fill-rule="evenodd" clip-rule="evenodd" d="M35.3734 62.1603C45.4584 47.1784 44.0563 38.6419 44.6652 37.079C44.6189 48.2012 41.0154 54.1374 35.9858 61.8832C35.4575 62.6659 36.1687 62.0503 35.3734 62.1603Z" fill="url(#paint13_linear_201_90)"/>
<path fill-rule="evenodd" clip-rule="evenodd" d="M15.0404 40.0509C16.3082 41.2179 19.9546 43.9319 21.2224 45.0991C21.121 47.044 21.0408 47.896 20.8569 49.8411C20.8569 49.8411 24.1673 50.4136 24.8914 50.547C25.0564 49.5975 25.3182 47.9271 25.4217 46.6893C27.0551 46.8351 39.2485 51.3193 45.6843 40.7678C49.2924 56.7897 19.6236 67.281 15.0404 40.0509Z" fill="url(#paint14_linear_201_90)"/>
<path fill-rule="evenodd" clip-rule="evenodd" d="M30.0235 12.7549C40.1005 16.147 43.2956 22.4691 43.3221 29.7622C42.5378 22.4 39.9919 16.8754 30.0235 12.7549Z" fill="#F7DE00" fill-opacity="0.25098"/>
<path fill-rule="evenodd" clip-rule="evenodd" d="M27.2839 14.2992C29.1222 16.6965 29.5499 16.9011 29.5082 23.2211C29.367 17.658 28.9343 17.4128 27.2839 14.2992Z" fill="url(#paint15_linear_201_90)"/>
<path fill-rule="evenodd" clip-rule="evenodd" d="M46.6535 19.3503C44.5745 25.754 41.7066 30.8173 35.2746 34.9358C36.2517 35.062 39.3589 35.574 40.3363 35.7005L42.3439 33.6303L42.8554 35.9524C43.8319 36.0784 46.0207 36.3242 46.9984 36.45C48.5325 30.4835 48.4964 24.5317 46.6535 19.3503Z" fill="url(#paint16_linear_201_90)"/>
<path fill-rule="evenodd" clip-rule="evenodd" d="M31.2003 11.6605C40.166 14.9048 45.9452 20.0856 45.3042 26.6985C44.5038 17.2294 37.1173 14.9533 32.4227 12.2837C31.9767 12.9271 31.9992 11.6016 31.2003 11.6605Z" fill="url(#paint17_linear_201_90)"/>
<path fill-rule="evenodd" clip-rule="evenodd" d="M15.2426 19.4902C17.3215 25.8939 20.1894 30.9569 26.6214 35.0756C25.6445 35.2019 22.5371 35.7138 21.5597 35.8401L18.667 33.4396L19.3454 36.0415C18.3688 36.1677 15.8753 36.4641 14.8976 36.5899C13.3635 30.6234 13.3997 24.6716 15.2426 19.4902Z" fill="url(#paint18_linear_201_90)"/>
<path fill-rule="evenodd" clip-rule="evenodd" d="M26.395 14.3405C19.6942 19.5313 18.022 28.8575 18.0042 40.0184C18.5259 28.7519 19.7663 20.6461 26.395 14.3405Z" fill="url(#paint19_linear_201_90)"/>
<path fill-rule="evenodd" clip-rule="evenodd" d="M45.4552 22.6007C43.7135 27.303 41.3536 30.237 36.3123 33.9152C37.1309 34.0074 39.1909 34.4635 40.0101 34.5566L41.9852 32.4579L42.5897 34.792C43.4089 34.885 44.9252 35.0651 45.7448 35.1573C47.0304 30.7761 47.0001 26.4056 45.4552 22.6007Z" fill="url(#paint20_linear_201_90)"/>
<path fill-rule="evenodd" clip-rule="evenodd" d="M16.2867 22.4528C18.1334 26.9363 20.4794 30.395 24.815 33.7863C24.0643 33.8762 21.9982 33.9912 21.2472 34.0814L18.5044 33.4633L19.0071 34.2607C18.2568 34.3505 16.8797 34.5252 16.1287 34.6145C14.9499 30.3709 14.8708 26.1379 16.2867 22.4528Z" fill="url(#paint21_linear_201_90)"/>
<path fill-rule="evenodd" clip-rule="evenodd" d="M33.147 22.3276C35.2405 30.5824 35.115 38.4153 32.7699 47.4716C34.5301 44.8848 36.1008 40.8735 36.1637 36.2692C35.8495 30.7852 34.5924 26.415 33.147 22.3276Z" fill="#FF9000"/>
<path fill-rule="evenodd" clip-rule="evenodd" d="M37.7287 62.7197C50.4056 54.1975 49.2301 45.6304 50.0367 44.4944C50.0527 51.2143 45.2739 58.2871 38.5392 62.5184C37.7923 62.0721 38.7818 62.6399 37.7287 62.7197Z" fill="url(#paint22_linear_201_90)"/>
<path d="M46.4962 19.4952C45.789 23.0156 43.7985 27.2948 41.0353 29.5174C38.9375 32.4223 36.651 33.7834 35.0629 34.7891" stroke="#D94842" stroke-opacity="0.704403" stroke-width="2.01047" stroke-linejoin="bevel"/>
<path d="M15.3664 19.7839C13.1256 23.5546 13.6161 32.772 14.8763 36.543" stroke="#D94842" stroke-opacity="0.704403" stroke-width="2.01047" stroke-linecap="round" stroke-linejoin="round"/>
<path fill-rule="evenodd" clip-rule="evenodd" d="M18.457 33.3145L18.7704 32.2887L21.5502 34.1218L21.5833 35.5507L18.457 33.3145Z" fill="#EB7F3D"/>
<path d="M14.7621 36.5864L19.3356 35.8564L18.6769 33.5621L21.5432 35.5925L26.399 34.9869" stroke="#D94842" stroke-opacity="0.704403" stroke-width="2.01047"/>
<path d="M47.201 36.4338L42.78 35.9571L42.3177 33.5878L40.5724 35.6931L35.1418 34.8726" stroke="#D94842" stroke-opacity="0.704403" stroke-width="2.01047"/>
<path fill-rule="evenodd" clip-rule="evenodd" d="M36.4923 62.609C47.9412 49.925 46.3496 42.6979 47.0406 41.3748C47.054 49.2042 42.8971 55.8168 37.187 62.3743C36.9299 62.5469 37.3951 62.516 36.4923 62.609Z" fill="url(#paint23_linear_201_90)"/>
<path fill-rule="evenodd" clip-rule="evenodd" d="M37.5219 62.7196C50.3116 50.8355 48.6879 41.1964 49.4707 39.7659C49.4861 48.2293 45.2797 56.237 38.3086 62.466C37.5838 61.9039 38.5445 62.6189 37.5219 62.7196Z" fill="url(#paint24_linear_201_90)"/>
<path fill-rule="evenodd" clip-rule="evenodd" d="M16.2689 40.9723C17.5367 41.9996 19.9547 43.6215 21.2225 44.6493C21.1211 46.3612 21.1522 47.111 20.9683 48.8232C20.9683 48.8232 24.1673 49.3271 24.8914 49.4445C25.0564 48.6087 25.3182 47.1386 25.4217 46.0489C27.0551 46.1773 39.0402 50.8578 45.6609 41.2143C47.445 56.9421 19.7347 60.2151 16.2689 40.9723Z" fill="url(#paint25_radial_201_90)"/>
<path d="M14.9655 40.2031C19.2224 65.0295 47.5059 58.9533 45.6671 40.8711" stroke="#D94842" stroke-opacity="0.704403" stroke-width="2.15408" stroke-linecap="round"/>
<path fill-rule="evenodd" clip-rule="evenodd" d="M40.0958 61.9829C52.8692 57.8551 57.519 29.0999 51.2052 23.1825C59.3874 32.3992 49.6997 58.0554 43.916 60.7413C42.987 61.3353 42.2966 62.1003 40.0958 61.9829Z" fill="url(#paint26_linear_201_90)"/>
<path fill-rule="evenodd" clip-rule="evenodd" d="M31.5661 11.8013C41.9591 14.1431 48.1838 18.5298 50.9345 23.9976C48.2171 17.3673 41.0091 13.4934 32.2637 12.0696C31.6211 12.6639 32.472 11.9076 31.5661 11.8013Z" fill="url(#paint27_linear_201_90)"/>
<path fill-rule="evenodd" clip-rule="evenodd" d="M19.5591 12.9619C6.30722 11.824 0.419755 25.983 0.345642 33.3651C2.03634 21.7916 7.67981 13.6571 19.5591 12.9619Z" fill="url(#paint28_linear_201_90)"/>
<path fill-rule="evenodd" clip-rule="evenodd" d="M46.7312 59.7931C56.3526 56.1166 61.0069 45.2036 59.9669 34.6321C59.703 48.0383 54.5924 56.72 46.7312 59.7931Z" fill="url(#paint29_linear_201_90)"/>
<path fill-rule="evenodd" clip-rule="evenodd" d="M20.5017 62.416C10.9122 62.2128 3.76384 55.5302 2.47864 49.0791C6.30772 57.5175 12.5863 62.1645 20.5017 62.416Z" fill="url(#paint30_linear_201_90)"/>
<path fill-rule="evenodd" clip-rule="evenodd" d="M44.0211 60.4804C48.3696 59.8173 52.8782 57.2113 54.3886 49.7017C52.435 56.9688 48.2422 59.375 44.0211 60.4804Z" fill="url(#paint31_linear_201_90)"/>
<path fill-rule="evenodd" clip-rule="evenodd" d="M35.5123 11.9696C54.2855 14.4738 60.4666 27.0059 57.1204 40.7059C60.1348 25.0077 51.5586 14.5514 35.5123 11.9696Z" fill="#FFF4CC" fill-opacity="0.188235"/>
<path fill-rule="evenodd" clip-rule="evenodd" d="M39.4229 12.0244C49.0124 12.2275 58.8486 20.095 58.867 27.3882C58.3219 20.0259 47.3383 12.2759 39.4229 12.0244Z" fill="url(#paint32_linear_201_90)"/>
<path fill-rule="evenodd" clip-rule="evenodd" d="M23.0036 13.356C15.5254 14.0098 11.2658 16.5942 7.78577 24.4844C12.07 16.6839 15.744 14.4458 23.0036 13.356Z" fill="url(#paint33_linear_201_90)"/>
<path fill-rule="evenodd" clip-rule="evenodd" d="M43.9705 60.4658C52.3139 57.9383 53.6139 50.1929 54.4805 40.4269C53.6479 50.9795 51.1401 57.8429 43.9705 60.4658Z" fill="url(#paint34_linear_201_90)"/>
<path fill-rule="evenodd" clip-rule="evenodd" d="M31.2447 33.7043L27.8562 40.7117L35.3213 40.5386L31.2447 33.7043Z" fill="url(#paint35_linear_201_90)"/>
<path d="M31.1284 33.7765L27.8782 40.5813L35.2851 40.4652" stroke="#D94842" stroke-opacity="0.704403" stroke-width="2.55299" stroke-linecap="round" stroke-linejoin="round"/>
<path fill-rule="evenodd" clip-rule="evenodd" d="M30.7022 35.0453L28.6592 39.3072L33.3247 39.3318L30.7022 35.0453Z" fill="#FFF4CF"/>
<path fill-rule="evenodd" clip-rule="evenodd" d="M42.4 33.3331L41.9648 32.4846L39.9999 34.5249L40.5565 35.6348L42.4 33.3331Z" fill="#FFA900"/>
<path fill-rule="evenodd" clip-rule="evenodd" d="M23.5036 13.4695C9.50223 17.1355 7.8869 32.3848 7.86749 42.2001C7.91181 30.0877 11.6911 16.5818 23.5036 13.4695Z" fill="#FFF4CC" fill-opacity="0.188679"/>
<path fill-rule="evenodd" clip-rule="evenodd" d="M21.7139 13.2196C12.1245 13.4229 4.83536 19.4973 4.81671 26.7905C5.36179 19.4282 13.7985 13.4712 21.7139 13.2196Z" fill="url(#paint36_linear_201_90)"/>
<path d="M26.5917 14.5211C62.9019 -0.673031 76.6194 52.8735 43.839 60.576" stroke="url(#paint37_linear_201_90)" stroke-width="2.51557" stroke-linecap="round" stroke-linejoin="round"/>
<path fill-rule="evenodd" clip-rule="evenodd" d="M27.5748 14.3313C34.5781 17.2301 36.5367 23.1753 36.5552 30.4684C36.01 23.1062 34.5315 18.2196 27.5748 14.3313Z" fill="url(#paint38_linear_201_90)"/>
<path fill-rule="evenodd" clip-rule="evenodd" d="M23.7334 13.3479C8.84787 16.9727 7.64404 32.1194 7.62463 41.9348C7.66883 29.8224 11.5714 16.3779 23.7334 13.3479Z" fill="url(#paint39_linear_201_90)"/>
<path fill-rule="evenodd" clip-rule="evenodd" d="M21.5715 62.9294C5.27344 59.3044 1.99545 44.8541 3.71269 34.4749C2.84587 47.4972 8.25535 59.8992 21.5715 62.9294Z" fill="#FFBF00" fill-opacity="0.282353"/>
<path fill-rule="evenodd" clip-rule="evenodd" d="M21.8079 13.3605C12.2184 13.5637 5.07038 19.8258 4.91077 26.9314C5.36183 19.6628 13.8926 13.6119 21.8079 13.3605Z" fill="#FFF4CC" fill-opacity="0.188235"/>
<path fill-rule="evenodd" clip-rule="evenodd" d="M35.2463 12.0359C54.0194 14.5399 60.2006 27.0722 56.8542 40.7721C59.8688 25.0738 51.2925 14.6177 35.2463 12.0359Z" fill="url(#paint40_linear_201_90)"/>
<path fill-rule="evenodd" clip-rule="evenodd" d="M23.0699 13.4885C15.4921 14.1756 11.5316 16.9258 7.85211 24.617C12.1698 16.8828 15.6109 14.5785 23.0699 13.4885Z" fill="#FFF4CC" fill-opacity="0.188235"/>
<path fill-rule="evenodd" clip-rule="evenodd" d="M7.02586 27.4376C5.01116 35.15 4.69906 40.2906 7.55253 49.5338C5.43619 43.8002 3.53742 37.0646 7.02586 27.4376Z" fill="url(#paint41_linear_201_90)"/>
<path fill-rule="evenodd" clip-rule="evenodd" d="M7.19851 27.4376C5.18369 35.0097 4.87159 40.0568 7.72506 49.1321C5.60871 43.5028 3.71007 36.8896 7.19851 27.4376Z" fill="#FFBF00" fill-opacity="0.433962"/>
<path fill-rule="evenodd" clip-rule="evenodd" d="M21.35 62.9294C5.05209 59.3045 1.95099 44.7659 3.71268 34.3425C2.4475 47.7181 8.03388 59.8993 21.35 62.9294Z" fill="url(#paint42_linear_201_90)"/>
<path fill-rule="evenodd" clip-rule="evenodd" d="M25.0465 62.1305C17.6805 61.4766 11.935 58.5933 10.2779 50.9271C12.506 58.3542 17.8959 61.0405 25.0465 62.1305Z" fill="url(#paint43_linear_201_90)"/>
<path fill-rule="evenodd" clip-rule="evenodd" d="M24.9434 49.4699L25.8238 48.6138L26.2109 46.1694L25.4581 45.9733L24.9434 49.4699Z" fill="url(#paint44_linear_201_90)"/>
<path fill-rule="evenodd" clip-rule="evenodd" d="M27.1145 62.0114C12.9811 59.5192 11.5904 51.0977 11.2938 41.3115C11.6227 52.2393 14.9698 59.4252 27.1145 62.0114Z" fill="url(#paint45_linear_201_90)"/>
<path fill-rule="evenodd" clip-rule="evenodd" d="M46.4178 59.9804C56.0391 56.3039 60.7414 45.2475 59.7012 34.6761C59.4373 48.0823 54.2791 56.9073 46.4178 59.9804Z" fill="#FFBF00" fill-opacity="0.283019"/>
<path fill-rule="evenodd" clip-rule="evenodd" d="M25.0512 13.886C19.3315 15.0174 16.7959 20.832 15.8152 23.5666C19.5185 15.9887 21.6554 15.0618 25.0512 13.886Z" fill="url(#paint46_linear_201_90)"/>
<path fill-rule="evenodd" clip-rule="evenodd" d="M26.8932 14.4426C26.4574 15.9344 26.2309 23.0818 26.2288 33.363C26.2884 22.9845 26.5591 16.7711 26.8932 14.4426Z" fill="url(#paint47_linear_201_90)"/>
<path fill-rule="evenodd" clip-rule="evenodd" d="M26.8932 14.4426C24.9469 15.2423 23.9346 19.0734 23.9255 24.5845C24.1923 19.0213 25.4006 15.6908 26.8932 14.4426Z" fill="url(#paint48_linear_201_90)"/>
<path fill-rule="evenodd" clip-rule="evenodd" d="M27.4296 14.2992C29.2679 16.6965 29.6955 16.9011 29.6537 23.2211C29.5126 17.658 29.08 17.4128 27.4296 14.2992Z" fill="#FFF4CC" fill-opacity="0.188235"/>
<path fill-rule="evenodd" clip-rule="evenodd" d="M27.6041 14.3024C34.6072 16.9691 36.6821 23.0883 36.7007 30.3814C36.1556 23.0192 34.5315 17.8135 27.6041 14.3024Z" fill="#FFF4CC" fill-opacity="0.188235"/>
<path d="M43.6503 60.6884C40.7863 62.9811 36.9934 62.7538 34.4843 62.022C33.4665 62.6594 32.5445 63.2132 31.5267 63.8505" stroke="url(#paint49_linear_201_90)" stroke-width="2.55299" stroke-linecap="round"/>
<path d="M29.129 3.97986C28.9094 7.53777 26.859 11.8051 24.9928 13.8851" stroke="#006F00" stroke-width="2.55299"/>
<path fill-rule="evenodd" clip-rule="evenodd" d="M36.7337 62.609C48.1826 49.925 46.4561 42.6531 47.1472 41.33C47.1606 49.1594 43.1385 55.8168 37.4284 62.3743C37.1353 62.5351 37.6365 62.516 36.7337 62.609Z" fill="#F7DE00" fill-opacity="0.339623"/>
<path fill-rule="evenodd" clip-rule="evenodd" d="M27.3032 61.9486C13.1698 59.4565 11.7791 51.0349 11.4825 41.2488C11.8114 52.1766 15.1585 59.3625 27.3032 61.9486Z" fill="#F7DE00" fill-opacity="0.25098"/>
<path fill-rule="evenodd" clip-rule="evenodd" d="M37.9174 62.7197C50.5943 54.1975 49.4188 45.6304 50.2254 44.4944C50.2414 51.2143 45.4626 58.2871 38.7278 62.5184C37.981 62.0721 38.9705 62.6399 37.9174 62.7197Z" fill="#F7DE00" fill-opacity="0.25098"/>
<path d="M31.7792 3.51562C31.4168 6.84106 29.3915 10.7111 31.2576 12.7911" stroke="#008000" stroke-width="2.55299"/>
<path d="M36.334 0.149292C37.2729 2.78517 30.3675 7.34477 33.901 12.3044" stroke="#65AD00" stroke-width="2.55299"/>
</g>
<defs>
<radialGradient id="paint0_radial_201_90" cx="0" cy="0" r="1" gradientUnits="userSpaceOnUse" gradientTransform="translate(11.2539 55.0868) scale(62.7926 21.3185)">
<stop stop-opacity="0"/>
<stop offset="1" stop-color="#AD0000" stop-opacity="0.0901961"/>
</radialGradient>
<linearGradient id="paint1_linear_201_90" x1="35.9954" y1="3.14017" x2="26.9959" y2="-0.972146" gradientUnits="userSpaceOnUse">
<stop stop-color="#73D500"/>
<stop offset="1" stop-color="#004700"/>
</linearGradient>
<linearGradient id="paint2_linear_201_90" x1="23.2793" y1="4.14765" x2="34.5883" y2="9.0757" gradientUnits="userSpaceOnUse">
<stop stop-color="#73D500"/>
<stop offset="1" stop-color="#004700"/>
</linearGradient>
<radialGradient id="paint3_radial_201_90" cx="0" cy="0" r="1" gradientUnits="userSpaceOnUse" gradientTransform="translate(-7.1449 18.0825) scale(33.569 54.698)">
<stop stop-color="#FFD200"/>
<stop offset="1" stop-color="#FF8500"/>
</radialGradient>
<linearGradient id="paint4_linear_201_90" x1="31.7404" y1="36.3768" x2="62.3249" y2="36.3768" gradientUnits="userSpaceOnUse">
<stop stop-color="#FFD200"/>
<stop offset="1" stop-color="#FF8500"/>
</linearGradient>
<linearGradient id="paint5_linear_201_90" x1="24.2625" y1="8.24907" x2="29.658" y2="9.84674" gradientUnits="userSpaceOnUse">
<stop stop-opacity="0.529412"/>
<stop offset="1" stop-opacity="0"/>
</linearGradient>
<radialGradient id="paint6_radial_201_90" cx="0" cy="0" r="1" gradientUnits="userSpaceOnUse" gradientTransform="translate(12.4639 22.7201) scale(37.8876 53.4809)">
<stop stop-color="#FFD200"/>
<stop offset="1" stop-color="#FF8500"/>
</radialGradient>
<linearGradient id="paint7_linear_201_90" x1="19.2012" y1="38.4268" x2="28.0446" y2="38.4268" gradientUnits="userSpaceOnUse">
<stop stop-opacity="0.0509804"/>
<stop offset="1" stop-color="#AD0000" stop-opacity="0.0901961"/>
</linearGradient>
<radialGradient id="paint8_radial_201_90" cx="0" cy="0" r="1" gradientUnits="userSpaceOnUse" gradientTransform="translate(27.1585 21.8075) scale(30.1767 60.2945)">
<stop stop-color="#FFDF00"/>
<stop offset="1" stop-color="#FF6F00"/>
</radialGradient>
<linearGradient id="paint9_linear_201_90" x1="31.4023" y1="38.6665" x2="41.4359" y2="38.6665" gradientUnits="userSpaceOnUse">
<stop stop-opacity="0.0509804"/>
<stop offset="1" stop-color="#AD0000" stop-opacity="0.0901961"/>
</linearGradient>
<linearGradient id="paint10_linear_201_90" x1="29.8978" y1="12.8804" x2="43.1964" y2="12.8804" gradientUnits="userSpaceOnUse">
<stop stop-opacity="0.0509804"/>
<stop offset="1" stop-color="#AD0000" stop-opacity="0.0901961"/>
</linearGradient>
<linearGradient id="paint11_linear_201_90" x1="0.0148491" y1="33.6366" x2="22.4251" y2="35.8236" gradientUnits="userSpaceOnUse">
<stop stop-opacity="0.0509804"/>
<stop offset="1" stop-color="#AD0000" stop-opacity="0.0901961"/>
</linearGradient>
<linearGradient id="paint12_linear_201_90" x1="31.3315" y1="44.2633" x2="36.2476" y2="44.2633" gradientUnits="userSpaceOnUse">
<stop stop-opacity="0.0509804"/>
<stop offset="1" stop-color="#AD0000" stop-opacity="0.0901961"/>
</linearGradient>
<linearGradient id="paint13_linear_201_90" x1="35.3734" y1="37.079" x2="44.6652" y2="37.079" gradientUnits="userSpaceOnUse">
<stop stop-opacity="0.0509804"/>
<stop offset="1" stop-color="#AD0000" stop-opacity="0.0901961"/>
</linearGradient>
<linearGradient id="paint14_linear_201_90" x1="25.9559" y1="40.6502" x2="25.9912" y2="64.8608" gradientUnits="userSpaceOnUse">
<stop stop-color="#FF6A00"/>
<stop offset="1" stop-color="#FF9F00"/>
</linearGradient>
<linearGradient id="paint15_linear_201_90" x1="27.2839" y1="14.2992" x2="29.5109" y2="14.2992" gradientUnits="userSpaceOnUse">
<stop stop-opacity="0.0509804"/>
<stop offset="1" stop-color="#AD0000" stop-opacity="0.0901961"/>
</linearGradient>
<linearGradient id="paint16_linear_201_90" x1="30.6015" y1="21.3525" x2="37.7515" y2="39.4547" gradientUnits="userSpaceOnUse">
<stop stop-color="#FF6A00"/>
<stop offset="1" stop-color="#FF9F00"/>
</linearGradient>
<linearGradient id="paint17_linear_201_90" x1="31.2003" y1="11.6586" x2="45.3526" y2="11.6586" gradientUnits="userSpaceOnUse">
<stop stop-opacity="0"/>
<stop offset="1" stop-color="#AD0000" stop-opacity="0.0901961"/>
</linearGradient>
<linearGradient id="paint18_linear_201_90" x1="21.9468" y1="22.4269" x2="21.9468" y2="36.857" gradientUnits="userSpaceOnUse">
<stop stop-color="#FF6A00"/>
<stop offset="1" stop-color="#FF9F00"/>
</linearGradient>
<linearGradient id="paint19_linear_201_90" x1="18.0042" y1="14.3405" x2="26.395" y2="14.3405" gradientUnits="userSpaceOnUse">
<stop stop-opacity="0.0509804"/>
<stop offset="1" stop-color="#AD0000" stop-opacity="0.0901961"/>
</linearGradient>
<linearGradient id="paint20_linear_201_90" x1="41.1434" y1="28.9684" x2="47.2733" y2="28.7246" gradientUnits="userSpaceOnUse">
<stop stop-color="#FFF7CF"/>
<stop offset="1" stop-color="#FFDA62"/>
</linearGradient>
<linearGradient id="paint21_linear_201_90" x1="22.812" y1="28.0132" x2="9.48394" y2="27.797" gradientUnits="userSpaceOnUse">
<stop stop-color="#FFF7CF"/>
<stop offset="1" stop-color="#FFDA62"/>
</linearGradient>
<linearGradient id="paint22_linear_201_90" x1="37.7287" y1="44.4944" x2="50.0367" y2="44.4944" gradientUnits="userSpaceOnUse">
<stop stop-opacity="0.0509804"/>
<stop offset="1" stop-color="#AD0000" stop-opacity="0.0901961"/>
</linearGradient>
<linearGradient id="paint23_linear_201_90" x1="36.4923" y1="41.3748" x2="47.0407" y2="41.3748" gradientUnits="userSpaceOnUse">
<stop stop-opacity="0.0509804"/>
<stop offset="1" stop-color="#AD0000" stop-opacity="0.0901961"/>
</linearGradient>
<linearGradient id="paint24_linear_201_90" x1="37.5219" y1="39.7659" x2="49.4708" y2="39.7659" gradientUnits="userSpaceOnUse">
<stop stop-opacity="0"/>
<stop offset="1" stop-color="#AD0000" stop-opacity="0.0901961"/>
</linearGradient>
<radialGradient id="paint25_radial_201_90" cx="0" cy="0" r="1" gradientUnits="userSpaceOnUse" gradientTransform="translate(30.9073 44.003) scale(15.4729 6.96069)">
<stop stop-color="#FFF7CF"/>
<stop offset="1" stop-color="#FFDA62"/>
</radialGradient>
<linearGradient id="paint26_linear_201_90" x1="27.2632" y1="34.7049" x2="50.0988" y2="37.0643" gradientUnits="userSpaceOnUse">
<stop stop-opacity="0.0509804"/>
<stop offset="1" stop-color="#AD0000" stop-opacity="0.0901961"/>
</linearGradient>
<linearGradient id="paint27_linear_201_90" x1="31.5661" y1="11.8013" x2="50.9345" y2="11.8013" gradientUnits="userSpaceOnUse">
<stop stop-opacity="0.0509804"/>
<stop offset="1" stop-color="#AD0000" stop-opacity="0.0901961"/>
</linearGradient>
<linearGradient id="paint28_linear_201_90" x1="0.345642" y1="12.8972" x2="19.5591" y2="12.8972" gradientUnits="userSpaceOnUse">
<stop stop-opacity="0.0509804"/>
<stop offset="1" stop-color="#AD0000" stop-opacity="0.0901961"/>
</linearGradient>
<linearGradient id="paint29_linear_201_90" x1="46.7312" y1="34.6321" x2="60.1099" y2="34.6321" gradientUnits="userSpaceOnUse">
<stop stop-opacity="0.0509804"/>
<stop offset="1" stop-color="#AD0000" stop-opacity="0.0901961"/>
</linearGradient>
<linearGradient id="paint30_linear_201_90" x1="2.47864" y1="49.0791" x2="20.5017" y2="49.0791" gradientUnits="userSpaceOnUse">
<stop stop-opacity="0.0509804"/>
<stop offset="1" stop-color="#AD0000" stop-opacity="0.0901961"/>
</linearGradient>
<linearGradient id="paint31_linear_201_90" x1="44.0211" y1="49.7017" x2="54.3886" y2="49.7017" gradientUnits="userSpaceOnUse">
<stop stop-opacity="0.0509804"/>
<stop offset="1" stop-color="#AD0000" stop-opacity="0.0901961"/>
</linearGradient>
<linearGradient id="paint32_linear_201_90" x1="39.4229" y1="12.0244" x2="58.867" y2="12.0244" gradientUnits="userSpaceOnUse">
<stop stop-opacity="0.0509804"/>
<stop offset="1" stop-color="#AD0000" stop-opacity="0.0901961"/>
</linearGradient>
<linearGradient id="paint33_linear_201_90" x1="7.78577" y1="13.356" x2="23.0036" y2="13.356" gradientUnits="userSpaceOnUse">
<stop stop-opacity="0.0509804"/>
<stop offset="1" stop-color="#AD0000" stop-opacity="0.0901961"/>
</linearGradient>
<linearGradient id="paint34_linear_201_90" x1="43.9705" y1="40.4269" x2="54.4805" y2="40.4269" gradientUnits="userSpaceOnUse">
<stop stop-opacity="0.0509804"/>
<stop offset="1" stop-color="#AD0000" stop-opacity="0.0901961"/>
</linearGradient>
<linearGradient id="paint35_linear_201_90" x1="32.122" y1="36.257" x2="38.0618" y2="39.5163" gradientUnits="userSpaceOnUse">
<stop stop-color="#FF6A00"/>
<stop offset="1" stop-color="#FF9F00"/>
</linearGradient>
<linearGradient id="paint36_linear_201_90" x1="4.81671" y1="13.2196" x2="21.7139" y2="13.2196" gradientUnits="userSpaceOnUse">
<stop stop-opacity="0.0509804"/>
<stop offset="1" stop-color="#AD0000" stop-opacity="0.0901961"/>
</linearGradient>
<linearGradient id="paint37_linear_201_90" x1="38.763" y1="12.8488" x2="42.4538" y2="56.7634" gradientUnits="userSpaceOnUse">
<stop stop-color="#9E0000" stop-opacity="0"/>
<stop offset="1" stop-color="#DF0000"/>
</linearGradient>
<linearGradient id="paint38_linear_201_90" x1="27.5748" y1="14.3313" x2="36.5552" y2="14.3313" gradientUnits="userSpaceOnUse">
<stop stop-opacity="0.0509804"/>
<stop offset="1" stop-color="#AD0000" stop-opacity="0.0901961"/>
</linearGradient>
<linearGradient id="paint39_linear_201_90" x1="7.62463" y1="13.3479" x2="23.7334" y2="13.3479" gradientUnits="userSpaceOnUse">
<stop stop-opacity="0.0509804"/>
<stop offset="1" stop-color="#AD0000" stop-opacity="0.0901961"/>
</linearGradient>
<linearGradient id="paint40_linear_201_90" x1="35.2463" y1="12.0359" x2="57.7198" y2="12.0359" gradientUnits="userSpaceOnUse">
<stop stop-opacity="0.0509804"/>
<stop offset="1" stop-color="#AD0000" stop-opacity="0.0901961"/>
</linearGradient>
<linearGradient id="paint41_linear_201_90" x1="5.09473" y1="27.4376" x2="7.55254" y2="27.4376" gradientUnits="userSpaceOnUse">
<stop stop-opacity="0.0509804"/>
<stop offset="1" stop-color="#AD0000" stop-opacity="0.0901961"/>
</linearGradient>
<linearGradient id="paint42_linear_201_90" x1="3.27466" y1="34.3425" x2="21.35" y2="34.3425" gradientUnits="userSpaceOnUse">
<stop stop-opacity="0.0509804"/>
<stop offset="1" stop-color="#AD0000" stop-opacity="0.0901961"/>
</linearGradient>
<linearGradient id="paint43_linear_201_90" x1="10.2779" y1="50.9271" x2="25.0465" y2="50.9271" gradientUnits="userSpaceOnUse">
<stop stop-opacity="0.0509804"/>
<stop offset="1" stop-color="#AD0000" stop-opacity="0.0901961"/>
</linearGradient>
<linearGradient id="paint44_linear_201_90" x1="25.6301" y1="46.1917" x2="26.0252" y2="49.1787" gradientUnits="userSpaceOnUse">
<stop stop-color="#FF6A00"/>
<stop offset="1" stop-color="#FF9F00"/>
</linearGradient>
<linearGradient id="paint45_linear_201_90" x1="11.2938" y1="41.3115" x2="27.1145" y2="41.3115" gradientUnits="userSpaceOnUse">
<stop stop-opacity="0.0509804"/>
<stop offset="1" stop-color="#AD0000" stop-opacity="0.0901961"/>
</linearGradient>
<linearGradient id="paint46_linear_201_90" x1="15.8152" y1="13.886" x2="25.0512" y2="13.886" gradientUnits="userSpaceOnUse">
<stop stop-opacity="0.0509804"/>
<stop offset="1" stop-color="#AD0000" stop-opacity="0.0901961"/>
</linearGradient>
<linearGradient id="paint47_linear_201_90" x1="26.2288" y1="14.4426" x2="26.8932" y2="14.4426" gradientUnits="userSpaceOnUse">
<stop stop-opacity="0.0509804"/>
<stop offset="1" stop-color="#AD0000" stop-opacity="0.0901961"/>
</linearGradient>
<linearGradient id="paint48_linear_201_90" x1="23.9255" y1="14.4426" x2="26.8932" y2="14.4426" gradientUnits="userSpaceOnUse">
<stop stop-opacity="0.0509804"/>
<stop offset="1" stop-color="#AD0000" stop-opacity="0.0901961"/>
</linearGradient>
<linearGradient id="paint49_linear_201_90" x1="43.6363" y1="59.174" x2="43.1155" y2="63.7505" gradientUnits="userSpaceOnUse">
<stop stop-color="#9E0000" stop-opacity="0"/>
<stop offset="1" stop-color="#DF0000"/>
</linearGradient>
<clipPath id="clip0_201_90">
<rect width="67" height="64" fill="white"/>
</clipPath>
</defs>
</svg>
