<?xml version="1.0" standalone="no"?>
<!DOCTYPE svg PUBLIC "-//W3C//DTD SVG 20010904//EN"
 "http://www.w3.org/TR/2001/REC-SVG-20010904/DTD/svg10.dtd">
<svg version="1.0" xmlns="http://www.w3.org/2000/svg"
 width="783.000000pt" height="783.000000pt" viewBox="0 0 783.000000 783.000000"
 preserveAspectRatio="xMidYMid meet">
<metadata>
Created by potrace 1.16, written by Peter Selinger 2001-2019
</metadata>
<g transform="translate(0.000000,783.000000) scale(0.100000,-0.100000)"
fill="#FF3737" stroke="none">
<path d="M747 7706 c-3 -7 -18 -16 -32 -20 -15 -4 -33 -12 -40 -19 -7 -7 -25
-21 -40 -32 -36 -26 -84 -96 -91 -135 -4 -17 -11 -33 -15 -36 -13 -7 -11 -431
1 -439 6 -3 10 -15 10 -27 0 -65 145 -208 212 -208 9 0 20 -4 23 -10 8 -13
6291 -14 6299 -1 3 5 22 12 41 15 19 4 35 11 35 16 0 6 7 10 15 10 20 0 111
92 120 121 4 13 13 27 19 31 8 5 11 85 11 260 0 242 -1 255 -23 301 -19 41
-62 91 -115 134 -9 7 -27 15 -42 19 -15 4 -29 13 -32 20 -8 21 -6348 21 -6356
0z"/>
<path d="M755 6472 c-27 -9 -56 -22 -63 -29 -7 -7 -17 -13 -22 -13 -14 0 -93
-82 -112 -117 -10 -17 -18 -40 -18 -50 0 -10 -4 -23 -9 -28 -5 -6 -11 -109
-13 -231 -2 -149 -7 -226 -15 -235 -6 -8 -14 -31 -18 -51 -4 -21 -11 -38 -16
-38 -5 0 -9 -10 -9 -23 0 -13 -3 -27 -7 -31 -5 -4 -8 -11 -9 -14 -6 -39 -18
-72 -25 -72 -5 0 -9 -10 -9 -22 0 -13 -7 -36 -15 -51 -8 -15 -17 -45 -21 -65
-4 -20 -10 -39 -13 -42 -8 -7 -41 -105 -41 -123 0 -8 -3 -17 -8 -19 -8 -3 -52
-135 -52 -155 0 -7 -4 -13 -9 -13 -5 0 -12 -20 -15 -45 -4 -25 -11 -45 -17
-45 -5 0 -9 -11 -9 -25 0 -14 -5 -25 -10 -25 -6 0 -10 -6 -9 -12 3 -20 -13
-78 -21 -78 -4 0 -10 -18 -14 -40 -3 -22 -10 -40 -15 -40 -5 0 -11 -19 -15
-42 -4 -23 -10 -47 -15 -53 -4 -5 -16 -38 -27 -72 -10 -35 -22 -63 -26 -63 -5
0 -8 -9 -8 -21 0 -19 -18 -68 -41 -111 -12 -23 -12 -123 0 -146 5 -9 17 -35
27 -56 20 -42 95 -126 113 -126 6 0 11 -4 11 -10 0 -5 18 -13 40 -16 22 -4 40
-10 40 -15 0 -5 36 -9 80 -9 44 0 80 4 80 9 0 5 12 11 28 14 15 3 41 18 57 32
l30 27 3 -1916 c1 -1266 5 -1916 12 -1916 6 0 10 -11 10 -24 0 -14 5 -28 10
-31 6 -4 8 -11 5 -16 -4 -5 -1 -9 4 -9 6 0 11 -4 11 -10 0 -21 87 -110 107
-110 7 0 13 -4 13 -10 0 -5 7 -10 15 -10 8 0 15 -4 15 -10 0 -7 697 -10 2070
-10 l2070 0 -2 1535 -3 1535 758 0 757 0 0 -1535 0 -1535 380 0 c247 0 380 4
380 10 0 6 5 10 10 10 25 0 130 106 155 155 20 40 20 63 23 1979 l2 1939 25
-27 c13 -14 29 -26 35 -26 5 0 10 -4 10 -9 0 -5 18 -12 40 -16 22 -4 42 -11
46 -16 7 -12 164 -12 164 0 0 5 16 12 36 15 33 7 50 18 110 73 13 12 29 42 35
68 16 63 7 241 -13 283 -9 17 -20 46 -23 64 -4 18 -11 38 -15 43 -4 6 -11 26
-15 45 -4 19 -11 40 -15 45 -4 6 -11 24 -15 40 -5 17 -9 32 -10 35 -5 15 -19
49 -31 77 -8 17 -14 40 -14 52 0 12 -4 21 -9 21 -6 0 -13 20 -17 45 -3 25 -10
45 -15 45 -4 0 -11 20 -15 45 -3 25 -10 45 -15 45 -5 0 -9 11 -9 25 0 14 -4
25 -9 25 -5 0 -12 16 -15 35 -4 19 -13 47 -21 62 -8 15 -15 38 -15 51 0 12 -4
22 -9 22 -5 0 -12 20 -15 45 -4 25 -11 45 -17 45 -5 0 -9 8 -9 17 0 17 -54
173 -71 205 -5 9 -12 35 -15 58 -4 22 -10 40 -14 40 -4 0 -11 16 -15 36 -3 20
-10 44 -15 53 -26 53 -30 82 -32 289 -2 150 -7 225 -14 230 -6 4 -14 17 -18
28 -16 53 -115 129 -203 157 -48 16 -280 17 -3165 16 -2850 -1 -3117 -2 -3163
-17z m950 -984 c-4 -29 -11 -57 -16 -62 -5 -6 -9 -25 -9 -43 0 -18 -4 -33 -9
-33 -5 0 -12 -31 -16 -70 -4 -38 -10 -70 -15 -70 -4 0 -11 -31 -14 -70 -4 -38
-11 -70 -15 -70 -5 0 -12 -31 -15 -70 -4 -38 -11 -70 -17 -70 -5 0 -9 -18 -9
-39 0 -22 -4 -42 -9 -46 -5 -3 -13 -34 -16 -70 -4 -36 -11 -65 -15 -65 -4 0
-11 -31 -15 -70 -4 -38 -10 -70 -15 -70 -4 0 -10 -31 -14 -69 -4 -38 -11 -71
-16 -73 -6 -2 -13 -51 -16 -110 -4 -60 -11 -108 -16 -108 -4 0 -8 -13 -8 -30
0 -16 -5 -30 -12 -30 -6 0 -9 -3 -5 -6 23 -23 -124 -196 -177 -210 -14 -3 -26
-10 -26 -14 0 -5 -20 -12 -45 -16 -25 -3 -45 -10 -45 -15 0 -12 -177 -12 -184
0 -3 4 -24 11 -46 15 -22 3 -40 10 -40 15 0 5 -11 12 -25 15 -25 6 -64 35 -94
69 -9 10 -29 33 -44 50 -15 17 -30 42 -33 54 -4 13 -10 23 -14 23 -4 0 -13 28
-19 63 -5 34 -13 77 -17 95 -3 18 -2 38 4 45 6 6 13 33 17 60 4 26 11 47 16
47 5 0 9 13 9 28 0 16 3 32 7 36 7 7 10 17 20 66 3 16 9 30 13 30 4 0 11 25
15 55 3 30 10 55 14 55 4 0 12 21 18 48 26 106 38 151 46 158 4 4 7 18 7 30 0
13 4 25 9 29 6 3 13 26 17 50 3 25 10 47 14 50 5 3 11 28 15 55 4 28 10 50 15
50 4 0 10 22 14 50 4 27 10 52 15 54 7 5 17 36 26 81 11 50 19 75 25 75 4 0
10 23 14 50 l7 50 375 0 376 0 -7 -52z m1305 28 c0 -14 -4 -27 -9 -30 -4 -3
-11 -76 -15 -163 -4 -87 -11 -171 -16 -188 -5 -16 -14 -102 -20 -190 -6 -88
-16 -200 -20 -250 -5 -49 -14 -133 -19 -185 -5 -52 -10 -137 -10 -187 -1 -51
-5 -93 -10 -93 -5 0 -11 -22 -15 -50 -4 -27 -11 -50 -15 -50 -5 0 -12 -11 -15
-25 -12 -49 -137 -175 -173 -175 -7 0 -13 -4 -13 -9 0 -6 -20 -13 -45 -17 -25
-3 -45 -10 -45 -15 0 -12 -177 -12 -184 0 -3 5 -26 12 -51 15 -25 4 -45 11
-45 17 0 5 -6 9 -13 9 -8 0 -23 8 -35 18 -11 9 -35 28 -51 41 -33 25 -101 129
-101 154 0 8 -6 17 -12 20 -17 5 -18 288 -1 308 6 8 14 52 18 99 4 47 11 87
15 90 6 4 15 60 36 230 4 25 10 50 14 55 4 6 11 48 15 95 4 47 11 87 15 90 3
3 12 43 18 90 6 47 16 121 22 165 5 44 15 97 22 118 l11 37 374 0 373 0 0 -24z
m1293 -33 c4 -32 9 -211 13 -398 3 -187 10 -356 15 -376 12 -47 13 -510 1
-518 -5 -3 -12 -23 -16 -43 -4 -21 -10 -38 -14 -38 -4 0 -13 -13 -20 -30 -12
-26 -72 -92 -115 -127 -24 -19 -104 -53 -126 -53 -11 0 -23 -4 -26 -10 -8 -12
-185 -13 -185 -1 0 5 -20 12 -45 15 -25 4 -45 11 -45 16 0 4 -11 10 -23 14
-60 15 -187 174 -187 234 0 11 -5 22 -10 24 -13 4 -14 502 -1 526 5 9 12 195
16 412 4 217 9 398 12 403 2 4 172 7 377 7 l373 0 6 -57z m1291 26 c3 -17 6
-47 6 -65 0 -19 4 -34 8 -34 4 0 13 -42 20 -92 13 -93 22 -151 41 -243 5 -27
10 -69 10 -92 1 -24 5 -43 10 -43 5 0 12 -41 16 -90 4 -50 11 -92 15 -95 4 -3
11 -42 15 -87 4 -46 11 -87 15 -93 4 -5 10 -28 13 -50 3 -22 10 -71 17 -110
14 -80 9 -230 -8 -247 -7 -7 -12 -20 -12 -30 0 -10 -5 -18 -12 -18 -6 0 -9 -3
-5 -6 9 -9 -41 -85 -79 -119 -55 -49 -61 -54 -88 -61 -14 -3 -26 -10 -26 -15
0 -5 -18 -12 -40 -15 -22 -4 -43 -11 -46 -15 -7 -12 -184 -12 -184 0 0 5 -19
11 -42 15 -23 4 -45 10 -48 14 -3 4 -22 16 -42 26 -21 10 -49 31 -62 45 -56
59 -76 85 -76 97 0 8 -4 14 -10 14 -5 0 -12 17 -16 38 -4 20 -11 40 -17 44 -6
3 -14 64 -19 135 -4 70 -13 202 -19 293 -5 91 -14 172 -19 181 -4 9 -11 91
-15 182 -4 92 -12 167 -16 167 -5 0 -9 33 -9 73 0 39 -4 88 -9 107 -5 19 -12
77 -15 128 l-6 92 374 0 374 0 6 -31z m1302 -19 c4 -27 10 -50 14 -50 5 0 11
-22 15 -50 4 -27 11 -52 15 -55 5 -3 12 -26 16 -50 3 -25 10 -45 14 -45 7 0
14 -25 23 -82 2 -10 6 -21 10 -24 4 -4 7 -18 7 -30 0 -13 4 -25 9 -28 5 -4 12
-29 16 -56 4 -28 11 -50 15 -50 4 0 11 -22 15 -50 4 -27 11 -52 15 -55 5 -3
12 -26 16 -50 3 -25 10 -48 15 -51 5 -3 9 -16 9 -29 0 -13 4 -26 9 -30 6 -3
13 -26 17 -50 3 -25 10 -47 14 -50 5 -3 11 -28 15 -55 4 -28 10 -50 15 -50 4
0 10 -21 14 -46 3 -26 12 -54 19 -62 14 -17 13 -192 -2 -201 -4 -4 -11 -23
-15 -43 -4 -21 -11 -38 -15 -38 -5 0 -12 -11 -15 -25 -8 -32 -120 -143 -152
-151 -13 -3 -24 -10 -24 -14 0 -5 -20 -12 -45 -16 -25 -3 -48 -10 -51 -15 -7
-12 -184 -12 -184 0 0 5 -20 12 -45 15 -25 4 -45 11 -45 16 0 4 -11 11 -24 14
-30 7 -141 116 -151 147 -4 13 -14 29 -21 37 -8 7 -14 27 -14 43 0 16 -4 29
-9 29 -4 0 -11 50 -14 111 -3 61 -10 116 -15 122 -6 7 -13 39 -17 72 -4 33
-11 65 -15 70 -8 10 -11 26 -32 140 -7 39 -16 75 -20 80 -3 6 -9 37 -13 70 -4
33 -11 65 -15 70 -5 6 -11 37 -15 70 -4 33 -11 65 -15 70 -8 10 -11 26 -32
140 -7 39 -16 75 -20 80 -3 6 -9 37 -13 70 -4 33 -11 65 -15 70 -4 6 -11 34
-15 63 l-7 52 376 0 375 0 7 -50z m-2976 -3480 l0 -1070 -1222 0 -1223 0 0
1070 0 1070 1223 0 1222 0 0 -1070z"/>
</g>
</svg>
