<svg width="142" height="140" viewBox="0 0 142 140" fill="none" xmlns="http://www.w3.org/2000/svg">
<rect width="140" height="140" rx="10" fill="#D5D0FF"/>
<g clip-path="url(#clip0)">
<g opacity="0.7">
<path d="M116.213 71.5367L130.649 90.5383C132.185 92.5606 131.257 95.4942 128.838 96.2649L105.098 103.827L113.921 71.9771C114.209 70.9384 115.561 70.6784 116.213 71.5367Z" fill="#978ECB"/>
<path d="M69.248 64.4206L49.8311 78.2928C47.7648 79.7692 47.782 82.8461 49.8647 84.299L70.2984 98.554L71.3072 65.5205C71.34 64.443 70.125 63.794 69.248 64.4206Z" fill="#978ECB"/>
<path d="M91.3683 78.1973C97.4194 79.1142 103.068 74.9522 103.985 68.9011L104.67 64.3784L103.689 64.6942L99.7633 65.9575C95.4328 67.3512 90.6992 66.634 86.976 64.0199L82.7623 61.0617L82.7573 61.0581L82.072 65.5808C81.1551 71.6319 85.3171 77.2805 91.3683 78.1973Z" fill="#978ECB"/>
<path d="M110.288 69.9352L96.0413 55.8499L96.6866 51.591C99.1806 51.8243 101.46 50.0692 101.839 47.5656L101.89 47.2347C102.294 44.5683 100.45 42.07 97.7794 41.6653L97.5015 41.6232C94.8311 41.2186 92.3299 43.0586 91.9259 45.725C91.8131 46.4692 92.3249 47.164 93.0693 47.2768C93.8137 47.3896 94.5084 46.8776 94.6211 46.1334C94.8 44.9531 95.9088 44.139 97.0929 44.3184L97.3708 44.3606C98.5549 44.54 99.3728 45.646 99.1939 46.8263L99.1438 47.1572C98.9758 48.2658 97.934 49.0307 96.8215 48.8621C95.4854 48.6597 94.2337 49.581 94.0314 50.9158L93.3643 55.3187L77.13 64.0784C76.4675 64.4359 76.2202 65.2627 76.5776 65.9252C76.9349 66.5876 77.7618 66.8352 78.4244 66.4774L94.2671 57.9293L108.372 71.8737C108.585 72.0843 108.849 72.2103 109.125 72.252C109.541 72.315 109.981 72.185 110.299 71.8626C110.828 71.3273 110.824 70.4643 110.288 69.9352Z" fill="#E19974"/>
<path d="M114.167 73.8662L112.77 101.278L108.325 130.614C108.024 132.6 106.171 133.964 104.187 133.664L62.33 127.321C60.3462 127.021 58.9799 125.169 59.2807 123.183L67.8137 66.8685C68.0369 65.395 69.1379 64.2071 70.5893 63.8718L82.7578 61.0578L82.0725 65.5805C81.1555 71.6325 85.3179 77.2812 91.3679 78.1979C97.4199 79.1149 103.069 74.9528 103.986 68.9008L104.671 64.3781L115.127 70.6075C116.397 71.3642 114.388 72.4055 114.167 73.8662Z" fill="#ACA6D6"/>
<path d="M115.127 70.6072L111.437 68.4084C111.838 69.1061 112.006 69.932 111.88 70.7621L108.392 93.7817C105.303 114.169 86.2716 128.192 65.8845 125.102L59.2626 124.099C59.4276 125.709 60.657 127.068 62.3301 127.321L104.187 133.663C106.172 133.964 108.025 132.599 108.325 130.614L116.862 74.2741C117.083 72.8133 116.397 71.3636 115.127 70.6072Z" fill="#978ECB"/>
<path d="M88.9885 96.1364L84.9769 97.1846C84.682 97.2617 84.4356 97.4642 84.3028 97.7387L82.4978 101.472C82.0766 102.343 80.7982 102.218 80.5535 101.282L79.5051 97.2701C79.428 96.9752 79.2255 96.7288 78.951 96.596L75.2181 94.791C74.3468 94.3698 74.4717 93.0914 75.408 92.8465L79.4197 91.7983C79.7146 91.7212 79.9609 91.5187 80.0937 91.2442L81.8987 87.5113C82.32 86.64 83.5984 86.7649 83.843 87.7012L84.8914 91.7129C84.9685 92.0078 85.171 92.2543 85.4455 92.3869L89.1784 94.1919C90.0499 94.6132 89.925 95.8916 88.9885 96.1364Z" fill="#D5D0FF"/>
<path d="M95.5645 116.311L92.3487 117.152C92.1123 117.214 91.9147 117.376 91.8083 117.596L90.3614 120.588C90.0237 121.287 88.9988 121.187 88.8027 120.436L87.9622 117.22C87.9005 116.984 87.7382 116.786 87.5182 116.68L84.5257 115.233C83.8272 114.895 83.9273 113.87 84.678 113.674L87.8939 112.834C88.1303 112.772 88.3278 112.61 88.4341 112.39L89.881 109.397C90.2187 108.699 91.2436 108.799 91.4397 109.549L92.2801 112.765C92.3419 113.002 92.5042 113.199 92.7244 113.305L95.7168 114.752C96.4152 115.09 96.3152 116.115 95.5645 116.311Z" fill="#D5D0FF"/>
</g>
</g>
<defs>
<clipPath id="clip0">
<rect width="90" height="90" fill="white" transform="translate(52.2495 34.7666) rotate(8.61607)"/>
</clipPath>
</defs>
</svg>
