<svg width="64" height="64" viewBox="0 0 64 64" fill="none" xmlns="http://www.w3.org/2000/svg">
<circle cx="32" cy="32" r="32" fill="#6EF059"/>
<path d="M27.917 19.2873C27.5717 19.3687 27.0332 19.6885 26.7946 19.9526C26.3221 20.4809 26.0835 21.2173 26.1191 22.0807C26.1344 22.5022 26.1596 22.609 26.3019 22.8984C26.5 23.3048 26.8655 23.6553 27.2922 23.8534C27.8915 24.1378 28.2064 24.1581 31.4621 24.1581H34.418L34.672 24.285C34.809 24.351 35.1036 24.5897 35.3272 24.8183L35.7336 25.2246L27.6783 33.2901C18.8713 42.1023 19.4147 41.5183 19.2878 42.2598C19.1711 42.9405 19.4301 43.6971 19.9378 44.1646C20.6336 44.7995 21.548 44.9316 22.4011 44.52C22.7058 44.3726 23.3407 43.753 30.7663 36.3274L38.8065 28.2976L39.1672 28.653C39.3653 28.8511 39.5886 29.1101 39.6599 29.237L39.7969 29.4655L39.8273 32.6656C39.8528 35.4439 39.8679 35.906 39.944 36.1904C40.2589 37.3942 41.1884 38.0239 42.4276 37.8664C43.4738 37.7343 44.18 37.2671 44.5609 36.4595C44.7083 36.1496 44.7234 36.0685 44.7387 35.5352C44.7642 34.6158 44.4085 26.8754 44.3222 26.5657C44.1953 26.0933 43.9818 25.7784 43.3217 25.0978L42.6816 24.4376L42.9762 24.0871C43.342 23.6555 43.4842 23.3051 43.5196 22.7565C43.5601 22.0656 43.3519 21.5477 42.8542 21.0704C42.5191 20.7555 42.2497 20.6182 41.7877 20.5218C41.107 20.3795 40.4266 20.5777 39.878 21.0854L39.5886 21.3597L39.0044 20.7755C38.6843 20.4555 38.2933 20.1 38.1256 19.9882C37.5466 19.5972 37.6228 19.6073 33.0618 19.4092C28.8007 19.2264 28.2472 19.2111 27.917 19.2873Z" fill="#3F9532"/>
</svg>
