<svg width="59" height="45" viewBox="0 0 59 45" fill="none" xmlns="http://www.w3.org/2000/svg">
<g style="mix-blend-mode:multiply" opacity="0.2">
<path d="M47.4501 11.1743C45.0599 9.7928 41.1498 9.7928 38.7615 11.1743L1.79124 32.5441C-0.59708 33.9256 -0.59708 36.1863 1.79124 37.5678L11.5504 43.2102C13.9387 44.5917 17.8506 44.5917 20.2389 43.2102L57.2074 21.8405C59.5976 20.4608 59.5976 18.1982 57.2074 16.8167L47.4501 11.1743Z" fill="black"/>
</g>
<path d="M54.8283 17.9619L54.6805 18.4662L54.1676 18.6668L51.4592 16.8091L53.6286 16.1924L54.7123 16.9759L54.8283 17.9619Z" fill="#343433"/>
<path d="M27.5086 35.7554L27.0481 36.2615L26.174 36.0084L23.6304 32.6961L26.3987 31.877L27.6022 33.5415L27.5086 35.7554Z" fill="#343433"/>
<path d="M25.9815 33.5689L23.7355 32.283C23.1852 32.0449 22.4646 32.1237 21.6766 32.5792C19.9471 33.5802 18.5452 36.0115 18.5452 38.0154C18.5452 39.0145 18.8952 39.7174 19.4623 40.0455L21.4987 41.2189C21.5386 41.2443 21.5799 41.2674 21.6223 41.2883L21.6391 41.2995C22.2006 41.5751 22.9493 41.5114 23.7673 41.0352C25.4986 40.0342 26.9005 37.603 26.9005 35.5991C26.9024 34.5981 26.543 33.8951 25.9815 33.5689Z" fill="#3B4447"/>
<path d="M26.9022 35.6011C26.9022 37.5993 25.5003 40.0306 23.7689 41.0372C22.0376 42.0439 20.6394 41.2247 20.6394 39.2264C20.6394 37.2282 22.0395 34.795 23.7689 33.7903C25.4984 32.7855 26.9022 33.6009 26.9022 35.6011Z" fill="#555E61"/>
<path d="M26.6571 35.7419C26.6571 37.5846 25.3637 39.8284 23.769 40.7488C22.1743 41.6692 20.8828 40.9232 20.8828 39.0805C20.8828 37.2378 22.1762 34.994 23.769 34.0717C25.3618 33.1495 26.6571 33.8974 26.6571 35.7419Z" fill="#3B4447"/>
<path d="M26.2004 36.0979C26.2004 37.6182 25.1354 39.4721 23.8196 40.2219C22.5037 40.9717 21.4387 40.3663 21.4387 38.846C21.4387 37.3258 22.5037 35.4718 23.8196 34.722C25.1354 33.9722 26.2004 34.5777 26.2004 36.0979Z" fill="#CDCCCB"/>
<path d="M26.0937 36.1599C26.0937 37.6127 25.0755 39.3785 23.8196 40.0965C22.5636 40.8144 21.5454 40.2352 21.5454 38.7843C21.5454 37.3334 22.5636 35.5657 23.8196 34.8478C25.0755 34.1298 26.0937 34.709 26.0937 36.1599Z" fill="url(#paint0_linear)"/>
<path d="M23.8196 34.8458C22.5637 35.5712 21.5455 37.337 21.5455 38.7823C21.5413 39.0421 21.5812 39.3007 21.6634 39.5471C22.0789 39.8658 22.6966 39.8658 23.3872 39.4665C24.6432 38.7392 25.6614 36.9734 25.6614 35.53C25.6656 35.2702 25.6258 35.0116 25.5435 34.7652C25.1261 34.4446 24.5103 34.4465 23.8196 34.8458Z" fill="url(#paint1_linear)"/>
<path d="M21.553 38.638C21.8974 39.0036 22.4645 39.0448 23.1065 38.6718C24.1565 38.0663 25.0082 36.5892 25.0082 35.3745C25.017 35.0833 24.9526 34.7945 24.821 34.5347C24.4656 34.5514 24.1204 34.6585 23.8178 34.8458C22.6124 35.5469 21.6204 37.2171 21.553 38.638Z" fill="#343433"/>
<path d="M24.6413 37.6517C24.7335 37.6317 24.8294 37.6358 24.9195 37.6637C25.0097 37.6916 25.0912 37.7424 25.156 37.8111C25.5546 37.4546 25.8271 36.9785 25.9328 36.4539C25.9526 36.2903 25.9388 36.1245 25.8921 35.9665C25.8454 35.8085 25.7669 35.6618 25.6614 35.5354C25.6614 35.5354 25.6221 36.8344 24.5627 36.7613C24.6126 36.3246 24.6864 35.8909 24.7835 35.4623C24.8678 35.2148 25.025 34.7499 25.3451 34.6431C25.1644 34.5688 24.9706 34.5319 24.7753 34.5348C24.58 34.5377 24.3873 34.5803 24.2089 34.66C24.2089 34.9318 24.164 35.586 23.7691 35.8653C23.4265 36.109 23.0466 35.854 22.8332 35.6778C22.599 35.9436 22.3915 36.2318 22.2137 36.5382C22.3896 36.5476 22.5768 36.617 22.5393 36.8757C22.4813 37.2693 22.0714 37.8579 21.5829 38.246C21.5542 38.4283 21.5392 38.6125 21.538 38.7971C21.5261 39.1584 21.6094 39.5166 21.7794 39.8356C21.8236 39.4837 21.913 39.1391 22.0452 38.8102C22.2661 38.379 22.8444 38.2216 22.8444 38.6396C22.8444 39.0576 22.7527 40.0699 22.7527 40.0699C22.7527 40.0699 23.5501 40.1242 24.0386 39.695C24.4672 39.3201 24.0386 39.3651 23.9188 39.3201C23.7723 39.2495 23.6594 39.124 23.6044 38.9707C23.5494 38.8175 23.5568 38.6487 23.6249 38.5009C23.7193 38.2917 23.8598 38.1066 24.0358 37.9595C24.2119 37.8125 24.4189 37.7072 24.6413 37.6517Z" fill="#D0D2D4"/>
<path d="M23.3611 39.2454C23.1739 38.8911 23.1889 38.4656 22.8595 38.2556C22.7247 38.1675 22.4645 38.2725 22.2156 38.5781C22.4776 38.3306 22.8463 38.295 22.8463 38.6306C22.8463 39.0505 22.7546 40.0608 22.7546 40.0608C23.171 40.0816 23.5841 39.9779 23.9413 39.7628C23.6926 39.6649 23.4869 39.4815 23.3611 39.2454Z" fill="url(#paint2_linear)"/>
<path d="M23.1027 36.4335C23.0652 36.2573 22.6572 36.2817 22.3409 36.3304C22.2997 36.3942 22.2604 36.4579 22.2211 36.5179C22.397 36.5273 22.5842 36.5966 22.5468 36.8553C22.4888 37.249 22.0789 37.8376 21.5903 38.2256C21.5913 38.2387 21.5913 38.2519 21.5903 38.265C22.6628 38.0794 23.1607 36.7185 23.1027 36.4335Z" fill="url(#paint3_linear)"/>
<path d="M24.6411 37.6519C24.7333 37.6319 24.8292 37.636 24.9194 37.6639C25.0095 37.6919 25.091 37.7426 25.1558 37.8113C25.5544 37.4548 25.8269 36.9787 25.9326 36.4541C25.9326 36.4147 25.942 36.3773 25.9438 36.3379C25.6447 36.8459 25.2199 37.2681 24.7104 37.5638C24.6421 37.6016 24.5759 37.6429 24.512 37.6876C24.5539 37.6721 24.5971 37.6601 24.6411 37.6519Z" fill="url(#paint4_linear)"/>
<path d="M24.5627 36.7616C24.5627 36.7616 24.574 37.4139 24.7293 37.5527C25.2306 37.2575 25.6486 36.8395 25.9441 36.3379C25.947 36.0455 25.847 35.7615 25.6614 35.5356C25.6614 35.5356 25.6221 36.8347 24.5627 36.7616Z" fill="url(#paint5_linear)"/>
<path d="M24.6544 34.5474C24.5019 34.5669 24.3524 34.6046 24.2089 34.6598C24.2089 34.9316 24.164 35.5859 23.769 35.8652C23.4265 36.1088 23.0465 35.8539 22.8332 35.6777L22.8088 35.7058C22.996 35.8933 23.3442 36.1726 23.7447 36.1651C24.3118 36.1463 24.7947 35.1941 24.6544 34.5474Z" fill="url(#paint6_linear)"/>
<path d="M24.4373 36.4339C24.4329 36.5134 24.4099 36.5908 24.3703 36.6598C24.3306 36.7288 24.2754 36.7876 24.209 36.8313C24.0817 36.9044 23.9788 36.8445 23.9788 36.6982C23.9834 36.6188 24.0067 36.5416 24.0467 36.4729C24.0867 36.4042 24.1423 36.3459 24.209 36.3027C24.3344 36.2202 24.4373 36.2802 24.4373 36.4339Z" fill="url(#paint7_linear)"/>
<path d="M23.9805 36.666C24.014 36.6704 24.0479 36.6624 24.0759 36.6435C24.1266 36.6111 24.1687 36.5669 24.1986 36.5146C24.2286 36.4624 24.2456 36.4038 24.2481 36.3436C24.2487 36.3224 24.2449 36.3013 24.2369 36.2817L24.2088 36.2949C24.1456 36.3359 24.0924 36.3905 24.0529 36.4547C24.0134 36.5189 23.9886 36.5911 23.9805 36.666Z" fill="#B7B9BB"/>
<path d="M23.7091 36.6041C23.7043 36.6832 23.6812 36.7602 23.6416 36.8289C23.602 36.8975 23.5469 36.956 23.4807 36.9996C23.3534 37.0727 23.2505 37.0146 23.2505 36.8684C23.2548 36.7886 23.278 36.7111 23.318 36.642C23.358 36.5729 23.4138 36.5143 23.4807 36.471C23.6061 36.3978 23.7091 36.456 23.7091 36.6041Z" fill="url(#paint8_linear)"/>
<path d="M23.2524 36.8423C23.2857 36.8466 23.3194 36.8393 23.3479 36.8217C23.3979 36.7885 23.4395 36.7442 23.4694 36.6921C23.4993 36.64 23.5167 36.5817 23.5201 36.5217C23.5209 36.4999 23.517 36.4782 23.5089 36.458L23.4808 36.4711C23.4178 36.5123 23.3647 36.567 23.3252 36.6311C23.2857 36.6953 23.2609 36.7674 23.2524 36.8423Z" fill="#B7B9BB"/>
<path d="M23.2318 37.4812C23.2274 37.5609 23.2043 37.6385 23.1643 37.7075C23.1243 37.7766 23.0685 37.8352 23.0015 37.8786C22.8743 37.9517 22.7732 37.8917 22.7732 37.7455C22.7772 37.6659 22.8 37.5883 22.8397 37.5193C22.8794 37.4502 22.9348 37.3915 23.0015 37.3481C23.1288 37.275 23.2318 37.3349 23.2318 37.4812Z" fill="url(#paint9_linear)"/>
<path d="M22.7751 37.7192C22.8084 37.7246 22.8425 37.7172 22.8706 37.6986C22.9213 37.6662 22.9633 37.6219 22.9933 37.5697C23.0233 37.5175 23.0403 37.4589 23.0428 37.3987C23.0432 37.3769 23.0394 37.3553 23.0316 37.335L23.0016 37.3481C22.9391 37.3897 22.8865 37.4445 22.8474 37.5086C22.8083 37.5727 22.7836 37.6446 22.7751 37.7192Z" fill="#B7B9BB"/>
<path d="M23.7091 37.9593C23.7046 38.0388 23.6817 38.1162 23.642 38.1852C23.6023 38.2542 23.5471 38.313 23.4807 38.3567C23.3534 38.4298 23.2505 38.3717 23.2505 38.2236C23.2551 38.144 23.2784 38.0665 23.3184 37.9975C23.3584 37.9285 23.414 37.8698 23.4807 37.8262C23.6061 37.755 23.7091 37.8131 23.7091 37.9593Z" fill="url(#paint10_linear)"/>
<path d="M23.2524 38.1992C23.2859 38.2036 23.3199 38.1956 23.3479 38.1767C23.3985 38.1442 23.4406 38.1 23.4706 38.0478C23.5006 37.9956 23.5176 37.9369 23.5201 37.8767C23.5205 37.855 23.5167 37.8333 23.5089 37.813L23.4808 37.8261C23.4177 37.8677 23.3646 37.9227 23.3251 37.9872C23.2857 38.0516 23.2609 38.124 23.2524 38.1992Z" fill="#B7B9BB"/>
<path d="M24.4093 37.2937C24.4048 37.3731 24.3819 37.4505 24.3422 37.5195C24.3026 37.5885 24.2473 37.6473 24.1809 37.6911C24.0536 37.7642 23.9507 37.7042 23.9507 37.558C23.955 37.4782 23.9782 37.4007 24.0182 37.3316C24.0582 37.2625 24.114 37.2039 24.1809 37.1606C24.3063 37.0875 24.4093 37.1474 24.4093 37.2937Z" fill="url(#paint11_linear)"/>
<path d="M23.9376 37.1836C23.9332 37.2631 23.9102 37.3405 23.8706 37.4095C23.8309 37.4785 23.7757 37.5372 23.7093 37.581C23.582 37.6541 23.481 37.5941 23.481 37.4479C23.485 37.3683 23.5077 37.2908 23.5474 37.2217C23.5871 37.1526 23.6426 37.094 23.7093 37.0505C23.8347 36.9793 23.9376 37.0393 23.9376 37.1836Z" fill="url(#paint12_linear)"/>
<path d="M23.9524 37.5322C23.9856 37.5367 24.0194 37.5294 24.0479 37.5116C24.0985 37.4791 24.1406 37.4349 24.1706 37.3827C24.2005 37.3305 24.2175 37.2719 24.22 37.2117C24.2206 37.1899 24.2168 37.1682 24.2088 37.1479L24.1807 37.1611C24.1177 37.2023 24.0646 37.2569 24.0251 37.3211C23.9857 37.3852 23.9608 37.4573 23.9524 37.5322Z" fill="#B7B9BB"/>
<path d="M53.5631 17.5869L51.3171 16.301C50.7668 16.0629 50.0462 16.1416 49.2582 16.599C47.5306 17.5982 46.1287 20.0294 46.1287 22.0352C46.1287 23.0343 46.4787 23.7373 47.0458 24.0653L49.0804 25.2388L49.2039 25.31L49.2226 25.3194C49.7841 25.5968 50.5328 25.5312 51.3508 25.0551C53.0802 24.0559 54.4822 21.6228 54.4822 19.6189C54.4822 18.6254 54.1303 17.915 53.5631 17.5869Z" fill="#3B4447"/>
<path d="M54.482 19.6191C54.482 21.6174 53.0801 24.0505 51.3506 25.0553C49.6212 26.06 48.2192 25.2428 48.2192 23.2445C48.2192 21.2462 49.6212 18.8131 51.3506 17.8083C53.0801 16.8036 54.482 17.619 54.482 19.6191Z" fill="#555E61"/>
<path d="M54.2445 19.7595C54.2445 21.6041 52.9511 23.846 51.3564 24.7664C49.7617 25.6868 48.4702 24.9407 48.4702 23.0981C48.4702 21.2554 49.7617 19.0116 51.3564 18.0893C52.9511 17.167 54.2445 17.915 54.2445 19.7595Z" fill="#3B4447"/>
<path d="M53.7822 20.125C53.7822 21.6471 52.7153 23.4992 51.4013 24.249C50.0874 24.9988 49.0205 24.3933 49.0205 22.8731C49.0205 21.3528 50.0855 19.4989 51.4013 18.7491C52.7172 17.9993 53.7822 18.5954 53.7822 20.125Z" fill="#CDCCCB"/>
<path d="M53.6828 20.1774C53.6828 21.6302 52.6646 23.396 51.4087 24.1233C50.1527 24.8506 49.1345 24.2601 49.1345 22.8111C49.1345 21.3621 50.1527 19.5925 51.4087 18.8746C52.6646 18.1566 53.6828 18.7265 53.6828 20.1774Z" fill="url(#paint13_linear)"/>
<path d="M51.4014 18.8634C50.1455 19.5888 49.1272 21.3546 49.1272 22.7999C49.1231 23.0597 49.163 23.3183 49.2452 23.5647C49.6607 23.8834 50.2784 23.8834 50.9671 23.4841C52.2249 22.7568 53.2432 20.991 53.2432 19.5476C53.2464 19.2879 53.2065 19.0294 53.1252 18.7828C52.7079 18.4622 52.0902 18.4641 51.4014 18.8634Z" fill="url(#paint14_linear)"/>
<path d="M49.1345 22.6556C49.477 23.0211 50.046 23.0624 50.688 22.6912C51.7381 22.0839 52.5897 20.6067 52.5897 19.392C52.5976 19.1009 52.5333 18.8124 52.4025 18.5522C52.0472 18.569 51.7019 18.676 51.3993 18.8634C50.1883 19.5626 49.2 21.2347 49.1345 22.6556Z" fill="#343433"/>
<path d="M52.2231 21.6696C52.3153 21.6496 52.4112 21.6537 52.5013 21.6816C52.5915 21.7095 52.6729 21.7603 52.7378 21.829C53.1363 21.4725 53.4089 20.9964 53.5146 20.4718C53.534 20.3083 53.5199 20.1425 53.4733 19.9846C53.4266 19.8266 53.3483 19.6799 53.2432 19.5533C53.2432 19.5533 53.202 20.8523 52.1426 20.7792C52.1934 20.3425 52.2677 19.9088 52.3653 19.4802C52.4496 19.2327 52.6068 18.7678 52.9268 18.661C52.7461 18.5871 52.5523 18.5505 52.3571 18.5534C52.1618 18.5563 51.9692 18.5986 51.7907 18.6779C51.7907 18.9497 51.7458 19.6039 51.3508 19.8832C51.0065 20.1269 50.6284 19.8832 50.415 19.6957C50.1808 19.9615 49.9733 20.2497 49.7954 20.5561C49.9714 20.5655 50.1567 20.6349 50.1193 20.8936C50.0631 21.2872 49.6532 21.8758 49.1665 22.2639C49.1364 22.446 49.1208 22.6303 49.1198 22.815C49.1079 23.1764 49.1912 23.5345 49.3612 23.8535C49.4045 23.5015 49.4938 23.1567 49.627 22.8281C49.8479 22.397 50.4262 22.2395 50.4262 22.6575C50.4262 23.0755 50.3345 24.0878 50.3345 24.0878C50.3345 24.0878 51.1319 24.1421 51.6204 23.7129C52.049 23.338 51.6204 23.383 51.5006 23.338C51.3542 23.2677 51.2413 23.1426 51.1863 22.9897C51.1313 22.8367 51.1387 22.6682 51.2067 22.5207C51.3008 22.311 51.4411 22.1255 51.6172 21.9781C51.7932 21.8307 52.0004 21.7252 52.2231 21.6696Z" fill="#D0D2D4"/>
<path d="M50.9485 23.263C50.7613 22.9106 50.7763 22.4832 50.4469 22.2732C50.3121 22.1851 50.0519 22.2901 49.803 22.5956C50.065 22.3482 50.4338 22.3126 50.4338 22.6481C50.4338 23.068 50.342 24.0784 50.342 24.0784C50.7584 24.0992 51.1715 23.9955 51.5287 23.7804C51.2793 23.6837 51.0732 23.4999 50.9485 23.263Z" fill="url(#paint15_linear)"/>
<path d="M50.6882 20.457C50.6507 20.2808 50.2427 20.3051 49.9264 20.3539C49.8852 20.4176 49.844 20.4832 49.8066 20.5413C49.9825 20.5507 50.1678 20.6201 50.1304 20.8787C50.0742 21.2724 49.6643 21.861 49.1777 22.249C49.1768 22.2621 49.1768 22.2753 49.1777 22.2884C50.2446 22.0972 50.7424 20.7382 50.6882 20.457Z" fill="url(#paint16_linear)"/>
<path d="M52.2229 21.6695C52.3151 21.6495 52.411 21.6536 52.5011 21.6815C52.5913 21.7094 52.6728 21.7602 52.7376 21.8288C53.1362 21.4724 53.4087 20.9962 53.5144 20.4717C53.5201 20.4332 53.5238 20.3944 53.5256 20.3555C53.2264 20.8635 52.8016 21.2857 52.2922 21.5814C52.2239 21.6192 52.1577 21.6605 52.0938 21.7051C52.1357 21.6894 52.1789 21.6775 52.2229 21.6695Z" fill="url(#paint17_linear)"/>
<path d="M52.1426 20.7792C52.1426 20.7792 52.1538 21.4315 52.311 21.5702C52.8119 21.2746 53.2298 20.8567 53.5258 20.3555C53.5287 20.0631 53.4287 19.779 53.2431 19.5532C53.2431 19.5532 53.202 20.8523 52.1426 20.7792Z" fill="url(#paint18_linear)"/>
<path d="M52.2343 18.5654C52.0824 18.5847 51.9334 18.6225 51.7907 18.6779C51.7907 18.9497 51.7457 19.6039 51.3508 19.8832C51.0064 20.1269 50.6283 19.8832 50.415 19.6958C50.415 19.7052 50.3981 19.7145 50.3906 19.7258C50.5778 19.9132 50.9259 20.1907 51.3265 20.1832C51.8936 20.1663 52.3728 19.2121 52.2343 18.5654Z" fill="url(#paint19_linear)"/>
<path d="M52.0189 20.4435C52.0144 20.523 51.9915 20.6004 51.9518 20.6694C51.9122 20.7384 51.8569 20.7971 51.7905 20.8409C51.6633 20.914 51.5603 20.8559 51.5603 20.7097C51.5647 20.63 51.5878 20.5524 51.6278 20.4833C51.6678 20.4143 51.7236 20.3557 51.7905 20.3123C51.9159 20.2392 52.0189 20.2973 52.0189 20.4435Z" fill="url(#paint20_linear)"/>
<path d="M51.5623 20.6875C51.5958 20.6919 51.6297 20.6839 51.6577 20.665C51.7081 20.6327 51.7501 20.5888 51.78 20.5369C51.81 20.4851 51.8271 20.4268 51.8299 20.367C51.8307 20.3452 51.8268 20.3234 51.8187 20.3032L51.7906 20.3163C51.7274 20.3574 51.6742 20.4119 51.6347 20.4761C51.5952 20.5403 51.5704 20.6125 51.5623 20.6875Z" fill="#B7B9BB"/>
<path d="M51.2908 20.62C51.2866 20.6997 51.2636 20.7773 51.2236 20.8464C51.1835 20.9155 51.1277 20.9741 51.0606 21.0174C50.9352 21.0905 50.8323 21.0323 50.8323 20.8861C50.8367 20.8066 50.8597 20.7293 50.8993 20.6603C50.939 20.5913 50.9942 20.5325 51.0606 20.4887C51.1879 20.4156 51.2908 20.4756 51.2908 20.62Z" fill="url(#paint21_linear)"/>
<path d="M50.8342 20.8599C50.8675 20.8642 50.9012 20.8569 50.9297 20.8392C50.9803 20.8068 51.0224 20.7626 51.0524 20.7104C51.0824 20.6582 51.0994 20.5995 51.1019 20.5393C51.1025 20.5175 51.0987 20.4959 51.0907 20.4756L51.0607 20.4887C50.9982 20.5303 50.9456 20.5851 50.9065 20.6492C50.8673 20.7133 50.8427 20.7852 50.8342 20.8599Z" fill="#B7B9BB"/>
<path d="M50.8117 21.4992C50.8077 21.5788 50.7849 21.6563 50.7452 21.7254C50.7055 21.7945 50.6501 21.8532 50.5833 21.8966C50.4561 21.9697 50.355 21.9097 50.355 21.7635C50.359 21.6839 50.3818 21.6064 50.4215 21.5373C50.4612 21.4683 50.5166 21.4096 50.5833 21.3661C50.7106 21.293 50.8117 21.353 50.8117 21.4992Z" fill="url(#paint22_linear)"/>
<path d="M50.3569 21.7392C50.3904 21.7425 50.4239 21.7346 50.4524 21.7167C50.503 21.6842 50.5451 21.64 50.5751 21.5878C50.6051 21.5356 50.622 21.4769 50.6246 21.4168C50.6244 21.3949 50.62 21.3732 50.6115 21.353L50.5834 21.3662C50.5204 21.4077 50.4675 21.4627 50.4283 21.5272C50.3891 21.5917 50.3648 21.6641 50.3569 21.7392Z" fill="#B7B9BB"/>
<path d="M51.2909 21.9771C51.2868 22.0566 51.2639 22.1341 51.2243 22.2031C51.1846 22.2722 51.1292 22.3309 51.0626 22.3745C50.9372 22.4476 50.8342 22.3895 50.8342 22.2433C50.8387 22.1638 50.8616 22.0864 50.9013 22.0174C50.9409 21.9484 50.9962 21.8896 51.0626 21.8459C51.188 21.7709 51.2909 21.8309 51.2909 21.9771Z" fill="url(#paint23_linear)"/>
<path d="M50.8342 22.2167C50.8677 22.2211 50.9017 22.2131 50.9297 22.1942C50.9803 22.1618 51.0224 22.1176 51.0524 22.0653C51.0824 22.0131 51.0993 21.9545 51.1019 21.8943C51.1023 21.8725 51.0985 21.8509 51.0906 21.8306L51.0607 21.8456C50.998 21.887 50.9453 21.9417 50.9061 22.0058C50.867 22.07 50.8424 22.142 50.8342 22.2167Z" fill="#B7B9BB"/>
<path d="M51.9984 21.3117C51.994 21.3915 51.9709 21.469 51.9309 21.5381C51.8909 21.6072 51.8351 21.6658 51.7681 21.7091C51.6427 21.7822 51.5398 21.7222 51.5398 21.576C51.5442 21.4965 51.5672 21.4192 51.6069 21.3502C51.6465 21.2812 51.7017 21.2224 51.7681 21.1786C51.8879 21.1055 51.9984 21.1655 51.9984 21.3117Z" fill="url(#paint24_linear)"/>
<path d="M51.5191 21.2033C51.5148 21.283 51.4916 21.3606 51.4516 21.4297C51.4116 21.4988 51.3559 21.5574 51.2889 21.6007C51.1635 21.6738 51.0605 21.6138 51.0605 21.4676C51.065 21.3881 51.088 21.3108 51.1276 21.2418C51.1673 21.1728 51.2225 21.114 51.2889 21.0702C51.4162 20.9971 51.5191 21.0627 51.5191 21.2033Z" fill="url(#paint25_linear)"/>
<path d="M51.5342 21.5493C51.5675 21.5546 51.6015 21.5473 51.6296 21.5287C51.6803 21.4962 51.7224 21.452 51.7524 21.3998C51.7823 21.3476 51.7993 21.2889 51.8018 21.2288C51.8022 21.207 51.7984 21.1854 51.7906 21.165L51.7607 21.1782C51.6982 21.2198 51.6455 21.2745 51.6064 21.3387C51.5673 21.4028 51.5426 21.4747 51.5342 21.5493Z" fill="#B7B9BB"/>
<path d="M55.4872 12.5932C55.4872 12.5932 55.5733 9.65575 55.4872 9.17587C55.4011 8.69599 54.8377 6.63024 53.2654 5.30307C51.6932 3.9759 48.5094 1.77707 45.8216 0.716078C44.4777 0.187458 42.795 0.0656114 42.183 2.54559e-06C42.0205 -0.000388965 41.8611 0.0443875 41.7225 0.129346L40.9963 0.594231L40.0997 1.08536C40.0997 1.08536 37.3015 1.0235 36.1953 1.31968C35.0891 1.61585 31.4935 3.28607 30.0186 4.03588C28.5437 4.7857 25.5864 6.60588 24.0871 7.51503C22.5879 8.42418 20.602 9.8882 19.288 10.8892C17.9741 11.8902 15.4997 14.254 13.1806 16.4547C13.1806 16.4547 12.3458 17.2045 11.964 17.5794C11.5821 17.9543 6.74936 21.7915 5.9389 22.4195C5.12844 23.0475 3.70406 24.2397 3.55619 24.4965C3.40833 24.7533 2.43316 26.8321 2.43316 26.8321C1.95226 27.5081 1.65434 28.2973 1.56842 29.1228C1.38125 30.5868 1.98582 31.4473 1.98582 31.4473C1.98582 31.4473 1.98582 32.3845 3.07891 33.5243C3.07891 33.5243 3.165 34.1878 4.40409 35.1101C5.64317 36.0324 10.285 38.7748 11.0206 39.1685C11.7562 39.5621 13.3285 40.5575 16.005 40.6512C18.6816 40.745 19.8046 40.1714 19.8046 40.1714L19.8776 40.132C20.1247 36.6041 22.0357 34.0547 24.4353 32.7763C26.191 31.839 27.5573 32.5888 27.3776 34.5796C27.324 35.1518 27.2124 35.7171 27.0445 36.2667L27.2691 36.143L46.3045 24.3896L47.2965 23.711C47.6316 21.1917 49.0297 18.7266 51.755 17.0789C53.3104 16.1417 54.6973 16.6122 54.6748 18.4717C55.0604 17.9787 55.6313 17.1352 55.8503 16.2223C56.1984 14.7939 55.9663 12.9624 55.4872 12.5932Z" fill="#FF5934"/>
<g style="mix-blend-mode:multiply" opacity="0.15">
<path d="M28.1057 28.2794C28.1057 28.2794 19.4303 33.5787 18.938 33.8093C18.4458 34.0398 15.1141 34.6078 11.5522 33.0988C8.85692 31.9572 6.45924 30.6225 5.17149 29.0948C5.01801 29.106 4.93565 29.2504 4.94501 29.554C4.96186 30.0358 5.0648 30.84 5.30626 31.0799C5.54771 31.3199 6.7269 32.0941 7.36515 32.4877C8.00341 32.8814 9.35479 33.6687 10.0773 33.9986C10.7661 34.3135 11.0581 34.1767 11.264 33.9986L11.3033 33.9648C11.2589 34.0134 11.212 34.0597 11.1629 34.1036C10.9532 34.2816 10.6631 34.4185 9.97434 34.1036C9.25185 33.7736 7.89485 32.9788 7.26221 32.5908C6.62956 32.2028 5.4485 31.4267 5.20331 31.1849C4.95811 30.9431 4.85891 30.1408 4.84207 29.659C4.83084 29.3141 4.96373 29.1079 5.17149 29.0967C4.77852 28.6518 4.48157 28.1304 4.29927 27.5652C4.07873 26.7546 3.67747 26.0047 3.1257 25.372C2.80938 26.0374 2.43877 26.8266 2.43877 26.8266C1.95497 27.5036 1.65506 28.2949 1.56842 29.1229C1.38125 30.5869 1.98582 31.4473 1.98582 31.4473V31.4605C2.40882 31.9572 3.20244 32.6845 3.56368 33.0313C4.30114 33.738 8.9636 36.3661 9.95936 36.9285C10.7829 37.3934 12.6603 38.3813 14.9849 38.6156C15.4005 38.6587 15.582 39.0823 15.5932 39.3954C15.6045 39.7084 15.5932 39.9727 15.2189 39.9334C13.3692 39.7229 11.5806 39.1421 9.95936 38.2257C8.9636 37.6633 3.90434 34.9865 3.07891 33.5206C3.07891 33.5206 3.165 34.1842 4.40408 35.1064C5.64317 36.0287 10.285 38.7712 11.0206 39.1648C11.7562 39.5585 13.3285 40.5576 16.005 40.6513C16.9903 40.6988 17.9777 40.6264 18.9455 40.4357C18.9368 40.3109 18.9368 40.1857 18.9455 40.0608C19.1926 36.5292 21.0811 33.5 23.9992 31.9403C24.5608 31.6218 25.192 31.4467 25.8372 31.4305C26.1742 31.4233 26.5089 31.4874 26.8195 31.6185C27.13 31.7497 27.4095 31.9449 27.6397 32.1915C27.9354 32.5158 28.2012 33.2281 28.16 34.1523L46.4561 23.0232C46.9877 20.2376 48.6834 17.8269 51.2702 16.2617C51.6147 16.0512 51.9862 15.8885 52.3745 15.7781L55.3206 13.8004L55.4834 12.5895C55.4834 12.5895 55.5209 11.326 55.5227 10.3213L28.1057 28.2794Z" fill="black"/>
</g>
<g style="mix-blend-mode:multiply" opacity="0.08">
<path d="M53.0015 7.73606L52.2304 7.42676L47.0794 7.7623C45.4734 7.67607 40.8353 10.4035 37.294 12.5649C33.7527 14.7262 31.8754 16.7732 31.8754 16.7732L26.9902 24.8337C26.638 25.5619 26.2134 26.2527 25.723 26.8957C25.0286 27.7486 20.9819 31.4265 20.9819 31.4265L28.9892 26.1909L41.9452 17.688C41.9452 17.688 50.9295 11.6313 51.3394 11.352C52.0674 10.918 52.6364 10.2607 52.9622 9.4775C53.417 8.3584 53.0015 7.73606 53.0015 7.73606Z" fill="black"/>
</g>
<g style="mix-blend-mode:multiply" opacity="0.15">
<path d="M55.9943 14.1711C55.5748 14.741 55.0023 15.1797 54.3435 15.4364C55.0641 14.9303 55.3074 13.9368 55.3074 13.9368V13.9199L52.6084 15.7326C52.8073 15.6909 53.0098 15.6689 53.213 15.667C53.5446 15.6601 53.8738 15.7257 54.1776 15.859C54.4815 15.9924 54.7527 16.1904 54.9724 16.4393C55.1976 16.734 55.3282 17.0903 55.3467 17.4609C55.5689 17.0744 55.7377 16.6595 55.8483 16.2275C56.0034 15.5538 56.0526 14.86 55.9943 14.1711Z" fill="black"/>
</g>
<g style="mix-blend-mode:multiply" opacity="0.15">
<path d="M28.132 34.4781C28.1128 34.632 28.0853 34.7847 28.0496 34.9355C27.986 35.213 27.9205 35.4979 27.8494 35.7828L46.2952 24.3931C46.3121 24.0876 46.342 23.7858 46.3832 23.4858L28.132 34.4781Z" fill="black"/>
</g>
<g style="mix-blend-mode:multiply" opacity="0.1">
<path d="M3.30352 32.0771L3.59364 32.347C3.92307 32.6638 5.29129 33.5917 9.93691 36.2161L9.97997 36.2386C12.226 37.5039 14.4141 38.0812 16.4954 37.9556C17.5127 37.904 18.5173 37.707 19.479 37.3708C19.5688 37.1027 19.6661 36.8403 19.7784 36.5835C18.7289 36.9883 17.6209 37.2206 16.4973 37.2714C13.4913 37.4589 10.9551 36.1111 9.95937 35.5487C8.96362 34.9864 4.30115 32.362 3.5637 31.6516C2.95538 31.0667 1.87914 30.0507 1.63207 28.7329C1.60774 28.8585 1.58528 28.9878 1.56844 29.1228C1.53905 29.3553 1.52841 29.5897 1.53662 29.8239C1.97273 30.8399 2.69896 31.5166 3.30352 32.0771Z" fill="black"/>
</g>
<g style="mix-blend-mode:screen" opacity="0.3">
<path style="mix-blend-mode:screen" opacity="0.3" d="M12.0203 33.2897C12.2336 33.3696 12.4451 33.4427 12.6548 33.509C13.5382 32.9054 17.5812 30.1535 20.0949 28.6914C17.6935 29.9642 13.1583 32.4067 12.0203 33.2897Z" fill="url(#paint26_linear)"/>
</g>
<g style="mix-blend-mode:multiply" opacity="0.15">
<path d="M4.90763 28.7647C5.68253 26.1048 9.58694 21.604 9.58694 21.604C6.48737 24.7401 5.16031 27.3457 4.7373 28.5267C4.7972 28.6073 4.85148 28.686 4.90763 28.7647Z" fill="black"/>
</g>
<path style="mix-blend-mode:multiply" opacity="0.3" d="M54.9744 16.432C54.7546 16.1831 54.4834 15.9851 54.1796 15.8517C53.8758 15.7183 53.5466 15.6528 53.2149 15.6597C52.5253 15.6829 51.8547 15.892 51.2739 16.2651C48.6872 17.8304 46.9914 20.241 46.4599 23.0266L47.0701 23.0735L46.3831 23.4859C46.342 23.7858 46.312 24.0876 46.2952 24.3932H46.3101L47.3021 23.7146C47.6372 21.1952 49.0354 18.7302 51.7606 17.0824C53.316 16.1452 54.7029 16.6157 54.6805 18.4752C54.9306 18.1556 55.1559 17.8172 55.3543 17.463C55.3364 17.0884 55.2037 16.7284 54.9744 16.432Z" fill="url(#paint27_linear)"/>
<path style="mix-blend-mode:multiply" opacity="0.3" d="M27.55 34.8309L28.1602 34.1579C28.2089 33.2338 27.9356 32.5214 27.6399 32.1971C27.4097 31.9505 27.1303 31.7553 26.8197 31.6242C26.5091 31.493 26.1744 31.4289 25.8374 31.4361C25.1922 31.4523 24.561 31.6275 23.9994 31.946C21.0814 33.5 19.1928 36.5348 18.9457 40.0665C18.937 40.1913 18.937 40.3165 18.9457 40.4414C19.2428 40.3853 19.5328 40.2967 19.8105 40.1771L19.8835 40.1377C20.1305 36.6098 22.0416 34.0604 24.4411 32.782C26.1968 31.8447 27.5631 32.5946 27.3835 34.5853C27.3298 35.1575 27.2182 35.7228 27.0503 36.2724L27.2749 36.1487L27.8495 35.7944C27.9207 35.5076 27.9862 35.232 28.0498 34.9471C28.0855 34.7962 28.113 34.6435 28.1322 34.4897L27.55 34.8309Z" fill="url(#paint28_linear)"/>
<g style="mix-blend-mode:multiply" opacity="0.1">
<path d="M2.63159 32.9971C2.76835 33.1852 2.91782 33.3637 3.07894 33.5313C2.96171 33.3287 2.81036 33.148 2.63159 32.9971Z" fill="black"/>
</g>
<g style="mix-blend-mode:multiply" opacity="0.1">
<path d="M18.9455 40.0663C19.0063 39.1855 19.1747 38.3155 19.4471 37.4757C18.4959 37.799 17.5044 37.9883 16.5011 38.0381C16.3139 38.0493 16.1267 38.055 15.9395 38.055C14.0117 38.055 11.9996 37.4682 9.95002 36.3098L9.90697 36.2854C5.25199 33.661 3.87815 32.7238 3.54311 32.4051C3.45327 32.3189 3.35594 32.2289 3.25486 32.1352C2.68399 31.6066 2.00642 30.9748 1.55908 30.0601C1.59213 30.5521 1.74093 31.0294 1.99332 31.4528V31.466C2.41633 31.9627 3.20994 32.69 3.57119 33.0368C4.30864 33.7435 8.97111 36.3716 9.96687 36.934C10.7904 37.3989 12.6678 38.3868 14.9924 38.6211C15.408 38.6642 15.5895 39.0878 15.6008 39.4009C15.612 39.7139 15.6008 39.9782 15.2264 39.9389C13.3767 39.7284 11.5881 39.1476 9.96687 38.2312C8.97111 37.6688 3.91184 34.992 3.08641 33.5261C3.08641 33.5261 3.17251 34.1897 4.41159 35.1119C5.65067 36.0342 10.2925 38.7767 11.0281 39.1703C11.7637 39.564 13.3285 40.5575 16.0051 40.6512C16.9903 40.6987 17.9777 40.6263 18.9455 40.4356C18.9371 40.3127 18.9371 40.1893 18.9455 40.0663Z" fill="black"/>
</g>
<g style="mix-blend-mode:multiply" opacity="0.3">
<path d="M14.985 38.6266C14.0808 38.5298 13.1912 38.3266 12.3346 38.0212L12.3608 38.2199L12.9411 38.5948L12.3926 38.4354C11.4424 38.1386 10.5259 37.7428 9.65805 37.2545C8.66229 36.6921 3.60489 34.0153 2.77759 32.5513V32.75C3.60489 34.214 8.66229 36.8908 9.65805 37.4532C10.534 37.9473 11.4602 38.3463 12.4207 38.6435L12.4656 38.9622C12.4656 38.9622 14.3973 39.5677 15.131 39.5245C15.3026 39.5127 15.4644 39.4403 15.5877 39.3202C15.5502 39.0259 15.3668 38.6679 14.985 38.6266Z" fill="black"/>
</g>
<path style="mix-blend-mode:multiply" opacity="0.2" d="M11.5522 33.1043C8.85696 31.9628 6.45928 30.6281 5.17153 29.1003C5.01805 29.1116 4.93569 29.2559 4.94505 29.5596C4.96189 30.0414 5.06484 30.8455 5.3063 31.0855C5.54775 31.3254 6.72693 32.0996 7.36519 32.4933C8.00345 32.8869 9.35483 33.6742 10.0773 34.0041C10.7661 34.319 11.0581 34.1822 11.264 34.0041L11.3033 33.9704C11.2589 34.019 11.212 34.0653 11.1629 34.1091C10.9533 34.2872 10.6632 34.424 9.97438 34.1091C9.25189 33.7792 7.89489 32.9844 7.26224 32.5963C6.6296 32.2083 5.44854 31.4323 5.20335 31.1904C4.95815 30.9486 4.85895 30.1463 4.84211 29.6646C4.83088 29.3197 4.96377 29.1135 5.17153 29.1022C4.77856 28.6573 4.48161 28.1359 4.29931 27.5707C4.21725 27.2921 4.11721 27.0191 3.99983 26.7534L3.56372 26.9727L3.95678 29.0347L4.09342 30.2044C4.09342 30.2044 3.87817 30.868 4.69798 31.4435C5.5178 32.019 8.06709 33.6742 9.19012 34.2647C10.3132 34.8552 11.6795 35.3894 13.0833 35.1195C13.832 34.9789 14.343 34.4484 14.6649 33.9798C13.5945 33.8211 12.5486 33.527 11.5522 33.1043Z" fill="url(#paint29_linear)"/>
<g style="mix-blend-mode:multiply" opacity="0.2">
<path d="M17.0832 35.8975C16.8961 35.8975 16.6846 35.8975 16.4506 35.8844C15.0375 35.8008 13.6385 35.5568 12.2804 35.1571L12.2261 35.1421C12.0652 35.0971 11.9734 35.024 11.9528 34.9228C11.9248 34.7709 12.0801 34.6472 12.0988 34.6341L12.1625 34.5835C12.5668 34.2704 13.5139 33.5375 14.4422 33.2282C14.8559 33.0895 15.5952 33.0107 16.4712 33.0107C17.4071 33.0107 18.2737 33.097 18.6255 33.2282C19.013 33.3725 19.4379 33.7906 19.2563 34.9753C19.1403 35.7401 18.3036 35.8975 17.0832 35.8975Z" fill="black"/>
</g>
<path d="M55.5266 10.2349L55.3787 10.576L55.3076 13.939L55.4948 12.6024C55.4948 12.6024 55.5266 11.2527 55.5266 10.2349Z" fill="#B01120"/>
<path d="M12.1549 34.7088C12.1549 34.7088 11.8498 34.9412 12.2504 35.05C12.6509 35.1587 14.6368 35.7267 16.4542 35.7904C18.2717 35.8541 19.0541 35.6779 19.1645 34.96C19.26 34.3264 19.2375 33.556 18.5918 33.316C17.946 33.0761 15.4398 32.9936 14.474 33.316C13.5081 33.6384 12.4937 34.4482 12.1549 34.7088Z" fill="url(#paint30_linear)"/>
<path d="M18.5918 33.316C18.079 33.1286 16.3869 33.0348 15.2227 33.1679L13.847 33.8409C13.7851 33.8803 13.7356 33.9364 13.7042 34.0027C13.6727 34.069 13.6606 34.1429 13.6692 34.2158C13.683 34.4302 13.744 34.6389 13.8479 34.8269C13.9517 35.0149 14.0959 35.1775 14.27 35.303C14.3285 35.3517 14.3984 35.3844 14.4731 35.3982C14.5479 35.412 14.6249 35.4063 14.6968 35.3818L18.7416 33.3948C18.6943 33.3638 18.6442 33.3374 18.5918 33.316Z" fill="url(#paint31_linear)"/>
<path d="M13.6767 34.2163C13.6905 34.4307 13.7515 34.6394 13.8554 34.8274C13.9593 35.0154 14.1035 35.178 14.2776 35.3035C14.336 35.3522 14.4059 35.3849 14.4807 35.3987C14.5554 35.4125 14.6324 35.4068 14.7043 35.3823C14.7675 35.3442 14.8181 35.2884 14.8498 35.2217C14.8814 35.155 14.8927 35.0804 14.8821 35.0073C14.8683 34.7927 14.8072 34.5838 14.7033 34.3955C14.5995 34.2072 14.4554 34.0443 14.2813 33.9182C14.2226 33.8701 14.1527 33.8376 14.0781 33.8239C14.0034 33.8101 13.9265 33.8155 13.8545 33.8395C13.7924 33.879 13.7426 33.9354 13.7112 34.0021C13.6797 34.0688 13.6678 34.1431 13.6767 34.2163Z" fill="white"/>
<path d="M18.5918 33.3162C18.067 33.1817 17.5275 33.1137 16.9858 33.1138L15.4697 33.9142C15.4065 33.9522 15.3559 34.0081 15.3243 34.0748C15.2927 34.1415 15.2814 34.216 15.2919 34.2891C15.3052 34.5038 15.3663 34.7129 15.4705 34.901C15.5748 35.0891 15.7197 35.2515 15.8946 35.3763C15.9527 35.425 16.0223 35.4578 16.0967 35.4716C16.1712 35.4853 16.2479 35.4797 16.3195 35.4551L19.1814 34.1223C19.169 33.9459 19.1071 33.7766 19.0028 33.634C18.8984 33.4914 18.7559 33.3812 18.5918 33.3162Z" fill="url(#paint32_linear)"/>
<path d="M15.2919 34.2872C15.3052 34.502 15.3663 34.711 15.4705 34.8991C15.5748 35.0872 15.7197 35.2496 15.8946 35.3745C15.9527 35.4231 16.0223 35.4559 16.0967 35.4697C16.1712 35.4835 16.2479 35.4778 16.3195 35.4532C16.3827 35.4152 16.4333 35.3593 16.4649 35.2926C16.4966 35.2259 16.5078 35.1514 16.4973 35.0783C16.4835 34.8634 16.4222 34.6543 16.318 34.466C16.2138 34.2777 16.0692 34.1148 15.8946 33.9892C15.8366 33.9404 15.7669 33.9076 15.6924 33.8941C15.6179 33.8807 15.5411 33.8869 15.4697 33.9123C15.4065 33.9503 15.3559 34.0062 15.3243 34.0729C15.2927 34.1396 15.2814 34.2142 15.2919 34.2872Z" fill="white"/>
<path d="M17.5398 34.5404C17.5477 34.6695 17.5842 34.7952 17.6467 34.9084C17.7092 35.0216 17.7961 35.1193 17.901 35.1946C17.9363 35.2237 17.9782 35.2434 18.023 35.2519C18.0678 35.2604 18.1141 35.2575 18.1575 35.2434L19.1907 34.7447C19.23 34.3473 19.2019 33.9256 19.0035 33.6294L17.6521 34.3155C17.6137 34.3381 17.5826 34.3713 17.5626 34.4113C17.5427 34.4512 17.5348 34.4961 17.5398 34.5404Z" fill="url(#paint33_linear)"/>
<path d="M17.5399 34.54C17.5478 34.6691 17.5843 34.7948 17.6468 34.908C17.7093 35.0211 17.7962 35.1189 17.9012 35.1942C17.9364 35.2233 17.9783 35.243 18.0232 35.2515C18.068 35.26 18.1142 35.2571 18.1576 35.243C18.1957 35.2197 18.2262 35.1859 18.2455 35.1457C18.2648 35.1054 18.2719 35.0604 18.2662 35.0161C18.2573 34.8871 18.2202 34.7616 18.1574 34.6485C18.0947 34.5354 18.0078 34.4376 17.9031 34.3619C17.868 34.3326 17.826 34.3128 17.781 34.3046C17.7361 34.2964 17.6898 34.3 17.6466 34.3151C17.6092 34.3384 17.5793 34.372 17.5604 34.4119C17.5414 34.4518 17.5344 34.4962 17.5399 34.54Z" fill="#F09041"/>
<path d="M12.1549 34.7088C12.1549 34.7088 11.8498 34.9412 12.2504 35.05C12.6509 35.1587 14.6368 35.7267 16.4542 35.7904C18.2717 35.8541 19.0541 35.6779 19.1645 34.96C19.26 34.3264 19.2375 33.556 18.5918 33.316C17.946 33.0761 15.4398 32.9936 14.474 33.316C13.5081 33.6384 12.4937 34.4482 12.1549 34.7088Z" fill="url(#paint34_linear)"/>
<path d="M3.5786 24.4629C3.57031 24.4729 3.56281 24.4836 3.55614 24.4948C3.40828 24.7534 2.4331 26.8304 2.4331 26.8304C2.4331 26.8304 2.42187 26.8473 2.39941 26.8754C2.48352 27.4641 2.65776 28.0363 2.91601 28.5719C3.23195 29.1638 3.62606 29.7105 4.08771 30.1971C4.21556 29.1214 4.28305 28.0393 4.28986 26.956C4.26927 25.8988 3.923 24.5135 3.5786 24.4629Z" fill="url(#paint35_linear)"/>
<path d="M4.29549 26.9557C4.279 26.474 4.21632 25.995 4.10832 25.5254L3.14625 26.0034C3.08304 26.0414 3.03244 26.0973 3.00081 26.164C2.96918 26.2307 2.95791 26.3052 2.96843 26.3783C2.98253 26.5928 3.04389 26.8016 3.1481 26.9896C3.2523 27.1775 3.39677 27.3401 3.57113 27.4655C3.6292 27.5142 3.69882 27.5469 3.77325 27.5607C3.84769 27.5745 3.92441 27.5689 3.99601 27.5443L4.30672 27.3924C4.30111 27.2481 4.29923 27.0906 4.29549 26.9557Z" fill="url(#paint36_linear)"/>
<path d="M2.95908 26.3766C2.97318 26.5911 3.03454 26.7999 3.13874 26.9879C3.24295 27.1758 3.38741 27.3384 3.56177 27.4638C3.61984 27.5124 3.68946 27.5452 3.76389 27.559C3.83832 27.5728 3.91505 27.5672 3.98665 27.5426C4.05074 27.5049 4.10254 27.4495 4.13577 27.3829C4.16899 27.3164 4.18221 27.2416 4.17382 27.1676C4.15964 26.9527 4.09807 26.7435 3.99353 26.5552C3.889 26.3669 3.7441 26.2041 3.56926 26.0785C3.5111 26.0301 3.44139 25.9975 3.36693 25.984C3.29247 25.9706 3.21579 25.9766 3.14438 26.0017C3.07979 26.0387 3.02767 26.0941 2.99466 26.1608C2.96166 26.2276 2.94927 26.3027 2.95908 26.3766Z" fill="white"/>
<path d="M4.29552 26.9558C4.29552 26.9352 4.29552 26.9127 4.29552 26.8921L3.39148 27.3345C3.32655 27.3712 3.27404 27.4265 3.24069 27.4933C3.20735 27.5601 3.19468 27.6353 3.20431 27.7094C3.2188 27.9238 3.28032 28.1324 3.3845 28.3204C3.48867 28.5083 3.63293 28.6709 3.807 28.7966C3.86295 28.8423 3.92907 28.8739 3.99978 28.8886C4.07048 28.9032 4.14368 28.9006 4.21317 28.881C4.27282 28.241 4.30031 27.5985 4.29552 26.9558Z" fill="url(#paint37_linear)"/>
<path d="M3.81466 27.4131C3.75659 27.3645 3.68696 27.3317 3.61253 27.3179C3.5381 27.3041 3.46137 27.3098 3.38977 27.3344C3.32484 27.3711 3.27233 27.4264 3.23899 27.4932C3.20564 27.56 3.19297 27.6352 3.2026 27.7093C3.21709 27.9237 3.27861 28.1324 3.38279 28.3203C3.48696 28.5082 3.63122 28.6708 3.8053 28.7965C3.86124 28.8423 3.92737 28.8738 3.99808 28.8885C4.06878 28.9032 4.14198 28.9006 4.21146 28.8809C4.2358 28.5903 4.25826 28.2792 4.27136 27.9699C4.16878 27.7485 4.01161 27.5569 3.81466 27.4131Z" fill="white"/>
<path d="M3.5786 24.4629C3.57031 24.4729 3.56281 24.4836 3.55614 24.4948C3.40828 24.7534 2.4331 26.8304 2.4331 26.8304C2.4331 26.8304 2.42187 26.8473 2.39941 26.8754C2.48352 27.4641 2.65776 28.0363 2.91601 28.5719C3.23195 29.1638 3.62606 29.7105 4.08771 30.1971C4.21556 29.1214 4.28305 28.0393 4.28986 26.956C4.26927 25.8988 3.923 24.5135 3.5786 24.4629Z" fill="url(#paint38_linear)"/>
<path d="M51.0794 11.0245C50.6807 10.852 48.5918 9.81166 47.2068 9.79854C45.8217 9.78542 43.9444 10.4153 41.9117 11.3975C41.7881 11.4556 41.6571 11.5325 41.5092 11.6C41.2622 11.7124 41.1012 11.9336 41.1499 12.3966L41.8705 17.6454L40.6183 18.4777L39.776 13.0302C39.7442 12.7472 39.5458 12.7341 39.3586 12.854C37.7546 13.8738 35.9895 15.0173 35.2296 15.5721C33.3298 16.9593 32.4445 18.5714 31.4244 20.2997C30.4717 21.9174 28.9313 25.2747 28.8452 25.8333C28.8452 25.8333 28.6973 26.4407 29.1783 26.0939C29.5882 25.7996 38.0709 20.3128 40.6445 18.6501L41.8948 17.8216L51.3395 11.36C51.3395 11.36 51.5754 11.2419 51.0794 11.0245Z" fill="#141C1E"/>
<path d="M29.7043 20.4809C29.1185 21.5888 27.142 24.9798 26.7433 25.4616C26.3446 25.9433 25.0494 26.4738 23.522 26.2264C21.9947 25.9789 19.1927 24.5562 16.2597 22.7472C13.3268 20.9383 12.2599 19.9954 12.0764 18.9438C11.893 17.8922 13.0123 17.058 13.6524 16.4413C14.2926 15.8246 18.7061 11.5262 20.5647 10.2797C20.5647 10.2797 20.7313 10.0922 21.1599 10.4184C21.5885 10.7446 24.063 12.5647 25.5566 13.4495C27.0502 14.3343 31.8755 16.7731 31.8755 16.7731L29.7043 20.4809Z" fill="#141C1E"/>
<path d="M18.1595 22.0595C16.08 20.618 15.0262 20.0538 13.8395 18.9947C12.6528 17.9355 13.1956 17.1014 13.4652 16.8239C13.5644 16.7265 13.6654 16.6365 13.7553 16.554L13.8545 16.4584C17.0963 13.3242 19.1402 11.4496 20.2783 10.6829L20.2951 10.6717C20.3104 10.6674 20.3266 10.6674 20.3419 10.6717C20.5303 10.6828 20.7124 10.7436 20.8697 10.8479C21.2647 11.1535 23.7091 12.9474 25.2215 13.8472C26.5541 14.6364 30.6401 16.7396 31.4674 17.1576L29.5564 20.4212C29.1165 21.2516 27.8269 23.4692 27.0895 24.6595C26.7956 25.1375 25.5228 25.4712 24.6562 25.2219C23.7896 24.9726 20.1192 23.4186 18.1595 22.0595Z" fill="#303E42"/>
<path d="M47.4744 7.78885C47.4744 7.78885 46.5217 7.80572 46.0275 7.34833C44.5286 6.06838 42.9308 4.90942 41.249 3.88231C39.9609 3.13604 38.6046 2.51462 37.1986 2.02652C36.8523 1.8878 36.0007 1.54289 36.9141 1.35731C37.8275 1.17173 40.1129 1.13799 40.1129 1.13799C41.2478 0.979385 42.4034 1.06502 43.5026 1.38918C45.4086 1.98557 47.2256 2.83679 48.9044 3.9198C50.501 4.95267 52.2211 6.54416 52.5505 6.97342C52.8799 7.40269 53.3759 7.9913 52.5505 7.96506C51.7251 7.93881 47.4744 7.78885 47.4744 7.78885Z" fill="#141C1E"/>
<path d="M52.5599 7.80928C51.7476 7.78304 47.5231 7.63495 47.48 7.63307H47.4613C47.3696 7.63307 46.5535 7.62183 46.1361 7.2338C44.6284 5.94623 43.0212 4.78037 41.3295 3.74716C40.1085 3.03314 38.8224 2.43686 37.4888 1.96635C37.3839 1.92886 37.3016 1.90074 37.2567 1.88012C37.0524 1.81312 36.8593 1.71581 36.6839 1.59144C36.6203 1.5352 36.7644 1.47709 36.9104 1.4471C37.8013 1.25965 40.0418 1.21841 40.0643 1.21841H40.0905C40.0905 1.21841 40.5584 1.17529 41.191 1.17529C41.9603 1.1866 42.7238 1.30973 43.4577 1.54083C45.3476 2.13473 47.1498 2.97887 48.8165 4.05083C50.4374 5.10057 52.1163 6.66019 52.4233 7.06884L52.4888 7.15507C52.5973 7.29753 52.8856 7.67619 52.8425 7.76429C52.8425 7.77367 52.7808 7.80928 52.6048 7.80928H52.5599Z" fill="#39464A"/>
<path d="M50.5233 11.727L42.0145 17.5493L41.3051 12.3756C41.2601 11.9463 41.4267 11.8132 41.5746 11.7439C41.6644 11.7026 41.7449 11.6595 41.8235 11.6183L41.9789 11.5377C44.1557 10.4879 45.9001 9.95557 47.1654 9.95557H47.2047C48.1911 9.95557 49.5519 10.5292 50.3867 10.8797C50.6132 10.9791 51.0811 11.3446 50.5233 11.727Z" fill="#303E42"/>
<path d="M30.8012 24.8394C33.4703 23.1017 38.4958 19.8513 40.4742 18.5728L39.6207 13.0486C39.6207 12.9755 39.5945 12.938 39.5646 12.938C39.5206 12.9425 39.4786 12.9587 39.4429 12.9849C38.0036 13.9015 36.1206 15.1162 35.3251 15.6992C33.5489 16.9964 32.6598 18.511 31.7183 20.1156L31.563 20.378C31.1999 20.9966 30.7432 21.8777 30.3164 22.7699L30.8012 24.8394Z" fill="#303E42"/>
<path d="M22.2922 21.6529C20.5629 20.5215 18.774 19.484 16.9335 18.5449C15.0617 17.5852 13.7777 17.3377 13.1788 17.2759C13.0253 17.6845 13.0459 18.29 13.8395 18.9948C15.0262 20.0539 16.0856 20.6182 18.1594 22.0597C20.1191 23.4187 23.7933 24.954 24.6637 25.2033C25.4083 25.3821 26.193 25.2673 26.8555 24.8828C25.8073 23.6868 23.4583 22.3971 22.2922 21.6529Z" fill="#39464A"/>
<path opacity="0.7" d="M14.3581 16.4263L21.9423 11.6106C21.422 11.2357 21.0233 10.9395 20.8829 10.8308C20.7255 10.7265 20.5435 10.6657 20.3551 10.6546C20.3398 10.6503 20.3236 10.6503 20.3083 10.6546L20.2914 10.6659C19.2096 11.3932 17.3098 13.1234 14.3394 15.9858L14.3581 16.4263Z" fill="#C5D0D3"/>
<path opacity="0.7" d="M39.8715 1.22412C39.31 1.23912 37.6479 1.2991 36.9104 1.44719C36.7644 1.47718 36.6203 1.53529 36.6839 1.59153C36.8593 1.7159 37.0524 1.81321 37.2567 1.88021C37.3053 1.90083 37.3839 1.92895 37.4888 1.96644L37.8781 2.11077C38.3834 1.87083 39.2856 1.45094 39.8715 1.22412Z" fill="#C5D0D3"/>
<path d="M26.9659 22.5622C26.7207 21.803 25.8035 20.8395 24.9201 20.4121C24.7188 20.3065 24.4999 20.2386 24.2743 20.2115C23.8101 20.1722 23.593 20.4646 23.7708 21.012C24.0179 21.7618 24.935 22.7328 25.8166 23.1621C26.0187 23.2674 26.2381 23.3354 26.4642 23.3626C26.9284 23.3982 27.1455 23.1077 26.9659 22.5622ZM26.6364 22.9634C26.6215 22.9821 26.5616 22.999 26.4642 22.9915C26.2869 22.9685 26.1151 22.9139 25.957 22.8303C25.1784 22.4554 24.3398 21.5781 24.1265 20.9239C24.0647 20.7364 24.0834 20.6352 24.1021 20.6108C24.1208 20.5864 24.177 20.5733 24.2743 20.5827C24.4513 20.6047 24.6226 20.6593 24.7797 20.7439C25.5602 21.1188 26.3987 21.9942 26.6102 22.6503C26.6739 22.8396 26.6552 22.9371 26.6364 22.9615V22.9634Z" fill="#3D4B4F"/>
<path d="M21.4668 21.2815L21.5754 21.1634C21.5754 21.1634 23.2412 20.4529 24.8003 21.3171C26.3595 22.1812 26.4437 24.2132 26.4437 24.2132L26.3426 24.3051C26.3426 24.3051 25.1635 24.5469 22.6984 23.4709C20.2333 22.3949 21.4668 21.2815 21.4668 21.2815Z" fill="#3D4B4F"/>
<path opacity="0.2" d="M25.2328 13.8286C23.7204 12.9307 21.2759 11.1368 20.881 10.8294C20.7236 10.7251 20.5415 10.6643 20.3532 10.6531C20.3379 10.6488 20.3217 10.6488 20.3064 10.6531L20.2895 10.6644C19.1515 11.4311 17.1076 13.3056 13.8658 16.4398L13.7666 16.5354C13.6767 16.6217 13.5794 16.7079 13.4765 16.8054C13.2013 17.0828 12.6566 17.9189 13.8508 18.9761C13.9575 19.0736 14.0642 19.1635 14.1727 19.2535C16.9803 17.5946 21.2497 15.332 25.6052 14.0161C25.4592 13.9598 25.3395 13.8886 25.2328 13.8286Z" fill="white"/>
<path opacity="0.2" d="M46.2784 2.64298C45.3669 2.20507 44.4241 1.83601 43.4577 1.53888C42.7238 1.30777 41.9603 1.18464 41.191 1.17334C40.5584 1.17334 40.0942 1.21458 40.0905 1.21646H40.0643C40.0418 1.21646 37.8013 1.26519 36.9104 1.44515C36.7644 1.47514 36.6203 1.53325 36.6839 1.58949C36.8593 1.71386 37.0524 1.81117 37.2567 1.87817C37.3053 1.89879 37.3839 1.9269 37.4888 1.96439C37.7209 2.04875 38.0653 2.17434 38.4864 2.3393C40.302 2.15935 43.2518 2.03 46.2784 2.64298Z" fill="white"/>
<path d="M11.2603 32.6226C10.9159 32.4351 9.32679 31.6403 8.55751 31.1754C7.78823 30.7106 5.86784 29.4303 5.5066 29.2128C5.42754 29.1621 5.34007 29.1259 5.2483 29.106C5.21138 29.2072 5.19669 29.3153 5.20525 29.4228C5.2221 29.9064 5.32504 30.7087 5.56649 30.9505C5.80794 31.1923 6.98713 31.9628 7.62539 32.3564C8.26365 32.7501 9.61504 33.5374 10.3375 33.8692C10.7624 34.0566 11.0376 34.0847 11.2322 34.0322L11.264 34.0041C11.4793 33.8167 11.7956 33.4118 11.8255 33.1887C11.8798 32.8719 11.2603 32.6226 11.2603 32.6226Z" fill="#1B2628"/>
<path d="M10.3336 33.8693C9.61114 33.5375 8.25602 32.7445 7.62151 32.3565C6.98699 31.9685 5.80781 31.1905 5.56261 30.9506C5.31742 30.7107 5.21822 29.9065 5.20137 29.4229C5.19281 29.3154 5.20749 29.2073 5.24442 29.1061C5.04227 29.0704 4.92997 29.2073 4.9412 29.5597C4.95804 30.0414 5.06099 30.8456 5.30244 31.0856C5.54389 31.3255 6.72308 32.0997 7.36133 32.4933C7.99959 32.887 9.35098 33.6743 10.0735 34.0042C10.7267 34.3023 11.0224 34.1917 11.2283 34.0323C11.0337 34.0848 10.7585 34.0623 10.3336 33.8693Z" fill="#5A6567"/>
<path d="M30.146 24.4049C30.0386 24.334 29.915 24.2914 29.7867 24.2812C29.6388 24.2943 29.5621 24.6055 29.5995 24.9279C29.6369 25.2504 29.9963 25.2766 29.9963 25.2766C29.9963 25.2766 30.9827 25.8108 31.1193 25.8558C31.3107 25.8902 31.5075 25.8793 31.694 25.824C31.7969 25.779 31.8512 25.4959 31.8512 25.2616C31.8512 25.0273 31.8269 24.9486 31.6547 24.8398C31.4825 24.7311 30.5559 24.2531 30.5559 24.2531C30.5559 24.2531 30.2471 24.165 30.146 24.4049Z" fill="#FF5934"/>
<path d="M30.0019 24.8324C30.0125 24.6799 30.0622 24.5327 30.146 24.405C30.0386 24.334 29.915 24.2914 29.7867 24.2812C29.6388 24.2944 29.5621 24.6055 29.5995 24.928C29.6369 25.2504 29.9963 25.2766 29.9963 25.2766C29.9817 25.1288 29.9836 24.9798 30.0019 24.8324Z" fill="#414E52"/>
<path d="M29.9888 25.2763C29.9777 25.1363 29.9815 24.9956 30 24.8564C29.8572 24.8101 29.7202 24.7472 29.592 24.6689C29.5826 24.7568 29.5826 24.8454 29.592 24.9333C29.6219 25.2482 29.9888 25.2763 29.9888 25.2763Z" fill="#283539"/>
<g style="mix-blend-mode:multiply" opacity="0.15">
<path d="M31.6827 25.8237C31.7857 25.7787 31.8399 25.4957 31.8399 25.2614C31.846 25.1756 31.8345 25.0895 31.8063 25.0083C31.5835 25.0922 31.3727 25.205 31.1792 25.3438C31.0936 25.4894 31.052 25.6568 31.0594 25.8256L31.1081 25.8481C31.2989 25.8849 31.4957 25.8765 31.6827 25.8237Z" fill="black"/>
</g>
<path d="M13.9292 15.7442L14.56 15.1462C14.5547 14.9989 14.5315 14.8529 14.4908 14.7113C14.1908 14.4719 13.8784 14.2485 13.5549 14.0421C13.5549 14.0421 13.4501 13.939 13.2816 14.1039C13.1132 14.2689 13.0944 14.8219 13.1225 14.9681C13.1487 15.0806 13.6897 15.5455 13.9292 15.7442Z" fill="#FF5934"/>
<g style="mix-blend-mode:multiply" opacity="0.15">
<path d="M13.9444 14.9684C13.892 14.8634 13.3923 14.5091 13.1695 14.3535C13.1233 14.555 13.1101 14.7626 13.1302 14.9684C13.1489 15.0808 13.6917 15.5457 13.9294 15.7444L13.9875 15.6901C14.0019 15.4486 13.9874 15.2064 13.9444 14.9684Z" fill="black"/>
</g>
<path d="M14.5247 15.1819C14.4348 15.1482 14.3 15.1088 14.2327 15.1594C14.1653 15.21 14.1447 15.4294 14.1428 15.5343L14.5247 15.1819Z" fill="#414E52"/>
<path d="M39.7593 21.8964L41.3315 20.9498C41.3315 20.9498 41.4101 20.9067 41.4157 21.036C41.4213 21.1653 41.4157 21.7858 41.4157 21.7858L41.0208 22.0033V21.6565L39.7892 22.3688C39.7892 22.3688 39.6282 22.4438 39.6376 22.2151C39.647 21.9864 39.705 21.9283 39.7593 21.8964Z" fill="#2E383B"/>
<path d="M39.7591 21.9695L41.3313 21.0322C41.3313 21.0322 41.4099 20.9891 41.4156 21.1166C41.4156 21.0829 41.4156 21.0529 41.4156 21.036C41.4156 20.9067 41.3313 20.9498 41.3313 20.9498L39.7591 21.8964C39.7048 21.9283 39.643 21.9939 39.6374 22.2226C39.6365 22.2394 39.6365 22.2563 39.6374 22.2732C39.6449 22.0651 39.7067 21.9995 39.7591 21.9695Z" fill="#485255"/>
<path style="mix-blend-mode:screen" opacity="0.3" d="M41.0207 21.6641L39.7891 22.3764V22.6557L41.0282 21.9284L41.0207 21.6641Z" fill="url(#paint39_linear)"/>
<g style="mix-blend-mode:multiply" opacity="0.2">
<g style="mix-blend-mode:multiply" opacity="0.2">
<path d="M41.3913 26.2889C41.3689 26.0153 41.5785 25.1755 41.7975 24.2851C41.962 23.6807 42.0951 23.0681 42.1962 22.4499C42.271 21.6869 42.1962 19.4506 42.1962 19.2838L41.2715 18.1741C41.2715 18.1291 40.4648 13.7483 40.375 13.0584C40.2851 12.3686 39.9464 12.1212 39.9426 12.1099L39.9763 12.0649C39.9913 12.0781 40.3394 12.3517 40.4311 13.051C40.5229 13.7502 41.2884 17.9529 41.3258 18.1553L42.2523 19.2688V19.2782C42.2523 19.3025 42.3291 21.6701 42.2523 22.4649C42.1517 23.0871 42.018 23.7034 41.8518 24.3113C41.644 25.1548 41.4269 26.0303 41.4475 26.2964L41.3913 26.2889Z" fill="black"/>
</g>
</g>
<g style="mix-blend-mode:multiply" opacity="0.2">
<g style="mix-blend-mode:multiply" opacity="0.2">
<path d="M28.6317 33.768C28.4798 33.478 28.3935 33.1579 28.3791 32.8307C28.3791 32.3752 28.1488 28.5043 28.1395 28.3487L27.6248 27.0759V27.0609C28.0063 25.6261 28.5423 24.2371 29.2232 22.9182C30.2976 20.8899 32.4725 17.347 33.7322 16.1792L33.7696 16.2204C32.5156 17.3845 30.3444 20.9199 29.2775 22.9444C28.5998 24.2574 28.0663 25.6401 27.6865 27.0684L28.1994 28.3375C28.1994 28.3768 28.4371 32.3621 28.4371 32.827C28.4526 33.1444 28.5369 33.4546 28.6842 33.7361L28.6317 33.768Z" fill="black"/>
</g>
</g>
<g style="mix-blend-mode:multiply" opacity="0.2">
<path d="M4.40787 32.6412C4.40787 32.4687 4.53515 32.3994 4.68302 32.4875L9.69737 35.4961C9.77547 35.5492 9.84026 35.6196 9.88669 35.7018C9.93313 35.7841 9.95993 35.876 9.96502 35.9704V36.8383C9.96502 37.0126 9.84523 37.0801 9.69549 36.992L4.65307 33.9815C4.57458 33.9287 4.50973 33.858 4.46385 33.7753C4.41797 33.6925 4.39237 33.6 4.38916 33.5054L4.40787 32.6412Z" fill="black"/>
</g>
<path d="M9.82286 36.9304C9.79637 36.9281 9.77076 36.9197 9.74799 36.906L4.70556 33.8936C4.64142 33.8496 4.5883 33.7913 4.55031 33.7234C4.51233 33.6554 4.49052 33.5796 4.48657 33.5018L4.50342 32.6433C4.50342 32.6058 4.50342 32.5439 4.56144 32.5439C4.58793 32.5462 4.61354 32.5546 4.63631 32.5683L9.65253 35.5676C9.71653 35.6125 9.76973 35.6711 9.80825 35.7392C9.84678 35.8073 9.86968 35.8832 9.87527 35.9612V36.8291C9.88463 36.8704 9.86778 36.9304 9.82286 36.9304Z" fill="white"/>
<path d="M11.4717 33.7908L11.569 33.6689C10.8016 33.2734 9.48766 32.5967 8.76143 32.1581C7.85739 31.6107 5.67122 30.1579 5.0835 29.7905C5.0835 29.858 5.0966 29.9255 5.10596 29.9949C5.87149 30.4841 7.77691 31.7475 8.60421 32.2443C9.34728 32.6998 10.7136 33.399 11.4717 33.7908Z" fill="#404B4D"/>
<path d="M11.6478 33.558C11.6778 33.5149 11.704 33.4718 11.7283 33.4287C10.9964 33.0538 9.54024 32.304 8.7616 31.8353C7.8482 31.273 5.62459 29.8033 5.06494 29.4565V29.4865C5.06494 29.539 5.06494 29.5934 5.06494 29.6515C5.81363 30.1258 7.75648 31.4173 8.59689 31.9253C9.41109 32.4146 10.9459 33.1962 11.6478 33.558Z" fill="#404B4D"/>
<path d="M5.10986 29.1621C5.08893 29.2149 5.07569 29.2705 5.07056 29.3271C5.81925 29.7995 7.76397 31.0948 8.60437 31.6046C9.44478 32.1145 11.1761 32.9918 11.7863 33.3105C11.8048 33.2718 11.818 33.2308 11.8256 33.1886C11.8256 33.1774 11.8256 33.168 11.8256 33.1586C11.1349 32.8006 9.57954 32.0077 8.75786 31.5147C7.87066 30.9748 5.73502 29.5539 5.10986 29.1621Z" fill="#404B4D"/>
<path d="M11.2622 33.9966C11.2978 33.9648 11.3371 33.9273 11.3783 33.8842C10.5978 33.483 9.4298 32.8775 8.75785 32.4726C7.8744 31.9384 5.76309 30.5362 5.12109 30.1313C5.13232 30.2045 5.14543 30.2757 5.1604 30.3469C5.95963 30.8605 7.79205 32.0752 8.60063 32.5626C9.28381 32.9825 10.4817 33.603 11.2622 33.9966Z" fill="#404B4D"/>
<path d="M10.8579 34.1168C10.9479 34.1232 11.0382 34.1117 11.1237 34.083C10.3619 33.6894 9.36055 33.1645 8.7616 32.8027C7.90996 32.2872 5.91658 30.9638 5.20532 30.5083C5.22463 30.5891 5.24902 30.6686 5.27832 30.7464C6.12434 31.2937 7.83697 32.4334 8.60999 32.8927C9.17525 33.247 10.1111 33.7306 10.8579 34.1168Z" fill="#404B4D"/>
<path d="M29.2644 7.27879L35.0162 10.9135L35.748 10.3062L34.6437 7.72493C34.6437 7.72493 34.6531 7.58996 34.4566 7.45125L30.6925 5.29366C30.6925 5.29366 30.4286 5.16993 30.2695 5.32365C30.146 5.44174 29.2644 7.27879 29.2644 7.27879Z" fill="#E58D00"/>
<path d="M29.1389 7.40253L31.5722 8.98651L35.0105 10.9173L34.4715 7.92927C34.4715 7.92927 34.4715 7.79618 34.2843 7.65934L30.5202 5.50362C30.4186 5.46097 30.3066 5.44924 30.1983 5.46988C30.028 5.50362 29.1389 7.40253 29.1389 7.40253Z" fill="#FFA300"/>
<path d="M29.152 7.38037L31.7163 8.9831L35.0161 10.9139L35.748 10.3065L35.7424 10.3984L35.0105 11.0376L31.6246 9.09932L29.1445 7.53596L29.152 7.38037Z" fill="black"/>
<path d="M31.0967 7.02044L30.7224 6.788L30.6719 8.01958L30.4211 7.86399L30.4735 6.62867L30.0991 6.39435L30.1104 6.13379L31.1099 6.75801L31.0967 7.02044Z" fill="black"/>
<path d="M31.7838 8.37708L31.3908 8.13152L31.2785 8.40145L31.0295 8.24399L31.5518 7.0293L31.7389 7.14552L32.1395 8.93757L31.8756 8.77261L31.7838 8.37708ZM31.4694 7.94032L31.7445 8.11278L31.6622 7.721L31.6322 7.46232L31.5836 7.67413L31.4694 7.94032Z" fill="black"/>
<path d="M32.6391 8.4692L32.3115 7.51318L32.6147 7.70064L32.8019 8.263L32.8394 8.45045L32.888 8.32486L33.1126 8.02306L33.3859 8.19364L32.9853 8.68102L33.3428 9.69702L33.0434 9.50956L32.8375 8.90784L32.7944 8.72039L32.7401 8.84973L32.495 9.1684L32.2217 8.99782L32.6391 8.4692Z" fill="black"/>
<path d="M33.6067 8.31543L33.8575 8.47289L33.7957 9.97252L33.5449 9.81506L33.6067 8.31543Z" fill="black"/>
<path d="M36.7944 27.6211L38.0766 26.8638L37.9867 25.5591L36.7046 26.3145L36.7944 27.6211Z" fill="black"/>
<path d="M32.8581 28.5811L31.5759 29.3365L31.6658 30.643L32.9479 29.8876L32.8581 28.5811Z" fill="black"/>
<path d="M34.23 29.1323L35.5121 28.375L35.4223 27.0703L34.1401 27.8258L34.23 29.1323Z" fill="black"/>
<path d="M34.0504 26.519L32.7683 27.2745L32.8581 28.581L34.1403 27.8256L34.0504 26.519Z" fill="black"/>
<path d="M31.4862 28.0317L30.2041 28.7872L30.2939 30.0937L31.5761 29.3383L31.4862 28.0317Z" fill="black"/>
<path d="M36.6147 25.0083L35.3325 25.7637L35.4224 27.0703L36.7045 26.3149L36.6147 25.0083Z" fill="black"/>
<path d="M39.1772 23.4971L37.895 24.2525L37.9849 25.5591L39.267 24.8036L39.1772 23.4971Z" fill="black"/>
<defs>
<linearGradient id="paint0_linear" x1="22.6722" y1="40.2371" x2="25.4269" y2="33.6247" gradientUnits="userSpaceOnUse">
<stop stop-color="#D0D2D4"/>
<stop offset="1" stop-color="#86898B"/>
</linearGradient>
<linearGradient id="paint1_linear" x1="22.5319" y1="39.7421" x2="25.1046" y2="33.5588" gradientUnits="userSpaceOnUse">
<stop stop-color="#B6B8BA"/>
<stop offset="1" stop-color="#6C6F71"/>
</linearGradient>
<linearGradient id="paint2_linear" x1="716.512" y1="834.511" x2="706.966" y2="816.727" gradientUnits="userSpaceOnUse">
<stop stop-color="#D0D2D4"/>
<stop offset="1" stop-color="#86898B"/>
</linearGradient>
<linearGradient id="paint3_linear" x1="22.2024" y1="38.0344" x2="22.6885" y2="35.9296" gradientUnits="userSpaceOnUse">
<stop stop-color="#F3F5F7"/>
<stop offset="1" stop-color="#86898B"/>
</linearGradient>
<linearGradient id="paint4_linear" x1="25.2288" y1="39.4759" x2="25.2288" y2="36.8703" gradientUnits="userSpaceOnUse">
<stop stop-color="#C3C5C7"/>
<stop offset="1" stop-color="#797C7E"/>
</linearGradient>
<linearGradient id="paint5_linear" x1="25.9085" y1="35.8487" x2="24.0992" y2="37.9136" gradientUnits="userSpaceOnUse">
<stop stop-color="white"/>
<stop offset="1" stop-color="#BABDBF"/>
</linearGradient>
<linearGradient id="paint6_linear" x1="772.295" y1="697.81" x2="784.256" y2="681.453" gradientUnits="userSpaceOnUse">
<stop stop-color="white"/>
<stop offset="1" stop-color="#BABDBF"/>
</linearGradient>
<linearGradient id="paint7_linear" x1="209.701" y1="283.248" x2="210.419" y2="282.064" gradientUnits="userSpaceOnUse">
<stop stop-color="white"/>
<stop offset="1" stop-color="#BABDBF"/>
</linearGradient>
<linearGradient id="paint8_linear" x1="207.186" y1="281.827" x2="207.896" y2="280.648" gradientUnits="userSpaceOnUse">
<stop stop-color="white"/>
<stop offset="1" stop-color="#BABDBF"/>
</linearGradient>
<linearGradient id="paint9_linear" x1="205.544" y1="285.96" x2="206.256" y2="284.78" gradientUnits="userSpaceOnUse">
<stop stop-color="white"/>
<stop offset="1" stop-color="#BABDBF"/>
</linearGradient>
<linearGradient id="paint10_linear" x1="207.186" y1="287.747" x2="207.897" y2="286.567" gradientUnits="userSpaceOnUse">
<stop stop-color="white"/>
<stop offset="1" stop-color="#BABDBF"/>
</linearGradient>
<linearGradient id="paint11_linear" x1="209.609" y1="285.18" x2="210.321" y2="283.993" gradientUnits="userSpaceOnUse">
<stop stop-color="white"/>
<stop offset="1" stop-color="#BABDBF"/>
</linearGradient>
<linearGradient id="paint12_linear" x1="23.7205" y1="36.6944" x2="23.7036" y2="37.581" gradientUnits="userSpaceOnUse">
<stop stop-color="#EAECEE"/>
<stop offset="1" stop-color="#A0A3A5"/>
</linearGradient>
<linearGradient id="paint13_linear" x1="2526.5" y1="2055.63" x2="2627.76" y2="1866.94" gradientUnits="userSpaceOnUse">
<stop stop-color="#D0D2D4"/>
<stop offset="1" stop-color="#86898B"/>
</linearGradient>
<linearGradient id="paint14_linear" x1="2288.16" y1="1823.93" x2="2372.01" y2="1665.5" gradientUnits="userSpaceOnUse">
<stop stop-color="#B6B8BA"/>
<stop offset="1" stop-color="#6C6F71"/>
</linearGradient>
<linearGradient id="paint15_linear" x1="998.403" y1="661.836" x2="988.857" y2="644.051" gradientUnits="userSpaceOnUse">
<stop stop-color="#D0D2D4"/>
<stop offset="1" stop-color="#86898B"/>
</linearGradient>
<linearGradient id="paint16_linear" x1="870.65" y1="680.855" x2="877.061" y2="659.456" gradientUnits="userSpaceOnUse">
<stop stop-color="#F3F5F7"/>
<stop offset="1" stop-color="#86898B"/>
</linearGradient>
<linearGradient id="paint17_linear" x1="851.555" y1="525.681" x2="851.555" y2="505.201" gradientUnits="userSpaceOnUse">
<stop stop-color="#C3C5C7"/>
<stop offset="1" stop-color="#797C7E"/>
</linearGradient>
<linearGradient id="paint18_linear" x1="829.486" y1="672.293" x2="810.404" y2="687.236" gradientUnits="userSpaceOnUse">
<stop stop-color="white"/>
<stop offset="1" stop-color="#BABDBF"/>
</linearGradient>
<linearGradient id="paint19_linear" x1="1074.16" y1="543.892" x2="1086.15" y2="527.563" gradientUnits="userSpaceOnUse">
<stop stop-color="white"/>
<stop offset="1" stop-color="#BABDBF"/>
</linearGradient>
<linearGradient id="paint20_linear" x1="304.861" y1="214.678" x2="305.571" y2="213.499" gradientUnits="userSpaceOnUse">
<stop stop-color="white"/>
<stop offset="1" stop-color="#BABDBF"/>
</linearGradient>
<linearGradient id="paint21_linear" x1="302.345" y1="215.301" x2="303.055" y2="214.122" gradientUnits="userSpaceOnUse">
<stop stop-color="white"/>
<stop offset="1" stop-color="#BABDBF"/>
</linearGradient>
<linearGradient id="paint22_linear" x1="299.679" y1="219.434" x2="300.392" y2="218.256" gradientUnits="userSpaceOnUse">
<stop stop-color="white"/>
<stop offset="1" stop-color="#BABDBF"/>
</linearGradient>
<linearGradient id="paint23_linear" x1="301.316" y1="221.329" x2="302.028" y2="220.151" gradientUnits="userSpaceOnUse">
<stop stop-color="white"/>
<stop offset="1" stop-color="#BABDBF"/>
</linearGradient>
<linearGradient id="paint24_linear" x1="304.764" y1="218.656" x2="305.477" y2="217.469" gradientUnits="userSpaceOnUse">
<stop stop-color="white"/>
<stop offset="1" stop-color="#BABDBF"/>
</linearGradient>
<linearGradient id="paint25_linear" x1="303.407" y1="215.241" x2="303.338" y2="218.04" gradientUnits="userSpaceOnUse">
<stop stop-color="#EAECEE"/>
<stop offset="1" stop-color="#A0A3A5"/>
</linearGradient>
<linearGradient id="paint26_linear" x1="3178.81" y1="1791.44" x2="2859.97" y2="2108.42" gradientUnits="userSpaceOnUse">
<stop stop-color="white"/>
<stop offset="1"/>
</linearGradient>
<linearGradient id="paint27_linear" x1="46.2952" y1="20.0273" x2="55.3543" y2="20.0273" gradientUnits="userSpaceOnUse">
<stop/>
<stop offset="0.41" stop-color="white"/>
<stop offset="0.79" stop-color="white"/>
<stop offset="1"/>
</linearGradient>
<linearGradient id="paint28_linear" x1="3449.42" y1="3761.91" x2="3973.95" y2="3648.44" gradientUnits="userSpaceOnUse">
<stop/>
<stop offset="0.41" stop-color="white"/>
<stop offset="0.79" stop-color="white"/>
<stop offset="1"/>
</linearGradient>
<linearGradient id="paint29_linear" x1="8.42459" y1="31.5241" x2="7.37422" y2="33.1254" gradientUnits="userSpaceOnUse">
<stop offset="0.17" stop-color="white"/>
<stop offset="1"/>
</linearGradient>
<linearGradient id="paint30_linear" x1="12.0445" y1="34.4539" x2="19.2057" y2="34.4539" gradientUnits="userSpaceOnUse">
<stop stop-color="#FAFFFF"/>
<stop offset="1" stop-color="#D4D7D9"/>
</linearGradient>
<linearGradient id="paint31_linear" x1="1786.19" y1="954.043" x2="1923.72" y2="954.043" gradientUnits="userSpaceOnUse">
<stop stop-color="#FAFFFF"/>
<stop offset="1" stop-color="#D4D7D9"/>
</linearGradient>
<linearGradient id="paint32_linear" x1="1408.65" y1="980.587" x2="1489.55" y2="980.587" gradientUnits="userSpaceOnUse">
<stop stop-color="#FAFFFF"/>
<stop offset="1" stop-color="#D4D7D9"/>
</linearGradient>
<linearGradient id="paint33_linear" x1="634.376" y1="686.799" x2="649.217" y2="686.799" gradientUnits="userSpaceOnUse">
<stop stop-color="#FAFFFF"/>
<stop offset="1" stop-color="#D4D7D9"/>
</linearGradient>
<linearGradient id="paint34_linear" x1="14.9381" y1="33.1267" x2="16.5066" y2="36.169" gradientUnits="userSpaceOnUse">
<stop stop-color="white"/>
<stop offset="1" stop-color="white"/>
</linearGradient>
<linearGradient id="paint35_linear" x1="548.814" y1="2108.45" x2="567.945" y2="2108.45" gradientUnits="userSpaceOnUse">
<stop stop-color="#FAFFFF"/>
<stop offset="1" stop-color="#D4D7D9"/>
</linearGradient>
<linearGradient id="paint36_linear" x1="394.877" y1="759.385" x2="404.474" y2="759.385" gradientUnits="userSpaceOnUse">
<stop stop-color="#FAFFFF"/>
<stop offset="1" stop-color="#D4D7D9"/>
</linearGradient>
<linearGradient id="paint37_linear" x1="324.374" y1="761.951" x2="330.747" y2="761.951" gradientUnits="userSpaceOnUse">
<stop stop-color="#FAFFFF"/>
<stop offset="1" stop-color="#D4D7D9"/>
</linearGradient>
<linearGradient id="paint38_linear" x1="548.814" y1="2108.45" x2="567.945" y2="2108.45" gradientUnits="userSpaceOnUse">
<stop stop-color="white"/>
<stop offset="1" stop-color="white"/>
</linearGradient>
<linearGradient id="paint39_linear" x1="649.918" y1="355.26" x2="649.223" y2="353.946" gradientUnits="userSpaceOnUse">
<stop stop-color="white"/>
<stop offset="1"/>
</linearGradient>
</defs>
</svg>
