<svg width="64" height="64" viewBox="0 0 64 64" fill="none" xmlns="http://www.w3.org/2000/svg">
<circle cx="32" cy="32" r="32" fill="#1EA4E9"/>
<path d="M30.7148 32.7617H35.2852V34.2852H30.7148V32.7617Z" fill="#0B4B6C"/>
<path d="M41.0935 34.2852H36.8086V35.0469C36.8086 35.4678 36.4678 35.8086 36.0469 35.8086H29.9531C29.5322 35.8086 29.1914 35.4678 29.1914 35.0469V34.2852H24.9065C23.9217 34.2852 23.0506 33.6574 22.7388 32.7231L20 24.5052V41.1407C20 42.4007 21.0251 43.4258 22.2852 43.4258H43.7148C44.9749 43.4258 46 42.4007 46 41.1407V24.5058L43.261 32.7231C42.9494 33.6574 42.0783 34.2852 41.0935 34.2852Z" fill="#0B4B6C"/>
<path d="M36.0468 20.5742H29.9531C28.6931 20.5742 27.6679 21.5994 27.6679 22.8594V23.6211H21.3105L24.1835 32.241C24.2876 32.5526 24.5784 32.7617 24.9065 32.7617H29.1914V32C29.1914 31.5791 29.5322 31.2383 29.9531 31.2383H36.0468C36.4678 31.2383 36.8085 31.5791 36.8085 32V32.7617H41.0934C41.4215 32.7617 41.7123 32.5526 41.8165 32.241L44.6896 23.6211H38.332V22.8594C38.332 21.5994 37.3068 20.5742 36.0468 20.5742ZM29.1914 23.6211V22.8594C29.1914 22.439 29.5327 22.0977 29.9531 22.0977H36.0468C36.4672 22.0977 36.8085 22.439 36.8085 22.8594V23.6211H29.1914Z" fill="#0B4B6C"/>
</svg>
