<svg width="61" height="59" viewBox="0 0 61 59" fill="none" xmlns="http://www.w3.org/2000/svg">
<g style="mix-blend-mode:multiply" opacity="0.15">
<path d="M57.7405 38.4736C53.7584 36.1686 47.2793 36.1686 43.2878 38.4736C42.6688 38.8232 42.1006 39.2559 41.5989 39.7596L38.4694 39.3473L39.0457 39.0147L34.0212 36.1148L33.459 36.438L32.1543 33.9949C32.9626 33.7441 33.7416 33.4072 34.478 32.99C38.4601 30.685 38.4601 26.9489 34.478 24.6463C30.4959 22.3437 24.0144 22.3413 20.0229 24.6463C16.0314 26.9512 16.0408 30.685 20.0229 32.99C22.4567 34.3954 25.811 34.9412 28.9639 34.6297L29.3668 38.8062L28.8983 39.0803L27.2586 38.1433C26.9632 37.9935 26.6365 37.9154 26.3053 37.9154C25.974 37.9154 25.6474 37.9935 25.3519 38.1433L21.5408 40.3428L20.3532 40.3194C21.1754 38.3799 20.2759 36.2483 17.6547 34.7351C13.6726 32.4301 7.19349 32.4301 3.20201 34.7351C-0.789468 37.04 -0.780098 40.7762 3.20201 43.0788C6.33382 44.8871 10.9905 45.2759 14.7806 44.25L12.0329 45.8264C11.5082 46.1286 11.5082 46.6252 12.0329 46.9274L21.0231 52.1158C21.3183 52.2652 21.6445 52.3431 21.9753 52.3431C22.3062 52.3431 22.6323 52.2652 22.9275 52.1158L23.4756 51.8019C23.2789 53.4416 24.2674 55.1258 26.4411 56.3814C30.4232 58.6863 36.9047 58.6863 40.8962 56.3814C44.8877 54.0764 44.8783 50.3403 40.8962 48.0377C38.7201 46.7798 35.8084 46.2106 32.9624 46.323L36.2418 44.4303C36.7665 44.1258 36.7665 43.6316 36.2418 43.3294L33.8994 41.9802L34.3515 41.7202L40.3809 41.8513C39.9663 43.6128 40.9313 45.4633 43.2784 46.8173C47.2605 49.1222 53.7397 49.1222 57.7311 46.8173C61.7226 44.5123 61.732 40.7879 57.7405 38.4736ZM33.8479 25.0023C37.4294 27.0707 37.4833 30.4016 34.0165 32.5121L29.2661 29.7785C30.1187 29.1859 30.0648 28.3028 29.1021 27.7476C28.7479 27.552 28.3616 27.4211 27.9614 27.3611L29.6971 23.6133C31.1522 23.8199 32.5573 24.2907 33.8432 25.0023H33.8479ZM20.6624 25.0023C23.0329 23.6344 26.3615 23.1588 29.3996 23.5711L27.6615 27.319C26.8835 27.2345 26.0979 27.382 25.4034 27.743C24.7897 28.0967 24.5485 28.5839 24.6726 29.0453L18.1841 30.0502C17.4627 28.2934 18.2895 26.3703 20.6577 25.0023H20.6624ZM20.6624 32.6152C19.4724 31.9265 18.6713 31.0973 18.2614 30.2212L24.7382 29.2187C24.8894 29.4995 25.121 29.7287 25.4034 29.8769C26.4107 30.4578 28.0316 30.4648 29.0576 29.9027L33.7987 32.641C30.1492 34.7163 24.2838 34.6976 20.6577 32.6152H20.6624ZM17.0176 35.0958C20.5992 37.1642 20.6554 40.4974 17.1862 42.6056L12.4405 39.865C13.2931 39.2723 13.2393 38.3916 12.2765 37.8341C11.9231 37.6389 11.5375 37.5087 11.1381 37.4499L12.8715 33.7021C14.3265 33.912 15.7313 34.3842 17.0176 35.0958ZM3.83447 35.0958C6.20265 33.7278 9.53122 33.2523 12.5693 33.6646L10.8313 37.4125C10.0542 37.3271 9.26926 37.4738 8.57551 37.8341C7.95946 38.1901 7.71819 38.6774 7.84234 39.1365L1.35384 40.1414C0.63706 38.3869 1.46394 36.4661 3.83447 35.0958ZM3.83447 42.7087C2.64218 42.02 1.84341 41.1931 1.43114 40.3171L7.90793 39.3145C8.05965 39.5951 8.29224 39.8237 8.57551 39.9704C9.58041 40.5513 11.2014 40.5607 12.2273 39.9961L16.9707 42.7344C13.3259 44.8098 7.45819 44.8028 3.83447 42.7087ZM27.0783 56.0136C25.886 55.3249 25.0872 54.4957 24.6773 53.6196L31.1541 52.6171C31.3053 52.8979 31.5369 53.1271 31.8193 53.2753C32.8266 53.8562 34.4475 53.8633 35.4735 53.3011L40.2145 56.0394C36.5697 58.1218 30.7043 58.1077 27.0783 56.0136ZM40.2637 48.4007C43.8453 50.4691 43.8992 53.8 40.4324 55.9105L35.6913 53.1722C36.544 52.5773 36.4901 51.6965 35.525 51.1414C35.1718 50.9454 34.7862 50.8144 34.3866 50.7549L36.1223 47.007C37.5763 47.2164 38.9798 47.6895 40.2637 48.4031V48.4007ZM35.8131 46.9695L34.0751 50.7174C33.297 50.6318 32.511 50.7794 31.817 51.1414C31.2033 51.4951 30.9597 51.9823 31.0861 52.4437L24.5977 53.4486C24.2972 52.7352 24.2664 51.9368 24.511 51.2023L31.9224 46.9227C33.2173 46.7818 34.5245 46.7984 35.8155 46.9719L35.8131 46.9695ZM43.9202 38.8366C46.2908 37.4687 49.617 36.9908 52.6575 37.4054L50.917 41.1533C50.1398 41.069 49.3549 41.2166 48.6613 41.5773C48.0476 41.931 47.804 42.4182 47.9305 42.8797L41.4396 43.8846C40.7275 42.1301 41.5474 40.207 43.9226 38.839L43.9202 38.8366ZM43.9202 46.4495C42.728 45.7608 41.9292 44.9316 41.5193 44.0556L47.9937 43.053C48.1467 43.3333 48.3789 43.5622 48.6613 43.7112C49.6685 44.2921 51.2895 44.2992 52.3131 43.737L57.0565 46.4753C53.4141 48.553 47.5487 48.5436 43.9226 46.4518L43.9202 46.4495ZM57.272 46.3464L52.531 43.5988C53.3836 43.0038 53.3297 42.1231 52.3647 41.5679C52.0114 41.3719 51.6258 41.241 51.2262 41.1814L52.962 37.4335C54.4162 37.6394 55.8205 38.1094 57.1057 38.8202C60.6896 40.9073 60.7552 44.2383 57.2767 46.3488L57.272 46.3464Z" fill="black"/>
</g>
<path d="M40.6433 33.4681C40.6245 32.6717 39.9874 31.0437 39.4159 30.5822C39.3539 30.5309 39.289 30.4831 39.2214 30.4394C37.6257 29.2148 35.931 28.1249 34.1548 27.1811C32.2012 26.1832 29.9595 24.7285 29.0881 24.581C28.9046 24.5153 28.7085 24.492 28.5146 24.5127C28.3208 24.5334 28.1341 24.5975 27.9685 24.7004C27.6546 24.8808 26.207 25.7124 25.4363 26.1598C24.4619 26.7196 23.3703 27.3544 22.7777 27.6987L22.356 27.933C17.629 30.6619 13.9233 39.1204 13.9233 39.5069C13.9237 39.5448 13.9284 39.5825 13.9374 39.6193C13.9843 39.7695 14.0758 39.9018 14.1997 39.9988C14.8369 40.7413 15.7129 42.0624 17.9898 43.3344C20.5852 44.7843 25.2044 46.581 26.3756 46.8948C26.7996 47.0612 28.0036 47.3188 28.9406 46.7777L33.1921 44.3229C33.4029 44.2011 33.6043 44.0886 33.7964 43.9879C33.9885 43.8872 35.0449 43.2852 35.2018 43.1821C36.0426 42.7394 36.7288 42.0515 37.1695 41.2098C37.4904 40.6054 38.3407 38.9306 39.0856 37.3542C40.6573 34.0935 40.6503 33.7398 40.6433 33.4681Z" fill="#FFC800"/>
<path d="M25.0358 32.9979C23.3349 31.9992 21.7089 30.8781 20.1706 29.6436C17.9547 31.7986 16.1182 34.8718 15.0173 37.0175C14.5113 38.4932 17.7111 40.2641 19.2336 41.1636C20.437 41.9136 21.7073 42.5504 23.0284 43.0656C24.1996 43.4896 24.4971 43.0656 24.4971 43.0656C25.5535 40.9223 27.4743 37.5914 29.8284 35.2935C28.1783 34.6431 26.5768 33.876 25.0358 32.9979Z" fill="#141C1E"/>
<path d="M23.9395 43.1399C23.6447 43.1277 23.3541 43.066 23.0798 42.9572C21.7621 42.4451 20.4948 41.8114 19.2945 41.0645L19.0321 40.9099C17.5119 40.0221 14.6846 38.3684 15.1203 37.0613C16.0057 35.3279 17.8305 32.0977 20.1682 29.7998C21.6865 31.0141 23.2905 32.1172 24.9678 33.1003C26.4663 33.9536 28.0223 34.7019 29.6245 35.3396C27.076 37.8858 25.1318 41.5283 24.4009 43.0064C24.2691 43.1124 24.1007 43.162 23.9325 43.1446L23.9395 43.1399Z" fill="#303E42"/>
<path d="M18.6339 40.6711C18.8488 40.6471 19.0567 40.5802 19.2453 40.4744L23.4968 38.0218C24.7008 37.3191 25.5417 37.0474 26.1437 35.9137C26.31 35.5998 26.638 34.958 27.0245 34.1779C26.3709 33.8594 25.6799 33.4986 24.9772 33.0957C23.4269 32.1888 21.9399 31.1777 20.5266 30.0693C18.1256 32.4258 16.076 36.1901 15.2749 37.975C15.8254 38.9494 17.451 39.9731 18.6339 40.6711Z" fill="#D3D3D3"/>
<path d="M29.6341 35.3353C28.0319 34.6975 26.4759 33.9493 24.9774 33.0959C24.5089 32.8218 24.0404 32.5361 23.5719 32.2456L22.4007 36.1387L19.543 37.42L22.1805 40.8259L25.4037 41.1234C26.3922 39.3923 27.8679 37.1014 29.6341 35.3353Z" fill="#303E42"/>
<g style="mix-blend-mode:multiply" opacity="0.15">
<path d="M32.0488 33.5716L32.4681 33.3374C33.0608 32.993 34.1547 32.3582 35.1268 31.7984L37.6613 30.3391C38.2398 30.0111 38.7973 30.0908 39.4157 30.5921C39.9873 31.0605 40.6244 32.6815 40.6432 33.4779C40.6432 33.7426 40.6572 34.1033 39.0948 37.3757C38.3429 38.9521 37.4996 40.627 37.1787 41.2313C36.738 42.0731 36.0518 42.7609 35.2111 43.2036C35.0448 43.2997 33.979 43.9064 33.8057 44.0094C33.6323 44.1125 33.4121 44.2226 33.2013 44.3444L28.9498 46.7992C28.0128 47.3403 26.8089 47.0827 26.3849 46.9164C23.9043 45.9466 23.6255 45.4641 23.6255 45.1549C23.6161 44.7496 27.3195 36.3005 32.0488 33.5716Z" fill="black"/>
</g>
<path d="M24.9769 33.0959C24.7076 32.9413 24.4405 32.782 24.1782 32.6274L23.0233 33.4613L22.6134 33.4332L20.9339 34.6466C20.7699 34.7637 20.4654 35.0963 20.6435 35.2556L21.2993 35.8576C21.3837 35.9326 21.6484 35.8975 22.1918 35.5063L25.2838 33.2669L24.9769 33.0959Z" fill="#303E42"/>
<path d="M25.7267 40.5754L17.7179 35.9515C16.9192 35.483 15.5676 36.8885 15.0874 37.4272C15.1975 38.664 17.6641 40.1023 19.0414 40.9104L19.3038 41.065C20.5011 41.8114 21.7652 42.4451 23.0797 42.9577C23.354 43.0665 23.6446 43.1283 23.9394 43.1404C24.1077 43.1579 24.276 43.1082 24.4079 43.0022C24.682 42.4424 25.1364 41.5757 25.7267 40.5754Z" fill="#39464A"/>
<path opacity="0.2" d="M25.0358 32.9979C23.335 31.9992 21.7089 30.8781 20.1706 29.6436C17.9547 31.7986 16.1183 34.8718 15.0173 37.0175C14.7339 37.842 15.6076 38.7579 16.6992 39.5614C17.9289 38.2402 20.9155 35.5792 26.4015 33.7428C25.9611 33.5062 25.4996 33.272 25.0358 32.9979Z" fill="white"/>
<path d="M32.3089 41.1469C31.7655 41.5404 31.5008 41.5732 31.4165 41.4982L30.7606 40.8962C30.5849 40.7369 30.8871 40.4043 31.0511 40.2872L32.7353 39.0668L33.1452 39.0949L39.5704 34.4429C39.5734 34.4164 39.5734 34.3897 39.5704 34.3632C39.5564 33.7589 38.9825 32.2246 38.4812 31.8194C37.9799 31.4141 37.5583 31.3368 37.1788 31.5523C36.1154 32.1567 32.7423 34.1126 32.4659 34.2742C28.5962 36.5089 25.0264 44.0561 25.0264 44.5808C25.0264 45.1055 26.6473 45.8457 27.2915 46.0987C27.8584 46.3189 28.7368 46.4688 29.3575 46.0987L33.609 43.6439C34.813 42.9411 35.6539 42.6694 36.2559 41.5357C36.6401 40.8119 37.8956 38.3219 38.7412 36.462L32.3089 41.1469Z" fill="#141C1E"/>
<path d="M32.3088 41.1471C31.7654 41.5406 31.5007 41.5734 31.4164 41.4984L30.7605 40.8964C30.5848 40.7372 30.887 40.4045 31.0509 40.2874L32.7351 39.067L33.1451 39.0951L39.4391 34.5438C39.4582 34.4853 39.47 34.4248 39.4743 34.3634C39.4626 33.7919 38.9027 32.2904 38.4272 31.9062C38.2089 31.6988 37.9262 31.5724 37.6261 31.5479C37.4949 31.5481 37.3663 31.5837 37.2537 31.6509C36.3893 32.1405 34.0047 33.5249 32.9881 34.1128L32.5407 34.3705C28.6312 36.6239 25.1504 44.1547 25.1504 44.5881C25.1504 44.9184 26.0311 45.4852 27.3429 45.9935C27.6982 46.1336 28.076 46.2082 28.4579 46.2137C28.7549 46.2227 29.049 46.1533 29.3105 46.0123L33.5597 43.5574C33.7939 43.4309 33.9883 43.3232 34.1874 43.2107C35.0588 42.7423 35.6889 42.3932 36.1644 41.4961C36.5861 40.6997 37.7385 38.3971 38.5631 36.6122L32.3088 41.1471Z" fill="#303E42"/>
<path style="mix-blend-mode:screen" opacity="0.2" d="M32.3088 41.1471C31.7654 41.5406 31.5007 41.5734 31.4164 41.4984L30.7605 40.8964C30.5848 40.7372 30.887 40.4045 31.0509 40.2874L32.7351 39.067L33.1451 39.0951L39.4391 34.5438C39.4582 34.4853 39.47 34.4248 39.4743 34.3634C39.4626 33.7919 38.9027 32.2904 38.4272 31.9062C38.2089 31.6988 37.9262 31.5724 37.6261 31.5479C37.4949 31.5481 37.3663 31.5837 37.2537 31.6509C36.3893 32.1405 34.0047 33.5249 32.9881 34.1128L32.5407 34.3705C28.6312 36.6239 25.1504 44.1547 25.1504 44.5881C25.1504 44.9184 26.0311 45.4852 27.3429 45.9935C27.6982 46.1336 28.076 46.2082 28.4579 46.2137C28.7549 46.2227 29.049 46.1533 29.3105 46.0123L33.5597 43.5574C33.7939 43.4309 33.9883 43.3232 34.1874 43.2107C35.0588 42.7423 35.6889 42.3932 36.1644 41.4961C36.5861 40.6997 37.7385 38.3971 38.5631 36.6122L32.3088 41.1471Z" fill="url(#paint0_linear)"/>
<path d="M32.068 12.1757C31.4629 12.0115 30.8226 12.0319 30.2292 12.2342C29.147 12.5598 28.7886 13.026 28.7886 13.026L29.1516 23.2483L33.9372 20.3741L32.068 12.1757Z" fill="url(#paint1_linear)"/>
<path d="M26.1321 23.0004L18.9174 20.1895C18.2111 20.2662 17.5325 20.5068 16.9357 20.8922C16.4035 21.2208 15.9141 21.6142 15.4788 22.0634L22.7754 26.2493C23.3118 25.57 24.4479 24.4035 26.1321 23.0004Z" fill="url(#paint2_linear)"/>
<path d="M40.3413 21.133C40.3413 21.133 39.5121 23.5269 37.2961 24.8106C30.2689 28.8723 26.4812 29.6734 26.4812 29.137C26.4812 28.6006 30.2619 24.4288 37.2961 20.367C39.5121 19.0834 40.3413 21.133 40.3413 21.133Z" fill="url(#paint3_linear)"/>
<path d="M40.9198 21.5454L40.6317 20.2383L38.7577 20.7442H38.7226C37.9894 20.9316 36.7339 21.5945 36.0358 21.9014C35.0075 22.3558 34.2767 23.5973 34.3165 23.9159C34.3563 24.2344 34.6913 24.9208 35.6798 24.2321C35.7875 24.1571 35.914 24.0728 36.0546 23.9815L40.9198 21.5454Z" fill="url(#paint4_linear)"/>
<path d="M26.4763 29.1374C26.4763 28.6033 30.257 24.4291 37.2912 20.3674C38.261 19.8076 38.9661 19.8825 39.4509 20.1449L33.7308 16.9428C33.2435 16.6078 32.4916 16.4415 31.4094 17.0669C24.3822 21.1287 20.5945 25.3029 20.5945 25.8393C20.5952 25.8572 20.6002 25.8747 20.6092 25.8902C20.6182 25.9057 20.6308 25.9188 20.646 25.9283L26.5021 29.1936C26.4884 29.1777 26.4795 29.1582 26.4763 29.1374Z" fill="url(#paint5_linear)"/>
<path d="M27.891 7.75794C27.5679 7.59321 27.2103 7.50732 26.8475 7.50732C26.4847 7.50732 26.1271 7.59321 25.8039 7.75794C25.6846 7.81049 25.5814 7.89402 25.5052 7.99988C25.429 8.10574 25.3825 8.23006 25.3706 8.35994V8.88699C25.3821 9.01728 25.4284 9.1421 25.5047 9.2484C25.5809 9.3547 25.6842 9.4386 25.8039 9.49133C26.1276 9.65462 26.485 9.73968 26.8475 9.73968C27.21 9.73968 27.5674 9.65462 27.891 9.49133C28.0105 9.43819 28.1136 9.35418 28.1897 9.24796C28.2659 9.14174 28.3124 9.01714 28.3244 8.88699V8.35994C28.312 8.2302 28.2653 8.10609 28.1892 8.00032C28.113 7.89454 28.0101 7.81089 27.891 7.75794Z" fill="url(#paint6_linear)"/>
<path d="M26.8464 7.50527C26.4832 7.49865 26.1244 7.58492 25.804 7.75591C25.6778 7.79814 25.568 7.87899 25.4902 7.98702C25.4125 8.09505 25.3706 8.22479 25.3706 8.35791C25.3706 8.49102 25.4125 8.62077 25.4902 8.7288C25.568 8.83683 25.6778 8.91768 25.804 8.95991C26.1272 9.12465 26.4848 9.21053 26.8476 9.21053C27.2103 9.21053 27.5679 9.12465 27.8911 8.95991C28.0173 8.91768 28.1271 8.83683 28.2049 8.7288C28.2827 8.62077 28.3245 8.49102 28.3245 8.35791C28.3245 8.22479 28.2827 8.09505 28.2049 7.98702C28.1271 7.87899 28.0173 7.79814 27.8911 7.75591C27.5699 7.58463 27.2103 7.49835 26.8464 7.50527Z" fill="#BCBCBC"/>
<path d="M20.2316 4.66629C22.0611 3.60751 24.448 3.08047 26.8583 3.08047C29.2687 3.08047 31.6556 3.60751 33.4874 4.66394C34.9373 5.50253 35.8134 6.53788 36.1132 7.63647C36.1913 7.3582 36.2307 7.07051 36.2303 6.78149C36.2303 5.39478 35.3168 4.01041 33.4874 2.95398C31.658 1.89755 29.257 1.36816 26.8583 1.36816C24.4597 1.36816 22.0494 1.89755 20.2316 2.95398C18.4139 4.01041 17.4746 5.39712 17.4746 6.78149C17.4754 7.07043 17.5148 7.35797 17.5917 7.63647C17.8892 6.54725 18.7676 5.50253 20.2316 4.66629Z" fill="url(#paint7_linear)"/>
<path d="M20.0558 3.43873C21.9297 2.35653 24.3892 1.81543 26.8488 1.81543C29.3083 1.81543 31.7679 2.35653 33.6418 3.43873C34.7755 4.0946 35.5673 4.87229 36.0147 5.69916C36.0147 5.60078 36.0311 5.5024 36.0311 5.40401C36.0311 4.04541 35.1339 2.68915 33.342 1.65615C31.55 0.623142 29.1982 0.105469 26.8488 0.105469C24.4993 0.105469 22.1476 0.6208 20.3556 1.64912C18.5637 2.67744 17.6665 4.04073 17.6665 5.39699C17.6665 5.49771 17.6665 5.59609 17.6806 5.69447C18.1233 4.87229 18.9197 4.0946 20.0558 3.43873Z" fill="url(#paint8_linear)"/>
<path d="M27.3198 5.49752L29.4022 1.01179L29.1141 0.967285L27.0247 5.45536C27.124 5.46182 27.2227 5.47591 27.3198 5.49752Z" fill="#BCBCBC"/>
<path d="M27.3195 7.20975L29.4019 2.72637C29.3059 2.70997 29.498 1.02577 29.4019 1.01172L27.3195 5.49745C27.4179 5.50447 27.2258 7.18867 27.3195 7.20975Z" fill="#7B7B7B"/>
<path d="M27.6756 4.98023C27.4192 4.84944 27.1354 4.78125 26.8475 4.78125C26.5597 4.78125 26.2759 4.84944 26.0195 4.98023C25.9264 5.02151 25.8459 5.08652 25.7858 5.16874C25.7258 5.25096 25.6884 5.34751 25.6775 5.44872V8.31349C25.6884 8.4147 25.7258 8.51125 25.7858 8.59347C25.8459 8.67569 25.9264 8.7407 26.0195 8.78198C26.2759 8.91277 26.5597 8.98096 26.8475 8.98096C27.1354 8.98096 27.4192 8.91277 27.6756 8.78198C27.7686 8.7407 27.8492 8.67569 27.9092 8.59347C27.9692 8.51125 28.0066 8.4147 28.0176 8.31349V5.45809C28.0082 5.35523 27.9716 5.25672 27.9115 5.17273C27.8513 5.08874 27.7699 5.02229 27.6756 4.98023Z" fill="url(#paint9_linear)"/>
<path d="M27.8887 6.67822C27.8559 6.70165 27.8207 6.72507 27.7809 6.74849L27.6802 6.80003L33.3652 10.0794L33.4636 10.0255L33.576 9.95995L27.8887 6.67822Z" fill="#BCBCBC"/>
<path d="M33.3652 10.0821L27.6802 6.80273V8.51738L33.3652 11.7968L33.4636 11.7429C33.5011 11.7218 33.3277 10.1055 33.3652 10.0821Z" fill="#555555"/>
<path d="M25.7127 6.33398L17.9382 7.53564C17.9617 7.59186 17.9874 7.64574 18.0155 7.70195L25.783 6.5003C25.7494 6.44972 25.7256 6.39332 25.7127 6.33398Z" fill="#BCBCBC"/>
<path d="M18.0155 7.70195C18.0389 7.75817 17.9874 9.36038 18.0155 9.41426L25.7829 8.20791V6.49561L18.0155 7.70195Z" fill="#7B7B7B"/>
<path d="M35.4242 3.24219C35.9158 3.857 36.19 4.6172 36.2042 5.40424C36.2042 6.78626 35.2907 8.16829 33.4636 9.22238C31.6365 10.2765 29.2473 10.8058 26.8463 10.8058C24.4453 10.8058 22.0584 10.2788 20.2313 9.22238C18.4042 8.16595 17.4907 6.78626 17.4907 5.40189C17.5054 4.61607 17.7787 3.85701 18.2684 3.24219C17.1791 4.21195 16.6287 5.32928 16.6287 6.44427C16.6287 7.95279 17.6265 9.4613 19.6199 10.6138C21.6133 11.7662 24.2275 12.3401 26.8416 12.3401C29.4557 12.3401 32.0699 11.7639 34.0633 10.6138C36.0567 9.46364 37.0545 7.95279 37.0545 6.44427C37.0592 5.32928 36.5134 4.21195 35.4242 3.24219Z" fill="url(#paint10_linear)"/>
<path d="M34.0682 10.6134C32.0748 11.7635 29.4606 12.3397 26.8465 12.3397C24.2324 12.3397 21.6206 11.7635 19.6248 10.6134C18.1561 9.76541 17.2285 8.72069 16.842 7.62679L17.2075 9.10719C17.4136 10.3557 18.3435 11.5738 19.9996 12.5295C21.8899 13.621 24.3682 14.1692 26.8465 14.1692C29.3248 14.1692 31.803 13.6234 33.6934 12.5295C35.2136 11.6534 36.1201 10.5571 36.42 9.41874V9.39531C36.4188 9.38206 36.4188 9.36874 36.42 9.35549L36.8884 7.50732C36.5324 8.64574 35.5931 9.73262 34.0682 10.6134Z" fill="url(#paint11_linear)"/>
<path d="M33.4639 1.58347C31.6368 0.527044 29.2476 0 26.8466 0C24.4456 0 22.0587 0.527044 20.2316 1.58347C18.4045 2.6399 17.491 4.01959 17.491 5.40161C17.491 6.78364 18.4045 8.16801 20.2316 9.2221C22.0587 10.2762 24.4479 10.8056 26.8466 10.8056C29.2452 10.8056 31.6368 10.2785 33.4639 9.2221C35.291 8.16567 36.2045 6.78598 36.2045 5.40396C36.2045 4.02193 35.291 2.63756 33.4639 1.58347ZM33.3491 9.1448C31.5548 10.1778 29.2054 10.6955 26.856 10.6955C24.5065 10.6955 22.1571 10.1778 20.3651 9.1448C18.5732 8.11179 17.676 6.75319 17.676 5.39693C17.676 4.04067 18.5732 2.68441 20.3651 1.64906C22.1571 0.613713 24.5065 0.0983811 26.856 0.0983811C29.2054 0.0983811 31.5455 0.620741 33.3491 1.64906C35.1528 2.67738 36.0382 4.04067 36.0382 5.39693C36.0382 6.75319 35.1317 8.11647 33.3491 9.1448Z" fill="#BCBCBC"/>
<path opacity="0.07" d="M20.3745 2.11727C16.7648 4.20203 16.7648 7.58213 20.3745 9.66688C23.9841 11.7516 29.8425 11.7516 33.4522 9.66688C37.0619 7.58213 37.0642 4.20203 33.4522 2.11727C29.8402 0.0325232 23.9795 0.0325232 20.3745 2.11727Z" fill="#424241"/>
<path style="mix-blend-mode:multiply" opacity="0.08" d="M35.778 7.41622L26.9143 5.89131L33.452 2.11768C35.9373 3.55123 36.7126 5.59851 35.778 7.41622Z" fill="url(#paint12_linear)"/>
<path style="mix-blend-mode:multiply" opacity="0.08" d="M26.9143 5.89131L33.452 2.11768C34.8317 2.9141 35.6843 3.90026 36.0099 4.92858L26.9143 5.89131Z" fill="url(#paint13_linear)"/>
<path style="mix-blend-mode:multiply" opacity="0.07" d="M26.9143 5.89131L33.452 2.11768C33.9925 2.42137 34.4904 2.79553 34.9324 3.23032L26.9143 5.89131Z" fill="url(#paint14_linear)"/>
<path style="mix-blend-mode:multiply" opacity="0.08" d="M18.0508 4.36816L26.9145 5.89074L20.3745 9.66671C17.8892 8.23315 17.1162 6.18354 18.0508 4.36816Z" fill="url(#paint15_linear)"/>
<path style="mix-blend-mode:multiply" opacity="0.08" d="M26.9142 5.89062L20.3742 9.6666C18.9945 8.87018 18.1419 7.88402 17.8186 6.8557L26.9142 5.89062Z" fill="url(#paint16_linear)"/>
<path style="mix-blend-mode:multiply" opacity="0.07" d="M26.9143 5.89062L20.3743 9.6666C19.8347 9.36155 19.3378 8.98665 18.8962 8.55161L26.9143 5.89062Z" fill="url(#paint17_linear)"/>
<path style="mix-blend-mode:multiply" opacity="0.08" d="M24.2744 11.0186L26.9143 5.90039L33.452 9.67637C30.969 11.1029 27.4203 11.5503 24.2744 11.0186Z" fill="url(#paint18_linear)"/>
<path style="mix-blend-mode:multiply" opacity="0.08" d="M26.9143 5.89062L33.452 9.6666C31.9468 10.4887 30.2881 10.9911 28.5798 11.1423L26.9143 5.89062Z" fill="url(#paint19_linear)"/>
<path style="mix-blend-mode:multiply" opacity="0.07" d="M26.9143 5.89062L33.452 9.6666C32.8394 10.0165 32.1926 10.303 31.5218 10.5216L26.9143 5.89062Z" fill="url(#paint20_linear)"/>
<path style="mix-blend-mode:multiply" opacity="0.08" d="M29.5542 0.773287L26.9143 5.89147L20.3743 2.11783C22.8596 0.681932 26.406 0.243901 29.5542 0.773287Z" fill="url(#paint21_linear)"/>
<path style="mix-blend-mode:multiply" opacity="0.08" d="M26.9143 5.89086L20.3743 2.11722C21.8797 1.29535 23.5382 0.792213 25.2465 0.63916L26.9143 5.89086Z" fill="url(#paint22_linear)"/>
<path style="mix-blend-mode:multiply" opacity="0.07" d="M26.9143 5.89131L20.3743 2.11768C20.9871 1.76819 21.6338 1.48173 22.3044 1.2627L26.9143 5.89131Z" fill="url(#paint23_linear)"/>
<path d="M27.891 4.79962C27.5674 4.63633 27.21 4.55127 26.8475 4.55127C26.485 4.55127 26.1276 4.63633 25.8039 4.79962C25.6846 4.85216 25.5814 4.9357 25.5052 5.04155C25.429 5.14741 25.3825 5.27173 25.3706 5.40162V5.931C25.3825 6.06089 25.429 6.18521 25.5052 6.29107C25.5814 6.39692 25.6846 6.48046 25.8039 6.533C26.1271 6.69774 26.4847 6.78362 26.8475 6.78362C27.2103 6.78362 27.5679 6.69774 27.891 6.533C28.0101 6.48005 28.113 6.39641 28.1892 6.29063C28.2653 6.18485 28.312 6.06074 28.3244 5.931V5.39693C28.3112 5.26802 28.2642 5.14488 28.1881 5.03999C28.112 4.9351 28.0095 4.85218 27.891 4.79962Z" fill="url(#paint24_linear)"/>
<path d="M26.8466 4.55125C26.4836 4.54381 26.1248 4.62928 25.8042 4.79955C25.6782 4.84241 25.5689 4.92362 25.4914 5.03179C25.414 5.13997 25.3723 5.26968 25.3723 5.40272C25.3723 5.53577 25.414 5.66547 25.4914 5.77365C25.5689 5.88182 25.6782 5.96303 25.8042 6.00589C26.1278 6.16918 26.4853 6.25424 26.8477 6.25424C27.2102 6.25424 27.5677 6.16918 27.8913 6.00589C28.0173 5.96303 28.1266 5.88182 28.2041 5.77365C28.2815 5.66547 28.3232 5.53577 28.3232 5.40272C28.3232 5.26968 28.2815 5.13997 28.2041 5.03179C28.1266 4.92362 28.0173 4.84241 27.8913 4.79955C27.5699 4.62908 27.2103 4.54361 26.8466 4.55125Z" fill="#BCBCBC"/>
<path d="M11.253 17.4227C10.929 17.2594 10.5712 17.1743 10.2083 17.1743C9.84542 17.1743 9.48761 17.2594 9.16357 17.4227C9.0443 17.476 8.94133 17.5601 8.86519 17.6663C8.78905 17.7725 8.74248 17.897 8.73022 18.027V18.5541C8.74272 18.6841 8.78938 18.8085 8.86549 18.9146C8.9416 19.0208 9.04444 19.1049 9.16357 19.1584C9.48739 19.3225 9.84529 19.4079 10.2083 19.4079C10.5713 19.4079 10.9292 19.3225 11.253 19.1584C11.3719 19.1056 11.4746 19.0219 11.5504 18.916C11.6261 18.8102 11.6723 18.6861 11.684 18.5564V18.0294C11.6726 17.8991 11.6267 17.7741 11.5509 17.6675C11.4751 17.5609 11.3723 17.4764 11.253 17.4227Z" fill="url(#paint25_linear)"/>
<path d="M10.2083 17.1743C9.84458 17.1667 9.48495 17.2521 9.16357 17.4226C9.03762 17.4655 8.92824 17.5467 8.85078 17.6548C8.77333 17.763 8.73169 17.8927 8.73169 18.0258C8.73169 18.1588 8.77333 18.2885 8.85078 18.3967C8.92824 18.5049 9.03762 18.5861 9.16357 18.6289C9.48718 18.7937 9.84516 18.8796 10.2083 18.8796C10.5714 18.8796 10.9294 18.7937 11.253 18.6289C11.379 18.5861 11.4883 18.5049 11.5658 18.3967C11.6432 18.2885 11.6849 18.1588 11.6849 18.0258C11.6849 17.8927 11.6432 17.763 11.5658 17.6548C11.4883 17.5467 11.379 17.4655 11.253 17.4226C10.9314 17.2526 10.572 17.1672 10.2083 17.1743Z" fill="#BCBCBC"/>
<path d="M3.57915 14.3309C5.41092 13.2745 7.80957 12.7475 10.2082 12.7475C12.6068 12.7475 15.0055 13.2745 16.8349 14.3309C18.2872 15.1695 19.1632 16.2049 19.4631 17.3011C19.5402 17.0227 19.5796 16.7351 19.5802 16.4461C19.5802 15.0618 18.6643 13.6774 16.8349 12.621C15.0055 11.5645 12.6185 11.0352 10.2082 11.0352C7.79785 11.0352 5.41092 11.5645 3.57915 12.621C1.74738 13.6774 0.836187 15.0618 0.836187 16.4461C0.835647 16.7352 0.875061 17.0229 0.953308 17.3011C1.25782 16.2142 2.12919 15.1695 3.57915 14.3309Z" fill="url(#paint26_linear)"/>
<path d="M3.41529 13.1055C5.28923 12.021 7.74877 11.4799 10.2083 11.4799C12.6678 11.4799 15.1274 12.021 17.0013 13.1055C18.1374 13.7591 18.9268 14.5391 19.3765 15.366C19.3765 15.2652 19.3906 15.1668 19.3906 15.0685C19.3906 13.7122 18.4934 12.3559 16.7015 11.3206C14.9095 10.2853 12.5601 9.76758 10.2106 9.76758C7.86119 9.76758 5.51175 10.2853 3.71746 11.3206C1.92317 12.3559 1.02368 13.7122 1.02368 15.0685C1.02368 15.1668 1.02368 15.2652 1.03774 15.366C1.49216 14.5321 2.28156 13.7591 3.41529 13.1055Z" fill="url(#paint27_linear)"/>
<path d="M10.6812 15.165L12.7612 10.6793L12.4755 10.6348L10.3931 15.1205C10.4899 15.1292 10.5862 15.1441 10.6812 15.165Z" fill="#BCBCBC"/>
<path d="M10.6813 16.8748L12.7614 12.3891C12.6677 12.375 12.8575 10.6908 12.7614 10.6768L10.6813 15.1625C10.7774 15.1719 10.5876 16.8561 10.6813 16.8748Z" fill="#7B7B7B"/>
<path d="M11.0352 14.6472C10.7788 14.5164 10.495 14.4482 10.2071 14.4482C9.91929 14.4482 9.63552 14.5164 9.37909 14.6472C9.28604 14.6885 9.20547 14.7535 9.14545 14.8357C9.08543 14.918 9.04807 15.0145 9.03711 15.1157V17.9805C9.04829 18.0819 9.08599 18.1787 9.14644 18.2609C9.20689 18.3431 9.28794 18.408 9.38144 18.449C9.63789 18.5783 9.92111 18.6457 10.2083 18.6457C10.4955 18.6457 10.7787 18.5783 11.0352 18.449C11.1285 18.4081 11.2093 18.3432 11.2694 18.2609C11.3295 18.1786 11.3667 18.0818 11.3772 17.9805V15.1251C11.3683 15.0221 11.3318 14.9234 11.2717 14.8393C11.2115 14.7552 11.1298 14.6889 11.0352 14.6472Z" fill="url(#paint28_linear)"/>
<path d="M11.2484 16.3457L11.143 16.416L11.0422 16.4675L16.7249 19.7469L16.8233 19.693L16.9358 19.6274L11.2484 16.3457Z" fill="#BCBCBC"/>
<path d="M16.7179 19.7491L11.0352 16.4697V18.182L16.7179 21.4614L16.8162 21.4075C16.8631 21.3865 16.6874 19.7725 16.7179 19.7491Z" fill="#555555"/>
<path d="M9.07233 15.9985L1.29785 17.2025L1.37516 17.3689L9.1426 16.1719C9.10946 16.1185 9.0857 16.0599 9.07233 15.9985Z" fill="#BCBCBC"/>
<path d="M1.37513 17.3689C1.39855 17.4227 1.34936 19.0249 1.37513 19.0812L9.14257 17.8795V16.1719L1.37513 17.3689Z" fill="#7B7B7B"/>
<path d="M18.7862 12.9072C19.2755 13.5231 19.5488 14.2828 19.5639 15.0693C19.5639 16.4513 18.6503 17.8357 16.8232 18.8898C14.9962 19.9438 12.6069 20.4709 10.2083 20.4709C7.80962 20.4709 5.41801 19.9438 3.60029 18.8898C1.78258 17.8357 0.859663 16.4513 0.859663 15.0693C0.874198 14.283 1.14846 13.5237 1.63969 12.9096C0.550468 13.8793 0 14.9943 0 16.1117C0 17.6202 0.995532 19.1287 2.99127 20.2812C4.98701 21.4336 7.59879 22.0075 10.2129 22.0075C12.8271 22.0075 15.4389 21.4313 17.4346 20.2812C19.4303 19.131 20.4259 17.6202 20.4259 16.1117C20.4212 15.0013 19.8754 13.8793 18.7862 12.9072Z" fill="url(#paint29_linear)"/>
<path d="M17.4209 20.2809C15.4251 21.4311 12.8133 22.0073 10.1992 22.0073C7.58504 22.0073 4.97092 21.4311 2.97752 20.2809C1.50648 19.4307 0.578882 18.3883 0.192383 17.2944L0.560144 18.7748C0.763934 20.0233 1.69621 21.239 3.3523 22.197C5.24263 23.2886 7.7209 23.8367 10.1992 23.8367C12.6775 23.8367 15.1557 23.291 17.0461 22.197C18.564 21.321 19.4728 20.2271 19.7703 19.0887V19.0652C19.7711 19.052 19.7711 19.0387 19.7703 19.0254L20.2388 17.1772C19.8945 18.311 18.9528 19.4002 17.4209 20.2809Z" fill="url(#paint30_linear)"/>
<path d="M16.8232 11.253C14.9961 10.1989 12.6068 9.67188 10.2082 9.67188C7.80958 9.67188 5.41797 10.1942 3.60025 11.253C1.78253 12.3118 0.859619 13.6915 0.859619 15.0735C0.859619 16.4555 1.77316 17.8399 3.60025 18.894C5.42734 19.9481 7.8166 20.4751 10.2176 20.4751C12.6186 20.4751 15.0055 19.9481 16.8326 18.894C18.6596 17.8399 19.5732 16.4555 19.5732 15.0735C19.5732 13.6915 18.6503 12.3048 16.8232 11.253ZM16.699 18.8214C14.9071 19.8567 12.5577 20.3744 10.2082 20.3744C7.85877 20.3744 5.50932 19.8567 3.71503 18.8214C1.92073 17.786 1.02359 16.4251 1.02359 15.0688C1.02359 13.7125 1.91839 12.3563 3.71034 11.3209C5.50229 10.2856 7.85408 9.76791 10.2035 9.76791C12.553 9.76791 14.9024 10.2856 16.6944 11.3209C18.4863 12.3563 19.3835 13.7125 19.3835 15.0688C19.3835 16.4251 18.491 17.7813 16.699 18.8167V18.8214Z" fill="#BCBCBC"/>
<path opacity="0.07" d="M3.73635 11.7823C0.124342 13.8671 0.124342 17.2495 3.73635 19.3343C7.34836 21.419 13.202 21.419 16.8141 19.3343C20.4261 17.2495 20.4261 13.8671 16.8141 11.7823C13.202 9.69756 7.34836 9.69756 3.73635 11.7823Z" fill="#424241"/>
<path style="mix-blend-mode:multiply" opacity="0.08" d="M19.14 17.0831L10.2739 15.5582L16.814 11.7822C19.2946 13.2181 20.0723 15.2654 19.14 17.0831Z" fill="url(#paint31_linear)"/>
<path style="mix-blend-mode:multiply" opacity="0.08" d="M10.2739 15.5582L16.814 11.7822C18.1936 12.5786 19.0463 13.5648 19.3719 14.5931L10.2739 15.5582Z" fill="url(#paint32_linear)"/>
<path style="mix-blend-mode:multiply" opacity="0.07" d="M10.2739 15.5582L16.814 11.7822C17.3537 12.0881 17.8514 12.4629 18.2944 12.8972L10.2739 15.5582Z" fill="url(#paint33_linear)"/>
<path style="mix-blend-mode:multiply" opacity="0.08" d="M1.41031 14.0332L10.274 15.5581L3.73633 19.3341C1.25805 17.8982 0.475686 15.8509 1.41031 14.0332Z" fill="url(#paint34_linear)"/>
<path style="mix-blend-mode:multiply" opacity="0.08" d="M10.2741 15.5581L3.7364 19.3341C2.35671 18.5377 1.50406 17.5515 1.17847 16.5232L10.2741 15.5581Z" fill="url(#paint35_linear)"/>
<path style="mix-blend-mode:multiply" opacity="0.07" d="M10.2739 15.5581L3.73627 19.3341C3.19651 19.0282 2.69886 18.6534 2.25586 18.2191L10.2739 15.5581Z" fill="url(#paint36_linear)"/>
<path style="mix-blend-mode:multiply" opacity="0.08" d="M7.63403 20.6763L10.2739 15.5581L16.814 19.3341C14.3287 20.7676 10.7822 21.215 7.63403 20.6763Z" fill="url(#paint37_linear)"/>
<path style="mix-blend-mode:multiply" opacity="0.08" d="M10.2739 15.5581L16.8139 19.3341C15.3088 20.1562 13.6501 20.6586 11.9417 20.8098L10.2739 15.5581Z" fill="url(#paint38_linear)"/>
<path style="mix-blend-mode:multiply" opacity="0.07" d="M10.2739 15.5581L16.8139 19.3341C16.2006 19.6826 15.554 19.969 14.8838 20.1891L10.2739 15.5581Z" fill="url(#paint39_linear)"/>
<path style="mix-blend-mode:multiply" opacity="0.08" d="M12.9139 10.4405L10.274 15.5587L3.73633 11.7827C6.22163 10.3491 9.76805 9.90172 12.9139 10.4405Z" fill="url(#paint40_linear)"/>
<path style="mix-blend-mode:multiply" opacity="0.08" d="M10.274 15.5583L3.73633 11.7824C5.24148 10.9602 6.90019 10.4578 8.60855 10.3066L10.274 15.5583Z" fill="url(#paint41_linear)"/>
<path style="mix-blend-mode:multiply" opacity="0.07" d="M10.274 15.5583L3.73633 11.7823C4.34902 11.4332 4.99576 11.1475 5.66648 10.9297L10.274 15.5583Z" fill="url(#paint42_linear)"/>
<path d="M11.253 14.467C10.9294 14.3022 10.5714 14.2163 10.2083 14.2163C9.84516 14.2163 9.48717 14.3022 9.16357 14.467C9.04447 14.5199 8.94159 14.6035 8.86545 14.7093C8.7893 14.8151 8.74264 14.9392 8.73022 15.069V15.5983C8.74264 15.7281 8.7893 15.8522 8.86545 15.958C8.94159 16.0637 9.04447 16.1474 9.16357 16.2003C9.48717 16.3651 9.84516 16.451 10.2083 16.451C10.5714 16.451 10.9294 16.3651 11.253 16.2003C11.3719 16.1475 11.4746 16.0638 11.5504 15.958C11.6261 15.8521 11.6723 15.728 11.684 15.5983V15.069C11.6723 14.9393 11.6261 14.8152 11.5504 14.7093C11.4746 14.6035 11.3719 14.5198 11.253 14.467Z" fill="url(#paint43_linear)"/>
<path d="M10.2083 14.2162C9.84438 14.2093 9.48474 14.2956 9.16357 14.4668C9.03762 14.5097 8.92824 14.5909 8.85078 14.6991C8.77333 14.8073 8.73169 14.937 8.73169 15.07C8.73169 15.2031 8.77333 15.3328 8.85078 15.4409C8.92824 15.5491 9.03762 15.6303 9.16357 15.6732C9.48761 15.8365 9.84543 15.9216 10.2083 15.9216C10.5712 15.9216 10.929 15.8365 11.253 15.6732C11.379 15.6303 11.4883 15.5491 11.5658 15.4409C11.6432 15.3328 11.6849 15.2031 11.6849 15.07C11.6849 14.937 11.6432 14.8073 11.5658 14.6991C11.4883 14.5909 11.379 14.5097 11.253 14.4668C10.9317 14.2961 10.5722 14.2098 10.2083 14.2162Z" fill="#BCBCBC"/>
<path d="M51.32 21.2322C50.9964 21.069 50.6389 20.9839 50.2765 20.9839C49.914 20.9839 49.5565 21.069 49.2329 21.2322C49.1135 21.2854 49.0104 21.3694 48.9342 21.4756C48.8581 21.5818 48.8116 21.7064 48.7996 21.8366V22.3636C48.812 22.4934 48.8586 22.6175 48.9348 22.7232C49.0109 22.829 49.1138 22.9127 49.2329 22.9656C49.5561 23.1304 49.9137 23.2162 50.2765 23.2162C50.6392 23.2162 50.9968 23.1304 51.32 22.9656C51.4391 22.9127 51.542 22.829 51.6181 22.7232C51.6943 22.6175 51.7409 22.4934 51.7533 22.3636V21.8366C51.7413 21.7064 51.6948 21.5818 51.6187 21.4756C51.5425 21.3694 51.4394 21.2854 51.32 21.2322Z" fill="url(#paint44_linear)"/>
<path d="M50.2779 20.9834C49.9142 20.9757 49.5545 21.0612 49.2332 21.2317C49.1072 21.2745 48.9978 21.3557 48.9204 21.4639C48.8429 21.5721 48.8013 21.7018 48.8013 21.8349C48.8013 21.9679 48.8429 22.0976 48.9204 22.2058C48.9978 22.3139 49.1072 22.3952 49.2332 22.438C49.5563 22.6028 49.9139 22.6886 50.2767 22.6886C50.6395 22.6886 50.997 22.6028 51.3202 22.438C51.4462 22.3952 51.5556 22.3139 51.633 22.2058C51.7105 22.0976 51.7521 21.9679 51.7521 21.8349C51.7521 21.7018 51.7105 21.5721 51.633 21.4639C51.5556 21.3557 51.4462 21.2745 51.3202 21.2317C50.9996 21.0614 50.6408 20.9759 50.2779 20.9834Z" fill="#BCBCBC"/>
<path d="M43.6557 18.14C45.4875 17.0836 47.8721 16.5542 50.2847 16.5542C52.6974 16.5542 55.082 17.0836 56.9114 18.14C58.3637 18.9786 59.2375 20.014 59.5373 21.1102C59.6162 20.832 59.6564 20.5443 59.6568 20.2552C59.6568 18.8709 58.7409 17.4865 56.9114 16.4301C55.082 15.3736 52.6951 14.8442 50.2847 14.8442C47.8744 14.8442 45.4875 15.3713 43.6557 16.4301C41.8239 17.4888 40.9104 18.8709 40.9104 20.2552C40.9108 20.5443 40.951 20.832 41.0299 21.1102C41.3133 20.0233 42.1964 18.9833 43.6557 18.14Z" fill="url(#paint45_linear)"/>
<path d="M43.4848 16.9146C45.3588 15.8301 47.8183 15.289 50.2778 15.289C52.7374 15.289 55.1969 15.8301 57.0708 16.9146C58.2069 17.5681 58.9963 18.3458 59.4437 19.1727C59.455 19.0747 59.4605 18.9762 59.4601 18.8776C59.4601 17.5213 58.563 16.165 56.771 15.1297C54.9791 14.0943 52.6296 13.5767 50.2802 13.5767C47.9307 13.5767 45.5789 14.0943 43.787 15.1297C41.995 16.165 41.0979 17.5213 41.0979 18.8776C41.0979 18.9759 41.0979 19.0743 41.1143 19.1727C41.5594 18.3458 42.3511 17.5775 43.4848 16.9146Z" fill="url(#paint46_linear)"/>
<path d="M50.7508 18.983L52.8308 14.4996L52.5451 14.4551L50.4626 18.9408C50.5587 18.9385 50.6571 18.9525 50.7508 18.983Z" fill="#BCBCBC"/>
<path d="M50.7509 20.6858L52.831 16.2001C52.735 16.1837 52.927 14.5018 52.831 14.4878L50.7509 18.9829C50.847 18.9829 50.6572 20.6647 50.7509 20.6858Z" fill="#7B7B7B"/>
<path d="M51.1045 18.4531C50.8477 18.3237 50.5641 18.2563 50.2765 18.2563C49.9889 18.2563 49.7053 18.3237 49.4484 18.4531C49.3558 18.4949 49.2756 18.5601 49.2156 18.6422C49.1557 18.7243 49.1181 18.8206 49.1064 18.9215V21.7933C49.1179 21.8944 49.1554 21.9908 49.2154 22.0729C49.2753 22.1551 49.3557 22.2202 49.4484 22.2618C49.7053 22.3912 49.9889 22.4585 50.2765 22.4585C50.5641 22.4585 50.8477 22.3912 51.1045 22.2618C51.1973 22.2202 51.2776 22.1551 51.3376 22.0729C51.3976 21.9908 51.4351 21.8944 51.4465 21.7933V18.9309C51.4364 18.8283 51.3995 18.7301 51.3395 18.6462C51.2795 18.5623 51.1984 18.4957 51.1045 18.4531Z" fill="url(#paint47_linear)"/>
<path d="M51.3176 20.1538C51.2834 20.1804 51.2474 20.2047 51.2099 20.2264L51.1091 20.278L56.7942 23.5573L56.8926 23.5035L57.0073 23.4332L51.3176 20.1538Z" fill="#BCBCBC"/>
<path d="M56.7942 23.5582L51.1091 20.2788V21.9911L56.7942 25.2705L56.8926 25.2166C56.93 25.1955 56.7567 23.5793 56.7942 23.5582Z" fill="#555555"/>
<path d="M49.1414 19.8076L41.3669 21.0116C41.3904 21.0655 41.4161 21.1217 41.4442 21.1779L49.2117 19.9739C49.1777 19.9236 49.1538 19.8671 49.1414 19.8076Z" fill="#BCBCBC"/>
<path d="M41.4444 21.1781C41.4679 21.232 41.4163 22.8342 41.4444 22.8904L49.2119 21.6888V19.9741L41.4444 21.1781Z" fill="#7B7B7B"/>
<path d="M58.8533 16.7153C59.3445 17.3303 59.6187 18.0904 59.6333 18.8774C59.6333 20.2594 58.7197 21.6414 56.8927 22.6979C55.0656 23.7543 52.6763 24.279 50.2777 24.279C47.879 24.279 45.4874 23.752 43.6604 22.6979C41.8333 21.6438 40.9197 20.2594 40.9197 18.8774C40.9343 18.0904 41.2085 17.3303 41.6998 16.7153C40.6082 17.6874 40.0601 18.8024 40.0601 19.9174C40.0601 21.4283 41.0556 22.9368 43.0513 24.0869C45.0471 25.237 47.6589 25.8156 50.273 25.8156C52.8871 25.8156 55.4989 25.2394 57.4947 24.0869C59.4904 22.9344 60.4859 21.4283 60.4859 19.9174C60.4906 18.8024 59.9448 17.6874 58.8533 16.7153Z" fill="url(#paint48_linear)"/>
<path d="M57.4995 24.0869C55.5037 25.2394 52.8896 25.8156 50.2778 25.8156C47.666 25.8156 45.0495 25.2394 43.0561 24.0869C41.5851 23.239 40.6575 22.1966 40.271 21.1027L40.6364 22.5831C40.8449 23.8316 41.7819 25.0473 43.4215 26.01C45.3142 27.1016 47.7925 27.6497 50.2708 27.6497C52.7491 27.6497 55.225 27.1039 57.1177 26.01C58.6355 25.134 59.5421 24.0401 59.8419 22.9016V22.8782C59.8419 22.8642 59.8419 22.8501 59.8419 22.8384L60.2987 20.9902C59.9637 22.1193 59.022 23.1991 57.4995 24.0869Z" fill="url(#paint49_linear)"/>
<path d="M56.8926 15.0572C55.0655 14.0031 52.6763 13.4761 50.2776 13.4761C47.879 13.4761 45.4874 14.0031 43.6603 15.0572C41.8332 16.1113 40.9197 17.4957 40.9197 18.8777C40.9197 20.2597 41.8332 21.6417 43.6603 22.6982C45.4874 23.7546 47.8767 24.2793 50.2776 24.2793C52.6786 24.2793 55.0655 23.7523 56.8926 22.6982C58.7197 21.6441 59.6333 20.2597 59.6333 18.8777C59.6333 17.4957 58.7197 16.1136 56.8926 15.0572ZM56.7732 22.6256C54.9812 23.6609 52.6318 24.1786 50.2823 24.1786C47.9329 24.1786 45.5834 23.6609 43.7891 22.6256C41.9948 21.5902 41.1 20.2339 41.1 18.8777C41.1 17.5214 41.9972 16.1652 43.7891 15.1298C45.5811 14.0945 47.9305 13.5768 50.2823 13.5768C52.6341 13.5768 54.9812 14.0945 56.7732 15.1298C58.5651 16.1652 59.4622 17.5214 59.4622 18.8777C59.4622 20.2339 58.5604 21.5902 56.7732 22.6256Z" fill="#BCBCBC"/>
<path d="M50.2777 25.8159C49.7343 25.8159 49.1939 25.7901 48.6567 25.7386V26.2633C49.1924 26.3117 49.7327 26.3367 50.2777 26.3382C52.317 26.3578 54.3408 25.9815 56.2368 25.2303V24.7056C54.3413 25.4587 52.3173 25.8358 50.2777 25.8159Z" fill="url(#paint50_linear)"/>
<path opacity="0.07" d="M50.3433 24.7051C55.4508 24.7051 59.5912 22.315 59.5912 19.3667C59.5912 16.4184 55.4508 14.0283 50.3433 14.0283C45.2359 14.0283 41.0955 16.4184 41.0955 19.3667C41.0955 22.315 45.2359 24.7051 50.3433 24.7051Z" fill="#424241"/>
<path style="mix-blend-mode:multiply" opacity="0.08" d="M59.2072 20.8917L50.3435 19.3668L56.8835 15.5908C59.3665 17.0267 60.1418 19.074 59.2072 20.8917Z" fill="url(#paint51_linear)"/>
<path style="mix-blend-mode:multiply" opacity="0.08" d="M50.3435 19.3668L56.8835 15.5908C58.2632 16.3872 59.1135 17.3734 59.4391 18.4017L50.3435 19.3668Z" fill="url(#paint52_linear)"/>
<path style="mix-blend-mode:multiply" opacity="0.07" d="M50.3435 19.3668L56.8835 15.5908C57.4226 15.8967 57.9195 16.2715 58.3616 16.7058L50.3435 19.3668Z" fill="url(#paint53_linear)"/>
<path style="mix-blend-mode:multiply" opacity="0.08" d="M41.4795 17.8423L50.3432 19.3672L43.8055 23.1432C41.3132 21.7073 40.5449 19.66 41.4795 17.8423Z" fill="url(#paint54_linear)"/>
<path style="mix-blend-mode:multiply" opacity="0.08" d="M50.3432 19.3672L43.8055 23.1432C42.4258 22.3467 41.5732 21.3606 41.2476 20.3323L50.3432 19.3672Z" fill="url(#paint55_linear)"/>
<path style="mix-blend-mode:multiply" opacity="0.07" d="M50.3433 19.3672L43.8056 23.1432C43.2654 22.8379 42.7677 22.463 42.3252 22.0282L50.3433 19.3672Z" fill="url(#paint56_linear)"/>
<path style="mix-blend-mode:multiply" opacity="0.08" d="M47.7034 24.4854L50.3433 19.3672L56.8833 23.1432C54.398 24.5767 50.8516 25.0241 47.7034 24.4854Z" fill="url(#paint57_linear)"/>
<path style="mix-blend-mode:multiply" opacity="0.08" d="M50.3435 19.3672L56.8835 23.1432C55.3784 23.9653 53.7197 24.4677 52.0113 24.6189L50.3435 19.3672Z" fill="url(#paint58_linear)"/>
<path style="mix-blend-mode:multiply" opacity="0.07" d="M50.3435 19.3672L56.8835 23.1432C56.2706 23.4919 55.6239 23.7776 54.9534 23.9958L50.3435 19.3672Z" fill="url(#paint59_linear)"/>
<path style="mix-blend-mode:multiply" opacity="0.08" d="M52.9835 14.2491L50.3436 19.3673L43.8059 15.5913C46.2889 14.1577 49.8376 13.7103 52.9835 14.2491Z" fill="url(#paint60_linear)"/>
<path style="mix-blend-mode:multiply" opacity="0.08" d="M50.3436 19.3669L43.8059 15.591C45.3111 14.7688 46.9698 14.2664 48.6781 14.1152L50.3436 19.3669Z" fill="url(#paint61_linear)"/>
<path style="mix-blend-mode:multiply" opacity="0.07" d="M50.3436 19.3668L43.8059 15.5908C44.4188 15.2414 45.0655 14.955 45.7361 14.7358L50.3436 19.3668Z" fill="url(#paint62_linear)"/>
<path d="M51.32 18.2799C50.9968 18.1152 50.6392 18.0293 50.2765 18.0293C49.9137 18.0293 49.5561 18.1152 49.2329 18.2799C49.1138 18.3329 49.0109 18.4165 48.9348 18.5223C48.8586 18.6281 48.812 18.7522 48.7996 18.8819V19.4113C48.812 19.541 48.8586 19.6652 48.9348 19.7709C49.0109 19.8767 49.1138 19.9604 49.2329 20.0133C49.5565 20.1766 49.914 20.2617 50.2765 20.2617C50.6389 20.2617 50.9964 20.1766 51.32 20.0133C51.4391 19.9604 51.542 19.8767 51.6181 19.7709C51.6943 19.6652 51.7409 19.541 51.7533 19.4113V18.8819C51.7409 18.7522 51.6943 18.6281 51.6181 18.5223C51.542 18.4165 51.4391 18.3329 51.32 18.2799Z" fill="url(#paint63_linear)"/>
<path d="M50.2777 18.0248C49.9138 18.0179 49.5541 18.1042 49.233 18.2754C49.1067 18.3177 48.997 18.3985 48.9192 18.5065C48.8414 18.6146 48.7996 18.7443 48.7996 18.8774C48.7996 19.0106 48.8414 19.1403 48.9192 19.2483C48.997 19.3564 49.1067 19.4372 49.233 19.4794C49.5562 19.6442 49.9138 19.7301 50.2765 19.7301C50.6393 19.7301 50.9969 19.6442 51.32 19.4794C51.4463 19.4372 51.5561 19.3564 51.6338 19.2483C51.7116 19.1403 51.7535 19.0106 51.7535 18.8774C51.7535 18.7443 51.7116 18.6146 51.6338 18.5065C51.5561 18.3985 51.4463 18.3177 51.32 18.2754C50.9996 18.1045 50.6408 18.0182 50.2777 18.0248Z" fill="#BCBCBC"/>
<path opacity="0.2" d="M52.7466 26.1624L53.0675 25.5908L52.7771 25.6353L52.4585 26.2022L52.7466 26.1624Z" fill="white"/>
<path opacity="0.2" d="M53.1426 26.1015C53.5548 26.0312 53.9593 25.9461 54.3559 25.8461L54.7026 25.2324C54.2997 25.3449 53.8898 25.4386 53.4705 25.5182L53.1426 26.1015Z" fill="white"/>
<path d="M34.7167 30.9554C34.3927 30.7921 34.0349 30.707 33.672 30.707C33.3091 30.707 32.9513 30.7921 32.6273 30.9554C32.5083 31.0089 32.4057 31.093 32.33 31.1992C32.2542 31.3054 32.2081 31.4298 32.1963 31.5597V32.0868C32.2081 32.2167 32.2542 32.3411 32.33 32.4473C32.4057 32.5535 32.5083 32.6377 32.6273 32.6911C32.9513 32.8544 33.3091 32.9395 33.672 32.9395C34.0349 32.9395 34.3927 32.8544 34.7167 32.6911C34.836 32.6378 34.939 32.5537 35.0151 32.4475C35.0912 32.3414 35.1378 32.2169 35.1501 32.0868V31.5597C35.1378 31.4297 35.0912 31.3052 35.0151 31.199C34.939 31.0928 34.836 31.0088 34.7167 30.9554Z" fill="url(#paint64_linear)"/>
<path d="M33.6724 30.7065C33.3088 30.6994 32.9492 30.7848 32.6277 30.9548C32.5017 30.9977 32.3924 31.0789 32.3149 31.1871C32.2375 31.2952 32.1958 31.4249 32.1958 31.558C32.1958 31.691 32.2375 31.8207 32.3149 31.9289C32.3924 32.0371 32.5017 32.1183 32.6277 32.1612C32.9513 32.3259 33.3093 32.4118 33.6724 32.4118C34.0355 32.4118 34.3935 32.3259 34.7171 32.1612C34.8431 32.1183 34.9524 32.0371 35.0299 31.9289C35.1074 31.8207 35.149 31.691 35.149 31.558C35.149 31.4249 35.1074 31.2952 35.0299 31.1871C34.9524 31.0789 34.8431 30.9977 34.7171 30.9548C34.3957 30.7844 34.0361 30.6989 33.6724 30.7065Z" fill="#BCBCBC"/>
<path d="M27.0456 27.8632C28.875 26.8067 31.262 26.2797 33.6723 26.2797C36.0827 26.2797 38.4696 26.8067 40.3013 27.8632C41.7513 28.7018 42.6274 29.7371 42.9272 30.8357C43.0043 30.5564 43.0437 30.2681 43.0443 29.9784C43.0443 28.594 42.1308 27.2096 40.3013 26.1532C38.4719 25.0968 36.0709 24.5674 33.6723 24.5674C31.2737 24.5674 28.875 25.0968 27.0456 26.1532C25.2162 27.2096 24.3003 28.587 24.3003 29.9784C24.3009 30.2681 24.3403 30.5564 24.4174 30.8357C24.7172 29.7582 25.5933 28.7018 27.0456 27.8632Z" fill="url(#paint65_linear)"/>
<path d="M26.8818 26.6377C28.7557 25.5556 31.2153 25.0121 33.6748 25.0121C36.1343 25.0121 38.5939 25.5556 40.4678 26.6377C41.6015 27.2913 42.3933 28.0713 42.8407 28.8982C42.8407 28.7998 42.8547 28.6991 42.8547 28.6007C42.8547 27.2444 41.9599 25.8882 40.168 24.8528C38.376 23.8175 36.0243 23.2998 33.6748 23.2998C31.3254 23.2998 28.9759 23.8175 27.184 24.8528C25.392 25.8882 24.4949 27.2444 24.4949 28.6007C24.4949 28.6991 24.4949 28.7998 24.5089 28.8982C24.9563 28.0713 25.7457 27.2936 26.8818 26.6377Z" fill="url(#paint66_linear)"/>
<path d="M34.1453 28.6972L36.2277 24.2115L35.9396 24.167L33.8572 28.6527C33.9541 28.6615 34.0503 28.6763 34.1453 28.6972Z" fill="#BCBCBC"/>
<path d="M34.1452 30.409L36.2276 25.9232C36.1316 25.9092 36.3237 24.225 36.2276 24.2109L34.1452 28.6967C34.2436 28.7037 34.0515 30.3879 34.1452 30.409Z" fill="#7B7B7B"/>
<path d="M34.5015 28.1795C34.2451 28.0487 33.9613 27.9805 33.6735 27.9805C33.3856 27.9805 33.1018 28.0487 32.8454 28.1795C32.7521 28.2203 32.6713 28.2852 32.6112 28.3675C32.5511 28.4498 32.5139 28.5466 32.5034 28.6479V31.5127C32.5139 31.6141 32.5511 31.7108 32.6112 31.7931C32.6713 31.8754 32.7521 31.9403 32.8454 31.9812C33.1018 32.112 33.3856 32.1802 33.6735 32.1802C33.9613 32.1802 34.2451 32.112 34.5015 31.9812C34.5945 31.9399 34.6751 31.8749 34.7351 31.7927C34.7952 31.7105 34.8325 31.6139 34.8435 31.5127V28.6573C34.8341 28.5544 34.7975 28.4559 34.7374 28.3719C34.6773 28.288 34.5958 28.2215 34.5015 28.1795Z" fill="url(#paint67_linear)"/>
<path d="M34.7146 29.8779C34.6794 29.9014 34.6466 29.9248 34.6068 29.9482L34.5061 29.9997L40.1912 33.2791L40.2895 33.2252L40.402 33.1597L34.7146 29.8779Z" fill="#BCBCBC"/>
<path d="M40.1912 33.2716L34.5061 29.9922V31.7045L40.1912 34.9839L40.2895 34.93C40.327 34.9113 40.1537 33.3044 40.1912 33.2716Z" fill="#555555"/>
<path d="M32.5363 29.5239L24.7642 30.7256C24.7876 30.7818 24.8134 30.8357 24.8391 30.8919L32.6089 29.6902C32.5756 29.6392 32.5511 29.583 32.5363 29.5239Z" fill="#BCBCBC"/>
<path d="M24.839 30.9014C24.8647 30.9552 24.8132 32.5598 24.839 32.6137L32.6088 31.412V29.6997L24.839 30.9014Z" fill="#7B7B7B"/>
<path d="M42.2501 26.4414C42.7414 27.0555 43.0156 27.8149 43.0302 28.6011C43.0302 29.9855 42.1166 31.3675 40.2895 32.4216C38.4625 33.4757 36.0732 34.0051 33.6722 34.0051C31.2712 34.0051 28.8843 33.4757 27.0572 32.4216C25.2301 31.3675 24.3166 29.9855 24.3166 28.6011C24.3313 27.8153 24.6047 27.0562 25.0943 26.4414C24.0051 27.4112 23.4546 28.5262 23.4546 29.6435C23.4546 31.152 24.4525 32.6605 26.4459 33.813C28.4393 34.9655 31.0534 35.5394 33.6675 35.5394C36.2817 35.5394 38.8958 34.9631 40.8892 33.813C42.8826 32.6629 43.8898 31.1637 43.8898 29.6435C43.8898 28.5262 43.3394 27.4159 42.2501 26.4414Z" fill="url(#paint68_linear)"/>
<path d="M40.8939 33.8131C38.9005 34.9632 36.2863 35.5394 33.6722 35.5394C31.0581 35.5394 28.4463 34.9632 26.4505 33.8131C24.9818 32.9628 24.0542 31.9204 23.6677 30.8265L24.0331 32.3069C24.2393 33.5554 25.1692 34.7711 26.8253 35.7292C28.7156 36.8207 31.1939 37.3689 33.6722 37.3689C36.1505 37.3689 38.6287 36.8231 40.5191 35.7292C42.037 34.8508 42.9458 33.7569 43.2456 32.6184V32.595C43.2445 32.5818 43.2445 32.5684 43.2456 32.5552L43.7024 30.707C43.3581 31.8454 42.4188 32.9323 40.8939 33.8131Z" fill="url(#paint69_linear)"/>
<path d="M40.2896 24.7827C38.4625 23.7263 36.0732 23.1992 33.6723 23.1992C31.2713 23.1992 28.8844 23.7263 27.0573 24.7827C25.2302 25.8391 24.3167 27.2188 24.3167 28.6008C24.3167 29.9829 25.2302 31.3672 27.0573 32.4213C28.8844 33.4754 31.2736 34.0048 33.6723 34.0048C36.0709 34.0048 38.4625 33.4754 40.2896 32.4213C42.1167 31.3672 43.0302 29.9852 43.0302 28.6008C43.0302 27.2165 42.1167 25.8368 40.2896 24.7827ZM40.1654 32.3487C38.3711 33.384 36.0217 33.9017 33.6723 33.9017C31.3228 33.9017 28.9734 33.384 27.1814 32.3487C25.3895 31.3134 24.4923 29.9571 24.4923 28.6008C24.4923 27.2446 25.3895 25.8883 27.1814 24.853C28.9734 23.8176 31.3228 23.2999 33.6723 23.2999C36.0217 23.2999 38.3711 23.8176 40.1654 24.853C41.9597 25.8883 42.8522 27.2446 42.8522 28.6008C42.8522 29.9571 41.9574 31.3157 40.1654 32.3487Z" fill="#BCBCBC"/>
<path d="M33.6721 35.5391C33.131 35.5391 32.5899 35.5134 32.0535 35.4642V35.9865C32.5899 36.0357 33.131 36.0615 33.6721 36.0615C35.7122 36.081 37.7367 35.7048 39.6335 34.9535V34.4429C37.7359 35.1901 35.7114 35.5624 33.6721 35.5391Z" fill="url(#paint70_linear)"/>
<path opacity="0.07" d="M27.1999 25.3074C23.5903 27.3945 23.5903 30.7746 27.1999 32.8594C30.8096 34.9441 36.668 34.9441 40.2776 32.8594C43.8873 30.7746 43.8897 27.3945 40.2776 25.3074C36.6656 23.2203 30.8119 23.2297 27.1999 25.3074Z" fill="#424241"/>
<path style="mix-blend-mode:multiply" opacity="0.08" d="M42.6039 30.615L33.7402 29.0901L40.2779 25.3071C42.7632 26.7501 43.5386 28.7973 42.6039 30.615Z" fill="url(#paint71_linear)"/>
<path style="mix-blend-mode:multiply" opacity="0.08" d="M33.7402 29.0901L40.2779 25.3071C41.6576 26.1059 42.5102 27.0897 42.8358 28.118L33.7402 29.0901Z" fill="url(#paint72_linear)"/>
<path style="mix-blend-mode:multiply" opacity="0.07" d="M33.7402 29.0901L40.2779 25.3071C40.8181 25.6124 41.3158 25.9872 41.7583 26.4221L33.7402 29.0901Z" fill="url(#paint73_linear)"/>
<path style="mix-blend-mode:multiply" opacity="0.08" d="M24.8744 27.5679L33.7405 29.0904L27.2004 32.8664C24.7175 31.4305 23.9421 29.3832 24.8744 27.5679Z" fill="url(#paint74_linear)"/>
<path style="mix-blend-mode:multiply" opacity="0.08" d="M33.7401 29.0903L27.2001 32.8663C25.8204 32.0699 24.9678 31.0837 24.6445 30.0554L33.7401 29.0903Z" fill="url(#paint75_linear)"/>
<path style="mix-blend-mode:multiply" opacity="0.07" d="M33.7402 29.0903L27.2001 32.8663C26.6599 32.5612 26.1621 32.1864 25.7197 31.7513L33.7402 29.0903Z" fill="url(#paint76_linear)"/>
<path style="mix-blend-mode:multiply" opacity="0.08" d="M31.1003 34.2085L33.7402 29.0903L40.2779 32.8663C37.7997 34.2999 34.2462 34.7473 31.1003 34.2085Z" fill="url(#paint77_linear)"/>
<path style="mix-blend-mode:multiply" opacity="0.08" d="M33.7402 29.0903L40.2779 32.8663C38.7728 33.6884 37.1141 34.1908 35.4057 34.342L33.7402 29.0903Z" fill="url(#paint78_linear)"/>
<path style="mix-blend-mode:multiply" opacity="0.07" d="M33.7402 29.0903L40.2779 32.8663C39.6648 33.2153 39.0182 33.5017 38.3478 33.7213L33.7402 29.0903Z" fill="url(#paint79_linear)"/>
<path style="mix-blend-mode:multiply" opacity="0.08" d="M36.3799 23.9724L33.74 29.0905L27.2 25.3075C29.6853 23.881 33.2317 23.4336 36.3799 23.9724Z" fill="url(#paint80_linear)"/>
<path style="mix-blend-mode:multiply" opacity="0.08" d="M33.74 29.0903L27.2 25.3073C28.7051 24.4851 30.3638 23.9827 32.0722 23.8315L33.74 29.0903Z" fill="url(#paint81_linear)"/>
<path style="mix-blend-mode:multiply" opacity="0.07" d="M33.74 29.0902L27.2 25.3072C27.8133 24.9595 28.4599 24.6738 29.1301 24.4546L33.74 29.0902Z" fill="url(#paint82_linear)"/>
<path d="M34.7167 27.9987C34.3931 27.8339 34.0351 27.748 33.672 27.748C33.3089 27.748 32.9509 27.8339 32.6273 27.9987C32.5083 28.0516 32.4057 28.1352 32.3299 28.2411C32.2541 28.3469 32.208 28.4711 32.1963 28.6007V29.1301C32.208 29.2597 32.2541 29.3839 32.3299 29.4897C32.4057 29.5955 32.5083 29.6792 32.6273 29.7321C32.9509 29.8968 33.3089 29.9827 33.672 29.9827C34.0351 29.9827 34.3931 29.8968 34.7167 29.7321C34.8358 29.6791 34.9387 29.5955 35.0148 29.4897C35.091 29.3839 35.1377 29.2598 35.1501 29.1301V28.6007C35.1377 28.471 35.091 28.3468 35.0148 28.2411C34.9387 28.1353 34.8358 28.0516 34.7167 27.9987Z" fill="url(#paint83_linear)"/>
<path d="M33.6724 27.7479C33.3085 27.7415 32.949 27.8278 32.6277 27.9986C32.5017 28.0414 32.3924 28.1227 32.3149 28.2308C32.2375 28.339 32.1958 28.4687 32.1958 28.6018C32.1958 28.7348 32.2375 28.8645 32.3149 28.9727C32.3924 29.0809 32.5017 29.1621 32.6277 29.2049C32.9517 29.3682 33.3095 29.4533 33.6724 29.4533C34.0353 29.4533 34.3931 29.3682 34.7171 29.2049C34.8431 29.1621 34.9524 29.0809 35.0299 28.9727C35.1074 28.8645 35.149 28.7348 35.149 28.6018C35.149 28.4687 35.1074 28.339 35.0299 28.2308C34.9524 28.1227 34.8431 28.0414 34.7171 27.9986C34.396 27.8273 34.0363 27.741 33.6724 27.7479Z" fill="#BCBCBC"/>
<path opacity="0.2" d="M36.1414 35.8855L36.4646 35.314L36.1718 35.3585L35.8533 35.9253L36.1414 35.8855Z" fill="white"/>
<path opacity="0.2" d="M36.5396 35.8246C36.9503 35.7543 37.3547 35.67 37.7529 35.5716L38.0996 34.9556C37.6967 35.068 37.2844 35.164 36.8675 35.2437L36.5396 35.8246Z" fill="white"/>
<defs>
<linearGradient id="paint0_linear" x1="10596.9" y1="3325.53" x2="10876.9" y2="3924.8" gradientUnits="userSpaceOnUse">
<stop stop-color="white"/>
<stop offset="1"/>
</linearGradient>
<linearGradient id="paint1_linear" x1="28.7886" y1="17.6593" x2="33.9372" y2="17.6593" gradientUnits="userSpaceOnUse">
<stop stop-color="#6E6E6E"/>
<stop offset="1" stop-color="#969696"/>
</linearGradient>
<linearGradient id="paint2_linear" x1="7379.68" y1="1121.93" x2="7460.52" y2="970.934" gradientUnits="userSpaceOnUse">
<stop stop-color="#6E6E6E"/>
<stop offset="1" stop-color="#969696"/>
</linearGradient>
<linearGradient id="paint3_linear" x1="10042.6" y1="1729.84" x2="10863" y2="1729.84" gradientUnits="userSpaceOnUse">
<stop stop-color="#6E6E6E"/>
<stop offset="1" stop-color="#969696"/>
</linearGradient>
<linearGradient id="paint4_linear" x1="5130.86" y1="783.609" x2="5123.93" y2="754.178" gradientUnits="userSpaceOnUse">
<stop stop-color="#6E6E6E"/>
<stop offset="1" stop-color="#969696"/>
</linearGradient>
<linearGradient id="paint5_linear" x1="35.4969" y1="16.8702" x2="22.3583" y2="31.2456" gradientUnits="userSpaceOnUse">
<stop stop-color="#FFC400"/>
<stop offset="0.16" stop-color="#FFF200"/>
<stop offset="0.44" stop-color="#FFF200"/>
<stop offset="0.68" stop-color="#FFD900"/>
<stop offset="1" stop-color="#B6BCBF"/>
</linearGradient>
<linearGradient id="paint6_linear" x1="2146.01" y1="263.737" x2="2183.26" y2="263.737" gradientUnits="userSpaceOnUse">
<stop stop-color="#6E6E6E"/>
<stop offset="1" stop-color="#969696"/>
</linearGradient>
<linearGradient id="paint7_linear" x1="36.2936" y1="4.50232" x2="16.9429" y2="4.50232" gradientUnits="userSpaceOnUse">
<stop stop-color="#616161"/>
<stop offset="1" stop-color="#898989"/>
</linearGradient>
<linearGradient id="paint8_linear" x1="14030.4" y1="505.439" x2="12574.2" y2="505.439" gradientUnits="userSpaceOnUse">
<stop stop-color="#6E6E6E"/>
<stop offset="1" stop-color="#969696"/>
</linearGradient>
<linearGradient id="paint9_linear" x1="25.6775" y1="6.89165" x2="28.0176" y2="6.89165" gradientUnits="userSpaceOnUse">
<stop stop-color="#555555"/>
<stop offset="1" stop-color="#7D7D7D"/>
</linearGradient>
<linearGradient id="paint10_linear" x1="13919.3" y1="1015.12" x2="15700.5" y2="1015.12" gradientUnits="userSpaceOnUse">
<stop stop-color="#6E6E6E"/>
<stop offset="1" stop-color="#969696"/>
</linearGradient>
<linearGradient id="paint11_linear" x1="15312.8" y1="835.04" x2="13530.1" y2="835.04" gradientUnits="userSpaceOnUse">
<stop stop-color="#FFC400"/>
<stop offset="0.16" stop-color="#FFF200"/>
<stop offset="0.44" stop-color="#FFF200"/>
<stop offset="0.68" stop-color="#FFD900"/>
<stop offset="1" stop-color="#B6BCBF"/>
</linearGradient>
<linearGradient id="paint12_linear" x1="-7852.55" y1="-4407.5" x2="-8058.44" y2="-4613.39" gradientUnits="userSpaceOnUse">
<stop stop-color="white"/>
<stop offset="1"/>
</linearGradient>
<linearGradient id="paint13_linear" x1="-7277.15" y1="-4868.47" x2="-7435.69" y2="-5027.01" gradientUnits="userSpaceOnUse">
<stop stop-color="white"/>
<stop offset="1"/>
</linearGradient>
<linearGradient id="paint14_linear" x1="-6598.7" y1="-4189.96" x2="-6690.75" y2="-4282.01" gradientUnits="userSpaceOnUse">
<stop stop-color="white"/>
<stop offset="1"/>
</linearGradient>
<linearGradient id="paint15_linear" x1="46.3175" y1="-3536.41" x2="252.213" y2="-3330.51" gradientUnits="userSpaceOnUse">
<stop stop-color="white"/>
<stop offset="1"/>
</linearGradient>
<linearGradient id="paint16_linear" x1="-408.331" y1="-2930.66" x2="-249.79" y2="-2772.12" gradientUnits="userSpaceOnUse">
<stop stop-color="white"/>
<stop offset="1"/>
</linearGradient>
<linearGradient id="paint17_linear" x1="-141.511" y1="-2663.84" x2="-49.458" y2="-2571.79" gradientUnits="userSpaceOnUse">
<stop stop-color="white"/>
<stop offset="1"/>
</linearGradient>
<linearGradient id="paint18_linear" x1="-899.728" y1="-5149.12" x2="-692.777" y2="-5356.07" gradientUnits="userSpaceOnUse">
<stop stop-color="white"/>
<stop offset="1"/>
</linearGradient>
<linearGradient id="paint19_linear" x1="-1380.22" y1="-4570.07" x2="-1291.29" y2="-4659.01" gradientUnits="userSpaceOnUse">
<stop stop-color="white"/>
<stop offset="1"/>
</linearGradient>
<linearGradient id="paint20_linear" x1="-962.095" y1="-4251.74" x2="-923.058" y2="-4290.78" gradientUnits="userSpaceOnUse">
<stop stop-color="white"/>
<stop offset="1"/>
</linearGradient>
<linearGradient id="paint21_linear" x1="-1813.99" y1="2851.18" x2="-2020.99" y2="3058.18" gradientUnits="userSpaceOnUse">
<stop stop-color="white"/>
<stop offset="1"/>
</linearGradient>
<linearGradient id="paint22_linear" x1="-1222.11" y1="2243.39" x2="-1311.07" y2="2332.36" gradientUnits="userSpaceOnUse">
<stop stop-color="white"/>
<stop offset="1"/>
</linearGradient>
<linearGradient id="paint23_linear" x1="-1331.6" y1="2233.74" x2="-1370.65" y2="2272.79" gradientUnits="userSpaceOnUse">
<stop stop-color="white"/>
<stop offset="1"/>
</linearGradient>
<linearGradient id="paint24_linear" x1="2146.01" y1="232.586" x2="2183.26" y2="232.586" gradientUnits="userSpaceOnUse">
<stop stop-color="#6E6E6E"/>
<stop offset="1" stop-color="#969696"/>
</linearGradient>
<linearGradient id="paint25_linear" x1="1919.53" y1="365.707" x2="1956.78" y2="365.707" gradientUnits="userSpaceOnUse">
<stop stop-color="#6E6E6E"/>
<stop offset="1" stop-color="#969696"/>
</linearGradient>
<linearGradient id="paint26_linear" x1="13000.6" y1="878.558" x2="11452.1" y2="878.558" gradientUnits="userSpaceOnUse">
<stop stop-color="#616161"/>
<stop offset="1" stop-color="#898989"/>
</linearGradient>
<linearGradient id="paint27_linear" x1="12710.9" y1="746.57" x2="11254.6" y2="746.57" gradientUnits="userSpaceOnUse">
<stop stop-color="#6E6E6E"/>
<stop offset="1" stop-color="#969696"/>
</linearGradient>
<linearGradient id="paint28_linear" x1="1525.9" y1="638.351" x2="1549.27" y2="638.351" gradientUnits="userSpaceOnUse">
<stop stop-color="#555555"/>
<stop offset="1" stop-color="#7D7D7D"/>
</linearGradient>
<linearGradient id="paint29_linear" x1="12451.8" y1="1400.61" x2="14233" y2="1400.61" gradientUnits="userSpaceOnUse">
<stop stop-color="#6E6E6E"/>
<stop offset="1" stop-color="#969696"/>
</linearGradient>
<linearGradient id="paint30_linear" x1="13872.3" y1="1119.26" x2="12089.4" y2="1119.26" gradientUnits="userSpaceOnUse">
<stop stop-color="#FFC400"/>
<stop offset="0.16" stop-color="#FFF200"/>
<stop offset="0.44" stop-color="#FFF200"/>
<stop offset="0.68" stop-color="#FFD900"/>
<stop offset="1" stop-color="#B6BCBF"/>
</linearGradient>
<linearGradient id="paint31_linear" x1="-8285.87" y1="-4227.75" x2="-8491.77" y2="-4433.65" gradientUnits="userSpaceOnUse">
<stop stop-color="white"/>
<stop offset="1"/>
</linearGradient>
<linearGradient id="paint32_linear" x1="-7623.46" y1="-4773.66" x2="-7782.04" y2="-4932.24" gradientUnits="userSpaceOnUse">
<stop stop-color="white"/>
<stop offset="1"/>
</linearGradient>
<linearGradient id="paint33_linear" x1="-6928.9" y1="-4079.06" x2="-7020.98" y2="-4171.14" gradientUnits="userSpaceOnUse">
<stop stop-color="white"/>
<stop offset="1"/>
</linearGradient>
<linearGradient id="paint34_linear" x1="-394.542" y1="-3394.89" x2="-188.681" y2="-3189.03" gradientUnits="userSpaceOnUse">
<stop stop-color="white"/>
<stop offset="1"/>
</linearGradient>
<linearGradient id="paint35_linear" x1="-762.114" y1="-2872.38" x2="-603.573" y2="-2713.84" gradientUnits="userSpaceOnUse">
<stop stop-color="white"/>
<stop offset="1"/>
</linearGradient>
<linearGradient id="paint36_linear" x1="-479.19" y1="-2589.46" x2="-387.137" y2="-2497.4" gradientUnits="userSpaceOnUse">
<stop stop-color="white"/>
<stop offset="1"/>
</linearGradient>
<linearGradient id="paint37_linear" x1="-1517.72" y1="-4709.38" x2="-1310.72" y2="-4916.39" gradientUnits="userSpaceOnUse">
<stop stop-color="white"/>
<stop offset="1"/>
</linearGradient>
<linearGradient id="paint38_linear" x1="-1845.58" y1="-4275.42" x2="-1756.61" y2="-4364.39" gradientUnits="userSpaceOnUse">
<stop stop-color="white"/>
<stop offset="1"/>
</linearGradient>
<linearGradient id="paint39_linear" x1="-1418.16" y1="-3947.83" x2="-1379.11" y2="-3986.88" gradientUnits="userSpaceOnUse">
<stop stop-color="white"/>
<stop offset="1"/>
</linearGradient>
<linearGradient id="paint40_linear" x1="-2391.57" y1="3283.69" x2="-2598.52" y2="3490.64" gradientUnits="userSpaceOnUse">
<stop stop-color="white"/>
<stop offset="1"/>
</linearGradient>
<linearGradient id="paint41_linear" x1="-1649.91" y1="2527.95" x2="-1738.85" y2="2616.89" gradientUnits="userSpaceOnUse">
<stop stop-color="white"/>
<stop offset="1"/>
</linearGradient>
<linearGradient id="paint42_linear" x1="-1750.07" y1="2527.59" x2="-1789.11" y2="2566.63" gradientUnits="userSpaceOnUse">
<stop stop-color="white"/>
<stop offset="1"/>
</linearGradient>
<linearGradient id="paint43_linear" x1="1919.53" y1="334.713" x2="1956.78" y2="334.713" gradientUnits="userSpaceOnUse">
<stop stop-color="#6E6E6E"/>
<stop offset="1" stop-color="#969696"/>
</linearGradient>
<linearGradient id="paint44_linear" x1="2464.88" y1="405.619" x2="2502.12" y2="405.619" gradientUnits="userSpaceOnUse">
<stop stop-color="#6E6E6E"/>
<stop offset="1" stop-color="#969696"/>
</linearGradient>
<linearGradient id="paint45_linear" x1="16249" y1="984.252" x2="14700.4" y2="984.252" gradientUnits="userSpaceOnUse">
<stop stop-color="#616161"/>
<stop offset="1" stop-color="#898989"/>
</linearGradient>
<linearGradient id="paint46_linear" x1="15888.6" y1="841.062" x2="14432.7" y2="841.062" gradientUnits="userSpaceOnUse">
<stop stop-color="#6E6E6E"/>
<stop offset="1" stop-color="#969696"/>
</linearGradient>
<linearGradient id="paint47_linear" x1="1966.26" y1="711.198" x2="1989.63" y2="711.198" gradientUnits="userSpaceOnUse">
<stop stop-color="#555555"/>
<stop offset="1" stop-color="#7D7D7D"/>
</linearGradient>
<linearGradient id="paint48_linear" x1="15985.9" y1="1552.39" x2="17767.1" y2="1552.39" gradientUnits="userSpaceOnUse">
<stop stop-color="#6E6E6E"/>
<stop offset="1" stop-color="#969696"/>
</linearGradient>
<linearGradient id="paint49_linear" x1="17325.1" y1="1231.35" x2="15544.1" y2="1231.35" gradientUnits="userSpaceOnUse">
<stop stop-color="#FFC400"/>
<stop offset="0.16" stop-color="#FFF200"/>
<stop offset="0.44" stop-color="#FFF200"/>
<stop offset="0.68" stop-color="#FFD900"/>
<stop offset="1" stop-color="#B6BCBF"/>
</linearGradient>
<linearGradient id="paint50_linear" x1="48.6567" y1="25.5231" x2="56.2368" y2="25.5231" gradientUnits="userSpaceOnUse">
<stop stop-color="#B61617"/>
<stop offset="1" stop-color="#FF3F39"/>
</linearGradient>
<linearGradient id="paint51_linear" x1="-7035.12" y1="-3795.53" x2="-7241.01" y2="-4001.42" gradientUnits="userSpaceOnUse">
<stop stop-color="white"/>
<stop offset="1"/>
</linearGradient>
<linearGradient id="paint52_linear" x1="-6504.19" y1="-4235.9" x2="-6662.73" y2="-4394.44" gradientUnits="userSpaceOnUse">
<stop stop-color="white"/>
<stop offset="1"/>
</linearGradient>
<linearGradient id="paint53_linear" x1="-5910.9" y1="-3642.55" x2="-6003.01" y2="-3734.66" gradientUnits="userSpaceOnUse">
<stop stop-color="white"/>
<stop offset="1"/>
</linearGradient>
<linearGradient id="paint54_linear" x1="917.808" y1="-2911.88" x2="1123.72" y2="-2705.97" gradientUnits="userSpaceOnUse">
<stop stop-color="white"/>
<stop offset="1"/>
</linearGradient>
<linearGradient id="paint55_linear" x1="417.842" y1="-2284.74" x2="576.448" y2="-2126.14" gradientUnits="userSpaceOnUse">
<stop stop-color="white"/>
<stop offset="1"/>
</linearGradient>
<linearGradient id="paint56_linear" x1="599.437" y1="-2103.15" x2="691.547" y2="-2011.04" gradientUnits="userSpaceOnUse">
<stop stop-color="white"/>
<stop offset="1"/>
</linearGradient>
<linearGradient id="paint57_linear" x1="-276.473" y1="-4951.9" x2="-69.4694" y2="-5158.91" gradientUnits="userSpaceOnUse">
<stop stop-color="white"/>
<stop offset="1"/>
</linearGradient>
<linearGradient id="paint58_linear" x1="-817.701" y1="-4320.98" x2="-728.733" y2="-4409.95" gradientUnits="userSpaceOnUse">
<stop stop-color="white"/>
<stop offset="1"/>
</linearGradient>
<linearGradient id="paint59_linear" x1="-447.4" y1="-4050.6" x2="-408.395" y2="-4089.61" gradientUnits="userSpaceOnUse">
<stop stop-color="white"/>
<stop offset="1"/>
</linearGradient>
<linearGradient id="paint60_linear" x1="-1201.99" y1="3103.66" x2="-1408.94" y2="3310.61" gradientUnits="userSpaceOnUse">
<stop stop-color="white"/>
<stop offset="1"/>
</linearGradient>
<linearGradient id="paint61_linear" x1="-673.702" y1="2544.89" x2="-762.639" y2="2633.82" gradientUnits="userSpaceOnUse">
<stop stop-color="white"/>
<stop offset="1"/>
</linearGradient>
<linearGradient id="paint62_linear" x1="-832.051" y1="2486.34" x2="-871.088" y2="2525.37" gradientUnits="userSpaceOnUse">
<stop stop-color="white"/>
<stop offset="1"/>
</linearGradient>
<linearGradient id="paint63_linear" x1="2464.88" y1="374.492" x2="2502.12" y2="374.492" gradientUnits="userSpaceOnUse">
<stop stop-color="#6E6E6E"/>
<stop offset="1" stop-color="#969696"/>
</linearGradient>
<linearGradient id="paint64_linear" x1="2238.91" y1="508.056" x2="2276.16" y2="508.056" gradientUnits="userSpaceOnUse">
<stop stop-color="#6E6E6E"/>
<stop offset="1" stop-color="#969696"/>
</linearGradient>
<linearGradient id="paint65_linear" x1="14901.6" y1="1254.54" x2="13353.2" y2="1254.54" gradientUnits="userSpaceOnUse">
<stop stop-color="#616161"/>
<stop offset="1" stop-color="#898989"/>
</linearGradient>
<linearGradient id="paint66_linear" x1="14568.6" y1="1083.52" x2="13112.9" y2="1083.52" gradientUnits="userSpaceOnUse">
<stop stop-color="#6E6E6E"/>
<stop offset="1" stop-color="#969696"/>
</linearGradient>
<linearGradient id="paint67_linear" x1="1783.79" y1="894.842" x2="1807.17" y2="894.842" gradientUnits="userSpaceOnUse">
<stop stop-color="#555555"/>
<stop offset="1" stop-color="#7D7D7D"/>
</linearGradient>
<linearGradient id="paint68_linear" x1="14528" y1="1939.38" x2="16309.9" y2="1939.38" gradientUnits="userSpaceOnUse">
<stop stop-color="#6E6E6E"/>
<stop offset="1" stop-color="#969696"/>
</linearGradient>
<linearGradient id="paint69_linear" x1="15894.6" y1="1518.03" x2="14112.9" y2="1518.03" gradientUnits="userSpaceOnUse">
<stop stop-color="#FFC400"/>
<stop offset="0.16" stop-color="#FFF200"/>
<stop offset="0.44" stop-color="#FFF200"/>
<stop offset="0.68" stop-color="#FFD900"/>
<stop offset="1" stop-color="#B6BCBF"/>
</linearGradient>
<linearGradient id="paint70_linear" x1="5690.35" y1="404.348" x2="5935.64" y2="404.348" gradientUnits="userSpaceOnUse">
<stop stop-color="#B61617"/>
<stop offset="1" stop-color="#FF3F39"/>
</linearGradient>
<linearGradient id="paint71_linear" x1="-7468.33" y1="-3611.41" x2="-7674.22" y2="-3817.29" gradientUnits="userSpaceOnUse">
<stop stop-color="white"/>
<stop offset="1"/>
</linearGradient>
<linearGradient id="paint72_linear" x1="-6849.08" y1="-4135.56" x2="-7007.69" y2="-4294.17" gradientUnits="userSpaceOnUse">
<stop stop-color="white"/>
<stop offset="1"/>
</linearGradient>
<linearGradient id="paint73_linear" x1="-6239.94" y1="-3526.42" x2="-6332.05" y2="-3618.53" gradientUnits="userSpaceOnUse">
<stop stop-color="white"/>
<stop offset="1"/>
</linearGradient>
<linearGradient id="paint74_linear" x1="476.709" y1="-2767.05" x2="682.616" y2="-2561.15" gradientUnits="userSpaceOnUse">
<stop stop-color="white"/>
<stop offset="1"/>
</linearGradient>
<linearGradient id="paint75_linear" x1="65.7461" y1="-2224.49" x2="224.352" y2="-2065.88" gradientUnits="userSpaceOnUse">
<stop stop-color="white"/>
<stop offset="1"/>
</linearGradient>
<linearGradient id="paint76_linear" x1="262.945" y1="-2027.34" x2="355.083" y2="-1935.2" gradientUnits="userSpaceOnUse">
<stop stop-color="white"/>
<stop offset="1"/>
</linearGradient>
<linearGradient id="paint77_linear" x1="-892.369" y1="-4507.28" x2="-685.418" y2="-4714.23" gradientUnits="userSpaceOnUse">
<stop stop-color="white"/>
<stop offset="1"/>
</linearGradient>
<linearGradient id="paint78_linear" x1="-1283.36" y1="-4024.02" x2="-1194.43" y2="-4112.96" gradientUnits="userSpaceOnUse">
<stop stop-color="white"/>
<stop offset="1"/>
</linearGradient>
<linearGradient id="paint79_linear" x1="-905.128" y1="-3745.68" x2="-866.138" y2="-3784.67" gradientUnits="userSpaceOnUse">
<stop stop-color="white"/>
<stop offset="1"/>
</linearGradient>
<linearGradient id="paint80_linear" x1="-1780.57" y1="3538.63" x2="-1987.58" y2="3745.63" gradientUnits="userSpaceOnUse">
<stop stop-color="white"/>
<stop offset="1"/>
</linearGradient>
<linearGradient id="paint81_linear" x1="-1100.9" y1="2833.25" x2="-1189.91" y2="2922.26" gradientUnits="userSpaceOnUse">
<stop stop-color="white"/>
<stop offset="1"/>
</linearGradient>
<linearGradient id="paint82_linear" x1="-1250.53" y1="2783.54" x2="-1289.58" y2="2822.59" gradientUnits="userSpaceOnUse">
<stop stop-color="white"/>
<stop offset="1"/>
</linearGradient>
<linearGradient id="paint83_linear" x1="2238.91" y1="477.342" x2="2276.16" y2="477.342" gradientUnits="userSpaceOnUse">
<stop stop-color="#6E6E6E"/>
<stop offset="1" stop-color="#969696"/>
</linearGradient>
</defs>
</svg>
