<svg width="300" height="86" viewBox="0 0 300 86" fill="none" xmlns="http://www.w3.org/2000/svg">
<rect width="300" height="86" rx="10" fill="#B4FF99"/>
<g clip-path="url(#clip0)">
<path d="M240.551 70.3646L258.173 26.5178C258.599 25.4576 258.085 24.253 257.025 23.8269L230.218 13.0536C229.158 12.6276 227.953 13.1416 227.527 14.2016L209.906 58.0485C209.48 59.1086 209.994 60.3132 211.054 60.7393L237.86 71.5126C238.92 71.9386 240.125 71.4246 240.551 70.3646Z" fill="#FFC250"/>
<path d="M263.318 26.3561L256.894 23.7744C257.954 24.2005 258.468 25.4052 258.042 26.4652L240.42 70.3121C239.994 71.3722 238.79 71.8861 237.73 71.4601L244.154 74.0418C245.214 74.4678 246.418 73.9538 246.844 72.8938L264.466 29.0471C264.892 27.987 264.378 26.7822 263.318 26.3561Z" fill="#EAB14D"/>
<path d="M213.808 57.4052L229.9 17.3662C230.052 16.9873 230.482 16.8036 230.861 16.9559L260.153 28.7281C260.532 28.8804 260.716 29.311 260.564 29.6899L244.472 69.7289C244.32 70.1078 243.889 70.2915 243.511 70.1392L214.219 58.367C213.84 58.2147 213.656 57.7842 213.808 57.4052Z" fill="#F5F5F5"/>
<path d="M260.153 28.7282L253.729 26.1465C254.108 26.2988 254.292 26.7294 254.14 27.1082L238.048 67.1472C237.896 67.5262 237.466 67.7098 237.087 67.5576L243.511 70.1393C243.89 70.2916 244.32 70.1078 244.472 69.729L260.564 29.69C260.716 29.3111 260.532 28.8805 260.153 28.7282Z" fill="#EAEAEA"/>
<path d="M251.604 19.4575L252.01 18.447C252.316 17.6858 251.947 16.8207 251.186 16.5148L245.787 14.3451C245.026 14.0391 244.161 14.4083 243.855 15.1694L243.449 16.1799C243.323 16.4912 242.97 16.6421 242.658 16.517L240.411 15.614C239.664 15.3136 238.815 15.6761 238.514 16.4235L237.266 19.53L253.749 26.1545L254.997 23.048C255.298 22.3005 254.935 21.451 254.188 21.1506L251.941 20.2476C251.63 20.1225 251.479 19.7687 251.604 19.4575Z" fill="#C2D0DA"/>
<path d="M229.689 29.4234L232.118 23.3811C232.387 22.7117 233.148 22.3871 233.817 22.6561L239.859 25.0844C240.529 25.3535 240.853 26.1143 240.584 26.7837L238.156 32.826C237.887 33.4954 237.126 33.82 236.457 33.551L230.414 31.1226C229.745 30.8536 229.42 30.0928 229.689 29.4234Z" fill="#66B49D"/>
<path d="M224.63 42.0117L227.059 35.9695C227.328 35.3001 228.089 34.9754 228.758 35.2445L234.8 37.6728C235.47 37.9418 235.794 38.7027 235.525 39.3721L233.097 45.4144C232.828 46.0838 232.067 46.4084 231.398 46.1394L225.355 43.711C224.686 43.442 224.361 42.6811 224.63 42.0117Z" fill="#66B49D"/>
<path d="M219.571 54.5996L222 48.5574C222.269 47.888 223.03 47.5633 223.699 47.8324L229.741 50.2607C230.411 50.5297 230.735 51.2906 230.466 51.96L228.038 58.0023C227.769 58.6717 227.008 58.9963 226.339 58.7273L220.296 56.2989C219.627 56.0299 219.302 55.2691 219.571 54.5996Z" fill="#66B49D"/>
<path d="M233.756 30.0615C233.755 30.0612 233.754 30.0608 233.753 30.0605C233.407 29.9205 233.147 29.6209 233.055 29.2592L232.645 27.6338C232.531 27.1812 232.805 26.7217 233.257 26.6075C233.71 26.4934 234.169 26.7677 234.284 27.2201L234.521 28.1626L236.921 26.6776C237.318 26.432 237.839 26.5547 238.084 26.9515C238.33 27.3484 238.207 27.8692 237.81 28.1148L234.812 29.9704C234.496 30.1662 234.101 30.2002 233.756 30.0615Z" fill="#F6F9F9"/>
<path d="M228.586 42.9238C228.585 42.9234 228.584 42.923 228.584 42.9226C228.238 42.7826 227.977 42.4831 227.886 42.1212L227.475 40.4961C227.361 40.0435 227.635 39.584 228.088 39.4698C228.541 39.3557 229 39.6299 229.114 40.0824L229.352 41.0249L231.752 39.5399C232.149 39.2943 232.669 39.417 232.915 39.8138C233.161 40.2106 233.038 40.7315 232.641 40.9771L229.642 42.8327C229.326 43.0287 228.932 43.0625 228.586 42.9238Z" fill="#F6F9F9"/>
<path d="M223.637 55.2387C223.636 55.2383 223.635 55.238 223.635 55.2375C223.289 55.0976 223.028 54.7981 222.936 54.4365L222.526 52.8109C222.412 52.3583 222.686 51.899 223.139 51.7848C223.592 51.6706 224.051 51.945 224.165 52.3974L224.403 53.3398L226.803 51.8548C227.2 51.6093 227.72 51.732 227.966 52.1288C228.211 52.5256 228.089 53.0465 227.692 53.2921L224.693 55.1477C224.377 55.3434 223.982 55.3774 223.637 55.2387Z" fill="#F6F9F9"/>
<path d="M253.312 34.4147L243.618 30.519C243.185 30.345 242.975 29.8529 243.149 29.4198C243.323 28.9868 243.815 28.7768 244.248 28.9509L253.942 32.8466C254.375 33.0206 254.585 33.5127 254.411 33.9458C254.237 34.3788 253.745 34.5888 253.312 34.4147Z" fill="#DDEAFB"/>
<path d="M247.148 35.7437L242.301 33.7959C241.868 33.6218 241.658 33.1297 241.832 32.6967C242.006 32.2636 242.499 32.0537 242.932 32.2277L247.778 34.1755C248.211 34.3496 248.421 34.8417 248.247 35.2747C248.073 35.7078 247.581 35.9177 247.148 35.7437Z" fill="#DDEAFB"/>
<path d="M245.063 45.7212L238.559 43.1074C238.126 42.9334 237.916 42.4412 238.09 42.0082C238.264 41.5752 238.756 41.3652 239.189 41.5392L245.693 44.1531C246.126 44.3271 246.336 44.8192 246.162 45.2523C245.988 45.6853 245.496 45.8953 245.063 45.7212Z" fill="#DDEAFB"/>
<path d="M242.089 48.3316L237.242 46.3838C236.809 46.2097 236.599 45.7176 236.773 45.2846C236.947 44.8515 237.439 44.6416 237.872 44.8156L242.719 46.7634C243.152 46.9375 243.362 47.4296 243.188 47.8626C243.014 48.2957 242.522 48.5056 242.089 48.3316Z" fill="#DDEAFB"/>
<path d="M263.589 45.277L263.227 43.9534L261.079 40.9715L260.042 40.352L235.924 57.7325C235.342 58.1514 234.833 58.6632 234.417 59.2473C236.203 59.9907 237.418 61.6769 237.557 63.6063C238.242 63.397 238.889 63.0765 239.471 62.6575L263.589 45.277Z" fill="#FC8086"/>
<path d="M268.556 38.9361L267.628 37.6476C266.905 36.6432 265.504 36.4155 264.5 37.1392L262.633 38.4842L262.702 39.3646L265.285 42.95L266.18 43.4093L268.048 42.0635C269.051 41.3402 269.279 39.9401 268.556 38.9361Z" fill="#8C9BA6"/>
<path d="M260.046 40.3457L262.639 38.4785L266.186 43.4039L263.594 45.2711L260.046 40.3457Z" fill="#C9E2E7"/>
<path d="M237.557 63.6061L231.996 65.3027C231.212 65.542 230.57 64.651 231.046 63.9829L234.417 59.247C236.203 59.9904 237.417 61.6767 237.557 63.6061Z" fill="#7C8B96"/>
<path d="M237.039 61.7106L262.314 43.5075L261.327 42.136L236.051 60.3392C236.454 60.7385 236.788 61.2018 237.039 61.7106Z" fill="#FB636F"/>
</g>
<defs>
<clipPath id="clip0">
<rect width="56" height="56" fill="white" transform="translate(226.461 6.57812) rotate(21.8948)"/>
</clipPath>
</defs>
</svg>
