<svg width="474" height="472" xmlns="http://www.w3.org/2000/svg" preserveAspectRatio="xMidYMid meet">
 <metadata>Created by potrace 1.16, written by Peter Selinger 2001-2019</metadata>

 <g>
  <title>background</title>
  <rect fill="none" id="canvas_background" height="402" width="582" y="-1" x="-1"/>
 </g>
 <g>
  <title>Layer 1</title>
  <g id="svg_1" fill="#000000" transform="translate(0,472) scale(0.10000000149011612,-0.10000000149011612) ">
   <path fill="#ff3737" id="svg_2" d="m525,4680c-253,-133 -433,-349 -495,-594c-23,-89 -26,-151 -9,-140c7,4 10,1 7,-7c-3,-8 -11,-13 -17,-12c-7,2 -11,-13 -11,-38c0,-29 43,-156 140,-414c76,-205 142,-384 145,-397c5,-18 -36,-137 -139,-414l-146,-389l0,-1101l0,-1101l23,-34l23,-34l2323,0l2324,0l21,28l21,28l3,1105l2,1105l-94,252c-156,418 -196,526 -196,540c0,6 66,187 146,401l146,389l-7,81c-14,163 -68,312 -159,440c-87,120 -253,258 -390,322l-51,24l-1767,0l-1767,0l-76,-40zm3593,-266c81,-52 154,-117 200,-177c44,-57 98,-157 108,-199l6,-28l-769,0l-769,0l-17,54c-34,108 -122,213 -232,277c-88,51 -245,89 -245,59c0,-5 -11,-10 -25,-10c-14,0 -25,5 -25,10c0,29 -151,-4 -243,-53c-116,-61 -221,-186 -249,-294l-10,-43l-769,0c-645,0 -769,2 -769,14c0,24 41,109 86,176c54,82 108,135 204,199l75,51l1693,0l1693,0l57,-36zm-1610,-311c25,-15 56,-43 70,-61l25,-33l-220,3c-122,2 -225,6 -229,11c-10,10 33,54 82,83c83,49 191,47 272,-3zm1887,-375c4,-3 -37,-124 -91,-267l-97,-261l-484,0l-483,0l-41,29c-96,70 -248,87 -364,40l-60,-24l-60,24c-39,16 -84,25 -127,26l-66,3l-66,69c-83,89 -156,124 -266,131c-129,7 -228,-34 -319,-133c-28,-31 -51,-60 -51,-63c0,-4 -33,-7 -73,-8c-79,-1 -165,-27 -229,-69l-38,-25l-473,0l-474,0l-83,223c-46,122 -91,243 -101,270l-19,47l2029,-2c1116,-2 2032,-6 2036,-10zm-2150,-523c47,-27 66,-52 84,-107c7,-21 26,-49 44,-64c29,-24 35,-26 101,-19c133,12 137,11 201,-28c80,-49 120,-49 197,-1c77,47 114,52 173,24c49,-24 85,-69 105,-133c8,-24 23,-45 42,-57c32,-19 45,-19 219,-4c102,9 161,-11 233,-77c63,-58 92,-112 108,-200c14,-83 30,-113 68,-129c23,-9 28,-15 18,-21c-14,-9 -3058,-13 -3058,-4c0,18 34,66 64,93c42,37 94,49 146,33c98,-29 174,1 199,78c18,58 79,118 128,127c21,4 63,2 94,-5c109,-22 179,29 179,131c0,64 30,121 82,155c43,29 70,32 180,18c86,-11 114,4 149,79c26,59 62,101 104,124c34,19 95,14 140,-13zm-1127,-284c-1,-5 -29,-36 -60,-70c-53,-57 -60,-61 -101,-61c-120,0 -241,-48 -320,-127c-55,-55 -112,-164 -122,-235l-7,-48l-89,0l-88,0l19,53c27,76 155,416 173,460l16,37l291,0c162,0 290,-4 288,-9zm3188,-264l102,-272l-72,-3c-65,-3 -72,-1 -86,20c-31,49 -138,151 -191,185c-48,29 -58,40 -64,71c-9,52 -70,173 -111,220c-19,22 -34,43 -34,46c0,3 80,6 178,6l177,0l101,-273zm-2506,-532c0,-8 7,-15 15,-15c13,0 15,-31 15,-223c0,-246 7,-294 62,-406c59,-121 195,-230 333,-266c75,-19 201,-19 284,0c169,40 312,172 373,345c21,60 23,85 26,323l3,257l780,0l779,0l0,-697l0,-698l-74,-22c-84,-26 -204,-101 -261,-164c-61,-68 -115,-159 -138,-236l-22,-73l-1605,0l-1605,0l-23,74c-24,76 -89,186 -145,244c-55,57 -169,127 -250,153l-77,24l0,698l0,697l765,0c673,0 765,-2 765,-15zm840,-212c0,-218 -1,-230 -24,-278c-29,-64 -78,-112 -141,-141c-41,-19 -63,-22 -125,-19c-67,4 -80,8 -129,42c-43,29 -63,52 -88,101l-33,64l0,182c0,101 3,204 6,230l7,46l263,0l264,0l0,-227zm-2296,-1497c49,-35 126,-128 126,-152c0,-11 -21,-14 -100,-14l-100,0l0,93c0,123 2,125 74,73zm4120,12c3,-13 6,-58 6,-101l0,-79l-94,4c-52,1 -97,6 -101,10c-16,16 77,126 145,172c32,21 36,20 44,-6z"/>
   <path fill="#ff3737" id="svg_3" d="m2247,1973c-4,-3 -7,-70 -7,-147c0,-155 5,-173 60,-201c33,-17 97,-20 134,-5c14,5 35,24 46,42c22,36 28,84 9,72c-8,-5 -10,29 -8,120l4,126l-116,0c-64,0 -119,-3 -122,-7z"/>
  </g>
 </g>
</svg>