<svg width="64" height="64" viewBox="0 0 64 64" fill="none" xmlns="http://www.w3.org/2000/svg">
<circle cx="32" cy="32" r="32" fill="#FF3737"/>
<path d="M43.8524 38.7522H22.1476C21.105 38.7522 20.26 37.9072 20.26 36.8646C20.26 36.8646 20.2756 33.5938 20.2678 32.8606C20.26 31.9584 21.7576 30.9236 22.5792 29.7198C23.9442 27.7204 24.9972 26.3762 25.5692 25.396C26.6092 23.615 26.8172 23.615 27.4464 23.615H38.4314C39.474 23.615 39.5026 23.9218 40.4412 25.4194C40.9326 26.202 42.0428 27.6892 43.2804 29.5664C44.1904 30.947 45.74 32 45.74 32.9048C45.74 33.5626 45.74 36.862 45.74 36.862C45.74 37.9072 44.895 38.7522 43.8524 38.7522ZM26.8666 37.4314C26.8666 37.4314 29.4068 37.8838 32.8622 37.8838C36.3176 37.8838 39.1334 37.4314 39.1334 37.4314C39.1334 37.4314 39.6066 37.3976 39.6066 36.3628C39.6066 35.8896 39.1334 35.9208 39.1334 35.9208C39.1334 35.9208 35.7716 36.3732 33 36.3732C30.2284 36.3732 26.8666 35.9208 26.8666 35.9208C26.8666 35.9208 26.461 35.887 26.4454 36.2796C26.4038 37.4314 26.8666 37.4314 26.8666 37.4314ZM22.2074 32.7774C22.2074 33.5574 23.2006 34.3218 24.5214 34.5974C25.9722 34.899 27.6804 34.9198 27.6804 34.1398C27.6804 33.3598 25.915 32.598 24.4642 32.2678C23.2474 31.9948 22.2074 32 22.2074 32.7774ZM40.6336 34.5896C42.0844 34.262 43.4312 33.6172 43.4312 32.8372C43.4312 32.0572 42.139 31.961 40.6882 32.2626C39.37 32.5356 38.083 33.5262 38.083 34.3062C38.0856 35.0862 39.4194 34.8652 40.6336 34.5896ZM39.3752 25.3362C38.9618 24.668 38.707 24.5172 38.1844 24.5172H27.5686C27.046 24.5172 26.8926 24.7044 26.4194 25.461C25.8864 26.3112 25.0466 27.8478 25.0466 27.8478H41.0054C41.0054 27.8478 39.7392 25.9238 39.3752 25.3362ZM24.979 38.9706C24.979 39.7532 24.3446 40.385 23.5646 40.385C22.782 40.385 22.1502 39.7506 22.1502 38.9706V38.7912H24.9816V38.9706H24.979ZM43.8524 38.9706C43.8524 39.7532 43.218 40.385 42.438 40.385C41.658 40.385 41.0236 39.7506 41.0236 38.9706V38.7912H43.855V38.9706H43.8524Z" fill="#8D1B1B"/>
<path d="M24.8411 28.347C24.8411 28.685 24.6201 28.9606 24.3471 28.9606H22.7429C22.4699 28.9606 22.0461 28.685 22.0461 28.347V28.0922C22.0461 27.7542 22.4699 27.4786 22.7429 27.4786H24.3471C24.6201 27.4786 24.8411 27.7542 24.8411 28.0922V28.347Z" fill="#8D1B1B"/>
<path d="M43.9669 28.0896C43.9669 27.7516 41.6659 27.476 41.6659 27.476C41.3929 27.476 41.1719 27.7516 41.1719 28.0896V28.3444C41.1719 28.6824 41.3929 28.958 41.6659 28.958H43.4729C43.7459 28.958 43.9669 28.6824 43.9669 28.3444V28.0896Z" fill="#8D1B1B"/>
<path d="M24.6385 28.347C24.6385 28.685 24.4175 28.9606 24.1445 28.9606H22.5403C22.2673 28.9606 21.8435 28.685 21.8435 28.347V28.0922C21.8435 27.7542 22.2673 27.4786 22.5403 27.4786H24.1445C24.4175 27.4786 24.6385 27.7542 24.6385 28.0922V28.347Z" fill="#8D1B1B"/>
<path d="M41.6632 28.958C41.3902 28.958 41.1692 28.6824 41.1692 28.3444V28.0896C41.1692 27.7516 41.3902 27.476 41.6632 27.476H43.4702C43.7432 27.476 43.9642 27.7516 43.9642 28.0896" fill="#8D1B1B"/>
</svg>
