<svg width="140" height="144" viewBox="0 0 140 144" fill="none" xmlns="http://www.w3.org/2000/svg">
<rect width="140" height="140" rx="10" fill="#FFFA9D"/>
<g clip-path="url(#clip0)">
<path d="M83.2656 85.6118L101.723 78.7957L104.971 87.5906L86.5134 94.4067L83.2656 85.6118Z" fill="#2F4859"/>
<path d="M104.761 73.9647C104.761 73.9647 107.04 73.3866 107.352 74.369C108.505 78.094 108.97 81.998 108.723 85.8896L105.856 86.9482L104.761 73.9647Z" fill="#3A556A"/>
<path d="M93.5865 84.8625C89.7545 86.2776 87.7951 90.5312 89.2102 94.3633C90.6254 98.1954 94.8789 100.155 98.711 98.7395C102.543 97.3245 104.502 93.0709 103.087 89.2388C103.086 89.2363 103.085 89.2337 103.084 89.2313C101.671 85.4035 97.4217 83.4462 93.5939 84.8598C93.5915 84.8607 93.589 84.8616 93.5865 84.8625Z" fill="#3A556A"/>
<path d="M94.628 87.6831C92.3529 88.5186 91.1858 91.04 92.0214 93.3153C92.8569 95.5904 95.3783 96.7575 97.6536 95.9219C99.9287 95.0864 101.096 92.565 100.26 90.2897C100.258 90.2847 100.257 90.2797 100.255 90.2748C99.4167 88.0055 96.8974 86.8451 94.628 87.6831Z" fill="#EBF0F3"/>
<path d="M95.64 90.4228C94.863 90.7097 94.4656 91.5725 94.7525 92.3495C95.0395 93.1265 95.9023 93.5239 96.6793 93.237C97.4563 92.9501 97.8537 92.0872 97.5668 91.3102C97.2797 90.533 96.4173 90.1357 95.64 90.4228Z" fill="#3A556A"/>
<path d="M107.608 86.2336L105.321 87.6399C104.837 87.9344 104.212 87.8492 103.825 87.4352L100.946 84.2456C100 83.2151 98.5237 82.8618 97.2142 83.3527L90.3804 85.8763C88.9716 86.3896 88.061 87.7601 88.1334 89.2579L88.4643 95.1746C88.5331 96.6974 87.5911 98.0842 86.1498 98.5811L61.5239 107.097C60.0373 107.61 58.392 107.047 57.5319 105.73L56.6274 104.363C55.7505 103.028 54.0686 102.475 52.5707 103.028L45.9988 105.455C44.8869 105.86 44.0611 106.807 43.8122 107.964L43.2885 110.692C43.0583 111.862 42.2347 112.827 41.1158 113.238L35.8761 115.173C35.8761 115.173 34.8811 112.478 33.1286 106.074C31.3762 99.67 40.0077 95.2664 40.0077 95.2664L39.9552 95.1242C39.9303 95.0568 39.8944 94.9596 39.9053 94.8278L39.8583 94.7006C39.7429 93.5354 39.7476 90.6927 41.7644 86.5033C44.4483 80.9192 61.8811 74.1838 67.0695 73.3311C68.1566 73.1913 69.2609 73.2948 70.3029 73.634C71.3889 74.8071 72.5791 75.8793 73.8589 76.8372C75.4879 77.8857 77.6085 78.1232 78.4519 78.8411C78.7271 79.0796 79.2541 79.2168 79.3945 79.3436C79.5409 79.4806 79.7505 79.527 79.9412 79.4651C88.0107 76.9204 96.2877 75.0878 104.677 73.988C108.481 76.5724 107.608 86.2336 107.608 86.2336Z" fill="#FCD462"/>
<path d="M35.229 113.097L34.8198 111.828C34.3707 111.988 34.1 112.446 34.1754 112.917L34.8415 114.72C35.0191 115.214 35.563 115.47 36.0564 115.292L36.0638 115.29L38.6087 114.35L37.8072 112.179C36.9747 112.557 36.1123 112.864 35.229 113.097Z" fill="#3A556A"/>
<path d="M105.29 85.8987L107.918 84.9286C108.376 84.7591 108.886 84.9936 109.055 85.4526L109.263 86.0139C109.432 86.4727 109.197 86.9821 108.738 87.1516L106.111 88.1218C105.652 88.2912 105.143 88.0567 104.974 87.5978L104.766 87.0364C104.597 86.5774 104.832 86.0682 105.29 85.8987Z" fill="#3A556A"/>
<path d="M77.3283 80.8893L68.9303 75.3998C68.0884 74.849 67.0424 74.71 66.0856 75.0213L56.8869 78.0271C49.3518 80.9542 46.2451 84.0578 44.9663 86.1461C43.5604 88.4429 43.9617 90.0129 43.9792 90.083L47.8018 100.435C48.1926 101.48 49.3553 102.013 50.4023 101.626L54.3992 100.15C55.9043 99.5984 57.5934 100.06 58.6089 101.3L60.9916 104.205L81.5224 96.6237C82.4977 96.2589 82.9945 95.1741 82.6338 94.1973L78.0621 81.8174C77.9238 81.4372 77.6662 81.1116 77.3283 80.8893ZM58.7824 101.194C57.7066 99.8905 55.9262 99.4064 54.3384 99.9855L50.3415 101.461C49.4031 101.808 48.3616 101.329 48.0149 100.39C48.0112 100.38 48.0074 100.37 48.0038 100.36L44.1867 90.0232C44.1535 89.9334 43.8269 88.404 45.1694 86.2582C46.5119 84.1124 49.4897 81.167 56.8726 78.2876L66.7896 101.894L61.0786 104.003L58.7824 101.194ZM82.4504 94.2991C82.771 95.1673 82.3272 96.1307 81.4591 96.4513L66.9684 101.803L57.0666 78.1902L66.1756 75.2175C67.072 74.9104 68.0604 75.0353 68.8523 75.5559L77.178 81.0806C77.4807 81.2754 77.712 81.5628 77.8378 81.9001L82.4504 94.2991Z" fill="#F7BE56"/>
<path d="M59.2691 80.2176L61.3212 85.3372C61.5003 85.7488 61.9699 85.9491 62.391 85.7928L72.8698 81.9231C73.3065 81.7572 73.5258 81.2688 73.3598 80.8321C73.3047 80.6869 73.2107 80.5598 73.088 80.4645L67.9805 76.5839C67.7536 76.4115 67.4549 76.365 67.1864 76.4602L59.7583 79.1013C59.3359 79.2266 59.095 79.6708 59.2203 80.0931C59.2332 80.1359 59.2493 80.1775 59.2691 80.2176Z" fill="#3A556A"/>
<path d="M57.992 86.5485L55.8155 81.4834C55.6628 81.0701 55.204 80.8587 54.7905 81.0113C52.4952 81.7059 45.5117 84.3528 45.83 90.6738C45.8442 90.91 45.9533 91.1304 46.1324 91.2851L46.6096 91.6789C46.8544 91.9001 47.2099 91.9479 47.5046 91.799L57.573 87.647C57.986 87.4542 58.1716 86.9681 57.992 86.5485Z" fill="#3A556A"/>
<path d="M79.4763 79.3134C77.3827 77.7901 72.5971 74.5049 70.3848 73.6037C70.2951 73.6369 69.1349 74.0653 69.7109 74.6351C70.1754 75.11 73.2641 76.725 75.2417 78.0957C76.4864 78.9444 77.9706 79.371 79.4763 79.3134Z" fill="#3A556A"/>
<path d="M48.2354 101.609C44.4034 103.024 42.444 107.278 43.8592 111.11C45.2743 114.942 49.5278 116.901 53.3599 115.486C57.1921 114.071 59.1513 109.817 57.7362 105.985C57.7353 105.983 57.7343 105.98 57.7334 105.978C56.3199 102.15 52.0707 100.193 48.2428 101.606C48.2404 101.607 48.238 101.608 48.2354 101.609Z" fill="#3A556A"/>
<path d="M49.2778 104.43C47.0042 105.27 45.8418 107.794 46.6814 110.067C47.5209 112.341 50.0448 113.503 52.3182 112.664C54.5917 111.824 55.7542 109.3 54.9147 107.027C54.9138 107.024 54.9128 107.022 54.9119 107.019C54.0739 104.75 51.5547 103.59 49.2853 104.428C49.2828 104.429 49.2804 104.43 49.2778 104.43Z" fill="#EBF0F3"/>
<path d="M50.289 107.17C49.512 107.457 49.1145 108.32 49.4015 109.097C49.6884 109.874 50.5512 110.271 51.3282 109.985C52.1052 109.698 52.5026 108.835 52.2157 108.058C51.9287 107.281 51.0662 106.883 50.289 107.17Z" fill="#3A556A"/>
</g>
<defs>
<clipPath id="clip0">
<rect width="82" height="82" fill="white" transform="translate(17 66.4062) rotate(-20.2684)"/>
</clipPath>
</defs>
</svg>
