<svg width="140" height="140" viewBox="0 0 140 140" fill="none" xmlns="http://www.w3.org/2000/svg">
<rect width="140" height="140" rx="10" fill="#C2D3FF"/>
<g clip-path="url(#clip0)">
<path d="M112.142 86.3C112.136 86.3233 112.127 86.3473 112.116 86.3694C112.079 86.4461 112.022 86.5141 111.947 86.5644L111.31 86.9989L63.7839 119.329L63.3805 119.604C63.217 119.715 62.9929 119.659 62.9023 119.484L62.8736 119.429L62.7382 119.171L62.7367 119.171L35.6939 67.5149L35.2096 66.591L35.2085 66.5891C35.168 66.5089 35.1489 66.4227 35.153 66.3374C35.1544 66.3128 35.1562 66.2868 35.1627 66.2619L36.3528 66.2714L76.1772 66.5753L111.247 85.8097L112.142 86.3Z" fill="#90D8F9"/>
<path d="M112.143 86.2999C112.136 86.3232 112.127 86.3472 112.116 86.3693L111.28 86.4269L91.2009 87.8241L52.6552 77.7904L36.0179 66.9023L35.1531 66.3372C35.1545 66.3127 35.1563 66.2867 35.1628 66.2617C35.1809 66.1669 35.2289 66.0782 35.3004 66.0072C35.3008 66.0057 35.3031 66.003 35.3051 66.0019L35.6435 65.6769L45.5837 56.1166L107.988 72.3607L111.974 85.4514L112.143 86.0098C112.173 86.1071 112.171 86.2079 112.143 86.2999Z" fill="#B1E4F9"/>
<path d="M59.1472 67.9589L90.3262 76.0749L91.2015 87.8231L52.6549 77.7893L59.1472 67.9589Z" fill="#E4F6FF"/>
<path d="M91.2006 87.8242L63.5329 119.291L63.2062 119.661C63.1427 119.663 63.0791 119.646 63.0245 119.614L62.9218 119.199L52.6548 77.7905L91.2006 87.8242Z" fill="#B1E4F9"/>
<path d="M94.2657 60.4762L63.313 52.419C63.2386 52.3997 63.1607 52.3978 63.0855 52.4137L45.5838 56.1167L59.1468 67.9599L90.3257 76.076L107.942 72.3488L94.4668 60.5824C94.409 60.5319 94.34 60.4955 94.2657 60.4762Z" fill="#90D8F9"/>
<path d="M94.2661 60.4763L85.8091 58.2749L92.4147 64.0429C95.2793 66.5443 94.0562 71.2428 90.3356 72.03L81.756 73.8453L90.3262 76.0761L107.942 72.349L94.4673 60.5826C94.4094 60.5321 94.3403 60.4956 94.2661 60.4763Z" fill="#75CEF9"/>
<path d="M110.509 61.1201C109.866 60.9526 109.48 60.2952 109.647 59.6515L109.963 58.4377C110.131 57.7942 110.788 57.4082 111.432 57.5758C112.075 57.7433 112.461 58.4007 112.294 59.0443L111.978 60.2582C111.81 60.9018 111.153 61.2876 110.509 61.1201Z" fill="#E4F6FF"/>
<path d="M108.855 67.4757C108.211 67.3082 107.825 66.6508 107.993 66.0071L108.309 64.7932C108.476 64.1497 109.134 63.7637 109.778 63.9312C110.421 64.0988 110.807 64.7561 110.639 65.3998L110.323 66.6138C110.156 67.2574 109.498 67.6432 108.855 67.4757Z" fill="#E4F6FF"/>
<path d="M113.625 64.6763L112.411 64.3604C111.768 64.1929 111.382 63.5355 111.549 62.8918C111.717 62.2481 112.374 61.8623 113.018 62.0299L114.232 62.3458C114.875 62.5134 115.261 63.1707 115.094 63.8144C114.926 64.4581 114.268 64.8438 113.625 64.6763Z" fill="#E4F6FF"/>
<path d="M107.269 63.0211L106.055 62.7051C105.412 62.5376 105.026 61.8802 105.193 61.2365C105.361 60.5929 106.018 60.2071 106.662 60.3746L107.876 60.6906C108.519 60.8581 108.905 61.5155 108.738 62.1592C108.57 62.8028 107.913 63.1886 107.269 63.0211Z" fill="#E4F6FF"/>
<path d="M46.6704 46.5859C46.0269 46.4184 45.6409 45.761 45.8085 45.1173L46.1244 43.9035C46.2919 43.26 46.9495 42.8741 47.593 43.0416C48.2365 43.2091 48.6225 43.8665 48.4549 44.5102L48.1389 45.724C47.9713 46.3675 47.3139 46.7534 46.6704 46.5859Z" fill="#E4F6FF"/>
<path d="M45.016 52.9415C44.3725 52.774 43.9866 52.1166 44.1541 51.473L44.4701 50.259C44.6376 49.6155 45.2952 49.2296 45.9387 49.3971C46.5822 49.5646 46.9682 50.222 46.8006 50.8656L46.4846 52.0796C46.3169 52.7232 45.6596 53.109 45.016 52.9415Z" fill="#E4F6FF"/>
<path d="M49.7857 50.1422L48.5718 49.8262C47.9283 49.6587 47.5423 49.0013 47.7099 48.3576C47.8774 47.7141 48.5349 47.3282 49.1784 47.4957L50.3924 47.8117C51.0359 47.9792 51.4219 48.6366 51.2543 49.2803C51.0866 49.9239 50.4293 50.3097 49.7857 50.1422Z" fill="#E4F6FF"/>
<path d="M43.4296 48.4878L42.2158 48.1719C41.5723 48.0044 41.1864 47.347 41.3539 46.7033C41.5214 46.0598 42.179 45.6739 42.8225 45.8414L44.0363 46.1574C44.6798 46.3249 45.0658 46.9823 44.8982 47.6259C44.7305 48.2696 44.0732 48.6554 43.4296 48.4878Z" fill="#E4F6FF"/>
<path d="M38.0981 100.4C37.4546 100.232 37.0686 99.5751 37.2362 98.9314L37.5522 97.7175C37.7197 97.074 38.3772 96.6881 39.0207 96.8556C39.6642 97.0231 40.0502 97.6805 39.8826 98.3241L39.5666 99.5381C39.399 100.182 38.7416 100.568 38.0981 100.4Z" fill="#E4F6FF"/>
<path d="M36.4438 106.755C35.8003 106.588 35.4143 105.93 35.5819 105.287L35.8979 104.073C36.0654 103.429 36.7229 103.044 37.3664 103.211C38.0099 103.379 38.3959 104.036 38.2283 104.68L37.9124 105.893C37.7447 106.537 37.0873 106.923 36.4438 106.755Z" fill="#E4F6FF"/>
<path d="M41.2138 103.956L40 103.64C39.3565 103.473 38.9705 102.815 39.1381 102.172C39.3056 101.528 39.9631 101.142 40.6067 101.31L41.8205 101.626C42.464 101.793 42.8499 102.451 42.6824 103.094C42.5148 103.738 41.8573 104.124 41.2138 103.956Z" fill="#E4F6FF"/>
<path d="M34.858 102.301L33.6441 101.985C33.0005 101.817 32.6146 101.16 32.7821 100.516C32.9497 99.8727 33.6072 99.4869 34.2507 99.6544L35.4647 99.9704C36.1082 100.138 36.4941 100.795 36.3266 101.439C36.159 102.083 35.5015 102.468 34.858 102.301Z" fill="#E4F6FF"/>
<path d="M94.8769 105.648C94.2334 105.481 93.8475 104.823 94.015 104.18L94.331 102.966C94.4985 102.323 95.1559 101.937 95.7995 102.104C96.443 102.272 96.829 102.929 96.6614 103.573L96.3455 104.786C96.1779 105.43 95.5206 105.816 94.8769 105.648Z" fill="#E4F6FF"/>
<path d="M93.2226 112.004C92.5791 111.836 92.1931 111.179 92.3607 110.535L92.6767 109.321C92.8442 108.677 93.5016 108.292 94.1452 108.459C94.7888 108.627 95.1747 109.284 95.0072 109.928L94.6912 111.142C94.5236 111.785 93.8663 112.171 93.2226 112.004Z" fill="#E4F6FF"/>
<path d="M97.9928 109.204L96.7788 108.888C96.1353 108.721 95.7493 108.063 95.9169 107.42C96.0844 106.776 96.7418 106.39 97.3855 106.558L98.5994 106.874C99.2429 107.041 99.6289 107.699 99.4613 108.342C99.2936 108.986 98.6363 109.372 97.9928 109.204Z" fill="#E4F6FF"/>
<path d="M91.6367 107.549L90.4229 107.233C89.7794 107.066 89.3934 106.409 89.5609 105.765C89.7284 105.121 90.3858 104.735 91.0295 104.903L92.2433 105.219C92.8868 105.386 93.2728 106.044 93.1052 106.687C92.9377 107.331 92.2802 107.717 91.6367 107.549Z" fill="#E4F6FF"/>
</g>
<defs>
<clipPath id="clip0">
<rect width="79.5467" height="79.5467" fill="white" transform="translate(43.0386 36) rotate(14.5906)"/>
</clipPath>
</defs>
</svg>
