<svg width="64" height="64" viewBox="0 0 64 64" fill="none" xmlns="http://www.w3.org/2000/svg">
<circle cx="32" cy="32" r="32" fill="#BC56EC"/>
<path d="M31.1103 19.3284C30.6083 19.3929 29.8626 19.6017 29.3707 19.8104C27.5663 20.591 26.0403 22.4648 25.727 24.2941C25.6675 24.6521 25.6626 24.6521 25.4338 24.7663C25.1007 24.9402 24.9317 25.0993 24.7676 25.3976C24.6483 25.6162 24.6184 25.7356 24.6036 26.0936C24.5836 26.4763 24.5937 26.5509 24.713 26.8143C24.7877 26.9734 24.9021 27.1622 24.9715 27.2319L25.0958 27.3611L24.9915 27.5301C24.7679 27.9029 24.6335 28.4546 24.6088 29.1455C24.5641 30.1894 24.7978 31.0294 25.27 31.5512C25.4587 31.76 25.8713 31.9987 26.0505 31.9987C26.0952 31.9987 26.135 32.0385 26.135 32.0832C26.135 32.2473 26.6321 33.4105 26.9103 33.8975C27.8697 35.5924 29.2316 36.7356 30.7874 37.1433C31.543 37.3422 32.4576 37.3422 33.2132 37.1433C35.107 36.6462 36.7125 35.0555 37.6173 32.7839C37.7512 32.4363 37.8656 32.118 37.8656 32.0733C37.8656 32.0335 37.9054 31.9987 37.9551 31.9987C38.129 31.9987 38.5416 31.76 38.7307 31.5512C39.2028 31.0294 39.4366 30.1894 39.3918 29.1455C39.3669 28.4546 39.2327 27.9027 39.0091 27.5301L38.9049 27.3611L39.0242 27.2319C39.3027 26.9386 39.382 26.695 39.382 26.1581C39.382 25.7007 39.3721 25.6412 39.2327 25.3976C39.0687 25.0944 38.8997 24.9353 38.5617 24.7663C38.3381 24.6519 38.323 24.6371 38.2933 24.3934C38.2736 24.2494 38.2039 23.9509 38.1293 23.7323C37.4881 21.6744 35.7732 20.034 33.7153 19.4971C32.8848 19.2837 31.9356 19.2192 31.1103 19.3284ZM32.2236 23.5783C32.3778 23.648 32.5468 23.8966 32.5468 24.0456C32.5468 24.0804 32.512 24.1797 32.4673 24.2692C32.3529 24.5177 32.1441 24.5923 31.5825 24.5923C30.7424 24.5923 29.8278 24.7117 27.9937 25.0497C27.6308 25.1194 27.442 25.0596 27.3128 24.8458C27.1885 24.6321 27.2033 24.4184 27.3674 24.2395C27.4768 24.1202 27.5811 24.0705 27.9191 23.991C28.5504 23.8417 29.7186 23.6628 30.4143 23.5984C31.7216 23.4889 32.025 23.484 32.2236 23.5783ZM33.6404 26.7847C34.7488 26.904 35.8972 27.1424 36.8961 27.4607C37.6816 27.7142 37.6964 27.724 37.7661 28.0373C37.8108 28.2609 37.8058 28.3454 37.7362 28.5493C37.4179 29.5037 36.5433 30.3586 35.5142 30.7114C34.689 30.9948 33.5408 31.0146 33.2623 30.7512C33.1979 30.6917 33.1134 30.5276 33.0736 30.3883C33.0289 30.2442 32.9394 30.0752 32.8697 30.0105C32.7405 29.8911 32.7106 29.8862 32.0247 29.8862C31.1748 29.8862 31.0854 29.926 30.9411 30.3633C30.8119 30.7411 30.6925 30.8453 30.3098 30.9101C29.763 30.9995 28.7839 30.8604 28.2022 30.6069C27.3372 30.239 26.5421 29.394 26.2637 28.549C26.194 28.3452 26.1891 28.2607 26.2338 28.0371C26.2983 27.729 26.3183 27.7139 27.0291 27.4854C28.2719 27.0777 29.7084 26.8143 31.2544 26.7098C31.667 26.6801 33.1035 26.7249 33.6404 26.7847Z" fill="#5E2A76"/>
<path d="M29.0376 27.8632C28.7641 28.0818 28.7443 28.405 28.988 28.6486L29.157 28.8176H29.833C30.6135 28.8176 30.7724 28.768 30.8868 28.4846C30.9811 28.2709 30.9117 28.0223 30.7227 27.8731C30.6083 27.7836 30.5238 27.7737 29.8678 27.7737C29.2563 27.7737 29.1271 27.7886 29.0376 27.8632Z" fill="#5E2A76"/>
<path d="M33.2527 27.898C33.0636 28.0571 33.014 28.256 33.1136 28.4846C33.228 28.768 33.3819 28.8176 34.1674 28.8176H34.8434L35.0124 28.6486C35.2014 28.4596 35.231 28.2659 35.1117 28.0272C34.9973 27.8135 34.8434 27.7737 34.0878 27.7737C33.4217 27.7737 33.3918 27.7787 33.2527 27.898Z" fill="#5E2A76"/>
<path d="M25.1155 36.4775C24.2655 36.7757 23.3906 37.1088 23.167 37.213C22.4762 37.5461 21.9242 37.9436 21.313 38.5601C20.4976 39.3705 19.9906 40.1807 19.6526 41.1946C19.3793 42.0248 19.3195 42.3727 19.2896 43.4166L19.26 44.3711L19.4389 44.5499L19.6128 44.7239H32H44.3872L44.5611 44.5499L44.74 44.3711L44.7101 43.4166C44.6852 42.6462 44.6604 42.3628 44.5609 41.9403C44.2278 40.5486 43.6662 39.5296 42.667 38.5354C42.0607 37.9288 41.489 37.5263 40.7781 37.1933C40.2264 36.9348 37.3383 35.9258 37.1545 35.9258C37.0552 35.9258 36.901 36.0352 36.5581 36.3581C35.4944 37.3573 34.5847 37.8791 33.3619 38.1924C32.8848 38.3167 32.7257 38.3315 32.0497 38.3365C30.9462 38.3365 30.2949 38.1872 29.2908 37.6904C28.6595 37.3773 28.0878 36.9697 27.4417 36.3581C27.0491 35.9902 26.9545 35.9258 26.8203 35.9307C26.7311 35.9356 25.9654 36.1793 25.1155 36.4775Z" fill="#5E2A76"/>
</svg>
