<svg width="64" height="64" viewBox="0 0 64 64" fill="none" xmlns="http://www.w3.org/2000/svg">
<circle cx="32" cy="32" r="32" fill="#F0598F"/>
<path d="M19.9089 24.2882C19.6796 24.3579 19.3658 24.6868 19.3011 24.926C19.2662 25.0604 19.2561 27.2779 19.2613 32.1165L19.2761 39.1079L19.3957 39.2972C19.4604 39.402 19.605 39.5463 19.7147 39.6212C19.8842 39.7358 19.9739 39.7559 20.248 39.7559C20.522 39.7559 20.6117 39.7358 20.7812 39.6212C20.8907 39.5463 21.0353 39.402 21.1003 39.2972C21.2199 39.1079 21.2199 39.0978 21.2347 37.4484L21.2495 35.794H32.008H42.7666L42.7817 37.4533L42.7965 39.1176L42.9309 39.317C43.1353 39.6259 43.3794 39.7556 43.7681 39.7556C44.1568 39.7556 44.4009 39.6261 44.6053 39.317L44.7397 39.1126V35.9136C44.7397 32.7593 44.7397 32.7093 44.6352 32.5749C44.5803 32.5 44.4706 32.3906 44.396 32.3357L44.2616 32.2312L32.7555 32.2161L21.2495 32.2062L21.2347 28.5535L21.2199 24.906L21.1003 24.7167C20.8657 24.3379 20.3476 24.1535 19.9089 24.2882Z" fill="#712943"/>
<path d="M23.0981 29.072C22.8638 29.1417 22.5549 29.4706 22.485 29.7249C22.3703 30.1684 22.5448 30.6317 22.9236 30.866L23.1129 30.9856H25.43H27.7471L27.9364 30.866C28.0409 30.8013 28.1855 30.6567 28.2604 30.547C28.375 30.3775 28.395 30.2878 28.395 30.0137C28.395 29.7397 28.375 29.65 28.2604 29.4805C28.1855 29.3707 28.0412 29.2264 27.9364 29.1614L27.7471 29.0418L25.5046 29.032C24.1745 29.0273 23.1979 29.0421 23.0981 29.072Z" fill="#712943"/>
</svg>
