<svg width="64" height="64" viewBox="0 0 64 64" fill="none" xmlns="http://www.w3.org/2000/svg">
<circle cx="32" cy="32" r="32" fill="#BCBCBC"/>
<path d="M29.8758 25.63C29.8758 27.9648 27.9648 29.8758 25.63 29.8758H23.5058C21.171 29.8758 19.26 27.9648 19.26 25.63V23.5058C19.26 21.171 21.171 19.26 23.5058 19.26H25.63C27.9648 19.26 29.8758 21.171 29.8758 23.5058V25.63Z" fill="#5C5C5C"/>
<path d="M44.7401 25.63C44.7401 27.9648 42.8291 29.8758 40.4943 29.8758H38.3701C36.0353 29.8758 34.1243 27.9648 34.1243 25.63V23.5058C34.1243 21.171 36.0353 19.26 38.3701 19.26H40.4943C42.8291 19.26 44.7401 21.171 44.7401 23.5058V25.63Z" fill="#5C5C5C"/>
<path d="M29.8758 40.4943C29.8758 42.8291 27.9648 44.7401 25.63 44.7401H23.5058C21.171 44.7401 19.26 42.8291 19.26 40.4943V38.3701C19.26 36.0353 21.171 34.1243 23.5058 34.1243H25.63C27.9648 34.1243 29.8758 36.0353 29.8758 38.3701V40.4943Z" fill="#5C5C5C"/>
<path d="M44.7401 40.4943C44.7401 42.8291 42.8291 44.7401 40.4943 44.7401H38.3701C36.0353 44.7401 34.1243 42.8291 34.1243 40.4943V38.3701C34.1243 36.0353 36.0353 34.1243 38.3701 34.1243H40.4943C42.8291 34.1243 44.7401 36.0353 44.7401 38.3701V40.4943Z" fill="#5C5C5C"/>
</svg>
