<svg width="64" height="64" viewBox="0 0 64 64" fill="none" xmlns="http://www.w3.org/2000/svg">
<circle cx="32" cy="32" r="32" fill="#FFD337"/>
<path d="M30.1853 19.345C29.7007 19.5642 29.4284 20.1219 29.0366 21.7617C28.8905 22.3792 28.8375 22.5121 28.7246 22.5386C28.6516 22.5519 28.2665 22.6117 27.8614 22.6715C25.4182 23.05 24.21 23.7603 24.502 24.6501C24.7144 25.2808 25.8696 25.8318 27.629 26.1305C28.014 26.1903 28.3328 26.2501 28.3393 26.2566C28.3526 26.2634 28.2265 26.4027 28.0671 26.5686C27.2902 27.3785 27.4231 28.7994 28.3325 29.4036C28.638 29.6028 28.6911 29.6691 28.7907 30.0144C28.857 30.2336 28.897 30.4195 28.8835 30.4327C28.8702 30.446 27.9805 30.5856 26.9184 30.7447C25.1722 30.9969 24.9863 31.037 25.0662 31.1298C25.4315 31.5611 27.8349 34.6018 27.8149 34.6151C27.8084 34.6216 27.5957 34.7412 27.3435 34.8805C25.2456 36.0357 23.6388 38.2267 23.2139 40.5106C23.1344 40.9687 22.8489 44.1025 22.8489 44.5936V44.7397L32.9936 44.7C38.5705 44.6799 43.1382 44.6534 43.145 44.6469C43.1848 44.6204 43.0254 41.3405 42.9591 40.8028C42.9193 40.4776 42.8262 39.9994 42.7532 39.7405C42.5938 39.1562 42.0759 38.0606 41.6976 37.5032C41.359 37.0053 40.4428 36.036 39.9582 35.6574C39.6064 35.392 38.5107 34.6881 38.3646 34.6348C38.3248 34.6216 38.9223 33.8114 39.7057 32.8356C40.4823 31.8596 41.1131 31.0497 41.0998 31.0364C41.0866 31.0232 40.2101 30.8903 39.1545 30.7442C38.0989 30.5981 37.2292 30.4652 37.2159 30.452C37.2027 30.4387 37.2492 30.246 37.3288 30.0271C37.4416 29.6818 37.5082 29.5955 37.7604 29.4361C38.3248 29.0776 38.6236 28.4336 38.5638 27.7165C38.5305 27.2319 38.3446 26.8468 37.9861 26.508L37.7206 26.2491L38.4309 26.1295C41.04 25.6914 42.2085 24.7418 41.3323 23.7658C40.9074 23.2944 39.6259 22.8563 37.9062 22.6039L37.1229 22.4843L37.0566 22.212C36.7378 20.977 36.3595 19.9415 36.1471 19.7025C35.9479 19.4833 35.5561 19.3175 35.2243 19.3175C35.0517 19.3175 34.5803 19.3838 34.1752 19.4568C33.3055 19.6227 32.5555 19.6029 31.5196 19.3905C30.7695 19.2322 30.464 19.2189 30.1853 19.345ZM36.7581 26.814C36.7914 27.02 36.8376 27.073 37.0303 27.1461C37.7474 27.405 37.641 28.6132 36.9042 28.6132C36.685 28.6132 36.652 28.6663 36.3663 29.5427C36.041 30.5385 35.3572 31.9262 34.9521 32.4308C34.3281 33.2009 33.8632 33.3803 32.6948 33.3073C32.2299 33.2808 32.0841 33.241 31.8251 33.0816C31.1213 32.65 30.3046 31.2824 29.7537 29.6093C29.5878 29.1179 29.4284 28.6931 29.3887 28.6665C29.3554 28.64 29.2493 28.6135 29.1562 28.6135C28.9105 28.6135 28.7114 28.4476 28.625 28.1754C28.5054 27.8301 28.5918 27.5114 28.8772 27.2259C29.0101 27.093 29.229 26.8541 29.3619 26.7015L29.5943 26.4092L31.1213 26.4888C32.582 26.5683 34.8325 26.5418 36.0608 26.429C36.6252 26.3759 36.6915 26.4157 36.7581 26.814ZM29.528 31.8133C29.8468 32.4441 30.2916 33.0813 30.7097 33.4997L31.1213 33.9113L30.9289 33.951C30.8226 33.9711 30.5969 33.9908 30.4375 33.9908C30.2716 33.9908 30.152 34.0173 30.1653 34.0439C30.1785 34.0771 30.5038 34.6413 30.8956 35.2921C31.5662 36.414 31.6325 36.5536 32.0708 37.8414L32.5289 39.2025L32.5755 40.8954C32.622 42.5885 32.622 42.5885 32.4959 42.4224C32.1241 41.951 29.7407 38.6778 29.7074 38.6048C29.6942 38.5517 29.9464 38.1201 30.2784 37.642L30.8826 36.7723L28.924 34.3091C27.8417 32.9555 26.9785 31.8333 26.9985 31.8133C27.045 31.7668 28.8442 31.4813 29.1362 31.4748C29.3354 31.4683 29.3686 31.5013 29.528 31.8133ZM37.9928 31.6342C38.6236 31.7273 39.148 31.8136 39.1613 31.8268C39.1745 31.8401 38.3048 32.9487 37.2227 34.2966C36.1471 35.6444 35.2774 36.7731 35.2906 36.8129C35.3039 36.8461 35.5761 37.2512 35.8949 37.7026C36.3265 38.3201 36.4593 38.5525 36.4128 38.6386C36.3863 38.6984 35.7623 39.6146 35.0319 40.6635L33.7041 42.5823L33.6643 41.6528C33.6378 41.1481 33.6178 40.3715 33.6113 39.9331L33.6048 39.1365L34.0497 37.8087L34.4878 36.4876L35.2779 35.2659C35.7095 34.5953 36.0613 34.0376 36.0613 34.0244C36.0613 34.0111 35.8223 33.9778 35.5366 33.9513L35.0122 33.9115L35.3972 33.5332C35.8023 33.1349 36.3202 32.3845 36.5857 31.8136C36.6785 31.6277 36.7716 31.4683 36.7981 31.4683C36.8244 31.4683 37.3621 31.5411 37.9928 31.6342ZM33.0731 34.3564C33.9628 34.3564 34.0689 34.3431 34.454 34.177L34.8723 34.0043L34.7595 34.177C34.6932 34.2766 34.3942 34.7282 34.0954 35.1795C33.6438 35.8568 33.5112 36.1155 33.3318 36.6868C33.2122 37.0651 33.0994 37.3773 33.0729 37.3773C33.0528 37.3773 32.9335 37.0786 32.8139 36.7068C32.6412 36.1691 32.4754 35.8503 31.984 35.0935C31.6455 34.5823 31.3532 34.1242 31.3267 34.0844C31.3002 34.0446 31.4661 34.0844 31.6985 34.184C32.0773 34.3429 32.1837 34.3564 33.0731 34.3564Z" fill="#725C11"/>
</svg>
