<svg width="64" height="64" viewBox="0 0 64 64" fill="none" xmlns="http://www.w3.org/2000/svg">
<circle cx="32" cy="32" r="32" fill="#FF6737"/>
<g clip-path="url(#clip0_2220_106)">
<path d="M39.2829 35.6207C38.7873 35.0027 38.0335 34.9324 37.4164 35.4268C36.6872 36.0108 35.6202 36.7613 34.7409 37.25C34.4526 36.2881 34.3278 35.0031 34.0955 33.9647L34.1152 28.0261C34.1152 28.0261 37.3391 27.6003 38.2695 27.4592C39.2608 27.3668 39.4126 26.4949 39.2015 25.8826C39.1504 25.7338 37.8552 22.026 37.6294 21.3095C37.4078 20.6065 36.8107 20.1889 36.0435 20.4045C35.3327 20.604 35.1188 21.2899 35.3355 21.9937C35.6378 22.9781 36.4426 25.3571 36.4426 25.3571L33.6182 25.7383L29.0517 24.7563C27.889 23.5221 27.1405 22.1459 26.869 20.155C26.7692 19.4241 26.3079 18.9125 25.4736 19.0123C24.7419 19.0998 24.3145 19.7849 24.4147 20.5153C24.8241 23.52 26.177 26.0618 28.2452 27.7521V33.631C26.8256 37.2607 26.8089 41.0064 28.9016 44.3314C29.1739 44.7633 29.6385 45 30.1134 45C30.3743 45 30.6377 44.9277 30.8745 44.78C31.5423 44.3584 31.7435 43.4762 31.3227 42.8071C30.1633 40.9659 29.6259 38.7313 30.2058 36.1307C30.299 35.7123 30.6777 35.4186 31.1063 35.4342H31.1076C31.5112 35.4485 31.8535 35.7323 31.9431 36.1258C32.1979 37.2386 32.3239 38.3228 32.5165 38.9996C32.894 40.323 34.2137 40.5574 35.0537 40.1157C36.7616 39.218 37.8282 38.5739 39.0588 37.6308C39.6866 37.1502 39.7766 36.2362 39.2829 35.6207Z" fill="#8E3418"/>
<path d="M31.7443 24.5939C32.9557 24.5939 33.9377 23.6119 33.9377 22.4006C33.9377 21.1893 32.9557 20.2073 31.7443 20.2073C30.533 20.2073 29.551 21.1893 29.551 22.4006C29.551 23.6119 30.533 24.5939 31.7443 24.5939Z" fill="#8E3418"/>
</g>
<defs>
<clipPath id="clip0_2220_106">
<rect width="26" height="26" fill="white" transform="translate(19 19)"/>
</clipPath>
</defs>
</svg>
