<svg width="56" height="56" viewBox="0 0 56 56" fill="none" xmlns="http://www.w3.org/2000/svg">
<path d="M54.9864 20.5184C54.9864 20.0648 54.9864 19.6112 54.5328 19.1576L44.5536 4.1888L44.1 3.7352C44.1 3.7352 44.1 3.7352 43.6464 3.7352H43.1928C43.1928 3.7352 43.1928 3.7352 42.7392 3.7352H12.8072C12.8072 3.7352 12.8072 3.7352 12.3536 3.7352H11.9C11.9 3.7352 11.9 3.7352 11.4464 3.7352L10.9928 4.1888L1.0136 19.1576C0.559998 19.6112 0.559998 20.0648 0.559998 20.5184C0.559998 20.972 0.559998 21.4256 1.0136 21.4256L25.9616 51.3576C25.9616 51.3576 25.9616 51.3576 26.4152 51.8112C26.4152 51.8112 26.4152 51.8112 26.8688 51.8112C27.3224 51.8112 27.776 52.2648 28.2296 52.2648C28.6832 52.2648 29.1368 52.2648 29.5904 51.8112C29.5904 51.8112 29.5904 51.8112 30.044 51.8112C30.044 51.8112 30.044 51.8112 30.4976 51.3576L55.44 21.4256C54.5328 21.4256 54.9864 20.972 54.9864 20.5184ZM11.9 10.5392L14.6216 18.2504H6.9104L11.9 10.5392ZM34.5744 22.7864L27.776 43.1928L20.972 22.7864H34.5744ZM21.8792 18.2504L27.776 9.632L33.6728 18.2504H21.8792ZM31.8528 7.364H39.564L36.8424 15.0752L31.8528 7.364ZM18.704 15.0752L15.9824 7.364H23.6936L18.704 15.0752ZM15.9824 22.7864L21.4256 39.5696L7.8176 22.7864H15.9824ZM39.564 22.7864H48.1824L34.1208 39.564L39.564 22.7864ZM40.9248 18.2504L43.6464 10.5392L48.636 18.2504H40.9248Z" fill="white"/>
</svg>
