<svg width="36" height="36" viewBox="0 0 36 36" fill="none" xmlns="http://www.w3.org/2000/svg">
<g clip-path="url(#clip0_879_10)">
<path d="M17.2019 22.5216C17.4301 22.7223 17.7151 22.8229 18.0003 22.8229C18.2855 22.8229 18.5706 22.7223 18.7987 22.5216C19.0878 22.2669 25.8764 16.216 25.8764 9.94058C25.8764 5.59608 22.3433 2.06152 18.0004 2.06152C13.6574 2.06152 10.1241 5.59608 10.1241 9.94058C10.1239 16.216 16.9128 22.2669 17.2019 22.5216ZM18.0003 7.88191C19.1278 7.88191 20.0421 8.80336 20.0421 9.94058C20.0421 11.0777 19.1278 11.9993 18.0003 11.9993C16.8724 11.9993 15.9582 11.0776 15.9582 9.94058C15.9582 8.80336 16.8724 7.88191 18.0003 7.88191Z" fill="white"/>
<path d="M33.1343 22.5182L32.2219 19.3209C32.0738 18.802 31.5997 18.4443 31.0603 18.4443H24.5489C24.3135 18.7943 24.0652 19.1456 23.8025 19.4988C21.9774 21.9509 20.122 23.6096 19.9163 23.7909C19.3866 24.2573 18.7062 24.5142 18.0002 24.5142C17.2946 24.5142 16.6142 24.2576 16.0838 23.7907C15.8784 23.6096 14.0227 21.9507 12.1977 19.4988C11.9351 19.1456 11.6867 18.7942 11.4513 18.4443H4.93977C4.40038 18.4443 3.92632 18.802 3.77819 19.3209L2.6908 23.1314L26.9974 27.5835L33.1343 22.5182Z" fill="white"/>
<path d="M35.9538 32.3997L33.6228 24.2305L22.0577 33.9394H34.7923C35.1713 33.9394 35.5283 33.7615 35.7565 33.459C35.9848 33.1563 36.0576 32.7641 35.9538 32.3997Z" fill="white"/>
<path d="M5.91437 25.4415L2.22466 24.7656L0.0464698 32.3995C-0.0574094 32.7638 0.0154394 33.1561 0.243804 33.4586C0.472047 33.7612 0.829018 33.939 1.20805 33.939H5.91437V25.4415Z" fill="white"/>
<path d="M7.60571 25.751V33.9385H19.4272L25.3162 28.9949L7.60571 25.751Z" fill="white"/>
</g>
<defs>
<clipPath id="clip0_879_10">
<rect width="36" height="36" fill="white"/>
</clipPath>
</defs>
</svg>
