<svg width="100" height="100" viewBox="0 0 100 100" fill="none" xmlns="http://www.w3.org/2000/svg">
<circle cx="50" cy="50" r="50" fill="url(#paint0_linear_856_374)" fill-opacity="0.1"/>
<circle cx="50" cy="50" r="28" fill="white" fill-opacity="0.1"/>
<g clip-path="url(#clip0_856_374)">
<path d="M76.4179 23.5821C74.2775 21.4419 70.7966 21.4777 68.7007 23.6615L57.2288 35.6159L29.2331 26.3511L23.3562 32.228L46.6916 46.5961L34.8839 58.9001L27.3118 57.6569L22 62.9687L33.1322 66.8678L37.0313 78L42.3431 72.6882L41.0999 65.1161L53.404 53.3085L67.772 76.6438L73.649 70.7668L64.3842 42.7711L76.3384 31.2993C78.5224 29.2035 78.5581 25.7225 76.4179 23.5821Z" fill="white"/>
</g>
<defs>
<linearGradient id="paint0_linear_856_374" x1="50" y1="0" x2="50" y2="100" gradientUnits="userSpaceOnUse">
<stop stop-color="white"/>
<stop offset="1" stop-color="white" stop-opacity="0"/>
</linearGradient>
<clipPath id="clip0_856_374">
<rect width="56" height="56" fill="white" transform="translate(22 22)"/>
</clipPath>
</defs>
</svg>
