<svg opacity="1" width="10" height="10" viewBox="0 0 10 10" fill="none" xmlns="http://www.w3.org/2000/svg">
<g clip-path="url(#clip0_1833_302)">
<path d="M7.8266 10V6.48399C7.8266 6.32249 7.89236 6.17592 7.99845 6.06984C8.10447 5.96379 8.25101 5.89801 8.41258 5.89801H9.66272V4.86296H9.66181C9.66171 4.7637 9.61102 4.66697 9.51964 4.61232C8.98193 4.29034 8.71536 3.61843 8.71536 2.96827C8.71536 2.41081 8.92901 1.93772 9.24894 1.56494C9.52965 1.23784 9.37186 0.729634 8.95575 0.618414L6.67805 0.00967252L6.67799 0.00990692C6.54899 -0.0246858 6.40869 0.0330338 6.34386 0.156169C5.93588 0.930822 4.95656 1.20348 4.20996 0.754753C3.97845 0.615621 3.78709 0.41662 3.65675 0.17914C3.59905 0.0504766 3.45497 -0.0210527 3.31434 0.0165286L1.0623 0.618414C0.646172 0.729614 0.488405 1.23784 0.769111 1.56494C1.50355 2.42077 1.51513 3.9839 0.506707 4.61138C0.411133 4.65962 0.345581 4.7587 0.345581 4.87308V5.89803H1.59568C1.75724 5.89803 1.90377 5.96381 2.00982 6.06986C2.11588 6.17594 2.18167 6.32251 2.18167 6.48401V10H7.8266V10ZM3.06133 5.89809H6.94766C7.10947 5.89809 7.24065 6.02927 7.24065 6.19108C7.24065 6.35289 7.10947 6.48407 6.94766 6.48407H3.06133C2.89952 6.48407 2.76834 6.35289 2.76834 6.19108C2.76834 6.02925 2.89952 5.89809 3.06133 5.89809ZM3.06133 7.07006H6.94766C7.10947 7.07006 7.24065 7.20124 7.24065 7.36305C7.24065 7.52486 7.10947 7.65604 6.94766 7.65604H3.06133C2.89952 7.65604 2.76834 7.52486 2.76834 7.36305C2.76834 7.20124 2.89952 7.07006 3.06133 7.07006ZM3.06133 8.24203H6.94766C7.10947 8.24203 7.24065 8.37321 7.24065 8.53502C7.24065 8.69683 7.10947 8.82801 6.94766 8.82801H3.06133C2.89952 8.82801 2.76834 8.69683 2.76834 8.53502C2.76834 8.37321 2.89952 8.24203 3.06133 8.24203Z" fill="white"/>
<path d="M1.59141 6.48446C1.59147 6.48444 1.59151 6.48442 1.59141 6.48442L1.59134 6.48448L1.59124 6.48458C1.59128 6.48462 1.59132 6.48454 1.59132 6.48448L1.59136 6.48444C1.59139 6.48435 1.59138 6.48437 1.59136 6.48442H0.341309V9.70744C0.341309 9.86925 0.472492 10.0004 0.634302 10.0004H1.59141V6.48446Z" fill="white"/>
<path d="M8.40832 6.48441L8.40844 6.48453C8.4084 6.48457 8.40836 6.48451 8.40832 6.48441L8.4083 6.48439C8.40828 6.48439 8.40824 6.48441 8.40828 6.48441V10.0004H9.36543C9.52724 10.0004 9.65842 9.86926 9.65842 9.70745V6.48438H8.40832V6.48441Z" fill="white"/>
</g>
<defs>
<clipPath id="clip0_1833_302">
<rect width="10" height="10" fill="white"/>
</clipPath>
</defs>
</svg>
