
<svg width="32" height="32" viewBox="0 0 32 32" fill="none" xmlns="http://www.w3.org/2000/svg">
<g clip-path="url(#clip0)">
<path d="M0.658682 4.77171C0.903534 4.77171 1.13415 4.90922 1.24727 5.13545C1.28515 5.20865 4.30161 10.8018 16.8897 10.9921L16.8897 5.42975C16.8897 5.17912 17.0323 4.95032 17.257 4.83977C17.4813 4.72922 17.7486 4.75491 17.9484 4.90719L31.7413 15.4776C31.9039 15.6023 32 15.7951 32 15.9994C32 16.2047 31.9039 16.3975 31.7413 16.5225L17.9477 27.0924C17.7476 27.245 17.4806 27.2708 17.2563 27.1608C17.0317 27.051 16.889 26.8213 16.889 26.5713L16.889 20.7094C16.5561 20.7306 16.1224 20.749 15.6105 20.749C10.9167 20.749 1.39273e-07 19.2559 3.80784e-07 5.43114C3.86128e-07 5.12529 0.210179 4.85924 0.508324 4.78979C0.558516 4.77684 0.607956 4.77171 0.658682 4.77171Z" fill="#FF4A4A"/>
</g>
<defs>
<clipPath id="clip0">
<rect width="32" height="32" fill="white" transform="translate(32 32) rotate(-180)"/>
</clipPath>
</defs>
</svg>
