<svg width="30" height="30" viewBox="0 0 30 30" fill="none" xmlns="http://www.w3.org/2000/svg">
<g clip-path="url(#clip0_853:184)">
<path d="M16.1719 30.8301V4.0103L20.2631 8.12147C20.7197 8.5802 21.4617 8.58196 21.9204 8.12539C22.3792 7.66883 22.3809 6.9268 21.9244 6.46807L15.8306 0.344788C15.8303 0.344378 15.8299 0.344085 15.8295 0.343733C15.373 -0.113825 14.6306 -0.11529 14.1705 0.343616C14.1701 0.344026 14.1697 0.344319 14.1694 0.344671L8.07564 6.46795C7.6192 6.92662 7.62078 7.66866 8.07963 8.12530C8.53836 8.58184 9.30033 8.58008 9.73689 8.12135L13.8301 4.0103L13.8301 30.8301C13.8301 29.4754 14.3530 30 15 30C15.6472 30 16.1719 29.4754 16.1719 30.8301Z" fill="black"/>
</g>
<defs>
<clipPath id="clip0_853:184">
<rect width="30" height="30" fill="white" transform="translate(30) rotate(90)"/>
</clipPath>
</defs>
</svg>
