<svg width="30" height="30" viewBox="0 0 30 30" fill="none" xmlns="http://www.w3.org/2000/svg">
<g clip-path="url(#clip0_1553_69)">
<path d="M28.8277 13.8281L4.00981 13.8281L8.12098 9.73687C8.57971 9.28031 8.58147 8.53833 8.12491 8.0796C7.66834 7.62082 6.92631 7.61912 6.46758 8.07562L0.3443 14.1694C0.343889 14.1697 0.343596 14.1701 0.343245 14.1705C-0.114314 14.627 -0.115779 15.3714 0.343128 15.8295C0.343538 15.8299 0.343831 15.8303 0.344182 15.8306L6.46746 21.9244C6.92614 22.3808 7.66817 22.3792 8.12479 21.9204C8.58135 21.4616 8.57959 20.7197 8.12086 20.2631L4.00981 16.1719L28.8277 16.1719C29.4749 16.1719 29.9995 15.6472 29.9995 15C29.9995 14.3528 29.4749 13.8281 28.8277 13.8281Z" fill="black"/>
</g>
<defs>
<clipPath id="clip0_1553_69">
<rect width="30" height="30" fill="white"/>
</clipPath>
</defs>
</svg>
