<svg width="16" height="30" viewBox="0 0 16 30" fill="none" xmlns="http://www.w3.org/2000/svg">
<path d="M6.82811 1.17222L6.82811 25.9901L2.73687 21.8789C2.28031 21.4202 1.53833 21.4184 1.0796 21.875C0.620816 22.3315 0.619117 23.0736 1.07562 23.5323L7.16936 29.6556C7.16972 29.656 7.17013 29.6563 7.17048 29.6566C7.62704 30.1142 8.37141 30.1157 8.8295 29.6568C8.82985 29.6563 8.83026 29.656 8.83061 29.6557L14.9244 23.5324C15.3808 23.0737 15.3792 22.3317 14.9204 21.8751C14.4616 21.4185 13.7197 21.4203 13.2631 21.879L9.17186 25.9901L9.17186 1.17222C9.17186 0.524994 8.64721 0.00034523 7.99999 0.00034523C7.35276 0.00034523 6.82811 0.524994 6.82811 1.17222Z" fill="black"/>
</svg>
