<svg width="30" height="30" viewBox="0 0 30 30" fill="none" xmlns="http://www.w3.org/2000/svg">
<g clip-path="url(#clip0_853:179)">
<path d="M13.8301 1.17185L13.8301 25.9897L9.73687 21.8785C9.30031 21.4198 8.53833 21.418 8.0796 21.8746C7.62082 22.3312 7.61912 23.0732 8.07562 23.5319L14.1694 29.6552C14.1697 29.6556 14.1701 29.6559 14.1705 29.6563C14.627 30.1138 15.3714 30.1153 15.8295 29.6564C15.8299 29.656 15.8303 29.6557 15.8306 29.6553L21.9244 23.532C22.3808 23.0734 22.3792 22.3313 21.9204 21.8747C21.4616 21.4182 20.7197 21.4199 20.2631 21.8786L16.1719 25.9897V1.17185C16.1719 0.524627 15.6472 -2.14577e-05 15 -2.14577e-05C14.3530 -2.14577e-05 13.8301 0.524627 13.8301 1.17185Z" fill="black"/>
</g>
<defs>
<clipPath id="clip0_853:179">
<rect width="30" height="30" fill="white" transform="translate(0 30) rotate(-90)"/>
</clipPath>
</defs>
</svg>
