<svg width="30" height="30" viewBox="0 0 30 30" fill="none" xmlns="http://www.w3.org/2000/svg">
<g clip-path="url(#clip0_1553_74)">
<path d="M1.17234 16.1719L25.9902 16.1719L21.879 20.2631C21.4203 20.7197 21.4185 21.4617 21.8751 21.9204C22.3317 22.3792 23.0737 22.3809 23.5324 21.9244L29.6557 15.8306C29.6561 15.8303 29.6564 15.8299 29.6568 15.8295C30.1143 15.373 30.1158 14.6286 29.6569 14.1705C29.6565 14.1701 29.6562 14.1697 29.6558 14.1694L23.5325 8.07564C23.0739 7.6192 22.3318 7.62078 21.8752 8.07963C21.4186 8.53836 21.4204 9.28033 21.8791 9.73689L25.9902 13.8281L1.17234 13.8281C0.525116 13.8281 0.0004673 14.3528 0.0004673 15C0.0004673 15.6472 0.525116 16.1719 1.17234 16.1719Z" fill="black"/>
</g>
<defs>
<clipPath id="clip0_1553_74">
<rect width="30" height="30" fill="white" transform="translate(30 30) rotate(-180)"/>
</clipPath>
</defs>
</svg>
