<svg width="30" height="72" viewBox="0 0 30 72" fill="none" xmlns="http://www.w3.org/2000/svg">
<path d="M15.4716 0V27.0464H14.5288V0H13.7635C13.7635 0 1.04509 34.6739 0.18457 72H6.02386L12.1968 64.6703L11.2243 57.1908C10.3091 56.245 9.74485 54.9573 9.74485 53.5373C9.74485 51.3227 11.1153 49.4294 13.0538 48.6559V44.4977C13.0538 44.3675 13.067 44.2404 13.0915 44.1174C11.9079 43.4496 11.1074 42.1824 11.1074 40.7267C11.1074 39.0867 12.123 37.6862 13.5585 37.113V34.0306C13.5585 33.2343 14.2041 32.5889 15.0002 32.5889C15.7965 32.5889 16.4419 33.2343 16.4419 34.0306V37.113C17.8774 37.6862 18.8931 39.0867 18.8931 40.7267C18.8931 42.1824 18.0925 43.4496 16.9089 44.1174C16.9332 44.2404 16.9466 44.3675 16.9466 44.4977V48.6559C18.8851 49.4296 20.2556 51.3227 20.2556 53.5373C20.2556 54.9573 19.6913 56.245 18.7761 57.1908L17.8037 64.6703L23.9766 72H29.8157C28.9554 34.6739 16.2372 0 16.2372 0H15.4716Z" fill="white"/>
</svg>
