<svg width="14" height="16" viewBox="0 0 14 16" fill="none" xmlns="http://www.w3.org/2000/svg">
<path d="M6.99958 7.82505C8.77851 7.82505 10.2208 6.07337 10.2208 3.91255C10.2208 1.75168 9.74725 0 6.99958 0C4.25192 0 3.77832 1.75168 3.77832 3.91255C3.77832 6.07337 5.22056 7.82505 6.99958 7.82505Z" fill="#4C5A5D"/>
<path d="M0.915673 13.7987C0.915124 13.6669 0.914575 13.7615 0.915673 13.7987V13.7987Z" fill="#4C5A5D"/>
<path d="M13.0835 13.9019C13.0852 13.8658 13.0841 13.6517 13.0835 13.9019V13.9019Z" fill="#4C5A5D"/>
<path d="M13.0768 13.6408C13.0171 9.87654 12.5255 8.80395 8.76353 8.125C8.76353 8.125 8.23397 8.79979 6.99969 8.79979C5.7654 8.79979 5.23576 8.125 5.23576 8.125C1.51484 8.79654 0.993333 9.85323 0.924762 13.5185C0.919139 13.8178 0.916533 13.8335 0.915527 13.7987C0.915756 13.8638 0.91603 13.9843 0.91603 14.1942C0.91603 14.1942 1.81166 15.9998 6.99969 15.9998C12.1876 15.9998 13.0833 14.1942 13.0833 14.1942C13.0833 14.0593 13.0834 13.9655 13.0836 13.9017C13.0826 13.9232 13.0806 13.8815 13.0768 13.6408Z" fill="#4C5A5D"/>
</svg>
