<svg width="36" height="36" viewBox="0 0 36 36" fill="none" xmlns="http://www.w3.org/2000/svg">
<path d="M17.5244 0.398928C16.4206 0.585048 15.4965 1.41305 15.2067 2.48909C14.7513 4.17209 15.8205 5.84141 17.5453 6.13805C19.2009 6.42065 20.7874 5.15849 20.8839 3.48233C20.9941 1.57181 19.3867 0.0954475 17.5244 0.398928Z" fill="#F2C94C"/>
<path d="M17.3241 7.9188C17.1585 8.0016 16.9583 8.1672 16.8687 8.2842C16.779 8.40156 15.8891 9.86388 14.8959 11.5332C13.8958 13.2025 13.0678 14.582 13.0541 14.6029C13.0404 14.6166 11.2469 13.7407 9.06713 12.6506C5.43869 10.8434 5.07329 10.671 4.75577 10.671C4.00373 10.671 3.30713 11.3402 3.30713 12.0505C3.30713 12.161 3.99005 14.996 4.82453 18.3484C6.48701 25.0051 6.43193 24.8186 7.02485 25.1362L7.32833 25.2949H18.0002H28.6713L28.9748 25.1362C29.568 24.819 29.513 25.0051 31.1754 18.3484C32.0103 14.996 32.6928 12.1884 32.6928 12.1056C32.6928 11.3399 32.0168 10.671 31.2374 10.671C30.913 10.671 30.575 10.8229 26.9192 12.6506C24.7325 13.7476 22.939 14.6029 22.9185 14.5684C22.9048 14.527 22.0494 13.0852 21.0076 11.3608C18.8624 7.78056 18.8969 7.8288 18.083 7.78776C17.7104 7.77408 17.5588 7.7946 17.3241 7.9188Z" fill="#F2C94C"/>
<path d="M6.77677 28.4749C6.09385 28.6888 5.43865 29.2612 5.08657 29.9445C4.87273 30.3585 4.75537 31.0551 4.75537 31.9173C4.75537 32.9242 4.83817 33.4073 5.09341 33.9592C5.47969 34.794 6.33505 35.4215 7.28005 35.5734C7.82509 35.663 28.1741 35.663 28.7191 35.5734C29.6641 35.4215 30.5195 34.794 30.9058 33.9592C31.161 33.4073 31.2438 32.9245 31.2438 31.9173C31.2438 30.5655 30.9954 29.8271 30.3539 29.1924C29.9194 28.7647 29.6983 28.6269 29.181 28.4681C28.7533 28.3302 28.5327 28.3302 17.9717 28.3371C7.48705 28.3371 7.19041 28.3439 6.77677 28.4749Z" fill="#F2C94C"/>
</svg>
