<svg width="36" height="18" viewBox="0 0 36 18" fill="none" xmlns="http://www.w3.org/2000/svg">
<path d="M34.5937 7.59374H4.81229L9.7457 2.68424C10.2962 2.13637 10.2983 1.246 9.75041 0.695526C9.20254 0.144979 8.3121 0.142941 7.76162 0.690745L0.413684 8.00324C0.413192 8.00366 0.412841 8.00415 0.412419 8.00458C-0.136652 8.55245 -0.138409 9.4457 0.412278 9.9954C0.41277 9.99582 0.413122 9.99632 0.413544 9.99674L7.76148 17.3092C8.31189 17.857 9.20233 17.8551 9.75027 17.3045C10.2981 16.754 10.296 15.8636 9.74556 15.3157L4.81229 10.4062H34.5937C35.3704 10.4062 36 9.77666 36 8.99999C36 8.22332 35.3704 7.59374 34.5937 7.59374Z" fill="black"/>
</svg>
