<svg width="472" height="684" viewBox="0 0 472 684" fill="none" xmlns="http://www.w3.org/2000/svg">
<g clip-path="url(#clip0_1917_88)">
<path opacity="0.04" d="M-18.0308 126.526C-24.1319 126.526 -29.3276 130.836 -30.4415 136.811L-35.1387 161.83C-37.0881 172.235 -45.3778 179.902 -55.7573 182.004C-64.39 183.75 -72.8696 185.97 -81.1225 188.679C-91.1476 191.97 -102.149 189.509 -109.009 181.509L-125.475 162.275C-129.449 157.668 -136.18 156.567 -141.445 159.605L-156.081 168.06C-161.372 171.098 -163.743 177.493 -161.718 183.24L-153.213 207.319C-149.72 217.294 -153.053 228.02 -160.927 235.058C-167.433 240.881 -173.622 247.044 -179.419 253.55C-186.457 261.423 -197.183 264.757 -207.158 261.264L-231.287 252.809C-237.033 250.783 -243.379 253.18 -246.417 258.445L-254.921 273.081C-257.985 278.372 -256.835 285.077 -252.202 289.052L-232.968 305.517C-224.968 312.377 -222.507 323.379 -225.798 333.404C-228.507 341.657 -230.727 350.136 -232.473 358.769C-234.575 369.149 -242.242 377.438 -252.647 379.388L-277.666 384.085C-283.666 385.199 -288 390.394 -288 396.496V413.505C-288 419.606 -283.69 424.801 -277.715 425.915L-252.696 430.613C-242.292 432.562 -234.624 440.852 -232.523 451.231C-230.776 459.889 -228.557 468.343 -225.848 476.596C-222.557 486.621 -225.017 497.623 -233.017 504.483L-252.251 520.948C-256.859 524.923 -257.959 531.653 -254.921 536.919L-246.466 551.555C-243.428 556.846 -237.033 559.217 -231.287 557.191L-207.207 548.687C-197.233 545.193 -186.506 548.527 -179.468 556.4C-173.646 562.906 -167.482 569.095 -160.976 574.893C-153.103 581.931 -149.769 592.657 -153.263 602.631L-161.718 626.76C-163.743 632.507 -161.347 638.853 -156.081 641.891L-141.445 650.395C-136.154 653.458 -129.449 652.308 -125.475 647.676L-109.009 628.442C-102.149 620.442 -91.1476 617.981 -81.1225 621.272C-72.8696 623.981 -64.39 626.2 -55.7573 627.947C-45.3778 630.048 -37.0881 637.716 -35.1387 648.121L-30.4415 673.14C-29.3276 679.14 -24.1319 683.474 -18.0308 683.474H-1.02173C5.07938 683.474 10.2762 679.138 11.3395 673.189L16.0367 648.17C17.9861 637.765 26.2758 630.098 36.6552 627.997C45.3132 626.25 53.7675 624.03 62.0205 621.322C72.0455 618.03 83.0468 620.491 89.9074 628.491L106.373 647.725C110.347 652.333 117.028 653.482 122.294 650.445L136.979 641.94C142.27 638.902 144.641 632.557 142.616 626.81L134.161 602.681C130.667 592.706 134.001 581.98 141.874 574.942C148.38 569.12 154.569 562.956 160.366 556.45C167.404 548.577 178.156 545.243 188.105 548.736L212.234 557.191C217.981 559.217 224.326 556.82 227.364 551.555L235.869 536.919C238.932 531.628 237.782 524.923 233.149 520.948L213.915 504.483C205.915 497.623 203.455 486.621 206.746 476.596C209.455 468.343 211.674 459.864 213.421 451.231C215.522 440.852 223.19 432.562 233.594 430.613L258.613 425.915C264.613 424.801 268.947 419.606 268.947 413.505V396.496C268.947 390.394 264.612 385.223 258.663 384.134L233.644 379.437C223.239 377.488 215.571 369.149 213.47 358.769C211.723 350.136 209.504 341.657 206.795 333.404C203.504 323.379 205.965 312.427 213.965 305.566L233.199 289.101C237.806 285.127 238.956 278.396 235.918 273.13L227.414 258.445C224.376 253.154 218.03 250.783 212.284 252.809L188.154 261.313C178.18 264.807 167.454 261.473 160.416 253.6C154.593 247.094 148.43 240.905 141.923 235.107C134.05 228.07 130.716 217.343 134.21 207.369L142.665 183.24C144.69 177.493 142.294 171.147 137.028 168.109L122.393 159.605C117.102 156.542 110.397 157.692 106.422 162.324L89.9569 181.559C83.0963 189.558 72.095 192.019 62.0699 188.728C53.817 186.019 45.3374 183.8 36.7047 182.053C26.3252 179.952 18.0355 172.284 16.0862 161.879L11.3889 136.86C10.275 130.86 5.07935 126.526 -1.02173 126.526H-18.0308ZM218.316 151.842C211.602 151.842 205.162 154.509 200.415 159.257C195.667 164.005 193 170.444 193 177.158C193 183.872 195.667 190.311 200.415 195.059C205.162 199.807 211.602 202.474 218.316 202.474C225.03 202.474 231.469 199.807 236.217 195.059C240.964 190.311 243.632 183.872 243.632 177.158C243.632 170.444 240.964 164.005 236.217 159.257C231.469 154.509 225.03 151.842 218.316 151.842ZM-9.52628 253.105C74.3702 253.105 142.368 321.104 142.368 405C142.368 488.897 74.3702 556.895 -9.52628 556.895C-93.4228 556.895 -161.421 488.897 -161.421 405C-161.421 321.104 -93.4228 253.105 -9.52628 253.105ZM-9.52628 354.368C-37.5002 354.368 -60.1579 377.026 -60.1579 405C-60.1579 432.974 -37.5002 455.632 -9.52628 455.632C18.4477 455.632 41.1053 432.974 41.1053 405C41.1053 377.026 18.4477 354.368 -9.52628 354.368Z" fill="white"/>
<path opacity="0.08" d="M209.811 -76C203.71 -76 198.515 -71.6659 197.401 -65.666L191.813 -35.9002C190.37 -28.1789 184.256 -22.4144 176.535 -20.8195C169.345 -19.3259 162.258 -17.46 155.372 -15.2322C147.904 -12.8019 139.769 -14.7219 134.655 -20.6712L115.025 -43.6136C111.051 -48.2464 104.346 -49.3468 99.0547 -46.2836L84.4191 -37.8285C79.1534 -34.7906 76.757 -28.3956 78.7823 -22.6489L88.8196 5.88077C91.4272 13.273 89.0309 21.3084 83.1829 26.5487C77.74 31.4347 72.5926 36.5821 67.7067 42.025C62.4663 47.8729 54.4309 50.3187 47.0387 47.7112L18.4595 37.6244C12.7129 35.5991 6.36731 37.9701 3.32938 43.2611L-5.17514 57.9463C-8.21304 63.2119 -7.06314 69.9424 -2.45566 73.917L0.016571 76.0431C29.9651 76.5494 55.5863 97.9717 61.1305 127.515L62.6632 135.575L67.9539 129.345C79.5738 115.826 95.8424 108.475 112.652 107.589C135.335 73.286 174.14 50.579 218.316 50.579C288.213 50.579 344.895 107.261 344.895 177.158C344.895 221.334 322.188 260.14 287.885 282.772C286.999 299.582 279.648 315.876 266.129 327.47L259.899 332.761L267.959 334.294C297.502 339.838 318.924 365.459 319.431 395.408L321.557 397.88C325.531 402.513 332.237 403.663 337.528 400.599L352.213 392.095C357.478 389.057 359.875 382.711 357.849 376.965L347.763 348.386C345.155 340.993 347.601 332.958 353.449 327.718C358.892 322.832 364.039 317.684 368.925 312.241C374.165 306.393 382.201 303.997 389.593 306.605L418.123 316.642C423.869 318.667 430.264 316.296 433.302 311.005L441.757 296.32C444.795 291.054 443.695 284.373 439.087 280.399L416.145 260.72C410.196 255.606 408.276 247.471 410.706 240.002C412.934 233.117 414.8 226.079 416.293 218.889C417.888 211.193 423.653 205.079 431.374 203.611L461.14 197.974C467.14 196.936 471.474 191.764 471.474 185.662V168.653C471.474 162.552 467.14 157.357 461.14 156.243L431.374 150.655C423.653 149.212 417.888 143.098 416.293 135.377C414.8 128.187 412.934 121.1 410.706 114.215C408.276 106.746 410.196 98.6109 416.145 93.4971L439.087 73.8675C443.72 69.8929 444.821 63.1878 441.757 57.8968L433.302 43.2611C430.264 37.9954 423.869 35.5991 418.123 37.6244L389.593 47.6617C382.201 50.2692 374.165 47.8729 368.925 42.025C364.039 36.5821 358.892 31.4347 353.449 26.5487C347.601 21.3084 345.155 13.273 347.763 5.88077L357.849 -22.6984C359.875 -28.4451 357.504 -34.7906 352.213 -37.8285L337.528 -46.3331C332.262 -49.371 325.531 -48.2211 321.557 -43.6136L301.927 -20.6712C296.813 -14.7219 288.678 -12.8019 281.21 -15.2322C274.324 -17.46 267.237 -19.3259 260.047 -20.8195C252.351 -22.4144 246.237 -28.2283 244.769 -35.9496L239.182 -65.7155C238.118 -71.69 232.921 -76 226.82 -76H209.811ZM218.316 151.842C211.602 151.842 205.162 154.509 200.415 159.257C195.667 164.005 193 170.444 193 177.158C193 183.872 195.667 190.311 200.415 195.059C205.162 199.807 211.602 202.474 218.316 202.474C225.03 202.474 231.469 199.807 236.217 195.059C240.964 190.311 243.632 183.872 243.632 177.158C243.632 170.444 240.964 164.005 236.217 159.257C231.469 154.509 225.03 151.842 218.316 151.842ZM-9.52628 253.105C74.3702 253.105 142.368 321.104 142.368 405C142.368 488.897 74.3702 556.895 -9.52628 556.895C-93.4228 556.895 -161.421 488.897 -161.421 405C-161.421 321.104 -93.4228 253.105 -9.52628 253.105ZM-9.52628 354.368C-37.5002 354.368 -60.1579 377.026 -60.1579 405C-60.1579 432.974 -37.5002 455.632 -9.52628 455.632C18.4477 455.632 41.1053 432.974 41.1053 405C41.1053 377.026 18.4477 354.368 -9.52628 354.368Z" fill="black"/>
</g>
<defs>
<clipPath id="clip0_1917_88">
<rect width="759.474" height="759.474" fill="white" transform="translate(-288 -76)"/>
</clipPath>
</defs>
</svg>
