<svg width="100" height="100" viewBox="0 0 100 100" fill="none" xmlns="http://www.w3.org/2000/svg">
<circle cx="50" cy="50" r="50" fill="url(#paint0_linear_853_64)" fill-opacity="0.1"/>
<circle cx="50" cy="50" r="28" fill="white" fill-opacity="0.1"/>
<path d="M38.8766 22H27.8516V25.2812H36.5141L39.7953 35.125H43.2406L38.8766 22Z" fill="white"/>
<path d="M59.0236 56.453C59.0236 54.8765 58.6904 53.2951 58.0623 51.882L58.0592 51.8788C57.2837 50.1469 57.1203 48.0657 57.5753 45.8739C57.6418 45.5659 57.7459 45.2729 57.8269 44.9688H37.2359C37.8695 47.3244 37.7617 49.889 36.8207 52.326C36.0517 54.3415 35.853 56.5092 36.244 58.5856C37.0631 63.0488 40.7832 67.0808 45.8986 67.7861V74.7186H37.6955V77.9999H57.383V74.7186H49.1799V67.7814C55.0265 66.9311 59.0236 61.9922 59.0236 56.453Z" fill="white"/>
<path d="M36.1205 41.6875H41.9938L39.7954 35.125H33.6924L36.1205 41.6875Z" fill="white"/>
<path d="M58.9578 41.6875L61.3859 35.125H43.2407L45.4392 41.6875H58.9578Z" fill="white"/>
<path d="M60.664 25.2812C56.1002 25.2812 52.1823 27.9779 50.3315 31.8438H66.1049L61.2087 45.0121C61.0325 45.4959 60.8978 46.031 60.7825 46.5662C60.6598 47.157 60.6504 47.7089 60.6529 48.2533C60.6619 48.2533 60.671 48.2565 60.6799 48.2565C62.8428 48.2565 64.9481 47.6572 66.8195 46.4669C70.1552 44.3455 72.1484 40.7198 72.1484 36.7656C72.1484 30.4338 66.9958 25.2812 60.664 25.2812Z" fill="white"/>
<defs>
<linearGradient id="paint0_linear_853_64" x1="50" y1="0" x2="50" y2="100" gradientUnits="userSpaceOnUse">
<stop stop-color="white"/>
<stop offset="1" stop-color="white" stop-opacity="0"/>
</linearGradient>
</defs>
</svg>
