<svg width="72" height="72" viewBox="0 0 72 72" fill="none" xmlns="http://www.w3.org/2000/svg">
<path d="M18.1027 27.4669L6.4575 20.1881C5.32687 19.4822 3.78703 19.883 3.23297 21.0952C1.42541 25.0527 0.355527 29.307 0.0759375 33.6488C-0.00703124 34.927 1.06734 36 2.34703 36H16.0059C17.1253 36 17.9859 35.1211 18.1167 34.0088C18.27 32.6967 18.5723 31.4311 18.9942 30.2203C19.3542 29.1881 19.0294 28.0463 18.1027 27.4669ZM44.8636 1.125C42.0272 0.396563 39.0614 0 36 0C32.9386 0 29.9728 0.396563 27.1364 1.125C25.8469 1.45547 25.1803 2.89687 25.6753 4.13297L30.9445 18.7622C31.1014 19.1978 31.3888 19.5744 31.7676 19.8406C32.1463 20.1069 32.598 20.2498 33.0609 20.25H38.9391C39.8883 20.25 40.7348 19.6552 41.0555 18.7622L46.3247 4.13297C46.8197 2.89687 46.1531 1.45687 44.8636 1.125ZM15.75 40.5H2.25C1.00688 40.5 0 41.5069 0 42.75V51.75C0 52.9931 1.00688 54 2.25 54H15.75C16.9931 54 18 52.9931 18 51.75V42.75C18 41.5069 16.9931 40.5 15.75 40.5ZM15.75 58.5H2.25C1.00688 58.5 0 59.5069 0 60.75V69.75C0 70.9931 1.00688 72 2.25 72H15.75C16.9931 72 18 70.9931 18 69.75V60.75C18 59.5069 16.9931 58.5 15.75 58.5ZM26.6217 18.6089L21.5142 5.84016C21.0178 4.59844 19.5272 4.01344 18.3614 4.67156C14.5192 6.84141 11.1064 9.69572 8.29125 13.0936C7.43906 14.123 7.74984 15.6923 8.88469 16.4011L20.5467 23.6897C21.4622 24.262 22.6083 24.0581 23.3747 23.2973C24.1031 22.5731 24.892 21.9122 25.7358 21.3216C26.6189 20.7014 27.0225 19.6102 26.6217 18.6089ZM55.9941 36H69.653C70.9327 36 72.007 34.927 71.9241 33.6488C71.6446 29.3069 70.5748 25.0526 68.767 21.0952C68.213 19.883 66.6731 19.4822 65.5425 20.1881L53.8973 27.4669C52.9706 28.0463 52.6458 29.1881 53.0058 30.2203C53.4291 31.4311 53.73 32.6981 53.8833 34.0088C54.0141 35.1211 54.8747 36 55.9941 36ZM63.7073 13.0936C60.8922 9.69572 57.4794 6.84141 53.6372 4.67156C52.4728 4.01344 50.9822 4.59844 50.4844 5.84016L45.3769 18.6089C44.9761 19.6102 45.3797 20.7014 46.2628 21.3202C47.1066 21.9108 47.8955 22.5717 48.6239 23.2959C49.3889 24.0567 50.5364 24.2606 51.4519 23.6883L63.1139 16.3997C64.2487 15.6923 64.5609 14.123 63.7073 13.0936ZM69.75 40.5H56.25C55.0069 40.5 54 41.5069 54 42.75V51.75C54 52.9931 55.0069 54 56.25 54H69.75C70.9931 54 72 52.9931 72 51.75V42.75C72 41.5069 70.9931 40.5 69.75 40.5ZM69.75 58.5H56.25C55.0069 58.5 54 59.5069 54 60.75V69.75C54 70.9931 55.0069 72 56.25 72H69.75C70.9931 72 72 70.9931 72 69.75V60.75C72 59.5069 70.9931 58.5 69.75 58.5ZM33.75 24.9778V66.375C33.75 66.9966 34.2534 67.5 34.875 67.5H37.125C37.7466 67.5 38.25 66.9966 38.25 66.375V24.9778C37.5145 24.8527 36.7706 24.75 36 24.75C35.2294 24.75 34.4855 24.8527 33.75 24.9778ZM24.75 30.8152V66.375C24.75 66.9966 25.2534 67.5 25.875 67.5H28.125C28.7466 67.5 29.25 66.9966 29.25 66.375V26.6287C27.4528 27.6764 25.8975 29.0855 24.75 30.8152ZM42.75 26.6287V66.375C42.75 66.9966 43.2534 67.5 43.875 67.5H46.125C46.7466 67.5 47.25 66.9966 47.25 66.375V30.8152C46.1025 29.0855 44.5472 27.6764 42.75 26.6287Z" fill="white"/>
</svg>
