<svg width="360" height="640" viewBox="0 0 360 640" fill="none" xmlns="http://www.w3.org/2000/svg">
<rect width="360" height="640" fill="white"/>
<path d="M260.5 -63C273.167 -25.3333 250.9 56.1 60.5 80.5C-177.5 111 211.5 293.5 68.5 396.5C-74.5 499.5 10.5 685 305.5 758.5C600.5 832 593 238.5 583.5 239.5" stroke="black" stroke-opacity="0.05" stroke-width="2"/>
<path d="M309.5 -31C321 3.83333 317.6 83 212 121C80 168.5 68.5 247.5 184 345C299.5 442.5 -2 407.5 91 517.5C184 627.5 144 711 497.5 736M162 -56C182 -31.8333 198.6 19 105 29C-12 41.5 -101 7 -154 121M-79 245C-69 249 99 268.5 17 377C-65 485.5 -151.5 597 -41.5 666.5M284.5 -31C292 9 278 95.4 162 121C17 153 27 136.5 66 211.5C105 286.5 172 383 105 412C38 441 7 580 138 698.5" stroke="black" stroke-opacity="0.05" stroke-width="2"/>
<g opacity="0.1" clip-path="url(#clip0)">
<path d="M346.447 394.969L211.91 370.108C210.298 369.809 208.665 369.986 207.179 370.553C207.573 370.405 207.978 370.283 208.389 370.192L269.362 642.737L424.572 662.123C425.825 662.278 427.075 662.163 428.246 661.804L346.447 394.969Z" fill="#44C868"/>
<path d="M208.388 370.193C206.729 370.565 205.178 371.397 203.957 372.667L109.863 470.531C108.036 472.431 107.157 475.048 107.467 477.665L138.517 739.776C138.9 743.02 141.051 745.782 144.103 746.953C145.974 747.67 147.992 747.717 149.841 747.15C151.01 746.792 152.11 746.188 153.062 745.355L269.509 643.395L208.388 370.193Z" fill="#4CE166"/>
<path d="M446.899 297.071C445.81 297.5 444.797 298.135 443.938 298.982L346.448 394.97L428.246 661.806C428.246 661.806 428.246 661.806 428.247 661.805C429.418 661.446 430.52 660.841 431.469 660.01L549.149 556.97L446.899 297.071Z" fill="#4CE166"/>
<path d="M116.876 557.098L123.184 610.344L236.798 497.186L227.498 455.618L225.956 448.725L116.876 557.098Z" fill="#FFDB56"/>
<path d="M233.192 481.068L236.798 497.186L123.184 610.344L138.516 739.776C138.9 743.019 141.051 745.782 144.103 746.952C145.974 747.67 147.992 747.716 149.841 747.15C151.009 746.791 152.11 746.188 153.062 745.355L269.508 643.395L233.192 481.068Z" fill="#A8EEFC"/>
<path d="M356.683 428.24L225.956 448.725L236.798 497.186L425.667 653.392L403.851 582.226L289.828 484.708L369.585 470.325L356.683 428.24Z" fill="#FFBB24"/>
<path d="M501.097 434.832L476.892 373.307L462.607 336.995L356.683 428.24L369.585 470.325L438.875 411.051L501.097 434.832Z" fill="#FFDB56"/>
<path d="M271.798 149.534C206.856 169.442 170.204 238.43 190.096 303.32C202.401 343.46 234.669 380.714 286.005 414.044C323.71 438.525 357.436 451.366 358.853 451.9C360.73 452.609 362.727 452.637 364.545 452.08C366.363 451.523 368.002 450.379 369.159 448.741C370.032 447.504 390.769 417.968 408.276 376.562C432.113 320.187 437.959 271.251 425.654 231.11C405.76 166.22 336.741 129.625 271.798 149.534ZM351.491 253.843C358.869 277.912 345.322 303.412 321.233 310.796C297.145 318.181 271.634 304.655 264.256 280.585C256.877 256.515 270.424 231.017 294.513 223.632C318.602 216.248 344.113 229.774 351.491 253.843Z" fill="#FF4A4A"/>
<path d="M271.798 149.534C266.651 151.112 261.684 153 256.906 155.168C316.99 144.921 376.954 180.677 395.269 240.424C407.574 280.564 401.728 329.502 377.891 385.876C366.633 412.503 354.048 434.206 346.26 446.646C353.711 449.942 358.349 451.709 358.853 451.9C360.73 452.608 362.727 452.637 364.545 452.08C366.363 451.523 368.002 450.379 369.159 448.741C370.032 447.504 390.769 417.968 408.276 376.562C432.113 320.187 437.959 271.251 425.654 231.11C405.76 166.22 336.741 129.625 271.798 149.534Z" fill="#E7343F"/>
<path d="M428.245 661.805C428.246 661.804 428.246 661.804 428.245 661.805L425.666 653.393L236.798 497.186L269.36 642.739L424.57 662.125C425.823 662.281 427.073 662.164 428.245 661.805Z" fill="#1EA4E9"/>
</g>
<defs>
<clipPath id="clip0">
<rect width="600" height="600" fill="white" transform="translate(-25 206.854) rotate(-17.043)"/>
</clipPath>
</defs>
</svg>
