<svg width="398" height="200" viewBox="0 0 398 200" fill="none" xmlns="http://www.w3.org/2000/svg">
<rect x="348" y="19" width="50" height="161" rx="10" fill="white" fill-opacity="0.1"/>
<rect y="19" width="50" height="161" rx="10" fill="white" fill-opacity="0.1"/>
<rect x="24" width="350" height="200" rx="15" fill="white"/>
<mask id="mask0" mask-type="alpha" maskUnits="userSpaceOnUse" x="24" y="0" width="350" height="200">
<rect x="24" width="350" height="200" rx="15" fill="white"/>
</mask>
<g mask="url(#mask0)">
<path d="M239.5 -20C152.833 14 24.9999 116.8 207 256" stroke="black" stroke-opacity="0.1" stroke-width="5" stroke-dasharray="10 10"/>
<path d="M95.5 235C55.1666 190.5 18.3999 79.9 194 -6.5" stroke="black" stroke-opacity="0.1" stroke-width="5" stroke-dasharray="10 10"/>
<g opacity="0.2">
<g clip-path="url(#clip0)">
<path d="M375.726 228.168L228.688 260.127C211.469 263.869 194.477 252.944 190.735 235.726L158.776 88.6879C155.034 71.4695 165.959 54.4771 183.177 50.7347L330.215 18.7763C347.433 15.0339 364.426 25.9585 368.168 43.1769L400.126 190.215C403.869 207.433 392.944 224.426 375.726 228.168Z" fill="#3C87D0"/>
<path d="M225.941 247.487C215.719 249.709 205.595 243.201 203.374 232.979L171.415 85.9408C169.194 75.719 175.702 65.5956 185.924 63.3739L332.961 31.4155C343.183 29.1938 353.307 35.7023 355.528 45.9241L387.487 192.962C389.708 203.184 383.2 213.307 372.978 215.529L225.941 247.487L225.941 247.487Z" fill="#5F99D7"/>
<path d="M185.496 75.3147C184.038 74.3772 182.096 74.7993 181.159 76.2575C180.221 77.7157 180.643 79.6579 182.101 80.595L184.094 81.8763C184.823 82.3449 185.674 82.474 186.458 82.3034C187.243 82.1328 187.963 81.6628 188.432 80.9335C189.369 79.4753 188.947 77.5331 187.489 76.596L185.496 75.3147Z" fill="#0268B4"/>
<path d="M374.809 197.027C373.351 196.089 371.409 196.511 370.471 197.969C369.534 199.428 369.956 201.37 371.414 202.307L373.407 203.588C374.136 204.057 374.987 204.186 375.772 204.015C376.556 203.845 377.276 203.375 377.745 202.645C378.683 201.187 378.261 199.245 376.803 198.308L374.809 197.027Z" fill="#0268B4"/>
<path d="M340.333 48.8588C341.118 48.6882 341.838 48.2182 342.307 47.4888L343.589 45.4959C344.526 44.0377 344.104 42.0955 342.646 41.1584C341.187 40.2209 339.245 40.643 338.308 42.1012L337.027 44.0941C336.089 45.5524 336.511 47.4946 337.969 48.4317C338.698 48.9007 339.549 49.0294 340.333 48.8588Z" fill="#0268B4"/>
<path d="M332.295 28.3481L185.257 60.3066C173.344 62.8959 165.759 74.6946 168.348 86.6074L200.306 233.645C202.896 245.558 214.694 253.143 226.607 250.554L373.645 218.596C385.558 216.007 393.143 204.208 390.554 192.295L358.596 45.2574C356.007 33.3445 344.208 25.7589 332.295 28.3481ZM384.42 193.629C386.274 202.159 380.842 210.608 372.312 212.462L225.274 244.42C216.744 246.274 208.295 240.842 206.441 232.312L174.483 85.2741C172.629 76.7438 178.06 68.2952 186.591 66.4412L333.628 34.4827C342.158 32.6287 350.607 38.0605 352.461 46.5907L384.42 193.629L384.42 193.629Z" fill="#EEF5F6"/>
<path d="M269.633 80.0427C261.286 74.8325 251.431 73.1062 241.883 75.1815L214.891 81.0482C212.651 81.5349 210.698 82.8931 209.462 84.8228C208.341 86.5718 207.902 88.6593 208.195 90.7014C208.216 90.8831 208.247 91.0799 208.296 91.306L229.365 188.244C230.377 192.897 234.969 195.85 239.623 194.839C244.277 193.827 247.23 189.235 246.218 184.581L238.888 150.854C245.071 149.475 253.197 147.667 257.437 146.746C266.986 144.67 275.235 139.009 280.666 130.804C286.171 122.488 288.058 112.638 285.978 103.07C283.898 93.5015 278.094 85.3237 269.633 80.0427ZM253.774 129.893C249.554 130.811 241.54 132.593 235.365 133.97C233.95 127.621 232.098 119.292 231.162 114.984C230.374 111.36 228.464 102.684 227.005 96.0637L245.545 92.034C256.097 89.7406 266.895 96.472 269.125 106.733C271.356 116.994 264.326 127.6 253.774 129.893Z" fill="#EEF5F6"/>
<path d="M341.292 169.354L332.74 149.311C332.149 147.926 330.658 147.156 329.187 147.476L293.383 155.258C291.912 155.578 290.875 156.897 290.912 158.403L291.451 180.187C291.494 181.92 292.934 183.291 294.667 183.248C296.396 183.205 297.769 181.765 297.727 180.032L297.252 160.841L327.984 154.162L335.518 171.818C336.119 173.226 337.626 173.968 339.068 173.655C339.26 173.613 339.45 173.553 339.637 173.473C341.232 172.793 341.973 170.949 341.292 169.354Z" fill="#DEECF1"/>
<path d="M305.771 207.841L299.738 209.153C297.681 209.6 295.651 208.294 295.204 206.237L293.163 196.849L306.645 193.918L308.686 203.307C309.133 205.364 307.828 207.394 305.771 207.841Z" fill="#DEECF1"/>
<path d="M345.776 199.146L340.586 200.274C338.529 200.722 336.498 199.416 336.051 197.359L334.011 187.97L346.65 185.223L348.691 194.612C349.138 196.669 347.833 198.699 345.776 199.146Z" fill="#DEECF1"/>
<path d="M348.975 186.979L291.777 199.411C289.655 199.873 287.561 198.526 287.1 196.404L284.375 183.866C283.914 181.743 285.26 179.649 287.382 179.188L344.58 166.756C346.702 166.295 348.796 167.641 349.257 169.763L351.982 182.302C352.443 184.424 351.097 186.518 348.975 186.979Z" fill="#EEF5F6"/>
<path d="M344.58 166.757L331.941 169.504C334.063 169.043 336.157 170.389 336.618 172.511L339.343 185.05C339.805 187.172 338.458 189.266 336.336 189.727L348.975 186.98C351.097 186.519 352.444 184.425 351.982 182.303L349.257 169.764C348.796 167.642 346.702 166.296 344.58 166.757Z" fill="#DEECF1"/>
<path d="M300.551 183.703L294.944 184.922C293.25 185.29 292.176 186.962 292.544 188.656C292.912 190.35 294.583 191.425 296.278 191.056L301.885 189.838C303.579 189.469 304.654 187.798 304.285 186.104C303.917 184.41 302.245 183.335 300.551 183.703Z" fill="#5F99D7"/>
<path d="M340.08 175.112L334.473 176.33C332.778 176.699 331.704 178.37 332.072 180.064C332.44 181.758 334.112 182.833 335.806 182.465L341.413 181.246C343.107 180.878 344.182 179.206 343.814 177.512C343.445 175.818 341.774 174.743 340.08 175.112Z" fill="#5F99D7"/>
</g>
</g>
</g>
<defs>
<clipPath id="clip0">
<rect width="214.281" height="214.281" fill="white" transform="translate(152 57.511) rotate(-12.2624)"/>
</clipPath>
</defs>
</svg>
