<svg width="56" height="56" viewBox="0 0 56 56" fill="none" xmlns="http://www.w3.org/2000/svg">
<path d="M2.2568 54.0008C1.0808 55.0088 1.3776 55.636 2.9008 55.384C8.3608 54.4992 18.816 52.528 24.2928 49.7336C28.9632 47.348 30.6208 50.596 29.0472 53.088C28.4648 54.012 28.8512 54.5328 29.904 54.2416C35.9408 52.5896 48.6976 47.656 52.1472 35.0336C52.304 34.4568 52.0408 33.6896 51.5592 33.3312L51.3632 33.18C50.9656 33.6504 50.5512 34.1096 50.1088 34.552C48.1824 36.4784 45.9424 37.9848 43.4448 39.0432C40.8576 40.1352 38.1136 40.6896 35.2856 40.6896C32.4576 40.6896 29.7136 40.1352 27.1264 39.0432C24.6288 37.9848 22.3888 36.4784 20.4624 34.552C18.536 32.6256 17.0296 30.3856 15.9712 27.888C14.8792 25.3008 14.3248 22.5568 14.3248 19.7288C14.3248 16.9008 14.8792 14.1568 15.9712 11.5696C16.5088 10.2984 17.164 9.0944 17.9312 7.9632L17.7632 7.8344C17.2368 7.4368 16.408 7.476 15.9208 7.9184C13.1432 10.4496 5.0008 19.6112 3.08 41.1992C2.9848 42.2632 3.6288 42.644 4.5192 42.056C5.7008 41.2776 7.2968 40.656 8.484 41.8544C10.2368 43.6296 6.5576 50.3048 2.2568 54.0008Z" fill="white"/>
<path d="M35.2912 38.9088C41.1656 38.9088 46.424 36.2656 49.9408 32.1048C52.7632 28.7672 54.4712 24.4496 54.4712 19.7288C54.4656 9.1448 45.8808 0.559998 35.2912 0.559998C28.6552 0.559998 22.8088 3.9312 19.3704 9.0496C17.3152 12.1016 16.1168 15.7808 16.1168 19.7344C16.1112 30.324 24.696 38.9088 35.2912 38.9088ZM52.5728 21.4256C52.5784 21.4312 52.5896 21.4424 52.5952 21.448C52.4272 23.1952 51.996 24.8864 51.3128 26.5048C51.0888 27.0312 50.8424 27.5408 50.5736 28.0392C50.5624 28.0392 50.5512 28.0392 50.54 28.0448L45.5336 28.784L43.5848 29.0752L40.376 24.892L40.292 24.78L42.3864 18.34L47.432 16.6824L52.5728 21.4256ZM36.1816 7.2464L42.2744 3.836C42.2856 3.8304 42.2968 3.8248 42.3024 3.8192C44.2736 4.6872 46.0488 5.908 47.5832 7.4424C47.8072 7.6664 48.02 7.8904 48.2272 8.1256C48.2272 8.1368 48.2216 8.1424 48.2216 8.1536L46.8776 14.9912L41.664 16.6992L36.176 12.712L36.1816 7.2464ZM39.06 26.1184L42.2016 30.212L39.4912 36.5904C39.4856 36.6016 39.48 36.6128 39.48 36.624C38.1192 36.96 36.7192 37.1336 35.2912 37.1336C33.8632 37.1336 32.4632 36.9656 31.1024 36.624C31.0968 36.6128 31.0968 36.6016 31.0912 36.5904L28.3808 30.212L31.5224 26.1184H39.06ZM22.988 7.4368C24.5224 5.9024 26.2976 4.6872 28.2688 3.8136C28.28 3.8192 28.2856 3.8248 28.2968 3.8304L34.3896 7.2408V12.712L29.2096 16.4752L28.9072 16.6992L23.6936 14.9856L23.0776 11.8496L22.3496 8.148C22.3496 8.1368 22.344 8.1256 22.344 8.12C22.5512 7.8904 22.7696 7.6608 22.988 7.4368ZM20.0032 28.0392C19.7344 27.5408 19.488 27.0312 19.264 26.5048C18.5808 24.8864 18.1496 23.1896 17.9816 21.448C17.9928 21.4424 17.9984 21.4368 18.004 21.4256L23.156 16.688L28.2016 18.3456L30.296 24.7856L27.0032 29.0808L20.0424 28.0448C20.0256 28.0392 20.0144 28.0392 20.0032 28.0392Z" fill="white"/>
</svg>
