<svg width="72" height="72" viewBox="0 0 72 72" fill="none" xmlns="http://www.w3.org/2000/svg">
<path d="M71.273 33.5372C71.273 33.5372 71.273 35.8412 71.273 36.4028C71.273 41.3852 71.273 45.8204 71.273 45.8204C71.273 46.886 70.4378 47.75 69.4082 47.75H66.5642C66.5642 43.8476 63.4034 40.6868 59.5082 40.6868C55.613 40.6868 52.4522 43.8476 52.4522 47.75H20.7218C20.7218 43.8476 17.561 40.6868 13.6586 40.6868C9.76341 40.6868 6.60261 43.8476 6.60261 47.75H2.58501C1.55541 47.75 0.720215 46.886 0.720215 45.8204V22.6436C0.720215 20.7284 1.95861 19.5332 3.75861 19.5332C3.75861 19.5332 59.6594 19.5332 61.913 19.5332C64.1666 19.5332 68.6954 22.514 70.4666 26.5532C71.3882 28.7132 71.273 33.5372 71.273 33.5372ZM12.485 23.0684H6.13461C5.09781 23.0684 4.25541 23.9108 4.25541 24.9476V30.5852C4.25541 31.622 5.09781 32.4644 6.13461 32.4644H12.485V23.0684ZM23.0762 23.0684H14.8394V32.4644H23.0762V23.0684ZM33.6314 23.0684H25.4306V32.4644H33.6314V23.0684ZM44.2082 23.0684H36.0146V32.4644H44.2082V23.0684ZM54.7994 23.0684H46.5626V32.4644H54.7994V23.0684ZM54.7994 36.8924C54.7994 36.41 54.2738 36.014 53.6258 36.014C52.9778 36.014 52.4522 36.4028 52.4522 36.8924V38.642C52.4522 39.1244 52.9778 39.5204 53.6258 39.5204C54.2738 39.5204 54.7994 39.1316 54.7994 38.642V36.8924ZM67.2842 28.5692C66.5282 25.3508 62.3666 23.0684 61.2146 23.0684C58.3922 23.0684 57.161 23.0684 57.161 23.0684V32.4644L67.6802 32.4716C67.673 32.4716 67.889 31.154 67.2842 28.5692ZM13.6586 43.0412C16.2578 43.0412 18.3674 45.1508 18.3674 47.75C18.3674 50.3492 16.2578 52.4588 13.6586 52.4588C11.0594 52.4588 8.94981 50.3492 8.94981 47.75C8.95702 45.1508 11.0594 43.0412 13.6586 43.0412ZM59.5082 43.0412C62.1074 43.0412 64.217 45.1508 64.217 47.75C64.217 50.3492 62.1074 52.4588 59.5082 52.4588C56.909 52.4588 54.7994 50.3492 54.7994 47.75C54.8066 45.1508 56.909 43.0412 59.5082 43.0412Z" fill="white"/>
</svg>
