<svg width="25" height="25" viewBox="0 0 25 25" fill="none" xmlns="http://www.w3.org/2000/svg">
<path d="M21.337 3.65934C16.4548 -1.22147 8.54016 -1.22029 3.65934 3.66203C-1.22147 8.54435 -1.22029 16.4589 3.66203 21.3397C8.54435 26.2205 16.4589 26.2194 21.3397 21.337C23.6838 18.9923 25.0003 15.8123 24.9995 12.4968C24.9988 9.1819 23.6814 6.003 21.337 3.65934ZM18.9303 17.4119C18.9298 17.4124 18.9293 17.413 18.9287 17.4135V17.4094L18.2953 18.0385C17.4762 18.868 16.2833 19.2092 15.1495 18.9385C14.0071 18.6328 12.9212 18.1461 11.9328 17.4969C11.0146 16.91 10.1636 16.224 9.39533 15.451C8.68845 14.7493 8.05339 13.9788 7.49948 13.151C6.89362 12.2603 6.41408 11.29 6.07448 10.2677C5.68517 9.06672 6.00778 7.7489 6.90783 6.86354L7.64948 6.12189C7.85568 5.91476 8.19074 5.91403 8.39782 6.12023C8.39836 6.12077 8.39894 6.12131 8.39948 6.12189L10.7411 8.46354C10.9483 8.66975 10.949 9.0048 10.7428 9.21188C10.7423 9.21242 10.7417 9.21296 10.7411 9.21354L9.36613 10.5885C8.9716 10.9788 8.92199 11.5989 9.24948 12.0469C9.7468 12.7294 10.2971 13.3716 10.8953 13.9677C11.5623 14.6376 12.2873 15.2469 13.062 15.7886C13.5096 16.1008 14.1164 16.0482 14.5036 15.6636L15.8328 14.3136C16.039 14.1065 16.374 14.1057 16.5811 14.3119C16.5817 14.3125 16.5822 14.313 16.5828 14.3136L18.9286 16.6636C19.1358 16.8697 19.1365 17.2048 18.9303 17.4119Z" fill="black"/>
</svg>
