<svg width="32" height="33" viewBox="0 0 32 33" fill="none" xmlns="http://www.w3.org/2000/svg">
<path d="M27.3117 5.19777C21.0623 -1.04967 10.9317 -1.04817 4.68422 5.20121C-1.56322 11.4506 -1.56172 21.5812 4.68766 27.8286C10.937 34.0761 21.0677 34.0746 27.3151 27.8252C30.3155 24.8239 32.0006 20.7536 31.9997 16.5098C31.9988 12.2666 30.3125 8.19764 27.3117 5.19777ZM24.2311 22.801C24.2304 22.8017 24.2297 22.8025 24.229 22.8031V22.7978L23.4183 23.6031C22.3698 24.6648 20.8429 25.1016 19.3916 24.7551C17.9294 24.3638 16.5394 23.7408 15.2743 22.9098C14.0989 22.1586 13.0097 21.2805 12.0263 20.2911C11.1215 19.393 10.3086 18.4067 9.5996 17.3471C8.82409 16.207 8.21028 14.965 7.77559 13.6565C7.27728 12.1192 7.69022 10.4324 8.84228 9.29914L9.7916 8.34983C10.0555 8.08471 10.4844 8.08377 10.7495 8.34771C10.7502 8.34839 10.7509 8.34908 10.7516 8.34983L13.7489 11.3471C14.014 11.6111 14.015 12.04 13.751 12.305C13.7503 12.3057 13.7497 12.3064 13.7489 12.3071L11.9889 14.0671C11.4839 14.5666 11.4204 15.3604 11.8396 15.9338C12.4762 16.8075 13.1806 17.6295 13.9463 18.3925C14.8 19.2499 15.728 20.0298 16.7196 20.7232C17.2925 21.1228 18.0693 21.0555 18.5649 20.5632L20.2662 18.8352C20.5302 18.5701 20.959 18.5691 21.2241 18.8331C21.2248 18.8338 21.2255 18.8345 21.2262 18.8352L24.2289 21.8432C24.4941 22.1071 24.495 22.5359 24.2311 22.801Z" fill="#76D355"/>
</svg>
