<svg width="46" height="42" viewBox="0 0 46 42" fill="none" xmlns="http://www.w3.org/2000/svg">
<path d="M18.8383 0.21859C18.283 0.46571 17.6296 1.1426 16.41 2.75426C15.4191 4.06507 14.254 5.2362 13.2848 5.92384C12.2612 6.64371 11.107 8.72812 10.5734 10.8233C10.3556 11.6613 10.3556 12.2952 10.5625 13.0796C10.7585 13.8317 10.6714 14.4871 10.2032 15.8086C9.12514 18.8386 8.96181 19.0427 6.79486 19.9452C3.26676 21.3957 1.15425 22.8999 0.348454 24.5008C0.0326676 25.1455 0 25.2959 0 26.1877C0 27.1224 0.0217784 27.2084 0.435568 28.0142C0.762244 28.6374 1.00181 28.949 1.38293 29.2391C2.4174 30.0019 4.17056 30.4962 6.96908 30.7863C10.911 31.216 11.7059 31.3987 12.4463 32.0971C12.9799 32.6021 12.9799 32.6236 12.4899 33.6228C11.7386 35.1485 8.24312 38.4148 5.55349 40.0909C4.39923 40.8108 3.64788 41.3909 3.64788 41.5521C3.64788 41.6381 3.66966 41.7025 3.69144 41.7025C3.71322 41.7025 3.99633 41.7563 4.31212 41.81C4.6388 41.8744 6.19595 41.9282 7.78577 41.9282C11.4663 41.9282 11.5425 41.9067 12.6968 40.7463C13.655 39.8008 14.6677 38.3288 15.3538 36.9213C15.822 35.9543 16.1051 35.127 16.4318 33.7087C16.6822 32.6558 16.8891 32.4624 17.8038 32.4624C18.1958 32.4624 18.7947 32.5054 19.1214 32.5591C19.4481 32.6128 20.0797 32.7095 20.5261 32.774C21.6804 32.9459 26.341 33.7195 27.7674 33.9666C39.9307 36.1262 41.5096 36.4915 42.2283 37.2759C42.5876 37.6627 42.3807 38.0495 41.2047 39.3065C40.6058 39.9512 39.9416 40.7248 39.7238 41.0364C39.3318 41.5951 39.3209 41.6166 39.5169 41.767C40.0722 42.1645 41.2156 42.0464 42.4134 41.4662C43.4588 40.9612 45.0704 39.3495 45.6257 38.2429C45.996 37.4907 46.0286 37.3618 45.9851 36.7172C45.9524 36.137 45.8871 35.9436 45.6148 35.6105C45.4406 35.3849 45.0704 35.0948 44.7981 34.9658C43.8726 34.5038 38.8853 33.5798 29.5097 32.1401C22.4862 31.0656 21.0815 30.8078 20.6459 30.5392C19.9926 30.1201 22.0071 29.2283 27.9852 27.2621L30.5006 26.4456L31.252 24.9199C32.1122 23.2008 32.82 22.1586 33.7783 21.2131C35.1068 19.9022 36.5877 16.3029 36.3808 14.8739C36.3481 14.616 36.1957 14.197 36.0432 13.9391C35.7166 13.3804 35.6839 12.6391 35.9343 10.7051C36.0215 9.99595 36.0977 8.90003 36.0977 8.27686C36.0977 6.43957 35.771 5.70895 34.6821 5.17174C33.8763 4.7742 26.7112 1.95918 24.3047 1.09963C21.2013 -0.00703812 19.8292 -0.23267 18.8383 0.21859ZM22.8564 2.38895C26.145 3.47413 31.0015 5.45109 33.212 6.60073C33.9416 6.97679 34.105 7.11647 34.2138 7.42805C34.5732 8.47025 34.1812 11.3605 33.5605 12.2845C33.1794 12.8325 32.8418 12.8969 31.9816 12.5961C30.7293 12.1556 20.2103 8.08346 18.9472 7.55698C17.5207 6.9553 16.8238 6.38585 16.8238 5.82714C16.8238 4.98908 18.6859 2.34597 19.6441 1.84099C20.1777 1.55089 20.5044 1.60461 22.8564 2.38895ZM16.998 15.6045C19.165 16.2707 25.4698 18.6774 27.7457 19.7088C28.6821 20.1279 28.693 20.1386 28.693 20.5254C28.693 21.0519 28.3664 22.1908 27.6259 24.2645L27.0052 26.0158L26.4607 26.1125C26.1667 26.1769 25.0125 26.3703 23.9018 26.553C17.0743 27.6919 16.6169 27.8208 15.4844 28.992C14.5262 29.9697 14.2866 30.0986 13.3719 30.0986C12.3919 30.0986 11.8474 30.0019 8.71136 29.2283C4.58435 28.2184 3.833 27.9283 3.36476 27.1439C2.76586 26.1232 3.19053 24.9413 4.68235 23.5768C5.81483 22.5239 7.26309 21.6643 9.73494 20.5899C11.8366 19.6766 12.0326 19.5692 12.5552 19.0964C12.969 18.7204 13.2086 18.3013 13.6115 17.2376C13.9273 16.4211 14.3411 15.6797 14.6677 15.3574C14.9509 15.078 15.4735 15.1425 16.998 15.6045Z" fill="#FF3737"/>
</svg>
