<svg width="100" height="100" viewBox="0 0 100 100" fill="none" xmlns="http://www.w3.org/2000/svg">
<circle cx="50" cy="50" r="50" fill="url(#paint0_linear_856_351)" fill-opacity="0.1"/>
<circle cx="50" cy="50" r="28" fill="white" fill-opacity="0.1"/>
<path d="M74.5301 43.3753C74.4924 43.3319 74.4604 43.2896 74.4158 43.2473L72.4534 41.3534C74.0809 40.9843 75.833 39.6208 75.833 38.2218C75.833 36.592 73.5712 36.0137 71.6408 36.0137C69.6223 36.0137 69.388 37.3966 69.364 38.3738L64.3009 33.4924C63.2722 32.474 61.3213 31.6729 59.8629 31.6729H50.0017H49.9994H40.136C38.6787 31.6729 36.7289 32.474 35.6991 33.4924L30.6371 38.3738C30.6108 37.3966 30.3765 36.0137 28.3604 36.0137C26.4277 36.0137 24.167 36.592 24.167 38.2218C24.167 39.6208 25.9202 40.9843 27.5478 41.3534L25.5854 43.2473C25.5408 43.2896 25.5099 43.3319 25.4711 43.3753C23.3715 45.1697 22 48.4979 22 50.9129V58.0893C22 59.8311 22.6869 61.4118 23.7967 62.5902V65.3732C23.7967 67.0007 25.1591 68.3277 26.8346 68.3277H30.5079C32.1835 68.3277 33.5447 67.003 33.5447 65.3732V64.6612H49.9994H50.0017H66.4553V65.3732C66.4553 67.003 67.8154 68.3277 69.4932 68.3277H73.1654C74.8421 68.3277 76.2022 67.0007 76.2022 65.3732V62.5902C77.3131 61.4118 77.9989 59.8311 77.9989 58.0893V50.9129C78.0011 48.4979 76.6296 45.1697 74.5301 43.3753ZM37.5587 35.6617C38.2707 35.0685 39.5154 34.6182 40.136 34.6182H49.9994H50.0017H59.8652C60.4858 34.6182 61.7304 35.0685 62.4425 35.6617L69.0817 42.0963H50.0017H49.9994H30.9205L37.5587 35.6617ZM24.2779 49.8271C24.2779 48.0601 25.6608 46.6258 27.3683 46.6258C29.0747 46.6258 34.6511 49.8991 34.6511 51.6661C34.6511 53.433 29.0747 53.0239 27.3683 53.0239C25.6608 53.0239 24.2779 51.5952 24.2779 49.8271ZM33.5458 61.5147H32.9572H32.3686L28.877 61.5204C27.9078 61.2187 27.2243 60.8666 26.7409 60.4883C26.4963 60.2975 26.3088 60.0986 26.1625 59.9009C26.0151 59.7009 25.9077 59.5043 25.8379 59.3077C25.4036 58.0802 26.3008 56.9521 26.3008 56.9521H32.2601L36.2329 61.5124L33.5458 61.5147ZM58.5691 61.517H50.0017H49.9994H41.432C39.6457 61.517 38.1953 60.0666 38.1953 58.2813H49.9994H50.0017H61.8059C61.8059 60.0689 60.3555 61.517 58.5691 61.517ZM59.3211 56.0732H50.0017H49.9994H40.68C38.737 56.0732 37.1598 53.6776 37.1598 50.7232H49.9994H50.0017H62.8414C62.8414 53.6788 61.2641 56.0732 59.3211 56.0732ZM74.1643 59.31C74.0935 59.5066 73.986 59.7031 73.8386 59.902C73.6934 60.0997 73.506 60.2986 73.2603 60.4895C72.778 60.8678 72.0933 61.2221 71.1241 61.5215L67.6325 61.5158H67.0439H66.4553H63.766L67.7411 56.9555H73.6992C73.6992 56.9544 74.5975 58.0802 74.1643 59.31ZM72.6328 53.0239C70.9276 53.0239 65.3512 53.4308 65.3512 51.6661C65.3512 49.9014 70.9276 46.6258 72.6328 46.6258C74.3403 46.6258 75.7233 48.0601 75.7233 49.8271C75.7233 51.5929 74.3403 53.0239 72.6328 53.0239Z" fill="white"/>
<defs>
<linearGradient id="paint0_linear_856_351" x1="50" y1="0" x2="50" y2="100" gradientUnits="userSpaceOnUse">
<stop stop-color="white"/>
<stop offset="1" stop-color="white" stop-opacity="0"/>
</linearGradient>
</defs>
</svg>
