<svg width="56" height="56" viewBox="0 0 56 56" fill="none" xmlns="http://www.w3.org/2000/svg">
<path d="M13.5205 30.0258C10.3683 30.0258 7.81631 32.5795 7.81631 35.7317C7.81631 38.8839 10.3701 41.4377 13.5205 41.4377C16.6691 41.4377 19.2247 38.8839 19.2247 35.7317C19.2247 32.5795 16.6691 30.0258 13.5205 30.0258ZM13.5205 37.4556C12.5731 37.4556 11.7966 36.6827 11.7966 35.7335C11.7966 34.7843 12.5731 34.0114 13.5205 34.0114C14.4661 34.0114 15.2408 34.7843 15.2408 35.7335C15.2408 36.6827 14.4679 37.4556 13.5205 37.4556Z" fill="white"/>
<path d="M55.0561 31.0569L54.1229 23.4668C53.9395 22.01 52.6662 20.9415 51.1969 21.0216L49.1525 21.1356L42.8054 15.4171C42.1928 14.8668 41.4039 14.5641 40.5811 14.5641L27.6857 14.5623C24.7917 14.5623 21.9851 15.5507 19.7287 17.3637L12.5339 23.1444L2.85832 25.5629C1.61526 25.8727 0.74263 26.9911 0.74263 28.2716V31.0605C0.333026 31.0587 0 31.3899 0 31.7995V35.4877C0 36.0131 0.425632 36.4387 0.950994 36.4387H6.41298C6.38982 36.2019 6.34174 35.9757 6.34174 35.7335C6.34174 31.7675 9.55446 28.5583 13.5187 28.5583C17.483 28.5583 20.6939 31.7675 20.6939 35.7335C20.6939 35.9775 20.644 36.2037 20.6209 36.4387H35.746C35.7246 36.2019 35.6765 35.9757 35.6765 35.7335C35.6765 31.7675 38.8892 28.5583 42.8517 28.5583C46.8177 28.5583 50.0251 31.7675 50.0251 35.7335C50.0251 35.9775 49.9788 36.2037 49.9539 36.4387H55.049C55.5744 36.4387 55.9982 36.0131 55.9982 35.4877V32.0097C56.0071 31.4861 55.5815 31.0569 55.0561 31.0569ZM35.9169 21.7304L17.9264 22.6404L21.3706 19.8711C23.2424 18.3663 25.5682 17.5471 27.9706 17.5471H35.9169V21.7304ZM38.9053 21.579V17.5489H40.0753C40.4813 17.5489 40.8714 17.6985 41.1723 17.9709L44.8445 21.2763L38.9053 21.579Z" fill="white"/>
<path d="M42.8553 30.0258C39.7031 30.0258 37.1511 32.5795 37.1511 35.7317C37.1511 38.8839 39.7049 41.4377 42.8553 41.4377C46.0057 41.4377 48.5595 38.8839 48.5595 35.7317C48.5595 32.5795 46.0057 30.0258 42.8553 30.0258ZM42.8553 37.4556C41.9061 37.4556 41.1332 36.6827 41.1332 35.7335C41.1332 34.7843 41.9061 34.0114 42.8553 34.0114C43.8009 34.0114 44.5774 34.7843 44.5774 35.7335C44.5774 36.6827 43.8027 37.4556 42.8553 37.4556Z" fill="white"/>
</svg>
