<svg width="56" height="56" viewBox="0 0 56 56" fill="none" xmlns="http://www.w3.org/2000/svg">
<path d="M46.4688 22.2488C46.4688 22.2488 50.5456 24.0464 50.26 33.3424L53.2 36.2768C53.2 36.2768 56.3304 29.0752 55.188 22.904C55.188 22.904 55.0928 17.1192 44.7552 9.4416C44.7552 9.4416 39.6312 10.0072 40.012 4.6984L35.9352 0.621602L28.5432 8.0192L32.144 11.6256C32.144 11.6256 41.0592 12.0008 37.9288 19.3032L24.5616 32.7768L22.0024 32.396L6.7312 47.6672C6.7312 47.6672 5.6896 51.3632 8.34401 53.6424C8.34401 53.6424 10.052 55.7312 13.6528 55.6304L28.6384 40.0792L28.924 37.52L44.1896 22.344C44.1896 22.344 45.0464 21.0168 46.4688 22.2488ZM17.5392 23.9512L22.3776 28.7896L28.924 22.2488L23.8952 17.22C29.204 5.0792 13.9384 0.341601 13.9384 0.341601C11.0936 -0.419999 11.6648 1.764 11.6648 1.764C17.64 6.692 16.6936 8.3048 16.6936 8.3048C15.9376 13.9944 11.004 16.1784 11.004 16.1784C6.076 18.2616 1.9936 11.34 1.9936 11.34C0.380801 11.0544 0.571202 12.8576 0.571202 12.8576C4.5528 30.4024 17.5392 23.9512 17.5392 23.9512ZM32.8104 39.7936L47.8856 55.8208L55.2832 48.4232L39.4464 33.152L32.8104 39.7936ZM47.8912 44.912L50.96 47.1408L49.784 50.7472H45.9928L44.8224 47.1408L47.8912 44.912Z" fill="white"/>
</svg>
