<svg width="15" height="15" viewBox="0 0 15 15" fill="none" xmlns="http://www.w3.org/2000/svg">
<g clip-path="url(#clip0)">
<path d="M12.5195 8.12219C12.4835 8.10402 12.4474 8.09495 12.411 8.09495C12.3327 8.09495 12.2638 8.125 12.2037 8.18521L11.6264 8.76243C11.5724 8.81662 11.5453 8.88267 11.5453 8.96093V11.2518C11.5453 11.6487 11.4043 11.9883 11.1215 12.2711C10.8389 12.5537 10.4991 12.695 10.1022 12.695H2.5977C2.20078 12.695 1.861 12.5537 1.57841 12.2711C1.29576 11.9883 1.15451 11.6488 1.15451 11.2518V3.74745C1.15451 3.35059 1.29576 3.01084 1.57841 2.72816C1.861 2.44553 2.20078 2.30425 2.5977 2.30425H10.1023C10.2346 2.30425 10.3698 2.32229 10.5081 2.3584C10.5442 2.37034 10.5713 2.37644 10.5891 2.37644C10.6674 2.37644 10.7366 2.34646 10.7967 2.28634L11.2386 1.84436C11.3107 1.7723 11.3379 1.68504 11.3197 1.58291C11.3017 1.48668 11.2475 1.41749 11.1573 1.37544C10.8328 1.22531 10.4808 1.1499 10.102 1.1499H2.5977C1.88214 1.1499 1.27026 1.40397 0.762131 1.9121C0.254065 2.42029 0 3.03207 0 3.74767V11.2522C0 11.9677 0.254065 12.5795 0.762163 13.0876C1.27029 13.5959 1.88217 13.85 2.59774 13.85H10.1022C10.8177 13.85 11.4296 13.5959 11.9377 13.0876C12.4459 12.5795 12.7002 11.9677 12.7002 11.2522V8.38371C12.7001 8.25753 12.6397 8.17039 12.5195 8.12219Z" fill="black"/>
<path d="M14.7834 2.94456L13.7912 1.95228C13.6468 1.808 13.4754 1.73584 13.2769 1.73584C13.0786 1.73584 12.907 1.808 12.7628 1.95228L6.92691 7.78816L4.55483 5.41593C4.41048 5.27155 4.23906 5.19949 4.0407 5.19949C3.8423 5.19949 3.67094 5.27155 3.52656 5.41593L2.5344 6.40808C2.39009 6.55239 2.31787 6.72381 2.31787 6.92231C2.31787 7.12071 2.39009 7.29206 2.5344 7.43644L6.4129 11.3149C6.55725 11.4593 6.72866 11.5314 6.92703 11.5314C7.1254 11.5314 7.29679 11.4594 7.44117 11.3149L14.7833 3.97279C14.9276 3.82851 14.9999 3.65706 14.9999 3.45866C14.9999 3.26026 14.9278 3.08884 14.7834 2.94456Z" fill="black"/>
</g>
<defs>
<clipPath id="clip0">
<rect width="15" height="15" fill="white"/>
</clipPath>
</defs>
</svg>
