<svg width="56" height="56" viewBox="0 0 56 56" fill="none" xmlns="http://www.w3.org/2000/svg">
<path d="M11.8395 5.96791C8.11944 6.53519 5.0456 9.29207 4.04264 12.9466C3.71279 14.1338 3.71279 16.5217 4.02919 17.7621C5.11112 21.9442 8.88384 24.8595 13.2244 24.8595C16.4035 24.8595 19.2931 23.3425 21.0739 20.7435L21.7073 19.8201L22.2085 20.585C23.053 21.8383 24.5039 23.1179 25.8625 23.8039C27.4983 24.6221 28.6855 24.8724 30.5458 24.7934C33.105 24.6747 35.1367 23.7776 36.9046 21.9834C37.9994 20.8751 38.6854 19.7406 39.1737 18.2896C39.4901 17.3527 39.5299 17.0229 39.5433 15.3871C39.5433 13.6987 39.517 13.4478 39.1608 12.3659C38.29 9.72719 36.2718 7.57679 33.6728 6.52175C30.9686 5.43983 27.7497 5.67727 25.2823 7.15511C24.2267 7.80135 22.9471 9.01543 22.3009 9.99151C21.9974 10.4535 21.7073 10.836 21.6675 10.836C21.6278 10.836 21.4301 10.5588 21.2055 10.2026C20.0049 8.27679 17.6305 6.61415 15.3216 6.10007C14.3987 5.88895 12.7103 5.82287 11.8395 5.96791ZM14.5438 12.8279C17.2088 14.1602 16.2719 18.237 13.2905 18.237C11.5752 18.237 10.4014 17.089 10.4014 15.3877C10.4014 13.1841 12.5782 11.8255 14.5438 12.8279ZM31.6675 12.9069C32.1026 13.1706 32.3798 13.4876 32.657 14.0017C33.9892 16.5346 31.3247 19.1996 28.7919 17.8668C27.5783 17.2206 26.9847 15.8614 27.3409 14.5426C27.5257 13.8169 28.4094 12.8671 29.1217 12.6034C29.8867 12.3267 30.9288 12.4454 31.6675 12.9069Z" fill="white"/>
<path d="M48.118 31.2441C44.1997 33.5261 40.9153 35.439 40.8358 35.4654C40.7036 35.518 40.6644 34.7267 40.6644 31.7582V27.9854H20.6125H0.559998V39.0667V50.148H20.6125H40.665L40.6913 45.346L40.731 40.5574L47.591 44.5682C51.3638 46.7712 54.675 48.697 54.9522 48.8426L55.4406 49.0935V38.0778C55.4406 32.0225 55.4008 27.062 55.3482 27.062C55.2815 27.0754 52.0363 28.9486 48.118 31.2441Z" fill="white"/>
</svg>
