<svg width="626" height="696" viewBox="0 0 626 696" fill="none" xmlns="http://www.w3.org/2000/svg">
<path d="M464.697 509.637C448.472 514.874 431.165 517.703 413.197 517.703C320.689 517.703 245.697 442.711 245.697 350.203C245.697 257.695 320.689 182.703 413.197 182.703C431.165 182.703 448.472 185.532 464.697 190.769" stroke="white" stroke-opacity="0.15"/>
<path d="M464.697 103.551C447.307 99.7219 429.237 97.7036 410.697 97.7036C272.626 97.7036 160.697 209.632 160.697 347.704C160.697 485.775 272.626 597.704 410.697 597.704C429.237 597.704 447.307 595.685 464.697 591.856" stroke="white" stroke-opacity="0.15"/>
<path d="M464.697 460.469C448.351 468.311 430.037 472.703 410.696 472.703C341.661 472.703 285.696 416.739 285.696 347.703C285.696 278.668 341.661 222.703 410.696 222.703C430.037 222.703 448.351 227.095 464.697 234.937" stroke="white" stroke-opacity="0.15"/>
<path d="M464.697 149.89C447.492 145.205 429.386 142.704 410.697 142.704C297.478 142.704 205.697 234.485 205.697 347.704C205.697 460.922 297.478 552.704 410.697 552.704C429.386 552.704 447.492 550.203 464.697 545.517" stroke="white" stroke-opacity="0.15"/>
</svg>
