<svg width="72" height="72" viewBox="0 0 72 72" fill="none" xmlns="http://www.w3.org/2000/svg">
<path d="M40.9318 71.1285C36.8926 71.4597 32.1406 71.1285 32.1406 71.1285C32.1406 71.1285 7.94141 70.5741 7.94141 51.2925C7.94141 32.0109 31.255 19.5837 31.255 19.5837H41.9182C41.9182 19.5837 64.0654 34.4661 64.0654 51.6525C64.0582 68.8389 40.9318 71.3013 40.9318 71.1285ZM31.255 18.3237V14.5509H41.9398V18.3237H31.255ZM41.767 13.2981H31.4206L25.9126 0.878127C25.9126 0.878127 29.167 3.39093 31.1758 3.39093C33.1774 3.39093 36.5974 0.798927 36.5974 0.798927C36.5974 0.798927 39.7654 3.39093 41.7742 3.39093C43.7758 3.39093 47.203 0.719727 47.203 0.719727L41.767 13.2981Z" fill="white"/>
<path d="M33.3719 60.1777H38.1959V55.4905H44.6471V51.6961H38.1959V49.6369H44.6471V45.8425H40.1039L45.5111 35.0137H40.2191L36.7199 42.3289C36.3167 43.1857 36.0071 43.9921 35.7911 44.7481C35.6039 44.0497 35.2943 43.2433 34.8623 42.3289L31.4279 35.0137H26.1431L31.4783 45.8425H26.9999V49.6369H33.3647V51.6961H26.9999V55.4905H33.3647V60.1777H33.3719Z" fill="white"/>
</svg>
