<svg width="72" height="72" viewBox="0 0 72 72" fill="none" xmlns="http://www.w3.org/2000/svg">
<path d="M43.4374 16.2937L44.3806 20.8729L45.4174 16.0921C45.4174 16.0921 45.4174 15.3793 46.4254 15.2857L50.6086 14.3425L46.123 13.2625C46.123 13.2625 45.4318 13.2121 45.3598 12.3193L44.4454 7.95605L43.3654 12.6649C43.3654 12.6649 43.2214 13.2625 42.235 13.3993L38.0518 14.2561L42.1198 15.2425C42.1198 15.2353 43.2214 15.1273 43.4374 16.2937Z" fill="white"/>
<path d="M20.2462 39.6868C20.2462 39.6868 21.1966 41.4796 23.5798 41.4796H48.4918C50.875 41.4796 51.8254 39.6868 51.8254 39.6868C52.9342 37.5484 51.7966 35.6836 51.7966 35.6836L45.4822 23.6452C45.4822 23.6452 44.4814 21.6436 42.3358 21.6436H29.635C29.635 21.6436 27.5326 21.6436 26.6038 23.6452L20.275 35.698C20.275 35.6908 19.1374 37.5484 20.2462 39.6868Z" fill="white"/>
<path d="M57.9237 31.5505L58.8669 36.1297L59.9037 31.3489C59.9037 31.3489 59.9037 30.6361 60.9117 30.5425L65.0949 29.5993L60.6093 28.5193C60.6093 28.5193 59.9181 28.4689 59.8461 27.5761L58.9317 23.2129L57.8517 27.9289C57.8517 27.9289 57.7077 28.5265 56.7213 28.6633L52.5381 29.4913L56.6061 30.4777C56.6133 30.4921 57.7221 30.3769 57.9237 31.5505Z" fill="white"/>
<path d="M70.754 58.2548L64.4396 46.2164C64.4396 46.2164 63.4388 44.2148 61.2932 44.2148H48.5996C48.5996 44.2148 46.49 44.2148 45.5684 46.2164L39.254 58.2548C39.254 58.2548 38.1164 60.1196 39.2252 62.2508C39.2252 62.2508 40.1756 64.0437 42.5588 64.0437H67.4708C69.854 64.0437 70.8044 62.2508 70.8044 62.2508C71.8988 60.1196 70.754 58.2548 70.754 58.2548Z" fill="white"/>
<path d="M26.4238 46.2096C26.4238 46.2096 25.423 44.208 23.2774 44.208H10.5766C10.5766 44.208 8.47424 44.208 7.54544 46.2096L1.23104 58.2552C1.23104 58.2552 0.0934393 60.12 1.20224 62.2512C1.20224 62.2512 2.15264 64.044 4.53584 64.044H29.4478C31.831 64.044 32.7814 62.2512 32.7814 62.2512C33.8902 60.1128 32.7526 58.2552 32.7526 58.2552L26.4238 46.2096Z" fill="white"/>
<path d="M15.8329 25.1276L16.7761 29.7068L17.8129 24.926C17.8129 24.926 17.8129 24.2132 18.8209 24.1196L23.004 23.1764L18.5185 22.0964C18.5185 22.0964 17.8273 22.046 17.7553 21.1532L16.8409 16.79L15.7609 21.4988C15.7609 21.4988 15.6169 22.0964 14.6305 22.2332L10.4473 23.0828L14.5153 24.0692C14.5225 24.0692 15.6241 23.954 15.8329 25.1276Z" fill="white"/>
</svg>
