<svg width="72" height="72" viewBox="0 0 72 72" fill="none" xmlns="http://www.w3.org/2000/svg">
<path d="M67.6138 14.3525H57.356V21.9929H36.0266V14.3525H25.8856C23.42 14.3525 21.3825 16.2416 21.3825 18.6531V22.6296H3.97936C1.7818 22.6296 0 24.4114 0 26.609C0 28.8065 1.7818 30.5883 3.97936 30.5883H21.3825V33.7718H10.3463C8.14878 33.7718 6.36698 35.5536 6.36698 37.7512C6.36698 39.9487 8.14878 41.7305 10.3463 41.7305H21.3825V44.914H16.7133C14.5158 44.914 12.734 46.6958 12.734 48.8934C12.734 51.091 14.5158 52.8727 16.7133 52.8727H21.3825V53.3474C21.3825 55.7589 23.4196 57.648 25.8856 57.648H67.6138C70.1329 57.648 72 55.7589 72 53.3474V18.6528C72 16.2413 70.1329 14.3525 67.6138 14.3525ZM50.6706 39.5021V51.281H42.3936V39.5021H38.1191L46.6085 29.9293L55.0976 39.5021H50.6706Z" fill="white"/>
</svg>
