<svg width="128" height="128" viewBox="0 0 128 128" fill="none" xmlns="http://www.w3.org/2000/svg">
<mask id="mask0_2409_2" style="mask-type:alpha" maskUnits="userSpaceOnUse" x="0" y="0" width="128" height="128">
<path d="M26.5 128H101.5C107.703 128 112.75 122.953 112.75 116.75V37.5H86.5C80.2965 37.5 75.25 32.4535 75.25 26.25V0H26.5C20.2965 0 15.25 5.0465 15.25 11.25V116.75C15.25 122.953 20.2965 128 26.5 128ZM41.5 52.75H86.5C88.5728 52.75 90.25 54.4272 90.25 56.5C90.25 58.5728 88.5728 60.25 86.5 60.25H41.5C39.4272 60.25 37.75 58.5728 37.75 56.5C37.75 54.4272 39.4272 52.75 41.5 52.75ZM41.5 67.75H86.5C88.5728 67.75 90.25 69.4272 90.25 71.5C90.25 73.5728 88.5728 75.25 86.5 75.25H41.5C39.4272 75.25 37.75 73.5728 37.75 71.5C37.75 69.4272 39.4272 67.75 41.5 67.75ZM41.5 82.75H86.5C88.5728 82.75 90.25 84.4272 90.25 86.5C90.25 88.5728 88.5728 90.25 86.5 90.25H41.5C39.4272 90.25 37.75 88.5728 37.75 86.5C37.75 84.4272 39.4272 82.75 41.5 82.75ZM41.5 97.75H71.5C73.5728 97.75 75.25 99.4272 75.25 101.5C75.25 103.573 73.5728 105.25 71.5 105.25H41.5C39.4272 105.25 37.75 103.573 37.75 101.5C37.75 99.4272 39.4272 97.75 41.5 97.75Z" fill="white"/>
<path d="M86.5 30H110.553L82.75 2.19727V26.25C82.75 28.319 84.431 30 86.5 30Z" fill="white"/>
</mask>
<g mask="url(#mask0_2409_2)">
<rect x="-59" y="-13" width="165" height="100" rx="10" fill="white" fill-opacity="0.15"/>
</g>
</svg>
