<svg width="15" height="15" viewBox="0 0 15 15" fill="none" xmlns="http://www.w3.org/2000/svg">
<g clip-path="url(#clip0_2069_3429)">
<path d="M12.5195 8.12239C12.4835 8.10423 12.4474 8.09516 12.411 8.09516C12.3327 8.09516 12.2638 8.1252 12.2037 8.18542L11.6264 8.76264C11.5724 8.81682 11.5453 8.88288 11.5453 8.96113V11.252C11.5453 11.6489 11.4043 11.9885 11.1215 12.2713C10.8389 12.5539 10.4991 12.6952 10.1022 12.6952H2.5977C2.20078 12.6952 1.861 12.5539 1.57841 12.2713C1.29576 11.9886 1.15451 11.649 1.15451 11.252V3.74765C1.15451 3.35079 1.29576 3.01105 1.57841 2.72836C1.861 2.44574 2.20078 2.30446 2.5977 2.30446H10.1023C10.2346 2.30446 10.3698 2.3225 10.5081 2.35861C10.5442 2.37055 10.5713 2.37665 10.5891 2.37665C10.6674 2.37665 10.7366 2.34666 10.7967 2.28654L11.2386 1.84457C11.3107 1.77251 11.3379 1.68525 11.3197 1.58311C11.3017 1.48688 11.2475 1.41769 11.1573 1.37565C10.8328 1.22552 10.4808 1.15011 10.102 1.15011H2.5977C1.88214 1.15011 1.27026 1.40417 0.762131 1.9123C0.254065 2.4205 0 3.03228 0 3.74788V11.2524C0 11.9679 0.254065 12.5797 0.762163 13.0878C1.27029 13.5961 1.88217 13.8502 2.59774 13.8502H10.1022C10.8177 13.8502 11.4296 13.5961 11.9377 13.0878C12.4459 12.5797 12.7002 11.9679 12.7002 11.2524V8.38391C12.7001 8.25773 12.6397 8.1706 12.5195 8.12239Z" fill="#76D355"/>
<path d="M14.7837 2.94485L13.7914 1.95257C13.6471 1.80829 13.4756 1.73613 13.2771 1.73613C13.0789 1.73613 12.9073 1.80829 12.7631 1.95257L6.92715 7.78845L4.55507 5.41622C4.41073 5.27184 4.23931 5.19978 4.04094 5.19978C3.84254 5.19978 3.67118 5.27184 3.52681 5.41622L2.53465 6.40837C2.39034 6.55269 2.31812 6.72411 2.31812 6.9226C2.31812 7.121 2.39034 7.29236 2.53465 7.43673L6.41314 11.3152C6.55749 11.4596 6.72891 11.5317 6.92728 11.5317C7.12565 11.5317 7.29703 11.4597 7.44141 11.3152L14.7836 3.97309C14.9278 3.8288 15.0001 3.65735 15.0001 3.45895C15.0001 3.26055 14.928 3.08913 14.7837 2.94485Z" fill="#76D355"/>
</g>
<defs>
<clipPath id="clip0_2069_3429">
<rect width="15" height="15" fill="white"/>
</clipPath>
</defs>
</svg>
