<svg width="50" height="50" viewBox="0 0 50 50" fill="none" xmlns="http://www.w3.org/2000/svg">
<g clip-path="url(#clip0)">
<path d="M14.5481 17.5277C13.3891 17.2377 12.6299 17.8573 12.6299 19.074C12.6299 20.6847 14.1884 24.631 15.8269 22.1666C17.4653 19.7021 14.5481 17.5277 14.5481 17.5277Z" fill="#FFE1B2"/>
<path d="M35.2765 17.5277C36.5415 17.2377 37.3703 17.8573 37.3703 19.074C37.3703 20.6847 35.6691 24.631 33.8807 22.1666C32.0922 19.7021 35.2765 17.5277 35.2765 17.5277Z" fill="#FFE1B2"/>
<path d="M40.463 8.93516C40.463 13.2051 33.54 13.5418 25.0001 13.5418C16.4602 13.5418 9.53711 13.2051 9.53711 8.93516C9.53711 4.6652 16.4602 0 25.0001 0C33.54 0 40.463 4.6652 40.463 8.93516Z" fill="#FFBE1E"/>
<path d="M16.5063 31.2319C18.2354 30.1187 18.042 26.8053 18.042 26.0322H31.9586C31.9586 26.8053 31.7442 30.1187 33.4731 31.2319L25.0003 40.722L16.5063 31.2319Z" fill="#FFD7A3"/>
<path d="M30.4123 34.5369L33.4731 31.2319C31.7441 30.1188 31.9587 26.8053 31.9587 26.0322H18.042C19.0405 28.9029 25.6445 33.8282 30.4123 34.5369Z" fill="#FDC88E"/>
<path d="M35.8242 15.9819C35.8242 22.1734 32.2591 29.8986 25.0003 29.8986C17.7414 29.8986 14.1763 22.1734 14.1763 15.9819C14.1763 9.79047 19.0224 9.84181 25.0003 9.84181C30.9781 9.84181 35.8242 9.79047 35.8242 15.9819Z" fill="#FFE1B2"/>
<path d="M16.6765 11.9677C16.1794 11.9771 15.6829 11.9437 15.1862 11.9327C14.9894 11.9284 14.7745 11.9549 14.5799 11.9319C14.5516 11.9285 14.5456 11.9254 14.5287 11.922C14.1468 11.9793 13.7697 11.9877 13.4038 11.9454C13.5104 14.2389 13.8424 16.4474 14.1114 17.4786L15.4965 18.0263L18.0689 11.8408C17.6074 11.9184 17.1382 11.9589 16.6765 11.9677Z" fill="#7E5449"/>
<path d="M34.7853 12.5474C34.0014 12.5606 33.2207 12.6458 32.4536 12.6282L34.5757 17.9208L35.9022 17.4739C35.9022 17.4739 36.1906 14.5276 36.4073 12.1523C35.9002 12.3944 35.3468 12.5378 34.7853 12.5474Z" fill="#7E5449"/>
<path d="M25.0271 14.9332C31.467 14.9332 36.6875 13.6853 36.6875 12.1458C36.6875 10.6064 31.467 9.3584 25.0271 9.3584C18.5872 9.3584 13.3667 10.6064 13.3667 12.1458C13.3667 13.6853 18.5872 14.9332 25.0271 14.9332Z" fill="#29394A"/>
<path d="M42.7825 49.9999C44.0635 49.9999 45.1019 48.9615 45.1019 47.6805V40.224C45.1019 36.8221 42.451 33.1903 39.211 32.1537L34.3741 30.606C31.7717 32.5958 28.0527 35.3103 25.0002 35.3103C21.9477 35.3103 18.2287 32.5958 15.6263 30.606L10.7893 32.1537C7.54933 33.1903 4.89844 36.8221 4.89844 40.224V47.6805C4.89844 48.9615 5.93685 49.9999 7.21788 49.9999H42.7825Z" fill="#29394A"/>
<path d="M29.6392 49.9729H43.0549C44.206 49.8366 45.102 48.8686 45.102 47.6809V40.2243C45.102 36.8224 42.4511 33.1907 39.2111 32.154L34.9958 30.8052H34.9956L29.6392 49.9729Z" fill="#FFBE1E"/>
<path d="M15.0049 30.8052H15.0047L10.7893 32.154C7.54933 33.1906 4.89844 36.8224 4.89844 40.2243V47.6809C4.89844 48.8685 5.79456 49.8365 6.94553 49.9728H20.3613L15.0049 30.8052Z" fill="#FFBE1E"/>
<path d="M13.3667 10.4802V12.1815C15.9135 11.734 20.184 11.44 25.0271 11.44C29.8702 11.44 34.1409 11.734 36.6875 12.1815V10.4802C34.1409 9.24101 29.8702 8.42725 25.0271 8.42725C20.184 8.42725 15.9135 9.24101 13.3667 10.4802Z" fill="#936448"/>
<path d="M22.4231 2.90771H20.6191V4.71171H22.4231V2.90771Z" fill="#29394A"/>
<path d="M24.2273 4.71143H22.4233V6.51542H24.2273V4.71143Z" fill="#29394A"/>
<path d="M26.031 2.90771H24.2271V4.71171H26.031V2.90771Z" fill="#29394A"/>
<path d="M27.8353 4.71143H26.0312V6.51542H27.8353V4.71143Z" fill="#29394A"/>
<path d="M29.6394 2.90771H27.8354V4.71171H29.6394V2.90771Z" fill="#29394A"/>
</g>
<defs>
<clipPath id="clip0">
<rect width="50" height="50" fill="white"/>
</clipPath>
</defs>
</svg>
