<svg width="150" height="150" viewBox="0 0 150 150" fill="none" xmlns="http://www.w3.org/2000/svg">
<path d="M43.644 52.584C40.1671 51.7141 37.8894 53.5728 37.8894 57.223C37.8894 62.0552 42.5651 73.894 47.4804 66.5007C52.3957 59.1074 43.644 52.584 43.644 52.584Z" fill="#FFE1B2"/>
<path d="M105.83 52.584C109.625 51.7141 112.111 53.5728 112.111 57.223C112.111 62.0552 107.008 73.894 101.642 66.5007C96.2768 59.1074 105.83 52.584 105.83 52.584Z" fill="#FFE1B2"/>
<path d="M121.389 26.8055C121.389 39.6153 100.62 40.6255 75.0003 40.6255C49.3806 40.6255 28.6113 39.6153 28.6113 26.8055C28.6113 13.9956 49.3806 0 75.0003 0C100.62 0 121.389 13.9956 121.389 26.8055Z" fill="#FFBE1E"/>
<path d="M49.5181 93.6967C54.7052 90.3569 54.125 80.417 54.125 78.0977H95.8749C95.8749 80.417 95.2317 90.3569 100.418 93.6967L75 122.167L49.5181 93.6967Z" fill="#FFD7A3"/>
<path d="M91.2362 103.612L100.419 93.6967C95.2316 90.3573 95.8752 80.417 95.8752 78.0977H54.1252C57.1206 86.7098 76.9329 101.485 91.2362 103.612Z" fill="#FDC88E"/>
<path d="M107.472 47.9447C107.472 66.5191 96.7769 89.6947 75.0003 89.6947C53.2236 89.6947 42.5283 66.5191 42.5283 47.9447C42.5283 29.3704 57.0667 29.5245 75.0003 29.5245C92.9338 29.5245 107.472 29.3704 107.472 47.9447Z" fill="#FFE1B2"/>
<path d="M50.0292 35.9022C48.5378 35.9304 47.0486 35.8303 45.5583 35.7971C44.9679 35.7841 44.3232 35.8637 43.7395 35.7947C43.6546 35.7844 43.6366 35.7753 43.5858 35.765C42.4403 35.9371 41.3088 35.9621 40.2112 35.8352C40.5309 42.7156 41.527 49.3412 42.3338 52.4349L46.4892 54.0779L54.2064 35.5215C52.8219 35.7541 51.4144 35.8757 50.0292 35.9022Z" fill="#7E5449"/>
<path d="M104.356 37.6421C102.004 37.6819 99.6619 37.9375 97.3606 37.8846L103.727 53.7624L107.706 52.4216C107.706 52.4216 108.572 43.5828 109.222 36.457C107.7 37.1831 106.04 37.6135 104.356 37.6421Z" fill="#7E5449"/>
<path d="M75.0806 44.7997C94.4002 44.7997 110.062 41.0558 110.062 36.4375C110.062 31.8191 94.4002 28.0752 75.0806 28.0752C55.761 28.0752 40.0994 31.8191 40.0994 36.4375C40.0994 41.0558 55.761 44.7997 75.0806 44.7997Z" fill="#29394A"/>
<path d="M128.347 150C132.19 150 135.306 146.885 135.306 143.041V120.672C135.306 110.466 127.353 99.571 117.633 96.4611L103.122 91.8179C95.3149 97.7875 84.1578 105.931 75.0003 105.931C65.8429 105.931 54.6858 97.7875 46.8787 91.8179L32.3678 96.4611C22.6477 99.571 14.6951 110.466 14.6951 120.672V143.041C14.6951 146.885 17.8103 150 21.6534 150H128.347Z" fill="#29394A"/>
<path d="M88.917 149.918H129.164C132.618 149.509 135.306 146.605 135.306 143.042V120.672C135.306 110.466 127.353 99.571 117.633 96.461L104.987 92.4146H104.986L88.917 149.918Z" fill="#FFBE1E"/>
<path d="M45.0144 92.4141H45.0137L32.3678 96.4605C22.6477 99.5705 14.6951 110.466 14.6951 120.671V143.041C14.6951 146.604 17.3834 149.508 20.8363 149.917H61.0837L45.0144 92.4141Z" fill="#FFBE1E"/>
<path d="M40.0994 31.4406V36.5446C47.7397 35.202 60.5514 34.3201 75.0806 34.3201C89.6099 34.3201 102.422 35.202 110.062 36.5446V31.4406C102.422 27.723 89.6099 25.2817 75.0806 25.2817C60.5514 25.2817 47.7397 27.723 40.0994 31.4406Z" fill="#936448"/>
<path d="M67.2687 8.72168H61.8567V14.1337H67.2687V8.72168Z" fill="#29394A"/>
<path d="M72.6808 14.1338H67.2688V19.5458H72.6808V14.1338Z" fill="#29394A"/>
<path d="M78.0926 8.72168H72.6807V14.1337H78.0926V8.72168Z" fill="#29394A"/>
<path d="M83.5045 14.1338H78.0925V19.5458H83.5045V14.1338Z" fill="#29394A"/>
<path d="M88.9171 8.72168H83.5051V14.1337H88.9171V8.72168Z" fill="#29394A"/>
</svg>
