<svg width="30" height="30" viewBox="0 0 30 30" fill="none" xmlns="http://www.w3.org/2000/svg">
<path d="M11.25 26.25C11.25 26.9062 11.4375 27.5625 11.7656 28.125H14.5312V26.5312L11.5781 24.7031C11.3906 25.1719 11.25 25.6875 11.25 26.25Z" fill="black"/>
<path d="M15.4688 26.5313V28.125H18.2344C18.8438 27.0938 18.9375 25.7813 18.375 24.6562L15.4688 26.5313Z" fill="black"/>
<path d="M15 22.5C13.875 22.5 12.7969 23.0156 12.0938 23.8594L15 25.6875L17.9063 23.8594C17.2031 23.0156 16.125 22.5 15 22.5Z" fill="black"/>
<path d="M12.7031 15.7969C12.3281 15.6094 11.9531 15.375 11.6719 15.0938L10.4531 15.6094L11.4844 18L13.8281 16.2187C13.5938 16.1719 13.3594 16.0781 13.125 15.9375L12.7031 15.7969Z" fill="black"/>
<path d="M14.4375 19.1719L14.1562 21.6562C14.7187 21.5625 15.2812 21.5625 15.8437 21.6562L15.5625 19.1719C15.1875 19.3594 14.8125 19.3594 14.4375 19.1719Z" fill="black"/>
<path d="M15 16.5L13.8281 17.3906L14.6719 18.2344C14.8594 18.4219 15.1406 18.4219 15.3281 18.2344L16.1719 17.3906L15 16.5Z" fill="black"/>
<path d="M17.2969 15.7969L16.875 15.9844C16.6406 16.0781 16.4062 16.1719 16.1719 16.2656L18.5156 18.0469L19.5469 15.6563L18.3281 15.1406C18.0469 15.3281 17.6719 15.6094 17.2969 15.7969Z" fill="black"/>
<path d="M20.1562 10.7344V9.98437C20.1562 9.65625 19.875 9.375 19.5469 9.375C19.5 9.375 19.4531 9.375 19.4063 9.375L19.2188 9.42188V8.4375L18.1406 9.28125C17.7188 9.60937 17.2031 9.79687 16.6875 9.79687H12.9844C12.375 9.79687 11.7656 9.5625 11.3438 9.09375L10.7812 8.625V9.42188L10.5938 9.375C10.2656 9.28125 9.9375 9.51563 9.84375 9.84375V9.98437V10.7344C9.84375 10.9688 9.98438 11.1563 10.1719 11.2969L10.7812 11.625C10.9219 13.0781 11.7656 14.3438 13.0781 15L13.5 15.1875C14.4375 15.6563 15.5156 15.6563 16.4531 15.1875L16.875 15C18.1875 14.3438 19.0313 13.0781 19.1719 11.625L19.7812 11.2969C20.0156 11.1563 20.1562 10.9688 20.1562 10.7344Z" fill="black"/>
<path d="M9.89063 6.84375L10.2656 6.98438L10.4063 6.89062C13.2188 5.20313 16.7344 5.20313 19.5938 6.89062L19.7812 6.98438C20.8125 6.75 21.5625 5.8125 21.5625 4.6875V4.64062C21.5625 4.03125 21.1875 3.51562 20.5781 3.32812L17.6719 2.34375C15.9375 1.73438 14.0625 1.73438 12.3281 2.34375L9.42188 3.28125C8.8125 3.46875 8.4375 4.03125 8.4375 4.64062C8.4375 5.57812 9 6.46875 9.89063 6.84375Z" fill="black"/>
<path d="M12.9844 8.90606H16.6875C17.0156 8.90606 17.2969 8.81231 17.5781 8.57794L18.8906 7.54669C16.4531 6.18732 13.5 6.23419 11.1094 7.59356L12 8.48419C12.2344 8.76544 12.6094 8.90606 12.9844 8.90606Z" fill="black"/>
<path d="M13.1719 21.9375L13.5469 18.4688L13.0781 18L11.0625 19.5L9.5625 15.9844L7.21875 17.0156C5.67187 17.6719 4.6875 19.2188 4.6875 20.8594V28.125H8.4375V23.4375H9.375V28.125H10.7344C9.70312 25.7813 10.7344 23.0156 13.125 21.9844C13.125 21.9375 13.1719 21.9375 13.1719 21.9375Z" fill="black"/>
<path d="M22.7812 17.0156L20.4375 15.9844L18.9375 19.5L16.9219 18L16.4531 18.4688L16.8281 21.9375C19.2188 22.9219 20.3438 25.6406 19.3594 28.0312C19.3594 28.0781 19.3125 28.0781 19.3125 28.125H20.625V23.4375H21.5625V28.125H25.3125V20.8594C25.3125 19.2188 24.3281 17.6719 22.7812 17.0156Z" fill="black"/>
</svg>
