<svg width="22" height="22" viewBox="0 0 22 22" fill="none" xmlns="http://www.w3.org/2000/svg">
<g clip-path="url(#clip0_103_154)">
<path opacity="0.964" fill-rule="evenodd" clip-rule="evenodd" d="M5.39258 1.31059C6.47075 1.17617 7.22984 1.5987 7.66992 2.57816C6.43814 2.60681 5.20639 2.60681 3.97461 2.57816C4.24009 1.91855 4.71273 1.49602 5.39258 1.31059Z" fill="white"/>
<path opacity="0.964" fill-rule="evenodd" clip-rule="evenodd" d="M10.5488 1.31059C11.627 1.17617 12.3861 1.5987 12.8262 2.57816C11.5944 2.60681 10.3626 2.60681 9.13086 2.57816C9.39632 1.91855 9.86898 1.49602 10.5488 1.31059Z" fill="white"/>
<path opacity="0.964" fill-rule="evenodd" clip-rule="evenodd" d="M15.7051 1.31059C16.7832 1.17617 17.5423 1.5987 17.9824 2.57816C16.7506 2.60681 15.5189 2.60681 14.2871 2.57816C14.5526 1.91855 15.0252 1.49602 15.7051 1.31059Z" fill="white"/>
<path opacity="0.996" fill-rule="evenodd" clip-rule="evenodd" d="M4.06096 3.88867C8.67297 3.88151 13.2849 3.88867 17.8969 3.91016C18.6775 4.11784 19.1717 4.61197 19.3793 5.39258C19.4008 5.75038 19.4079 6.10844 19.4008 6.4668C13.7862 6.4668 8.17165 6.4668 2.55705 6.4668C2.35541 5.17812 2.85671 4.31875 4.06096 3.88867Z" fill="white"/>
<path opacity="0.994" fill-rule="evenodd" clip-rule="evenodd" d="M19.4004 11.623C18.1935 11.6438 16.9904 11.6223 15.791 11.5585C15.6633 11.4827 15.5702 11.3753 15.5117 11.2363C15.5077 10.647 15.4791 10.0598 15.4258 9.47456C15.1988 9.07366 14.8766 8.98059 14.459 9.19526C14.368 9.26964 14.3036 9.36275 14.2656 9.47456C14.1679 10.1953 14.1894 10.9114 14.3301 11.623C13.986 11.6301 13.6423 11.623 13.2988 11.6015C13.1198 11.5371 12.998 11.4153 12.9336 11.2363C12.9296 10.647 12.9009 10.0598 12.8477 9.47456C12.6207 9.07366 12.2984 8.98059 11.8809 9.19526C11.7899 9.26964 11.7254 9.36275 11.6875 9.47456C11.5898 10.1953 11.6113 10.9114 11.752 11.623C11.4079 11.6301 11.0642 11.623 10.7207 11.6015C10.5417 11.5371 10.4199 11.4153 10.3555 11.2363C10.3515 10.647 10.3228 10.0598 10.2695 9.47456C10.0426 9.07366 9.7203 8.98059 9.30273 9.19526C9.21177 9.26964 9.14732 9.36275 9.10938 9.47456C9.01166 10.1953 9.03315 10.9114 9.17383 11.623C8.82978 11.6301 8.48603 11.623 8.14258 11.6015C7.96353 11.5371 7.8418 11.4153 7.77734 11.2363C7.77335 10.647 7.74469 10.0598 7.69141 9.47456C7.46445 9.07366 7.14218 8.98059 6.72461 9.19526C6.63364 9.26964 6.56919 9.36275 6.53125 9.47456C6.44909 10.1041 6.44909 10.7343 6.53125 11.3652C6.79366 12.3151 7.41671 12.8235 8.40039 12.8906C12.067 12.9121 15.7337 12.9192 19.4004 12.9121C19.4004 13.3417 19.4004 13.7714 19.4004 14.2011C13.7858 14.2011 8.17124 14.2011 2.55664 14.2011C2.55664 13.7714 2.55664 13.3417 2.55664 12.9121C2.12695 12.9121 1.69727 12.9121 1.26758 12.9121C1.27472 13.2132 1.26756 13.514 1.24609 13.8144C1.05928 14.176 0.765664 14.2977 0.365234 14.1796C0.185402 14.1071 0.0564957 13.9854 -0.0214844 13.8144C-0.0214844 11.9238 -0.0214844 10.0332 -0.0214844 8.14253C0.175366 7.78683 0.476145 7.6651 0.880859 7.77729C1.0599 7.84175 1.18164 7.96348 1.24609 8.14253C1.26756 8.44297 1.27472 8.74375 1.26758 9.04487C1.69727 9.04487 2.12695 9.04487 2.55664 9.04487C2.55664 8.61518 2.55664 8.1855 2.55664 7.75581C8.17124 7.75581 13.7858 7.75581 19.4004 7.75581C19.4004 9.04487 19.4004 10.3339 19.4004 11.623Z" fill="white"/>
<path opacity="0.986" fill-rule="evenodd" clip-rule="evenodd" d="M19.4004 11.6231C20.131 11.6159 20.8615 11.6231 21.5918 11.6445C21.7716 11.7171 21.9005 11.8388 21.9785 12.0098C21.9785 12.1816 21.9785 12.3535 21.9785 12.5254C21.9005 12.6964 21.7716 12.8181 21.5918 12.8906C20.8615 12.9121 20.131 12.9193 19.4004 12.9121C19.4004 12.4824 19.4004 12.0527 19.4004 11.6231Z" fill="white"/>
<path opacity="0.997" fill-rule="evenodd" clip-rule="evenodd" d="M2.55639 15.4902C8.17099 15.4902 13.7855 15.4902 19.4001 15.4902C19.4202 16.7671 19.3988 18.0418 19.3357 19.3145C19.1137 19.9375 18.6912 20.36 18.0681 20.582C17.0031 20.6314 15.936 20.6528 14.8669 20.6465C13.7978 20.6528 12.7308 20.6314 11.6658 20.582C10.9738 20.3341 10.5369 19.8542 10.3552 19.1426C10.3337 18.7848 10.3266 18.4267 10.3337 18.0684C8.18332 18.0891 6.03488 18.0676 3.88842 18.0039C3.1964 17.7559 2.75955 17.2761 2.57787 16.5645C2.5564 16.2067 2.54924 15.8486 2.55639 15.4902Z" fill="white"/>
<path opacity="0.985" fill-rule="evenodd" clip-rule="evenodd" d="M21.9785 15.8769C21.9785 16.4785 21.9785 17.0801 21.9785 17.6816C21.9005 17.8526 21.7716 17.9743 21.5918 18.0469C21.2914 18.0683 20.9906 18.0755 20.6895 18.0683C20.6895 17.209 20.6895 16.3496 20.6895 15.4902C20.9906 15.4831 21.2914 15.4902 21.5918 15.5117C21.7716 15.5842 21.9005 15.706 21.9785 15.8769Z" fill="white"/>
</g>
<defs>
<clipPath id="clip0_103_154">
<rect width="22" height="22" fill="white"/>
</clipPath>
</defs>
</svg>
