<svg width="18" height="17" viewBox="0 0 18 17" style="opacity: .4" fill="none" xmlns="http://www.w3.org/2000/svg">
<path d="M12.0764 0.8563C11.0305 0.8563 10.074 1.18555 9.2331 1.83469C8.99765 2.01627 8.77505 2.22055 8.56663 2.44566C8.3582 2.22028 8.13587 2.01627 7.90042 1.83469C7.05924 1.18555 6.10275 0.8563 5.05716 0.8563C3.66963 0.8563 2.39288 1.41145 1.4618 2.41949C0.552126 3.40429 0.0512695 4.74291 0.0512695 6.1886C0.0512695 9.31444 2.45228 11.3564 5.77553 14.1829C6.32134 14.6473 6.94018 15.1739 7.58124 15.733C7.85387 15.9715 8.20383 16.1026 8.56663 16.1026C8.92943 16.1026 9.27938 15.9715 9.55175 15.7336C10.1979 15.1693 10.8143 14.6451 11.3583 14.1826C14.6812 11.3564 17.0823 9.31444 17.0823 6.1886C17.0823 4.74264 16.5811 3.40429 15.6715 2.41922C14.7404 1.41145 13.4636 0.8563 12.0764 0.8563ZM10.0242 12.6203C9.57984 12.9984 9.08728 13.4173 8.56663 13.8676C8.04918 13.4197 7.55528 12.9997 7.10954 12.6205C3.99043 9.96786 2.10794 8.36676 2.10794 6.1886C2.10794 4.28816 3.3483 2.90895 5.05716 2.90895C5.6447 2.90895 6.16321 3.08866 6.64213 3.45823C7.08332 3.79896 7.39475 4.23635 7.57856 4.5437C7.78511 4.88924 8.16369 5.10366 8.56663 5.10366C8.96956 5.10366 9.34841 4.88924 9.55496 4.54344C9.73877 4.23635 10.0502 3.79896 10.4914 3.45823C10.9703 3.08866 11.4886 2.90895 12.0764 2.90895C13.7852 2.90895 15.0256 4.28816 15.0256 6.1886C15.0256 8.36676 13.1431 9.96786 10.0242 12.6203Z" fill="white"/>
</svg>
