<svg width="72" height="72" viewBox="0 0 72 72" fill="none" xmlns="http://www.w3.org/2000/svg">
<path d="M62.4386 29.6997C62.453 29.3541 62.4602 29.0013 62.4602 28.6485C62.4602 17.7765 55.1018 8.52453 44.8346 5.09013L41.8754 12.4773V0.719727H30.1178V12.4773L27.1658 5.09013C16.8986 8.52453 9.54021 17.7765 9.54021 28.6485C9.54021 29.0013 9.54741 29.3541 9.56181 29.6997C4.06101 32.5509 0.720215 36.3021 0.720215 40.4133C0.720215 46.1085 7.15701 51.1197 16.877 53.9997C20.153 64.0869 28.4114 71.2797 36.0002 71.2797C43.589 71.2797 51.8474 64.0869 55.1234 53.9997C64.8434 51.1197 71.2802 46.1085 71.2802 40.4133C71.2802 36.3021 67.9394 32.5509 62.4386 29.6997ZM36.0002 9.53973C39.2474 9.53973 41.8826 12.1749 41.8826 15.4221C41.8826 18.6693 39.2474 21.3045 36.0002 21.3045C32.753 21.3045 30.1178 18.6693 30.1178 15.4221C30.1178 12.1749 32.753 9.53973 36.0002 9.53973ZM53.6402 47.7573C53.5754 47.7573 53.5034 47.7573 53.4386 47.7501C51.9338 59.2773 43.877 68.3421 36.0002 68.3421C28.1234 68.3421 20.4914 59.2485 18.6338 47.7573C18.5402 47.7645 18.4538 47.7645 18.3602 47.7645C15.113 47.7645 12.4778 45.1293 12.4778 41.8821C12.4778 38.6349 15.113 38.9445 18.3602 38.9445C18.5114 38.9445 18.6626 38.9445 18.8138 38.9445C21.0386 31.8813 29.2826 33.0693 36.0002 33.0693C42.7106 33.0693 50.5802 31.9389 52.9706 38.9445C53.1938 38.9445 53.417 38.9445 53.6402 38.9445C56.8874 38.9445 59.5226 38.6349 59.5226 41.8821C59.5226 45.1293 56.8874 47.7573 53.6402 47.7573Z" fill="white"/>
</svg>
