<svg width="72" height="72" viewBox="0 0 72 72" fill="none" xmlns="http://www.w3.org/2000/svg">
<path d="M69 33H62.34L60.84 27H66C67.6589 27 68.9999 25.656 68.9999 24V2.99995C69 1.34395 67.659 0 66 0H36C34.341 0 33 1.34395 33 2.99995V23.9999C33 25.6559 34.341 26.9999 36 26.9999H41.16L39.6599 32.9999H23.9999V30C23.9999 26.6909 21.3089 23.9999 17.9999 23.9999V18H23.9999C24.924 18 25.797 17.574 26.364 16.845C26.9339 16.119 27.135 15.1681 26.91 14.271L23.91 2.27109C23.574 0.938953 22.377 0 21 0H9C7.623 0 6.426 0.938953 6.09005 2.27095L3.09009 14.2709C2.86509 15.168 3.06605 16.1189 3.63614 16.8449C4.20314 17.5739 5.07614 17.9999 6.00019 17.9999H12.0002V23.9999C8.69119 23.9999 6.00019 26.6909 6.00019 30V32.9999H2.99995C1.341 33 0 34.344 0 36V45V69C0 70.656 1.341 72 2.99995 72H21C22.6589 72 23.9999 70.656 23.9999 69V48H48V68.9999C48 70.6559 49.341 71.9999 50.9999 71.9999H68.9999C70.6589 71.9999 71.9999 70.6559 71.9999 68.9999V45V36C72 34.344 70.659 33 69 33ZM47.343 27H54.657L56.157 33H45.843L47.343 27ZM12 60C10.344 60 9 58.6561 9 57.0001C9 55.3441 10.344 54 12 54C13.656 54 14.9999 55.344 14.9999 57C14.9999 58.656 13.656 60 12 60ZM60 60C58.344 60 57.0001 58.6561 57.0001 57.0001C57.0001 55.3441 58.344 54 60 54C61.656 54 63 55.344 63 57C63 58.656 61.656 60 60 60ZM66 42H51H21H6.00005V39.0001H9H21H41.9999H59.9999H66V42Z" fill="white"/>
</svg>
