<svg width="72" height="72" viewBox="0 0 72 72" fill="none" xmlns="http://www.w3.org/2000/svg">
<path d="M71.5199 27.6905L66.7451 24.1097L41.2967 4.76808C38.2235 2.43408 33.7751 2.43408 30.7031 4.76808L5.25474 24.1097L0.479941 27.6905C-0.0504595 28.0877 -0.157259 28.8401 0.23994 29.3693C0.47514 29.6849 0.83634 29.8493 1.20114 29.8493C1.45074 29.8493 1.70394 29.7713 1.91994 29.6093L4.79994 27.4493V31.3133C4.53234 31.4573 4.28994 31.6253 4.09554 31.8293L3.46554 32.3729C2.35674 32.9633 1.52754 34.1213 1.28514 35.4365C1.15194 36.1553 1.19394 36.9137 1.40754 37.6313C1.52394 38.0261 1.43154 38.5037 1.15794 38.9069C-0.0984596 40.7657 -0.352859 43.3553 0.52554 45.3557C0.65874 45.6569 0.82314 45.9401 1.01634 46.2017C1.29354 46.5761 1.39194 47.0717 1.27914 47.5301C1.21794 47.7761 1.17594 48.0293 1.15314 48.2777C1.05474 49.3517 1.27554 50.3957 1.45314 51.2345C1.63914 52.1165 1.92114 53.4497 2.91114 54.3005C3.43074 54.7481 4.08354 54.9917 4.80234 55.0325V58.6493H1.61874C1.16394 58.6493 0.73314 58.8473 0.43674 59.1917C0.139141 59.5361 0.00834052 59.9921 0.0767405 60.4421L1.36794 68.9825H8.20554H10.6319H14.3999H58.7999H63.7835C65.6675 68.9825 67.1999 67.4501 67.1999 65.5661V27.4493L70.0799 29.6093C70.2959 29.7713 70.5491 29.8493 70.7987 29.8493C71.1635 29.8493 71.5235 29.6837 71.7599 29.3693C72.1571 28.8401 72.0503 28.0877 71.5199 27.6905ZM16.7999 66.5837V62.9837H56.3999V66.5837H16.7999ZM56.3999 50.9837V54.5837H16.7999V50.9837H56.3999ZM56.3999 42.5837H16.7999V38.9837H56.3999V42.5837ZM63.7835 66.5837H58.7999V30.5837H14.3999V66.5837H10.9955L11.9255 60.4349C11.9927 59.9873 11.8619 59.5337 11.5667 59.1905C11.2703 58.8473 10.8419 58.6505 10.3883 58.6505H7.19994V54.4997C7.26714 54.4685 7.33314 54.4349 7.39914 54.4013C9.33234 53.4029 10.6943 51.8717 11.2343 50.0873C11.6051 48.8645 11.5235 47.4377 11.0183 46.2689C10.8299 45.8333 10.7927 45.3737 10.8995 45.0053C10.9367 44.8745 10.9907 44.7545 11.0651 44.6525C11.4743 44.0897 11.8367 43.4129 12.1415 42.6401C12.5975 41.4893 12.7667 40.4765 12.6875 39.5513C12.6731 39.3761 12.6647 39.1985 12.6311 39.0305C12.5063 38.4089 12.2315 37.8269 11.8331 37.3433C11.6111 37.0745 11.5127 36.6581 11.5883 36.3065C11.7959 35.3357 11.6627 34.2905 11.2211 33.4361C10.5179 32.0825 9.10674 31.1321 7.44594 30.8969C7.38114 30.8873 7.31394 30.8801 7.24794 30.8729L33.8087 10.6877C35.0975 9.70848 36.8999 9.70728 38.1911 10.6877L64.7999 30.9101V65.5673C64.7999 66.1277 64.3439 66.5837 63.7835 66.5837Z" fill="white"/>
</svg>
