<svg width="72" height="72" viewBox="0 0 72 72" fill="none" xmlns="http://www.w3.org/2000/svg">
<path d="M64.7997 59.3994H7.19971V64.1994H64.7997V59.3994Z" fill="white"/>
<path d="M49.3008 36.7002C49.8612 40.293 52.7064 43.1381 56.2991 43.6985C55.7387 40.1059 52.8936 37.2606 49.3008 36.7002Z" fill="white"/>
<path d="M58.9004 36.4983C62.4932 35.938 65.3384 33.0927 65.8987 29.5C62.3061 30.0603 59.4608 32.9055 58.9004 36.4983Z" fill="white"/>
<path d="M37.3003 50.8987C40.8931 50.3383 43.7382 47.4931 44.2986 43.9004C40.706 44.4606 37.8608 47.3059 37.3003 50.8987Z" fill="white"/>
<path d="M71.2908 23.505L36.4908 7.90506C36.1787 7.76472 35.82 7.76472 35.5092 7.90506L0.709172 23.505C0.277172 23.6982 0 24.1278 0 24.5994V62.9994C0 63.663 0.536344 64.1994 1.19995 64.1994H4.79995V58.1993C4.79995 57.5357 5.3363 56.9994 5.99991 56.9994H13.1999V46.1286C7.80708 45.5298 3.59986 40.9494 3.59986 35.3995C3.59986 34.7359 4.1362 34.1995 4.79981 34.1995C8.19099 34.1995 11.2186 35.774 13.1998 38.2255V26.0658C13.1998 25.4022 13.7361 24.8658 14.3997 24.8658C15.0633 24.8658 15.5997 25.4022 15.5997 26.0658V31.0254C17.5809 28.5737 20.6085 26.9994 23.9996 26.9994C24.6632 26.9994 25.1996 27.5357 25.1996 28.1994C25.1996 33.7494 20.9912 38.3297 15.5995 38.9285V45.4254C17.5808 42.9737 20.6083 41.3994 23.9995 41.3994C24.6631 41.3994 25.1994 41.9357 25.1994 42.5994C25.1994 48.1494 20.9911 52.7297 15.5994 53.3286V56.9994H34.7993V46.1286C29.4065 45.5298 25.1993 40.9494 25.1993 35.3995C25.1993 34.7359 25.7356 34.1995 26.3993 34.1995C29.7904 34.1995 32.8181 35.774 34.7992 38.2255V26.0658C34.7992 25.4022 35.3356 24.8658 35.9992 24.8658C36.6628 24.8658 37.1991 25.4022 37.1991 26.0658V31.0254C39.1804 28.5737 42.2079 26.9994 45.5991 26.9994C46.2627 26.9994 46.799 27.5357 46.799 28.1994C46.799 33.7494 42.5907 38.3297 37.199 38.9285V45.4254C39.1802 42.9737 42.2078 41.3994 45.5989 41.3994C46.2625 41.3994 46.7989 41.9357 46.7989 42.5994C46.7989 48.1494 42.5905 52.7297 37.1988 53.3286V56.9994H56.3988V46.1286C51.006 45.5298 46.7987 40.9494 46.7987 35.3995C46.7987 34.7359 47.3351 34.1995 47.9987 34.1995C51.3899 34.1995 54.4175 35.774 56.3986 38.2255V26.0658C56.3986 25.4022 56.935 24.8658 57.5986 24.8658C58.2622 24.8658 58.7985 25.4022 58.7985 26.0658V31.0254C60.7798 28.5737 63.8073 26.9994 67.1985 26.9994C67.8621 26.9994 68.3985 27.5357 68.3985 28.1994C68.3985 33.7494 64.1901 38.3297 58.7984 38.9285V45.4254C60.7797 42.9737 63.8072 41.3994 67.1984 41.3994C67.862 41.3994 68.3983 41.9357 68.3983 42.5994C68.3983 48.1494 64.19 52.7297 58.7983 53.3286V56.9994H65.9983C66.6619 56.9994 67.1982 57.5357 67.1982 58.1993V64.1994H70.7982C71.4618 64.1994 71.9982 63.663 71.9982 62.9994V24.5994C72 24.1278 71.7216 23.6982 71.2908 23.505Z" fill="white"/>
<path d="M58.9004 50.8987C62.4932 50.3383 65.3384 47.4931 65.8987 43.9004C62.3061 44.4606 59.4608 47.3059 58.9004 50.8987Z" fill="white"/>
<path d="M15.7007 36.4983C19.2935 35.938 22.1386 33.0927 22.699 29.5C19.1063 30.0603 16.2611 32.9055 15.7007 36.4983Z" fill="white"/>
<path d="M6.10059 36.7002C6.66098 40.293 9.50624 43.1381 13.0989 43.6985C12.5385 40.1059 9.69341 37.2606 6.10059 36.7002Z" fill="white"/>
<path d="M15.7007 50.8987C19.2935 50.3383 22.1386 47.4931 22.699 43.9004C19.1063 44.4606 16.2611 47.3059 15.7007 50.8987Z" fill="white"/>
<path d="M37.3003 36.4983C40.8931 35.938 43.7382 33.0927 44.2986 29.5C40.706 30.0603 37.8608 32.9055 37.3003 36.4983Z" fill="white"/>
<path d="M27.7007 36.7002C28.2611 40.293 31.1063 43.1381 34.699 43.6985C34.1386 40.1059 31.2935 37.2606 27.7007 36.7002Z" fill="white"/>
</svg>
