<svg width="56" height="56" viewBox="0 0 56 56" fill="none" xmlns="http://www.w3.org/2000/svg">
<path d="M7.22512 25.9213V51.2826H5.77024H4.3148V53.3613V55.44H20.6332H36.9516V53.3613V51.2826H35.4961H34.0413V39.5164V27.7715L35.1013 28.3326C37.1179 29.4554 37.035 29.0394 37.1593 38.1864L37.2635 46.1899L37.8453 47.2914C39.0717 49.6199 41.0054 50.8878 43.5831 51.0334C46.3271 51.179 48.6136 49.9111 49.9441 47.5205C50.526 46.4604 50.568 46.2314 50.6301 43.7993C50.6508 42.3646 50.5052 37.2098 50.3182 32.3036L49.9441 23.427H50.8172C51.8772 23.427 51.8772 23.427 51.2954 20.9742C50.2146 16.4422 47.3664 12.5345 43.4582 10.206C42.0862 9.3744 38.906 8.02312 37.7417 7.7532L37.1599 7.62832V9.0832V10.5381L38.5319 11.1619C40.3407 11.9728 42.2945 13.3862 43.5002 14.7375C44.7266 16.151 46.0157 18.7706 46.4105 20.6203C46.784 22.512 47.096 28.9772 47.2623 38.0822L47.3872 45.3583L46.8882 46.0858C45.4328 48.2059 42.6888 48.3515 41.1924 46.377L40.5893 45.6075L40.4852 37.5833C40.3816 29.6839 40.3816 29.5383 39.9033 28.6653C39.1132 27.1891 37.8453 25.9834 36.2656 25.1938C35.4754 24.799 34.6444 24.4664 34.4361 24.4664C34.062 24.4664 34.0413 24.0509 34.0413 12.5132V0.560001H20.6332H7.22512V25.9213ZM30.0916 12.5132V20.1006H20.6332H11.1748V12.5132V4.92576H20.6332H30.0916V12.5132Z" fill="white"/>
</svg>
