<svg width="42" height="42" viewBox="0 0 42 42" fill="none" xmlns="http://www.w3.org/2000/svg">
<path d="M21 9.24023C16.5048 9.24023 12.8616 12.8066 12.8616 17.2058C12.8616 21.605 18.2976 27.4394 21 32.7602C23.8176 27.4394 29.1384 21.6074 29.1384 17.2058C29.1384 12.8066 25.4952 9.24023 21 9.24023ZM21 21.7514C18.4728 21.7514 16.4232 19.7354 16.4232 17.2466C16.4208 14.7602 18.4704 12.7442 21 12.7442C23.5272 12.7442 25.5792 14.7602 25.5792 17.249C25.5792 19.7354 23.5272 21.7514 21 21.7514ZM21 15.245C19.8768 15.245 18.9648 16.1402 18.9648 17.2466C18.9648 18.353 19.8768 19.2482 21 19.2482C22.1232 19.2482 23.0352 18.353 23.0352 17.2466C23.0352 16.1426 22.1232 15.245 21 15.245Z" fill="#F2C94C"/>
<circle cx="21" cy="21" r="20.5" stroke="#F2C94C"/>
</svg>
