<svg width="72" height="72" viewBox="0 0 72 72" fill="none" xmlns="http://www.w3.org/2000/svg">
<path d="M16.2498 15.6763C16.7462 16.4793 17.6053 16.921 18.4848 16.921C18.9557 16.921 19.4327 16.7941 19.8626 16.5284C21.0956 15.7659 21.4771 14.1484 20.7147 12.9154C20.1423 11.99 20.4198 10.691 20.9447 8.66198C21.5089 6.48175 22.2109 3.76826 20.74 1.28681C20.001 0.0398932 18.3915 -0.371854 17.1438 0.367126C15.8969 1.10625 15.4851 2.71625 16.2242 3.96331C16.5818 4.56687 16.2162 5.98014 15.8627 7.34715C15.2366 9.76687 14.4574 12.7781 16.2498 15.6763Z" fill="white"/>
<path d="M24.6528 15.6759C25.1493 16.4789 26.0084 16.9207 26.8879 16.9207C27.3588 16.9207 27.8355 16.794 28.2657 16.5281C29.4987 15.7659 29.8802 14.1483 29.1179 12.9155C28.5455 11.9897 28.8228 10.6911 29.3478 8.66187C29.912 6.48164 30.6138 3.76829 29.1432 1.28684C28.4041 0.0397843 26.7936 -0.371823 25.547 0.367157C24.3 1.10628 23.8882 2.71628 24.6272 3.9632C24.9851 4.56676 24.6193 5.98017 24.2656 7.34704C23.64 9.76648 22.861 12.7777 24.6528 15.6759Z" fill="white"/>
<path d="M2.8291 44.8799L5.20776 60.4938C5.22112 60.581 5.22773 60.669 5.22773 60.7573C5.22773 63.748 7.41556 66.2362 10.2746 66.7087L8.45027 44.8799H2.8291Z" fill="white"/>
<path d="M13.7931 66.7907H20.9405V65.591C20.2115 64.3407 19.6043 63.0001 19.1437 61.5789C18.5421 59.7209 18.8687 57.6688 20.017 56.09C20.288 55.7175 20.5992 55.3818 20.9403 55.084V44.8799H11.9619L13.7931 66.7907Z" fill="white"/>
<path d="M24.9701 53.5676H32.6928L33.4188 44.8799H24.4399V53.5935C24.6156 53.578 24.7922 53.5676 24.9701 53.5676Z" fill="white"/>
<path d="M36.2046 53.5676H41.228L42.5517 44.8799H36.9306L36.2046 53.5676Z" fill="white"/>
<path d="M44.6182 31.3149L45.1896 27.5649C45.3351 26.6086 45.0571 25.6391 44.4268 24.9055C43.7964 24.1719 42.88 23.751 41.9126 23.751H38.6966L38.0728 31.2143H43.7458C44.0418 31.2143 44.3343 31.2494 44.6182 31.3149Z" fill="white"/>
<path d="M1.59899 31.2145H7.30819L6.68438 23.751H3.46816C2.50081 23.751 1.58436 24.1719 0.953945 24.9055C0.323668 25.6391 0.045654 26.6086 0.1912 27.5649L0.76129 31.307C1.03466 31.2465 1.31521 31.2145 1.59899 31.2145Z" fill="white"/>
<path d="M20.9402 31.2145V23.751H10.1958L10.8196 31.2145H20.9402Z" fill="white"/>
<path d="M24.4399 31.2145H34.5609L35.1846 23.751H24.4399V31.2145Z" fill="white"/>
<path d="M71.3639 21.884C70.526 20.7011 68.8879 20.4217 67.7048 21.2595C67.1603 21.6455 54.6524 30.777 50.0908 56.8932H25.2064C24.3666 56.8932 23.5775 57.295 23.0837 57.9744C22.5896 58.6534 22.4506 59.5278 22.7092 60.3269C24.9707 67.309 31.4228 72.0004 38.7644 72.0004C46.0837 72.0004 52.519 67.3371 54.7986 60.3899C54.8571 60.2242 54.8993 60.0508 54.9234 59.8719C55.5529 55.7278 56.3949 52.0368 57.3514 48.7701C59.462 41.5625 62.1316 36.4225 64.3131 33.0482C64.7395 32.3886 65.1591 31.7772 65.5672 31.2119C68.4334 27.241 70.7238 25.5543 70.7394 25.5432C71.9223 24.7051 72.2017 23.0668 71.3639 21.884Z" fill="white"/>
<path d="M42.3552 42.8309C43.2968 42.8309 44.0913 42.1311 44.2103 41.1972L44.9592 35.3132C45.1016 34.1958 44.2308 33.207 43.1043 33.207H2.276C1.1496 33.207 0.278715 34.1956 0.421027 35.3132L1.16999 41.1972C1.28882 42.1311 2.08363 42.8309 3.02496 42.8309H42.3552Z" fill="white"/>
</svg>
