<svg width="100" height="100" viewBox="0 0 100 100" fill="none" xmlns="http://www.w3.org/2000/svg">
<circle cx="50" cy="50" r="50" fill="url(#paint0_linear_853_29)" fill-opacity="0.1"/>
<circle cx="50" cy="50" r="28" fill="white" fill-opacity="0.1"/>
<g clip-path="url(#clip0_853_29)">
<path d="M22.6436 70.5916L27.7604 76.6488C27.7604 76.6488 29.5664 79.204 30.8648 77.2882C32.1633 75.3767 39.9473 59.5977 39.9473 59.5977C39.9473 59.5977 40.7273 58.3102 41.2743 60.6105C41.8214 62.9108 46.3143 74.041 46.3143 74.041C46.3143 74.041 46.9932 74.9791 47.8083 74.287C48.6256 73.6016 51.8948 70.8443 51.8948 70.8443C51.8948 70.8443 52.9977 70.495 51.8552 68.3155C50.7106 66.1295 46.5164 56.1857 46.5164 56.1857C46.5164 56.1857 45.9035 54.9114 46.7911 54.1645C47.6765 53.4197 48.8211 52.565 48.8211 52.565C48.8211 52.565 49.3308 51.5126 50.7347 52.6221C52.1364 53.7294 56.157 57.8005 62.3504 59.3319C68.5416 60.8676 73.9617 61.0741 73.9617 61.0741C73.9617 61.0741 75.2887 61.1224 75.4754 58.8573C75.6688 56.6032 75.5567 53.4307 75.5567 53.4307C75.5567 53.4307 75.6842 51.9191 74.355 51.8752C73.0302 51.829 70.7804 52.3343 67.944 51.4599C65.1077 50.5899 58.699 45.9014 58.699 45.9014C58.699 45.9014 57.6707 45.0951 58.6243 44.2866C59.5778 43.4825 66.2501 37.8537 66.2501 37.8537C66.2501 37.8537 67.3948 36.9991 66.7049 36.1818C66.0172 35.3667 65.6723 34.9581 65.6723 34.9581L77.7911 24.7243L75.4886 22L63.3698 32.2294L62.3746 31.3308C62.3746 31.3308 61.4892 30.5596 60.74 31.1924C59.993 31.8163 52.1716 38.3019 52.1716 38.3019C52.1716 38.3019 49.968 35.9709 48.3356 37.3484C46.7032 38.726 36.766 47.123 36.766 47.123C36.766 47.123 36.3332 47.7184 36.6738 48.9465C37.0121 50.1791 37.6339 51.0491 37.0209 51.5676C36.4101 52.0817 33.2091 54.7862 33.2091 54.7862C33.2091 54.7862 32.3149 55.6584 32.4269 57.315C32.5412 58.9672 31.6272 60.7819 29.8586 62.2803C28.0922 63.7743 22.9929 67.9618 22.9929 67.9618C22.9929 67.9618 21.4967 69.2295 22.6436 70.5916Z" fill="white"/>
<path d="M68.5198 28.9363C68.5198 28.9363 64.4619 24.127 63.7501 23.2877C63.0383 22.4441 60.9687 21.7015 60.716 24.6609C60.4326 28.0685 60.1162 32.6537 60.1162 32.6537L63.6556 32.7701C63.6556 32.7701 63.4821 30.8916 63.2272 29.9491C62.9064 28.7759 63.4623 28.2003 64.0972 28.9561C64.7322 29.7009 65.9251 31.1069 65.9251 31.1069L68.5198 28.9363Z" fill="white"/>
<path d="M46.6152 57.779C46.6152 57.779 47.7401 56.8299 48.6387 56.0719C49.5373 55.3139 50.4073 53.6112 49.6581 51.3571C48.9111 49.1051 51.8551 51.68 51.8551 51.68C51.8551 51.68 53.3996 55.2217 50.7654 57.4428C48.1202 59.6816 46.9514 60.5692 46.9514 60.5692L46.6152 57.779Z" fill="white"/>
</g>
<defs>
<linearGradient id="paint0_linear_853_29" x1="50" y1="0" x2="50" y2="100" gradientUnits="userSpaceOnUse">
<stop stop-color="white"/>
<stop offset="1" stop-color="white" stop-opacity="0"/>
</linearGradient>
<clipPath id="clip0_853_29">
<rect width="56" height="56" fill="white" transform="translate(22 22)"/>
</clipPath>
</defs>
</svg>
