<svg opacity="1" width="10" height="10" viewBox="0 0 10 10" fill="none" xmlns="http://www.w3.org/2000/svg">
<path d="M4.99715 1.31812C2.81746 -0.588332 0.0460093 1.08674 0.000563553 3.35756C-0.0110176 3.93628 0.15604 4.50001 0.488573 5.01972H2.64395L3.02732 4.38074C3.13864 4.19523 3.40804 4.18925 3.52566 4.3742L4.33453 5.64525L5.5136 3.15617C5.61642 2.93898 5.92286 2.93208 6.03627 3.14269L7.04698 5.01972H9.50573C11.3271 2.17306 7.72745 -1.06988 4.99715 1.31812Z" fill="white"/>
<path d="M6.61418 5.45069L5.79518 3.92969L4.63704 6.37462C4.53852 6.58263 4.24871 6.6007 4.12515 6.4065L3.28595 5.08779L3.06111 5.46252C3.00816 5.55076 2.91282 5.60474 2.80992 5.60474H0.952087C1.01033 5.66569 0.699939 5.35593 4.79063 9.42543C4.90487 9.53911 5.08957 9.53913 5.20384 9.42543C9.23158 5.41854 8.98425 5.66557 9.04237 5.60474H6.87211C6.76432 5.60476 6.66527 5.54558 6.61418 5.45069Z" fill="white"/>
</svg>
