<svg width="56" height="56" viewBox="0 0 56 56" fill="none" xmlns="http://www.w3.org/2000/svg">
<path d="M0.559998 28V42.2559H2.4892H4.4184L4.43968 39.1686L4.4716 36.0926H28H51.5278L51.5598 39.1686L51.581 42.2559H53.5102H55.44V32.877V23.4982H53.5108H51.5816L51.5603 27.0032L51.5284 30.5189H28H4.47216L4.44024 22.1262L4.41896 13.7441H2.4892H0.559998V28Z" fill="white"/>
<path d="M10.4211 17.4529C6.84097 18.396 5.04001 22.2337 6.62649 25.5455C6.89473 26.1027 7.21617 26.5317 7.77337 27.0889C8.94209 28.2464 10.1321 28.7504 11.7611 28.7504C13.3689 28.7504 14.7196 28.2038 15.834 27.0889C16.949 25.9739 17.4955 24.645 17.4955 23.0692C17.4955 21.4077 17.0559 20.3145 15.9091 19.0926C14.5158 17.603 12.329 16.9489 10.4211 17.4529Z" fill="white"/>
<path d="M29.983 22.9729C25.1916 23.3374 21.3007 24.5594 19.4891 26.2741C18.8994 26.8425 18.2459 27.7855 18.2459 28.075C18.2459 28.182 21.4614 28.2145 33.9489 28.2145C42.588 28.2145 49.6518 28.1714 49.6518 28.1288C49.6518 27.9037 48.9765 27.025 48.4193 26.5317C45.5571 23.9803 37.4326 22.4157 29.983 22.9729Z" fill="white"/>
</svg>
