<svg opacity="1" width="10" height="10" viewBox="0 0 10 10" fill="none" xmlns="http://www.w3.org/2000/svg">
<path d="M7.94922 10H2.05078C0.920098 10 0 9.0799 0 7.94922C0 7.78729 0.131035 7.65625 0.292969 7.65625H9.70703C9.86897 7.65625 10 7.78729 10 7.94922C10 9.0799 9.0799 10 7.94922 10Z" fill="white"/>
<path d="M5 0C2.25371 0 0 1.70859 0 3.80859C0 3.97053 0.131035 4.10156 0.292969 4.10156H9.70703C9.86897 4.10156 10 3.97053 10 3.80859C10 1.70859 7.74629 0 5 0ZM2.84385 2.25791L2.25791 2.84385C2.14348 2.95828 1.95809 2.9583 1.84363 2.84385C1.7292 2.72941 1.7292 2.544 1.84363 2.42957L2.42957 1.84363C2.544 1.7292 2.72941 1.7292 2.84385 1.84363C2.95828 1.95807 2.9583 2.14348 2.84385 2.25791ZM4.62119 2.25791L4.03525 2.84385C3.92082 2.95828 3.73543 2.9583 3.62098 2.84385C3.50654 2.72941 3.50654 2.544 3.62098 2.42957L4.20691 1.84363C4.32135 1.7292 4.50676 1.7292 4.62119 1.84363C4.73562 1.95807 4.73564 2.14348 4.62119 2.25791ZM6.379 2.25791L5.79307 2.84385C5.67863 2.95828 5.49324 2.9583 5.37879 2.84385C5.26436 2.72941 5.26436 2.544 5.37879 2.42957L5.96473 1.84363C6.07916 1.7292 6.26457 1.7292 6.379 1.84363C6.49344 1.95807 6.49346 2.14348 6.379 2.25791ZM7.99357 2.25791L7.40764 2.84385C7.2932 2.95828 7.10781 2.9583 6.99336 2.84385C6.87893 2.72941 6.87893 2.544 6.99336 2.42957L7.5793 1.84363C7.69373 1.7292 7.87914 1.7292 7.99357 1.84363C8.10801 1.95807 8.10801 2.14348 7.99357 2.25791Z" fill="white"/>
<path d="M0.292969 5.29297C0.433594 5.29297 0.556641 5.31053 0.662109 5.33982C0.620762 5.47303 0.60918 5.51285 0.585938 5.92576C0.509766 5.89647 0.416035 5.87891 0.292969 5.87891C0.128887 5.87891 0 5.74998 0 5.58594C0 5.42186 0.128887 5.29297 0.292969 5.29297Z" fill="white"/>
<path d="M10 5.58594C10 5.74998 9.87111 5.87891 9.70703 5.87891C9.58396 5.87891 9.49023 5.89647 9.41406 5.92576C9.40773 5.8133 9.41969 5.60334 9.33789 5.33982C9.44336 5.31053 9.56641 5.29297 9.70703 5.29297C9.87111 5.29297 10 5.42186 10 5.58594Z" fill="white"/>
<path d="M0.662109 5.33984C0.925782 5.40432 1.10156 5.53322 1.24805 5.64455C1.42969 5.7793 1.56444 5.87893 1.8574 5.87893C2.15037 5.87893 2.2793 5.7793 2.46094 5.64453C2.67188 5.48631 2.94922 5.29299 3.43555 5.29299C3.92772 5.29299 4.18553 5.48633 4.39647 5.64453C4.57815 5.7793 4.70704 5.87893 5.00001 5.87893C5.29298 5.87893 5.42186 5.7793 5.60354 5.64453C5.81448 5.48631 6.07229 5.29299 6.56446 5.29299C7.05081 5.29299 7.32816 5.48633 7.53907 5.64453C7.72071 5.77928 7.84964 5.87893 8.14261 5.87893C8.43558 5.87893 8.57033 5.7793 8.75197 5.64453C8.89845 5.5332 9.07423 5.40432 9.3379 5.33982C9.27611 5.10959 9.17314 4.89727 9.04072 4.70703H0.959297C0.826875 4.89727 0.723906 5.10959 0.662109 5.33984Z" fill="white"/>
<path d="M9.04482 7.05078C9.26955 6.73006 9.40527 6.34303 9.4141 5.92576C9.29691 5.96678 9.20904 6.03709 9.10353 6.11326C8.89259 6.27148 8.63478 6.46484 8.14261 6.46484C7.65628 6.46484 7.39847 6.27146 7.18753 6.11326C7.00589 5.9785 6.85743 5.87891 6.56446 5.87891C6.27149 5.87891 6.13675 5.9785 5.95511 6.11326C5.75005 6.27148 5.48636 6.46484 5.00003 6.46484C4.5137 6.46484 4.25001 6.27146 4.04495 6.11326C3.86331 5.9785 3.72856 5.87891 3.43559 5.87891C3.14262 5.87891 2.99416 5.9785 2.81252 6.11326C2.60159 6.27146 2.34377 6.46484 1.85742 6.46484C1.36526 6.46484 1.10744 6.27146 0.896504 6.11326C0.790996 6.03709 0.703125 5.96678 0.585938 5.92576C0.594766 6.34305 0.730489 6.73006 0.955215 7.05078H9.04482Z" fill="white"/>
</svg>
