<svg width="65" height="65" viewBox="0 0 65 65" fill="none" xmlns="http://www.w3.org/2000/svg">
<circle cx="32.5" cy="32.5" r="30" stroke="white" stroke-width="5"/>
<path d="M40.5592 22.2771C39.3192 19.8233 36.5797 18 33.0002 18C29.3687 18 27.3029 19.618 25.6025 22.1132H25.6034C25.5244 22.2897 24.6897 22.9468 25.2754 24.1182C25.575 24.7175 26.1774 25.0898 26.8478 25.0898H39.1525C39.8229 25.0898 40.4253 24.7175 40.725 24.1182C41.0246 23.519 40.9609 22.8145 40.5592 22.2771ZM34.2432 22.4531L33.0002 23.6962L31.7571 22.4531L33.0002 21.2101L34.2432 22.4531Z" fill="white"/>
<path d="M38.6009 35.0422C38.5899 35.0535 38.5793 35.0649 38.5681 35.0759L34.7085 47.9999H36.0449L39.017 43.4832L38.0829 41.6155L40.7068 38.9909L38.6009 35.0422Z" fill="white"/>
<path d="M29.9553 47.9999H31.2911L27.4319 35.0757C27.4209 35.0647 27.4104 35.0532 27.3994 35.0422L25.2935 38.9909L27.9171 41.6155L26.9833 43.4832L29.9553 47.9999Z" fill="white"/>
<path d="M29.748 36.6782L33 47.5776L36.2522 36.6782C35.5129 37.0142 34.7182 37.2449 33.8791 37.3385V43.5467H32.1213V37.3385C31.2822 37.2449 30.4873 37.0142 29.748 36.6782Z" fill="white"/>
<path d="M19.8164 40.0312V48H27.8424L24.9543 43.6105L25.7783 41.9626L23.1286 39.3137L26.0269 33.8789H25.9688C22.5767 33.8789 19.8164 36.6392 19.8164 40.0312Z" fill="white"/>
<path d="M46.1837 40.0312C46.1837 36.6392 43.4234 33.8789 40.0313 33.8789H39.9732L42.8715 39.3137L40.222 41.9626L41.046 43.6105L38.1577 48H46.1837V40.0312Z" fill="white"/>
<path d="M34.7581 28.6055C35.9038 28.6055 36.8814 27.8708 37.2446 26.8477H28.7559C29.1189 27.8708 30.0966 28.6055 31.2424 28.6055H34.7581Z" fill="white"/>
<path d="M26.9367 26.8477H26.8477V29.4844C26.8477 32.8764 29.608 35.6367 33 35.6367C36.392 35.6367 39.1523 32.8764 39.1523 29.4844V26.8477H39.0633C38.655 28.8511 36.8798 30.3633 34.7578 30.3633H31.2422C29.1202 30.3633 27.345 28.8511 26.9367 26.8477Z" fill="white"/>
</svg>
