<svg width="28" height="28" viewBox="0 0 28 28" fill="none" xmlns="http://www.w3.org/2000/svg">
<g clip-path="url(#clip0_939_115)">
<path d="M27.8871 11.0698L22.9105 2.58983C22.6823 2.20105 22.1832 2.0692 21.7929 2.29462L18.8104 4.01657L16.1239 3.02842C16.025 2.99205 15.9249 2.96154 15.824 2.93589C15.0676 2.74361 14.2658 2.85151 13.5817 3.24651L9.1409 5.81043C8.16003 6.37672 7.82397 7.63098 8.39026 8.61185C8.95655 9.59273 10.2108 9.92878 11.1917 9.36249L16.0647 6.54898C16.5723 6.25591 17.1977 6.25591 17.7053 6.54898C17.7053 6.54898 27.5232 12.2193 27.5547 12.2387L27.701 12.1183C28.0123 11.862 28.0912 11.4175 27.8871 11.0698Z" fill="#ABA6AC"/>
<path d="M26.6395 13.6012L16.885 7.96948L12.012 10.7829C11.4432 11.1113 10.8119 11.2791 10.1723 11.2791C9.85161 11.2791 9.5289 11.2369 9.21089 11.1517C8.25845 10.8965 7.46237 10.2857 6.96942 9.43177C6.47641 8.57794 6.34549 7.58312 6.60071 6.63068C6.81137 5.84438 7.26495 5.16522 7.89708 4.67462L5.88578 3.51338C5.48476 3.28184 4.97163 3.42796 4.75271 3.83604L0.0975501 12.5151C-0.111848 12.9055 0.0265657 13.3917 0.410308 13.6132L0.836706 13.8593L1.5851 12.563C2.20597 11.4876 3.36354 10.8195 4.60604 10.8195C5.2157 10.8195 5.81792 10.9811 6.34751 11.2869C6.65217 11.4628 6.92392 11.6796 7.15727 11.9297C7.53445 11.792 7.93733 11.718 8.34978 11.718C8.95944 11.718 9.5616 11.8796 10.0913 12.1854C10.8977 12.651 11.4746 13.4028 11.7156 14.3023C11.7421 14.4012 11.7634 14.5006 11.7811 14.6003C12.1165 14.6778 12.4406 14.8048 12.7412 14.9783C13.5477 15.4439 14.1246 16.1957 14.3656 17.0952C14.3921 17.1942 14.4134 17.2936 14.4311 17.3932C14.7665 17.4707 15.0905 17.5977 15.3911 17.7712C17.0559 18.7325 17.6284 20.8689 16.6673 22.5336L15.6454 24.3037L17.8359 25.5684C18.7186 26.078 19.8474 25.7756 20.3571 24.8928C20.8668 24.01 20.5643 22.8812 19.6816 22.3715L21.1024 23.1918C21.9852 23.7015 23.114 23.399 23.6237 22.5162C24.1334 21.6335 23.8309 20.5046 22.9481 19.9949L23.8954 20.5418C24.7781 21.0515 25.907 20.749 26.4166 19.8662C26.9263 18.9834 26.6238 17.8546 25.741 17.3449L24.7938 16.7981C25.6766 17.3078 26.8054 17.0053 27.3151 16.1225C27.8248 15.2397 27.5223 14.1109 26.6395 13.6012Z" fill="#ABA6AC"/>
<path d="M14.5708 19.1919C13.688 18.6822 12.5592 18.9847 12.0495 19.8675L12.5964 18.9203C13.1061 18.0375 12.8036 16.9087 11.9208 16.399C11.0381 15.8893 9.90926 16.1918 9.39957 17.0746L9.94645 16.1273C10.4561 15.2446 10.1537 14.1158 9.27089 13.6061C8.38813 13.0964 7.25932 13.3989 6.74963 14.2816L6.20276 15.2288C6.71239 14.346 6.40997 13.2172 5.52715 12.7076C4.64438 12.1979 3.51558 12.5003 3.00589 13.3831L1.02347 16.8168C0.513782 17.6995 0.816259 18.8284 1.69902 19.338C2.58179 19.8477 3.71065 19.5452 4.22028 18.6624C3.71059 19.5452 4.01307 20.674 4.89584 21.1837C5.7786 21.6934 6.90746 21.3909 7.41709 20.5081C6.90741 21.3908 7.20988 22.5197 8.0927 23.0293C8.97547 23.539 10.1043 23.2365 10.614 22.3537C10.1043 23.2365 10.4068 24.3653 11.2895 24.875C12.1723 25.3846 13.3011 25.0822 13.8108 24.1994L15.2463 21.7129C15.7561 20.8304 15.4536 19.7015 14.5708 19.1919Z" fill="#ABA6AC"/>
</g>
<defs>
<clipPath id="clip0_939_115">
<rect width="28" height="28" fill="white"/>
</clipPath>
</defs>
</svg>
