<svg width="72" height="72" viewBox="0 0 72 72" fill="none" xmlns="http://www.w3.org/2000/svg">
<g clip-path="url(#clip0_2699_125)">
<path d="M18.7825 9.3916C17.1075 9.3916 15.5024 9.85777 14.0869 10.6887V26.8776C15.5026 27.7084 17.1081 28.1741 18.7825 28.1741C23.9612 28.1741 28.1739 23.9616 28.1739 18.7828C28.1739 13.6043 23.9612 9.3916 18.7825 9.3916Z" fill="white"/>
<path d="M64.9564 0H7.04347C3.15956 0 0 3.15942 0 7.04347C0 27.7215 0 44.8909 0 65.739H0.0790311C0.474187 69.251 3.42745 71.9999 7.04347 71.9999H47.739C49.0351 71.9999 50.0869 70.9482 50.0869 69.652C50.0869 68.3559 49.0351 67.3041 47.739 67.3041H43.826V49.3042C43.826 48.008 42.7742 46.9563 41.4781 46.9563C40.182 46.9563 39.1302 48.008 39.1302 49.3042V67.3041H34.4348V58.6955C34.4348 52.2223 29.1689 46.9564 22.6957 46.9564H4.69574V39.913H41.4782C42.7744 39.913 43.8261 38.8612 43.8261 37.5651C43.8261 36.269 42.7744 35.2172 41.4782 35.2172H4.6956V28.1738H9.3912V9.3912H4.6956V7.04347C4.6956 5.74888 5.74888 4.6956 7.04347 4.6956H34.4348V25.826C34.4348 27.1222 35.4865 28.1739 36.7826 28.1739C38.0788 28.1739 39.1305 27.1222 39.1305 25.826V4.6956H43.8261V20.1033C43.8261 24.5528 47.4472 28.1739 51.8969 28.1739H63.9294C65.1379 28.1739 66.274 27.8881 67.3045 27.4099V35.2174H55.5655C54.2693 35.2174 53.2176 36.2691 53.2176 37.5652C53.2176 38.8614 54.2693 39.9131 55.5655 39.9131H67.3045V64.9566C67.3045 66.2511 66.2513 67.3044 64.9567 67.3044H61.8262C60.5301 67.3044 59.4784 68.3562 59.4784 69.6523C59.4784 70.9484 60.5301 72.0002 61.8262 72.0002H64.9567C68.8406 72.0002 72.0001 68.8406 72.0001 64.9567V7.04347C71.9999 3.15942 68.8403 0 64.9564 0ZM22.6956 56.3476C23.9921 56.3476 25.0434 57.3988 25.0434 58.6955C25.0434 59.9922 23.9923 61.0434 22.6956 61.0434C21.3989 61.0434 20.3477 59.9922 20.3477 58.6955C20.3477 57.3988 21.399 56.3476 22.6956 56.3476ZM11.7391 56.3476C13.0352 56.3476 14.0869 57.3994 14.0869 58.6955C14.0869 59.9917 13.0352 61.0434 11.7391 61.0434H4.6956V56.3478H11.7391V56.3476ZM67.3043 14.0868C60.7424 14.0868 59.4089 14.0868 48.5217 14.0868V9.3912H55.5652V4.6956H60.2608V9.3912H67.3043V14.0868Z" fill="white"/>
</g>
<defs>
<clipPath id="clip0_2699_125">
<rect width="72" height="72" fill="white"/>
</clipPath>
</defs>
</svg>
