<svg width="56" height="56" viewBox="0 0 56 56" fill="none" xmlns="http://www.w3.org/2000/svg">
<path d="M29.176 12.3312C27.02 8.9656 35.98 4.3288 30.3128 0.755996C29.008 -0.0616037 27.5744 1.8928 28.952 2.7608C32.0824 4.7264 23.8504 8.484 27.2272 13.7592C28.0896 15.0976 30.0328 13.6752 29.176 12.3312Z" fill="white"/>
<path d="M35.4872 12.3312C33.32 8.95439 42.2969 4.3344 36.6184 0.755999C35.924 0.3192 34.972 0.722399 34.7536 1.484C34.1936 3.444 37.8392 2.1392 34.636 6.51839C32.9168 8.87599 31.9648 11.312 33.5328 13.7592C34.412 15.1088 36.3328 13.6584 35.4872 12.3312Z" fill="white"/>
<path d="M22.8312 12.3312C20.664 8.94881 29.652 4.3344 23.9624 0.755997C22.6632 -0.0616043 21.224 1.8928 22.6072 2.7608C25.7152 4.7152 17.5224 8.51201 20.8824 13.7592C21.7504 15.0976 23.688 13.6808 22.8312 12.3312Z" fill="white"/>
<path d="M27.5576 29.6296C41.132 29.6296 48.272 26.1688 48.272 23.3016C48.272 19.992 39.2672 16.8392 28 16.9792C16.7104 16.8336 7.728 19.9976 7.728 23.3016C7.7224 26.3592 15.6912 29.6296 27.5576 29.6296ZM27.8208 18.676C27.86 18.676 27.9048 18.676 27.944 18.676C27.9608 18.676 27.9776 18.676 27.9944 18.676C28.0112 18.676 28.028 18.676 28.0448 18.676C28.0896 18.676 28.1288 18.676 28.168 18.676C36.7024 18.676 45.3488 20.1824 45.3488 23.0552C45.3488 26.768 31.9424 27.524 28.0448 27.4344H27.944C23.94 27.524 10.64 26.74 10.64 23.0552C10.6456 20.1824 19.2864 18.676 27.8208 18.676Z" fill="white"/>
<path d="M15.5344 25.1832L15.6016 20.9104C13.0368 21.5712 11.6144 22.3776 11.6144 23.0552C11.62 23.7328 13.0144 24.528 15.5344 25.1832Z" fill="white"/>
<path d="M21.4536 19.9472C20.0088 20.0872 18.7096 20.272 17.5616 20.4848L17.4832 25.6144C18.6312 25.8328 19.936 26.0176 21.3808 26.1632L21.4536 19.9472Z" fill="white"/>
<path d="M27.2944 19.656C25.9168 19.6672 24.6232 19.712 23.4024 19.7904L23.3184 26.32C24.5336 26.3984 25.8328 26.4488 27.2104 26.46L27.2944 19.656Z" fill="white"/>
<path d="M48.7424 25.1272C48.7368 25.0712 48.7256 25.0096 48.7144 24.9536C45.808 29.5288 33.8072 30.6824 28.0504 30.5984H27.9496C20.608 30.7048 9.912 29.0808 7.28561 24.9536C7.28001 25.0096 7.26321 25.0712 7.25761 25.1272C5.02321 25.6144 4.04321 26.6448 4.10481 28.4032C4.15521 29.8928 6.05921 31.1752 8.52881 31.9088C10.08 35.7728 12.9584 38.9088 16.66 40.9752L11.3344 53.4016C11.0152 54.1408 11.3568 55.0032 12.1016 55.3168C12.2864 55.3952 12.4824 55.4344 12.6728 55.4344C13.2384 55.4344 13.776 55.104 14.0168 54.5496L19.3032 42.224C24.3936 44.1952 31.1752 44.3632 36.7024 42.224L41.9888 54.5552C42.224 55.1096 42.7616 55.44 43.3328 55.44C43.5232 55.44 43.7192 55.4008 43.904 55.3224C44.6488 55.0032 44.9904 54.1464 44.6712 53.4072L39.34 40.9808C43.0416 38.9088 45.9144 35.7728 47.4712 31.9144C49.9464 31.1808 51.8448 29.8984 51.8952 28.4088C51.9568 26.6448 50.9712 25.6144 48.7424 25.1272ZM6.54641 28.6776C6.50161 27.8768 6.62481 27.412 7.33601 27.1096C7.43681 28.0952 7.62721 29.036 7.87361 29.9544C7.07841 29.6464 6.57441 29.2208 6.54641 28.6776ZM48.1208 29.9544C48.3672 29.036 48.5632 28.0896 48.6584 27.1096C49.3696 27.412 49.4928 27.8768 49.448 28.6776C49.4256 29.2208 48.916 29.6464 48.1208 29.9544Z" fill="white"/>
<path d="M44.38 23.0552C44.38 22.3776 42.9576 21.5712 40.3928 20.9104L40.46 25.1832C42.98 24.528 44.38 23.7328 44.38 23.0552Z" fill="white"/>
<path d="M38.5168 25.6144L38.4384 20.4848C37.2848 20.272 35.9856 20.0872 34.5464 19.9472L34.6248 26.1632C36.0696 26.0176 37.3688 25.8328 38.5168 25.6144Z" fill="white"/>
<path d="M32.676 26.32L32.592 19.796C31.3712 19.7176 30.0776 19.6728 28.7 19.6616L28.784 26.46C30.1616 26.4488 31.4608 26.3984 32.676 26.32Z" fill="white"/>
</svg>
