<svg width="134" height="134" viewBox="0 0 134 134" fill="none" xmlns="http://www.w3.org/2000/svg">
<mask id="mask0_1082_102" style="mask-type:alpha" maskUnits="userSpaceOnUse" x="0" y="0" width="134" height="134">
<g clip-path="url(#clip0_1082_102)">
<path d="M120.779 117.029C136.272 100.375 135.327 74.2227 118.672 58.7299C107.297 48.1475 90.9792 44.9186 76.4718 50.2028L28.369 5.45502C27.6408 4.77762 26.6751 4.41675 25.6795 4.45272L4.47885 5.21871C2.40745 5.29355 0.791853 7.03027 0.866694 9.10167L1.63268 30.3023C1.66865 31.2977 2.09827 32.235 2.82644 32.9122L8.32095 38.0199C9.15889 38.7994 10.3077 39.1536 11.4412 38.9808L17.1119 38.1163L18.14 45.9798C18.3732 47.767 19.8407 49.1322 21.6401 49.2358L29.5573 49.6937L29.1007 55.4122C28.9963 56.4749 29.3898 57.5271 30.1285 58.3029C30.8709 59.0749 31.905 59.4956 32.9736 59.457L39.9513 59.2049L40.1988 66.0559C40.2347 67.0512 40.6644 67.9886 41.3925 68.6657L51.2231 77.9336C46.9957 92.7809 51.0963 108.553 62.4796 119.136C79.1336 134.628 105.286 133.683 120.779 117.029ZM93.8958 107.385C89.353 103.159 89.0954 96.0297 93.3214 91.4869C97.5474 86.9441 104.676 86.6865 109.219 90.9125C113.762 95.1385 114.02 102.268 109.794 106.81C105.568 111.353 98.4386 111.61 93.8958 107.385Z" fill="black"/>
</g>
</mask>
<g mask="url(#mask0_1082_102)">
<rect x="-61" y="7" width="165" height="100" rx="10" fill="white" fill-opacity="0.15"/>
</g>
<defs>
<clipPath id="clip0_1082_102">
<rect width="128" height="128" fill="white" transform="translate(128.647 0.731445) rotate(87.9308)"/>
</clipPath>
</defs>
</svg>
