<svg width="22" height="22" viewBox="0 0 22 22" fill="none" xmlns="http://www.w3.org/2000/svg">
<path d="M11.2263 0.0520649C9.41272 0.254147 7.76246 0.748602 6.20675 1.55263C2.773 3.32407 0.503889 6.35529 0.0612402 9.76058C-0.0204134 10.4141 -0.0204134 11.575 0.0612402 12.2286C0.585542 16.2616 3.66689 19.7228 8.07189 21.2362C9.55025 21.7393 11.2994 22.0317 12.6402 21.9973C13.1645 21.9801 13.1903 21.9758 13.3665 21.8511C13.6544 21.649 13.7275 21.4555 13.8994 20.4322C14.9523 14.0602 14.948 7.61078 13.8779 1.40644C13.7275 0.54652 13.6415 0.331539 13.3665 0.138058L13.1817 0.00906944L12.4683 0.000469208C12.0729 -0.00382996 11.5142 0.0219669 11.2263 0.0520649Z" fill="white"/>
<path d="M17.1308 1.84925C16.744 1.96964 16.499 2.31361 16.499 2.73927C16.499 3.17783 16.7698 3.53899 17.1694 3.63788C17.2898 3.66798 18.0247 3.68518 19.2495 3.68518C20.4743 3.68518 21.2091 3.66798 21.3295 3.63788C21.7292 3.53899 21.9999 3.17783 21.9999 2.73927C21.9999 2.30071 21.7292 1.93954 21.3295 1.84065C21.0673 1.77185 17.3499 1.78045 17.1308 1.84925Z" fill="white"/>
<path d="M17.1308 7.35291C16.744 7.4733 16.499 7.81727 16.499 8.24293C16.499 8.68149 16.7698 9.04266 17.1694 9.14155C17.2898 9.17164 18.0247 9.18884 19.2495 9.18884C20.4743 9.18884 21.2091 9.17164 21.3295 9.14155C21.7292 9.04266 21.9999 8.68149 21.9999 8.24293C21.9999 7.80437 21.7292 7.4432 21.3295 7.34431C21.0673 7.27552 17.3499 7.28412 17.1308 7.35291Z" fill="white"/>
<path d="M17.1308 12.8561C16.744 12.9765 16.499 13.3204 16.499 13.7461C16.499 14.1847 16.7698 14.5458 17.1694 14.6447C17.2898 14.6748 18.0247 14.692 19.2495 14.692C20.4743 14.692 21.2091 14.6748 21.3295 14.6447C21.7292 14.5458 21.9999 14.1847 21.9999 13.7461C21.9999 13.3075 21.7292 12.9464 21.3295 12.8475C21.0673 12.7787 17.3499 12.7873 17.1308 12.8561Z" fill="white"/>
<path d="M17.1308 18.3599C16.744 18.4803 16.499 18.8242 16.499 19.2499C16.499 19.6885 16.7698 20.0496 17.1694 20.1485C17.423 20.213 21.0759 20.213 21.3295 20.1485C21.7292 20.0496 21.9999 19.6885 21.9999 19.2499C21.9999 18.8114 21.7292 18.4502 21.3295 18.3513C21.0673 18.2825 17.3499 18.2911 17.1308 18.3599Z" fill="white"/>
</svg>
