<svg width="28" height="28" viewBox="0 0 28 28" fill="none" xmlns="http://www.w3.org/2000/svg">
<path d="M16.6727 9.50999H23.0001V8.95272C23.0001 4.30531 19.4603 0.469827 14.9343 0.000976562V7.7093C15.76 8.00195 16.4087 8.67129 16.6727 9.50999Z" fill="white" fill-opacity="0.5"/>
<path d="M16.8022 13.0273C16.8022 14.5721 15.5451 15.8292 14.0003 15.8292C12.4549 15.8292 11.1984 14.5721 11.1984 13.0273V11.2217H5V18.0988C5 23.0619 9.03722 27.0991 13.9997 27.0991C18.9628 27.0991 23 23.0619 23 18.0988V11.3773H16.8022V13.0273Z" fill="white" fill-opacity="0.5"/>
<path d="M14.0004 9.41602C13.4848 9.41602 13.0664 9.83505 13.0664 10.35V13.0273C13.0664 13.5423 13.4848 13.9613 14.0004 13.9613C14.5153 13.9613 14.9343 13.5423 14.9343 13.0273V10.35C14.9343 9.83505 14.5153 9.41602 14.0004 9.41602Z" fill="white" fill-opacity="0.5"/>
<path d="M13.0663 7.70895V0C12.9798 0.00871701 12.8933 0.0193023 12.8073 0.0305099C8.40648 0.615795 5 4.39337 5 8.95237V9.35397H11.3815C11.6741 8.58875 12.2924 7.98354 13.0663 7.70895Z" fill="white"/>
</svg>
