<svg width="12" height="16" viewBox="0 0 12 16" fill="none" xmlns="http://www.w3.org/2000/svg">
<path d="M11.2304 0.0421505C11.6214 0.167359 11.8655 0.480381 11.9656 0.987476C11.9906 1.10329 12 3.26941 12 8.01481C11.9969 13.6179 11.9906 14.9107 11.9562 15.0703C11.8686 15.4773 11.659 15.7778 11.3586 15.9249C11.2304 15.9875 11.1553 16 10.9363 16C10.6359 16 10.4295 15.9468 10.1166 15.7871C9.79122 15.6244 0.755887 9.42654 0.546272 9.22621C0.336657 9.02275 0.136428 8.72224 0.0582132 8.49687C-0.0262585 8.25271 -0.0168724 7.70492 0.0738564 7.47016C0.170842 7.226 0.311628 7.01941 0.533757 6.80029C0.665158 6.66569 2.02609 5.71724 5.17657 3.56052C7.62625 1.88272 9.75994 0.430298 9.91949 0.333261C10.4107 0.0390205 10.8894 -0.0674076 11.2304 0.0421505Z" fill="white"/>
</svg>
