<svg width="22" height="22" viewBox="0 0 22 22" fill="none" xmlns="http://www.w3.org/2000/svg">
<g clip-path="url(#clip0_103_175)">
<path opacity="0.967" fill-rule="evenodd" clip-rule="evenodd" d="M17.3812 -0.0214844C17.7249 -0.0214844 18.0687 -0.0214844 18.4124 -0.0214844C19.8538 0.309891 20.749 1.19791 21.098 2.64258C21.1194 2.97169 21.1266 3.30112 21.1194 3.63086C20.6898 3.63086 20.2601 3.63086 19.8304 3.63086C19.9093 2.60635 19.4939 1.86872 18.5843 1.41797C17.3922 1.1081 16.5544 1.51631 16.0706 2.64258C16.0018 2.96829 15.966 3.29771 15.9632 3.63086C15.5335 3.63086 15.1038 3.63086 14.6741 3.63086C14.5537 1.9444 15.2699 0.777081 16.8226 0.128906C17.0159 0.0842609 17.2021 0.0341308 17.3812 -0.0214844Z" fill="white"/>
<path opacity="0.995" fill-rule="evenodd" clip-rule="evenodd" d="M21.9785 5.30665C21.9785 7.08268 21.9785 8.85875 21.9785 10.6348C21.9005 10.8057 21.7716 10.9275 21.5918 11C19.1283 11.0287 16.6647 11.0287 14.2012 11C14.0221 10.9356 13.9004 10.8138 13.8359 10.6348C13.8073 8.85875 13.8073 7.08268 13.8359 5.30665C13.9004 5.1276 14.0221 5.00587 14.2012 4.94142C16.6647 4.91276 19.1283 4.91276 21.5918 4.94142C21.7716 5.01395 21.9005 5.13568 21.9785 5.30665ZM17.6817 6.72462C18.151 6.66863 18.4303 6.86917 18.5195 7.32618C18.5577 7.8296 18.5433 8.33092 18.4766 8.83009C18.2246 9.24886 17.8879 9.32767 17.4668 9.06642C17.3496 8.9394 17.2852 8.78901 17.2734 8.61525C17.2353 8.11182 17.2496 7.61051 17.3164 7.11134C17.3889 6.93151 17.5107 6.80261 17.6817 6.72462Z" fill="white"/>
<path opacity="0.995" fill-rule="evenodd" clip-rule="evenodd" d="M5.95117 7.79883C8.14258 7.79883 10.334 7.79883 12.5254 7.79883C12.5082 8.78836 12.5297 9.77664 12.5898 10.7637C12.8523 11.7135 13.4753 12.222 14.459 12.2891C15.4185 12.3105 16.3781 12.3177 17.3379 12.3105C17.374 12.5268 17.417 12.7416 17.4668 12.9551C12.5397 12.9551 7.61264 12.9551 2.68555 12.9551C2.91496 11.9945 3.15129 11.0348 3.39453 10.0762C3.83632 8.85367 4.68854 8.09454 5.95117 7.79883Z" fill="white"/>
<path opacity="0.959" fill-rule="evenodd" clip-rule="evenodd" d="M-0.0214844 12.1817C-0.0214844 11.9811 -0.0214844 11.7806 -0.0214844 11.5801C0.0791837 11.2445 0.294027 11.0082 0.623047 10.8711C1.04931 10.81 1.479 10.7885 1.91211 10.8067C1.76058 11.513 1.58871 12.2148 1.39648 12.9121C0.710518 13.0634 0.237862 12.8199 -0.0214844 12.1817Z" fill="white"/>
<path opacity="0.992" fill-rule="evenodd" clip-rule="evenodd" d="M1.95508 14.2441C7.36914 14.237 12.7832 14.2441 18.1973 14.2656C18.763 14.4303 19.1283 14.7956 19.293 15.3613C19.3216 16.3353 19.3216 17.3092 19.293 18.2832C19.1236 18.868 18.744 19.2332 18.1543 19.3789C16.3926 19.4004 14.6309 19.4076 12.8691 19.4004C12.8849 18.7113 12.8634 18.0238 12.8047 17.3379C12.64 16.7721 12.2748 16.4069 11.709 16.2422C10.6205 16.1563 9.53189 16.1563 8.44336 16.2422C7.87759 16.4069 7.51236 16.7721 7.34766 17.3379C7.28896 18.0238 7.26748 18.7113 7.2832 19.4004C5.50709 19.4076 3.73106 19.4004 1.95508 19.3789C1.38932 19.2142 1.02409 18.849 0.859376 18.2832C0.830729 17.3092 0.830729 16.3353 0.859376 15.3613C1.03197 14.7949 1.39721 14.4225 1.95508 14.2441ZM3.41602 16.1777C3.91964 16.1611 4.42093 16.1826 4.91992 16.2422C5.34776 16.507 5.41939 16.8508 5.13477 17.2734C5.01119 17.3782 4.86793 17.4354 4.70508 17.4453C4.20165 17.4834 3.70035 17.4691 3.20117 17.4023C2.86581 17.2399 2.74407 16.9749 2.83594 16.6074C2.96409 16.3713 3.15745 16.2281 3.41602 16.1777ZM15.4473 16.1777C15.9509 16.1611 16.4522 16.1826 16.9512 16.2422C17.379 16.507 17.4506 16.8508 17.166 17.2734C17.0424 17.3782 16.8992 17.4354 16.7363 17.4453C16.2329 17.4834 15.7316 17.4691 15.2324 17.4023C14.8971 17.2399 14.7753 16.9749 14.8672 16.6074C14.9953 16.3713 15.1887 16.2281 15.4473 16.1777Z" fill="white"/>
<path opacity="0.998" fill-rule="evenodd" clip-rule="evenodd" d="M8.65797 17.4668C9.60341 17.4596 10.5487 17.4668 11.4939 17.4883C11.5154 17.5098 11.5369 17.5313 11.5584 17.5527C11.5798 18.1684 11.587 18.7844 11.5798 19.4004C10.5773 19.4004 9.57462 19.4004 8.57203 19.4004C8.56485 18.7844 8.57203 18.1684 8.59351 17.5527C8.62432 17.5294 8.6458 17.5007 8.65797 17.4668Z" fill="white"/>
<path opacity="0.982" fill-rule="evenodd" clip-rule="evenodd" d="M5.65069 21.9785C5.02046 21.9785 4.39029 21.9785 3.76006 21.9785C3.17504 21.7549 2.91723 21.3252 2.98663 20.6895C4.13246 20.6895 5.27828 20.6895 6.42413 20.6895C6.49352 21.3252 6.23571 21.7549 5.65069 21.9785Z" fill="white"/>
<path opacity="0.982" fill-rule="evenodd" clip-rule="evenodd" d="M16.3929 21.9785C15.7627 21.9785 15.1325 21.9785 14.5022 21.9785C13.9172 21.7549 13.6594 21.3252 13.7288 20.6895C14.8747 20.6895 16.0205 20.6895 17.1663 20.6895C17.2357 21.3252 16.9779 21.7549 16.3929 21.9785Z" fill="white"/>
</g>
<defs>
<clipPath id="clip0_103_175">
<rect width="22" height="22" fill="white"/>
</clipPath>
</defs>
</svg>
