<svg width="287" height="38" viewBox="0 0 287 38" fill="none" xmlns="http://www.w3.org/2000/svg">
<path d="M14.6617 30.6C15.9417 30.6 17.1017 30.44 18.1017 30.12C19.0617 29.8 19.9017 29.2 20.5817 28.4C21.2217 27.6 21.7417 26.56 22.0617 25.2C22.3817 23.84 22.5817 22.16 22.5817 20.08C22.5817 18.04 22.3817 16.32 22.0617 14.96C21.7417 13.6 21.2217 12.48 20.5817 11.64C19.9017 10.84 19.0617 10.24 18.1017 9.92C17.1017 9.6 15.9417 9.4 14.6617 9.4C12.9017 9.4 11.4617 9.84 10.3817 10.64C9.30172 11.48 8.58172 12.64 8.22172 14.12H7.54172V10H0.821719V37.2H7.54172V25.88H8.22172C8.58172 27.4 9.30172 28.6 10.3817 29.4C11.4617 30.2 12.9017 30.6 14.6617 30.6ZM11.5417 14.52C12.3417 14.52 13.0217 14.6 13.5817 14.76C14.1417 14.92 14.5817 15.2 14.9017 15.6C15.2217 16 15.5017 16.56 15.6617 17.28C15.8217 18 15.9017 18.96 15.9017 20.08C15.9017 21.2 15.8217 22.12 15.6617 22.84C15.5017 23.56 15.2617 24.08 14.9417 24.48C14.5817 24.88 14.1417 25.12 13.5817 25.28C13.0217 25.44 12.3417 25.48 11.5417 25.48C10.4217 25.48 9.46172 25.2 8.70172 24.64C7.90172 24.08 7.54172 23.12 7.54172 21.68V18.12C7.58172 16.76 7.98172 15.84 8.74172 15.32C9.46172 14.8 10.4217 14.52 11.5417 14.52ZM35.992 25.48C34.552 25.48 33.472 25.12 32.792 24.32C32.112 23.52 31.792 22.12 31.792 20.12C31.792 18 32.112 16.52 32.792 15.72C33.472 14.92 34.552 14.52 35.992 14.52C37.392 14.52 38.432 14.96 39.152 15.76C39.872 16.56 40.232 18.04 40.232 20.12C40.232 22.12 39.872 23.52 39.192 24.32C38.472 25.12 37.432 25.48 35.992 25.48ZM35.992 9.4C34.152 9.4 32.552 9.6 31.192 9.92C29.832 10.28 28.672 10.88 27.792 11.68C26.872 12.52 26.192 13.64 25.752 15C25.272 16.36 25.072 18.08 25.072 20.12C25.072 22.12 25.272 23.8 25.752 25.12C26.192 26.48 26.872 27.56 27.792 28.36C28.672 29.16 29.832 29.76 31.192 30.08C32.552 30.44 34.152 30.6 35.992 30.6C37.832 30.6 39.432 30.44 40.792 30.08C42.152 29.76 43.312 29.16 44.232 28.36C45.112 27.56 45.792 26.48 46.272 25.12C46.712 23.8 46.952 22.12 46.952 20.12C46.952 18.08 46.712 16.36 46.272 15C45.792 13.64 45.112 12.52 44.232 11.68C43.312 10.88 42.152 10.28 40.792 9.92C39.432 9.6 37.832 9.4 35.992 9.4ZM67.2564 30V35.32H73.3364V24.88H70.2564V10H52.3364V16.88C52.3364 17.68 52.2964 18.48 52.2564 19.28C52.1764 20.08 52.0964 20.84 51.9764 21.56C51.8164 22.28 51.6164 22.92 51.3764 23.48C51.0964 24.04 50.7764 24.52 50.3764 24.88H48.0564V35.32H54.1364V30H67.2564ZM58.0164 17.4V15.12H63.5364V24.88H56.6964C57.1364 24.04 57.4564 23 57.6964 21.8C57.8964 20.6 58.0164 19.12 58.0164 17.4ZM88.753 30H95.193V10H90.033L81.833 20.68V10H75.353V30H80.313L88.753 19.4V30ZM105.081 17.2V10H98.3608V30H105.081V22.32H112.121V30H118.841V10H112.121V17.2H105.081ZM128.235 30.6C129.955 30.6 131.395 30.24 132.555 29.48C133.715 28.76 134.515 27.64 134.955 26.2H135.635V30H142.355V16.92C142.355 14.24 141.475 12.32 139.715 11.16C137.955 10 135.515 9.4 132.355 9.4C130.675 9.4 129.235 9.56 127.995 9.8C126.715 10.04 125.675 10.48 124.835 11.04C123.955 11.64 123.315 12.4 122.835 13.36C122.355 14.32 122.115 15.52 122.035 16.92H128.715C128.795 16 129.155 15.36 129.715 15.04C130.275 14.72 131.075 14.52 132.195 14.52C133.395 14.52 134.235 14.72 134.795 15.08C135.355 15.48 135.635 16.12 135.635 17V18.52C135.155 18.52 134.675 18.48 134.235 18.44C133.755 18.4 133.275 18.36 132.795 18.32C132.315 18.32 131.755 18.28 131.155 18.28C130.555 18.28 129.875 18.24 129.075 18.24C127.635 18.24 126.475 18.4 125.515 18.72C124.555 19.04 123.755 19.44 123.155 19.96C122.555 20.52 122.115 21.16 121.875 21.88C121.595 22.64 121.475 23.44 121.475 24.28C121.475 26.28 122.075 27.84 123.275 28.96C124.475 30.08 126.115 30.6 128.235 30.6ZM131.555 25.84C130.515 25.84 129.755 25.68 129.235 25.36C128.715 25.04 128.475 24.52 128.475 23.72C128.475 23.48 128.475 23.2 128.555 22.96C128.635 22.72 128.795 22.48 129.035 22.28C129.275 22.08 129.595 21.92 130.035 21.76C130.475 21.64 131.075 21.56 131.835 21.56C132.355 21.56 132.915 21.6 133.555 21.6C134.155 21.64 134.835 21.68 135.635 21.72V22.76C135.555 23.88 135.155 24.68 134.355 25.16C133.555 25.64 132.595 25.84 131.555 25.84ZM151.794 19.4L157.354 25.2L162.914 19.4V30H169.394V10H164.034L157.354 17.56L150.674 10H145.314V30H151.794V19.4ZM183.101 25.48C181.661 25.48 180.581 25.12 179.901 24.32C179.221 23.52 178.901 22.12 178.901 20.12C178.901 18 179.221 16.52 179.901 15.72C180.581 14.92 181.661 14.52 183.101 14.52C184.501 14.52 185.541 14.96 186.261 15.76C186.981 16.56 187.341 18.04 187.341 20.12C187.341 22.12 186.981 23.52 186.301 24.32C185.581 25.12 184.541 25.48 183.101 25.48ZM183.101 9.4C181.261 9.4 179.661 9.6 178.301 9.92C176.941 10.28 175.781 10.88 174.901 11.68C173.981 12.52 173.301 13.64 172.861 15C172.381 16.36 172.181 18.08 172.181 20.12C172.181 22.12 172.381 23.8 172.861 25.12C173.301 26.48 173.981 27.56 174.901 28.36C175.781 29.16 176.941 29.76 178.301 30.08C179.661 30.44 181.261 30.6 183.101 30.6C184.941 30.6 186.541 30.44 187.901 30.08C189.261 29.76 190.421 29.16 191.341 28.36C192.221 27.56 192.901 26.48 193.381 25.12C193.821 23.8 194.061 22.12 194.061 20.12C194.061 18.08 193.821 16.36 193.381 15C192.901 13.64 192.221 12.52 191.341 11.68C190.421 10.88 189.261 10.28 187.901 9.92C186.541 9.6 184.941 9.4 183.101 9.4ZM207.556 30.6C209.396 30.6 210.996 30.44 212.356 30.12C213.716 29.8 214.836 29.24 215.716 28.44C216.596 27.64 217.276 26.6 217.756 25.32C218.196 24.04 218.436 22.4 218.436 20.48C218.436 18.8 218.196 17.36 217.796 16.2C217.356 15.08 216.756 14.16 216.036 13.44C215.316 12.72 214.476 12.24 213.516 11.92C212.556 11.6 211.516 11.44 210.436 11.44C208.756 11.44 207.356 11.84 206.236 12.56C205.116 13.28 204.396 14.24 203.996 15.44H203.356C203.356 14.56 203.476 13.68 203.636 12.88C203.796 12.08 204.076 11.36 204.516 10.72C204.916 10.08 205.516 9.48 206.276 9C206.996 8.52 207.996 8.16 209.196 7.92C210.956 7.56 212.396 7.24 213.596 6.92C214.756 6.64 215.876 6.28 216.916 5.88L215.356 0.279999C214.316 0.679998 213.036 1.08 211.516 1.44C209.996 1.84 208.196 2.24 206.116 2.72C203.876 3.2 202.116 3.96 200.836 5C199.556 6.04 198.596 7.28 197.956 8.72C197.316 10.16 196.916 11.72 196.756 13.44C196.596 15.16 196.556 16.96 196.556 18.8C196.556 21.04 196.756 22.88 197.236 24.4C197.676 25.92 198.356 27.12 199.276 28.04C200.156 28.96 201.316 29.6 202.676 30C204.036 30.4 205.676 30.6 207.556 30.6ZM207.556 25.48C206.076 25.48 204.996 25.12 204.276 24.36C203.556 23.64 203.236 22.28 203.236 20.36C203.236 18.6 203.596 17.36 204.356 16.64C205.116 15.96 206.196 15.6 207.556 15.6C208.996 15.6 210.036 15.96 210.716 16.64C211.356 17.36 211.716 18.6 211.716 20.36C211.716 22.28 211.356 23.64 210.676 24.36C209.996 25.12 208.956 25.48 207.556 25.48ZM234.612 30H241.052V10H235.892L227.692 20.68V10H221.212V30H226.172L234.612 19.4V30ZM245.62 10V20.68C245.62 22.2 245.38 23.24 244.98 23.76C244.58 24.32 243.98 24.56 243.18 24.56V30.16H244.82C246.18 30.16 247.3 30 248.22 29.6C249.1 29.2 249.82 28.64 250.38 27.84C250.9 27.04 251.26 26.04 251.5 24.84C251.7 23.64 251.82 22.2 251.82 20.52V15.12H257.46V30H264.18V10H245.62ZM278.386 16.12H274.026V10H267.306V30H279.626C282.186 30 284.026 29.4 285.226 28.12C286.386 26.88 286.986 25.12 286.986 22.84C286.986 21.56 286.786 20.52 286.466 19.64C286.146 18.76 285.626 18.08 284.946 17.56C284.226 17.04 283.346 16.68 282.266 16.44C281.186 16.24 279.906 16.12 278.386 16.12ZM274.026 20.64H277.706C278.706 20.64 279.386 20.84 279.746 21.24C280.106 21.64 280.306 22.12 280.306 22.72C280.306 23.52 280.066 24.08 279.626 24.4C279.146 24.72 278.506 24.88 277.666 24.88H274.026V20.64Z" fill="black"/>
</svg>
