<svg width="394" height="495" viewBox="0 0 394 495" fill="none" xmlns="http://www.w3.org/2000/svg">
<path d="M1 62C1 27.7584 28.7583 0 63 0H332C366.242 0 394 27.7583 394 62V356.325C394 390.439 366.44 418.145 332.325 418.324L252.197 418.744C246.146 418.776 240.184 420.196 234.768 422.894L224.4 428.059C221.272 429.617 218.926 432.395 217.913 435.739L216.652 439.898C212.682 453.001 193.394 450.316 193.152 436.627C193.061 431.472 189.69 426.95 184.775 425.392L169.069 420.412C165.709 419.347 162.207 418.796 158.682 418.779L62.6938 418.305C28.5721 418.136 1 390.428 1 356.305V62Z" fill="url(#paint0_linear_14_51)"/>
<path d="M393.75 362C394.077 366.769 393.332 372.505 393 377.5C388.044 406.491 371 428 339 433C331.5 434 246 433.45 245.5 433.5C235.5 434.5 231 436.2 226.5 438C211.706 443.918 205.518 452.442 205.5 462.412C205.479 452.442 198.496 443.918 182.401 438C177.506 436.2 172.61 434.5 161.732 433.5C161.188 433.45 68.1736 434 60.0144 433C25.2021 428 6.65989 406.491 1.26869 377.5C0.907728 372.505 0.644485 367.269 1 362.5C6.3912 391.491 25.2021 413 60.0144 418C68.1736 419 161.188 418.45 161.732 418.5C172.61 419.5 177.506 421.2 182.401 423C198.496 428.918 205.479 437.442 205.5 447.412C205.518 437.442 211.706 428.918 226.5 423C231 421.2 235.5 419.5 245.5 418.5C246 418.45 331.5 419 339 418C371 413 388.794 390.991 393.75 362Z" fill="url(#paint1_linear_14_51)"/>
<path d="M209.5 146V159.5C209.398 173.984 218.313 186.078 234 187C247.008 187.332 253.111 185.098 260.5 174L255 171L254.5 146L384 213.5L383.5 214.5C373.594 221.851 367.673 223.066 356.5 220.5L335 210L279.5 183L272.5 191L348 230C341.832 234.499 338.219 236.005 331.5 237C324.777 237.594 321.432 237.056 316 235L249.5 203.5L234 207.5L307 245C300.496 248.513 297.097 249.951 291.5 251.5C283.187 253.005 279.748 252.322 274.5 250L236.5 232.5L245.5 242.5C243.713 245.57 242.347 246.303 239.5 246.5C240.093 249.527 239.94 250.009 243 252C254.679 256.779 256.051 260.078 254 266.5C251.153 261.904 249.506 260.738 246.5 260.5C243.742 260.374 241.783 261.687 238 265C234.928 263.17 233.312 263.505 230.5 265C231.665 261.7 232.766 260.019 236 257.5C225.724 247.025 220.365 243.9 211.5 243L214 252H207.5L206.5 258.5C218.124 267.916 221.372 274.356 222.5 287.5H212.5L213 304L197 292.5L181 304L181.5 287.5H171.5C172.628 274.356 175.876 267.916 187.5 258.5L186.5 252H180L182.5 243C173.635 243.9 168.276 247.025 158 257.5C161.234 260.019 162.335 261.7 163.5 265C160.688 263.505 159.072 263.17 156 265C152.217 261.687 150.258 260.374 147.5 260.5C144.494 260.738 142.847 261.904 140 266.5C137.949 260.078 139.321 256.779 151 252C154.06 250.009 153.907 249.527 154.5 246.5C151.653 246.303 150.287 245.57 148.5 242.5L157.5 232.5L119.5 250C114.252 252.322 110.813 253.005 102.5 251.5C96.9031 249.951 93.5036 248.513 87 245L160 207.5L144.5 203.5L78 235C72.5685 237.056 69.2234 237.594 62.5 237C55.7813 236.005 52.1679 234.499 46 230L121.5 191L114.5 183L59 210L37.5 220.5C26.3274 223.066 20.4055 221.851 10.5 214.5L10 213.5L139.5 146L139 171L133.5 174C140.889 185.098 146.992 187.332 160 187C175.687 186.078 184.602 173.984 184.5 159.5H177L176.5 157V149.5L177 147L178 144L179.5 141L183.5 135L181.5 133L179.5 130.5L178.5 129L178 127V122H212L214 123.5L215.5 125.5L216 127.5L216.5 130.5H224L228 135L226.5 136L225.5 137L223.5 139.5L220.5 144C219.89 142.527 219.557 141.02 219.011 138.551L219 138.5C212.981 139.04 210.706 139.261 210.5 139.5C209.179 141.631 209.383 142.69 209.5 146Z" fill="url(#paint2_linear_14_51)"/>
<defs>
<linearGradient id="paint0_linear_14_51" x1="197.5" y1="0" x2="197.5" y2="418.001" gradientUnits="userSpaceOnUse">
<stop stop-color="#D03030"/>
<stop offset="1" stop-color="#931E1E"/>
</linearGradient>
<linearGradient id="paint1_linear_14_51" x1="197.123" y1="349.5" x2="197.123" y2="462.5" gradientUnits="userSpaceOnUse">
<stop stop-color="#FFE34F"/>
<stop offset="1" stop-color="#FFB421"/>
</linearGradient>
<linearGradient id="paint2_linear_14_51" x1="197" y1="122" x2="197" y2="304" gradientUnits="userSpaceOnUse">
<stop stop-color="#FFCE22"/>
<stop offset="1" stop-color="#FFA800"/>
</linearGradient>
</defs>
</svg>
