<svg width="50" height="50" viewBox="0 0 50 50" fill="none" xmlns="http://www.w3.org/2000/svg">
<path d="M42.5554 50H7.44463C3.33311 50 0 46.6669 0 42.5554V7.44463C0 3.33311 3.33311 0 7.44463 0H42.5553C46.6669 0 50 3.33311 50 7.44463V42.5553C50 46.6669 46.6669 50 42.5554 50Z" fill="#3C87D0"/>
<path d="M7.44463 46.9819C5.00381 46.9819 3.01807 44.9962 3.01807 42.5554V7.44463C3.01807 5.00381 5.00381 3.01807 7.44463 3.01807H42.5553C44.9961 3.01807 46.9818 5.00381 46.9818 7.44463V42.5553C46.9818 44.9961 44.9961 46.9818 42.5553 46.9818H7.44463V46.9819Z" fill="#5F99D7"/>
<path d="M6.75527 5.71953C6.46924 5.4335 6.00547 5.4335 5.71953 5.71953C5.4335 6.00557 5.4335 6.46934 5.71953 6.75528L6.11045 7.14619C6.25342 7.28916 6.44092 7.36075 6.62832 7.36075C6.81572 7.36075 7.00322 7.28926 7.14619 7.14619C7.43223 6.86016 7.43223 6.39639 7.14619 6.11045L6.75527 5.71953Z" fill="#0268B4"/>
<path d="M43.8897 42.8538C43.6035 42.5678 43.1398 42.5678 42.8538 42.8538C42.5678 43.1398 42.5678 43.6036 42.8538 43.8896L43.2447 44.2805C43.3878 44.4234 43.5753 44.495 43.7627 44.495C43.9501 44.495 44.1376 44.4235 44.2807 44.2805C44.5667 43.9944 44.5667 43.5307 44.2807 43.2447L43.8897 42.8538Z" fill="#0268B4"/>
<path d="M43.3717 7.36075C43.5591 7.36075 43.7466 7.28926 43.8897 7.14619L44.2806 6.75528C44.5666 6.46924 44.5666 6.00547 44.2806 5.71953C43.9944 5.4335 43.5308 5.4335 43.2447 5.71953L42.8538 6.11045C42.5678 6.39649 42.5678 6.86026 42.8538 7.14619C42.9968 7.28926 43.1843 7.36075 43.3717 7.36075Z" fill="#0268B4"/>
<path d="M6.11045 42.8538L5.71953 43.2447C5.4335 43.5308 5.4335 43.9945 5.71953 44.2805C5.8625 44.4234 6.05 44.495 6.2374 44.495C6.4248 44.495 6.6123 44.4235 6.75527 44.2805L7.14619 43.8896C7.43223 43.6035 7.43223 43.1397 7.14619 42.8538C6.86025 42.5678 6.39648 42.5678 6.11045 42.8538Z" fill="#0268B4"/>
<path d="M42.5554 2.28564H7.44463C4.6 2.28564 2.28564 4.6 2.28564 7.44463V42.5553C2.28564 45.3999 4.6 47.7143 7.44463 47.7143H42.5553C45.4 47.7143 47.7143 45.3999 47.7143 42.5553V7.44463C47.7144 4.6 45.4 2.28564 42.5554 2.28564ZM46.2495 42.5554C46.2495 44.5923 44.5923 46.2495 42.5554 46.2495H7.44463C5.40772 46.2495 3.75049 44.5923 3.75049 42.5554V7.44463C3.75049 5.40772 5.40772 3.75049 7.44463 3.75049H42.5553C44.5922 3.75049 46.2494 5.40772 46.2494 7.44463V42.5554H46.2495Z" fill="#EEF5F6"/>
<path d="M25.7055 10.9673C24.0605 9.36567 21.899 8.48364 19.6189 8.48364H13.1736C12.6388 8.48364 12.1261 8.69653 11.7486 9.07524C11.4064 9.41851 11.2027 9.8727 11.1684 10.3529C11.1642 10.3954 11.1615 10.4417 11.1615 10.4958V33.6432C11.1615 34.7544 12.0623 35.6553 13.1736 35.6553C14.2848 35.6553 15.1857 34.7545 15.1857 33.6432V25.5897C16.664 25.5817 18.6063 25.5722 19.6189 25.5722C21.899 25.5722 24.0605 24.6902 25.7055 23.0885C27.3728 21.4651 28.2912 19.3127 28.2912 17.028C28.2912 14.7431 27.3729 12.5908 25.7055 10.9673ZM19.6189 21.5481C18.6112 21.5481 16.6956 21.5574 15.2192 21.5654C15.2112 20.0475 15.2017 18.0566 15.2017 17.028C15.2017 16.1625 15.1963 14.0896 15.1917 12.5078H19.6188C22.1384 12.5078 24.267 14.5778 24.267 17.028C24.2671 19.4781 22.1385 21.5481 19.6189 21.5481Z" fill="#EEF5F6"/>
<path d="M37.6188 34.8831L36.662 29.8892C36.5959 29.5441 36.294 29.2946 35.9427 29.2946H27.3934C27.042 29.2946 26.7402 29.5441 26.674 29.8892L25.7173 34.8831C25.6412 35.2804 25.9016 35.6642 26.2988 35.7403C26.6952 35.8162 27.0798 35.556 27.156 35.1587L27.9988 30.7594H35.3372L36.18 35.1587C36.2472 35.5095 36.5541 35.7534 36.8985 35.7534C36.9443 35.7534 36.9905 35.7491 37.0371 35.7403C37.4345 35.6642 37.6948 35.2804 37.6188 34.8831Z" fill="#DEECF1"/>
<path d="M27.612 41.8983H26.1714C25.6802 41.8983 25.282 41.5001 25.282 41.0089V38.767H28.5013V41.0089C28.5014 41.5001 28.1032 41.8983 27.612 41.8983Z" fill="#DEECF1"/>
<path d="M37.1646 41.8983H35.9253C35.4341 41.8983 35.0359 41.5001 35.0359 41.0089V38.767H38.054V41.0089C38.0541 41.5001 37.6558 41.8983 37.1646 41.8983Z" fill="#DEECF1"/>
<path d="M38.4971 39.2826H24.839C24.3323 39.2826 23.9215 38.8719 23.9215 38.3651V35.3711C23.9215 34.8644 24.3323 34.4536 24.839 34.4536H38.4971C39.0038 34.4536 39.4146 34.8644 39.4146 35.3711V38.3651C39.4145 38.8719 39.0037 39.2826 38.4971 39.2826Z" fill="#EEF5F6"/>
<path d="M38.4971 34.4537H35.479C35.9857 34.4537 36.3965 34.8645 36.3965 35.3712V38.3653C36.3965 38.872 35.9857 39.2827 35.479 39.2827H38.4971C39.0038 39.2827 39.4146 38.872 39.4146 38.3653V35.3711C39.4145 34.8645 39.0037 34.4537 38.4971 34.4537Z" fill="#DEECF1"/>
<path d="M27.618 36.1357H26.2792C25.8746 36.1357 25.5468 36.4637 25.5468 36.8682C25.5468 37.2727 25.8746 37.6006 26.2792 37.6006H27.618C28.0226 37.6006 28.3505 37.2727 28.3505 36.8682C28.3505 36.4637 28.0225 36.1357 27.618 36.1357Z" fill="#5F99D7"/>
<path d="M37.0569 36.1357H35.718C35.3134 36.1357 34.9856 36.4637 34.9856 36.8682C34.9856 37.2727 35.3134 37.6006 35.718 37.6006H37.0569C37.4615 37.6006 37.7893 37.2727 37.7893 36.8682C37.7893 36.4637 37.4614 36.1357 37.0569 36.1357Z" fill="#5F99D7"/>
</svg>
