<svg width="100" height="45" viewBox="0 0 100 45" fill="none" xmlns="http://www.w3.org/2000/svg">
<g clip-path="url(#clip0)">
<path d="M70.7744 3.94348V5.55968H84.6476C85.5701 5.55968 86.961 5.55968 87.887 6.48221C88.8131 7.40827 88.8131 8.79559 88.8131 9.72165V23.5949C88.8131 24.5209 88.8131 25.9083 87.887 26.8308C86.961 27.7569 85.5701 27.7569 84.6476 27.7569H77.9575C76.8025 27.7569 75.2955 27.7569 74.718 26.4857C74.1441 25.2111 74.9483 24.0562 75.6476 23.1336L84.6617 11.1266H70.7884L65.2251 18.5209C64.2955 19.7604 63.4927 20.8343 63.4927 22.2181C63.4927 23.6055 64.2392 24.6055 65.2251 25.9153L66.6124 27.7639C67.9997 29.6125 69.387 31.4611 71.2251 32.3766C73.0772 33.2956 75.2744 33.2956 78.2673 33.2956H84.2884C87.7603 33.2956 92.9504 33.2956 96.4363 29.8308C99.9011 26.3625 99.9011 21.2745 99.9011 19.4435V13.8801C99.9011 12.028 99.9011 6.94348 96.4363 3.49278C92.9645 0.0209448 87.7744 0.0315079 84.2884 0.0279868L74.711 0.0227051C73.792 0.0227051 72.63 0.022705 71.7039 0.948761C70.7849 1.87482 70.7849 3.02975 70.7849 3.9558" fill="#F2C94C"/>
<path d="M54.2251 11.0913H67.9575L51.4082 33.2744H37.3237L54.2251 11.0913Z" fill="#F2C94C"/>
<path d="M-0.000123791 15.0348C-0.000123791 14.1123 -0.00012375 12.9538 0.925933 12.0278C1.84847 11.1052 3.01044 11.1052 3.93297 11.1052H27.1724C30.1759 11.1052 32.3837 11.1052 34.2147 12.0278C36.0597 12.9573 37.4471 14.8059 38.8273 16.6404L40.2182 18.489C41.2076 19.8024 41.9576 20.8024 41.9576 22.1862C41.9576 23.5735 41.1478 24.6475 40.2182 25.8834L34.6548 33.2778H20.7816L29.7957 21.2707C30.4893 20.3447 31.3027 19.1933 30.7217 17.9186C30.1478 16.651 28.6442 16.651 27.4893 16.651H16.609V44.3975H5.51748V16.651H-0.0458984V15.0313" fill="#F2C94C"/>
</g>
<defs>
<clipPath id="clip0">
<rect width="100" height="44.3662" fill="white"/>
</clipPath>
</defs>
</svg>
