<svg width="209" height="99" viewBox="0 0 209 99" fill="none" xmlns="http://www.w3.org/2000/svg">
<path d="M7.542 79.216C5.73 79.216 4.224 78.592 3.024 77.344C1.824 76.084 1.224 74.536 1.224 72.7C1.224 70.888 1.83 69.352 3.042 68.092C4.254 66.82 5.772 66.184 7.596 66.184C8.652 66.184 9.552 66.358 10.296 66.706C11.04 67.042 11.766 67.546 12.474 68.218L11.538 69.226C10.326 68.074 9.006 67.498 7.578 67.498C6.186 67.498 5.022 67.996 4.086 68.992C3.162 69.988 2.7 71.224 2.7 72.7C2.7 74.164 3.168 75.4 4.104 76.408C5.04 77.404 6.198 77.902 7.578 77.902C8.394 77.902 9.114 77.752 9.738 77.452C10.362 77.152 10.998 76.696 11.646 76.084L12.582 77.074C11.874 77.782 11.13 78.316 10.35 78.676C9.57 79.036 8.634 79.216 7.542 79.216ZM17.0871 79V70.918H13.7571V69.694H21.8211V70.918H18.4911V79H17.0871ZM26.6091 79.198C25.6611 79.198 24.8451 78.94 24.1611 78.424C23.4771 77.908 23.1351 77.188 23.1351 76.264C23.1351 75.292 23.4951 74.542 24.2151 74.014C24.9351 73.486 25.9011 73.222 27.1131 73.222C28.0731 73.222 29.0211 73.354 29.9571 73.618V73.33C29.9571 72.514 29.7171 71.89 29.2371 71.458C28.7571 71.026 28.0791 70.81 27.2031 70.81C26.2911 70.81 25.3491 71.032 24.3771 71.476L23.9631 70.342C25.1151 69.814 26.2431 69.55 27.3471 69.55C28.6671 69.55 29.6691 69.892 30.3531 70.576C31.0011 71.224 31.3251 72.136 31.3251 73.312V79H29.9571V77.614C29.1291 78.67 28.0131 79.198 26.6091 79.198ZM26.8791 78.082C27.7431 78.082 28.4751 77.848 29.0751 77.38C29.6751 76.912 29.9751 76.312 29.9751 75.58V74.716C29.0631 74.452 28.1571 74.32 27.2571 74.32C26.4051 74.32 25.7391 74.494 25.2591 74.842C24.7791 75.178 24.5391 75.64 24.5391 76.228C24.5391 76.792 24.7611 77.242 25.2051 77.578C25.6611 77.914 26.2191 78.082 26.8791 78.082ZM34.2609 79V69.694H35.6469V73.708H41.0109V69.694H42.3969V79H41.0109V74.932H35.6469V79H34.2609ZM53.5213 81.322V79H45.4933V69.694H46.8793V77.776H52.0993V69.694H53.4853V77.776H54.8893L54.6733 81.322H53.5213ZM56.796 79V69.694H58.182V77.056L63.708 69.694H65.058V79H63.672V71.638L58.128 79H56.796ZM67.3235 79L70.1675 75.4C69.4355 75.232 68.8355 74.902 68.3675 74.41C67.9115 73.918 67.6835 73.312 67.6835 72.592C67.6835 71.728 67.9955 71.032 68.6195 70.504C69.2435 69.964 70.1015 69.694 71.1935 69.694H75.5675V79H74.1815V75.616H71.6075C71.4995 75.76 71.1275 76.252 70.4915 77.092C69.8555 77.932 69.3695 78.568 69.0335 79H67.3235ZM71.3015 74.446H74.1815V70.918H71.2655C70.5815 70.918 70.0415 71.074 69.6455 71.386C69.2615 71.686 69.0695 72.106 69.0695 72.646C69.0695 73.198 69.2735 73.636 69.6815 73.96C70.1015 74.284 70.6415 74.446 71.3015 74.446ZM86.3097 79V70.918H82.9797V69.694H91.0437V70.918H87.7137V79H86.3097ZM97.1277 79.216C95.8197 79.216 94.7157 78.766 93.8157 77.866C92.9277 76.954 92.4837 75.784 92.4837 74.356C92.4837 73 92.9097 71.854 93.7617 70.918C94.6137 69.97 95.6757 69.496 96.9477 69.496C98.2797 69.496 99.3357 69.964 100.116 70.9C100.896 71.836 101.286 73.012 101.286 74.428C101.286 74.608 101.28 74.77 101.268 74.914H93.8877C93.9837 75.862 94.3377 76.618 94.9497 77.182C95.5737 77.734 96.3117 78.01 97.1637 78.01C98.2797 78.01 99.2577 77.572 100.098 76.696L100.962 77.47C99.9177 78.634 98.6397 79.216 97.1277 79.216ZM93.8877 73.798H99.8817C99.7977 72.898 99.4977 72.154 98.9817 71.566C98.4777 70.966 97.7877 70.666 96.9117 70.666C96.1197 70.666 95.4417 70.96 94.8777 71.548C94.3137 72.136 93.9837 72.886 93.8877 73.798ZM102.866 79L106.52 74.266L103.01 69.694H104.594L107.348 73.294L110.102 69.694H111.65L108.122 74.23L111.794 79H110.192L107.312 75.202L104.414 79H102.866ZM114.048 79V69.694H115.434V73.708H120.798V69.694H122.184V79H120.798V74.932H115.434V79H114.048ZM125.28 79V69.694H126.666V77.056L132.192 69.694H133.542V79H132.156V71.638L126.612 79H125.28ZM142.54 79V75.166C142.168 75.382 141.682 75.58 141.082 75.76C140.482 75.928 139.93 76.012 139.426 76.012C138.49 76.012 137.74 75.772 137.176 75.292C136.624 74.812 136.348 74.122 136.348 73.222V69.694H137.734V73.024C137.734 73.576 137.896 74.014 138.22 74.338C138.556 74.65 139.018 74.806 139.606 74.806C140.71 74.806 141.688 74.512 142.54 73.924V69.694H143.926V79H142.54ZM151.093 79.216C149.785 79.216 148.681 78.766 147.781 77.866C146.893 76.954 146.449 75.784 146.449 74.356C146.449 73 146.875 71.854 147.727 70.918C148.579 69.97 149.641 69.496 150.913 69.496C152.245 69.496 153.301 69.964 154.081 70.9C154.861 71.836 155.251 73.012 155.251 74.428C155.251 74.608 155.245 74.77 155.233 74.914H147.853C147.949 75.862 148.303 76.618 148.915 77.182C149.539 77.734 150.277 78.01 151.129 78.01C152.245 78.01 153.223 77.572 154.063 76.696L154.927 77.47C153.883 78.634 152.605 79.216 151.093 79.216ZM147.853 73.798H153.847C153.763 72.898 153.463 72.154 152.947 71.566C152.443 70.966 151.753 70.666 150.877 70.666C150.085 70.666 149.407 70.96 148.843 71.548C148.279 72.136 147.949 72.886 147.853 73.798ZM161.871 79.216C160.527 79.216 159.393 78.742 158.469 77.794C157.557 76.834 157.101 75.688 157.101 74.356C157.101 73.024 157.557 71.884 158.469 70.936C159.393 69.976 160.527 69.496 161.871 69.496C163.311 69.496 164.553 70.048 165.597 71.152L164.715 72.088C163.851 71.176 162.897 70.72 161.853 70.72C160.917 70.72 160.125 71.074 159.477 71.782C158.841 72.478 158.523 73.336 158.523 74.356C158.523 75.364 158.847 76.222 159.495 76.93C160.155 77.626 160.971 77.974 161.943 77.974C162.939 77.974 163.875 77.506 164.751 76.57L165.669 77.416C164.589 78.616 163.323 79.216 161.871 79.216ZM167.96 79V69.694H169.346V75.058L174.44 69.694H176.15L172.262 73.726L176.258 79H174.62L171.308 74.734L169.346 76.75V79H167.96ZM185.895 77.794C184.959 78.742 183.801 79.216 182.421 79.216C181.041 79.216 179.889 78.742 178.965 77.794C178.053 76.846 177.597 75.7 177.597 74.356C177.597 73.024 178.059 71.884 178.983 70.936C179.919 69.976 181.077 69.496 182.457 69.496C183.837 69.496 184.989 69.97 185.913 70.918C186.837 71.866 187.299 73.012 187.299 74.356C187.299 75.688 186.831 76.834 185.895 77.794ZM182.457 77.974C183.453 77.974 184.269 77.626 184.905 76.93C185.553 76.234 185.877 75.376 185.877 74.356C185.877 73.348 185.541 72.49 184.869 71.782C184.209 71.074 183.393 70.72 182.421 70.72C181.425 70.72 180.609 71.074 179.973 71.782C179.337 72.478 179.019 73.336 179.019 74.356C179.019 75.364 179.349 76.222 180.009 76.93C180.669 77.626 181.485 77.974 182.457 77.974ZM189.81 79V69.694H196.128V70.918H191.196V79H189.81ZM205.864 77.794C204.928 78.742 203.77 79.216 202.39 79.216C201.01 79.216 199.858 78.742 198.934 77.794C198.022 76.846 197.566 75.7 197.566 74.356C197.566 73.024 198.028 71.884 198.952 70.936C199.888 69.976 201.046 69.496 202.426 69.496C203.806 69.496 204.958 69.97 205.882 70.918C206.806 71.866 207.268 73.012 207.268 74.356C207.268 75.688 206.8 76.834 205.864 77.794ZM202.426 77.974C203.422 77.974 204.238 77.626 204.874 76.93C205.522 76.234 205.846 75.376 205.846 74.356C205.846 73.348 205.51 72.49 204.838 71.782C204.178 71.074 203.362 70.72 202.39 70.72C201.394 70.72 200.578 71.074 199.942 71.782C199.306 72.478 198.988 73.336 198.988 74.356C198.988 75.364 199.318 76.222 199.978 76.93C200.638 77.626 201.454 77.974 202.426 77.974ZM9.27 94.794C8.334 95.742 7.176 96.216 5.796 96.216C4.416 96.216 3.264 95.742 2.34 94.794C1.428 93.846 0.972 92.7 0.972 91.356C0.972 90.024 1.434 88.884 2.358 87.936C3.294 86.976 4.452 86.496 5.832 86.496C7.212 86.496 8.364 86.97 9.288 87.918C10.212 88.866 10.674 90.012 10.674 91.356C10.674 92.688 10.206 93.834 9.27 94.794ZM5.832 94.974C6.828 94.974 7.644 94.626 8.28 93.93C8.928 93.234 9.252 92.376 9.252 91.356C9.252 90.348 8.916 89.49 8.244 88.782C7.584 88.074 6.768 87.72 5.796 87.72C4.8 87.72 3.984 88.074 3.348 88.782C2.712 89.478 2.394 90.336 2.394 91.356C2.394 92.364 2.724 93.222 3.384 93.93C4.044 94.626 4.86 94.974 5.832 94.974ZM17.5587 96.216C16.1307 96.216 14.9847 95.748 14.1207 94.812C13.2687 93.864 12.8427 92.586 12.8427 90.978C12.8427 90.39 12.8547 89.892 12.8787 89.484C12.9027 89.064 12.9507 88.602 13.0227 88.098C13.0947 87.594 13.2087 87.162 13.3647 86.802C13.5207 86.442 13.7187 86.088 13.9587 85.74C14.2107 85.392 14.5347 85.098 14.9307 84.858C15.3267 84.618 15.7887 84.438 16.3167 84.318L21.5007 83.094L21.7707 84.264L16.7307 85.506C15.7947 85.746 15.1227 86.13 14.7147 86.658C14.3187 87.174 14.0847 87.894 14.0127 88.818C14.8047 87.474 16.0887 86.802 17.8647 86.802C19.0887 86.802 20.1387 87.258 21.0147 88.17C21.8907 89.07 22.3287 90.156 22.3287 91.428C22.3287 92.748 21.8727 93.876 20.9607 94.812C20.0487 95.748 18.9147 96.216 17.5587 96.216ZM17.5947 94.974C18.5427 94.974 19.3287 94.638 19.9527 93.966C20.5767 93.282 20.8887 92.448 20.8887 91.464C20.8887 90.492 20.5647 89.664 19.9167 88.98C19.2807 88.296 18.4947 87.954 17.5587 87.954C16.6107 87.954 15.8247 88.296 15.2007 88.98C14.5767 89.652 14.2647 90.48 14.2647 91.464C14.2647 92.436 14.5827 93.264 15.2187 93.948C15.8667 94.632 16.6587 94.974 17.5947 94.974ZM29.033 96.216C27.689 96.216 26.555 95.742 25.631 94.794C24.719 93.834 24.263 92.688 24.263 91.356C24.263 90.024 24.719 88.884 25.631 87.936C26.555 86.976 27.689 86.496 29.033 86.496C30.473 86.496 31.715 87.048 32.759 88.152L31.877 89.088C31.013 88.176 30.059 87.72 29.015 87.72C28.079 87.72 27.287 88.074 26.639 88.782C26.003 89.478 25.685 90.336 25.685 91.356C25.685 92.364 26.009 93.222 26.657 93.93C27.317 94.626 28.133 94.974 29.105 94.974C30.101 94.974 31.037 94.506 31.913 93.57L32.831 94.416C31.751 95.616 30.485 96.216 29.033 96.216ZM34.6722 96.144C34.3122 96.144 33.9402 96.096 33.5562 96L33.7182 94.812C33.9942 94.896 34.2162 94.938 34.3842 94.938C34.6482 94.938 34.8642 94.908 35.0322 94.848C35.2002 94.776 35.3802 94.602 35.5722 94.326C35.7762 94.038 35.9322 93.636 36.0402 93.12C36.1482 92.604 36.2382 91.872 36.3102 90.924C36.3942 89.976 36.4362 88.824 36.4362 87.468V86.694H43.0242V96H41.6382V87.918H37.7502V88.134C37.7502 89.55 37.6962 90.756 37.5882 91.752C37.4802 92.748 37.3422 93.528 37.1742 94.092C37.0182 94.656 36.7962 95.094 36.5082 95.406C36.2202 95.718 35.9382 95.916 35.6622 96C35.3982 96.096 35.0682 96.144 34.6722 96.144ZM47.5661 98.934C46.8941 98.934 46.2341 98.778 45.5861 98.466L46.0541 97.368C46.4981 97.596 46.9841 97.71 47.5121 97.71C47.9321 97.71 48.2861 97.578 48.5741 97.314C48.8621 97.062 49.1441 96.612 49.4201 95.964L45.1901 86.694H46.7201L50.1041 94.452L53.0921 86.694H54.5681L50.6621 96.306C50.2661 97.254 49.8281 97.926 49.3481 98.322C48.8681 98.73 48.2741 98.934 47.5661 98.934ZM55.5729 96L59.3889 90.672L55.7709 86.694H57.4449L62.1789 92.094V86.694H63.5649V92.094L68.2989 86.694H69.9729L66.3549 90.672L70.1709 96H68.5509L65.4549 91.662L63.5649 93.732V96H62.1789V93.732L60.2889 91.662L57.1929 96H55.5729ZM72.0714 96V86.694H73.4574V94.056L78.9834 86.694H80.3334V96H78.9474V88.638L73.4034 96H72.0714ZM83.4269 96V86.694H87.9269C88.8509 86.694 89.5889 86.904 90.1409 87.324C90.6929 87.744 90.9689 88.308 90.9689 89.016C90.9689 90.012 90.4529 90.726 89.4209 91.158C90.7889 91.53 91.4729 92.298 91.4729 93.462C91.4729 94.242 91.1669 94.86 90.5549 95.316C89.9429 95.772 89.1209 96 88.0889 96H83.4269ZM84.8129 94.812H87.9089C88.5689 94.812 89.0909 94.674 89.4749 94.398C89.8589 94.122 90.0509 93.738 90.0509 93.246C90.0509 92.79 89.8469 92.436 89.4389 92.184C89.0429 91.932 88.4729 91.806 87.7289 91.806H84.8129V94.812ZM84.8129 90.69H87.6749C88.2509 90.69 88.7069 90.564 89.0429 90.312C89.3909 90.048 89.5649 89.676 89.5649 89.196C89.5649 88.8 89.4029 88.482 89.0789 88.242C88.7549 88.002 88.2989 87.882 87.7109 87.882H84.8129V90.69ZM96.7458 96.198C95.7978 96.198 94.9818 95.94 94.2978 95.424C93.6138 94.908 93.2718 94.188 93.2718 93.264C93.2718 92.292 93.6318 91.542 94.3518 91.014C95.0718 90.486 96.0378 90.222 97.2498 90.222C98.2098 90.222 99.1578 90.354 100.094 90.618V90.33C100.094 89.514 99.8538 88.89 99.3738 88.458C98.8938 88.026 98.2158 87.81 97.3398 87.81C96.4278 87.81 95.4858 88.032 94.5138 88.476L94.0998 87.342C95.2518 86.814 96.3798 86.55 97.4838 86.55C98.8038 86.55 99.8058 86.892 100.49 87.576C101.138 88.224 101.462 89.136 101.462 90.312V96H100.094V94.614C99.2658 95.67 98.1498 96.198 96.7458 96.198ZM97.0158 95.082C97.8798 95.082 98.6118 94.848 99.2118 94.38C99.8118 93.912 100.112 93.312 100.112 92.58V91.716C99.1998 91.452 98.2938 91.32 97.3938 91.32C96.5418 91.32 95.8758 91.494 95.3958 91.842C94.9158 92.178 94.6758 92.64 94.6758 93.228C94.6758 93.792 94.8978 94.242 95.3418 94.578C95.7978 94.914 96.3558 95.082 97.0158 95.082ZM104.398 96V86.694H105.784V90.708H111.148V86.694H112.534V96H111.148V91.932H105.784V96H104.398ZM115.63 96V86.694H117.016V94.056L122.542 86.694H123.892V96H122.506V88.638L116.962 96H115.63ZM126.158 96L129.002 92.4C128.27 92.232 127.67 91.902 127.202 91.41C126.746 90.918 126.518 90.312 126.518 89.592C126.518 88.728 126.83 88.032 127.454 87.504C128.078 86.964 128.936 86.694 130.028 86.694H134.402V96H133.016V92.616H130.442C130.334 92.76 129.962 93.252 129.326 94.092C128.69 94.932 128.204 95.568 127.868 96H126.158ZM130.136 91.446H133.016V87.918H130.1C129.416 87.918 128.876 88.074 128.48 88.386C128.096 88.686 127.904 89.106 127.904 89.646C127.904 90.198 128.108 90.636 128.516 90.96C128.936 91.284 129.476 91.446 130.136 91.446Z" fill="#BABDBF"/>
<path d="M26.368 49.768C19.7973 49.768 14.3147 47.5493 9.92 43.112C5.568 38.632 3.392 33.128 3.392 26.6C3.392 20.1147 5.58933 14.632 9.984 10.152C14.3787 5.672 19.968 3.432 26.752 3.432C30.6347 3.432 33.8987 4.072 36.544 5.352C39.1893 6.58933 41.7067 8.38133 44.096 10.728L38.208 17.512C36.288 15.7627 34.4747 14.504 32.768 13.736C31.104 12.9253 29.0773 12.52 26.688 12.52C22.9333 12.52 19.8187 13.8853 17.344 16.616C14.912 19.304 13.696 22.632 13.696 26.6C13.696 30.5253 14.912 33.8533 17.344 36.584C19.8187 39.3147 22.9333 40.68 26.688 40.68C29.0773 40.68 31.1467 40.2533 32.896 39.4C34.6453 38.5467 36.5013 37.224 38.464 35.432L44.736 42.152C42.304 44.7547 39.6587 46.6747 36.8 47.912C33.984 49.1493 30.5067 49.768 26.368 49.768ZM63.058 49V13.288H49.426V4.2H86.546V13.288H72.914V49H63.058ZM132.91 43.048C128.387 47.528 122.713 49.768 115.886 49.768C109.059 49.768 103.385 47.528 98.862 43.048C94.382 38.568 92.142 33.0853 92.142 26.6C92.142 20.1573 94.4033 14.696 98.926 10.216C103.491 5.69333 109.187 3.432 116.014 3.432C122.841 3.432 128.494 5.672 132.974 10.152C137.497 14.632 139.758 20.1147 139.758 26.6C139.758 33.0427 137.475 38.5253 132.91 43.048ZM106.286 36.584C108.846 39.3147 112.089 40.68 116.014 40.68C119.939 40.68 123.161 39.336 125.678 36.648C128.195 33.9173 129.454 30.568 129.454 26.6C129.454 22.6747 128.174 19.3467 125.614 16.616C123.054 13.8853 119.811 12.52 115.886 12.52C111.961 12.52 108.739 13.8853 106.222 16.616C103.705 19.304 102.446 22.632 102.446 26.6C102.446 30.5253 103.726 33.8533 106.286 36.584Z" fill="white"/>
</svg>
