<svg width="64" height="64" viewBox="0 0 64 64" fill="none" xmlns="http://www.w3.org/2000/svg">
<g clip-path="url(#clip0)">
<path d="M63.985 59.4607L58.9569 31.7592C58.9068 31.4827 58.7353 31.2432 58.4896 31.1066L45.8343 24.0678C45.6701 23.9763 45.4859 23.94 45.3051 23.954L47.6074 53.655L47.5303 53.6895L62.6758 60.4841C62.7991 60.5393 62.9301 60.5665 63.0605 60.5665C63.2668 60.5665 63.4713 60.4987 63.6395 60.367C63.9142 60.1525 64.0471 59.8035 63.985 59.4607Z" fill="#44C868"/>
<path d="M32 30.7969L19.0569 24.0555C18.9018 23.9746 18.7298 23.9416 18.5604 23.953C18.6053 23.9502 18.6504 23.9505 18.6951 23.954L16.3928 53.655L31.6154 60.4843C31.7383 60.5393 31.8694 60.5667 32 60.5667V30.7969Z" fill="#44C868"/>
<path d="M18.695 23.9542C18.5141 23.9402 18.33 23.9766 18.1658 24.068L5.51037 31.1067C5.26462 31.2433 5.09312 31.4827 5.04299 31.7593L0.0151097 59.4608C-0.0471404 59.8035 0.0858599 60.1525 0.360485 60.3673C0.528861 60.4989 0.733236 60.5668 0.939486 60.5668C1.06986 60.5668 1.20099 60.5396 1.32411 60.4844L16.3871 53.7268L18.695 23.9542Z" fill="#4CE166"/>
<path d="M45.305 23.9536C45.1805 23.9632 45.0573 23.9964 44.9432 24.0559L32.0001 30.7971V60.5669C32.0001 60.5669 32.0001 60.5669 32.0002 60.5669C32.1308 60.5669 32.2621 60.5397 32.3848 60.4846L47.6075 53.6553L45.305 23.9536Z" fill="#4CE166"/>
<path d="M3.51924 40.1542L2.49786 45.7816L17.6221 37.7933L17.9733 33.2635L18.0315 32.5122L3.51924 40.1542Z" fill="#FFDB56"/>
<path d="M17.7583 36.0369L17.6221 37.7934L2.49786 45.7816L0.0151097 59.4608C-0.0471404 59.8035 0.0858599 60.1525 0.360485 60.3673C0.528861 60.4989 0.733236 60.5668 0.939486 60.5668C1.06986 60.5668 1.20099 60.5397 1.32411 60.4844L16.3871 53.7268L17.7583 36.0369Z" fill="#A8EEFC"/>
<path d="M32.0038 34.5101L18.0315 32.5122L17.6221 37.7933L32 59.6283V51.6885L23.4204 38.1787L32.0038 39.2053V34.5101Z" fill="#FFBB24"/>
<path d="M57.4933 30.5526L51.414 27.1713L45.6587 28.516L45.7307 29.4455L46.0149 33.1123L57.4933 30.5526Z" fill="#FFBB24"/>
<path d="M46.5253 39.6971L45.9803 32.666L45.6587 28.5161L32.0038 34.5101V39.2054L40.9233 35.3266L46.5253 39.6971Z" fill="#FFDB56"/>
<path d="M63.985 59.4607L62.7221 52.5025L46.015 33.1123L46.5255 39.6971L63.6592 60.3497C63.9197 60.1339 64.0456 59.7949 63.985 59.4607Z" fill="#FFBB24"/>
<path d="M32.0602 3.43311C24.8148 3.43311 18.9202 9.32287 18.9202 16.5624C18.9202 21.0406 21.0463 25.8486 25.2397 30.8527C28.3196 34.528 31.3576 36.8919 31.4854 36.9908C31.6547 37.1217 31.8574 37.187 32.0603 37.187C32.2631 37.187 32.4659 37.1217 32.6352 36.9908C32.7629 36.8919 35.8011 34.528 38.881 30.8527C43.0743 25.8486 45.2005 21.0408 45.2005 16.5624C45.2002 9.32287 39.3056 3.43311 32.0602 3.43311ZM36.9265 16.5623C36.9265 19.2475 34.7477 21.4245 32.0602 21.4245C29.3727 21.4245 27.1939 19.2476 27.1939 16.5623C27.1939 13.8769 29.3727 11.7 32.0602 11.7C34.7477 11.7 36.9265 13.877 36.9265 16.5623Z" fill="#FF4A4A"/>
<path d="M32.0602 3.43311C31.4859 3.43311 30.9203 3.47036 30.3653 3.54211C36.8132 4.37548 41.8106 9.89662 41.8106 16.5624C41.8106 21.0406 39.6844 25.8486 35.4911 30.8527C33.5104 33.2162 31.5485 35.036 30.3654 36.0613C31.0222 36.6303 31.4399 36.9555 31.4854 36.9908C31.6547 37.1217 31.8574 37.187 32.0603 37.187C32.263 37.187 32.4659 37.1217 32.6352 36.9908C32.7629 36.8919 35.8011 34.528 38.8809 30.8527C43.0743 25.8486 45.2004 21.0408 45.2004 16.5624C45.2002 9.32287 39.3056 3.43311 32.0602 3.43311Z" fill="#E7343F"/>
<path d="M32.3848 60.4844L38.0454 57.9449L32.0001 51.6885V60.5667C32.0001 60.5667 32.0001 60.5667 32.0002 60.5667C32.1308 60.5667 32.2619 60.5396 32.3848 60.4844Z" fill="#FFDB56"/>
<path d="M58.9569 31.7594C58.9067 31.4829 58.7352 31.2434 58.4895 31.1067L57.4932 30.5526L46.0148 33.1122L62.7219 52.5024L58.9569 31.7594Z" fill="#1EA4E9"/>
<path d="M31.9999 60.5668C32 60.5668 32 60.5668 31.9999 60.5668V59.6283L17.6221 37.7933L16.3925 53.6552L31.6152 60.4845C31.738 60.5396 31.8692 60.5668 31.9999 60.5668Z" fill="#1EA4E9"/>
</g>
<defs>
<clipPath id="clip0">
<rect width="64" height="64" fill="white"/>
</clipPath>
</defs>
</svg>
