<svg width="170" height="58" viewBox="0 0 170 58" fill="none" xmlns="http://www.w3.org/2000/svg">
<circle cx="146" cy="23" r="15" fill="#FF6164"/>
<path d="M38.386 55V45.2H39.506L43.076 50.548L46.646 45.2H47.766V55H46.66V47.062L43.09 52.312H43.034L39.464 47.076V55H38.386ZM52.5143 55.154C51.777 55.154 51.1423 54.9533 50.6103 54.552C50.0783 54.1507 49.8123 53.5907 49.8123 52.872C49.8123 52.116 50.0923 51.5327 50.6523 51.122C51.2123 50.7113 51.9636 50.506 52.9063 50.506C53.653 50.506 54.3903 50.6087 55.1183 50.814V50.59C55.1183 49.9553 54.9316 49.47 54.5583 49.134C54.185 48.798 53.6576 48.63 52.9763 48.63C52.267 48.63 51.5343 48.8027 50.7783 49.148L50.4563 48.266C51.3523 47.8553 52.2296 47.65 53.0883 47.65C54.115 47.65 54.8943 47.916 55.4263 48.448C55.9303 48.952 56.1823 49.6613 56.1823 50.576V55H55.1183V53.922C54.4743 54.7433 53.6063 55.154 52.5143 55.154ZM52.7243 54.286C53.3963 54.286 53.9656 54.104 54.4323 53.74C54.899 53.376 55.1323 52.9093 55.1323 52.34V51.668C54.423 51.4627 53.7183 51.36 53.0183 51.36C52.3556 51.36 51.8376 51.4953 51.4643 51.766C51.091 52.0273 50.9043 52.3867 50.9043 52.844C50.9043 53.2827 51.077 53.6327 51.4223 53.894C51.777 54.1553 52.211 54.286 52.7243 54.286ZM58.4657 57.24V47.762H59.5437V49.218C60.2717 48.1447 61.1957 47.608 62.3157 47.608C63.2397 47.608 64.0471 47.9533 64.7377 48.644C65.4284 49.3253 65.7737 50.24 65.7737 51.388C65.7737 52.5173 65.4284 53.4273 64.7377 54.118C64.0471 54.8087 63.2397 55.154 62.3157 55.154C61.1771 55.154 60.2531 54.6407 59.5437 53.614V57.24H58.4657ZM62.1197 54.188C62.8477 54.188 63.4544 53.936 63.9397 53.432C64.4251 52.9187 64.6677 52.2327 64.6677 51.374C64.6677 50.5433 64.4204 49.8713 63.9257 49.358C63.4311 48.8353 62.8291 48.574 62.1197 48.574C61.4197 48.574 60.8084 48.84 60.2857 49.372C59.7631 49.904 59.5017 50.576 59.5017 51.388C59.5017 52.2 59.7631 52.872 60.2857 53.404C60.8084 53.9267 61.4197 54.188 62.1197 54.188ZM67.7626 55V47.762H68.8406V51.934L72.8026 47.762H74.1326L71.1086 50.898L74.2166 55H72.9426L70.3666 51.682L68.8406 53.25V55H67.7626ZM78.87 55.168C77.8526 55.168 76.994 54.818 76.294 54.118C75.6033 53.4087 75.258 52.4987 75.258 51.388C75.258 50.3333 75.5893 49.442 76.252 48.714C76.9146 47.9767 77.7406 47.608 78.73 47.608C79.766 47.608 80.5873 47.972 81.194 48.7C81.8006 49.428 82.104 50.3427 82.104 51.444C82.104 51.584 82.0993 51.71 82.09 51.822H76.35C76.4246 52.5593 76.7 53.1473 77.176 53.586C77.6613 54.0153 78.2353 54.23 78.898 54.23C79.766 54.23 80.5266 53.8893 81.18 53.208L81.852 53.81C81.04 54.7153 80.046 55.168 78.87 55.168ZM76.35 50.954H81.012C80.9466 50.254 80.7133 49.6753 80.312 49.218C79.92 48.7513 79.3833 48.518 78.702 48.518C78.086 48.518 77.5586 48.7467 77.12 49.204C76.6813 49.6613 76.4246 50.2447 76.35 50.954ZM85.7411 55V48.714H83.1511V47.762H89.4231V48.714H86.8331V55H85.7411ZM90.9911 55V47.762H97.2631V55H96.1851V48.714H92.0691V55H90.9911ZM99.3228 55.112C99.0428 55.112 98.7534 55.0747 98.4547 55L98.5808 54.076C98.7954 54.1413 98.9681 54.174 99.0988 54.174C99.3041 54.174 99.4721 54.1507 99.6028 54.104C99.7334 54.048 99.8734 53.9127 100.023 53.698C100.181 53.474 100.303 53.1613 100.387 52.76C100.471 52.3587 100.541 51.7893 100.597 51.052C100.662 50.3147 100.695 49.4187 100.695 48.364V47.762H105.819V55H104.741V48.714H101.717V48.882C101.717 49.9833 101.675 50.9213 101.591 51.696C101.507 52.4707 101.399 53.0773 101.269 53.516C101.147 53.9547 100.975 54.2953 100.751 54.538C100.527 54.7807 100.307 54.9347 100.093 55C99.8874 55.0747 99.6308 55.112 99.3228 55.112ZM111.395 55.168C110.378 55.168 109.519 54.818 108.819 54.118C108.129 53.4087 107.783 52.4987 107.783 51.388C107.783 50.3333 108.115 49.442 108.777 48.714C109.44 47.9767 110.266 47.608 111.255 47.608C112.291 47.608 113.113 47.972 113.719 48.7C114.326 49.428 114.629 50.3427 114.629 51.444C114.629 51.584 114.625 51.71 114.615 51.822H108.875C108.95 52.5593 109.225 53.1473 109.701 53.586C110.187 54.0153 110.761 54.23 111.423 54.23C112.291 54.23 113.052 53.8893 113.705 53.208L114.377 53.81C113.565 54.7153 112.571 55.168 111.395 55.168ZM108.875 50.954H113.537C113.472 50.254 113.239 49.6753 112.837 49.218C112.445 48.7513 111.909 48.518 111.227 48.518C110.611 48.518 110.084 48.7467 109.645 49.204C109.207 49.6613 108.95 50.2447 108.875 50.954ZM116.517 55V47.762H117.595V53.488L121.893 47.762H122.943V55H121.865V49.274L117.553 55H116.517ZM120.997 46.25C120.642 46.5673 120.208 46.726 119.695 46.726C119.181 46.726 118.743 46.5673 118.379 46.25C118.024 45.9327 117.805 45.522 117.721 45.018L118.463 44.864C118.649 45.5173 119.06 45.844 119.695 45.844C120.329 45.844 120.74 45.5173 120.927 44.864L121.669 45.018C121.585 45.522 121.361 45.9327 120.997 46.25ZM128.611 55.168C127.565 55.168 126.683 54.7993 125.965 54.062C125.255 53.3153 124.901 52.424 124.901 51.388C124.901 50.352 125.255 49.4653 125.965 48.728C126.683 47.9813 127.565 47.608 128.611 47.608C129.731 47.608 130.697 48.0373 131.509 48.896L130.823 49.624C130.151 48.9147 129.409 48.56 128.597 48.56C127.869 48.56 127.253 48.8353 126.749 49.386C126.254 49.9273 126.007 50.5947 126.007 51.388C126.007 52.172 126.259 52.8393 126.763 53.39C127.276 53.9313 127.911 54.202 128.667 54.202C129.441 54.202 130.169 53.838 130.851 53.11L131.565 53.768C130.725 54.7013 129.74 55.168 128.611 55.168Z" fill="#82979B"/>
<circle cx="130.5" cy="38.5" r="3.5" fill="#9CEC80"/>
<circle cx="160.5" cy="6.5" r="3.5" fill="#DD80EC"/>
<path d="M2.16 32V15.2H15.864V32H12.912V17.864H5.112V32H2.16ZM34.5114 29.744C32.8474 31.44 30.7434 32.288 28.1994 32.288C25.6554 32.288 23.5594 31.448 21.9114 29.768C20.2634 28.088 19.4394 26.032 19.4394 23.6C19.4394 21.2 20.2714 19.152 21.9354 17.456C23.5994 15.76 25.7034 14.912 28.2474 14.912C30.7914 14.912 32.8874 15.752 34.5354 17.432C36.1834 19.112 37.0074 21.168 37.0074 23.6C37.0074 26 36.1754 28.048 34.5114 29.744ZM24.1434 27.848C25.2314 29 26.5994 29.576 28.2474 29.576C29.8954 29.576 31.2474 29 32.3034 27.848C33.3754 26.696 33.9114 25.28 33.9114 23.6C33.9114 21.936 33.3674 20.528 32.2794 19.376C31.2074 18.208 29.8474 17.624 28.1994 17.624C26.5514 17.624 25.1914 18.2 24.1194 19.352C23.0634 20.504 22.5354 21.92 22.5354 23.6C22.5354 25.264 23.0714 26.68 24.1434 27.848ZM40.5741 32V15.2H43.5261V23.648L51.5181 15.2H55.1421L48.1581 22.424L55.4541 32H51.8781L46.1421 24.44L43.5261 27.128V32H40.5741ZM60.8687 32.264C59.7167 32.264 58.6207 31.984 57.5807 31.424L58.7087 29.216C59.3327 29.568 60.0207 29.744 60.7727 29.744C61.7807 29.744 62.6607 29.136 63.4127 27.92L56.4047 15.2H59.7167L64.9487 24.968L69.5567 15.2H72.7487L66.1967 28.328C64.9007 30.952 63.1247 32.264 60.8687 32.264ZM75.5428 32V15.2H89.2468V32H86.2948V17.864H78.4948V32H75.5428ZM92.1263 32L99.5183 15.08H102.254L109.646 32H106.526L104.822 27.944H96.8783L95.1503 32H92.1263ZM97.9583 25.328H103.742L100.838 18.608L97.9583 25.328ZM122.223 12.992C121.551 13.584 120.711 13.88 119.703 13.88C118.695 13.88 117.855 13.584 117.183 12.992C116.511 12.384 116.087 11.56 115.911 10.52L117.711 10.184C118.015 11.272 118.679 11.816 119.703 11.816C120.695 11.816 121.359 11.272 121.695 10.184L123.471 10.52C123.311 11.56 122.895 12.384 122.223 12.992ZM112.527 32V15.2H115.431V27.464L123.927 15.2H126.687V32H123.783V19.76L115.311 32H112.527Z" fill="#4C5A5E"/>
<path d="M130.899 32V15.2H134.595V22.544L141.411 15.2H145.875L139.035 22.328L146.187 32H141.747L136.539 24.848L134.595 26.864V32H130.899ZM146.99 32L154.19 15.08H157.598L164.798 32H160.934L159.398 28.232H152.294L150.758 32H146.99ZM153.614 24.968H158.078L155.846 19.52L153.614 24.968Z" fill="white"/>
<circle cx="131.5" cy="10.5" r="6.5" fill="#80C4EA"/>
<circle cx="163.5" cy="34.5" r="6.5" fill="#FFF066"/>
</svg>
