<svg width="64" height="72" viewBox="0 0 64 72" fill="none" xmlns="http://www.w3.org/2000/svg">
<path d="M51.9246 20.7539H12.0754L0.220703 37.5198L32 72.0003L63.7793 37.5196L51.9246 20.7539ZM49.5311 25.3778L56.346 35.0158H46.5039L43.149 25.3778H49.5311ZM25.747 25.3778H38.2527L41.6076 35.0158H22.3922L25.747 25.3778ZM14.4688 25.3778H20.8508L17.4959 35.0158H7.65414L14.4688 25.3778ZM8.46288 39.6397H17.5906L24.9496 57.5276L8.46288 39.6397ZM22.5906 39.6397H41.4095L32 62.5119L22.5906 39.6397ZM39.0505 57.5278L46.4094 39.6397H55.5372L39.0505 57.5278Z" fill="white"/>
<path d="M34.3124 0H29.6885V13.3016H34.3124V0Z" fill="white"/>
<path d="M21.172 11.6662L11.7666 2.26074L8.49705 5.5303L17.9025 14.9357L21.172 11.6662Z" fill="white"/>
<path d="M55.502 5.5303L52.2324 2.26074L42.827 11.6662L46.0965 14.9357L55.502 5.5303Z" fill="white"/>
</svg>
