<svg width="56" height="57" viewBox="0 0 56 57" fill="none" xmlns="http://www.w3.org/2000/svg">
<path d="M48.2265 8.71364C48.151 8.63722 48.0756 8.63722 48 8.63722C47.9245 8.63722 47.8491 8.71364 47.7736 8.71364C46.4152 10.3187 44.8302 11.7709 43.0944 12.9174C39.6227 15.134 35.6982 16.357 31.5472 16.357C23.8491 16.357 19.4717 12.5353 15.9245 9.78369C15.8491 9.70727 15.7736 9.63083 15.7736 9.5544C15.7736 9.47796 15.8491 9.40154 15.9245 9.3251C21.434 5.04489 25.9624 2.29332 30.5661 0.688236C30.717 0.611804 30.7925 0.53537 30.7925 0.382506C30.7925 0.229641 30.6416 0.153208 30.4905 0.0767759C29.6604 0.000343446 28.8302 0.000343523 28.0001 0.000343523C12.5283 -0.0760889 0 12.6117 0 28.2803C0 36.9173 3.77359 44.637 9.81133 49.8343C9.88681 49.9108 9.96228 49.9108 10.1132 49.9108C10.1887 49.9108 10.2642 49.8343 10.3396 49.6815L11.4717 46.0126C11.5472 45.8598 11.6981 45.7833 11.8491 45.7833C26.7925 49.0699 33.2076 40.8918 32.1511 35.7707C31.2453 31.4141 24.2265 27.5924 13.9623 33.4777C13.8868 33.5542 13.8113 33.5542 13.7359 33.4777C13.7359 33.4777 13.6604 33.4777 13.6604 33.4014C13.5849 33.3249 13.5095 33.2485 13.5095 33.0956L16.9811 15.134C16.9811 15.0575 17.0566 14.9811 17.1322 14.9047C17.2075 14.8282 17.3584 14.9047 17.434 14.9047C18.4151 15.5161 21.3585 17.427 24.5283 19.3378C24.6038 19.4142 24.6792 19.4906 24.6792 19.6436C24.6038 20.4078 24.1509 23.2358 24 24.4588C24 24.5351 24 24.6881 24.0756 24.7644C24.1509 24.8409 24.2265 24.8409 24.3774 24.8409C41.5849 20.1785 45.2076 31.1083 44.7547 36.3058C43.6982 48.1529 30.7925 54.4203 19.3208 54.5731C19.1699 54.5731 19.019 54.6496 19.019 54.8024C19.019 54.9554 19.0943 55.1082 19.2452 55.1082C22.0378 56.0254 24.9812 56.5603 28.0001 56.5603C43.4717 56.5603 56 43.8726 56 28.204C56 20.7136 52.9813 13.7582 48.2265 8.71364Z" fill="white"/>
<path d="M20.7597 9.47913C30.0427 16.5874 43.6276 12.995 48.156 1.91232C39.7787 5.96323 30.4956 8.56195 20.7597 9.47913Z" fill="white"/>
<path d="M20.7597 9.47913C30.4956 8.63837 39.7031 6.03968 48.156 1.91232C38.722 0.842266 28.9107 3.21167 20.7597 9.47913Z" fill="white"/>
</svg>
