<svg width="72" height="72" viewBox="0 0 72 72" fill="none" xmlns="http://www.w3.org/2000/svg">
<path d="M29.5246 49.1994C29.101 48.7242 28.6942 48.2238 28.3042 47.703C26.0242 45.0774 24.5182 41.2686 24.1174 37.047C24.0334 36.141 23.9998 35.457 23.9998 34.7994C23.9998 34.1418 24.0334 33.4578 24.1078 32.6466C24.5194 28.3302 26.0254 24.5214 28.3594 21.8274C28.7242 21.339 29.1142 20.8602 29.5246 20.3994H20.3998C15.1066 20.3994 10.7998 26.859 10.7998 34.7994C10.7998 42.7398 15.1066 49.1994 20.3998 49.1994H29.5246Z" fill="white"/>
<path d="M50.0821 33.6282C49.9873 33.4482 49.8601 33.2886 49.7233 33.1386L49.4113 32.8914C49.2277 32.745 49.0201 32.6334 48.8041 32.5494C48.7669 32.5362 48.7297 32.5266 48.6925 32.5146C48.5641 32.4714 48.4309 32.4522 48.2977 32.4306C48.1993 32.4174 48.1021 32.3994 48.0001 32.3994C46.6765 32.3994 45.6001 33.4758 45.6001 34.7994C45.6001 35.9478 46.4125 36.909 47.4925 37.143C47.5081 37.1466 47.5237 37.1502 47.5381 37.1526C47.6881 37.1826 47.8417 37.1994 48.0001 37.1994C48.2461 37.1994 48.4789 37.1514 48.7021 37.083L48.7981 37.0482C49.4989 36.7998 50.0245 36.2454 50.2597 35.5746C50.2681 35.5494 50.2753 35.5242 50.2837 35.499L50.3401 35.0658C50.4049 34.5642 50.3101 34.0698 50.0893 33.6414C50.0869 33.6378 50.0845 33.633 50.0821 33.6282Z" fill="white"/>
<path d="M53.9519 20.3994H42.0479C36.2687 22.791 32.3999 28.5486 32.3999 34.7994C32.3999 41.0502 36.2687 46.8078 42.0479 49.1994H53.9519C59.7311 46.8078 63.5999 41.0502 63.5999 34.7994C63.5999 28.5486 59.7311 22.791 53.9519 20.3994ZM58.5095 42.7818L58.0931 43.2654L57.4595 43.1898C55.7807 42.9918 54.0023 42.2946 52.4723 41.535C52.9355 42.3414 53.4899 43.0014 54.0155 43.4442C54.5723 43.9146 54.8351 44.6454 54.6983 45.3534C54.5651 46.0566 54.0767 46.6134 53.3963 46.8414C51.7631 47.3898 49.4411 48.0426 47.6627 48.0426C47.3471 48.0426 47.0495 48.0222 46.7771 47.9802L46.1471 47.883L45.8747 47.307C45.1187 45.7062 44.7659 43.7202 44.6099 41.9574C44.0927 42.8298 43.7807 43.7178 43.6631 44.4486C43.5059 45.4266 42.6827 46.1382 41.7023 46.1382H41.7011C41.2391 46.1382 40.7891 45.9702 40.4327 45.6654C38.8187 44.2902 36.7487 42.2922 36.0467 40.5798L35.8055 39.9894L36.1595 39.459C37.2971 37.755 39.1559 36.2466 40.7591 35.1498C40.3523 35.085 39.9407 35.0454 39.5243 35.0454C38.7719 35.0454 38.0399 35.1546 37.4063 35.3586C37.2035 35.4246 36.9923 35.457 36.7811 35.457C36.1667 35.457 35.5979 35.1822 35.2175 34.7022C34.8455 34.2306 34.7135 33.6234 34.8539 33.0342C35.3471 30.969 36.1895 28.2162 37.3955 26.8158L37.8119 26.3322L38.4455 26.4078C40.1243 26.6058 41.9027 27.303 43.4327 28.0626C42.9695 27.2562 42.4151 26.5962 41.8895 26.1534C41.3327 25.683 41.0699 24.951 41.2055 24.243C41.3399 23.5398 41.8283 22.9842 42.5099 22.7562C44.4299 22.1106 47.3099 21.333 49.1291 21.6174L49.7591 21.7146L50.0315 22.2906C50.7875 23.8926 51.1391 25.8786 51.2951 27.6414C51.8135 26.7678 52.1243 25.881 52.2419 25.1502C52.4003 24.1698 53.2247 23.4594 54.2039 23.4594C54.6659 23.4594 55.1159 23.6274 55.4723 23.9322C57.0875 25.3074 59.1587 27.3078 59.8583 29.0178L60.0995 29.6082L59.7455 30.1386C58.6079 31.8426 56.7503 33.351 55.1459 34.4478C55.5527 34.5126 55.9655 34.5522 56.3807 34.5522C57.1331 34.5522 57.8639 34.4442 58.4975 34.2402C59.2883 33.9846 60.1763 34.2522 60.6875 34.8966C61.0595 35.3682 61.1915 35.9754 61.0511 36.5646C60.5579 38.6286 59.7155 41.3814 58.5095 42.7818Z" fill="white"/>
<path d="M6 14.3996V10.7996C6 10.136 5.4636 9.59961 4.8 9.59961H1.2C0.5364 9.59961 0 10.136 0 10.7996C0 11.4632 0.5364 11.9996 1.2 11.9996H3.6V14.3996V17.9996H0V25.1996H3.6V28.7996H2.4C1.7364 28.7996 1.2 29.336 1.2 29.9996C1.2 30.6632 1.7364 31.1996 2.4 31.1996H3.6V32.3996H0V50.3996H3.6V51.5996H2.4C1.7364 51.5996 1.2 52.136 1.2 52.7996C1.2 53.4632 1.7364 53.9996 2.4 53.9996H3.6V55.1996V61.1996C3.6 61.8632 4.1364 62.3996 4.8 62.3996C5.4636 62.3996 6 61.8632 6 61.1996V55.1996H13.2V59.9996H44.4V55.1996H72V14.3996H6ZM3.6 47.9996H2.4V34.7996H3.6V47.9996ZM3.6 22.7996H2.4V20.3996H3.6V22.7996ZM8.4 17.9996C9.0624 17.9996 9.6 18.5372 9.6 19.1996C9.6 19.862 9.0624 20.3996 8.4 20.3996C7.7376 20.3996 7.2 19.862 7.2 19.1996C7.2 18.5372 7.7376 17.9996 8.4 17.9996ZM8.4 51.5996C7.7376 51.5996 7.2 51.062 7.2 50.3996C7.2 49.7372 7.7376 49.1996 8.4 49.1996C9.0624 49.1996 9.6 49.7372 9.6 50.3996C9.6 51.062 9.0624 51.5996 8.4 51.5996ZM8.4 34.7996C8.4 25.5356 13.7832 17.9996 20.4 17.9996H35.7552L33.2412 20.1176C32.1492 21.038 31.1352 22.1192 30.2268 23.3336C28.1628 25.7204 26.8608 29.0516 26.5056 32.78C26.4312 33.602 26.4 34.2164 26.4 34.7996C26.4 35.3828 26.4312 35.9972 26.4984 36.734C26.862 40.5488 28.164 43.8788 30.174 46.1984C31.1364 47.48 32.1492 48.5624 33.2424 49.4816L35.7552 51.5996H20.4C13.7832 51.5996 8.4 44.0636 8.4 34.7996ZM42 57.5996H40.8V56.3996H38.4V57.5996H37.2V56.3996H34.8V57.5996H33.6V56.3996H31.2V57.5996H30V56.3996H27.6V57.5996H26.4V56.3996H24V57.5996H22.8V56.3996H20.4V57.5996H19.2V56.3996H16.8V57.5996H15.6V55.1996H42V57.5996ZM54.6276 51.5156L54.4152 51.5996H41.5848L41.3712 51.5156C34.5708 48.818 30 42.1004 30 34.7996C30 27.4988 34.5708 20.7812 41.3724 18.0836L41.5848 17.9996H54.414L54.6276 18.0836C61.4292 20.7812 66 27.4988 66 34.7996C66 42.1004 61.4292 48.818 54.6276 51.5156ZM67.2 51.5996C66.5376 51.5996 66 51.062 66 50.3996C66 49.7372 66.5376 49.1996 67.2 49.1996C67.8624 49.1996 68.4 49.7372 68.4 50.3996C68.4 51.062 67.8624 51.5996 67.2 51.5996ZM67.2 20.3996C66.5376 20.3996 66 19.862 66 19.1996C66 18.5372 66.5376 17.9996 67.2 17.9996C67.8624 17.9996 68.4 18.5372 68.4 19.1996C68.4 19.862 67.8624 20.3996 67.2 20.3996Z" fill="white"/>
</svg>
