<svg width="36" height="36" viewBox="0 0 36 36" fill="none" xmlns="http://www.w3.org/2000/svg">
<g clip-path="url(#clip0_879_4)">
<path d="M17.7435 17.3414C20.1259 17.3414 22.1888 16.4869 23.8744 14.8011C25.56 13.1155 26.4144 11.0531 26.4144 8.67041C26.4144 6.28857 25.56 4.22589 23.8741 2.53976C22.1883 0.854462 20.1256 0 17.7435 0C15.3608 0 13.2984 0.854462 11.6128 2.54004C9.92725 4.22562 9.07251 6.2883 9.07251 8.67041C9.07251 11.0531 9.92725 13.1158 11.6131 14.8013C13.299 16.4866 15.3616 17.3414 17.7435 17.3414V17.3414Z" fill="white"/>
<path d="M32.9153 27.6825C32.8667 26.981 32.7684 26.2158 32.6236 25.4077C32.4775 24.5937 32.2894 23.8241 32.0641 23.1207C31.8315 22.3936 31.5151 21.6757 31.124 20.9877C30.718 20.2736 30.2412 19.6517 29.7062 19.14C29.1467 18.6047 28.4617 18.1743 27.6696 17.8604C26.8802 17.5481 26.0055 17.3899 25.0697 17.3899C24.7022 17.3899 24.3468 17.5407 23.6604 17.9876C23.238 18.2631 22.7439 18.5817 22.1924 18.9341C21.7208 19.2345 21.0819 19.5161 20.2928 19.7709C19.523 20.0201 18.7413 20.1464 17.9698 20.1464C17.1983 20.1464 16.4169 20.0201 15.6462 19.7709C14.8579 19.5163 14.2191 19.2348 13.748 18.9343C13.2017 18.5852 12.7073 18.2666 12.2786 17.9873C11.593 17.5404 11.2374 17.3896 10.8699 17.3896C9.93384 17.3896 9.05933 17.5481 8.27023 17.8607C7.47867 18.1741 6.7934 18.6045 6.23337 19.1403C5.69861 19.6523 5.22153 20.2738 4.81613 20.9877C4.42529 21.6757 4.10889 22.3934 3.87598 23.1209C3.65103 23.8243 3.46289 24.5937 3.31677 25.4077C3.17203 26.2147 3.0737 26.9802 3.02509 27.6833C2.97729 28.3721 2.95312 29.0871 2.95312 29.8091C2.95312 31.6884 3.55051 33.2097 4.72852 34.3317C5.89197 35.4388 7.43143 36.0005 9.3035 36.0005H26.6377C28.5098 36.0005 30.0487 35.4391 31.2124 34.3317C32.3907 33.2105 32.9881 31.6889 32.9881 29.8089C32.9878 29.0835 32.9634 28.368 32.9153 27.6825V27.6825Z" fill="white"/>
</g>
<defs>
<clipPath id="clip0_879_4">
<rect width="36" height="36.0001" fill="white"/>
</clipPath>
</defs>
</svg>
