<svg width="56" height="56" viewBox="0 0 56 56" fill="none" xmlns="http://www.w3.org/2000/svg">
<path d="M15.5394 4.8272C12.3273 5.44992 9.74904 8.498 7.1484 14.7588C3.88136 22.6358 1.92584 32.7533 0.855118 47.4264C0.756558 48.6937 0.658558 50.0489 0.625518 50.4526L0.559998 51.1958H3.72848H6.9076V50.7808C6.9076 49.3276 7.36624 41.2754 7.6832 37.2109C8.69904 23.9579 10.2945 15.6542 12.6106 11.5466C13.594 9.80952 15.2762 8.54224 16.5878 8.54224C17.9424 8.54224 19.3956 10.225 20.5537 13.1202C22.0069 16.7692 22.9466 21.6642 23.5581 28.9078C23.9406 33.3984 24.2794 41.3302 24.2794 46.0281V48.4646H27.9944H31.7089V45.9189C31.7089 37.921 32.3534 27.7054 33.1946 22.1334C34.3745 14.2559 36.5159 9.22992 38.9418 8.57472C40.1761 8.24712 42.0773 9.49256 43.2135 11.3826C46.2616 16.441 47.9007 27.2031 49.037 49.7426L49.1137 51.1958H52.271H55.44L55.3745 50.5618C55.342 50.223 55.2871 49.4911 55.2541 48.9558C54.9046 43.6128 54.2164 37.1011 53.4951 32.4688C52.1074 23.4662 50.2718 17.2822 47.1251 11.0107C45.5739 7.90776 43.5417 5.77752 41.4658 5.07808C40.4824 4.73928 39.0074 4.71744 38.2099 5.0232C35.2162 6.17064 32.7034 10.169 30.5508 17.271C29.895 19.4342 28.7151 24.0884 28.3108 26.0882C28.1686 26.7982 28.0269 27.3773 27.9938 27.3773C27.9608 27.3773 27.8191 26.8201 27.6769 26.1425C26.945 22.5478 25.317 16.6807 24.257 13.8398C22.1822 8.20288 19.4286 4.95824 16.632 4.816C16.184 4.79416 15.6923 4.80536 15.5394 4.8272Z" fill="white"/>
</svg>
