<svg width="72" height="72" viewBox="0 0 72 72" fill="none" xmlns="http://www.w3.org/2000/svg">
<path d="M69.941 12.3335C72.5906 18.7271 71.3234 26.3591 66.1322 31.5503C60.4154 37.2743 51.761 38.1671 45.0434 34.3727L40.1762 39.6863L43.6466 43.1639L45.713 41.0975C46.7786 40.0319 48.4922 40.0319 49.5506 41.0975L66.3554 58.0679C67.4138 59.1263 67.4138 60.8471 66.3554 61.9055L58.6802 69.5735C57.6218 70.6319 55.901 70.6319 54.8426 69.5735L38.045 52.5959C36.9866 51.5375 36.9866 49.8167 38.045 48.7583L39.9314 46.8719L36.6266 43.5599L13.3922 68.9471C11.2754 71.0711 7.83382 71.0711 5.71702 68.9471L3.80182 67.0319C1.68501 64.9151 1.68501 61.4807 3.80182 59.3639L30.2762 37.1879L12.6938 19.5623L7.14261 19.5551L0.720215 9.22309L5.88982 4.03908L16.4594 10.5119L16.5314 15.9479L34.3154 33.8039L39.4922 29.4695C34.4306 22.5719 34.9634 12.8663 41.1986 6.63108C46.3682 1.45428 53.9498 0.172684 60.329 2.77188L48.9314 14.0111L58.5146 23.5943L69.941 12.3335ZM10.1666 62.0567C9.10822 60.9983 7.38742 60.9983 6.32902 62.0567C5.27062 63.1223 5.27062 64.8359 6.32902 65.8943C7.38742 66.9527 9.10822 66.9527 10.1666 65.8943C11.225 64.8359 11.225 63.1223 10.1666 62.0567Z" fill="white"/>
</svg>
