<svg width="65" height="65" viewBox="0 0 65 65" fill="none" xmlns="http://www.w3.org/2000/svg">
<g clip-path="url(#clip0)">
<path d="M25.689 51.7629L22.5034 34.2517L13.4524 38.3627L4.63197 42.3691L6.67998 53.6693C6.05181 53.5669 5.40194 53.5459 4.74178 53.667C1.64362 54.2344 -0.472054 57.2192 0.0970764 60.3173C0.600953 63.0678 3.06816 65 5.77023 65C9.34612 65 12.0338 61.7494 11.392 58.255L8.91308 44.6083L13.4525 42.5464L19.6359 39.7379L20.9758 47.1724C20.3425 47.0711 19.6928 47.0561 19.0408 47.1752C15.941 47.7438 13.8804 50.7118 14.4512 53.8234C14.9663 56.6318 17.4134 58.5061 20.058 58.5061C23.6421 58.5061 26.3326 55.2718 25.689 51.7629Z" fill="white"/>
<path d="M20.9758 47.1724C20.3425 47.0711 19.6928 47.0561 19.0407 47.1752C15.9409 47.7438 13.8804 50.7118 14.4511 53.8234C14.9663 56.6318 17.4133 58.5061 20.058 58.5061C23.642 58.5061 26.3325 55.272 25.689 51.763L22.5034 34.2518L13.4524 38.3628V42.5463L19.6358 39.7377L20.9758 47.1724Z" fill="white"/>
<path d="M43.9213 2.11352L37.5352 2.75793L35.2303 20.1914C34.2043 19.3956 33.0046 18.8462 31.6847 18.6549C27.522 18.0596 23.6574 20.9206 23.0521 25.0967C22.3775 29.7168 25.978 33.8093 30.5949 33.8093C34.3142 33.8093 37.5761 31.0737 38.1265 27.2874C38.1277 27.2798 40.9123 6.24292 40.9123 6.24292L43.9212 5.93976L60.5843 4.2735L58.793 17.8301C57.7874 17.0485 56.595 16.483 55.247 16.2875C51.1103 15.6877 47.2223 18.5367 46.6145 22.7293C45.9398 27.3494 49.5404 31.4418 54.1573 31.4418C57.8766 31.4418 61.1384 28.7063 61.6889 24.9181C61.6902 24.9105 64.9955 0 64.9955 0L43.9213 2.11352Z" fill="white"/>
<path d="M58.793 17.8301C57.7874 17.0485 56.5951 16.483 55.2471 16.2875C51.1103 15.6877 47.2224 18.5367 46.6145 22.7293C45.9399 27.3494 49.5404 31.4418 54.1573 31.4418C57.8766 31.4418 61.1385 28.7063 61.6889 24.9181C61.6902 24.9105 64.9955 0 64.9955 0L43.9213 2.11352V5.93976L60.5844 4.2735L58.793 17.8301Z" fill="white"/>
<path d="M52.0182 34.8395L45.7842 47.8966C45.336 47.4461 44.8223 47.0488 44.2169 46.7599C43.5033 46.4184 42.7566 46.2394 42.017 46.2052C39.7846 46.1022 37.6145 47.3268 36.5998 49.4508C34.7905 53.238 37.5513 57.6259 41.7436 57.6259C41.8366 57.6259 41.9245 57.5921 42.017 57.5878C44.0486 57.4883 45.9725 56.3372 46.9097 54.379V54.3771L51.4938 44.7775L53.5524 50.6001L57.1415 49.3318L52.0182 34.8395Z" fill="white"/>
<path d="M46.9098 54.379V54.3771L51.4938 44.7775L53.5525 50.6001L57.1416 49.3318L52.0183 34.8395L45.7842 47.8966C45.3361 47.4461 44.8223 47.0488 44.217 46.7599C43.5034 46.4184 42.7567 46.2394 42.017 46.2052V57.5877C44.0487 57.4883 45.9725 56.3372 46.9098 54.379Z" fill="white"/>
<path d="M19.6211 13.6338L9.64398 7.02332L6.80797 5.14441L9.64398 19.1203L9.68651 19.33C9.6728 19.328 9.65769 19.3326 9.64398 19.3307C9.02826 19.2459 8.394 19.2325 7.74895 19.3597C4.64266 19.9934 2.66283 23.0131 3.28756 26.0955C3.85238 28.865 6.28023 30.6739 8.87401 30.6739C9.14036 30.6739 9.38868 30.6207 9.64385 30.5863C12.8804 30.1509 15.148 27.086 14.4865 23.8229L12.3683 13.3976L17.5158 16.8101L19.6211 13.6338Z" fill="white"/>
<path d="M14.4864 23.8228L12.3682 13.3975L17.5158 16.81L19.6209 13.6336L9.6438 7.02319V19.12L9.68633 19.3298C9.67262 19.3277 9.65751 19.3323 9.6438 19.3304V30.5861C12.8803 30.1507 15.148 27.0858 14.4864 23.8228Z" fill="white"/>
</g>
<defs>
<clipPath id="clip0">
<rect width="65" height="65" fill="white"/>
</clipPath>
</defs>
</svg>
