<svg width="100" height="100" viewBox="0 0 100 100" fill="none" xmlns="http://www.w3.org/2000/svg">
<circle cx="50" cy="50" r="50" fill="url(#paint0_linear_856_362)" fill-opacity="0.1"/>
<circle cx="50" cy="50" r="28" fill="white" fill-opacity="0.1"/>
<g clip-path="url(#clip0_856_362)">
<path d="M31.212 47.2367C26.1243 47.2367 22 51.3609 22 56.4496C22 61.5367 26.1243 65.6613 31.212 65.6613C34.9267 65.6613 38.1208 63.4573 39.5777 60.2888L41.7663 61.9764C41.7663 61.9764 57.8492 62.0912 58.7326 61.5921C58.7326 61.5921 56.7368 56.1416 59.2701 53.8378C59.5368 53.5952 59.872 53.3186 60.2406 53.0255C59.8159 54.0838 59.5772 55.2371 59.5772 56.4488C59.5772 61.5368 63.7012 65.6604 68.7889 65.6604C73.8765 65.6604 78.0001 61.535 78.0001 56.4488C78.0001 51.3601 73.8756 47.2368 68.7889 47.2368C68.7053 47.2368 68.6256 47.2473 68.5424 47.249C69.2078 46.8171 69.6324 46.546 69.6324 46.546L68.9416 45.9314C68.9416 45.9314 70.9375 45.4714 70.4778 44.4729C70.0166 43.4744 65.1807 37.4868 65.1807 37.4868C65.1807 37.4868 66.0373 35.644 64.2656 34.3389L63.4148 36.1814C63.4148 36.1814 61.246 34.6843 60.3826 34.9726C59.519 35.2601 58.2244 35.4045 57.8199 36.0376L57.4174 36.412C57.4174 36.412 57.3035 37.0747 57.9641 38.0534C57.9641 38.0534 64.6148 40.0972 64.9309 41.5941C64.9309 41.5941 65.3922 42.545 63.4052 42.7741L63.0032 43.2929L61.9368 43.3503L60.009 38.9453C60.009 38.9453 58.1653 39.4346 57.2161 40.1827L57.3601 40.9307C57.3601 40.9307 49.6165 35.6632 42.3328 43.4644C42.3328 43.4644 36.9495 45.0187 33.1782 40.2402C33.1782 40.2402 33.1208 38.6858 24.024 38.9738L24.6577 39.636C24.6577 39.636 24.024 39.6934 23.7653 40.0964C23.5067 40.4989 23.9092 40.9308 25.9822 40.9308C25.9822 40.9308 30.6756 46.2852 34.2737 45.9693L39.3974 48.4453L41.6719 52.3315C41.6719 52.3315 41.676 52.6654 41.6995 53.176C41.1716 53.2885 40.5798 53.4133 39.9519 53.5464C38.7346 49.8823 35.2856 47.2367 31.212 47.2367ZM68.7887 50.0596C72.3124 50.0596 75.1778 52.926 75.1778 56.4486C75.1778 59.9717 72.3114 62.8371 68.7887 62.8371C65.2652 62.8371 62.4003 59.9707 62.4003 56.4486C62.4003 52.926 65.2654 50.0596 68.7887 50.0596ZM31.212 62.8381C27.6893 62.8381 24.823 59.9717 24.823 56.4496C24.823 52.926 27.6893 50.0606 31.212 50.0606C33.9201 50.0606 36.2341 51.7572 37.1619 54.1409C33.7744 54.8614 30.412 55.5781 30.412 55.5781L30.8458 57.9675L37.4793 57.6746C36.9078 60.6125 34.3162 62.8381 31.212 62.8381ZM42.2765 57.4621C42.4648 58.1015 42.7103 58.6098 43.0331 58.828L40.0727 58.9438C40.1996 58.4903 40.2953 58.0248 40.353 57.5458L42.2765 57.4621Z" fill="white"/>
</g>
<defs>
<linearGradient id="paint0_linear_856_362" x1="50" y1="0" x2="50" y2="100" gradientUnits="userSpaceOnUse">
<stop stop-color="white"/>
<stop offset="1" stop-color="white" stop-opacity="0"/>
</linearGradient>
<clipPath id="clip0_856_362">
<rect width="56" height="56" fill="white" transform="translate(22 22)"/>
</clipPath>
</defs>
</svg>
