<svg width="34" height="31" viewBox="0 0 34 31" fill="none" xmlns="http://www.w3.org/2000/svg">
<path d="M28.6839 2.07504C28.5179 2.19574 28.3665 2.2923 28.3518 2.2923C28.3372 2.2923 28.1712 2.39852 27.9856 2.53371C27.8001 2.66408 27.639 2.77512 27.6243 2.77512C27.6097 2.77512 27.4778 2.86203 27.3314 2.96825C27.1849 3.07447 27.0531 3.16138 27.0335 3.16138C27.0189 3.16138 26.8529 3.2676 26.6673 3.40279C26.4818 3.53315 26.3207 3.6442 26.306 3.6442C26.2962 3.6442 30.886 1.86742 30.5637 2.08469C30.2414 2.30679 29.9387 2.50475 29.8899 2.53371C29.8411 2.55786 29.6506 2.68339 29.4553 2.80892C29.0745 3.06482 28.8157 3.10827 28.5423 2.96825C28.4641 2.92963 28.3128 2.88134 28.2005 2.86686C28.0931 2.84755 27.9612 2.81375 27.9124 2.78961C27.844 2.75581 27.7464 2.80409 27.4632 3.02619C27.263 3.18069 27.1019 3.33037 27.097 3.35934C27.097 3.38831 27.0433 3.49453 26.9749 3.59109C26.9066 3.68766 26.8529 3.7987 26.8529 3.83733C26.8529 3.87113 26.7943 3.97252 26.721 4.0546L26.5892 4.2091L26.0765 4.1753C25.5101 4.14151 25.3246 4.06908 24.7826 3.66834C24.6313 3.56212 24.4994 3.47521 24.4848 3.47521C24.475 3.47521 24.3236 3.36416 24.1576 3.2338C23.9916 3.09861 23.8305 2.99239 23.8012 2.99239C23.7719 2.99239 23.6352 2.88135 23.4936 2.74133C23.2934 2.5482 23.2397 2.46129 23.2397 2.34059C23.2397 2.25851 23.225 2.1716 23.2055 2.15229C23.1665 2.11366 23.1665 2.104 23.0786 1.36529C23.0004 0.684513 22.8637 0.496212 22.5805 0.694168C22.5268 0.727966 22.395 0.785905 22.2876 0.819702C22.1802 0.8535 22.0386 0.906609 21.9702 0.940407C21.9018 0.974204 21.77 1.03214 21.6772 1.06111C21.5845 1.09491 21.4429 1.14802 21.3599 1.18182C20.7251 1.45703 20.5445 1.50531 20.3492 1.47634C20.2369 1.45702 20.1197 1.42323 20.0904 1.39909C20.066 1.37977 19.8999 1.32184 19.7242 1.27838C19.5484 1.23493 19.3873 1.18182 19.358 1.1625C19.3336 1.14319 19.2017 1.09491 19.065 1.06111C18.9332 1.02731 18.7916 0.979033 18.7623 0.950064C18.7281 0.925923 18.6988 0.921094 18.6988 0.940407C18.6988 0.95972 18.6695 0.954892 18.6402 0.925922C18.606 0.901781 18.4986 0.863156 18.4059 0.843843C18.3131 0.824531 18.1715 0.781076 18.0885 0.747278C18.0104 0.708653 17.8102 0.645887 17.649 0.597605C17.4879 0.554151 17.3365 0.50104 17.3073 0.481728C17.2828 0.462415 17.151 0.418962 17.0143 0.385164C16.8825 0.351367 16.7506 0.307912 16.7213 0.288599C16.6969 0.269286 16.5211 0.216176 16.3405 0.167894C16.1598 0.119612 15.9987 0.0616738 15.984 0.0375328C15.9352 -0.0348902 15.7594 -0.00109312 15.6325 0.105127C15.5641 0.167894 15.3639 0.346538 15.1882 0.505869C14.7878 0.872812 14.6023 0.998346 14.2312 1.18182C13.9675 1.31218 13.8943 1.32666 13.4988 1.32183C13.2595 1.32183 12.9617 1.31218 12.8396 1.30252C12.5027 1.28321 12.3806 1.33632 12.0437 1.66947C11.7557 1.95916 11.7166 1.97847 11.5164 1.97847C11.3162 1.97847 11.2772 1.95433 10.95 1.6405C10.7596 1.45703 10.5789 1.26873 10.5496 1.22044C10.5057 1.14319 10.491 1.14319 10.4471 1.20596C10.3494 1.34598 10.286 1.66947 10.2957 1.98813C10.3006 2.16677 10.2811 2.3261 10.2518 2.34059C10.2274 2.35507 10.203 2.41784 10.203 2.4806C10.203 2.53854 10.1493 2.63993 10.0858 2.69787C9.98325 2.79444 9.89536 2.81375 9.53404 2.83306C9.29967 2.84272 9.07019 2.86686 9.03113 2.88134C8.88953 2.9248 8.19131 2.90549 8.1376 2.85238C8.1083 2.82341 8.05459 2.79926 8.02041 2.79926C7.98624 2.79926 7.89346 2.72684 7.81534 2.63993C7.63468 2.44681 7.27337 1.92053 7.27337 1.85777C7.27337 1.79983 6.88275 1.5391 6.62885 1.42323C6.5312 1.37977 6.39937 1.3508 6.33589 1.36046C6.23824 1.37494 6.21871 1.41357 6.17965 1.70326C6.14547 1.99295 6.15035 2.06055 6.23824 2.23437C6.29195 2.34541 6.35054 2.49026 6.37007 2.55786C6.42378 2.7365 6.57514 3.08413 6.71674 3.34968C6.82416 3.54281 6.84369 3.62489 6.81928 3.82284C6.79975 3.95803 6.76069 4.09322 6.73139 4.13185C6.70209 4.17047 6.69233 4.19944 6.71186 4.19944C6.73139 4.19944 6.72651 4.22841 6.70209 4.25738C6.6728 4.29118 6.62397 4.42637 6.58979 4.56156C6.55073 4.69192 6.49214 4.85608 6.45796 4.92367C6.42378 4.99127 6.39449 5.07818 6.3896 5.1168C6.3896 5.15543 6.25777 5.42581 6.10152 5.72033C5.94528 6.01002 5.75974 6.36248 5.6865 6.5025C5.60349 6.67148 5.37401 6.93221 4.97363 7.30881C4.36818 7.88819 4.17775 8.01855 3.78714 8.11512C3.66507 8.14409 3.54789 8.18754 3.53324 8.21168C3.51859 8.23582 3.42582 8.25513 3.32329 8.25513C3.17192 8.25513 3.10845 8.21651 2.92779 8.03786C2.81061 7.91716 2.69342 7.8206 2.66901 7.8206C2.64948 7.8206 2.19051 7.42951 1.6583 6.95152C1.12609 6.47353 0.662232 6.08244 0.628053 6.08244C0.559696 6.08244 0.618288 7.81094 0.691528 7.90268C0.715941 7.93647 0.725707 7.97993 0.711059 8.0089C0.681763 8.05718 1.17003 8.49654 1.25303 8.49654C1.27745 8.49654 1.35069 8.54965 1.41416 8.61725C1.47764 8.68484 1.56553 8.73796 1.61435 8.73796C1.71201 8.73796 2.14656 9.21112 2.14656 9.31734C2.14656 9.36079 2.11727 9.43804 2.07821 9.49115C1.95614 9.66014 1.93173 10.0078 2.0245 10.2154C2.19539 10.6016 2.22957 10.6451 2.44929 10.6982C2.62995 10.7417 2.67389 10.7803 2.76666 10.9589C2.86432 11.1472 2.87896 11.2438 2.87896 11.7556C2.87896 12.3639 2.81061 12.6874 2.6446 12.9288C2.59577 13.0013 2.54206 13.093 2.52741 13.1316C2.45417 13.3151 2.18074 13.6144 2.01473 13.6869C1.9122 13.7303 1.7706 13.7979 1.69736 13.8365C1.629 13.8752 1.54111 13.9041 1.51182 13.9041C1.43369 13.9041 1.34092 14.02 1.21397 14.2759L1.11144 14.4835L1.38975 14.7925C1.54111 14.9663 1.71201 15.1208 1.7706 15.1402C1.82919 15.1546 1.9122 15.1981 1.95126 15.2319C1.99032 15.2657 2.1075 15.3188 2.20516 15.3478C2.54206 15.454 2.88385 15.9465 2.87408 16.3134C2.86432 16.7962 2.52253 16.9894 1.45811 17.1101C1.02843 17.1583 0.67688 17.2211 0.632936 17.2597C0.593875 17.2935 0.515752 17.337 0.462042 17.3515C0.325328 17.3949 0.154434 17.786 0.115373 18.1433C0.0958423 18.3075 0.0616636 18.4571 0.0421329 18.4716C-0.0164591 18.5054 -0.0115765 18.8144 0.0421329 18.853C0.0665462 18.8675 0.105608 19.0172 0.120256 19.191C0.169082 19.64 0.45716 20.0359 0.730589 20.0359C0.803829 20.0359 0.877069 20.0504 0.8966 20.0697C0.955192 20.1277 1.76572 20.2774 2.02938 20.2774C2.17098 20.2774 2.31257 20.2484 2.37117 20.2049C2.41999 20.1663 2.55671 20.1325 2.66901 20.1325C2.78131 20.1325 2.88873 20.1084 2.90338 20.0842C2.93756 20.0263 3.33305 20.0166 3.38676 20.0697C3.40629 20.0939 3.52836 20.1325 3.65043 20.1567L3.87991 20.2049L3.95315 20.6008C3.99221 20.8181 4.04104 21.0112 4.06545 21.0306C4.12893 21.0933 4.10451 22.3776 4.04104 22.4404C4.00686 22.4742 4.00198 22.4983 4.02151 22.4983C4.04592 22.4983 4.04104 22.5273 4.01663 22.5563C3.98733 22.5901 3.9385 22.7687 3.90432 22.957C3.87015 23.1405 3.8262 23.3143 3.80667 23.3433C3.78714 23.3674 3.7432 23.5123 3.70902 23.6571C3.67484 23.8019 3.61625 23.9613 3.58207 24.0144C3.53324 24.0868 3.53812 24.1351 3.62113 24.2944C3.7139 24.4682 4.10451 24.8159 4.20705 24.8159C4.34376 24.8159 4.53419 25.0187 4.56348 25.2021C4.59278 25.3615 4.57325 25.4194 4.47071 25.5546C4.24611 25.8443 4.32423 26.1678 4.67579 26.414C4.88574 26.5637 4.93945 26.5782 5.3203 26.5926C5.71579 26.6071 5.74509 26.5975 5.99411 26.4478C6.14059 26.3609 6.31636 26.2547 6.3896 26.2112C6.46773 26.1726 6.6435 26.0567 6.78022 25.9553C6.92181 25.8588 7.08294 25.7574 7.14153 25.7332C7.20013 25.7139 7.32219 25.6367 7.41496 25.5691C7.50773 25.5015 7.61515 25.4435 7.64445 25.4435C7.72745 25.4435 7.94717 25.5932 8.3915 25.9505C8.5868 26.1098 8.78699 26.2595 8.82605 26.2885C8.87 26.3126 9.15319 26.5395 9.45592 26.7809C9.75864 27.0272 10.0174 27.23 10.037 27.23C10.0516 27.23 10.2371 27.37 10.4471 27.5438C10.6571 27.7176 10.8426 27.8576 10.8572 27.8576C10.8768 27.8576 11.1404 28.0652 11.448 28.3163C11.7557 28.5674 12.0193 28.775 12.034 28.775C12.0486 28.775 12.2488 28.9247 12.4734 29.113C12.698 29.2964 12.9031 29.4509 12.9275 29.4509C12.9519 29.4509 13.0105 29.4944 13.0593 29.5475C13.157 29.6586 13.4646 29.6827 13.5622 29.5861C13.5964 29.5523 13.6208 29.5475 13.6208 29.5668C13.6208 29.591 13.6501 29.5813 13.6892 29.5523C13.7234 29.5234 13.9382 29.4751 14.1628 29.4461C14.3874 29.4171 14.6169 29.3737 14.6706 29.3544C15.1979 29.1275 18.0445 29.1516 18.4937 29.3833C18.567 29.422 18.6549 29.4509 18.689 29.4509C18.8404 29.4509 19.0504 29.6151 19.3726 29.9965C19.5679 30.2235 19.7242 30.4359 19.7242 30.4745C19.7242 30.5131 19.7681 30.5856 19.8218 30.6339C19.8755 30.6821 19.9195 30.7497 19.9195 30.7787C19.9195 30.8125 19.9488 30.8656 19.9878 30.8946C20.0415 30.9429 20.2173 30.7787 20.9009 30.0448C21.3696 29.5427 21.7749 29.0985 21.7993 29.055C21.8286 29.0116 22.2241 28.5722 22.6782 28.0846L23.5082 27.1913L23.9428 27.1865C24.392 27.1817 24.9535 27.2541 25.1098 27.3362C25.1586 27.3603 25.2855 27.4617 25.393 27.5535C25.5004 27.65 25.598 27.7128 25.6176 27.6935C25.6371 27.679 25.6224 27.6355 25.5931 27.6066C25.5199 27.5341 25.515 27.2976 25.5834 27.2541C25.6127 27.2348 25.6224 27.201 25.6029 27.1769C25.5883 27.1527 25.598 27.1044 25.6224 27.0706C25.6468 27.0368 25.6859 26.9161 25.7054 26.7954C25.725 26.6796 25.7933 26.5106 25.8568 26.4285C25.9203 26.3464 25.974 26.2547 25.974 26.2257C25.974 26.1919 26.013 26.1678 26.0619 26.1678C26.1107 26.1678 26.2181 26.1147 26.306 26.0519C26.4134 25.9795 26.5599 25.9312 26.765 25.907C27.3118 25.8539 27.3607 25.8008 27.512 25.178C27.556 24.9897 27.6097 24.7966 27.639 24.7434C27.6634 24.6903 27.7122 24.5455 27.7464 24.4296C27.7806 24.3089 27.9075 24.0289 28.0247 23.8116C28.3372 23.237 28.3909 23.1453 28.5325 22.9329C28.6009 22.8266 28.6595 22.7253 28.6595 22.7059C28.6595 22.6818 28.7522 22.5563 28.8596 22.4259C28.9719 22.2907 29.1331 22.0445 29.2161 21.8707C29.2991 21.7017 29.4358 21.4941 29.5139 21.412C29.5969 21.3299 29.6995 21.1851 29.7434 21.0933C29.8362 20.9195 29.8801 20.8423 30.0705 20.5526C30.178 20.3884 30.1828 20.3353 30.1584 19.9925C30.1291 19.5193 30.1926 18.3171 30.261 18.235C30.2854 18.2061 30.3342 17.9936 30.3684 17.7667C30.4026 17.5398 30.4709 17.2887 30.5198 17.2066C30.5735 17.1245 30.6125 16.9942 30.6125 16.9169C30.6174 16.8204 30.7102 16.6562 30.9201 16.3955C31.2131 16.0237 31.384 15.8982 31.882 15.6954C32.1213 15.5988 32.3459 15.4974 32.4191 15.4588C32.4582 15.4347 32.5558 15.3864 32.6388 15.3478C32.8976 15.2222 32.8585 15.1401 32.3019 14.5946C31.882 14.189 31.7844 14.0683 31.7844 13.9524C31.7844 13.8752 31.8039 13.8027 31.8283 13.7834C31.8527 13.7689 31.9015 13.6338 31.9357 13.4792C31.9699 13.3296 32.0334 13.1606 32.0822 13.1075C32.131 13.0544 32.1945 12.9578 32.2238 12.8902C32.2482 12.8226 32.341 12.6488 32.4191 12.504C32.5265 12.3108 32.5656 12.1756 32.5656 11.997V11.7556L32.0431 11.2438C31.5109 10.7272 31.0276 10.3119 30.9201 10.2782C30.886 10.2685 30.7053 10.1285 30.5198 9.96915C30.1926 9.68911 29.9289 9.29802 29.9289 9.09041C29.9289 9.04213 29.8997 8.9504 29.8655 8.88763C29.8166 8.78624 30.3062 8.89625 30.4087 8.69829C30.4917 8.52448 30.0657 8.30342 30.1487 8.30342C30.3 8.30342 29.9289 9.09041 30.9299 8.45309C30.9836 8.4724 26.3011 10.4713 26.4769 10.5002C26.6527 10.5292 26.8382 10.5727 26.8919 10.592C26.9945 10.6403 27.7952 10.8093 28.3372 10.8962C28.6497 10.9493 28.6741 10.9444 28.9134 10.8237C29.0501 10.7513 29.2014 10.6934 29.2503 10.6934C29.2942 10.6934 29.3821 10.6596 29.4358 10.6258C29.4944 10.5872 29.6458 10.5292 29.7776 10.4954C29.9094 10.4664 30.0413 10.423 30.0657 10.4037C30.095 10.3795 30.261 10.3409 30.4465 10.3168C30.9397 10.2395 31.4572 9.91121 32.0724 9.28354C32.4386 8.90694 32.5754 8.73312 32.6291 8.56897C32.6681 8.44826 32.7365 8.2841 32.7853 8.20202C32.8341 8.11994 32.8878 7.94613 32.9025 7.81577C32.922 7.68541 32.9513 7.55504 32.9709 7.5309C32.9904 7.50193 33.0343 6.93221 33.0734 6.25626L33.132 5.02989L32.8683 4.79814C32.7218 4.66778 32.5851 4.56156 32.5656 4.56156C32.5412 4.56156 32.2629 4.34429 31.9455 4.07874C31.6281 3.81319 31.3547 3.59592 31.3352 3.59592C31.3205 3.59592 31.1008 3.4221 30.8518 3.20966C30.5979 2.99722 30.3782 2.82341 30.3586 2.82341C30.344 2.82341 30.0657 2.60614 29.7483 2.34059C29.4309 2.07503 29.1282 1.85777 29.0794 1.85777C29.0257 1.85777 28.8499 1.95433 28.6839 2.07504Z" fill="white"/>
</svg>
