<svg width="541" height="196" viewBox="0 0 541 196" fill="none" xmlns="http://www.w3.org/2000/svg">
<rect width="541" height="196" rx="10" fill="#C4C4C4"/>
<path d="M320.6 35.2168C325.349 35.2168 328.715 36.548 330.712 39.1976C332.709 41.8472 333.707 45.316 333.707 49.5912V149.777C333.707 151.082 333.4 152.401 332.798 153.758C332.197 155.102 331.352 156.292 330.29 157.316C329.214 158.34 327.986 159.172 326.59 159.825C325.195 160.478 323.659 160.798 321.982 160.798H219.16C216.28 160.798 213.746 159.633 211.557 157.303C209.368 154.974 208.28 152.183 208.28 148.932V46.788C208.28 43.4344 209.214 40.6696 211.07 38.4808C212.926 36.3048 215.397 35.2168 218.469 35.2168H320.6ZM321.163 51.5368C321.163 50.5128 320.766 49.604 319.973 48.8104C319.179 48.0168 318.232 47.62 317.118 47.62H224.741C223.627 47.62 222.693 48.0168 221.95 48.8104C221.208 49.604 220.837 50.5128 220.837 51.5368V101.623C221.771 102.737 223 104.017 224.536 105.463C226.072 106.91 227.89 108.254 229.976 109.508C232.075 110.762 234.443 111.838 237.093 112.721C239.742 113.604 242.699 114.052 245.95 114.052C250.968 114.052 255.397 113.233 259.211 111.607C263.026 109.982 266.635 107.985 270.027 105.604C273.419 103.236 276.747 100.625 279.998 97.796C283.25 94.9544 286.808 92.3048 290.674 89.8472C294.539 87.3768 298.93 85.2904 303.858 83.5624C308.786 81.8472 314.558 80.836 321.163 80.5672V51.5368Z" fill="#9E9E9E"/>
<path d="M230 57L258 85M230 85L258 57" stroke="#9E9E9E" stroke-width="6" stroke-linecap="round" stroke-linejoin="round"/>
</svg>
