<svg width="128" height="128" viewBox="0 0 128 128" fill="none" xmlns="http://www.w3.org/2000/svg">
<path d="M113.6 1.2168C118.349 1.2168 121.715 2.548 123.712 5.1976C125.709 7.8472 126.707 11.316 126.707 15.5912V115.777C126.707 117.082 126.4 118.401 125.798 119.758C125.197 121.102 124.352 122.292 123.29 123.316C122.214 124.34 120.986 125.172 119.59 125.825C118.195 126.478 116.659 126.798 114.982 126.798H12.16C9.28003 126.798 6.74563 125.633 4.55683 123.303C2.36803 120.974 1.28003 118.183 1.28003 114.932V12.788C1.28003 9.4344 2.21443 6.6696 4.07043 4.4808C5.92643 2.3048 8.39683 1.2168 11.4688 1.2168H113.6ZM114.163 17.5368C114.163 16.5128 113.766 15.604 112.973 14.8104C112.179 14.0168 111.232 13.62 110.118 13.62H17.7408C16.6272 13.62 15.6928 14.0168 14.9504 14.8104C14.208 15.604 13.8368 16.5128 13.8368 17.5368V67.6232C14.7712 68.7368 16 70.0168 17.536 71.4632C19.072 72.9096 20.8896 74.2536 22.976 75.508C25.0752 76.7624 27.4432 77.8376 30.0928 78.7208C32.7424 79.604 35.6992 80.052 38.9504 80.052C43.968 80.052 48.3968 79.2328 52.2112 77.6072C56.0256 75.9816 59.6352 73.9848 63.0272 71.604C66.4192 69.236 69.7472 66.6248 72.9984 63.796C76.2496 60.9544 79.808 58.3048 83.6736 55.8472C87.5392 53.3768 91.9296 51.2904 96.8576 49.5624C101.786 47.8472 107.558 46.836 114.163 46.5672V17.5368Z" fill="#9E9E9E"/>
<path d="M23 23L51 51M23 51L51 23" stroke="#9E9E9E" stroke-width="6" stroke-linecap="round" stroke-linejoin="round"/>
</svg>
