<svg width="300" height="75" viewBox="0 0 300 75" fill="none" xmlns="http://www.w3.org/2000/svg">
<rect width="300" height="75" rx="10" fill="white"/>
<mask id="mask0" mask-type="alpha" maskUnits="userSpaceOnUse" x="0" y="0" width="300" height="75">
<rect width="300" height="75" rx="10" fill="white"/>
</mask>
<g mask="url(#mask0)">
<circle cx="-46" cy="106" r="125" fill="#F2C94C"/>
</g>
<path d="M42.1363 61.8639H17.1363C16.4546 61.8639 16 61.4093 16 60.7274V58.4547C16 57.7729 16.4546 57.3184 17.1363 57.3184H42.1363C42.8182 57.3184 43.2727 57.773 43.2727 58.4547V60.7274C43.2728 61.4093 42.8182 61.8639 42.1363 61.8639Z" fill="#F6B545"/>
<path d="M37.5909 58.4547H16C16 57.7729 16.4546 57.3184 17.1363 57.3184H37.5909V58.4547Z" fill="#FFCB5B"/>
<path d="M37.5909 58.4547V59.591C37.5909 60.2729 37.1363 60.7273 36.4546 60.7273H16C16 61.4092 16.4546 61.8637 17.1363 61.8637H36.4545H42.1363C42.8182 61.8637 43.2727 61.4091 43.2727 60.7273V58.4546H37.5909V58.4547Z" fill="#F19920"/>
<path d="M19.4093 60.7273V59.0228C19.4093 58.6818 19.182 58.4546 18.8411 58.4546C18.5002 58.4546 18.2729 58.6818 18.2729 59.0228V60.7273" fill="#F19920"/>
<path d="M22.818 60.7273V59.0228C22.818 58.6818 22.5907 58.4546 22.2498 58.4546C21.9089 58.4546 21.6816 58.6818 21.6816 59.0228V60.7273" fill="#F19920"/>
<path d="M26.2271 60.7273V59.0228C26.2271 58.6818 25.9999 58.4546 25.659 58.4546C25.3181 58.4546 25.0908 58.6818 25.0908 59.0228V60.7273" fill="#F19920"/>
<path d="M29.6363 60.7273V59.0228C29.6363 58.6818 29.4091 58.4546 29.0682 58.4546C28.7272 58.4546 28.5 58.6818 28.5 59.0228V60.7273" fill="#F19920"/>
<path d="M33.0455 60.7273V59.0228C33.0455 58.6818 32.8183 58.4546 32.4773 58.4546C32.1364 58.4546 31.9092 58.6818 31.9092 59.0228V60.7273" fill="#F19920"/>
<path d="M36.4547 60.7273V59.0228C36.4547 58.6818 36.2274 58.4546 35.8865 58.4546C35.5456 58.4546 35.3184 58.6818 35.3184 59.0228V60.7273" fill="#F19920"/>
<path d="M44.4093 57.3184H19.4093C18.7274 57.3184 18.2729 56.8638 18.2729 56.182V53.9093C18.2729 53.2274 18.7275 52.7729 19.4093 52.7729H44.4093C45.0911 52.7729 45.5456 53.2275 45.5456 53.9093V56.182C45.5456 56.8639 45.0911 57.3184 44.4093 57.3184Z" fill="#F6B545"/>
<path d="M39.8639 53.9093H18.2729C18.2729 53.2274 18.7275 52.7729 19.4093 52.7729H39.8639V53.9093Z" fill="#FFCB5B"/>
<path d="M39.8639 53.9088V55.0451C39.8639 55.727 39.4093 56.1814 38.7275 56.1814H18.2729C18.2729 56.8633 18.7275 57.3178 19.4093 57.3178H38.7274H44.4093C45.0911 57.3178 45.5456 56.8632 45.5456 56.1814V53.9087H39.8639V53.9088Z" fill="#F19920"/>
<path d="M21.6822 56.1814V54.4769C21.6822 54.1359 21.455 53.9087 21.1141 53.9087C20.7731 53.9087 20.5459 54.1359 20.5459 54.4769V56.1814" fill="#F19920"/>
<path d="M25.0909 56.1814V54.4769C25.0909 54.1359 24.8637 53.9087 24.5228 53.9087C24.1818 53.9087 23.9546 54.1359 23.9546 54.4769V56.1814" fill="#F19920"/>
<path d="M28.5001 56.1814V54.4769C28.5001 54.1359 28.2729 53.9087 27.9319 53.9087C27.591 53.9087 27.3638 54.1359 27.3638 54.4769V56.1814" fill="#F19920"/>
<path d="M31.9093 56.1814V54.4769C31.9093 54.1359 31.682 53.9087 31.3411 53.9087C31.0002 53.9087 30.7729 54.1359 30.7729 54.4769V56.1814" fill="#F19920"/>
<path d="M35.3185 56.1814V54.4769C35.3185 54.1359 35.0912 53.9087 34.7503 53.9087C34.4094 53.9087 34.1821 54.1359 34.1821 54.4769V56.1814" fill="#F19920"/>
<path d="M38.7276 56.1814V54.4769C38.7276 54.1359 38.5004 53.9087 38.1595 53.9087C37.8186 53.9087 37.5913 54.1359 37.5913 54.4769V56.1814" fill="#F19920"/>
<path d="M46.6817 48.227H21.6817C20.9999 48.227 20.5454 47.7725 20.5454 47.0907V44.818C20.5454 44.1361 21 43.6816 21.6817 43.6816H46.6817C47.3636 43.6816 47.8181 44.1362 47.8181 44.818V47.0907C47.8181 47.7726 47.3636 48.227 46.6817 48.227Z" fill="#F6B545"/>
<path d="M42.1363 44.818H20.5454C20.5454 44.1361 21 43.6816 21.6817 43.6816H42.1363V44.818Z" fill="#FFCB5B"/>
<path d="M42.1363 44.8185V45.9548C42.1363 46.6366 41.6817 47.0911 41 47.0911H20.5454C20.5454 47.773 21 48.2274 21.6817 48.2274H41H46.6818C47.3637 48.2274 47.8182 47.7729 47.8182 47.0911V44.8184H42.1363V44.8185Z" fill="#F19920"/>
<path d="M23.9547 47.0911V45.3865C23.9547 45.0456 23.7274 44.8184 23.3865 44.8184C23.0456 44.8184 22.8184 45.0456 22.8184 45.3865V47.0911" fill="#F19920"/>
<path d="M27.3639 47.0911V45.3865C27.3639 45.0456 27.1366 44.8184 26.7957 44.8184C26.4548 44.8184 26.2275 45.0456 26.2275 45.3865V47.0911" fill="#F19920"/>
<path d="M30.7726 47.0911V45.3865C30.7726 45.0456 30.5453 44.8184 30.2044 44.8184C29.8635 44.8184 29.6362 45.0456 29.6362 45.3865V47.0911" fill="#F19920"/>
<path d="M34.1817 47.0911V45.3865C34.1817 45.0456 33.9545 44.8184 33.6136 44.8184C33.2727 44.8184 33.0454 45.0456 33.0454 45.3865V47.0911" fill="#F19920"/>
<path d="M37.5909 47.0911V45.3865C37.5909 45.0456 37.3637 44.8184 37.0228 44.8184C36.6818 44.8184 36.4546 45.0456 36.4546 45.3865V47.0911" fill="#F19920"/>
<path d="M41.0001 47.0911V45.3865C41.0001 45.0456 40.7729 44.8184 40.4319 44.8184C40.091 44.8184 39.8638 45.0456 39.8638 45.3865V47.0911" fill="#F19920"/>
<path d="M44.4093 43.6816H19.4093C18.7274 43.6816 18.2729 43.2271 18.2729 42.5453V40.2726C18.2729 39.5907 18.7275 39.1362 19.4093 39.1362H44.4093C45.0911 39.1362 45.5456 39.5908 45.5456 40.2726V42.5453C45.5456 43.2271 45.0911 43.6816 44.4093 43.6816Z" fill="#F6B545"/>
<path d="M39.8639 40.2726H18.2729C18.2729 39.5907 18.7275 39.1362 19.4093 39.1362H39.8639V40.2726Z" fill="#FFCB5B"/>
<path d="M39.8639 40.2726V41.4089C39.8639 42.0907 39.4093 42.5452 38.7275 42.5452H18.2729C18.2729 43.2271 18.7275 43.6815 19.4093 43.6815H38.7274H44.4093C45.0911 43.6815 45.5456 43.227 45.5456 42.5452V40.2725H39.8639V40.2726Z" fill="#F19920"/>
<path d="M21.6822 42.5452V40.8406C21.6822 40.4997 21.455 40.2725 21.1141 40.2725C20.7731 40.2725 20.5459 40.4997 20.5459 40.8406V42.5452" fill="#F19920"/>
<path d="M25.0909 42.5452V40.8406C25.0909 40.4997 24.8637 40.2725 24.5228 40.2725C24.1818 40.2725 23.9546 40.4997 23.9546 40.8406V42.5452" fill="#F19920"/>
<path d="M28.5001 42.5452V40.8406C28.5001 40.4997 28.2729 40.2725 27.9319 40.2725C27.591 40.2725 27.3638 40.4997 27.3638 40.8406V42.5452" fill="#F19920"/>
<path d="M31.9093 42.5452V40.8406C31.9093 40.4997 31.682 40.2725 31.3411 40.2725C31.0002 40.2725 30.7729 40.4997 30.7729 40.8406V42.5452" fill="#F19920"/>
<path d="M35.3185 42.5452V40.8406C35.3185 40.4997 35.0912 40.2725 34.7503 40.2725C34.4094 40.2725 34.1821 40.4997 34.1821 40.8406V42.5452" fill="#F19920"/>
<path d="M38.7276 42.5452V40.8406C38.7276 40.4997 38.5004 40.2725 38.1595 40.2725C37.8186 40.2725 37.5913 40.4997 37.5913 40.8406V42.5452" fill="#F19920"/>
<path d="M42.1363 52.7726H17.1363C16.4546 52.7726 16 52.318 16 51.6361V49.3634C16 48.6815 16.4546 48.2271 17.1363 48.2271H42.1363C42.8182 48.2271 43.2727 48.6816 43.2727 49.3634V51.6361C43.2728 52.318 42.8182 52.7726 42.1363 52.7726Z" fill="#F6B545"/>
<path d="M37.5909 49.3639H16C16 48.682 16.4546 48.2275 17.1363 48.2275H37.5909V49.3639Z" fill="#FFCB5B"/>
<path d="M37.5909 49.3639V50.5002C37.5909 51.182 37.1363 51.6365 36.4546 51.6365H16C16 52.3184 16.4546 52.7729 17.1363 52.7729H36.4545H42.1363C42.8182 52.7729 43.2727 52.3183 43.2727 51.6365V49.3638H37.5909V49.3639Z" fill="#F19920"/>
<path d="M19.4093 51.6365V49.9319C19.4093 49.591 19.182 49.3638 18.8411 49.3638C18.5002 49.3638 18.2729 49.591 18.2729 49.9319V51.6365" fill="#F19920"/>
<path d="M22.818 51.6365V49.9319C22.818 49.591 22.5907 49.3638 22.2498 49.3638C21.9089 49.3638 21.6816 49.591 21.6816 49.9319V51.6365" fill="#F19920"/>
<path d="M26.2271 51.6365V49.9319C26.2271 49.591 25.9999 49.3638 25.659 49.3638C25.3181 49.3638 25.0908 49.591 25.0908 49.9319V51.6365" fill="#F19920"/>
<path d="M29.6363 51.6365V49.9319C29.6363 49.591 29.4091 49.3638 29.0682 49.3638C28.7272 49.3638 28.5 49.591 28.5 49.9319V51.6365" fill="#F19920"/>
<path d="M33.0455 51.6365V49.9319C33.0455 49.591 32.8183 49.3638 32.4773 49.3638C32.1364 49.3638 31.9092 49.591 31.9092 49.9319V51.6365" fill="#F19920"/>
<path d="M36.4547 51.6365V49.9319C36.4547 49.591 36.2274 49.3638 35.8865 49.3638C35.5456 49.3638 35.3184 49.591 35.3184 49.9319V51.6365" fill="#F19920"/>
<path d="M63.727 54.4771C62.2498 53.4544 61.4543 51.7499 61.4543 49.9317C61.4543 42.9999 58.727 36.409 53.8406 31.5227L48.9543 26.6363V23.2272L52.9315 18.2272C53.2726 17.7727 53.4998 17.2045 53.4998 16.6362C53.4998 15.2726 52.3635 14.1362 50.9998 14.1362H46.6816L45.5453 16.409L43.2726 14.1362H37.818C36.4543 14.1362 35.318 15.2726 35.318 16.6362C35.318 17.2044 35.5452 17.7726 35.8861 18.2271L39.8634 23.2271V26.6362L34.977 31.5226C30.0907 36.4089 27.3634 42.9998 27.3634 49.9316C27.3634 51.7498 26.568 53.4544 25.0906 54.4771C23.6133 55.4997 22.8179 57.2043 22.8179 59.0225C22.8179 60.6134 24.0679 61.8634 25.6588 61.8634H63.1588C64.7497 61.8634 65.9997 60.6134 65.9997 59.0225C65.9998 57.2045 65.2044 55.4999 63.727 54.4771Z" fill="#C97629"/>
<path d="M63.7271 54.4771C62.2498 53.3408 61.4543 51.6362 61.4543 49.8181C61.568 42.659 58.2725 35.9544 53.2725 30.8408L48.9543 26.6362V23.2271L52.9315 18.2271C53.6134 17.4317 53.727 16.2953 53.1588 15.2726C52.7042 14.4771 51.7951 14.1362 50.886 14.1362C50.0906 14.1362 49.636 15.0453 49.8633 15.7271C49.977 15.9544 50.0905 16.2953 50.0905 16.6362C50.0905 17.2044 49.8633 17.7726 49.5224 18.2271L45.5451 23.2271V26.6362H39.8633L38.727 27.7726H46.6815L50.8861 31.9771C55.5452 36.6362 57.3634 42.9999 56.9089 49.4771C56.7952 51.409 57.5907 53.2271 59.068 54.3635C59.1816 54.4771 59.2952 54.5907 59.4089 54.5907C61.1135 56.4089 59.6361 59.4771 57.0226 59.4771H22.9316C23.1589 60.7271 24.2953 61.7498 25.6589 61.7498H58.6135H61.4544H63.159C64.7498 61.7499 65.9998 60.4999 65.9998 58.909V58.6817C65.9998 56.9771 65.0907 55.4999 63.7271 54.4771Z" fill="#B06328"/>
<path d="M49.5228 26.6362H39.2954C38.3863 26.6362 37.5908 25.8408 37.5908 24.9316C37.5908 24.0226 38.3862 23.2271 39.2954 23.2271H49.5227C50.4317 23.2271 51.2272 24.0225 51.2272 24.9316C51.2272 25.8408 50.4318 26.6362 49.5228 26.6362Z" fill="#FFCB5B"/>
<path d="M39.2952 23.2271H44.9771C45.318 23.2271 45.5452 23.4543 45.5452 23.7952C45.5452 24.1361 45.318 24.3634 44.9771 24.3634H39.2952C38.9543 24.3634 38.7271 24.1361 38.7271 23.7952C38.7271 23.4544 38.9544 23.2271 39.2952 23.2271Z" fill="#FFE278"/>
<path d="M49.5228 23.2271H48.9546V24.3634C48.9546 25.0452 48.5 25.4997 47.8183 25.4997H37.7046C37.9318 26.1815 38.6137 26.636 39.2955 26.636H49.5228C50.4318 26.636 51.2273 25.8406 51.2273 24.9314C51.2273 24.0223 50.4318 23.2271 49.5228 23.2271Z" fill="#F6B545"/>
<path d="M46.1136 25.5H49.5227C49.8636 25.5 50.0908 25.7272 50.0908 26.0682C50.0908 26.4091 49.8636 26.6363 49.5227 26.6363H46.1136C45.7727 26.6363 45.5454 26.4091 45.5454 26.0682C45.5453 25.7272 45.7727 25.5 46.1136 25.5Z" fill="#F19920"/>
<path d="M45.5457 26.6362H43.2729V35.7271H45.5457V26.6362Z" fill="#F6B545"/>
<path d="M43.2729 26.6362V27.7727H44.4093V35.7271H45.5456V27.7727V26.6362H43.2729Z" fill="#F19920"/>
<path d="M44.4093 52.7731C49.4301 52.7731 53.5002 48.703 53.5002 43.6822C53.5002 38.6615 49.4301 34.5913 44.4093 34.5913C39.3885 34.5913 35.3184 38.6615 35.3184 43.6822C35.3184 48.703 39.3885 52.7731 44.4093 52.7731Z" fill="#F6B545"/>
<path d="M51.341 37.8862C52.7047 39.4771 53.5001 41.409 53.5001 43.6817C53.5001 48.6817 49.4092 52.7727 44.4092 52.7727C42.1364 52.7727 40.2046 51.9772 38.6138 50.6136C40.3184 52.659 42.8184 53.909 45.5456 53.909C50.5456 53.909 54.6365 49.8181 54.6365 44.8181C54.6364 41.9771 53.3864 39.4771 51.341 37.8862Z" fill="#B06328"/>
<path d="M44.4092 51.6362C48.8024 51.6362 52.3638 48.0749 52.3638 43.6816C52.3638 39.2884 48.8024 35.7271 44.4092 35.7271C40.016 35.7271 36.4546 39.2884 36.4546 43.6816C36.4546 48.0749 40.016 51.6362 44.4092 51.6362Z" fill="#FFCB5B"/>
<path d="M52.3638 43.6816C52.3638 48.1135 48.841 51.6362 44.4092 51.6362V52.7726C49.4092 52.7726 53.5001 48.6816 53.5001 43.6816H52.3638Z" fill="#F19920"/>
<path d="M44.4093 35.7276V34.5913C39.4093 34.5913 35.3184 38.6822 35.3184 43.6822H36.4547C36.4548 39.2504 39.9774 35.7276 44.4093 35.7276Z" fill="#FFE27A"/>
<path d="M41.8402 49V38.5H45.9802C47.2002 38.5 48.1702 38.82 48.8902 39.46C49.6102 40.1 49.9702 40.96 49.9702 42.04C49.9702 43.17 49.5702 44.05 48.7702 44.68C47.9802 45.31 46.9802 45.625 45.7702 45.625H43.6852V49H41.8402ZM43.6852 43.96H45.8302C46.5202 43.96 47.0702 43.785 47.4802 43.435C47.8902 43.085 48.0952 42.625 48.0952 42.055C48.0952 41.455 47.8902 40.995 47.4802 40.675C47.0802 40.345 46.5302 40.18 45.8302 40.18H43.6852V43.96Z" fill="#B06328"/>
<rect x="41" y="47" width="4" height="2" fill="#B06328"/>
<rect x="245" y="20" width="35" height="35" rx="10" fill="#E8E8E8"/>
<g clip-path="url(#clip0)">
<path d="M265.018 31.7167C262.729 29.4284 259.005 29.4284 256.717 31.7167C254.429 34.0055 254.429 37.7293 256.717 40.0181C258.755 42.0553 261.928 42.2736 264.215 40.6828C264.263 40.9104 264.373 41.1277 264.55 41.3048L267.883 44.6373C268.368 45.1219 269.153 45.1219 269.636 44.6373C270.122 44.1521 270.122 43.3674 269.636 42.8837L266.304 39.5503C266.128 39.3747 265.91 39.2641 265.682 39.2159C267.274 36.9287 267.056 33.7554 265.018 31.7167ZM263.966 38.9659C262.257 40.6743 259.477 40.6743 257.769 38.9659C256.062 37.2575 256.062 34.4777 257.769 32.7693C259.477 31.0614 262.257 31.0614 263.966 32.7693C265.674 34.4777 265.674 37.2575 263.966 38.9659Z" fill="black"/>
</g>
<defs>
<clipPath id="clip0">
<rect width="15" height="15" fill="white" transform="translate(255 30)"/>
</clipPath>
</defs>
</svg>
