<svg width="36" height="36" viewBox="0 0 36 36" fill="none" xmlns="http://www.w3.org/2000/svg">
<path d="M30.7338 5.26613C23.7126 -1.75503 12.2877 -1.75572 5.26589 5.26613C-1.75597 12.288 -1.75528 23.7122 5.26589 30.734C12.2871 37.7559 23.7119 37.7559 30.7338 30.734C37.755 23.7122 37.755 12.2873 30.7338 5.26613ZM25.1014 25.1016C24.5604 25.6425 23.6835 25.6425 23.1426 25.1016L17.9998 19.9588L12.6126 25.3461C12.0716 25.887 11.1948 25.887 10.6538 25.3461C10.1129 24.8051 10.1129 23.9283 10.6538 23.3873L16.0411 18.0001L10.8983 12.8573C10.3574 12.3164 10.3574 11.4388 10.8983 10.8986C11.4393 10.3576 12.3161 10.3576 12.8571 10.8986L17.9998 16.0413L22.8974 11.1438C23.4384 10.6028 24.3152 10.6028 24.8562 11.1438C25.3971 11.6847 25.3971 12.5616 24.8562 13.1025L19.9586 18.0001L25.1014 23.1428C25.6423 23.6838 25.6423 24.5606 25.1014 25.1016Z" fill="#FF3737"/>
</svg>
