<svg width="72" height="72" viewBox="0 0 72 72" fill="none" xmlns="http://www.w3.org/2000/svg">
<g clip-path="url(#clip0_2699_168)">
<path d="M29.8793 7.18679C30.4404 7.4893 31.2085 7.90428 31.3758 8.49341C31.4588 8.78704 31.3962 9.10886 31.1836 9.47695C30.1266 11.3095 29.8062 12.8979 30.2307 14.1984C30.684 15.5871 31.8691 16.2396 32.3573 16.4557C32.3761 16.4639 32.3962 16.4682 32.4163 16.4682C32.4163 16.4682 32.417 16.4682 32.4173 16.4682C32.498 16.4682 32.5628 16.403 32.5628 16.3225C32.5628 16.3108 32.5615 16.2998 32.5592 16.2892C32.338 14.359 33.1086 13.4885 33.7887 12.7207C34.3878 12.0441 34.9123 11.4518 34.5043 10.3594C35.7425 11.0002 36.2315 12.6069 36.244 13.5456C36.2446 13.5876 36.2631 13.6275 36.2958 13.6548C36.3281 13.682 36.3704 13.6937 36.4123 13.6873C37.5548 13.5076 37.905 12.7221 38.0096 12.3307C38.6436 12.8214 39.5013 14.5495 38.8874 16.2942C38.8679 16.3493 38.8835 16.4108 38.927 16.4502C38.9544 16.475 38.9893 16.4878 39.0246 16.4878C39.0457 16.4878 39.0667 16.4836 39.0863 16.4744C40.7937 15.675 41.9426 14.1091 42.1586 12.286C42.2991 11.1021 42.0504 9.87635 41.4187 8.64186C40.7123 7.26094 39.5406 5.91086 37.9369 4.62948C36.6828 3.6274 36.1943 2.47001 36.0059 1.67495C35.8006 0.81042 35.8943 0.174403 35.8955 0.168016C35.9028 0.119882 35.8857 0.0717488 35.8502 0.0388809C35.8147 0.00601299 35.765 -0.00722763 35.7181 0.00383219C35.6488 0.0200325 34.0152 0.416472 33.2601 1.65517C32.4299 3.01584 32.3316 4.69631 32.978 6.30575C32.6397 6.23269 32.3112 6.19593 31.9981 6.19593C31.173 6.19593 30.4519 6.44843 29.8556 6.94659C29.8182 6.97743 29.7994 7.02463 29.8039 7.07277C29.8082 7.1209 29.8367 7.16389 29.8793 7.18679Z" fill="white"/>
<path d="M49.2363 66.1316H47.4677L40.7647 19.7118C40.6437 18.8714 39.9232 18.248 39.0742 18.248H32.9251C32.0763 18.248 31.3559 18.8716 31.2347 19.7118L24.5318 66.1316H22.763C22.1345 66.1316 21.6245 66.6414 21.6245 67.2706V70.8613C21.6245 71.4903 22.1344 72.0002 22.763 72.0002H49.2363C49.8652 72.0002 50.3753 71.4906 50.3753 70.8613V67.2706C50.3752 66.6414 49.8652 66.1316 49.2363 66.1316ZM40.622 42.6251L42.2944 54.2074L33.283 47.291L40.622 42.6251ZM39.8568 37.3269L34.3829 33.2431L38.7359 29.5638L39.8568 37.3269ZM34.4045 21.664H37.595L38.1606 25.5777L33.2386 29.7373L34.4045 21.664ZM32.3374 35.979L38.0296 40.2253L31.0872 44.6394L32.3374 35.979ZM30.4016 49.385L39.7448 56.5569L28.1532 64.9555L30.4016 49.385ZM33.1379 65.5626L42.9114 58.481L43.9342 65.5626H33.1379Z" fill="white"/>
</g>
<defs>
<clipPath id="clip0_2699_168">
<rect width="72" height="72" fill="white"/>
</clipPath>
</defs>
</svg>
