<svg width="28" height="28" viewBox="0 0 28 28" fill="none" xmlns="http://www.w3.org/2000/svg">
<g clip-path="url(#clip0_939_95)">
<path d="M13.8005 13.4877C15.6535 13.4877 17.258 12.8232 18.569 11.5119C19.88 10.2009 20.5446 8.59683 20.5446 6.74365C20.5446 4.89111 19.88 3.2868 18.5688 1.97537C17.2576 0.664581 15.6533 0 13.8005 0C11.9473 0 10.3432 0.664581 9.03223 1.97559C7.72122 3.28659 7.05643 4.8909 7.05643 6.74365C7.05643 8.59683 7.72122 10.2011 9.03244 11.5121C10.3437 12.8229 11.948 13.4877 13.8005 13.4877Z" fill="white" fill-opacity="0.5"/>
<path d="M25.6008 21.5309C25.563 20.9853 25.4865 20.3902 25.3739 19.7617C25.2603 19.1285 25.114 18.5299 24.9388 17.9829C24.7578 17.4174 24.5117 16.859 24.2076 16.3239C23.8918 15.7684 23.521 15.2848 23.1048 14.8868C22.6697 14.4705 22.1369 14.1357 21.5208 13.8915C20.9069 13.6487 20.2265 13.5256 19.4987 13.5256C19.2128 13.5256 18.9364 13.6429 18.4026 13.9904C18.074 14.2047 17.6897 14.4525 17.2607 14.7266C16.894 14.9603 16.3971 15.1793 15.7833 15.3775C15.1845 15.5713 14.5766 15.6695 13.9765 15.6695C13.3764 15.6695 12.7687 15.5713 12.1693 15.3775C11.5562 15.1795 11.0593 14.9605 10.6929 14.7268C10.268 14.4553 9.88348 14.2075 9.55002 13.9902C9.01682 13.6427 8.74017 13.5254 8.45435 13.5254C7.72632 13.5254 7.04614 13.6487 6.4324 13.8918C5.81674 14.1355 5.28375 14.4702 4.84818 14.887C4.43225 15.2852 4.06119 15.7686 3.74588 16.3239C3.44189 16.859 3.1958 17.4172 3.01465 17.9831C2.83969 18.5302 2.69336 19.1285 2.57971 19.7617C2.46713 20.3893 2.39066 20.9847 2.35284 21.5316C2.31567 22.0673 2.29688 22.6234 2.29688 23.185C2.29688 24.6466 2.76151 25.8299 3.67773 26.7025C4.58264 27.5636 5.78 28.0005 7.23605 28.0005H20.7182C22.1743 28.0005 23.3712 27.5638 24.2763 26.7025C25.1928 25.8305 25.6574 24.647 25.6574 23.1848C25.6572 22.6206 25.6382 22.0641 25.6008 21.5309Z" fill="white" fill-opacity="0.5"/>
</g>
<defs>
<clipPath id="clip0_939_95">
<rect width="28" height="28.0001" fill="white"/>
</clipPath>
</defs>
</svg>
