<svg width="128" height="128" viewBox="0 0 128 128" fill="none" xmlns="http://www.w3.org/2000/svg">
<mask id="mask0_1082_75" style="mask-type:alpha" maskUnits="userSpaceOnUse" x="0" y="0" width="128" height="128">
<path d="M64 22.75C49.5273 22.75 37.75 34.5273 37.75 49C37.75 63.4727 49.5273 75.25 64 75.25C78.4727 75.25 90.25 63.4727 90.25 49C90.25 34.5273 78.4727 22.75 64 22.75ZM67.75 52.75H60.25V64C60.25 66.0728 58.5728 67.75 56.5 67.75C54.4272 67.75 52.75 66.0728 52.75 64V34C52.75 31.9272 54.4272 30.25 56.5 30.25H67.75C73.9535 30.25 79 35.2965 79 41.5C79 47.7035 73.9535 52.75 67.75 52.75Z" fill="black"/>
<path d="M67.75 37.75H60.25V45.25H67.75C69.819 45.25 71.5 43.569 71.5 41.5C71.5 39.431 69.819 37.75 67.75 37.75Z" fill="black"/>
<path d="M64 0C37.12 0 15.25 22.12 15.25 49C15.25 59.6092 18.6117 69.702 24.973 78.187L61.0008 126.498C61.7075 127.443 62.8208 128 64 128C65.1792 128 66.2925 127.443 66.9993 126.498L103.027 78.187C109.388 69.702 112.75 59.6092 112.75 49C112.75 22.12 90.88 0 64 0ZM64 82.75C45.3892 82.75 30.25 67.6107 30.25 49C30.25 30.3892 45.3892 15.25 64 15.25C82.6107 15.25 97.75 30.3892 97.75 49C97.75 67.6107 82.6107 82.75 64 82.75Z" fill="black"/>
</mask>
<g mask="url(#mask0_1082_75)">
<rect x="-67" y="-4" width="165" height="100" rx="10" fill="white" fill-opacity="0.15"/>
</g>
</svg>
