<svg width="22" height="22" viewBox="0 0 22 22" fill="none" xmlns="http://www.w3.org/2000/svg">
<path d="M9.5515 1.11719C6.62962 1.55977 4.11595 3.20117 2.51751 5.71484C2.2554 6.13164 1.81282 7.03828 1.61517 7.57539C0.944855 9.38438 0.837433 11.6059 1.33157 13.518C1.78704 15.284 2.71946 16.8695 4.06868 18.1758C4.86361 18.9492 5.62845 19.4863 6.59525 19.959C8.05189 20.668 9.36243 20.9688 10.9995 20.9688C12.6538 20.9688 13.9988 20.6551 15.4468 19.9375C17.432 18.9535 19.0476 17.3207 20.0058 15.3184C20.6675 13.9477 20.9683 12.5898 20.9683 11C20.9683 8.32734 20.0144 5.96406 18.1753 4.06914C16.5941 2.43633 14.6691 1.44805 12.4304 1.11719C11.6441 1.00117 10.3163 1.00117 9.5515 1.11719ZM11.614 7.08984C11.8245 7.11563 12.1167 7.17578 12.2585 7.22305C13.0878 7.49805 13.7968 8.20703 14.1019 9.06641C14.1878 9.30703 14.2007 9.42734 14.2007 9.96875C14.2007 10.5102 14.1878 10.6305 14.1019 10.8711C13.8699 11.5199 13.3886 12.1172 12.8214 12.4523C12.237 12.7961 11.7472 12.8906 10.5183 12.8906H9.80071L9.78782 14.1453C9.77493 15.5203 9.75775 15.6105 9.51712 15.718C9.2679 15.834 8.97571 15.7523 8.8597 15.5375C8.79525 15.4172 8.78665 15.0605 8.77376 11.6016C8.76517 9.50899 8.77376 7.6957 8.78665 7.57539C8.81673 7.31758 8.98431 7.10703 9.18626 7.07695C9.43548 7.03828 11.2531 7.05117 11.614 7.08984Z" fill="white"/>
<path d="M9.79688 9.96873V11.8636L10.841 11.8508L11.8809 11.8379L12.173 11.6961C12.5512 11.5113 12.8863 11.1761 13.0711 10.798C13.2086 10.5144 13.2129 10.4886 13.2129 9.96873C13.2129 9.4488 13.2086 9.42302 13.0711 9.13943C12.8863 8.7613 12.5512 8.42615 12.173 8.24138L11.8809 8.09959L10.841 8.08669L9.79688 8.0738V9.96873Z" fill="white"/>
</svg>
