<svg width="32" height="32" viewBox="0 0 32 32" fill="none" xmlns="http://www.w3.org/2000/svg">
<path d="M27.3806 17.0823H24.9059C25.1581 17.7729 25.2959 18.5182 25.2959 19.295V28.6482C25.2959 28.972 25.2395 29.2829 25.137 29.572H29.2283C30.7566 29.572 31.9999 28.3287 31.9999 26.8004V21.7016C32 19.1545 29.9277 17.0823 27.3806 17.0823Z" fill="white"/>
<path d="M6.70408 19.2948C6.70408 18.5179 6.84189 17.7727 7.09414 17.082H4.61938C2.07225 17.082 0 19.1543 0 21.7014V26.8002C0 28.3285 1.24331 29.5719 2.77163 29.5719H6.86301C6.76045 29.2826 6.70408 28.9718 6.70408 28.6479V19.2948Z" fill="white"/>
<path d="M18.8287 14.6757H13.171C10.6239 14.6757 8.55167 16.7479 8.55167 19.295V28.6482C8.55167 29.1584 8.96529 29.5721 9.47554 29.5721H22.5242C23.0344 29.5721 23.4481 29.1584 23.4481 28.6482V19.295C23.4481 16.7479 21.3758 14.6757 18.8287 14.6757Z" fill="white"/>
<path d="M16.0001 2.42773C12.9369 2.42773 10.4448 4.91986 10.4448 7.98318C10.4448 10.061 11.5916 11.8757 13.2852 12.8284C14.0885 13.2803 15.0146 13.5386 16.0001 13.5386C16.9856 13.5386 17.9118 13.2803 18.7151 12.8284C20.4088 11.8757 21.5555 10.0609 21.5555 7.98318C21.5555 4.91993 19.0634 2.42773 16.0001 2.42773Z" fill="white"/>
<path d="M6.24503 7.60547C3.95409 7.60547 2.09033 9.46922 2.09033 11.7602C2.09033 14.0511 3.95409 15.9149 6.24503 15.9149C6.82615 15.9149 7.37953 15.7945 7.88222 15.5781C8.75134 15.2039 9.46797 14.5415 9.91141 13.7119C10.2227 13.1295 10.3997 12.4652 10.3997 11.7602C10.3997 9.46929 8.53597 7.60547 6.24503 7.60547Z" fill="white"/>
<path d="M25.7552 7.60547C23.4643 7.60547 21.6005 9.46922 21.6005 11.7602C21.6005 12.4653 21.7776 13.1296 22.0888 13.7119C22.5323 14.5416 23.2489 15.204 24.118 15.5781C24.6207 15.7945 25.1741 15.9149 25.7552 15.9149C28.0462 15.9149 29.9099 14.0511 29.9099 11.7602C29.9099 9.46922 28.0462 7.60547 25.7552 7.60547Z" fill="white"/>
</svg>
