<svg width="50" height="50" viewBox="0 0 50 50" fill="none" xmlns="http://www.w3.org/2000/svg">
<path d="M41.0572 38.2599L31.7058 35L25 37.143L18.2942 35.0001L8.94284 38.26C7.17611 38.8759 6 40.4855 6 42.2876V48.9286C6 49.5202 6.50035 50 7.11764 50H42.8824C43.4996 50 44 49.5202 44 48.9286V42.2876C44 40.4854 42.824 38.8758 41.0572 38.2599Z" fill="#545454"/>
<path d="M23.4286 40L22 50H28L26.5714 40H23.4286Z" fill="#DCDCDC"/>
<path d="M26.2 41H23.8001C23.3582 41 23 40.6285 23 40.1701V37H27V40.1701C27.0001 40.6283 26.642 41 26.2 41Z" fill="white"/>
<path d="M42.7442 40C43.5319 40.7303 44 41.703 44 42.7463V48.9923C44 49.5489 43.4777 50 42.8333 50H37V46.6311C37 45.562 37.4916 44.5368 38.3669 43.781L42.7442 40Z" fill="#2D2D2D"/>
<path d="M37 11.0258V2.12498C37 0.951328 36.0231 0 34.8182 0H21.7273C16.9074 0 13 3.80557 13 8.50006V11.0258C13 12.1678 13.189 13.3024 13.5598 14.3857L13.923 15.4468C14.0342 15.7718 14.0909 16.1121 14.0909 16.4547V17H35.909V16.4547C35.909 16.1121 35.9656 15.7718 36.0769 15.4468L36.44 14.3857C36.811 13.3023 37 12.1677 37 11.0258Z" fill="#5A4146"/>
<path d="M18 4.31639C18 6.70026 20.0328 8.63278 22.5404 8.63278H23.1691L23.4725 17H35.8823V16.4547C35.8823 16.1121 35.9404 15.7718 36.0544 15.4468L36.4264 14.3857C36.8063 13.3024 37 12.1678 37 11.0258V2.125C37 0.951335 35.9991 0 34.7647 0H22.5404C20.0328 0 18 1.93252 18 4.31639Z" fill="#694B4B"/>
<path d="M31 27H18V37H31V27Z" fill="#E6AF78"/>
<path d="M18.0001 31.0577C19.9139 32.2858 22.1294 33 24.5001 33C26.8707 33 29.0864 32.2858 31 31.0577V27H18L18.0001 31.0577Z" fill="#D29B6E"/>
<path d="M24.9827 36.7449L21.4148 40.3127C20.9353 40.7923 20.1427 40.7382 19.7328 40.198L16.0334 35.3235L17.0011 33.2844C17.2866 32.6827 18.0314 32.4621 18.5984 32.8116L24.9827 36.7449Z" fill="#2D2D2D"/>
<path d="M24.9827 36.7449L28.5505 40.3127C29.03 40.7923 29.8226 40.7382 30.2325 40.198L33.9319 35.3235L32.9643 33.2844C32.6787 32.6827 31.9339 32.4621 31.3669 32.8116L24.9827 36.7449Z" fill="#2D2D2D"/>
<path d="M25.0002 30C18.925 30 14 25.0234 14 18.8845V17.5822C14 16.9927 14.2318 16.4272 14.6443 16.0102L15.5556 15.0894C15.9681 14.6725 16.1999 14.1071 16.1999 13.5174V10.8528C16.1999 10.3381 16.542 9.89097 17.0376 9.77266C19.6392 9.15174 27.735 7.68095 33.2445 11.7755C33.6023 12.0414 33.8001 12.4781 33.8001 12.9269V13.5174C33.8001 14.107 34.0319 14.6724 34.4444 15.0894L35.3557 16.0102C35.7682 16.4271 36 16.9925 36 17.5822V18.8845C36.0004 25.0234 31.0754 30 25.0002 30Z" fill="#F0C087"/>
<path d="M33.4389 11.7857C29.5249 8.8934 24.3257 8.76822 20.6668 9.16418C19.1234 9.33113 17.8481 9.58921 17.0685 9.77414C16.5679 9.89297 16.2224 10.3421 16.2224 10.859V13.535C16.2224 14.1273 15.9882 14.6952 15.5714 15.114L14.651 16.0388C14.2341 16.4576 14 17.0255 14 17.6178V18.9256C14 24.6337 18.2666 29.3329 23.7686 30C21.8514 27.994 20.6667 25.2755 20.6667 22.2747V14.1147C20.6667 12.9833 21.504 12.0378 22.6211 11.8971C25.2876 11.5612 30.1715 11.3592 34 13.5353V12.9421C34.0003 12.4914 33.8001 12.0526 33.4389 11.7857Z" fill="#E6AF78"/>
<path d="M7.25581 40C6.46805 40.7303 6 41.703 6 42.7463V48.9923C6 49.5489 6.5223 50 7.16667 50H13V46.6311C13 45.562 12.5084 44.5368 11.6331 43.781L7.25581 40Z" fill="#2D2D2D"/>
</svg>
