<?xml version="1.0" standalone="no"?>
<!DOCTYPE svg PUBLIC "-//W3C//DTD SVG 20010904//EN"
 "http://www.w3.org/TR/2001/REC-SVG-20010904/DTD/svg10.dtd">
<svg version="1.0" xmlns="http://www.w3.org/2000/svg"
 width="63.000000pt" height="63.000000pt" viewBox="0 0 63.000000 63.000000"
 preserveAspectRatio="xMidYMid meet">
<metadata>
Created by potrace 1.16, written by Peter Selinger 2001-2019
</metadata>
<g transform="translate(0.000000,63.000000) scale(0.100000,-0.100000)"
fill="#000000" stroke="none">
<path d="M47 623 c-4 -3 -7 -145 -7 -315 l0 -308 95 0 c83 0 96 2 105 19 13
25 14 550 0 585 -9 25 -12 26 -98 26 -49 0 -92 -3 -95 -7z"/>
<path d="M395 617 c-3 -7 -4 -147 -3 -312 l3 -300 98 -3 97 -3 0 316 0 315
-95 0 c-68 0 -97 -4 -100 -13z"/>
</g>
</svg>
