<svg width="79" height="22" viewBox="0 0 79 22" fill="none" xmlns="http://www.w3.org/2000/svg">
<path d="M73.0856 6.33201C72.8699 6.28133 72.3676 6.23451 71.965 6.22136C70.9082 6.19344 70.0276 5.98883 69.3673 5.60766L69.1228 5.46879L69.2829 5.71596C69.4684 6.00493 69.4883 6.37972 69.3356 6.63252C69.2768 6.72976 69.0914 6.90085 68.9194 7.01818C68.1399 7.55589 66.9289 7.41717 66.0704 6.69505C65.6223 6.31817 65.3475 5.95753 64.9812 5.26736C64.4552 4.27715 64.164 3.93316 63.456 3.50549C62.8815 3.1496 62.7911 3.12152 62.3198 3.07572C61.6047 3.01533 61.1117 3.08912 59.6416 3.48397C57.7169 3.99351 56.6373 4.01376 55.846 3.53577C55.5452 3.35408 55.232 3.29757 54.3681 3.25348C53.7256 3.21926 53.6985 3.21177 53.1201 2.86236C52.2039 2.3089 51.1717 1.96846 49.5528 1.68949C49.2086 1.63197 46.9778 1.37267 44.5929 1.11759C40.3709 0.67292 39.2073 0.518558 37.3435 0.15359C35.6584 -0.183065 34.7351 -0.0241878 31.2072 1.21562C29.789 1.71263 29.5196 1.70912 27.858 1.21855C26.8965 0.938593 26.5577 0.893146 25.8596 0.940405C24.6921 1.02256 23.658 1.29152 22.2897 1.86287C21.781 2.07761 21.3756 2.25737 21.3856 2.27224C21.4041 2.28342 22.0712 2.12014 22.8802 1.90993C24.9623 1.3804 26.3733 1.13566 26.4697 1.3001C26.5509 1.4376 26.3124 1.78015 25.8503 2.2C25.1523 2.82234 23.9602 3.67708 23.7875 3.67012C23.7387 3.6672 23.6071 3.44608 23.4896 3.18048C23.3729 2.92416 23.2397 2.68449 23.1981 2.65933C23.0917 2.59504 22.5502 2.72806 22.206 2.90058C22.0491 2.9827 21.6066 3.25512 21.2246 3.51102C20.842 3.75763 20.5038 3.9515 20.4668 3.92913C20.4344 3.90957 20.4049 3.69708 20.4034 3.44849C20.3981 3.20638 20.3771 2.9902 20.3494 2.97343C20.1828 2.8728 19.626 3.32393 18.8628 4.19004C18.3189 4.80817 18.0758 5.0329 17.891 5.09825C17.8352 5.11758 17.4162 5.00606 16.9627 4.84714C15.8842 4.47875 15.6557 4.49111 15.1292 4.93397C14.9181 5.11613 13.9175 5.93614 12.9037 6.75705C11.8945 7.58075 11.0619 8.28991 11.0601 8.32423C11.0498 8.36223 10.9633 8.44269 10.8576 8.5027L10.6632 8.61533L10.9376 8.91382C11.0914 9.07749 11.3028 9.30253 11.4167 9.40673L11.6122 9.59555L10.6201 9.8368C8.39713 10.3697 5.16715 11.294 1.8286 12.3562C0.523291 12.771 0.038827 12.9561 0.0103471 13.0451C-0.0174212 13.1433 0.00500388 13.148 0.148102 13.0575L0.321456 12.9587L0.49337 13.3014C0.587336 13.4909 0.718319 13.7028 0.789864 13.7725C0.905189 13.8953 0.91836 13.8944 0.968911 13.748C1.13943 13.267 1.10134 13.2883 1.42063 13.4811C1.76768 13.6908 2.14784 13.6992 2.44258 13.5145C2.66577 13.3751 3.06268 12.969 3.05627 12.8855C3.05414 12.8576 3.90416 12.7783 4.94142 12.7236C6.80842 12.6128 6.82622 12.6147 6.82194 12.7891C6.82229 12.9662 6.82229 12.9662 7.20067 12.894L7.58368 12.8245L7.45519 12.7027C7.34591 12.6013 7.78837 12.5589 10.6097 12.4052C12.4108 12.2988 17.5523 12.016 22.0299 11.7657L30.1724 11.3139L31.0761 11.5324C33.676 12.174 35.9644 12.8397 37.7303 13.4817C38.7199 13.8406 40.9791 14.8161 45.3309 16.7813C47.0178 17.5438 47.0858 17.5671 47.8639 17.816C49.4827 18.325 51.6142 18.6128 54.3163 18.6878C55.2051 18.7116 56.6197 18.7433 57.4558 18.7706C61.1745 18.867 63.3746 19.1874 65.8851 19.9873C66.8989 20.3166 67.692 20.4152 68.7897 20.344C70.5816 20.232 72.8769 19.6632 75.7708 18.6155C77.7503 17.9002 77.6314 17.9611 77.9308 17.5491C78.5943 16.6494 78.8834 15.7003 78.8265 14.6131C78.7511 13.0546 78.0303 11.4248 76.5681 9.50631C76.3471 9.21353 76.1599 8.95887 76.1585 8.94031C76.1524 8.91896 76.2489 8.85337 76.3685 8.80175L76.5813 8.7003L76.3001 8.71623L76.015 8.73865L75.5719 8.19667C74.677 7.11642 73.8434 6.48898 73.0856 6.33201ZM13.6554 8.27286L13.822 8.60353L13.523 8.84759C12.9328 9.32274 12.4679 9.36043 12.0315 8.9641L11.8322 8.78176L11.4402 9.36784L11.3107 9.05953C11.2406 8.89331 11.1616 8.66863 11.1445 8.56098L11.1164 8.36705L11.3011 8.3017C11.9073 8.09279 12.48 8.13795 12.9876 8.42687C13.2329 8.57502 13.2777 8.58442 13.2297 8.47577C13.1563 8.3253 13.1962 8.15474 13.3311 8.01505C13.4621 7.88184 13.4529 7.87625 13.6554 8.27286Z" fill="#FF3737"/>
<path d="M9.33728 20.2749C9.55879 20.2804 10.06 20.2233 10.4567 20.1538C11.4969 19.9647 12.4008 19.9847 13.1251 20.2226L13.3929 20.3084L13.1855 20.0993C12.9448 19.8544 12.8486 19.4916 12.9463 19.2129C12.9839 19.1057 13.1304 18.9003 13.2746 18.7502C13.9276 18.0643 15.1413 17.9521 16.1295 18.4831C16.6453 18.7603 16.9881 19.057 17.4879 19.6576C18.2056 20.5191 18.561 20.7961 19.3416 21.0698C19.9768 21.3005 20.071 21.3095 20.5417 21.2578C21.254 21.1705 21.7215 20.9973 23.0796 20.3098C24.8592 19.417 25.9118 19.1761 26.7841 19.4819C27.1157 19.5982 27.4339 19.5894 28.2885 19.4556C28.9244 19.3576 28.9524 19.3594 29.5901 19.5829C30.6003 19.9371 31.6804 20.0589 33.3221 20.0005C33.6708 19.9863 35.9074 19.7833 38.294 19.5447C42.5175 19.1154 43.6881 19.0283 45.5871 19.0039C47.3054 18.9884 48.1767 18.6438 51.376 16.7079C52.6623 15.931 52.9268 15.8793 54.6536 16.0192C55.652 16.0964 55.993 16.0715 56.6666 15.8823C57.7926 15.5628 58.7496 15.0878 59.972 14.2484C60.4259 13.934 60.7859 13.6751 60.7731 13.6625C60.7527 13.6554 60.1332 13.9518 59.3843 14.3232C57.4549 15.2678 56.1239 15.7963 55.9958 15.6551C55.8882 15.5372 56.0515 15.153 56.4178 14.6475C56.9736 13.8954 57.9655 12.8146 58.1359 12.7861C58.1842 12.779 58.3584 12.9684 58.5277 13.2044C58.6945 13.4314 58.8739 13.6387 58.9198 13.6548C59.0371 13.6959 59.5398 13.4549 59.8414 13.2155C59.9783 13.103 60.3556 12.7457 60.677 12.4171C61.0011 12.0973 61.2924 11.8383 61.3332 11.8526C61.3689 11.8651 61.4413 12.0671 61.4936 12.3101C61.5484 12.546 61.6132 12.7533 61.6438 12.764C61.8275 12.8284 62.28 12.2728 62.8497 11.2688C63.2556 10.5524 63.4475 10.2827 63.615 10.1809C63.6657 10.1505 64.0986 10.1739 64.5751 10.2366C65.7062 10.3763 65.9273 10.3174 66.352 9.77614C66.5213 9.55462 67.3328 8.5471 68.157 7.536C68.9761 6.52311 69.6459 5.65848 69.6406 5.62453C69.6429 5.58522 69.7111 5.48875 69.8023 5.40837L69.9695 5.25833L69.6398 5.02236C69.4557 4.89364 69.2027 4.71666 69.0699 4.63799L68.84 4.49318L69.7616 4.05391C71.8283 3.07717 63.2462 4.61159 66.2965 2.88826C67.4892 2.215 67.9255 1.93461 67.9352 1.84169C67.9422 1.73985 67.9193 1.73984 67.7978 1.85773L67.6483 1.98991L67.4099 1.68964C67.2791 1.52342 67.1075 1.34289 67.0232 1.28925C66.8852 1.19272 66.8725 1.19628 66.853 1.34995C66.7846 1.85561 66.8175 1.82703 66.4655 1.70362C66.0829 1.56948 65.709 1.63905 65.4584 1.88019C65.2684 2.06239 64.9631 2.54117 64.9865 2.62159C64.9943 2.64839 64.1785 2.90008 63.1744 3.16599C61.3697 3.65679 61.3518 3.65857 61.3203 3.48702C61.2837 3.31368 61.2837 3.31368 60.9281 3.46187L60.5675 3.60828L60.7182 3.70124C60.8459 3.77812 60.4215 3.91021 57.6914 4.63836C55.9503 5.11131 62.5301 3.34036 58.1986 4.5022L50.3212 6.61169L49.3918 6.58279C46.7156 6.48721 44.3394 6.30417 42.4795 6.03731C41.4374 5.88866 39.0263 5.39648 34.3643 4.36393C32.557 3.96307 32.4857 3.95412 31.6731 3.86987C29.9843 3.70313 27.8391 3.85789 25.1789 4.33769C24.3041 4.49643 22.913 4.75507 22.089 4.89953C18.4293 5.56662 16.2102 5.70348 13.5891 5.43459C12.5294 5.31988 11.7329 5.38574 10.673 5.68022C8.942 6.15675 6.81188 7.1835 4.19376 8.80155C2.40267 9.90703 2.50658 9.82308 2.2979 10.2876C1.83266 11.3042 1.74404 12.2923 2.02237 13.3448C2.4153 14.8549 3.45449 16.3026 5.27853 17.881C5.55484 18.1223 5.79024 18.3332 5.79543 18.3511C5.80572 18.3707 5.72473 18.4547 5.61823 18.5297L5.43064 18.6726L5.70264 18.5994L5.97713 18.5191L6.52186 18.9589C7.61893 19.833 8.56337 20.2765 9.33728 20.2749ZM67.1108 6.20622L66.8801 5.91667L67.1228 5.61656C67.6032 5.03062 68.0505 4.89854 68.5588 5.19711L68.7912 5.33478L69.0549 4.68087L69.2448 4.95611C69.3475 5.10446 69.4708 5.3082 69.5096 5.41006L69.5768 5.59413L69.4093 5.69593C68.8588 6.02453 68.2889 6.09761 67.7329 5.91874C67.4625 5.82395 67.4167 5.82393 67.486 5.92044C67.5886 6.05271 67.5845 6.22782 67.481 6.39218C67.3801 6.54939 67.3903 6.55297 67.1108 6.20622Z" fill="#FF3737"/>
</svg>
