<svg width="21" height="25" viewBox="0 0 21 25" fill="none" xmlns="http://www.w3.org/2000/svg">
<path d="M10.5 12.2266C13.2796 12.2266 15.5331 9.48964 15.5331 6.11336C15.5331 2.737 14.7932 0 10.5 0C6.2068 0 5.4668 2.737 5.4668 6.11336C5.4668 9.48964 7.7203 12.2266 10.5 12.2266Z" fill="black"/>
<path d="M0.993545 21.5609C0.992686 21.355 0.991828 21.5029 0.993545 21.5609V21.5609Z" fill="black"/>
<path d="M20.0061 21.7216C20.0088 21.6653 20.007 21.3307 20.0061 21.7216V21.7216Z" fill="black"/>
<path d="M19.9953 21.3137C19.9021 15.4321 19.134 13.7562 13.2559 12.6953C13.2559 12.6953 12.4285 13.7497 10.4999 13.7497C8.57134 13.7497 7.74377 12.6953 7.74377 12.6953C1.92984 13.7446 1.11498 15.3957 1.00784 21.1226C0.999051 21.5903 0.99498 21.6148 0.993408 21.5605C0.993765 21.6623 0.994194 21.8504 0.994194 22.1785C0.994194 22.1785 2.39362 24.9996 10.4999 24.9996C18.6061 24.9996 20.0056 22.1785 20.0056 22.1785C20.0056 21.9677 20.0058 21.8211 20.006 21.7214C20.0044 21.755 20.0013 21.6899 19.9953 21.3137Z" fill="black"/>
</svg>
