<svg width="24" height="24" viewBox="0 0 24 24" fill="none" xmlns="http://www.w3.org/2000/svg">
<g clip-path="url(#clip0_853_38)">
<path d="M18.7121 18.66C18.24 19.2837 17.6189 19.7788 16.9057 20.1C16.6938 20.2058 16.4363 20.1198 16.3305 19.908C16.2247 19.6961 16.3107 19.4386 16.5225 19.3328C19.1852 18.0043 18.2955 16.1696 17.4457 17.0186C16.0742 18.3891 15.1057 18.4286 14.9998 18.4286C14.7631 18.431 14.5692 18.2412 14.5667 18.0045C14.5642 17.7678 14.7541 17.5739 14.9908 17.5714C15.0221 17.5714 15.7194 17.499 16.7741 16.4721C16.4174 15.5223 16.4121 14.4762 16.7591 13.5227C17.1619 12.7174 17.9998 11.0417 17.9998 7.71428C17.9998 2.59543 15.9812 0 11.9998 0C8.01838 0 5.99981 2.59543 5.99981 7.71428C5.99981 11.0417 6.83766 12.7174 7.24052 13.5227C7.49235 14.1663 7.5655 14.866 7.45223 15.5477L7.45909 15.5541C8.57123 16.6654 9.30238 16.7143 9.30966 16.7143C9.54296 16.7256 9.72542 16.9196 9.72238 17.1531C9.71911 17.3844 9.53114 17.5705 9.29981 17.5714C9.19395 17.5714 8.22538 17.532 6.85395 16.1601C6.00881 15.3141 5.11523 17.1433 7.77752 18.4744C7.98936 18.5803 8.07523 18.8379 7.96931 19.0498C7.86339 19.2616 7.60579 19.3475 7.39395 19.2416C6.86758 18.9905 6.38522 18.656 5.96552 18.2511C5.08823 18.9184 4.37252 18.8897 1.95752 19.8887C6.55009 25.3671 17.4611 25.3933 22.0455 19.8887C20.5961 19.2891 19.1252 18.8571 18.7121 18.66ZM7.71409 9C7.28552 6 8.99981 4.71428 11.9998 4.71428C14.9998 4.71428 16.7141 6 16.2855 9C15.8569 12 13.7141 9 11.9998 9C10.2855 9 8.14266 12 7.71409 9ZM11.9998 13.2857C11.1427 13.2857 10.2855 14.1428 10.2855 12.8571C10.2401 12.39 10.4061 11.9271 10.738 11.5953C11.0698 11.2635 11.5327 11.0975 11.9998 11.1429C12.4669 11.0975 12.9298 11.2635 13.2616 11.5953C13.5935 11.9271 13.7595 12.39 13.7141 12.8571C13.7141 14.1428 12.8569 13.2857 11.9998 13.2857Z" fill="white"/>
</g>
<defs>
<clipPath id="clip0_853_38">
<rect width="24" height="24" fill="white"/>
</clipPath>
</defs>
</svg>
