<svg width="15" height="15" viewBox="0 0 15 15" fill="none" xmlns="http://www.w3.org/2000/svg">
<g clip-path="url(#clip0)">
<path d="M14.6381 10.3644L12.5812 8.30751C12.5239 8.24646 12.4549 8.19755 12.3783 8.1637C12.3017 8.12984 12.2191 8.11173 12.1354 8.11043C12.0516 8.10913 11.9685 8.12467 11.8909 8.15613C11.8132 8.18759 11.7427 8.23433 11.6835 8.29357C11.6244 8.35281 11.5777 8.42334 11.5463 8.50097C11.5149 8.57861 11.4994 8.66176 11.5007 8.7455C11.5021 8.82923 11.5203 8.91184 11.5542 8.98842C11.5881 9.06499 11.637 9.13397 11.6981 9.19126L13.1294 10.625C12.3513 10.6268 11.5808 10.4729 10.8631 10.1723C10.1455 9.87177 9.49522 9.43068 8.95062 8.87501C8.89015 8.81932 8.8191 8.77634 8.7417 8.74863C8.6643 8.72093 8.58212 8.70905 8.50004 8.71372C8.41796 8.71838 8.33765 8.73949 8.26389 8.77578C8.19012 8.81208 8.1244 8.86282 8.07062 8.92501L8.0625 8.93751C7.95742 9.05974 7.90363 9.21785 7.91237 9.3788C7.9211 9.53976 7.99169 9.69111 8.10938 9.80126C8.7655 10.4648 9.54792 10.9902 10.4104 11.3464C11.273 11.7025 12.1981 11.8823 13.1312 11.875L11.6981 13.3081C11.6328 13.3643 11.5798 13.4334 11.5425 13.511C11.5051 13.5886 11.4842 13.6731 11.4811 13.7592C11.478 13.8453 11.4926 13.9311 11.5242 14.0112C11.5558 14.0913 11.6036 14.1641 11.6647 14.2248C11.7257 14.2856 11.7987 14.3331 11.8789 14.3644C11.9592 14.3956 12.0451 14.41 12.1311 14.4065C12.2172 14.4029 12.3016 14.3817 12.3791 14.344C12.4565 14.3063 12.5254 14.253 12.5812 14.1875L14.6381 12.1306C14.8721 11.8963 15.0035 11.5787 15.0035 11.2475C15.0035 10.9164 14.8721 10.5987 14.6381 10.3644Z" fill="white"/>
<path d="M13.1289 4.37499L11.6976 5.80624C11.6854 5.82269 11.6742 5.8398 11.6639 5.85749C11.563 5.98046 11.5133 6.13749 11.5249 6.2961C11.5366 6.45471 11.6087 6.60278 11.7265 6.70969C11.8442 6.8166 11.9985 6.87417 12.1575 6.87051C12.3165 6.86684 12.4681 6.80221 12.5807 6.68999L13.647 5.62499L14.6382 4.63437C14.8058 4.46546 14.9217 4.25224 14.9723 4.01974C15.0229 3.78724 15.0061 3.54514 14.9239 3.32187C14.8631 3.15096 14.7654 2.99558 14.6376 2.86687L12.5807 0.81249C12.5237 0.750496 12.4547 0.700679 12.3779 0.666033C12.3011 0.631387 12.2181 0.612628 12.1338 0.610882C12.0496 0.609137 11.9659 0.624442 11.8877 0.655877C11.8095 0.687313 11.7385 0.734229 11.6789 0.793807C11.6194 0.853384 11.5724 0.924393 11.541 1.00256C11.5096 1.08074 11.4943 1.16446 11.496 1.24869C11.4978 1.33293 11.5165 1.41595 11.5512 1.49275C11.5858 1.56955 11.6356 1.63856 11.6976 1.69562L13.1307 3.12812C10.0476 3.13562 8.35762 4.79937 6.82512 6.54937C5.41762 4.96062 3.7495 3.37499 0.928871 3.15374L0.628246 3.12499C0.462486 3.12499 0.303515 3.19084 0.186305 3.30805C0.0690943 3.42526 0.00324631 3.58423 0.00324631 3.74999C0.0064464 3.91475 0.0733218 4.07187 0.189846 4.18839C0.306369 4.30492 0.463488 4.37179 0.628246 4.37499C0.673246 4.37499 0.807621 4.39562 0.807621 4.39562C3.24262 4.57999 4.64012 5.95124 5.9995 7.49999C4.64825 9.04124 3.26012 10.4375 0.845121 10.6L0.595121 10.6131C0.430604 10.6234 0.276908 10.6986 0.167844 10.8222C0.0587796 10.9458 0.00328167 11.1077 0.0135588 11.2722C0.0238359 11.4367 0.0990463 11.5904 0.222644 11.6995C0.346243 11.8085 0.508104 11.864 0.672621 11.8537C0.770121 11.8494 0.928871 11.8456 1.007 11.8394C4.1445 11.5975 5.84637 9.58937 7.36387 7.83374C8.89637 6.06249 10.3439 4.38624 13.1289 4.37499Z" fill="white"/>
</g>
<defs>
<clipPath id="clip0">
<rect width="15" height="15" fill="white"/>
</clipPath>
</defs>
</svg>
