<svg width="300" height="365" viewBox="0 0 300 365" fill="none" xmlns="http://www.w3.org/2000/svg">
<mask id="mask0" mask-type="alpha" maskUnits="userSpaceOnUse" x="0" y="0" width="300" height="365">
<rect width="300" height="365" rx="10" fill="white"/>
</mask>
<g mask="url(#mask0)">
<g opacity="0.05">
<g style="mix-blend-mode:multiply" opacity="0.2">
<path d="M388.645 134.534C366.499 121.734 330.27 121.734 308.142 134.534L-34.4034 332.534C-56.5322 345.335 -56.5322 366.281 -34.4034 379.081L56.0193 431.36C78.1481 444.161 114.394 444.161 136.522 431.36L479.05 233.361C501.196 220.577 501.196 199.614 479.05 186.813L388.645 134.534Z" fill="black"/>
</g>
<path d="M203.879 362.288L199.612 366.978L191.513 364.633L167.945 333.943L193.595 326.353L204.746 341.776L203.879 362.288Z" fill="#343433"/>
<path d="M189.73 342.03L168.919 330.116C163.82 327.91 157.143 328.639 149.842 332.86C133.818 342.135 120.829 364.661 120.829 383.228C120.829 392.486 124.072 398.999 129.326 402.038L148.195 412.911C148.564 413.145 148.947 413.36 149.339 413.553L149.495 413.658C154.698 416.211 161.635 415.62 169.214 411.209C185.255 401.934 198.245 379.407 198.245 360.84C198.262 351.566 194.932 345.052 189.73 342.03Z" fill="#3B4447"/>
<path d="M198.26 360.859C198.26 379.373 185.27 401.9 169.229 411.227C153.187 420.554 140.232 412.964 140.232 394.449C140.232 375.934 153.204 353.39 169.229 344.081C185.253 334.771 198.26 342.326 198.26 360.859Z" fill="#555E61"/>
<path d="M195.989 362.164C195.989 379.237 184.005 400.027 169.23 408.555C154.454 417.083 142.488 410.17 142.488 393.097C142.488 376.024 154.471 355.234 169.23 346.689C183.988 338.144 195.989 345.074 195.989 362.164Z" fill="#3B4447"/>
<path d="M191.757 365.462C191.757 379.548 181.89 396.725 169.698 403.673C157.506 410.62 147.639 405.01 147.639 390.924C147.639 376.838 157.506 359.661 169.698 352.714C181.89 345.766 191.757 351.376 191.757 365.462Z" fill="#CDCCCB"/>
<path d="M190.769 366.037C190.769 379.497 181.335 395.858 169.698 402.51C158.062 409.162 148.627 403.796 148.627 390.353C148.627 376.909 158.062 360.531 169.698 353.879C181.335 347.227 190.769 352.594 190.769 366.037Z" fill="url(#paint0_linear)"/>
<path d="M169.699 353.861C158.062 360.582 148.628 376.943 148.628 390.334C148.59 392.741 148.959 395.137 149.72 397.421C153.57 400.373 159.293 400.373 165.693 396.674C177.329 389.935 186.763 373.574 186.763 360.2C186.803 357.793 186.433 355.397 185.671 353.114C181.804 350.144 176.098 350.161 169.699 353.861Z" fill="url(#paint1_linear)"/>
<path d="M148.697 388.997C151.888 392.384 157.143 392.766 163.091 389.31C172.82 383.7 180.711 370.014 180.711 358.759C180.793 356.061 180.196 353.385 178.977 350.978C175.684 351.133 172.485 352.125 169.681 353.861C158.513 360.357 149.322 375.832 148.697 388.997Z" fill="#343433"/>
<path d="M177.312 379.859C178.166 379.673 179.054 379.711 179.89 379.97C180.725 380.229 181.48 380.699 182.081 381.335C185.773 378.033 188.299 373.621 189.278 368.76C189.462 367.245 189.333 365.708 188.901 364.244C188.468 362.781 187.741 361.421 186.763 360.25C186.763 360.25 186.399 372.286 176.583 371.609C177.046 367.562 177.729 363.544 178.63 359.573C179.41 357.28 180.867 352.973 183.832 351.983C182.158 351.294 180.362 350.953 178.553 350.979C176.743 351.006 174.958 351.401 173.306 352.139C173.306 354.657 172.889 360.719 169.23 363.307C166.056 365.565 162.536 363.203 160.559 361.57C158.389 364.032 156.466 366.703 154.819 369.542C156.449 369.629 158.183 370.272 157.836 372.668C157.299 376.316 153.501 381.769 148.974 385.365C148.709 387.054 148.57 388.761 148.558 390.471C148.449 393.819 149.22 397.138 150.795 400.093C151.205 396.833 152.033 393.64 153.258 390.593C155.304 386.598 160.663 385.139 160.663 389.012C160.663 392.885 159.813 402.264 159.813 402.264C159.813 402.264 167.201 402.768 171.727 398.79C175.699 395.317 171.727 395.734 170.618 395.317C169.26 394.662 168.214 393.5 167.704 392.08C167.195 390.66 167.263 389.097 167.895 387.727C168.769 385.788 170.071 384.073 171.702 382.711C173.333 381.348 175.251 380.373 177.312 379.859Z" fill="#D0D2D4"/>
<path d="M176.584 371.611C176.584 371.611 176.688 377.656 178.127 378.941C182.772 376.206 186.645 372.333 189.383 367.686C189.41 364.977 188.483 362.345 186.764 360.252C186.764 360.252 186.4 372.289 176.584 371.611Z" fill="url(#paint2_linear)"/>
<path d="M177.433 351.096C176.021 351.276 174.635 351.626 173.306 352.138C173.306 354.656 172.889 360.718 169.23 363.306C166.056 365.564 162.536 363.201 160.559 361.569L160.333 361.829C162.068 363.566 165.293 366.154 169.005 366.085C174.259 365.911 178.734 357.088 177.433 351.096Z" fill="url(#paint3_linear)"/>
<path d="M463.112 147.681C463.112 147.681 463.909 120.465 463.112 116.018C462.314 111.572 457.094 92.432 442.526 80.1352C427.959 67.8383 398.46 47.4653 373.556 37.6348C361.104 32.7369 345.513 31.6079 339.842 31C338.337 30.9964 336.86 31.4113 335.576 32.1984L328.847 36.5058L320.54 41.0563C320.54 41.0563 294.614 40.4831 284.365 43.2274C274.115 45.9716 240.801 61.4468 227.135 68.3941C213.469 75.3415 186.068 92.2062 172.177 100.63C158.286 109.054 139.886 122.618 127.711 131.893C115.537 141.168 92.6106 163.069 71.1235 183.46C71.1235 183.46 63.3888 190.407 59.851 193.881C56.3131 197.354 11.5354 232.907 4.02615 238.726C-3.48307 244.544 -16.6806 255.591 -18.0506 257.97C-19.4207 260.35 -28.456 279.611 -28.456 279.611C-32.9118 285.874 -35.6721 293.186 -36.4681 300.835C-38.2024 314.4 -32.6008 322.372 -32.6008 322.372C-32.6008 322.372 -32.6008 331.056 -22.4729 341.616C-22.4729 341.616 -21.6752 347.765 -10.1946 356.31C1.28604 364.855 44.295 390.265 51.1105 393.912C57.926 397.56 72.4936 406.782 97.293 407.651C122.093 408.519 132.498 403.204 132.498 403.204L133.174 402.84C135.463 370.152 153.17 346.531 175.403 334.686C191.67 326.002 204.33 332.949 202.665 351.395C202.168 356.696 201.134 361.934 199.578 367.026L201.659 365.88L378.03 256.98L387.222 250.693C390.326 227.35 403.281 204.51 428.531 189.243C442.943 180.559 455.793 184.919 455.585 202.148C459.158 197.58 464.447 189.764 466.476 181.306C469.702 168.071 467.551 151.102 463.112 147.681Z" fill="#BBBBBB"/>
<g style="mix-blend-mode:multiply" opacity="0.15">
<path d="M209.411 293.02C209.411 293.02 129.029 342.12 124.468 344.257C119.907 346.393 89.0381 351.656 56.0357 337.674C31.0628 327.097 8.8473 314.73 -3.08421 300.575C-4.50628 300.679 -5.26938 302.017 -5.18266 304.83C-5.02658 309.294 -4.07272 316.745 -1.83556 318.968C0.401596 321.191 11.3272 328.365 17.241 332.012C23.1547 335.659 35.6758 342.954 42.37 346.011C48.7519 348.929 51.4573 347.661 53.365 346.011L53.7291 345.698C53.3178 346.149 52.8837 346.578 52.4285 346.983C50.4861 348.633 47.7981 349.901 41.4162 346.983C34.722 343.927 22.1488 336.562 16.2871 332.967C10.4254 329.372 -0.517578 322.181 -2.78942 319.941C-5.06126 317.7 -5.98039 310.267 -6.13647 305.803C-6.24052 302.607 -5.0092 300.697 -3.08421 300.592C-6.72528 296.471 -9.47664 291.64 -11.1657 286.403C-13.2091 278.892 -16.9269 271.944 -22.0393 266.082C-24.9702 272.247 -28.404 279.559 -28.404 279.559C-32.8866 285.832 -35.6654 293.164 -36.4681 300.836C-38.2024 314.4 -32.6008 322.372 -32.6008 322.372V322.494C-28.6815 327.097 -21.3283 333.836 -17.9812 337.049C-11.1484 343.597 32.0513 367.947 41.2774 373.158C48.908 377.465 66.3023 386.618 87.8415 388.789C91.6915 389.189 93.3737 393.114 93.4777 396.014C93.5818 398.915 93.4777 401.364 90.0093 400.999C72.8707 399.049 56.2985 393.668 41.2774 385.177C32.0513 379.966 -14.8249 355.164 -22.4729 341.582C-22.4729 341.582 -21.6752 347.73 -10.1946 356.276C1.28604 364.821 44.295 390.231 51.1105 393.878C57.926 397.525 72.4936 406.783 97.293 407.651C106.422 408.091 115.57 407.42 124.538 405.654C124.457 404.497 124.457 403.337 124.538 402.18C126.827 369.458 144.325 341.391 171.362 326.94C176.565 323.989 182.414 322.367 188.392 322.216C191.514 322.15 194.616 322.744 197.493 323.959C200.371 325.174 202.96 326.983 205.093 329.268C207.833 332.272 210.296 338.872 209.914 347.435L379.435 244.319C384.36 218.51 400.072 196.174 424.039 181.671C427.232 179.721 430.674 178.213 434.271 177.19L461.568 158.867L463.077 147.647C463.077 147.647 463.424 135.94 463.441 126.631L209.411 293.02Z" fill="black"/>
</g>
<g style="mix-blend-mode:multiply" opacity="0.08">
<path d="M440.081 102.678L432.936 99.812L385.21 102.921C370.33 102.122 327.356 127.393 294.544 147.419C261.733 167.444 244.338 186.411 244.338 186.411L199.075 261.095C195.812 267.842 191.878 274.242 187.334 280.2C180.9 288.103 143.406 322.179 143.406 322.179L217.597 273.669L337.64 194.887C337.64 194.887 420.883 138.769 424.681 136.181C431.426 132.16 436.698 126.07 439.717 118.813C443.931 108.444 440.081 102.678 440.081 102.678Z" fill="black"/>
</g>
<g style="mix-blend-mode:multiply" opacity="0.15">
<path d="M209.655 350.454C209.477 351.88 209.222 353.294 208.892 354.692C208.302 357.263 207.695 359.903 207.036 362.543L377.945 257.012C378.101 254.181 378.378 251.385 378.76 248.606L209.655 350.454Z" fill="black"/>
</g>
<g style="mix-blend-mode:multiply" opacity="0.1">
<path d="M-20.3916 328.208L-17.7035 330.709C-14.6513 333.644 -1.97409 342.241 41.0695 366.557L41.4684 366.766C62.2792 378.489 82.5523 383.839 101.837 382.675C111.262 382.196 120.571 380.372 129.481 377.256C130.313 374.772 131.215 372.341 132.255 369.961C122.531 373.712 112.265 375.864 101.854 376.336C74.0025 378.072 50.5037 365.585 41.2776 360.374C32.0515 355.164 -11.1482 330.848 -17.981 324.265C-23.6173 318.846 -33.5891 309.433 -35.8783 297.223C-36.1037 298.386 -36.3118 299.585 -36.4679 300.835C-36.7402 302.989 -36.8388 305.161 -36.7628 307.331C-32.722 316.745 -25.9932 323.015 -20.3916 328.208Z" fill="black"/>
</g>
<g style="mix-blend-mode:screen" opacity="0.3">
<path style="mix-blend-mode:screen" opacity="0.3" d="M60.373 339.443C62.3501 340.184 64.3097 340.861 66.2521 341.475C74.4376 335.882 111.897 310.385 135.188 296.838C112.938 308.631 70.9172 331.262 60.373 339.443Z" fill="url(#paint4_linear)"/>
</g>
<g style="mix-blend-mode:multiply" opacity="0.15">
<path d="M-5.52878 297.517C1.65094 272.871 37.827 231.17 37.827 231.17C9.10813 260.227 -3.18757 284.369 -7.10693 295.311C-6.55198 296.058 -6.04905 296.788 -5.52878 297.517Z" fill="black"/>
</g>
<path style="mix-blend-mode:multiply" opacity="0.3" d="M204.263 353.723L209.916 347.488C210.367 338.925 207.835 332.325 205.095 329.32C202.962 327.035 200.373 325.226 197.495 324.011C194.618 322.796 191.517 322.202 188.394 322.269C182.416 322.419 176.568 324.042 171.364 326.993C144.327 341.391 126.829 369.511 124.54 402.233C124.459 403.389 124.459 404.55 124.54 405.706C127.292 405.187 129.979 404.366 132.552 403.257L133.228 402.893C135.518 370.205 153.224 346.584 175.457 334.739C191.724 326.055 204.384 333.002 202.719 351.448C202.222 356.749 201.188 361.987 199.632 367.079L201.713 365.933L207.037 362.65C207.696 359.993 208.303 357.44 208.893 354.8C209.224 353.402 209.478 351.987 209.656 350.562L204.263 353.723Z" fill="url(#paint5_linear)"/>
<g style="mix-blend-mode:multiply" opacity="0.1">
<path d="M124.538 402.231C125.101 394.07 126.662 386.008 129.186 378.228C120.372 381.223 111.185 382.977 101.889 383.438C100.155 383.543 98.4205 383.595 96.6862 383.595C78.8237 383.595 60.1807 378.158 41.1909 367.425L40.792 367.199C-2.33831 342.883 -15.0676 334.199 -18.1718 331.246C-19.0043 330.447 -19.9061 329.614 -20.8426 328.745C-26.132 323.847 -32.4099 317.994 -36.5547 309.519C-36.2485 314.078 -34.8698 318.5 -32.5313 322.423V322.545C-28.6119 327.147 -21.2588 333.886 -17.9117 337.1C-11.0788 343.647 32.1209 367.998 41.347 373.208C48.9776 377.516 66.3719 386.669 87.9111 388.84C91.761 389.239 93.4433 393.165 93.5473 396.065C93.6514 398.966 93.5473 401.415 90.0788 401.05C72.9403 399.1 56.368 393.719 41.347 385.227C32.1209 380.017 -14.7554 355.215 -22.4034 341.633C-22.4034 341.633 -21.6056 347.781 -10.125 356.326C1.35562 364.872 44.3645 390.282 51.18 393.929C57.9955 397.576 72.4938 406.781 97.2932 407.65C106.422 408.09 115.57 407.419 124.538 405.653C124.46 404.513 124.46 403.37 124.538 402.231Z" fill="black"/>
</g>
<g style="mix-blend-mode:multiply" opacity="0.3">
<path d="M87.8419 388.892C79.4647 387.995 71.2222 386.112 63.2852 383.282L63.528 385.123L68.9041 388.597L63.8228 387.12C55.0184 384.37 46.5262 380.703 38.4857 376.178C29.2596 370.968 -17.5993 346.166 -25.2646 332.601V334.442C-17.5993 348.007 29.2596 372.809 38.4857 378.019C46.6019 382.597 55.183 386.295 64.0829 389.048L64.4992 392.001C64.4992 392.001 82.3964 397.611 89.1946 397.211C90.7845 397.102 92.284 396.431 93.4262 395.318C93.0793 392.591 91.3798 389.274 87.8419 388.892Z" fill="black"/>
</g>
<path style="mix-blend-mode:multiply" opacity="0.2" d="M56.0365 337.726C31.0636 327.149 8.84807 314.782 -3.08344 300.627C-4.5055 300.731 -5.2686 302.069 -5.18189 304.882C-5.02581 309.346 -4.07195 316.797 -1.83479 319.02C0.402369 321.243 11.328 328.416 17.2417 332.064C23.1555 335.711 35.6766 343.006 42.3707 346.063C48.7527 348.981 51.4581 347.713 53.3657 346.063L53.7299 345.75C53.3186 346.2 52.8844 346.629 52.4292 347.035C50.4869 348.685 47.7989 349.953 41.4169 347.035C34.7228 343.978 22.1496 336.614 16.2879 333.019C10.4262 329.424 -0.516806 322.233 -2.78865 319.993C-5.06049 317.752 -5.97962 310.319 -6.1357 305.855C-6.23975 302.659 -5.00843 300.749 -3.08344 300.644C-6.72451 296.522 -9.47587 291.691 -11.165 286.454C-11.9252 283.873 -12.8521 281.343 -13.9397 278.882L-17.9805 280.914L-14.3386 300.019L-13.0726 310.857C-13.0726 310.857 -15.067 317.005 -7.47104 322.337C0.124893 327.67 23.7451 343.006 34.1505 348.477C44.5559 353.948 57.2157 358.898 70.2225 356.397C77.1594 355.094 81.8939 350.179 84.8767 345.837C74.9592 344.367 65.2682 341.642 56.0365 337.726Z" fill="url(#paint6_linear)"/>
<g style="mix-blend-mode:multiply" opacity="0.2">
<path d="M107.283 363.606C105.549 363.606 103.59 363.606 101.422 363.484C88.329 362.71 75.3664 360.449 62.783 356.745L62.2802 356.606C60.7887 356.189 59.9389 355.512 59.7481 354.574C59.488 353.167 60.9274 352.021 61.1008 351.899L61.6905 351.431C65.4365 348.53 74.2117 341.739 82.8134 338.873C86.6461 337.588 93.4963 336.858 101.613 336.858C110.284 336.858 118.313 337.657 121.574 338.873C125.163 340.211 129.1 344.084 127.418 355.06C126.343 362.147 118.591 363.606 107.283 363.606Z" fill="black"/>
</g>
<path d="M61.6201 352.591C61.6201 352.591 58.7933 354.745 62.5046 355.752C66.2158 356.76 84.616 362.022 101.455 362.613C118.295 363.203 125.544 361.571 126.567 354.919C127.452 349.048 127.243 341.91 121.26 339.687C115.277 337.463 92.0558 336.699 83.1072 339.687C74.1586 342.674 64.759 350.177 61.6201 352.591Z" fill="url(#paint7_linear)"/>
<path d="M121.261 339.687C116.509 337.95 100.832 337.081 90.0451 338.315L77.2985 344.55C76.7252 344.915 76.2663 345.434 75.9749 346.049C75.6834 346.663 75.5711 347.348 75.651 348.024C75.7785 350.01 76.3438 351.944 77.3063 353.686C78.2688 355.427 79.6047 356.934 81.2178 358.097C81.7594 358.548 82.4074 358.851 83.0997 358.979C83.7921 359.107 84.5056 359.054 85.1719 358.827L122.649 340.416C122.211 340.129 121.746 339.885 121.261 339.687Z" fill="url(#paint8_linear)"/>
<path d="M75.7208 348.028C75.8483 350.015 76.4136 351.949 77.3761 353.69C78.3387 355.432 79.6745 356.939 81.2877 358.102C81.8292 358.553 82.4772 358.856 83.1696 358.984C83.862 359.112 84.5755 359.059 85.2418 358.832C85.8274 358.479 86.2962 357.962 86.5893 357.344C86.8824 356.726 86.9868 356.035 86.8893 355.358C86.7608 353.369 86.1951 351.433 85.2327 349.689C84.2704 347.944 82.9351 346.434 81.3224 345.267C80.7784 344.821 80.1306 344.52 79.4391 344.392C78.7477 344.265 78.0352 344.315 77.3683 344.537C76.7921 344.904 76.3314 345.426 76.0398 346.044C75.7481 346.662 75.6375 347.35 75.7208 348.028Z" fill="white"/>
<path d="M121.26 339.688C116.398 338.442 111.399 337.812 106.381 337.813L92.3334 345.229C91.7477 345.581 91.2789 346.098 90.9859 346.716C90.6928 347.334 90.5884 348.025 90.6859 348.702C90.8094 350.692 91.3747 352.629 92.3408 354.372C93.3069 356.114 94.6493 357.619 96.2701 358.776C96.8081 359.227 97.4532 359.531 98.1428 359.658C98.8325 359.786 99.5434 359.734 100.207 359.506L126.723 347.157C126.609 345.523 126.035 343.954 125.068 342.633C124.102 341.311 122.782 340.29 121.26 339.688Z" fill="url(#paint9_linear)"/>
<path d="M90.6859 348.685C90.8094 350.675 91.3747 352.612 92.3408 354.355C93.3069 356.097 94.6493 357.602 96.2701 358.759C96.8081 359.21 97.4532 359.514 98.1429 359.641C98.8325 359.769 99.5434 359.717 100.207 359.489C100.792 359.136 101.261 358.619 101.554 358.001C101.847 357.383 101.952 356.692 101.854 356.015C101.726 354.024 101.159 352.087 100.193 350.342C99.2276 348.597 97.8878 347.088 96.2701 345.924C95.7329 345.472 95.087 345.168 94.3964 345.043C93.7058 344.918 92.9946 344.976 92.3334 345.212C91.7477 345.564 91.279 346.082 90.9859 346.7C90.6928 347.318 90.5884 348.008 90.6859 348.685Z" fill="white"/>
<path d="M111.514 351.031C111.587 352.227 111.925 353.392 112.504 354.441C113.083 355.489 113.888 356.395 114.861 357.093C115.187 357.362 115.576 357.545 115.991 357.624C116.406 357.702 116.835 357.675 117.237 357.544L126.81 352.924C127.174 349.242 126.914 345.335 125.075 342.59L112.554 348.947C112.198 349.156 111.91 349.465 111.725 349.835C111.54 350.205 111.467 350.62 111.514 351.031Z" fill="url(#paint10_linear)"/>
<path d="M111.515 351.028C111.588 352.224 111.926 353.388 112.505 354.437C113.084 355.486 113.889 356.392 114.862 357.089C115.188 357.359 115.577 357.541 115.992 357.62C116.408 357.699 116.836 357.672 117.238 357.541C117.591 357.326 117.874 357.013 118.052 356.64C118.231 356.266 118.298 355.85 118.244 355.439C118.162 354.244 117.818 353.081 117.236 352.033C116.655 350.985 115.85 350.079 114.88 349.378C114.555 349.106 114.165 348.923 113.749 348.846C113.332 348.77 112.903 348.804 112.504 348.944C112.157 349.16 111.88 349.471 111.704 349.841C111.529 350.21 111.463 350.622 111.515 351.028Z" fill="#F09041"/>
<path d="M61.6201 352.591C61.6201 352.591 58.7933 354.745 62.5046 355.752C66.2158 356.76 84.616 362.022 101.455 362.613C118.295 363.203 125.544 361.571 126.567 354.919C127.452 349.048 127.243 341.91 121.26 339.687C115.277 337.463 92.0558 336.699 83.1072 339.687C74.1586 342.674 64.759 350.177 61.6201 352.591Z" fill="url(#paint11_linear)"/>
<path d="M422.272 133.146C418.578 131.549 399.224 121.909 386.391 121.788C373.557 121.666 356.163 127.502 337.329 136.603C336.185 137.141 334.971 137.853 333.601 138.478C331.311 139.521 329.82 141.57 330.271 145.86L336.948 194.492L325.346 202.203L317.542 151.731C317.247 149.108 315.408 148.986 313.674 150.098C298.812 159.546 282.458 170.141 275.417 175.282C257.815 188.135 249.612 203.072 240.16 219.085C231.333 234.074 217.06 265.181 216.263 270.357C216.263 270.357 214.893 275.984 219.349 272.771C223.147 270.044 301.743 219.207 325.588 203.801L337.173 196.124L424.682 136.255C424.682 136.255 426.867 135.161 422.272 133.146Z" fill="#141C1E"/>
<path d="M224.223 220.764C218.795 231.029 200.481 262.449 196.788 266.912C193.094 271.376 181.093 276.291 166.941 273.999C152.79 271.706 126.829 258.523 99.6533 241.763C72.4779 225.002 62.5928 216.266 60.8932 206.522C59.1937 196.779 69.5644 189.05 75.4955 183.336C81.4265 177.621 122.32 137.796 139.541 126.246C139.541 126.246 141.084 124.509 145.055 127.531C149.027 130.553 171.953 147.418 185.793 155.616C199.632 163.814 244.34 186.41 244.34 186.41L224.223 220.764Z" fill="#141C1E"/>
<path d="M117.255 235.391C97.9875 222.035 88.2238 216.807 77.2288 206.994C66.2338 197.181 71.2631 189.452 73.7603 186.881C74.6795 185.978 75.616 185.144 76.4484 184.38L77.3675 183.494C107.404 154.454 126.342 137.086 136.886 129.982L137.042 129.878C137.184 129.838 137.334 129.838 137.476 129.878C139.221 129.981 140.909 130.545 142.367 131.511C146.026 134.342 168.675 150.963 182.687 159.3C195.035 166.612 232.893 186.1 240.559 189.973L222.852 220.211C218.777 227.905 206.828 248.452 199.995 259.481C197.272 263.91 185.48 267.002 177.45 264.692C169.421 262.382 135.412 247.983 117.255 235.391Z" fill="#303E42"/>
<path d="M388.87 103.167C388.87 103.167 380.043 103.323 375.464 99.0851C361.576 87.2259 346.772 76.4876 331.189 66.971C319.255 60.0565 306.688 54.2988 293.661 49.7763C290.452 48.4911 282.562 45.2953 291.025 43.5758C299.488 41.8563 320.663 41.5437 320.663 41.5437C331.178 40.0742 341.885 40.8676 352.07 43.8711C369.73 49.3969 386.565 57.2838 402.119 67.3184C416.912 76.8884 432.85 91.6341 435.902 95.6115C438.955 99.5888 443.55 105.043 435.902 104.799C428.254 104.556 388.87 103.167 388.87 103.167Z" fill="#141C1E"/>
<path d="M435.989 103.356C428.463 103.113 389.321 101.741 388.922 101.723H388.749C387.899 101.723 380.338 101.619 376.471 98.0238C362.501 86.0939 347.609 75.2917 331.935 65.7186C320.622 59.1029 308.706 53.5781 296.349 49.2186C295.378 48.8713 294.615 48.6107 294.199 48.4197C292.306 47.7989 290.517 46.8973 288.892 45.7449C288.302 45.2239 289.638 44.6855 290.99 44.4076C299.245 42.6707 320.004 42.2886 320.212 42.2886H320.455C320.455 42.2886 324.79 41.8892 330.652 41.8892C337.779 41.9939 344.854 43.1347 351.654 45.276C369.164 50.7787 385.863 58.6 401.305 68.5322C416.323 78.2585 431.879 92.709 434.723 96.4953L435.33 97.2943C436.336 98.6143 439.007 102.123 438.608 102.939C438.608 103.026 438.036 103.356 436.406 103.356H435.989Z" fill="#39464A"/>
<path d="M234.386 261.148C259.116 245.047 305.68 214.931 324.011 203.085L316.102 151.901C316.102 151.223 315.86 150.876 315.582 150.876C315.175 150.918 314.786 151.068 314.455 151.31C301.119 159.803 283.672 171.058 276.302 176.46C259.844 188.479 251.607 202.512 242.883 217.38L241.444 219.811C238.08 225.543 233.848 233.706 229.894 241.973L234.386 261.148Z" fill="#303E42"/>
<path d="M155.546 231.623C139.523 221.14 122.949 211.527 105.895 202.826C88.553 193.934 76.6562 191.641 71.1066 191.068C69.6846 194.854 69.8753 200.464 77.2285 206.995C88.2235 216.808 98.0392 222.036 117.255 235.392C135.412 247.984 169.455 262.209 177.519 264.519C184.418 266.175 191.689 265.112 197.827 261.549C188.115 250.468 166.351 238.518 155.546 231.623Z" fill="#39464A"/>
<path opacity="0.7" d="M82.0338 183.197L152.305 138.577C147.484 135.104 143.79 132.36 142.489 131.352C141.031 130.386 139.344 129.823 137.599 129.72C137.457 129.679 137.307 129.679 137.165 129.72L137.009 129.824C126.985 136.563 109.383 152.594 81.8604 179.115L82.0338 183.197Z" fill="#C5D0D3"/>
<path opacity="0.7" d="M318.426 42.3423C313.223 42.4812 297.823 43.037 290.99 44.4091C289.638 44.687 288.302 45.2254 288.892 45.7465C290.517 46.8989 292.306 47.8005 294.199 48.4212C294.649 48.6123 295.378 48.8728 296.349 49.2202L299.956 50.5575C304.639 48.3344 312.998 44.4439 318.426 42.3423Z" fill="#C5D0D3"/>
<path d="M198.85 240.048C196.578 233.014 188.081 224.086 179.895 220.126C178.03 219.148 176.002 218.519 173.912 218.268C169.611 217.903 167.599 220.613 169.247 225.684C171.536 232.632 180.034 241.628 188.202 245.606C190.074 246.582 192.107 247.212 194.202 247.464C198.503 247.794 200.515 245.102 198.85 240.048ZM195.798 243.765C195.659 243.938 195.104 244.095 194.202 244.025C192.559 243.812 190.968 243.307 189.503 242.532C182.288 239.058 174.519 230.93 172.542 224.868C171.97 223.131 172.143 222.193 172.316 221.967C172.49 221.742 173.01 221.62 173.912 221.707C175.552 221.91 177.139 222.417 178.594 223.201C185.826 226.674 193.595 234.785 195.555 240.864C196.145 242.618 195.971 243.522 195.798 243.747V243.765Z" fill="#3D4B4F"/>
<path d="M147.899 228.182L148.905 227.088C148.905 227.088 164.339 220.505 178.786 228.512C193.232 236.519 194.012 255.346 194.012 255.346L193.076 256.197C193.076 256.197 182.15 258.438 159.31 248.468C136.47 238.499 147.899 228.182 147.899 228.182Z" fill="#3D4B4F"/>
<path opacity="0.2" d="M182.792 159.128C168.78 150.808 146.131 134.187 142.471 131.338C141.013 130.372 139.326 129.809 137.581 129.706C137.439 129.666 137.289 129.666 137.147 129.706L136.991 129.81C126.447 136.914 107.509 154.282 77.4724 183.322L76.5532 184.208C75.7208 185.007 74.819 185.806 73.8652 186.709C71.3159 189.279 66.2692 197.026 77.3336 206.821C78.3221 207.725 79.3107 208.558 80.3165 209.392C106.33 194.021 145.888 173.057 186.243 160.865C184.891 160.344 183.781 159.684 182.792 159.128Z" fill="white"/>
<path opacity="0.2" d="M377.789 55.4884C369.344 51.431 360.608 48.0115 351.654 45.2584C344.854 43.1172 337.779 41.9763 330.652 41.8716C324.79 41.8716 320.49 42.2537 320.455 42.2711H320.212C320.004 42.2711 299.245 42.7227 290.99 44.39C289.638 44.6679 288.302 45.2063 288.892 45.7274C290.517 46.8797 292.306 47.7813 294.199 48.4021C294.649 48.5931 295.378 48.8537 296.349 49.201C298.499 49.9826 301.69 51.1463 305.592 52.6747C322.415 51.0073 349.746 49.8089 377.789 55.4884Z" fill="white"/>
<path d="M53.3314 333.262C50.1404 331.525 35.4168 324.161 28.2891 319.854C21.1614 315.547 3.36814 303.684 0.0210741 301.669C-0.711405 301.199 -1.52185 300.864 -2.37212 300.679C-2.71424 301.618 -2.85031 302.619 -2.77101 303.614C-2.61493 308.095 -1.66112 315.529 0.576041 317.77C2.8132 320.01 13.7389 327.149 19.6526 330.796C25.5663 334.443 38.0875 341.738 44.7817 344.812C48.7184 346.549 51.2677 346.81 53.0713 346.323L53.3661 346.063C55.3604 344.326 58.2913 340.574 58.5688 338.508C59.0717 335.572 53.3314 333.262 53.3314 333.262Z" fill="#1B2628"/>
<path d="M44.7452 344.813C38.051 341.739 25.4952 334.392 19.6162 330.797C13.7372 327.202 2.81152 319.994 0.539679 317.771C-1.73216 315.547 -2.65129 308.096 -2.80737 303.615C-2.88666 302.62 -2.75065 301.618 -2.40853 300.68C-4.2815 300.35 -5.32203 301.618 -5.21797 304.883C-5.06189 309.347 -4.10808 316.798 -1.87092 319.021C0.36623 321.244 11.2919 328.417 17.2056 332.065C23.1193 335.712 35.6405 343.007 42.3346 346.064C48.3871 348.825 51.1271 347.8 53.0348 346.324C51.2312 346.81 48.6819 346.602 44.7452 344.813Z" fill="#5A6567"/>
<path d="M228.316 257.122C227.32 256.464 226.175 256.07 224.986 255.976C223.616 256.097 222.905 258.98 223.252 261.968C223.599 264.955 226.928 265.198 226.928 265.198C226.928 265.198 236.068 270.148 237.334 270.565C239.107 270.883 240.93 270.782 242.658 270.27C243.612 269.853 244.115 267.23 244.115 265.059C244.115 262.888 243.889 262.159 242.294 261.151C240.698 260.144 232.114 255.715 232.114 255.715C232.114 255.715 229.252 254.899 228.316 257.122Z" fill="#BBBBBB"/>
<path d="M226.98 261.082C227.079 259.669 227.539 258.306 228.316 257.122C227.32 256.465 226.175 256.07 224.986 255.976C223.616 256.098 222.905 258.981 223.252 261.968C223.599 264.955 226.928 265.199 226.928 265.199C226.793 263.829 226.81 262.448 226.98 261.082Z" fill="#414E52"/>
<path d="M226.859 265.196C226.756 263.899 226.791 262.595 226.963 261.305C225.639 260.876 224.37 260.293 223.182 259.568C223.095 260.382 223.095 261.203 223.182 262.017C223.46 264.935 226.859 265.196 226.859 265.196Z" fill="#283539"/>
<g style="mix-blend-mode:multiply" opacity="0.15">
<path d="M242.553 270.268C243.507 269.851 244.01 267.228 244.01 265.057C244.066 264.262 243.96 263.465 243.698 262.712C241.634 263.49 239.681 264.535 237.888 265.821C237.095 267.17 236.709 268.721 236.778 270.285L237.229 270.493C238.997 270.834 240.82 270.757 242.553 270.268Z" fill="black"/>
</g>
<path d="M78.0601 176.876L83.9045 171.336C83.8556 169.972 83.6401 168.618 83.2628 167.306C80.4834 165.088 77.589 163.018 74.5916 161.106C74.5916 161.106 73.6204 160.151 72.0596 161.679C70.4988 163.207 70.3254 168.331 70.5855 169.686C70.8283 170.728 75.8403 175.035 78.0601 176.876Z" fill="#BBBBBB"/>
<g style="mix-blend-mode:multiply" opacity="0.15">
<path d="M78.2006 169.688C77.715 168.715 73.0846 165.433 71.0209 163.991C70.5931 165.858 70.4702 167.782 70.6567 169.688C70.8302 170.73 75.8594 175.038 78.0619 176.879L78.5995 176.375C78.7329 174.138 78.599 171.893 78.2006 169.688Z" fill="black"/>
</g>
<path d="M83.5769 171.667C82.7445 171.354 81.4958 170.989 80.8715 171.458C80.2472 171.927 80.0564 173.959 80.0391 174.932L83.5769 171.667Z" fill="#414E52"/>
<g style="mix-blend-mode:multiply" opacity="0.2">
<g style="mix-blend-mode:multiply" opacity="0.2">
<path d="M214.285 343.875C212.877 341.187 212.078 338.222 211.944 335.191C211.944 330.97 209.811 295.104 209.724 293.663L204.955 281.87V281.731C208.49 268.437 213.456 255.567 219.765 243.347C229.72 224.554 249.872 191.728 261.543 180.907L261.89 181.289C250.271 192.075 230.153 224.832 220.268 243.59C213.989 255.755 209.047 268.567 205.527 281.8L210.279 293.559C210.279 293.923 212.482 330.848 212.482 335.156C212.626 338.097 213.407 340.971 214.771 343.579L214.285 343.875Z" fill="black"/>
</g>
</g>
<g style="mix-blend-mode:multiply" opacity="0.2">
<path d="M-10.1591 333.434C-10.1591 331.837 -8.97986 331.194 -7.60982 332.01L38.8502 359.887C39.5739 360.378 40.1742 361.03 40.6044 361.793C41.0346 362.555 41.283 363.406 41.3302 364.281V372.322C41.3302 373.938 40.2203 374.563 38.8329 373.747L-7.8873 345.853C-8.61449 345.364 -9.21537 344.709 -9.64048 343.942C-10.0656 343.175 -10.3027 342.318 -10.3325 341.441L-10.1591 333.434Z" fill="black"/>
</g>
<path d="M40.0128 373.175C39.7673 373.154 39.53 373.077 39.319 372.949L-7.40116 345.038C-7.99542 344.631 -8.48766 344.091 -8.83959 343.461C-9.19152 342.831 -9.39361 342.129 -9.43018 341.408L-9.2741 333.454C-9.2741 333.106 -9.27411 332.533 -8.73649 332.533C-8.49108 332.554 -8.25379 332.632 -8.04281 332.759L38.4346 360.548C39.0276 360.965 39.5204 361.508 39.8774 362.139C40.2344 362.77 40.4465 363.472 40.4983 364.196V372.237C40.5851 372.619 40.429 373.175 40.0128 373.175Z" fill="white"/>
<path d="M55.2899 344.086L56.1916 342.957C49.0813 339.292 36.907 333.022 30.1782 328.958C21.8019 323.887 1.54607 310.426 -3.89941 307.022C-3.89941 307.647 -3.77803 308.272 -3.69131 308.915C3.40169 313.448 21.0562 325.155 28.7214 329.757C35.6063 333.978 48.2662 340.456 55.2899 344.086Z" fill="#404B4D"/>
<path d="M56.9217 341.929C57.1992 341.53 57.4419 341.13 57.6674 340.731C50.8865 337.257 37.3942 330.31 30.1798 325.968C21.7167 320.757 1.11406 307.14 -4.07129 303.927V304.205C-4.07129 304.691 -4.07129 305.195 -4.07129 305.734C2.86564 310.128 20.867 322.095 28.6537 326.801C36.1976 331.335 50.4183 338.577 56.9217 341.929Z" fill="#404B4D"/>
<path d="M-3.65487 301.199C-3.84884 301.688 -3.97147 302.203 -4.01904 302.727C2.91788 307.104 20.9366 319.106 28.7233 323.83C36.51 328.554 52.5516 336.682 58.2052 339.635C58.3764 339.277 58.4989 338.897 58.5694 338.506C58.5694 338.402 58.5694 338.315 58.5694 338.228C52.17 334.911 37.7586 327.564 30.1453 322.996C21.9251 317.994 2.13746 304.829 -3.65487 301.199Z" fill="#404B4D"/>
<path d="M53.3493 345.993C53.6788 345.698 54.043 345.35 54.4245 344.951C47.1928 341.234 36.3712 335.624 30.1453 331.872C21.9598 326.922 2.39762 313.931 -3.55078 310.179C-3.44673 310.857 -3.32529 311.517 -3.18656 312.177C4.2186 316.935 21.1967 328.19 28.6886 332.706C35.0185 336.597 46.1175 342.345 53.3493 345.993Z" fill="#404B4D"/>
<path d="M49.6033 347.106C50.4367 347.166 51.2735 347.059 52.0659 346.794C45.0075 343.146 35.7294 338.283 30.1799 334.931C22.2891 330.155 3.81957 317.893 -2.77051 313.672C-2.5916 314.421 -2.36567 315.158 -2.09413 315.878C5.74459 320.95 21.6128 331.51 28.7752 335.765C34.0125 339.048 42.6837 343.529 49.6033 347.106Z" fill="#404B4D"/>
<path d="M220.147 98.4411L273.44 132.118L280.221 126.491L269.989 102.575C269.989 102.575 270.075 101.324 268.254 100.039L233.379 80.048C233.379 80.048 230.934 78.9016 229.46 80.3258C228.315 81.42 220.147 98.4411 220.147 98.4411Z" fill="#E58D00"/>
<path d="M218.984 99.5876L241.529 114.264L273.387 132.153L268.393 104.468C268.393 104.468 268.393 103.235 266.658 101.967L231.783 81.9934C230.841 81.5982 229.804 81.4895 228.8 81.6808C227.222 81.9934 218.984 99.5876 218.984 99.5876Z" fill="#FFA300"/>
<path d="M219.106 99.3823L242.864 114.232L273.439 132.122L280.22 126.494L280.168 127.345L273.387 133.268L242.015 115.309L219.036 100.824L219.106 99.3823Z" fill="black"/>
<path d="M237.124 96.0473L233.656 93.8936L233.188 105.305L230.864 103.863L231.349 92.4173L227.881 90.2462L227.985 87.832L237.246 93.6157L237.124 96.0473Z" fill="black"/>
<path d="M243.49 108.617L239.849 106.342L238.808 108.843L236.501 107.384L241.34 96.1294L243.074 97.2062L246.785 113.81L244.34 112.282L243.49 108.617ZM240.577 104.57L243.126 106.168L242.363 102.538L242.086 100.141L241.635 102.104L240.577 104.57Z" fill="black"/>
<path d="M251.415 109.471L248.38 100.613L251.189 102.35L252.923 107.56L253.27 109.297L253.721 108.133L255.802 105.337L258.334 106.918L254.623 111.433L257.935 120.847L255.161 119.11L253.253 113.535L252.854 111.798L252.351 112.996L250.079 115.949L247.547 114.369L251.415 109.471Z" fill="black"/>
<path d="M260.38 108.046L262.704 109.505L262.132 123.4L259.808 121.941L260.38 108.046Z" fill="black"/>
<path d="M289.916 286.921L301.795 279.904L300.963 267.816L289.083 274.815L289.916 286.921Z" fill="black"/>
<path d="M253.443 295.815L241.564 302.815L242.396 314.921L254.276 307.921L253.443 295.815Z" fill="black"/>
<path d="M266.155 300.923L278.035 293.906L277.202 281.818L265.323 288.817L266.155 300.923Z" fill="black"/>
<path d="M264.492 276.71L252.612 283.709L253.445 295.815L265.324 288.816L264.492 276.71Z" fill="black"/>
<path d="M240.733 290.726L228.854 297.725L229.686 309.831L241.565 302.831L240.733 290.726Z" fill="black"/>
<path d="M288.25 262.712L276.371 269.712L277.203 281.818L289.083 274.818L288.25 262.712Z" fill="black"/>
</g>
</g>
<defs>
<linearGradient id="paint0_linear" x1="159.068" y1="403.813" x2="184.591" y2="342.547" gradientUnits="userSpaceOnUse">
<stop stop-color="#D0D2D4"/>
<stop offset="1" stop-color="#86898B"/>
</linearGradient>
<linearGradient id="paint1_linear" x1="157.767" y1="399.227" x2="181.604" y2="341.937" gradientUnits="userSpaceOnUse">
<stop stop-color="#B6B8BA"/>
<stop offset="1" stop-color="#6C6F71"/>
</linearGradient>
<linearGradient id="paint2_linear" x1="189.053" y1="363.153" x2="172.289" y2="382.285" gradientUnits="userSpaceOnUse">
<stop stop-color="white"/>
<stop offset="1" stop-color="#BABDBF"/>
</linearGradient>
<linearGradient id="paint3_linear" x1="7104.64" y1="6496.5" x2="7215.46" y2="6344.95" gradientUnits="userSpaceOnUse">
<stop stop-color="white"/>
<stop offset="1" stop-color="#BABDBF"/>
</linearGradient>
<linearGradient id="paint4_linear" x1="29402" y1="16629.4" x2="26447.8" y2="19566.4" gradientUnits="userSpaceOnUse">
<stop stop-color="white"/>
<stop offset="1"/>
</linearGradient>
<linearGradient id="paint5_linear" x1="31909.3" y1="34886.7" x2="36769.3" y2="33835.3" gradientUnits="userSpaceOnUse">
<stop/>
<stop offset="0.41" stop-color="white"/>
<stop offset="0.79" stop-color="white"/>
<stop offset="1"/>
</linearGradient>
<linearGradient id="paint6_linear" x1="27.0575" y1="323.084" x2="17.3254" y2="337.921" gradientUnits="userSpaceOnUse">
<stop offset="0.17" stop-color="white"/>
<stop offset="1"/>
</linearGradient>
<linearGradient id="paint7_linear" x1="60.5969" y1="350.229" x2="126.949" y2="350.229" gradientUnits="userSpaceOnUse">
<stop stop-color="#FAFFFF"/>
<stop offset="1" stop-color="#D4D7D9"/>
</linearGradient>
<linearGradient id="paint8_linear" x1="16498.8" y1="8870.61" x2="17773.1" y2="8870.61" gradientUnits="userSpaceOnUse">
<stop stop-color="#FAFFFF"/>
<stop offset="1" stop-color="#D4D7D9"/>
</linearGradient>
<linearGradient id="paint9_linear" x1="13000.7" y1="9116.55" x2="13750.3" y2="9116.55" gradientUnits="userSpaceOnUse">
<stop stop-color="#FAFFFF"/>
<stop offset="1" stop-color="#D4D7D9"/>
</linearGradient>
<linearGradient id="paint10_linear" x1="5826.76" y1="6394.48" x2="5964.27" y2="6394.48" gradientUnits="userSpaceOnUse">
<stop stop-color="#FAFFFF"/>
<stop offset="1" stop-color="#D4D7D9"/>
</linearGradient>
<linearGradient id="paint11_linear" x1="87.4081" y1="337.932" x2="101.941" y2="366.121" gradientUnits="userSpaceOnUse">
<stop stop-color="white"/>
<stop offset="1" stop-color="white"/>
</linearGradient>
</defs>
</svg>
