<svg width="128" height="128" viewBox="0 0 128 128" fill="none" xmlns="http://www.w3.org/2000/svg">
<mask id="mask0_2408_2" style="mask-type:alpha" maskUnits="userSpaceOnUse" x="0" y="0" width="128" height="128">
<g clip-path="url(#clip0_2408_2)">
<path d="M63.026 43.7328L81.3491 62.0559L81.4364 61.0961C81.4364 51.4691 73.6128 43.6455 63.9858 43.6455L63.026 43.7328Z" fill="white" fill-opacity="0.25"/>
<path d="M63.9853 32.0079C80.0399 32.0079 93.0697 45.0377 93.0697 61.0923C93.0697 64.8441 92.3136 68.4215 91.0048 71.7079L108.019 88.7223C116.802 81.393 123.725 71.9116 128 61.0923C117.908 35.5563 93.0989 17.4658 63.9856 17.4658C55.8419 17.4658 48.0475 18.9199 40.8055 21.5375L53.3699 34.0728C56.6561 32.7932 60.2335 32.0079 63.9853 32.0079Z" fill="white" fill-opacity="0.25"/>
<path d="M5.81677 16.1597L19.0792 29.4221L21.726 32.0689C12.1282 39.5726 4.53715 49.5486 0 61.0949C10.0633 86.6308 34.9012 104.721 63.9856 104.721C73.0018 104.721 81.6106 102.976 89.4926 99.806L91.9648 102.278L108.921 119.263L116.338 111.876L13.2333 8.74316L5.81677 16.1597ZM37.9842 48.2979L46.9712 57.285C46.7095 58.5357 46.535 59.7861 46.535 61.0949C46.535 70.7219 54.3586 78.5455 63.9856 78.5455C65.2943 78.5455 66.5451 78.371 67.7666 78.1092L76.7536 87.0963C72.8853 89.0158 68.5811 90.1793 63.9856 90.1793C47.931 90.1793 34.9012 77.1494 34.9012 61.0949C34.9012 56.4997 36.0646 52.1951 37.9842 48.2979Z" fill="white" fill-opacity="0.25"/>
</g>
</mask>
<g mask="url(#mask0_2408_2)">
<rect x="-68" y="2" width="165" height="100" rx="10" fill="white"/>
</g>
<defs>
<clipPath id="clip0_2408_2">
<rect width="128" height="128" fill="white"/>
</clipPath>
</defs>
</svg>
