<svg width="56" height="56" viewBox="0 0 56 56" fill="none" xmlns="http://www.w3.org/2000/svg">
<g clip-path="url(#clip0_32_42)">
<path d="M54.488 34.064C52.9704 33.2688 48.8208 34.6072 47.74 35.3016C47.3872 34.6744 46.984 33.9856 46.5472 33.28C44.324 29.6736 42.4368 27.5792 40.7792 26.8904C40.712 26.8624 40.6448 26.84 40.572 26.8232C40.432 26.7896 36.988 26 27.9944 26C19.0008 26 15.5624 26.7896 15.4168 26.8232C15.344 26.84 15.2768 26.8624 15.2096 26.8904C13.552 27.5848 11.6648 29.6736 9.4416 33.28C9.0048 33.9856 8.6072 34.6744 8.2488 35.3016C7.168 34.6072 3.024 33.2688 1.5008 34.064C-0.0671992 34.8872 0.560001 37.4688 1.5008 38.1688C2.0888 38.6056 3.696 38.74 5.3928 38.628C5.012 39.1376 4.7096 39.7144 4.5024 40.3304C7.1736 40.8288 13.4624 40.812 12.5216 42.8448C11.1496 45.824 6.916 45.4152 4.312 44.088L4.7992 52.4936C4.7992 54.4592 6.3896 56.0496 8.3552 56.0496H10.4944C12.46 56.0496 14.0504 54.4592 14.0504 52.4936L13.9832 51.7376H42.0056L41.9384 52.4936C41.9384 54.4592 43.5288 56.0496 45.4944 56.0496H47.6336C49.5992 56.0496 51.1896 54.4592 51.1896 52.4936L51.6768 44.088C49.0672 45.4152 44.8392 45.824 43.4672 42.8448C42.5264 40.8064 48.8096 40.8288 51.4864 40.3304C51.2792 39.7088 50.9824 39.1376 50.596 38.628C52.2928 38.74 53.9 38.6056 54.488 38.1688C55.4232 37.4688 56.056 34.8872 54.488 34.064ZM34.8432 47.7952H21.1568L19.7344 42.6096H36.26L34.8432 47.7952ZM10.7352 36.2424C12.4376 33.2632 14.6104 30.0824 16.1336 29.3488C16.772 29.2256 20.2496 28.6208 28 28.6208C35.7616 28.6208 39.2392 29.2256 39.8664 29.3488C41.384 30.0824 43.5624 33.2632 45.2648 36.2424H10.7352Z" fill="white"/>
<path d="M22 8.57143C22 9.82531 22.2841 11.0131 22.769 12.0882L16 18.8571C16 18.8571 16 20.0082 16 21.4286C16 22.849 17.5355 24 19.4286 24H22.8571V20.5714H26.2857V17.1429C26.2857 17.1429 30.2776 17.1429 30.5714 17.1429C35.3053 17.1429 39.1429 13.3053 39.1429 8.57143C39.1429 3.83755 35.3053 0 30.5714 0C25.8376 0 22 3.83755 22 8.57143ZM30.5714 12C28.6784 12 27.1429 10.4645 27.1429 8.57143C27.1429 6.67592 28.6784 5.14041 30.5714 5.14041C32.4645 5.14041 34 6.67592 34 8.57143C34 10.4645 32.4645 12 30.5714 12Z" fill="white"/>
</g>
<defs>
<clipPath id="clip0_32_42">
<rect width="56" height="56" fill="white"/>
</clipPath>
</defs>
</svg>
