<svg width="56" height="56" viewBox="0 0 56 56" fill="none" xmlns="http://www.w3.org/2000/svg">
<g clip-path="url(#clip0_32_75)">
<path d="M9.7048 46.1632C11.5976 46.1632 13.1376 47.7032 13.1376 49.596C13.1376 51.4888 11.5976 53.0288 9.7048 53.0288C7.812 53.0288 6.27199 51.4888 6.27199 49.596C6.27759 47.6976 7.8176 46.1632 9.7048 46.1632ZM9.7048 42.7304C5.91359 42.7304 2.84479 45.7992 2.84479 49.5904C2.84479 53.3816 5.91359 56.4504 9.7048 56.4504C13.496 56.4504 16.5648 53.3816 16.5648 49.5904C16.5648 45.8048 13.496 42.7304 9.7048 42.7304Z" fill="white"/>
<path d="M48.58 46.1632C50.4728 46.1632 52.0128 47.7032 52.0128 49.596C52.0128 51.4888 50.4728 53.0288 48.58 53.0288C46.6872 53.0288 45.1472 51.4888 45.1472 49.596C45.1528 47.6976 46.6872 46.1632 48.58 46.1632ZM48.58 42.7304C44.7888 42.7304 41.72 45.7992 41.72 49.5904C41.72 53.3816 44.7888 56.4504 48.58 56.4504C52.3712 56.4504 55.44 53.3816 55.44 49.5904C55.44 45.8048 52.3712 42.7304 48.58 42.7304Z" fill="white"/>
<path d="M14.28 40.4456C13.4568 44.0912 11.4352 47.0704 9.70477 49.5904" stroke="white" stroke-width="1.5" stroke-miterlimit="10" stroke-linecap="round" stroke-linejoin="round"/>
<path d="M38.7184 49.4952C40.7904 49.4952 40.292 47.02 45.2032 44.4664C51.4752 41.2016 55.3616 43.4528 55.3616 42.0472C55.3616 40.0088 48.44 35.8592 42.0784 39.3032C36.0024 42.5904 37.5816 49.4952 38.7184 49.4952Z" fill="white"/>
<path d="M46.8664 37.584C46.8664 36.576 46.6536 28.4112 42.5656 22.2008C41.2944 22.2008 36.9432 20.4536 36.1816 18.0792C35.9576 17.7824 41.0704 19.6248 40.824 19.328C39.536 17.76 37.9736 16.724 36.0752 15.2624C36.0752 15.2624 29.6912 16.8696 29.0416 17.1048C27.272 17.7488 28.2184 20.168 29.9768 19.7592C31.4384 19.4176 34.1096 17.508 34.1096 17.508C36.2208 21.428 38.8808 32.7008 38.0072 34.336C35.1792 39.6448 32.0544 41.0168 26.2808 41.0168C19.208 41.0168 18.6648 40.9048 21.9744 34.2912C22.7416 32.7512 22.0136 31.2952 20.2944 31.2952C19.4488 31.2952 5.7008 31.2952 5.7008 31.2952C3.9088 32.4264 0.559998 38.284 0.559998 41.0168C0.559998 46.1632 14.7728 47.8768 26.2864 47.8768C28.1176 47.8768 30.9512 47.8768 33.0064 47.8768C34.4344 47.8768 37.5368 45.2896 41.0256 42.316C44.6264 39.2472 46.8664 38.1776 46.8664 37.584Z" fill="white"/>
<path d="M44.0048 16.4328C44.0048 19.8656 43.9544 19.8656 41.0592 19.8656C37.9512 19.8656 35.4312 18.3312 35.4312 16.4328C35.4312 14.54 37.9512 13 41.0592 13C43.9264 13.0056 44.0048 13.0056 44.0048 16.4328Z" fill="white"/>
<path d="M21.14 24.4408H7.41999C6.15999 24.4408 5.13519 25.4656 5.13519 26.7256C5.13519 27.9856 6.15999 29.0104 7.41999 29.0104H21.14C22.4 29.0104 23.4248 27.9856 23.4248 26.7256C23.4248 25.46 22.4 24.4408 21.14 24.4408Z" fill="white"/>
<path d="M39.4352 38.1608L48.58 49.5904" stroke="white" stroke-width="1.5" stroke-miterlimit="10" stroke-linecap="round" stroke-linejoin="round"/>
<path d="M7.5 8.42857C7.5 9.36898 7.71306 10.2598 8.07674 11.0661L3 16.1429C3 16.1429 3 17.0061 3 18.0714C3 19.1367 4.15163 20 5.57143 20H8.14286V17.4286H10.7143V14.8571C10.7143 14.8571 13.7082 14.8571 13.9286 14.8571C17.479 14.8571 20.3571 11.979 20.3571 8.42857C20.3571 4.87816 17.479 2 13.9286 2C10.3782 2 7.5 4.87816 7.5 8.42857ZM13.9286 11C12.5088 11 11.3571 9.84837 11.3571 8.42857C11.3571 7.00694 12.5088 5.85531 13.9286 5.85531C15.3484 5.85531 16.5 7.00694 16.5 8.42857C16.5 9.84837 15.3484 11 13.9286 11Z" fill="white"/>
</g>
<defs>
<clipPath id="clip0_32_75">
<rect width="56" height="56" fill="white"/>
</clipPath>
</defs>
</svg>
