<svg width="15" height="15" viewBox="0 0 15 15" fill="none" xmlns="http://www.w3.org/2000/svg">
<g opacity="0.5" clip-path="url(#clip0)">
<path d="M14.375 7.50001C14.2222 7.49822 14.0743 7.55346 13.9601 7.65495C13.8459 7.75643 13.7737 7.89685 13.7575 8.04876C13.6546 9.2388 13.2123 10.3743 12.4833 11.3205C11.7542 12.2667 10.7689 12.9837 9.64445 13.3866C8.51996 13.7895 7.30348 13.8612 6.13944 13.5933C4.9754 13.3253 3.91269 12.729 3.0775 11.875H4.79312C4.95888 11.875 5.11785 11.8092 5.23506 11.692C5.35227 11.5747 5.41812 11.4158 5.41812 11.25C5.41812 11.0843 5.35227 10.9253 5.23506 10.8081C5.11785 10.6909 4.95888 10.625 4.79312 10.625H2.29312C1.9616 10.625 1.64366 10.7567 1.40924 10.9911C1.17482 11.2255 1.04312 11.5435 1.04312 11.875V14.375C1.04312 14.5408 1.10897 14.6997 1.22618 14.817C1.34339 14.9342 1.50236 15 1.66812 15C1.83388 15 1.99285 14.9342 2.11006 14.817C2.22727 14.6997 2.29312 14.5408 2.29312 14.375V12.8513C3.3039 13.8463 4.57657 14.5336 5.9629 14.8333C7.34923 15.133 8.79217 15.0326 10.1237 14.5439C11.4552 14.0552 12.6204 13.1983 13.4838 12.073C14.3471 10.9476 14.8729 9.60016 15 8.18751C15.0081 8.10048 14.9979 8.01271 14.9702 7.92981C14.9425 7.84691 14.8978 7.7707 14.839 7.70602C14.7802 7.64134 14.7086 7.58962 14.6287 7.55415C14.5488 7.51868 14.4624 7.50025 14.375 7.50001Z" fill="white"/>
<path d="M13.3313 -0.000446619C13.1656 -0.000446619 13.0066 0.0654014 12.8894 0.182612C12.7722 0.299822 12.7063 0.458793 12.7063 0.624553V2.1483C11.6956 1.15329 10.4229 0.46592 9.03655 0.166245C7.65022 -0.13343 6.20728 -0.0330759 4.87578 0.45562C3.54427 0.944316 2.37901 1.80124 1.5157 2.92659C0.65239 4.05194 0.126561 5.39941 -0.000544824 6.81205C-0.00861771 6.89909 0.00152753 6.98685 0.0292445 7.06975C0.0569615 7.15265 0.101642 7.22887 0.16044 7.29354C0.219238 7.35822 0.290864 7.40994 0.370754 7.44541C0.450644 7.48088 0.537046 7.49932 0.624455 7.49955C0.777216 7.50135 0.925153 7.4461 1.03935 7.34462C1.15354 7.24314 1.22579 7.10272 1.24196 6.9508C1.34486 5.76077 1.78711 4.62525 2.51617 3.67908C3.24524 2.73291 4.23051 2.01582 5.355 1.61295C6.4795 1.21009 7.69598 1.13837 8.86002 1.40631C10.0241 1.67426 11.0868 2.2706 11.922 3.12455H10.2063C10.0406 3.12455 9.8816 3.1904 9.76439 3.30761C9.64718 3.42482 9.58133 3.58379 9.58133 3.74955C9.58133 3.91531 9.64718 4.07428 9.76439 4.19149C9.8816 4.30871 10.0406 4.37455 10.2063 4.37455H12.7063C13.0379 4.37455 13.3558 4.24286 13.5902 4.00844C13.8246 3.77402 13.9563 3.45607 13.9563 3.12455V0.624553C13.9563 0.458793 13.8905 0.299822 13.7733 0.182612C13.6561 0.0654014 13.4971 -0.000446619 13.3313 -0.000446619Z" fill="white"/>
</g>
<defs>
<clipPath id="clip0">
<rect width="15" height="15" fill="white"/>
</clipPath>
</defs>
</svg>
