<svg width="15" height="15" viewBox="0 0 15 15" fill="none" xmlns="http://www.w3.org/2000/svg">
<g opacity="0.5" clip-path="url(#clip0)">
<path d="M6.5125 12.91C6.01022 12.9095 5.52123 12.7486 5.11688 12.4506L0.966254 9.40687C0.667062 9.18717 0.423786 8.90013 0.256106 8.56896C0.0884268 8.2378 0.00105286 7.87182 0.00105286 7.50062C0.00105286 7.12943 0.0884268 6.76345 0.256106 6.43228C0.423786 6.10112 0.667062 5.81408 0.966254 5.59437L5.11688 2.55062C5.4573 2.30047 5.85853 2.14609 6.27883 2.10354C6.69914 2.061 7.12316 2.13184 7.50681 2.3087C7.89046 2.48556 8.21971 2.76199 8.46033 3.10922C8.70094 3.45645 8.84413 3.8618 8.875 4.28312L11.2388 2.54937C11.5912 2.29159 12.0081 2.13641 12.4433 2.10101C12.8785 2.06561 13.315 2.15138 13.7044 2.34883C14.0939 2.54627 14.4211 2.84767 14.6497 3.21963C14.8784 3.5916 14.9996 4.01961 15 4.45625V10.5437C14.9999 10.9807 14.8787 11.4091 14.65 11.7814C14.4212 12.1536 14.0938 12.4553 13.704 12.6528C13.3142 12.8503 12.8774 12.9359 12.4419 12.9002C12.0064 12.8646 11.5893 12.7089 11.2369 12.4506L8.875 10.7169C8.8307 11.3128 8.56281 11.8699 8.12503 12.2766C7.68725 12.6834 7.11193 12.9096 6.51438 12.91H6.5125ZM8.25438 8.86312C8.38748 8.86311 8.5171 8.90559 8.62438 8.98437L11.9763 11.4425C12.1424 11.5642 12.339 11.6374 12.5442 11.6542C12.7494 11.671 12.9553 11.6306 13.139 11.5375C13.3226 11.4444 13.477 11.3023 13.5848 11.1269C13.6927 10.9515 13.7498 10.7497 13.75 10.5437V4.45625C13.7497 4.25032 13.6924 4.0485 13.5845 3.87313C13.4766 3.69776 13.3222 3.55568 13.1385 3.46263C12.9548 3.36958 12.7489 3.32919 12.5437 3.34594C12.3384 3.36268 12.1418 3.43591 11.9756 3.5575L8.625 6.01562C8.53188 6.08403 8.42162 6.12528 8.30647 6.13479C8.19132 6.1443 8.07578 6.12171 7.9727 6.06952C7.86961 6.01733 7.78301 5.93759 7.72252 5.83914C7.66202 5.7407 7.63 5.62742 7.63 5.51187V4.45625C7.62993 4.25023 7.57278 4.04826 7.4649 3.87275C7.35701 3.69724 7.20261 3.55505 7.01883 3.46196C6.83504 3.36887 6.62906 3.32851 6.42373 3.34538C6.2184 3.36224 6.02176 3.43567 5.85563 3.5575L1.70563 6.60125C1.56444 6.70475 1.44963 6.84005 1.37049 6.9962C1.29134 7.15235 1.2501 7.32494 1.2501 7.5C1.2501 7.67506 1.29134 7.84765 1.37049 8.0038C1.44963 8.15995 1.56444 8.29525 1.70563 8.39875L5.85563 11.4425C6.02176 11.5642 6.21834 11.6374 6.42357 11.6542C6.6288 11.671 6.83466 11.6306 7.01834 11.5375C7.20202 11.4444 7.35634 11.3023 7.4642 11.1269C7.57205 10.9515 7.62922 10.7497 7.62938 10.5437V9.48812C7.62938 9.32236 7.69523 9.16339 7.81244 9.04618C7.92965 8.92897 8.08862 8.86312 8.25438 8.86312Z" fill="white"/>
</g>
<defs>
<clipPath id="clip0">
<rect width="15" height="15" fill="white"/>
</clipPath>
</defs>
</svg>
