<svg width="15" height="15" viewBox="0 0 15 15" fill="none" xmlns="http://www.w3.org/2000/svg">
<g opacity="0.5" clip-path="url(#clip0)">
<path d="M8.4875 12.91C8.98978 12.9095 9.47877 12.7486 9.88312 12.4506L14.0337 9.40687C14.3329 9.18717 14.5762 8.90013 14.7439 8.56896C14.9116 8.2378 14.9989 7.87182 14.9989 7.50062C14.9989 7.12943 14.9116 6.76345 14.7439 6.43228C14.5762 6.10112 14.3329 5.81408 14.0337 5.59437L9.88312 2.55062C9.5427 2.30047 9.14147 2.14609 8.72117 2.10354C8.30086 2.061 7.87684 2.13184 7.49319 2.3087C7.10954 2.48556 6.78029 2.76199 6.53967 3.10922C6.29906 3.45645 6.15587 3.8618 6.125 4.28312L3.76125 2.54937C3.40883 2.29159 2.99192 2.13641 2.55672 2.10101C2.12152 2.06561 1.68502 2.15138 1.29557 2.34883C0.906129 2.54627 0.578944 2.84767 0.35027 3.21963C0.121596 3.5916 0.000360489 4.01961 -3.8147e-06 4.45625V10.5437C0.000107765 10.9807 0.121267 11.4091 0.350035 11.7814C0.578803 12.1536 0.906233 12.4553 1.296 12.6528C1.68577 12.8503 2.12263 12.9359 2.55812 12.9002C2.99361 12.8646 3.4107 12.7089 3.76312 12.4506L6.125 10.7169C6.1693 11.3128 6.43719 11.8699 6.87497 12.2766C7.31275 12.6834 7.88807 12.9096 8.48562 12.91H8.4875ZM6.74562 8.86312C6.61252 8.86311 6.4829 8.90559 6.37562 8.98437L3.02375 11.4425C2.85761 11.5642 2.66104 11.6374 2.45581 11.6542C2.25058 11.671 2.04471 11.6306 1.86103 11.5375C1.67735 11.4444 1.52303 11.3023 1.41518 11.1269C1.30733 10.9515 1.25015 10.7497 1.25 10.5437V4.45625C1.2503 4.25032 1.30758 4.0485 1.41552 3.87313C1.52345 3.69776 1.67781 3.55568 1.86152 3.46263C2.04522 3.36958 2.25109 3.32919 2.45633 3.34594C2.66158 3.36268 2.85818 3.43591 3.02437 3.5575L6.375 6.01562C6.46812 6.08403 6.57838 6.12528 6.69353 6.13479C6.80868 6.1443 6.92422 6.12171 7.0273 6.06952C7.13039 6.01733 7.21699 5.93759 7.27748 5.83914C7.33798 5.7407 7.37 5.62742 7.37 5.51187V4.45625C7.37007 4.25023 7.42722 4.04826 7.5351 3.87275C7.64299 3.69724 7.79739 3.55505 7.98117 3.46196C8.16496 3.36887 8.37094 3.32851 8.57627 3.34538C8.7816 3.36224 8.97824 3.43567 9.14437 3.5575L13.2944 6.60125C13.4356 6.70475 13.5504 6.84005 13.6295 6.9962C13.7087 7.15235 13.7499 7.32494 13.7499 7.5C13.7499 7.67506 13.7087 7.84765 13.6295 8.0038C13.5504 8.15995 13.4356 8.29525 13.2944 8.39875L9.14437 11.4425C8.97824 11.5642 8.78166 11.6374 8.57643 11.6542C8.3712 11.671 8.16534 11.6306 7.98166 11.5375C7.79798 11.4444 7.64366 11.3023 7.5358 11.1269C7.42795 10.9515 7.37078 10.7497 7.37062 10.5437V9.48812C7.37062 9.32236 7.30477 9.16339 7.18756 9.04618C7.07035 8.92897 6.91138 8.86312 6.74562 8.86312Z" fill="white"/>
</g>
<defs>
<clipPath id="clip0">
<rect width="15" height="15" fill="white" transform="matrix(-1 0 0 1 15 0)"/>
</clipPath>
</defs>
</svg>
