<svg width="12" height="16" viewBox="0 0 12 16" fill="none" xmlns="http://www.w3.org/2000/svg">
<path d="M0.76963 0.0421505C0.378558 0.167359 0.134529 0.480381 0.0344144 0.987476C0.00938574 1.10329 0 3.26941 0 8.01481C0.00312858 13.6179 0.00938574 14.9107 0.0438001 15.0703C0.1314 15.4773 0.341015 15.7778 0.641359 15.9249C0.76963 15.9875 0.844716 16 1.06372 16C1.36406 16 1.57055 15.9468 1.8834 15.7871C2.20878 15.6244 11.2441 9.42654 11.4537 9.22621C11.6633 9.02275 11.8636 8.72224 11.9418 8.49687C12.0263 8.25271 12.0169 7.70492 11.9261 7.47016C11.8292 7.226 11.6884 7.01941 11.4662 6.80029C11.3348 6.66569 9.97391 5.71724 6.82343 3.56052C4.37375 1.88272 2.24006 0.430298 2.08051 0.333261C1.58932 0.0390205 1.11065 -0.0674076 0.76963 0.0421505Z" fill="white"/>
</svg>
