<svg width="25" height="25" viewBox="0 0 25 25" fill="none" xmlns="http://www.w3.org/2000/svg">
<g clip-path="url(#clip0)">
<path d="M14.069 7.74097L10.8789 7.74097L10.8789 12.5521L14.069 12.5521C15.3955 12.5521 16.4747 11.473 16.4747 10.1465C16.4746 8.80088 15.3838 7.74097 14.069 7.74097Z" fill="#66B564"/>
<path d="M12.5 1.5964e-07C5.60747 7.16142e-08 -7.16142e-08 5.60747 -1.5964e-07 12.5C-2.47666e-07 19.3925 5.60747 25 12.5 25C19.3925 25 25 19.3925 25 12.5C25 5.60747 19.3925 2.47666e-07 12.5 1.5964e-07ZM14.069 14.0169L10.8789 14.0169L10.8789 15.6901L14.069 15.6901C14.4735 15.6901 14.8015 16.018 14.8015 16.4225C14.8015 16.827 14.4735 17.1549 14.069 17.1549L10.8789 17.1549L10.8789 18.776C10.8789 19.1805 10.551 19.5084 10.1465 19.5084C9.74199 19.5084 9.41406 19.1805 9.41406 18.776L9.41406 17.1549L8.57749 17.1549C8.173 17.1549 7.84507 16.827 7.84507 16.4225C7.84507 16.018 8.173 15.6901 8.57749 15.6901L9.41406 15.6901L9.41406 14.0169L8.57749 14.0169C8.173 14.0169 7.84507 13.689 7.84507 13.2845C7.84507 12.88 8.173 12.5521 8.57749 12.5521L9.41406 12.5521L9.41406 7.00845C9.41406 6.60396 9.74199 6.27603 10.1465 6.27603L14.069 6.27603C16.1582 6.27603 17.9395 7.95957 17.9395 10.1465C17.9395 12.2807 16.2032 14.0169 14.069 14.0169Z" fill="#66B564"/>
</g>
<defs>
<clipPath id="clip0">
<rect width="25" height="25" fill="white"/>
</clipPath>
</defs>
</svg>
