<svg width="56" height="56" viewBox="0 0 56 56" fill="none" xmlns="http://www.w3.org/2000/svg">
<path d="M32.508 4.47924C32.2676 4.10812 32.1904 3.85733 32.1904 3.85733L32.305 3.75192C32.305 3.75192 32.5278 3.84452 32.9172 4.00411C33.101 4.07744 33.3261 4.16746 33.584 4.269C33.8381 4.36102 34.1146 4.46831 34.411 4.54024C34.557 4.58548 34.7056 4.63049 34.8592 4.64777C34.9366 4.65799 35.0103 4.67926 35.0869 4.69336C35.1628 4.69853 35.2389 4.701 35.3146 4.71064C35.6208 4.75177 35.9022 4.71851 36.2108 4.70241C36.354 4.64976 36.5131 4.63496 36.6688 4.56797C36.8115 4.48371 36.998 4.43482 37.1304 4.32682C37.2006 4.27864 37.2734 4.22846 37.3516 4.17886C37.4327 4.13327 37.5189 4.09719 37.6051 4.004L38.1504 3.54614C38.1555 3.53909 38.1185 3.59303 38.1363 3.56788L38.14 3.564L38.1493 3.55578L38.1673 3.54038L38.2031 3.5083L38.2751 3.44402L38.4181 3.31862L38.688 3.06267C38.8577 2.8878 39.0712 2.75148 39.2424 2.58295C39.4109 2.40856 39.6373 2.30185 39.8175 2.13274C40.0102 1.9809 40.2355 1.86714 40.4528 1.71989C40.9094 1.50507 41.4429 1.34559 41.9206 1.41258C42.0404 1.42539 42.1567 1.44408 42.2712 1.46523C42.3819 1.49602 42.4859 1.5341 42.5888 1.57264C42.7997 1.64221 42.9812 1.74175 43.1523 1.84012C43.4942 2.03766 43.7659 2.26647 43.9831 2.48776C44.199 2.70964 44.3613 2.92576 44.4781 3.11414C44.6005 3.29853 44.6713 3.46141 44.7211 3.5727C44.7623 3.68716 44.7841 3.74886 44.7841 3.74886L44.6696 3.85557C44.6696 3.85557 44.4241 3.7726 44.0471 3.61501C43.8634 3.54179 43.6406 3.44989 43.3849 3.34695C43.138 3.24529 42.8664 3.13341 42.5795 3.03634C42.4368 2.98358 42.289 2.92893 42.1398 2.89285C42.064 2.87428 41.9895 2.84455 41.9133 2.82281C41.8374 2.80742 41.7617 2.78802 41.6856 2.76299C41.3776 2.66263 41.0593 2.56368 40.6653 2.52255C40.4843 2.54641 40.2682 2.53865 40.0799 2.61715C39.8988 2.70905 39.6908 2.7798 39.5454 2.94315C39.3989 3.10063 39.2317 3.23836 39.1289 3.43896L38.9796 3.73793L38.9109 3.88847L38.8776 3.9631L38.8611 4.00164L38.8529 4.01892L38.849 4.02797L38.8464 4.03373C38.8612 4.01187 38.8234 4.06851 38.826 4.06522L38.5321 4.71346C38.4356 4.92253 38.2143 5.1585 38.0337 5.36616C37.8503 5.5925 37.6048 5.72248 37.3863 5.89993C37.1574 6.0607 36.8781 6.1533 36.6224 6.26965C36.0782 6.42513 35.5096 6.45298 35.0312 6.325C34.7868 6.27106 34.562 6.20019 34.3639 6.09736C34.1565 6.00981 33.9777 5.90064 33.8092 5.7951C33.4743 5.57335 33.2088 5.33854 32.999 5.10832C32.7847 4.88562 32.6259 4.66575 32.508 4.47924ZM56 41.2528V54.6029H0V41.2528H3.81455V26.2561L14.564 18.7141V26.2561L25.3119 18.7141V26.2561L36.0619 18.7141V33.5383H39.7708L41.7851 7.31522H47.9329L49.6959 33.5383H53.8321V41.2538H55.9999V41.2528H56ZM17.5544 35.4879H9.10315V43.2896H17.5544V35.4879ZM32.1172 35.4879H23.6657V43.2896H32.1172V35.4879ZM46.8629 35.4879H38.4116V43.2896H46.8629V35.4879Z" fill="white"/>
</svg>
