<svg width="25" height="25" viewBox="0 0 25 25" fill="none" xmlns="http://www.w3.org/2000/svg">
<g clip-path="url(#clip0)">
<path d="M10.239 20.4882C12.347 20.4882 14.2944 19.8458 15.9206 18.7617L21.803 24.6441C22.265 25.1058 23.0279 25.1058 23.5095 24.6441L24.6539 23.4997C25.1156 23.0379 25.1156 22.275 24.6539 21.7932L18.7514 15.9309C19.8353 14.3047 20.478 12.3573 20.478 10.2492C20.478 4.60776 15.8805 0.0102539 10.239 0.0102539C4.59751 0.0102539 0 4.60776 0 10.2492C0 15.8905 4.57743 20.4882 10.239 20.4882ZM10.239 4.02554C13.6721 4.02554 16.4627 6.81617 16.4627 10.2492C16.4627 13.6823 13.6721 16.4729 10.239 16.4729C6.80592 16.4729 4.01529 13.6823 4.01529 10.2492C4.01529 6.81617 6.80592 4.02554 10.239 4.02554Z" fill="black"/>
</g>
<defs>
<clipPath id="clip0">
<rect width="25" height="25" fill="white"/>
</clipPath>
</defs>
</svg>
