<svg width="103" height="103" viewBox="0 0 103 103" fill="none" xmlns="http://www.w3.org/2000/svg">
<mask id="mask0_1082_55" style="mask-type:alpha" maskUnits="userSpaceOnUse" x="0" y="0" width="103" height="103">
<path d="M100.561 88.0974L76.8804 64.4153C80.9039 58.0098 83.239 50.439 83.239 42.314C83.239 19.3273 64.6045 0.695312 41.6186 0.695312C18.6328 0.695312 0 19.3273 0 42.314C0 65.3015 18.632 83.9317 41.6186 83.9317C50.4607 83.9317 58.6508 81.1674 65.3901 76.4701L88.7887 99.8704C90.4145 101.495 92.5459 102.304 94.6747 102.304C96.8061 102.304 98.9349 101.495 100.563 99.8704C103.812 96.6178 103.812 91.3492 100.561 88.0974ZM41.6186 70.4479C26.0823 70.4479 13.4864 57.8529 13.4864 42.3157C13.4864 26.7785 26.0823 14.1826 41.6186 14.1826C57.1558 14.1826 69.7509 26.7785 69.7509 42.3157C69.7509 57.8529 57.1558 70.4479 41.6186 70.4479Z" fill="black"/>
</mask>
<g mask="url(#mask0_1082_55)">
<rect x="-82" y="-11" width="165" height="100" rx="10" fill="white" fill-opacity="0.15"/>
</g>
</svg>
