<svg width="16" height="16" viewBox="0 0 16 16" fill="none" xmlns="http://www.w3.org/2000/svg">
<g clip-path="url(#clip0)">
<path d="M10.6855 1.8311C8.24464 -0.609717 4.27202 -0.609717 1.8312 1.8311C-0.609097 4.27245 -0.609097 8.24454 1.8312 10.6859C4.00481 12.859 7.39011 13.0918 9.82934 11.3949C9.88067 11.6378 9.99813 11.8695 10.187 12.0584L13.7416 15.613C14.2597 16.13 15.0967 16.13 15.6121 15.613C16.1296 15.0956 16.1296 14.2585 15.6121 13.7426L12.0575 10.1869C11.8696 9.99963 11.6373 9.88163 11.3945 9.83031C13.0924 7.39055 12.8596 4.00578 10.6855 1.8311ZM9.5632 9.56363C7.74092 11.3859 4.77521 11.3859 2.95346 9.56363C1.13223 7.74135 1.13223 4.77618 2.95346 2.95389C4.77521 1.13214 7.74092 1.13214 9.5632 2.95389C11.3855 4.77618 11.3855 7.74135 9.5632 9.56363Z" fill="#4C5A5D"/>
</g>
<defs>
<clipPath id="clip0">
<rect width="16" height="16" fill="white"/>
</clipPath>
</defs>
</svg>
