<svg width="19" height="19" viewBox="0 0 19 19" fill="none" xmlns="http://www.w3.org/2000/svg">
<path d="M18.4718 16.2598L14.2678 12.0555C14.9821 10.9183 15.3967 9.57421 15.3967 8.13177C15.3967 4.05092 12.0884 0.743164 8.00775 0.743164C3.92705 0.743164 0.619141 4.05092 0.619141 8.13177C0.619141 12.2128 3.9269 15.5202 8.00775 15.5202C9.5775 15.5202 11.0315 15.0295 12.2279 14.1956L16.3819 18.3498C16.6705 18.6382 17.0489 18.7818 17.4269 18.7818C17.8052 18.7818 18.1832 18.6382 18.4723 18.3498C19.0491 17.7724 19.0491 16.837 18.4718 16.2598ZM8.00775 13.1264C5.24957 13.1264 3.0134 10.8904 3.0134 8.13208C3.0134 5.37374 5.24957 3.13758 8.00775 3.13758C10.7661 3.13758 13.0021 5.37374 13.0021 8.13208C13.0021 10.8904 10.7661 13.1264 8.00775 13.1264Z" fill="black" fill-opacity="0.5"/>
</svg>
