<svg width="56" height="56" viewBox="0 0 56 56" fill="none" xmlns="http://www.w3.org/2000/svg">
<path d="M21.7555 0.834408C21.1904 1.27849 20.9485 2.08545 20.8679 3.73969C20.8275 4.73481 20.8813 5.67673 21.0291 6.60465C21.1501 7.35785 21.2442 8.01697 21.2442 8.08417C21.2442 8.13793 20.7732 8.11105 20.2087 8.00353C18.6083 7.70785 15.8239 7.70785 14.9767 8.00353C13.6853 8.44761 13.309 9.34865 13.9138 10.5862C14.2907 11.3394 15.8643 12.9534 17.2497 13.9894C17.8954 14.4738 18.4201 14.877 18.4201 14.8904C18.4201 14.9038 17.8819 15.3076 17.2363 15.8049C15.7164 16.935 14.0756 18.6698 13.7794 19.4499C13.3353 20.5934 13.8197 21.4676 15.0976 21.8439C15.8508 22.0724 19.012 22.0321 20.2759 21.7902C20.8007 21.6826 21.2442 21.6289 21.2442 21.6692C21.2442 21.7095 21.1501 22.288 21.0426 22.9606C20.7872 24.5207 20.7872 26.9556 21.0291 27.8029C21.3248 28.7442 21.8227 29.2152 22.549 29.2152C22.885 29.2152 23.3828 29.0942 23.7059 28.933C24.4726 28.5298 25.9387 27.104 26.9881 25.7186C27.4591 25.0863 27.9026 24.575 27.9698 24.575C28.0235 24.575 28.4542 25.0863 28.9111 25.7186C31.0229 28.5701 33.1615 29.9018 34.1835 29.0002C35.0308 28.247 35.327 25.8933 34.9098 23.1762C34.7889 22.4095 34.7217 21.7504 34.7486 21.7235C34.7754 21.6966 35.4883 21.7638 36.3222 21.8982C38.1651 22.167 40.2769 22.0998 41.0838 21.7638C42.9134 20.9838 42.7246 19.5446 40.5054 17.379C39.8597 16.7468 38.9183 15.9667 38.4339 15.6307C37.9361 15.2947 37.5463 14.985 37.5598 14.9447C37.5732 14.891 38.0979 14.4738 38.7167 14.0168C40.8285 12.4566 42.3618 10.6002 42.3618 9.61857C42.3618 9.08041 41.9714 8.51593 41.407 8.23313C40.3844 7.70841 37.8022 7.64121 35.4217 8.08529C35.0582 8.15249 34.7491 8.19281 34.7357 8.17937C34.7222 8.16593 34.8029 7.58745 34.9104 6.88801C35.0448 6.04073 35.0986 5.01817 35.0717 3.86177C35.0179 1.97849 34.7894 1.23873 34.1303 0.781769C33.0546 0.0151272 31.0906 1.27961 28.9923 4.06393L27.9838 5.39561L27.1231 4.22521C26.0742 2.81289 24.4866 1.25273 23.7065 0.848969C22.9925 0.484968 22.199 0.484968 21.7555 0.834408ZM29.6638 11.662C30.9282 12.2808 31.6008 13.4103 31.6008 14.9307C31.6008 18.8042 26.3822 20.0015 24.6736 16.5178C24.2564 15.6705 24.1892 14.3522 24.5258 13.5587C25.3736 11.5142 27.6467 10.6803 29.6638 11.662Z" fill="white"/>
<path d="M27.2295 28.7846C26.866 29.1883 26.2747 29.7399 25.9247 30.0087L25.279 30.4797V36.5456V42.5981L19.3609 36.68L13.4428 30.7619L12.9181 31.3673C12.0708 32.3355 11.1967 33.8828 10.7257 35.2677C10.3085 36.5053 10.2816 36.6262 10.2816 38.6977C10.2816 41.0782 10.4698 41.9798 11.3176 43.6744C12.2993 45.598 13.9407 47.4001 15.6755 48.4226C18.1905 49.9156 21.6877 50.3731 24.4317 49.593C24.808 49.4855 25.158 49.3914 25.1983 49.3914C25.2387 49.3914 25.279 50.279 25.279 51.3688C25.279 53.0096 25.3327 53.4537 25.5343 53.8972C26.4892 55.9552 29.4482 55.9552 30.4036 53.8972C30.6052 53.4537 30.6589 53.0096 30.6589 51.3688C30.6589 50.279 30.6992 49.3914 30.7396 49.3914C30.7799 49.3914 31.1299 49.4855 31.5062 49.593C33.4836 50.1581 36.026 50.0774 38.0834 49.3914C39.6973 48.8533 40.9618 48.0866 42.186 46.9168C43.8945 45.3163 44.9434 43.4734 45.4681 41.2272C45.71 40.1649 45.7504 39.6939 45.6966 38.2547C45.6428 36.8021 45.5622 36.358 45.1988 35.2688C44.7412 33.8968 43.8671 32.3501 43.0198 31.3684L42.4951 30.763L36.5776 36.68L30.6595 42.5981V36.5047C30.6595 32.6984 30.6057 30.4254 30.5251 30.4254C30.4579 30.4254 29.8391 29.8872 29.1531 29.2281L27.902 28.0448L27.2295 28.7846Z" fill="white"/>
</svg>
