<svg width="100" height="100" viewBox="0 0 100 100" fill="none" xmlns="http://www.w3.org/2000/svg">
<circle cx="50" cy="50" r="50" fill="url(#paint0_linear_856_400)" fill-opacity="0.1"/>
<circle cx="50" cy="50" r="28" fill="white" fill-opacity="0.1"/>
<g clip-path="url(#clip0_856_400)">
<path d="M54.9454 28.3624C54.9454 26.8008 53.6749 25.5303 52.1132 25.5303H47.8871C46.3254 25.5303 45.0549 26.8008 45.0549 28.3624V32.5967H54.9454V28.3624Z" fill="white"/>
<path d="M50.4147 43.249L66.8314 47.5385V36.9522C66.8314 36.3598 66.3495 35.8779 65.7571 35.8779H34.243C33.6506 35.8779 33.1687 36.3598 33.1687 36.9522V47.5385L49.5853 43.249C49.8571 43.1781 50.1428 43.1781 50.4147 43.249Z" fill="white"/>
<path d="M76.3595 71.1891C74.5488 71.1891 73.732 70.7823 72.6977 70.2673C72.2122 70.0256 71.7002 69.7706 71.0893 69.5535C70.2411 69.2519 69.2016 69.0232 67.7772 69.0032L73.7841 53.8818C73.9171 53.5227 73.8107 53.2238 73.7349 53.0769C73.6586 52.9288 73.4745 52.6658 73.099 52.5676L50.0001 46.5322L26.9013 52.5676C26.5257 52.6658 26.3417 52.9288 26.2654 53.0769C26.1896 53.2239 26.0832 53.5232 26.2165 53.8823L32.21 69.0034C30.7861 69.0249 29.7477 69.255 28.9001 69.5576C28.2942 69.7739 27.7855 70.0271 27.3031 70.2674C26.2687 70.7823 25.4518 71.1892 23.6409 71.1892C22.7348 71.1892 22.0002 71.9238 22.0002 72.8298C22.0002 73.7359 22.7348 74.4704 23.6409 74.4704C26.2234 74.4704 27.574 73.798 28.7655 73.2048C29.2298 72.9736 29.6508 72.7647 30.137 72.6042C30.7341 72.407 31.4296 72.2831 32.4277 72.2831C32.6556 72.2831 32.8675 72.2895 33.0664 72.3019C34.4476 72.3872 35.1857 72.7547 36.0899 73.2049C37.2815 73.7981 38.632 74.4706 41.2146 74.4706C43.797 74.4706 45.1475 73.7981 46.3391 73.2049C47.3734 72.6899 48.1903 72.2831 50.001 72.2831C51.8117 72.2831 52.6285 72.6898 53.6628 73.2049C54.8543 73.7981 56.2048 74.4706 58.7872 74.4706C61.3697 74.4706 62.7201 73.7981 63.9117 73.2049C64.8187 72.7533 65.5588 72.385 66.9483 72.3011C67.1432 72.2894 67.3507 72.2831 67.5735 72.2831C68.5607 72.2831 69.2518 72.4046 69.8444 72.5981C70.3387 72.7594 70.765 72.9707 71.2353 73.2049C72.4268 73.7981 73.7773 74.4706 76.3597 74.4706C77.2658 74.4706 78.0004 73.736 78.0004 72.8299C78.0004 71.9239 77.2656 71.1891 76.3595 71.1891ZM34.8323 54.9283L49.5854 51.0735C49.8573 51.0025 50.143 51.0025 50.4149 51.0735L65.1679 54.9283C66.0446 55.1573 66.5696 56.0538 66.3405 56.9304C66.1478 57.668 65.4826 58.1567 64.7544 58.1567C64.6171 58.1567 64.4776 58.1393 64.3385 58.103L50.0001 54.3566L35.6618 58.103C34.7852 58.332 33.8888 57.807 33.6597 56.9304C33.4307 56.0538 33.9557 55.1573 34.8323 54.9283Z" fill="white"/>
</g>
<defs>
<linearGradient id="paint0_linear_856_400" x1="50" y1="0" x2="50" y2="100" gradientUnits="userSpaceOnUse">
<stop stop-color="white"/>
<stop offset="1" stop-color="white" stop-opacity="0"/>
</linearGradient>
<clipPath id="clip0_856_400">
<rect width="56" height="56" fill="white" transform="translate(22 22)"/>
</clipPath>
</defs>
</svg>
