<svg width="25" height="25" viewBox="0 0 25 25" fill="none" xmlns="http://www.w3.org/2000/svg">
<g clip-path="url(#clip0)">
<path d="M12.5178 0H12.4821C8.16467 0 4.65228 3.51122 4.65228 7.82703C4.65228 10.656 5.94066 14.3896 8.4816 18.9243C10.3655 22.2861 12.2757 24.861 12.2948 24.8865C12.348 24.958 12.4318 25.0001 12.5206 25.0001C12.5231 25.0001 12.5257 25.0001 12.5283 24.9999C12.6199 24.9974 12.7044 24.9505 12.7553 24.8742C12.7741 24.8456 14.6708 21.9815 16.5418 18.4783C19.0673 13.75 20.3478 10.1663 20.3478 7.82703C20.3476 3.51116 16.8351 0 12.5178 0ZM16.132 8.0183C16.132 10.0211 14.5027 11.6503 12.4999 11.6503C10.4972 11.6503 8.8679 10.021 8.8679 8.0183C8.8679 6.0156 10.4972 4.3863 12.4999 4.3863C14.5027 4.3863 16.132 6.0156 16.132 8.0183Z" fill="#FF3737"/>
<path d="M7.80584 6.10382L11.2979 3.40405H13.4695C13.851 3.40405 14.702 3.66816 15.2595 4.0203C15.8171 4.37245 15.9932 5.13542 16.6094 6.27989C17.2257 7.42435 17.2844 8.24602 17.4604 9.94804C17.6365 11.6501 16.8442 11.1805 15.7584 12.4717C14.6726 13.7629 14.1738 13.0586 10.535 12.7358C6.89614 12.413 8.12864 11.2392 7.80584 10.7404C7.54761 10.3413 7.69825 7.48304 7.80584 6.10382Z" fill="#FF3737"/>
</g>
<defs>
<clipPath id="clip0">
<rect width="25" height="25" fill="white"/>
</clipPath>
</defs>
</svg>
