<svg width="181" height="171" viewBox="0 0 181 171" fill="none" xmlns="http://www.w3.org/2000/svg">
<path d="M175.174 113.7C168.257 111.102 163.462 109.015 160.754 107.423C155.868 104.715 152.628 99.353 151.073 91.3559C149.774 84.713 150.652 78.4727 153.672 72.6899C156.691 66.8888 161.394 62.9543 167.744 60.8681L167.47 59.4407C172.246 57.9218 176.309 56.5859 179.676 55.3964V54.5912L157.935 60.4472C157.02 60.7766 154.861 60.557 151.476 59.8067C146.461 58.6721 141.96 55.982 137.97 51.7547C133.981 47.5457 131.492 42.8426 130.485 37.7003C129.223 31.1855 130.284 25.421 133.67 20.3885L132.736 19.931C135.408 15.3743 137.714 11.4581 139.617 8.14583H138.281C135.774 11.9522 133.706 15.1547 132.096 17.7167C129.9 20.9558 128.289 23.4629 127.21 25.2197C124.575 28.4039 120.219 30.5999 114.125 31.7711C102.596 34.022 92.9704 30.8927 85.2661 22.3832C83.2532 19.9676 82.0453 18.1559 81.6793 16.9664C80.2885 10.232 79.1173 4.79693 78.1474 0.661133H77.1776C77.7814 4.96163 78.3121 8.40203 78.8246 10.9823L77.7998 11.1836C78.9709 18.7049 77.507 25.5491 73.3528 31.6979C69.1987 37.8467 63.3977 41.6531 55.9313 43.1171C48.7394 44.5079 42.0233 42.9341 35.783 38.3774L35.7464 38.1761L35.2157 38.7068C30.2381 35.1383 26.1206 32.192 22.8266 29.9045H21.3077C24.5834 32.4665 27.8591 35.0285 31.1714 37.5905C38.4914 43.355 42.6821 49.0097 43.7618 54.5729C45.2075 62.0393 43.7252 69.0848 39.3149 75.7094C34.9046 82.334 29.0303 86.3783 21.7103 87.7874C20.6306 88.007 19.4594 88.1534 18.215 88.2449L17.7392 87.9155C17.5562 88.5194 17.4098 88.8305 17.2817 88.8488L0.829956 91.0997V92.4722C6.75916 91.8866 11.6819 91.3559 15.6347 90.8618L23.0828 90.0566C28.7009 90.6422 33.4589 93.0395 37.3568 97.1936C41.2547 101.366 43.7618 106.307 44.8781 111.998C46.4336 119.995 45.4271 126.382 41.8586 131.177C38.9489 134.288 36.6431 136.63 34.9778 138.204C31.8485 141.15 28.7375 144.078 25.6814 147.006H28.4813C31.8302 143.785 34.6484 141.004 36.9542 138.661L37.1921 138.826C41.2913 135.349 45.5918 133.19 50.0753 132.311C57.5234 130.866 64.4773 132.348 70.9007 136.813C77.3239 141.26 81.2767 147.226 82.7225 154.674C83.1799 156.98 83.0335 161.372 82.3382 167.85L82.0453 170.32H82.9969C83.7106 165.782 84.2413 161.994 84.6073 158.956C87.4987 149.239 94.4527 143.31 105.433 141.169C112.222 139.851 118.041 140.491 122.909 143.053C126.533 145.012 130.193 148.617 133.871 153.814C135.042 155.552 136.195 157.291 137.348 159.029H138.775L138.007 157.657C134.566 151.563 132.7 147.775 132.425 146.293C130.888 138.424 132.132 131.177 136.122 124.552C140.111 117.946 145.967 113.865 153.708 112.364C157.917 111.541 162.712 111.943 168.092 113.572L168.513 112.438C173.124 114.121 177.022 115.53 180.17 116.665V115.603C178.633 115.018 176.967 114.377 175.174 113.7ZM157.716 62.4053C157.167 62.5151 158.1 62.5517 160.479 62.4968C150.579 69.4874 146.827 79.1681 149.225 91.5023C150.249 96.8093 152.574 101.494 156.179 105.575L149.316 102.885L149.243 102.482C142.106 99.7922 137.805 94.7048 136.36 87.2567C133.779 73.9526 140.898 65.6627 157.716 62.4053ZM59.5546 101.75C58.1638 94.5584 54.3392 89.7455 48.0806 87.2933C58.2371 85.1888 64.1846 88.6109 65.923 97.5596C66.9296 102.72 65.4655 107.149 61.5493 110.864L61.8238 111.23L58.2737 114.67C59.9572 110.26 60.3782 105.959 59.5546 101.75ZM59.0423 62.1491C58.7312 60.5204 58.2005 58.8551 57.4501 57.1898C61.8787 60.4106 64.4407 63.7778 65.1179 67.3097C65.9413 71.5004 65.008 75.38 62.2996 78.9302C59.6096 82.4804 56.1692 84.3104 51.9602 84.4202L51.8321 84.8594L47.495 85.3169C51.8321 83.066 55.0895 79.8269 57.2123 75.5996C59.3534 71.3906 59.9573 66.9071 59.0423 62.1491ZM119.487 48.296C120.402 53.0357 122.635 57.0434 126.148 60.3008C129.662 63.5582 133.834 65.5529 138.611 66.3215L126.844 69.8717C124.044 70.6952 121.226 69.7985 118.407 67.1816C115.571 64.5647 113.887 61.838 113.32 58.9649C112.661 55.5794 113.229 52.322 115.004 49.1561L114.967 48.9548L119.139 42.2204C118.92 43.9589 119.03 45.9902 119.487 48.296ZM121.244 85.5365C121.83 88.5377 123.019 91.0448 124.812 93.0761L116.614 90.02L117.017 88.8854L116.815 88.922C114.089 87.9155 112.46 86.0306 111.929 83.3222C110.868 77.9054 114.949 74.282 124.172 72.4886L124.995 72.3239C121.5 75.9839 120.237 80.3942 121.244 85.5365ZM77.8729 90.5873C77.2873 87.6044 75.9514 85.4084 73.8469 83.981L80.8009 82.8281L81.1669 83.5967L81.4048 83.7614C83.1982 83.5418 84.2962 84.53 84.7171 86.7077C84.9184 87.7874 84.0949 89.3612 82.2467 91.4108C80.6545 92.7101 79.154 93.9911 77.7083 95.2538C78.1108 93.6434 78.1657 92.0879 77.8729 90.5873ZM67.1125 97.1204C66.0878 91.8317 63.3062 88.0802 58.7861 85.8476L59.3899 85.7378C63.7271 84.896 67.6432 84.4202 71.1385 84.2921C74.2861 85.9391 76.1161 88.1717 76.6834 91.0265C77.1776 93.6068 76.0612 96.4982 73.298 99.7007C70.919 102.007 68.5583 104.349 66.2159 106.783C67.4236 103.471 67.7165 100.25 67.1125 97.1204ZM66.9478 66.962C66.8197 66.2849 66.4355 65.0954 65.8316 63.3752C69.7661 66.2666 72.7307 68.4443 74.7071 69.89L75.2743 71.6834C75.7135 73.9892 75.311 76.1852 74.03 78.2714C72.7489 80.3576 71.0105 81.602 68.8511 82.0229H67.7896V83.0843L59.4814 83.8529C65.8865 79.9001 68.3752 74.2637 66.9478 66.962ZM110.282 83.4503C110.648 85.3535 111.472 87.0188 112.734 88.4645L112.533 88.5011C110.593 87.8972 108.69 87.2201 106.86 86.4332C104.39 85.3535 103.072 84.2921 102.852 83.1941C102.486 81.2909 103.145 79.9733 104.829 79.223C104.811 79.0766 104.756 78.8936 104.701 78.6008L104.573 77.9969L111.819 76.1669C110.264 78.308 109.752 80.7236 110.282 83.4503ZM94.6723 82.4804L101.846 85.7195C100.382 86.1587 99.3023 87.1286 98.6252 88.6658L94.6723 82.4804ZM98.2042 90.8618C96.8866 90.5507 95.8069 90.4775 94.9834 90.6422C93.7757 90.8801 92.8057 91.4108 92.1286 92.2526C92.4763 88.2449 92.6411 84.7496 92.6227 81.8033L93.3182 81.0347L98.1127 90.4409L98.2042 90.8618ZM100.931 83.1575L101.334 84.1457C98.186 83.2124 95.8618 82.4621 94.3429 81.9131L93.5012 80.8151C95.5691 80.5589 98.003 80.0099 100.785 79.1864L101.883 79.3877C101.004 80.6687 100.693 81.9314 100.931 83.1575ZM94.8371 80.1197L97.7833 75.746C98.5885 76.9904 99.2473 77.8505 99.7597 78.308L94.8371 80.1197ZM100.711 76.6427C100.016 75.929 99.6133 75.3068 99.5035 74.7578C99.3205 73.8062 99.8878 72.3605 101.187 70.4207C102.066 69.1214 102.999 67.8221 104.005 66.4862C104.079 68.2979 104.902 69.9998 106.476 71.5919C108.05 73.2023 109.715 74.1722 111.49 74.5199L102.523 77.3198C102.029 77.5943 101.407 77.3564 100.711 76.6427ZM98.9546 71.9213L98.4604 71.5919C97.6369 72.4703 96.8317 72.9644 96.0082 73.1291C93.7024 73.5866 92.3665 72.8546 92.0005 70.9514L90.6646 62.9726C93.9586 65.4248 97.3075 66.3398 100.693 65.681C100.821 65.6627 101.224 65.498 101.883 65.2418C102.285 65.1686 102.633 65.0954 102.907 65.0405L98.9546 71.9213ZM93.0985 79.8086C93.2999 79.3511 93.1535 77.5577 92.6776 74.4101C93.9403 75.1421 95.2579 75.38 96.6122 75.1238L97.1795 74.8127C95.9899 77.2832 95.075 79.0949 94.4344 80.1929L92.3665 81.4373L92.0737 81.0713L92.4763 80.9981L91.6346 80.9615C89.4386 79.1315 87.7732 77.7773 86.6203 76.8806C88.7065 76.7525 90.3353 75.7277 91.5064 73.8062C92.3116 76.4597 92.8423 78.4727 93.0985 79.8086ZM90.7744 80.9066L85.3577 81.3275C85.9799 80.2295 86.2727 79.1132 86.1994 78.0152L90.7744 80.9066ZM91.2685 81.236L92.0005 81.7301L86.2726 87.0737C86.0347 85.1522 85.2661 83.7431 83.9851 82.8647L84.7171 82.2974C86.5288 82.2242 88.7066 81.8765 91.2685 81.236ZM92.4763 82.0595L90.9208 91.4291C89.9509 89.3612 88.3223 88.556 86.0164 89.0135L92.4763 82.0595ZM91.7626 95.1806C91.9822 93.0944 92.9887 91.8866 94.7456 91.5389C96.5023 91.1912 97.9663 91.8317 99.1376 93.4238L99.7048 93.1127L103.054 99.4262C101.132 98.255 98.9545 97.9073 96.5023 98.3648C94.471 98.7674 92.7508 99.6458 91.3234 101.055C91.3783 99.2249 91.5247 97.2668 91.7626 95.1806ZM99.5767 90.386C99.6682 88.6841 100.656 87.641 102.56 87.275C103.273 87.275 103.914 87.3665 104.518 87.5312L104.609 86.8907L109.916 89.2331C108.452 89.654 107.08 90.7703 105.817 92.5637C104.554 94.3571 103.914 96.0224 103.932 97.5779L99.5767 90.386ZM109.916 71.7932C107.702 70.6037 106.384 68.8469 105.945 66.5411C105.634 64.9124 106.146 62.8994 107.519 60.5387C108.727 58.7453 109.916 56.897 111.087 54.9938C111.069 56.4029 111.161 57.5741 111.344 58.5257C112.643 65.1686 116.138 69.4142 121.848 71.2625L116.87 72.8546L116.797 72.452C114.418 73.2023 112.112 72.9827 109.916 71.7932ZM105.634 60.6851L104.939 60.4106C104.316 62.2223 102.779 63.3569 100.327 63.8327C94.2149 65.0222 90.5548 62.4236 89.3104 56.0552L88.5967 51.3338C92.879 55.982 98.5519 57.629 105.616 56.2565C106.018 56.1833 107.135 55.7441 108.946 54.9755L105.634 60.6851ZM88.6333 62.3138L88.9993 62.0393L90.7012 70.7867L90.0973 70.8965C90.2437 73.1108 89.2373 74.4467 87.0595 74.8676C86.1079 75.0506 85.1563 74.8859 84.2231 74.3735L83.8936 74.8676L76.409 68.9201C77.5984 69.2495 78.9343 69.2861 80.435 68.9933C84.4976 68.1881 87.2425 65.9555 88.6333 62.3138ZM77.1227 71.5187C80.0689 73.6049 82.2649 75.1604 83.729 76.1486L84.4426 77.7041C84.5707 78.3812 84.4243 79.1864 83.9668 80.1197C83.5093 81.053 83.0153 81.5654 82.4846 81.6752L71.7058 82.7183C73.4992 81.8033 74.9816 80.2112 76.1711 77.9603C77.324 75.6728 77.6534 73.5317 77.1227 71.5187ZM84.0949 91.0814L84.5525 91.2095C85.0099 90.6971 85.5772 90.3677 86.2543 90.2396C88.1575 89.8736 89.6398 90.6422 90.7196 92.5454L89.4019 103.141C89.2738 101.055 88.1026 99.2066 85.9066 97.5962C83.6923 95.9858 81.6427 95.4368 79.7761 95.9309L79.3736 96.0041L84.0949 91.0814ZM91.1404 102.373C92.7874 100.634 94.4711 99.6092 96.2462 99.2615C99.7781 98.5844 102.889 100.085 105.579 103.8C105.963 104.294 107.812 107.661 111.142 113.902C107.409 111.394 103.438 110.553 99.229 111.358C95.2945 112.126 92.0555 113.938 89.5301 116.83C90.262 110.498 90.8111 105.685 91.1404 102.373ZM105.433 99.8105C105.03 97.7792 105.488 95.7662 106.787 93.7349C108.086 91.7219 109.752 90.5141 111.783 90.1298C112.222 90.1847 112.497 90.203 112.643 90.1664C118.59 92.5271 123.037 94.3388 125.947 95.6015C121.848 96.2603 118.481 97.9073 115.827 100.524C113.174 103.159 111.746 106.527 111.563 110.644C107.427 103.141 105.378 99.536 105.433 99.8105ZM111.838 50.1992C109.898 52.5416 107.299 54.0422 104.042 54.6827C100.382 55.3964 96.85 54.7742 93.4279 52.8344C90.0241 50.8946 87.9745 48.0947 87.2608 44.4347L85.8335 37.0964C91.6528 44.5628 99.4486 47.3261 109.203 45.4229C111.783 44.9288 114.272 43.9589 116.669 42.4949C113.558 47.4725 111.948 50.0345 111.838 50.1992ZM86.7485 51.4985L87.8465 57.1898L87.4438 57.263C88.066 62.6249 85.5955 65.864 80.0323 66.9437C77.3239 67.4744 75.2561 66.962 73.8287 65.4065L72.9686 66.413L68.2838 62.8994C70.4065 62.8994 72.0718 62.7896 73.2796 62.5517C80.0507 61.2341 84.5525 57.5558 86.7485 51.4985ZM82.3016 55.2134C79.5749 58.2146 76.3906 60.0629 72.7123 60.7766C69.4549 61.4171 66.6367 61.106 64.2943 59.8799C64.0015 59.7884 61.6958 58.1414 57.4136 54.884C60.0671 55.4879 62.8853 55.5062 65.8681 54.9206C75.4939 53.054 81.4964 47.3078 83.857 37.7003L85.3942 45.6425C86.053 49.0097 85.0099 52.2122 82.3016 55.2134ZM63.2513 112.017C65.3741 109.912 67.3139 108.686 69.089 108.338C72.8953 107.606 76.4639 108.375 79.7944 110.699C83.125 113.005 85.1747 116.116 85.9433 120.069C86.0164 120.471 86.053 121.203 86.053 122.265C86.053 123.326 86.0713 124.058 86.1628 124.461L86.1994 124.662L86.785 123.289L85.7236 133.007C84.8086 126.84 81.9721 122.265 77.2325 119.245C72.4928 116.226 67.0027 115.329 60.7625 116.537C59.6828 116.738 58.8959 117.049 58.4018 117.433C59.9939 115.549 61.6043 113.755 63.2513 112.017ZM86.5654 122.265C86.6752 121.386 86.6386 120.49 86.4557 119.538C85.6321 115.347 83.4911 112.035 79.9958 109.601C76.5005 107.185 72.5659 106.399 68.2289 107.24C73.6273 101.695 76.7933 98.4746 77.7631 97.5779L79.3552 97.0655C81.5146 96.6446 83.546 97.0655 85.4126 98.3282C87.2792 99.5909 88.4137 101.293 88.8346 103.471C89.0542 104.55 88.853 107.698 88.2308 112.877C87.6086 118.056 87.0595 121.185 86.5654 122.265ZM89.3471 118.129C91.5613 115.036 94.7638 113.06 98.9728 112.255C105.488 110.992 110.41 113.133 113.741 118.678L113.942 118.641L120.42 130.262C114.455 124.241 107.61 121.972 99.8878 123.472C94.8553 124.442 90.9025 127.206 87.9745 131.707C88.6333 125.668 89.1092 121.148 89.3471 118.129ZM119.817 124.882L112.881 113.133C112.442 109.418 113.32 106.051 115.553 103.013C117.767 99.9752 120.732 98.0903 124.392 97.3766C127.374 96.791 132.553 98.0537 139.91 101.11C133.834 102.427 128.985 105.172 125.361 109.327C121.72 113.499 119.871 118.678 119.817 124.882ZM130.065 95.0159C126.258 92.8016 123.934 89.5991 123.129 85.3901C121.701 78.0701 124.3 73.2755 130.888 70.988L131.016 70.5488L140.587 67.6208C135.207 73.3121 133.267 79.955 134.749 87.5495C135.701 92.4356 137.97 96.4982 141.557 99.7373C134.53 97.0289 130.705 95.4551 130.065 95.0159ZM128.967 26.3909C127.997 30.1058 127.905 33.9854 128.692 38.0663C129.882 44.1785 132.681 49.3574 137.11 53.6396C141.539 57.9218 146.754 60.74 152.793 62.0942L145.144 64.0157C139.727 65.0771 134.694 64.0157 130.065 60.8315C125.435 57.6473 122.598 53.3468 121.537 47.9117C121.189 46.1366 121.189 43.7759 121.537 40.8296C121.884 37.8833 122.616 36.0899 123.769 35.4311L123.531 35.2664L128.967 26.3909ZM97.1977 32.4482C102.926 34.3697 108.69 34.754 114.528 33.6194C118.188 32.9057 121.464 31.6979 124.373 30.0143L121.793 34.1135L121.592 34.1501C119.579 39.0545 115.333 42.1289 108.818 43.3916C103.53 44.4164 98.3689 43.5929 93.3364 40.9028C88.3039 38.231 85.2844 34.2416 84.2597 28.9346L83.0336 22.6211C86.7485 27.2693 91.4698 30.545 97.1977 32.4482ZM56.3338 44.9471C62.7022 43.7027 68.2289 40.5734 72.8771 35.5043C77.5253 30.4535 79.9958 24.7073 80.3068 18.3206L82.5943 30.1424C83.4361 35.1749 82.0637 40.0244 78.4585 44.6726C74.8535 49.3208 70.4798 52.139 65.3192 53.1455C59.884 54.2069 55.2359 53.054 51.3563 49.7417L50.9903 50.0162L43.3775 44.5262C47.9342 45.5876 52.2529 45.734 56.3338 44.9471ZM42.4259 73.9343C45.7382 67.4561 46.7447 60.8864 45.4636 54.2435C44.9696 51.6632 44.0363 49.1012 42.7004 46.5392C45.7748 48.6071 48.7943 50.7665 51.7771 52.9991C54.6869 55.6709 56.4986 58.8368 57.2123 62.4968C58.2371 67.7855 57.2854 72.6533 54.3575 77.1002C51.4295 81.5471 47.3852 84.2738 42.2246 85.262C40.8704 85.5182 39.9005 85.6463 39.3332 85.6097L39.2416 86.2502L28.097 87.5678C34.3373 84.9875 39.1136 80.4308 42.4259 73.9343ZM46.2506 111.523C43.9997 99.9935 37.8692 92.6735 27.8225 89.5625C34.868 88.19 40.3763 87.5312 44.3291 87.6227C47.4584 87.8606 50.4047 89.5076 53.1131 92.582C55.8215 95.6381 57.505 98.8589 58.1638 102.263C59.2435 107.826 58.292 112.712 55.3091 116.958C54.6869 118.074 51.1733 121.771 44.8049 128.084C46.8545 122.594 47.3303 117.086 46.2506 111.523ZM83.2166 155.022C83.2715 153.887 82.8689 152.13 81.9904 149.77C79.7395 143.31 75.4939 138.259 69.217 134.617C62.9402 130.975 56.4254 129.823 49.6361 131.14C47.0558 131.634 44.3657 132.659 41.5658 134.178C44.7134 130.756 47.8427 127.389 51.0086 124.095C55.181 120.197 58.9508 117.909 62.3546 117.25C68.0459 116.134 73.0417 117.177 77.324 120.361C81.6061 123.546 84.2779 127.919 85.3577 133.483C85.5589 134.434 84.8453 141.608 83.2166 155.022ZM130.229 146.951C123.074 140.601 114.821 138.332 105.469 140.144C95.8435 142.01 89.0176 147.5 85.0099 156.577C86.1994 146.073 87.1327 138.222 87.8098 133.025C90.8476 128.359 94.8005 125.54 99.6865 124.589C109.184 122.74 116.834 126.327 122.671 135.331L123.239 135.001L130.229 146.951ZM153.598 110.717C145.876 112.218 139.855 116.226 135.573 122.777C131.272 129.31 129.68 136.484 130.778 144.298L121.189 127.572C120.64 121.899 122.031 116.665 125.325 111.889C128.619 107.094 133.047 104.166 138.592 103.086C140.898 102.629 142.655 102.574 143.844 102.903C145.601 103.269 148.694 104.386 153.159 106.27C157.606 108.155 160.406 109.546 161.577 110.443C158.686 110.15 156.032 110.242 153.598 110.717Z" fill="#F2C94C" fill-opacity="0.25"/>
</svg>
