<svg width="24" height="24" viewBox="0 0 24 24" fill="none" xmlns="http://www.w3.org/2000/svg">
<path d="M15.4251 8.01715L15.5415 8.25255L15.8014 8.29035L22.8923 9.32184C23.1109 9.35698 23.209 9.41102 23.2441 9.43987C23.2525 9.44677 23.256 9.45115 23.2572 9.45285C23.2579 9.45508 23.2597 9.46251 23.2597 9.47795C23.2597 9.48626 23.2499 9.5898 23.0402 9.80241L17.9123 14.8032L17.724 14.9868L17.7686 15.246L18.9839 22.3055C18.9883 22.3396 18.9925 22.4046 18.9925 22.5124C18.9925 22.6154 18.9687 22.6764 18.942 22.716C18.9357 22.717 18.9259 22.718 18.9117 22.718C18.8442 22.718 18.742 22.6962 18.5941 22.6125L18.5873 22.6086L18.5803 22.6049L12.2323 19.2689L11.9997 19.1467L11.7671 19.269L5.42148 22.605L5.42143 22.6049L5.41261 22.6098C5.25263 22.698 5.14898 22.718 5.08775 22.718C5.06616 22.718 5.0523 22.7161 5.04445 22.7145C5.01821 22.6749 4.99495 22.6141 4.99495 22.5124C4.99495 22.4948 4.99927 22.4346 5.01763 22.3074L6.23092 15.2458L6.27552 14.9863L6.08673 14.8027L0.951163 9.80846C0.859306 9.7079 0.803407 9.62671 0.771823 9.5658C0.740389 9.50517 0.739755 9.47787 0.739746 9.47787C0.739752 9.46248 0.74159 9.45508 0.742318 9.45285C0.743493 9.45114 0.747032 9.44677 0.755415 9.43987C0.790489 9.41102 0.888611 9.35698 1.1072 9.32184L8.19812 8.29035L8.45798 8.25255L8.57436 8.01715L11.7544 1.58515L11.7545 1.58521L11.7594 1.57469C11.8304 1.4222 11.894 1.3472 11.9344 1.31349C11.9659 1.28725 11.9825 1.28516 11.9997 1.28516C12.0169 1.28516 12.0336 1.28725 12.0651 1.31349C12.1055 1.3472 12.1691 1.4222 12.2401 1.57469L12.24 1.57475L12.2451 1.58515L15.4251 8.01715Z" stroke="#FF3737"/>
</svg>
