<svg width="1000" height="606" viewBox="0 0 1000 606" fill="none" xmlns="http://www.w3.org/2000/svg">
<rect width="1000" height="606" rx="10" fill="white" fill-opacity="0.1"/>
<rect width="1000" height="606" rx="10" fill="url(#paint0_linear_918_5)" fill-opacity="0.5"/>
<mask id="mask0_918_5" style="mask-type:alpha" maskUnits="userSpaceOnUse" x="0" y="0" width="1000" height="606">
<rect width="1000" height="606" rx="10" fill="white" fill-opacity="0.1"/>
</mask>
<g mask="url(#mask0_918_5)">
<path d="M365.198 275.906C228.391 61.5019 -33.2701 28.3905 -147 38.6353V765.201L707.213 807C949.543 643.902 1377.86 341.309 1152.49 435.726C870.786 553.747 536.206 543.912 365.198 275.906Z" fill="url(#paint1_linear_918_5)"/>
<path d="M357.037 299.289C150.321 239.737 -47.1194 387.56 -120 468.915L-82.9574 687.355L993.086 702C1057.53 368.849 1158.06 -250.105 1044.58 -60.7092C902.738 176.036 615.432 373.729 357.037 299.289Z" fill="url(#paint2_linear_918_5)"/>
</g>
<defs>
<linearGradient id="paint0_linear_918_5" x1="1.49012e-05" y1="606" x2="1055.8" y2="121.628" gradientUnits="userSpaceOnUse">
<stop stop-color="#3AC748"/>
<stop offset="0.635417" stop-color="#3AC748" stop-opacity="0"/>
</linearGradient>
<linearGradient id="paint1_linear_918_5" x1="534.5" y1="37" x2="-29.6438" y2="509.753" gradientUnits="userSpaceOnUse">
<stop stop-color="white"/>
<stop offset="1" stop-color="white" stop-opacity="0"/>
</linearGradient>
<linearGradient id="paint2_linear_918_5" x1="718.428" y1="-53.386" x2="-15.1857" y2="421.544" gradientUnits="userSpaceOnUse">
<stop stop-color="white"/>
<stop offset="1" stop-color="white" stop-opacity="0"/>
</linearGradient>
</defs>
</svg>
