<svg width="300" height="125" viewBox="0 0 300 125" fill="none" xmlns="http://www.w3.org/2000/svg">
<mask id="mask0" mask-type="alpha" maskUnits="userSpaceOnUse" x="0" y="0" width="300" height="125">
<rect width="300" height="125" rx="10" fill="white"/>
</mask>
<g mask="url(#mask0)">
<g opacity="0.2">
<g style="mix-blend-mode:multiply" opacity="0.2">
<path d="M286.557 30.705C275.497 24.3125 257.405 24.3125 246.354 30.705L75.2883 129.585C64.2372 135.978 64.2372 146.438 75.2883 152.831L120.445 178.939C131.496 185.331 149.597 185.331 160.648 178.939L331.705 80.0585C342.765 73.6746 342.765 63.2054 331.705 56.8129L286.557 30.705Z" fill="black"/>
</g>
<path d="M314.843 60.3764L304.45 54.4263C301.904 53.3247 298.57 53.689 294.924 55.8054C286.93 60.4285 280.443 71.6783 280.443 80.9591C280.443 85.5822 282.062 88.8349 284.687 90.3528L294.101 95.7825L294.672 96.1121L294.759 96.1555C297.357 97.4392 300.821 97.1356 304.606 94.9325C312.609 90.3094 319.095 79.0509 319.095 69.7787C319.095 65.1817 317.467 61.8943 314.843 60.3764Z" fill="#3B4447"/>
<path d="M319.095 69.78C319.095 79.0262 312.608 90.2846 304.606 94.9337C296.604 99.5828 290.117 95.8011 290.117 86.555C290.117 77.3088 296.604 66.0503 304.606 61.4012C312.608 56.7521 319.095 60.5251 319.095 69.78Z" fill="#555E61"/>
<path d="M317.996 70.4299C317.996 78.9648 312.011 89.3386 304.632 93.5973C297.253 97.8561 291.277 94.404 291.277 85.8777C291.277 77.3515 297.253 66.9691 304.632 62.7016C312.011 58.4342 317.996 61.8949 317.996 70.4299Z" fill="#3B4447"/>
<path d="M315.857 72.121C315.857 79.1641 310.92 87.7337 304.84 91.2032C298.76 94.6726 293.824 91.871 293.824 84.8367C293.824 77.8023 298.752 69.224 304.84 65.7545C310.929 62.285 315.857 65.0433 315.857 72.121Z" fill="#CDCCCB"/>
<path d="M315.397 72.3633C315.397 79.0854 310.686 87.2561 304.874 90.6215C299.063 93.9869 294.352 91.2547 294.352 84.5499C294.352 77.8451 299.063 69.6571 304.874 66.3351C310.686 63.013 315.397 65.6499 315.397 72.3633Z" fill="url(#paint0_linear)"/>
<path d="M304.84 66.2829C299.029 69.6396 294.317 77.8102 294.317 84.4977C294.298 85.6997 294.483 86.8963 294.863 88.0366C296.786 89.5111 299.644 89.5111 302.831 87.6636C308.651 84.2982 313.362 76.1276 313.362 69.4488C313.377 68.2471 313.193 67.0512 312.817 65.9099C310.885 64.4267 308.027 64.4354 304.84 66.2829Z" fill="url(#paint1_linear)"/>
<path d="M294.352 83.83C295.936 85.5214 298.569 85.7122 301.54 83.9948C306.399 81.1845 310.339 74.3497 310.339 68.7291C310.375 67.382 310.078 66.047 309.473 64.8433C307.829 64.9206 306.231 65.4161 304.831 66.2831C299.227 69.5184 294.655 77.2554 294.352 83.83Z" fill="#343433"/>
<path d="M308.642 79.2681C309.069 79.1754 309.512 79.1945 309.929 79.3237C310.347 79.4528 310.723 79.6876 311.024 80.0054C312.868 78.3561 314.129 76.1528 314.618 73.7256C314.708 72.9689 314.642 72.2018 314.427 71.4711C314.211 70.7404 313.848 70.0614 313.362 69.4755C313.362 69.4755 313.171 75.4864 308.269 75.1481C308.504 73.1273 308.849 71.1208 309.3 69.1372C309.69 67.9923 310.417 65.8412 311.898 65.3468C311.062 65.0048 310.165 64.8355 309.262 64.8489C308.359 64.8623 307.467 65.0582 306.641 65.4249C306.641 66.6826 306.433 69.7097 304.606 71.0021C303.012 72.1296 301.263 71.0021 300.276 70.1347C299.192 71.3644 298.232 72.6979 297.409 74.1159C298.223 74.1593 299.081 74.4802 298.907 75.6772C298.647 77.4987 296.751 80.2222 294.499 82.0177C294.36 82.8606 294.287 83.7134 294.282 84.5678C294.228 86.2399 294.613 87.8971 295.4 89.373C295.6 87.7443 296.013 86.1491 296.63 84.6285C297.651 82.6335 300.328 81.9049 300.328 83.8392C300.328 85.7734 299.903 90.4572 299.903 90.4572C299.903 90.4572 303.593 90.7088 305.853 88.7225C307.836 86.9877 305.853 87.1959 305.299 86.9877C304.622 86.6628 304.099 86.0838 303.845 85.3761C303.59 84.6684 303.624 83.8888 303.939 83.206C304.374 82.236 305.024 81.3775 305.838 80.6954C306.653 80.0133 307.612 79.5252 308.642 79.2681Z" fill="#D0D2D4"/>
<path d="M302.744 86.6407C301.878 85.01 301.947 83.0324 300.423 82.061C299.8 81.6533 298.596 82.139 297.444 83.5529C298.656 82.4079 300.363 82.2431 300.363 83.7957C300.363 85.7386 299.938 90.4138 299.938 90.4138C301.865 90.51 303.776 90.0299 305.429 89.0347C304.275 88.5873 303.321 87.737 302.744 86.6407Z" fill="url(#paint2_linear)"/>
<path d="M301.54 73.6565C301.367 72.8412 299.479 72.954 298.015 73.1795C297.825 73.4744 297.634 73.778 297.461 74.0469C298.275 74.0902 299.133 74.4112 298.959 75.6081C298.699 77.4296 296.803 80.1531 294.551 81.9486C294.547 82.0092 294.547 82.0701 294.551 82.1308C299.488 81.246 301.791 74.9576 301.54 73.6565Z" fill="url(#paint3_linear)"/>
<path d="M302.112 78.4793C302.093 78.8476 301.988 79.2063 301.804 79.5259C301.621 79.8456 301.364 80.117 301.055 80.3181C300.466 80.6564 299.999 80.3788 299.999 79.7023C300.017 79.3339 300.122 78.9753 300.306 78.6556C300.49 78.336 300.746 78.0645 301.055 77.8635C301.644 77.5252 302.112 77.8027 302.112 78.4793Z" fill="url(#paint4_linear)"/>
<path d="M323.746 37.27C323.746 37.27 324.144 23.6783 323.746 21.4578C323.347 19.2374 320.74 9.67892 313.465 3.53794C306.19 -2.60305 291.459 -12.7773 279.022 -17.6866C272.803 -20.1326 265.018 -20.6964 262.185 -21C261.434 -21.0018 260.696 -20.7946 260.055 -20.4015L256.695 -18.2504L252.546 -15.9779C252.546 -15.9779 239.598 -16.2641 234.48 -14.8937C229.361 -13.5233 212.724 -5.79497 205.9 -2.32549C199.075 1.144 185.391 9.56618 178.454 13.7729C171.517 17.9797 162.328 24.7539 156.248 29.3856C150.168 34.0174 138.719 44.9549 127.988 55.1379C127.988 55.1379 124.125 58.6074 122.359 60.3421C120.592 62.0768 98.23 79.8319 94.4799 82.7376C90.7298 85.6433 84.139 91.1598 83.4548 92.3481C82.7706 93.5364 78.2584 103.156 78.2584 103.156C76.0332 106.283 74.6547 109.935 74.2572 113.755C73.3911 120.529 76.1885 124.51 76.1885 124.51C76.1885 124.51 76.1885 128.847 81.2464 134.121C81.2464 134.121 81.6447 137.191 87.3781 141.459C93.1115 145.726 114.59 158.416 117.994 160.237C121.397 162.059 128.672 166.664 141.057 167.098C153.442 167.532 158.638 164.878 158.638 164.878L158.976 164.696C160.119 148.372 168.962 136.575 180.065 130.66C188.189 126.323 194.511 129.792 193.679 139.004C193.431 141.652 192.915 144.267 192.138 146.81L193.177 146.238L281.256 91.8537L285.846 88.7138C287.397 77.0563 293.866 65.6504 306.476 58.0262C313.673 53.6893 320.091 55.8664 319.987 64.4708C321.771 62.1896 324.413 58.2864 325.426 54.0623C327.037 47.4529 325.963 38.9787 323.746 37.27Z" fill="#BBBBBB"/>
<g style="mix-blend-mode:multiply" opacity="0.15">
<path d="M197.048 109.852C197.048 109.852 156.906 134.373 154.628 135.439C152.351 136.506 136.935 139.134 120.453 132.152C107.982 126.87 96.8876 120.694 90.929 113.625C90.2188 113.677 89.8377 114.345 89.881 115.75C89.959 117.979 90.4353 121.7 91.5526 122.81C92.6698 123.921 98.126 127.503 101.079 129.324C104.033 131.146 110.286 134.789 113.629 136.315C116.816 137.773 118.167 137.139 119.12 136.315L119.301 136.159C119.096 136.384 118.879 136.598 118.652 136.801C117.682 137.625 116.339 138.258 113.152 136.801C109.809 135.275 103.53 131.597 100.603 129.801C97.6757 128.006 92.2108 124.415 91.0762 123.296C89.9417 122.177 89.4827 118.465 89.4047 116.236C89.3528 114.64 89.9677 113.686 90.929 113.634C89.1107 111.575 87.7366 109.163 86.8931 106.547C85.8727 102.797 84.016 99.3269 81.4629 96.399C79.9992 99.4782 78.2844 103.13 78.2844 103.13C76.0458 106.262 74.6581 109.924 74.2572 113.755C73.3911 120.529 76.1885 124.511 76.1885 124.511V124.571C78.1458 126.87 81.818 130.235 83.4895 131.84C86.9018 135.11 108.476 147.27 113.083 149.872C116.894 152.024 125.58 156.595 136.337 157.679C138.26 157.878 139.1 159.839 139.152 161.287C139.204 162.736 139.152 163.959 137.42 163.776C128.861 162.802 120.585 160.115 113.083 155.875C108.476 153.273 85.0657 140.886 81.2464 134.104C81.2464 134.104 81.6447 137.174 87.3781 141.442C93.1115 145.709 114.59 158.399 117.994 160.22C121.397 162.042 128.672 166.665 141.057 167.098C145.616 167.318 150.185 166.983 154.663 166.101C154.623 165.523 154.623 164.944 154.663 164.366C155.806 148.025 164.545 134.008 178.047 126.792C180.645 125.318 183.566 124.508 186.552 124.432C188.111 124.399 189.66 124.696 191.097 125.303C192.534 125.909 193.827 126.813 194.892 127.954C196.26 129.455 197.49 132.751 197.3 137.027L281.958 85.5309C284.417 72.6417 292.264 61.4874 304.233 54.2448C305.827 53.2707 307.546 52.5178 309.343 52.007L322.975 42.8562L323.728 37.253C323.728 37.253 323.902 31.4069 323.91 26.7578L197.048 109.852Z" fill="black"/>
</g>
<g style="mix-blend-mode:multiply" opacity="0.08">
<path d="M312.245 14.7954L308.677 13.3643L284.842 14.9168C277.412 14.5178 255.95 27.1381 239.564 37.1389C223.178 47.1397 214.492 56.6114 214.492 56.6114L191.887 93.9083C190.258 97.2778 188.293 100.474 186.024 103.449C182.811 107.396 164.086 124.414 164.086 124.414L201.137 100.188L261.086 60.8442C261.086 60.8442 302.657 32.8194 304.554 31.527C307.922 29.5186 310.555 26.4772 312.063 22.8533C314.168 17.6751 312.245 14.7954 312.245 14.7954Z" fill="black"/>
</g>
<g style="mix-blend-mode:multiply" opacity="0.15">
<path d="M197.17 138.535C197.081 139.246 196.954 139.953 196.789 140.651C196.495 141.935 196.191 143.253 195.862 144.571L281.213 91.8699C281.291 90.4561 281.43 89.0597 281.62 87.6719L197.17 138.535Z" fill="black"/>
</g>
<g style="mix-blend-mode:multiply" opacity="0.1">
<path d="M82.2857 127.425L83.6282 128.674C85.1525 130.139 91.4834 134.433 112.979 146.576L113.178 146.68C123.571 152.535 133.696 155.206 143.326 154.625C148.033 154.386 152.682 153.475 157.131 151.919C157.547 150.679 157.997 149.464 158.517 148.276C153.661 150.149 148.534 151.224 143.335 151.459C129.426 152.327 117.691 146.09 113.083 143.488C108.476 140.886 86.9019 128.743 83.4896 125.456C80.6749 122.749 75.695 118.048 74.5518 111.951C74.4392 112.532 74.3352 113.13 74.2573 113.755C74.1213 114.83 74.0721 115.915 74.1101 116.999C76.128 121.7 79.4883 124.831 82.2857 127.425Z" fill="black"/>
</g>
<g style="mix-blend-mode:screen" opacity="0.3">
<path style="mix-blend-mode:screen" opacity="0.3" d="M122.619 133.035C123.606 133.405 124.585 133.744 125.555 134.05C129.643 131.257 148.35 118.524 159.981 111.759C148.87 117.648 127.885 128.95 122.619 133.035Z" fill="url(#paint5_linear)"/>
</g>
<g style="mix-blend-mode:multiply" opacity="0.15">
<path d="M89.708 112.098C93.2936 99.7899 111.36 78.9644 111.36 78.9644C97.0177 93.4755 90.8772 105.532 88.9199 110.996C89.1971 111.369 89.4482 111.734 89.708 112.098Z" fill="black"/>
</g>
<path style="mix-blend-mode:multiply" opacity="0.3" d="M321.373 55.0329C320.356 53.8812 319.101 52.9649 317.696 52.3478C316.29 51.7307 314.767 51.4275 313.232 51.4593C310.041 51.5666 306.938 52.5345 304.251 54.2609C292.282 61.5035 284.435 72.6579 281.975 85.547L284.799 85.7639L281.62 87.6721C281.43 89.0599 281.291 90.4563 281.213 91.8701H281.283L285.873 88.7303C287.423 77.0728 293.893 65.6668 306.503 58.0426C313.7 53.7058 320.117 55.8829 320.013 64.4872C321.171 63.0082 322.213 61.4423 323.131 59.8034C323.048 58.0701 322.434 56.4045 321.373 55.0329Z" fill="url(#paint6_linear)"/>
<path style="mix-blend-mode:multiply" opacity="0.3" d="M194.477 140.167L197.3 137.053C197.525 132.777 196.261 129.481 194.892 127.98C193.827 126.839 192.534 125.936 191.097 125.329C189.66 124.722 188.111 124.425 186.552 124.459C183.567 124.534 180.646 125.344 178.047 126.818C164.545 134.008 155.807 148.051 154.663 164.392C154.623 164.97 154.623 165.549 154.663 166.127C156.038 165.868 157.38 165.458 158.665 164.904L159.002 164.722C160.146 148.398 168.988 136.602 180.091 130.686C188.215 126.349 194.537 129.819 193.706 139.03C193.458 141.678 192.941 144.294 192.164 146.837L193.204 146.264L195.862 144.625C196.192 143.298 196.495 142.023 196.789 140.704C196.954 140.006 197.081 139.3 197.17 138.588L194.477 140.167Z" fill="url(#paint7_linear)"/>
<g style="mix-blend-mode:multiply" opacity="0.1">
<path d="M154.663 164.392C154.944 160.316 155.724 156.29 156.985 152.405C152.583 153.9 147.995 154.776 143.353 155.007C142.487 155.059 141.62 155.085 140.754 155.085C131.834 155.085 122.524 152.37 113.04 147.009L112.841 146.897C91.3019 134.753 84.945 130.417 83.3947 128.942C82.979 128.543 82.5286 128.127 82.0609 127.693C79.4194 125.247 76.2843 122.324 74.2144 118.091C74.3673 120.368 75.0558 122.576 76.2236 124.536V124.597C78.181 126.895 81.8531 130.261 83.5246 131.865C86.9369 135.135 108.511 147.296 113.118 149.898C116.929 152.049 125.616 156.62 136.372 157.704C138.295 157.904 139.135 159.864 139.187 161.312C139.239 162.761 139.187 163.984 137.455 163.802C128.896 162.828 120.62 160.141 113.118 155.9C108.511 153.298 85.1008 140.912 81.2815 134.129C81.2815 134.129 81.6799 137.2 87.4133 141.467C93.1466 145.734 114.625 158.424 118.029 160.246C121.432 162.067 128.673 166.664 141.058 167.098C145.616 167.317 150.185 166.983 154.663 166.1C154.624 165.531 154.624 164.96 154.663 164.392Z" fill="black"/>
</g>
<path style="mix-blend-mode:multiply" opacity="0.2" d="M120.454 132.178C107.982 126.895 96.8878 120.72 90.9293 113.651C90.2191 113.703 89.838 114.37 89.8813 115.776C89.9593 118.005 90.4356 121.726 91.5528 122.836C92.6701 123.946 98.1263 127.528 101.08 129.35C104.033 131.171 110.286 134.814 113.629 136.341C116.816 137.798 118.167 137.165 119.12 136.341L119.302 136.185C119.096 136.41 118.879 136.624 118.652 136.827C117.682 137.651 116.34 138.284 113.153 136.827C109.81 135.3 103.531 131.622 100.603 129.827C97.6759 128.031 92.211 124.441 91.0765 123.322C89.9419 122.203 89.4829 118.49 89.405 116.261C89.353 114.665 89.9679 113.711 90.9293 113.659C89.1109 111.601 87.7369 109.188 86.8934 106.573C86.5137 105.283 86.0508 104.02 85.5077 102.791L83.4897 103.806L85.3085 113.347L85.9407 118.759C85.9407 118.759 84.9447 121.83 88.7381 124.493C92.5315 127.155 104.327 134.814 109.524 137.547C114.72 140.279 121.042 142.751 127.538 141.502C131.002 140.851 133.367 138.397 134.856 136.228C129.904 135.494 125.064 134.133 120.454 132.178Z" fill="url(#paint8_linear)"/>
<path d="M83.5593 92.1929C83.5209 92.2393 83.4862 92.2886 83.4554 92.3403C82.7712 93.5373 78.2589 103.148 78.2589 103.148C78.2589 103.148 78.207 103.226 78.103 103.356C78.4922 106.08 79.2984 108.728 80.4934 111.206C81.9553 113.945 83.7789 116.474 85.915 118.726C86.5066 113.748 86.8188 108.741 86.8503 103.729C86.7551 98.8369 85.1529 92.4271 83.5593 92.1929Z" fill="url(#paint9_linear)"/>
<path d="M86.8765 103.727C86.8002 101.498 86.5101 99.282 86.0104 97.1089L81.5588 99.3207C81.2663 99.4965 81.0322 99.755 80.8858 100.064C80.7394 100.372 80.6873 100.717 80.736 101.055C80.8013 102.048 81.0852 103.014 81.5673 103.884C82.0495 104.754 82.718 105.506 83.5247 106.086C83.7934 106.311 84.1156 106.463 84.46 106.527C84.8044 106.59 85.1594 106.564 85.4907 106.45L86.9284 105.748C86.9024 105.08 86.8938 104.351 86.8765 103.727Z" fill="url(#paint10_linear)"/>
<path d="M80.6924 101.048C80.7576 102.041 81.0415 103.007 81.5237 103.876C82.0059 104.746 82.6743 105.498 83.4811 106.079C83.7498 106.304 84.0719 106.455 84.4163 106.519C84.7607 106.583 85.1158 106.557 85.4471 106.443C85.7436 106.269 85.9833 106.012 86.137 105.704C86.2908 105.396 86.352 105.05 86.3131 104.708C86.2475 103.713 85.9626 102.746 85.4789 101.874C84.9952 101.003 84.3248 100.25 83.5158 99.6688C83.2466 99.4445 82.9241 99.2939 82.5795 99.2315C82.235 99.1692 81.8802 99.1973 81.5498 99.3132C81.2509 99.4843 81.0097 99.7407 80.857 100.05C80.7043 100.359 80.647 100.706 80.6924 101.048Z" fill="white"/>
<path d="M86.8762 103.728C86.8762 103.632 86.8762 103.528 86.8762 103.433L82.6931 105.48C82.3926 105.649 82.1497 105.905 81.9954 106.214C81.8411 106.524 81.7824 106.872 81.827 107.214C81.8941 108.207 82.1787 109.172 82.6608 110.041C83.1428 110.911 83.8103 111.663 84.6158 112.245C84.8746 112.457 85.1806 112.603 85.5077 112.67C85.8349 112.738 86.1736 112.726 86.4951 112.635C86.7711 109.674 86.8983 106.701 86.8762 103.728Z" fill="url(#paint11_linear)"/>
<path d="M84.6508 105.844C84.3821 105.619 84.0599 105.467 83.7155 105.403C83.3711 105.339 83.0161 105.366 82.6848 105.479C82.3843 105.649 82.1414 105.905 81.9871 106.214C81.8328 106.523 81.7741 106.872 81.8187 107.214C81.8858 108.206 82.1704 109.172 82.6525 110.041C83.1345 110.911 83.802 111.663 84.6075 112.245C84.8663 112.457 85.1723 112.602 85.4995 112.67C85.8266 112.738 86.1653 112.726 86.4868 112.635C86.5994 111.291 86.7034 109.851 86.764 108.42C86.2893 107.395 85.5621 106.509 84.6508 105.844Z" fill="white"/>
<path d="M83.5593 92.1929C83.5209 92.2393 83.4862 92.2886 83.4554 92.3403C82.7712 93.5373 78.2589 103.148 78.2589 103.148C78.2589 103.148 78.207 103.226 78.103 103.356C78.4922 106.08 79.2984 108.728 80.4934 111.206C81.9553 113.945 83.7789 116.474 85.915 118.726C86.5066 113.748 86.8188 108.741 86.8503 103.729C86.7551 98.8369 85.1529 92.4271 83.5593 92.1929Z" fill="url(#paint12_linear)"/>
<path d="M303.35 30.0119C301.505 29.2139 291.84 24.4 285.431 24.3393C279.022 24.2786 270.336 27.193 260.93 31.738C260.358 32.0069 259.752 32.3625 259.068 32.6747C257.925 33.1952 257.18 34.2187 257.405 36.3611L260.739 60.6474L254.945 64.4986L251.048 39.2928C250.901 37.983 249.983 37.9223 249.117 38.4774C241.695 43.1959 233.528 48.4869 230.011 51.0543C221.221 57.4729 217.124 64.9323 212.404 72.9294C207.996 80.4148 200.868 95.9495 200.47 98.5342C200.47 98.5342 199.786 101.345 202.011 99.7399C203.908 98.3781 243.158 72.9902 255.067 65.2966L260.852 61.4628L304.554 31.5645C304.554 31.5645 305.645 31.0181 303.35 30.0119Z" fill="#141C1E"/>
<path d="M204.445 73.7678C201.734 78.8939 192.588 94.5847 190.744 96.8138C188.899 99.043 182.906 101.498 175.839 100.353C168.771 99.2078 155.806 92.6244 142.235 84.2543C128.664 75.8841 123.727 71.5213 122.878 66.6553C122.03 61.7894 127.209 57.9296 130.171 55.0759C133.133 52.2223 153.555 32.3334 162.155 26.5654C162.155 26.5654 162.925 25.698 164.909 27.2073C166.892 28.7165 178.341 37.1387 185.253 41.2327C192.164 45.3267 214.491 56.6112 214.491 56.6112L204.445 73.7678Z" fill="#141C1E"/>
<path d="M151.027 81.0721C141.405 74.402 136.529 71.7912 131.038 66.8906C125.547 61.9899 128.059 58.1301 129.306 56.8464C129.765 56.3954 130.232 55.979 130.648 55.5974L131.107 55.155C146.107 40.6526 155.565 31.9789 160.831 28.4313L160.909 28.3793C160.979 28.3593 161.054 28.3593 161.125 28.3793C161.997 28.4307 162.839 28.712 163.567 29.1946C165.395 30.6084 176.706 38.9092 183.703 43.0726C189.87 46.7242 208.776 56.4561 212.604 58.3903L203.762 73.4913C201.726 77.3337 195.759 87.5947 192.347 93.1025C190.987 95.3143 185.098 96.8583 181.088 95.7047C177.078 94.5511 160.094 87.3605 151.027 81.0721Z" fill="#303E42"/>
<path d="M286.67 15.0399C286.67 15.0399 282.262 15.1179 279.975 13.0016C273.039 7.07908 265.646 1.7164 257.864 -3.03612C251.904 -6.48922 245.628 -9.3646 239.123 -11.6231C237.52 -12.265 233.58 -13.8609 237.806 -14.7196C242.033 -15.5783 252.607 -15.7344 252.607 -15.7344C257.859 -16.4683 263.206 -16.0721 268.292 -14.5722C277.111 -11.8126 285.519 -7.87387 293.287 -2.86265C300.674 1.91656 308.633 9.28053 310.158 11.2668C311.682 13.2531 313.977 15.9766 310.158 15.8552C306.338 15.7338 286.67 15.0399 286.67 15.0399Z" fill="#141C1E"/>
<path d="M310.201 15.1342C306.442 15.0128 286.895 14.3276 286.696 14.3189H286.609C286.185 14.3189 282.409 14.2669 280.478 12.4714C273.501 6.51369 266.064 1.11909 258.237 -3.66168C252.587 -6.96555 246.636 -9.72461 240.465 -11.9017C239.98 -12.0752 239.599 -12.2053 239.391 -12.3007C238.446 -12.6107 237.553 -13.061 236.741 -13.6364C236.446 -13.8967 237.113 -14.1655 237.789 -14.3043C241.911 -15.1717 252.278 -15.3625 252.382 -15.3625H252.503C252.503 -15.3625 254.669 -15.562 257.596 -15.562C261.155 -15.5097 264.688 -14.94 268.084 -13.8706C276.829 -11.1226 285.168 -7.21666 292.88 -2.25654C300.38 2.60073 308.148 9.81727 309.569 11.7081L309.872 12.1071C310.374 12.7663 311.708 14.5184 311.509 14.9261C311.509 14.9694 311.223 15.1342 310.409 15.1342H310.201Z" fill="#39464A"/>
<path d="M300.778 33.2621L261.406 60.2027L258.124 36.2632C257.916 34.2769 258.687 33.6611 259.371 33.3402C259.787 33.1493 260.159 32.9498 260.523 32.759L261.242 32.386C271.314 27.5288 279.386 25.0654 285.24 25.0654H285.422C289.987 25.0654 296.283 27.7196 300.146 29.3416C301.193 29.8013 303.359 31.4927 300.778 33.2621Z" fill="#303E42"/>
<path d="M209.52 93.9351C221.87 85.8946 245.124 70.8544 254.278 64.9389L250.329 39.3775C250.329 39.0392 250.208 38.8657 250.069 38.8657C249.866 38.8866 249.671 38.9615 249.506 39.0826C242.846 43.324 234.134 48.9446 230.453 51.6421C222.234 57.6443 218.12 64.6527 213.764 72.0774L213.045 73.2917C211.365 76.154 209.251 80.2306 207.277 84.3593L209.52 93.9351Z" fill="#303E42"/>
<path d="M170.149 79.1906C162.147 73.9554 153.87 69.1548 145.353 64.8096C136.693 60.3687 130.751 59.2237 127.98 58.9375C127.27 60.8284 127.365 63.63 131.037 66.8913C136.528 71.792 141.43 74.4027 151.026 81.0728C160.094 87.3613 177.095 94.465 181.122 95.6186C184.567 96.4459 188.198 95.9149 191.264 94.1354C186.414 88.6016 175.544 82.6341 170.149 79.1906Z" fill="#39464A"/>
<path opacity="0.7" d="M133.436 55.0065L168.529 32.7237C166.121 30.989 164.276 29.6186 163.627 29.1155C162.899 28.6329 162.056 28.3516 161.185 28.3002C161.114 28.2802 161.039 28.2802 160.968 28.3002L160.89 28.3522C155.884 31.7176 147.094 39.7235 133.349 52.9682L133.436 55.0065Z" fill="#C5D0D3"/>
<path d="M191.775 83.398C190.64 79.8852 186.397 75.4269 182.309 73.4493C181.377 72.9608 180.365 72.6463 179.321 72.5212C177.173 72.339 176.168 73.6921 176.991 76.2249C178.134 79.6943 182.378 84.1873 186.457 86.1736C187.392 86.6613 188.407 86.9757 189.454 87.1017C191.602 87.2665 192.606 85.9221 191.775 83.398ZM190.251 85.2542C190.181 85.3409 189.904 85.419 189.454 85.3843C188.633 85.278 187.839 85.0253 187.107 84.6383C183.504 82.9036 179.624 78.8443 178.637 75.8172C178.351 74.9498 178.438 74.4814 178.524 74.3687C178.611 74.2559 178.871 74.1952 179.321 74.2386C180.14 74.3402 180.933 74.5931 181.659 74.9845C185.271 76.7192 189.151 80.7699 190.129 83.8057C190.424 84.6817 190.337 85.1328 190.251 85.2455V85.2542Z" fill="#3D4B4F"/>
<path d="M166.329 77.4718L166.832 76.9254C166.832 76.9254 174.54 73.638 181.754 77.6366C188.968 81.6352 189.358 91.0375 189.358 91.0375L188.89 91.4625C188.89 91.4625 183.434 92.5814 172.028 87.6027C160.622 82.624 166.329 77.4718 166.329 77.4718Z" fill="#3D4B4F"/>
<path opacity="0.2" d="M183.755 42.9866C176.757 38.8319 165.446 30.5312 163.619 29.1087C162.89 28.6261 162.048 28.3448 161.176 28.2933C161.105 28.2733 161.03 28.2733 160.96 28.2933L160.882 28.3454C155.616 31.8929 146.159 40.5666 131.158 55.0691L130.699 55.5114C130.283 55.9104 129.833 56.3094 129.357 56.7604C128.084 58.0441 125.563 61.9126 131.089 66.8046C131.583 67.2556 132.076 67.672 132.579 68.0883C145.57 60.4121 165.325 49.9429 185.478 43.854C184.803 43.5938 184.248 43.2641 183.755 42.9866Z" fill="white"/>
<path d="M119.103 129.949C117.509 129.081 110.156 125.404 106.596 123.253C103.037 121.101 94.1511 115.177 92.4795 114.171C92.1137 113.936 91.709 113.769 91.2844 113.677C91.1135 114.145 91.0456 114.645 91.0852 115.143C91.1631 117.38 91.6395 121.093 92.7567 122.212C93.8739 123.331 99.3302 126.895 102.283 128.717C105.237 130.538 111.49 134.181 114.833 135.717C116.799 136.584 118.072 136.714 118.973 136.471L119.12 136.341C120.116 135.474 121.579 133.6 121.718 132.568C121.969 131.102 119.103 129.949 119.103 129.949Z" fill="#1B2628"/>
<path d="M114.815 135.717C111.472 134.182 105.202 130.513 102.266 128.717C99.33 126.922 93.8738 123.322 92.7393 122.212C91.6047 121.102 91.1457 117.381 91.0678 115.143C91.0282 114.646 91.0961 114.146 91.2669 113.677C90.3316 113.512 89.8119 114.146 89.8639 115.776C89.9419 118.005 90.4182 121.726 91.5354 122.837C92.6526 123.947 98.1089 127.529 101.062 129.351C104.015 131.172 110.268 134.815 113.612 136.342C116.634 137.721 118.002 137.209 118.955 136.472C118.054 136.715 116.781 136.61 114.815 135.717Z" fill="#5A6567"/>
<path d="M206.489 91.9246C205.992 91.5961 205.42 91.3992 204.827 91.3521C204.142 91.4129 203.787 92.8527 203.961 94.3445C204.134 95.8364 205.797 95.9579 205.797 95.9579C205.797 95.9579 210.361 98.4298 210.993 98.638C211.879 98.7969 212.789 98.7464 213.652 98.4906C214.128 98.2824 214.379 96.9727 214.379 95.8885C214.379 94.8042 214.267 94.4399 213.47 93.9369C212.673 93.4338 208.386 91.222 208.386 91.222C208.386 91.222 206.957 90.8144 206.489 91.9246Z" fill="#BBBBBB"/>
<path d="M205.823 93.9021C205.872 93.1965 206.101 92.5154 206.489 91.9245C205.992 91.5961 205.42 91.3991 204.827 91.3521C204.142 91.4128 203.787 92.8526 203.961 94.3445C204.134 95.8363 205.797 95.9578 205.797 95.9578C205.729 95.2737 205.738 94.5842 205.823 93.9021Z" fill="#414E52"/>
<path d="M205.762 95.9568C205.71 95.3091 205.728 94.6578 205.814 94.0139C205.153 93.7996 204.519 93.5085 203.926 93.1465C203.882 93.553 203.882 93.963 203.926 94.3695C204.064 95.8267 205.762 95.9568 205.762 95.9568Z" fill="#283539"/>
<g style="mix-blend-mode:multiply" opacity="0.15">
<path d="M213.599 98.4894C214.076 98.2812 214.327 96.9715 214.327 95.8873C214.355 95.4904 214.302 95.092 214.171 94.7163C213.14 95.1047 212.165 95.6266 211.27 96.2689C210.873 96.9426 210.681 97.7169 210.715 98.498L210.941 98.6021C211.823 98.7723 212.734 98.7337 213.599 98.4894Z" fill="black"/>
</g>
<path d="M131.453 51.8501L134.371 49.0832C134.347 48.4019 134.239 47.7261 134.051 47.0709C132.663 45.9631 131.217 44.9295 129.721 43.9744C129.721 43.9744 129.236 43.4973 128.456 44.2606C127.677 45.0239 127.59 47.5827 127.72 48.2592C127.841 48.7796 130.344 50.9307 131.453 51.8501Z" fill="#BBBBBB"/>
<g style="mix-blend-mode:multiply" opacity="0.15">
<path d="M131.522 48.2605C131.28 47.7748 128.968 46.1354 127.937 45.4155C127.723 46.3478 127.662 47.3086 127.755 48.2605C127.842 48.7809 130.353 50.932 131.453 51.8514L131.722 51.5999C131.788 50.4828 131.721 49.3617 131.522 48.2605Z" fill="black"/>
</g>
<path d="M134.207 49.2487C133.792 49.0926 133.168 48.9104 132.856 49.1446C132.544 49.3788 132.449 50.3936 132.44 50.8793L134.207 49.2487Z" fill="#414E52"/>
<path d="M250.97 80.3174L258.245 75.9372C258.245 75.9372 258.609 75.7377 258.635 76.3362C258.661 76.9347 258.635 79.8056 258.635 79.8056L256.807 80.8118V79.2072L251.109 82.5032C251.109 82.5032 250.364 82.8501 250.407 81.7919C250.45 80.7337 250.719 80.4649 250.97 80.3174Z" fill="#2E383B"/>
<path d="M250.97 80.6557L258.245 76.3188C258.245 76.3188 258.609 76.1194 258.635 76.7092C258.635 76.553 258.635 76.4142 258.635 76.3362C258.635 75.7377 258.245 75.9372 258.245 75.9372L250.97 80.3174C250.719 80.4649 250.434 80.7684 250.408 81.8266C250.403 81.9046 250.403 81.9828 250.408 82.0608C250.442 81.098 250.728 80.7945 250.97 80.6557Z" fill="#485255"/>
<path style="mix-blend-mode:screen" opacity="0.3" d="M256.808 79.2422L251.109 82.5382V83.8306L256.842 80.4652L256.808 79.2422Z" fill="url(#paint13_linear)"/>
<g style="mix-blend-mode:multiply" opacity="0.2">
<g style="mix-blend-mode:multiply" opacity="0.2">
<path d="M258.523 100.642C258.419 99.3755 259.389 95.4896 260.402 91.3696C261.163 88.573 261.779 85.7386 262.247 82.8781C262.593 79.3479 262.247 69.0001 262.247 68.2282L257.968 63.0933C257.968 62.8851 254.236 42.6147 253.82 39.4227C253.404 36.2308 251.837 35.0859 251.819 35.0338L251.975 34.8257C252.045 34.8864 253.655 36.1528 254.08 39.3881C254.504 42.6234 258.046 62.0698 258.22 63.0066L262.507 68.1588V68.2021C262.507 68.3149 262.862 79.2698 262.507 82.9475C262.041 85.8264 261.423 88.6783 260.653 91.491C259.692 95.3942 258.687 99.4449 258.782 100.677L258.523 100.642Z" fill="black"/>
</g>
</g>
<g style="mix-blend-mode:multiply" opacity="0.2">
<g style="mix-blend-mode:multiply" opacity="0.2">
<path d="M199.483 135.249C198.78 133.907 198.38 132.426 198.314 130.912C198.314 128.804 197.248 110.893 197.205 110.173L194.823 104.284V104.214C196.589 97.5753 199.069 91.148 202.219 85.0453C207.191 75.6603 217.254 59.267 223.083 53.8633L223.256 54.0541C217.454 59.4405 207.407 75.7991 202.471 85.1667C199.335 91.242 196.867 97.6402 195.109 104.249L197.482 110.121C197.482 110.303 198.582 128.743 198.582 130.895C198.654 132.363 199.044 133.799 199.725 135.101L199.483 135.249Z" fill="black"/>
</g>
</g>
<path d="M120.081 135.354L120.532 134.79C116.981 132.96 110.901 129.829 107.541 127.799C103.358 125.266 93.2419 118.544 90.5225 116.844C90.5225 117.156 90.5831 117.469 90.6264 117.79C94.1686 120.054 102.985 125.9 106.813 128.198C110.252 130.306 116.574 133.541 120.081 135.354Z" fill="#404B4D"/>
<path d="M120.896 134.277C121.034 134.077 121.156 133.878 121.268 133.678C117.882 131.944 111.144 128.474 107.541 126.306C103.314 123.704 93.0256 116.903 90.436 115.299V115.438C90.436 115.68 90.436 115.932 90.436 116.201C93.9003 118.395 102.89 124.372 106.779 126.722C110.546 128.986 117.648 132.603 120.896 134.277Z" fill="#404B4D"/>
<path d="M90.6438 113.937C90.5469 114.181 90.4857 114.438 90.4619 114.7C93.9262 116.886 102.925 122.879 106.813 125.238C110.702 127.598 118.713 131.657 121.536 133.131C121.622 132.953 121.683 132.763 121.718 132.568C121.718 132.516 121.718 132.472 121.718 132.429C118.523 130.772 111.326 127.103 107.523 124.822C103.418 122.324 93.5365 115.749 90.6438 113.937Z" fill="#404B4D"/>
<path d="M119.111 136.307C119.276 136.159 119.458 135.986 119.648 135.786C116.037 133.93 110.633 131.128 107.524 129.255C103.436 126.783 93.6664 120.295 90.6958 118.421C90.7478 118.76 90.8084 119.089 90.8777 119.419C94.5758 121.795 103.055 127.416 106.796 129.671C109.957 131.614 115.5 134.485 119.111 136.307Z" fill="#404B4D"/>
<path d="M117.241 136.862C117.657 136.892 118.075 136.839 118.471 136.706C114.946 134.885 110.312 132.456 107.541 130.782C103.6 128.397 94.3765 122.273 91.0854 120.166C91.1748 120.539 91.2876 120.907 91.4232 121.267C95.3379 123.8 103.262 129.073 106.839 131.198C109.455 132.838 113.785 135.076 117.241 136.862Z" fill="#404B4D"/>
<path d="M202.41 12.6801L229.024 29.4984L232.41 26.6881L227.3 14.7445C227.3 14.7445 227.344 14.12 226.434 13.4781L209.018 3.49467C209.018 3.49467 207.797 2.92219 207.06 3.63344C206.489 4.17988 202.41 12.6801 202.41 12.6801Z" fill="#DDDDDD"/>
<path d="M201.83 13.2527L213.088 20.5819L228.998 29.5159L226.504 15.69C226.504 15.69 226.504 15.0741 225.638 14.441L208.221 4.46619C207.751 4.26883 207.233 4.21454 206.732 4.31006C205.943 4.46619 201.83 13.2527 201.83 13.2527Z" fill="#969696"/>
<path d="M201.891 13.1499L213.756 20.5659L229.025 29.4998L232.411 26.6896L232.385 27.1146L228.999 30.0723L213.331 21.1037L201.856 13.8698L201.891 13.1499Z" fill="black"/>
<path d="M210.889 11.4845L209.157 10.409L208.923 16.1076L207.763 15.3877L208.005 9.67169L206.273 8.58748L206.325 7.38184L210.95 10.2702L210.889 11.4845Z" fill="black"/>
<path d="M214.067 17.7617L212.248 16.6255L211.729 17.8745L210.577 17.1459L212.993 11.5254L213.859 12.0632L215.712 20.3552L214.491 19.5919L214.067 17.7617ZM212.612 15.7408L213.885 16.5388L213.504 14.726L213.365 13.529L213.14 14.5091L212.612 15.7408Z" fill="black"/>
<path d="M218.025 18.1878L216.509 13.7642L217.913 14.6315L218.779 17.2336L218.952 18.101L219.177 17.5199L220.216 16.1234L221.481 16.9127L219.627 19.1679L221.282 23.869L219.896 23.0016L218.943 20.2174L218.744 19.35L218.493 19.9485L217.358 21.423L216.094 20.6337L218.025 18.1878Z" fill="black"/>
<path d="M222.503 17.4766L223.663 18.2052L223.377 25.1441L222.217 24.4155L222.503 17.4766Z" fill="black"/>
<path d="M237.252 106.806L243.185 103.302L242.769 97.2651L236.836 100.761L237.252 106.806Z" fill="black"/>
<path d="M219.038 111.248L213.105 114.743L213.521 120.789L219.454 117.293L219.038 111.248Z" fill="black"/>
<path d="M225.387 113.798L231.32 110.294L230.904 104.257L224.971 107.753L225.387 113.798Z" fill="black"/>
<path d="M224.556 101.707L218.623 105.203L219.039 111.248L224.971 107.753L224.556 101.707Z" fill="black"/>
<path d="M212.69 108.706L206.757 112.202L207.173 118.247L213.106 114.752L212.69 108.706Z" fill="black"/>
<path d="M236.42 94.7163L230.488 98.2118L230.904 104.257L236.836 100.762L236.42 94.7163Z" fill="black"/>
<path d="M248.277 87.7236L242.344 91.2191L242.76 97.2647L248.693 93.7692L248.277 87.7236Z" fill="black"/>
</g>
</g>
<defs>
<linearGradient id="paint0_linear" x1="11757.4" y1="9490.66" x2="12226" y2="8617.57" gradientUnits="userSpaceOnUse">
<stop stop-color="#D0D2D4"/>
<stop offset="1" stop-color="#86898B"/>
</linearGradient>
<linearGradient id="paint1_linear" x1="10654.6" y1="8418.55" x2="11042.6" y2="7685.46" gradientUnits="userSpaceOnUse">
<stop stop-color="#B6B8BA"/>
<stop offset="1" stop-color="#6C6F71"/>
</linearGradient>
<linearGradient id="paint2_linear" x1="4686.73" y1="3041.39" x2="4642.56" y2="2959.1" gradientUnits="userSpaceOnUse">
<stop stop-color="#D0D2D4"/>
<stop offset="1" stop-color="#86898B"/>
</linearGradient>
<linearGradient id="paint3_linear" x1="4095.6" y1="3129.39" x2="4125.26" y2="3030.38" gradientUnits="userSpaceOnUse">
<stop stop-color="#F3F5F7"/>
<stop offset="1" stop-color="#86898B"/>
</linearGradient>
<linearGradient id="paint4_linear" x1="1453.65" y1="994.347" x2="1456.95" y2="988.897" gradientUnits="userSpaceOnUse">
<stop stop-color="white"/>
<stop offset="1" stop-color="#BABDBF"/>
</linearGradient>
<linearGradient id="paint5_linear" x1="14775.7" y1="8268.2" x2="13300.4" y2="9734.9" gradientUnits="userSpaceOnUse">
<stop stop-color="white"/>
<stop offset="1"/>
</linearGradient>
<linearGradient id="paint6_linear" x1="281.213" y1="71.6691" x2="323.131" y2="71.6691" gradientUnits="userSpaceOnUse">
<stop/>
<stop offset="0.41" stop-color="white"/>
<stop offset="0.79" stop-color="white"/>
<stop offset="1"/>
</linearGradient>
<linearGradient id="paint7_linear" x1="16027.9" y1="17385.8" x2="18454.9" y2="16860.7" gradientUnits="userSpaceOnUse">
<stop/>
<stop offset="0.41" stop-color="white"/>
<stop offset="0.79" stop-color="white"/>
<stop offset="1"/>
</linearGradient>
<linearGradient id="paint8_linear" x1="105.982" y1="124.866" x2="101.121" y2="132.275" gradientUnits="userSpaceOnUse">
<stop offset="0.17" stop-color="white"/>
<stop offset="1"/>
</linearGradient>
<linearGradient id="paint9_linear" x1="2606.43" y1="9735.02" x2="2694.95" y2="9735.02" gradientUnits="userSpaceOnUse">
<stop stop-color="#FAFFFF"/>
<stop offset="1" stop-color="#D4D7D9"/>
</linearGradient>
<linearGradient id="paint10_linear" x1="1894.15" y1="3492.77" x2="1938.55" y2="3492.77" gradientUnits="userSpaceOnUse">
<stop stop-color="#FAFFFF"/>
<stop offset="1" stop-color="#D4D7D9"/>
</linearGradient>
<linearGradient id="paint11_linear" x1="1567.92" y1="3504.64" x2="1597.4" y2="3504.64" gradientUnits="userSpaceOnUse">
<stop stop-color="#FAFFFF"/>
<stop offset="1" stop-color="#D4D7D9"/>
</linearGradient>
<linearGradient id="paint12_linear" x1="2606.43" y1="9735.02" x2="2694.95" y2="9735.02" gradientUnits="userSpaceOnUse">
<stop stop-color="white"/>
<stop offset="1" stop-color="white"/>
</linearGradient>
<linearGradient id="paint13_linear" x1="3074.25" y1="1622.83" x2="3071.03" y2="1616.75" gradientUnits="userSpaceOnUse">
<stop stop-color="white"/>
<stop offset="1"/>
</linearGradient>
</defs>
</svg>
