<svg width="24" height="24" viewBox="0 0 24 24" fill="none" xmlns="http://www.w3.org/2000/svg">
<g clip-path="url(#clip0_853_52)">
<path d="M16.1201 1.92948L5.22915 7.50547L0.900146 5.37547L11.5991 0.0924765C11.8391 -0.0295234 12.1271 -0.0295234 12.3791 0.0924765L16.1201 1.92948Z" fill="white"/>
<path d="M23.0881 5.37543L12.0061 10.8654L7.8561 8.82044L7.2561 8.51544L18.1591 2.94043L18.7591 3.24443L23.0881 5.37543Z" fill="white"/>
<path d="M11.118 12.447L11.106 24L0.492 18.461C0.192 18.303 0 17.986 0 17.645V6.95703L4.498 9.17303V13.069C4.498 13.568 4.906 13.982 5.398 13.982C5.89 13.982 6.298 13.568 6.298 13.069V10.074L6.898 10.366L11.118 12.447Z" fill="white"/>
<path d="M23.988 6.96875L12.918 12.4348L12.906 23.9878L24 18.1947L23.988 6.96875Z" fill="white"/>
</g>
<defs>
<clipPath id="clip0_853_52">
<rect width="24" height="24" fill="white"/>
</clipPath>
</defs>
</svg>
