<svg width="56" height="56" viewBox="0 0 56 56" fill="none" xmlns="http://www.w3.org/2000/svg">
<path d="M25.9112 7.47768C23.0507 7.7672 21.3903 8.0668 19.4303 8.66656C16.2165 9.63088 13.174 11.2162 10.7531 13.1656C9.61744 14.0762 7.8176 15.983 7.03584 17.0862C5.32168 19.5177 4.2616 22.4207 4.04712 25.2706L3.97208 26.2668H28H52.0279L51.9529 25.2706C51.7384 22.4207 50.6783 19.507 48.9642 17.0968C48.1606 15.9718 46.3826 14.0762 45.2575 13.1762C41.6903 10.2945 37.0625 8.37704 31.9631 7.66976C30.8711 7.5208 26.7786 7.392 25.9112 7.47768ZM21.8187 12.9198C22.4722 13.2412 22.7506 13.5733 22.8256 14.1518C22.9006 14.6983 22.5254 15.2018 21.7756 15.587C20.351 16.3156 18.4548 15.9298 17.8763 14.7941C17.0626 13.2306 19.7943 11.9235 21.8187 12.9198ZM35.5309 12.9198C36.1844 13.2412 36.4627 13.5733 36.5378 14.1518C36.6022 14.6765 36.2482 15.1693 35.4984 15.5977C34.9737 15.8978 34.813 15.9298 33.9987 15.9298C33.1845 15.9298 33.0238 15.8978 32.499 15.6083C30.9137 14.7403 31.1388 13.2944 32.9599 12.7053C33.6672 12.4701 34.8236 12.5664 35.5309 12.9198ZM14.1058 19.7758C14.7594 20.0973 15.0377 20.4294 15.1127 21.0078C15.1878 21.565 14.8126 22.0578 14.0202 22.465C13.4736 22.7433 13.281 22.7864 12.5311 22.7864C11.1384 22.7864 10.1853 22.2186 10.0352 21.2974C9.79944 19.8296 12.306 18.8866 14.1058 19.7758ZM29.5316 19.7758C30.1851 20.0973 30.4634 20.4294 30.5385 21.0078C30.6029 21.5326 30.249 22.0254 29.4991 22.4538C28.9744 22.7539 28.8137 22.7858 27.9994 22.7858C27.2177 22.7858 27.0032 22.7427 26.4785 22.4857C25.5573 22.0354 25.2252 21.3181 25.5892 20.5464C26.0932 19.4975 28.1394 19.0904 29.5316 19.7758ZM44.9579 19.7758C45.6115 20.0973 45.8898 20.4294 45.9648 21.0078C46.0292 21.5326 45.6753 22.0254 44.9254 22.4538C44.4002 22.7539 44.24 22.7858 43.4258 22.7858C42.644 22.7858 42.4295 22.7427 41.9048 22.4857C40.9836 22.0354 40.6515 21.3181 41.0155 20.5464C41.519 19.4975 43.5652 19.0904 44.9579 19.7758Z" fill="white"/>
<path d="M2.12912 29.9527C1.4868 30.2529 1.09032 30.66 0.800803 31.3023C0.479363 32.0096 0.479363 34.2373 0.800803 34.9446C1.08976 35.5874 1.48624 35.9945 2.12912 36.2941L2.66448 36.5512H28H53.335L53.8703 36.2941C54.5132 35.994 54.9097 35.5869 55.1986 34.9446C55.5201 34.2373 55.5201 32.0091 55.1986 31.3023C54.9091 30.6595 54.5132 30.2523 53.8703 29.9527C53.3562 29.7063 53.2381 29.6957 50.9242 29.6957H48.5139L45.9749 32.2347L43.4252 34.7844L40.8755 32.2347L38.3376 29.6957H20.5016H2.66504L2.12912 29.9527Z" fill="white"/>
<path d="M4.004 43.2147C4.004 46.4072 4.01464 46.471 4.26104 46.9963C4.5612 47.6392 4.96832 48.0357 5.61064 48.3246C6.0928 48.5391 6.18912 48.5498 27.9994 48.5498H49.9066L50.4426 48.2927C51.0854 47.9926 51.4819 47.586 51.7709 46.9431C51.9742 46.4929 51.996 46.247 51.996 43.2152V39.9801H28H4.004V43.2147Z" fill="white"/>
</svg>
