<svg width="120" height="120" viewBox="0 0 120 120" fill="none" xmlns="http://www.w3.org/2000/svg">
<circle cx="60" cy="60" r="60" fill="#76D355"/>
<path d="M87.8352 48.4329L55.5288 80.9577C54.7224 81.7697 53.4064 81.7697 52.5944 80.9577L51.9392 80.3025V80.3081L51.2336 79.5913L48.1872 76.5281C48.1704 76.5057 48.1648 76.4777 48.1424 76.4609L34.1704 62.2873C33.3584 61.4697 33.3584 60.1481 34.1704 59.3305L38.572 54.8953C39.384 54.0777 40.6944 54.0777 41.5064 54.8953L54.0728 67.6353L80.488 41.0409C81.3 40.2233 82.6104 40.2233 83.428 41.0409L87.8352 45.4761C88.6416 46.2937 88.6416 47.6153 87.8352 48.4329Z" fill="white"/>
</svg>
