<svg width="72" height="72" viewBox="0 0 72 72" fill="none" xmlns="http://www.w3.org/2000/svg">
<g clip-path="url(#clip0_2699_73)">
<path d="M64.2009 62.4149H61.1784V47.0566C61.1784 46.652 60.85 46.3239 60.4452 46.3239H57.0339V34.5887L57.391 34.7365C57.5746 34.8123 57.7643 34.8483 57.9512 34.8483C58.5261 34.8483 59.0719 34.5075 59.3056 33.9432L61.3913 28.9062C61.5397 28.5469 61.5397 28.1436 61.391 27.7845C61.2422 27.4254 60.957 27.1403 60.5977 26.9916L28.9236 13.877C30.0812 11.6693 31.1214 9.42013 32.0155 7.19242C32.3145 6.44704 31.9581 5.59984 31.2162 5.29283L18.7042 0.111893C17.9628 -0.195426 17.1111 0.151774 16.796 0.890433C13.6979 8.14519 11.6996 16.2307 10.5071 26.336C10.4302 26.9875 10.7958 27.6107 11.4022 27.8618L16.7648 30.082C17.3702 30.3328 18.0695 30.1506 18.476 29.6356C20.802 26.6858 22.8102 23.9153 24.6148 21.1656L30.9458 23.7869L30.6342 25.9443L29.6904 32.4789L25.3677 62.4149H15.249H7.79926C6.99007 62.4149 6.33398 63.0706 6.33398 63.8801V70.5348C6.33398 71.344 6.99007 72.0001 7.79926 72.0001H64.2009C65.0101 72.0001 65.6662 71.344 65.6662 70.5348V63.8801C65.6662 63.0706 65.0101 62.4149 64.2009 62.4149ZM54.1034 46.3239H50.692C50.287 46.3239 49.9589 46.652 49.9589 47.0566V62.4149H46.6323L42.3094 32.4789L41.6974 28.2387L54.1029 33.3754V46.3239H54.1034ZM39.6287 36.3988L34.4788 32.5572L38.5743 29.0957L39.6287 36.3988ZM37.9096 39.1254L31.3782 43.2782L32.5548 35.1307L37.9096 39.1254ZM40.3486 41.3833L41.9218 52.2799L33.4443 45.773L40.3486 41.3833ZM34.0637 62.4149L42.5025 56.3002L43.3855 62.4149H34.0637ZM36.9406 26.2689L33.4024 29.2588L34.0094 25.0552L36.9406 26.2689ZM30.7332 47.743L39.5232 54.4901L28.6181 62.3914L30.7332 47.743Z" fill="white"/>
</g>
<defs>
<clipPath id="clip0_2699_73">
<rect width="72" height="72" fill="white"/>
</clipPath>
</defs>
</svg>
