<svg width="24" height="24" viewBox="0 0 24 24" fill="none" xmlns="http://www.w3.org/2000/svg">
<path d="M14.5781 0.0458984V4.68755H19.2198C18.9043 2.27635 16.9893 0.361367 14.5781 0.0458984Z" fill="white"/>
<path d="M9.29712 13.9389H10.2015L9.75139 12.7461L9.29712 13.9389Z" fill="white"/>
<path d="M19.2656 9.9375H0.984375V16.9688H19.2656V9.9375ZM6.80161 12.0469H6.23072V15.3281C6.23072 15.587 6.02081 15.7969 5.76197 15.7969C5.50312 15.7969 5.29322 15.587 5.29322 15.3281V12.0469H4.73067C4.47183 12.0469 4.26192 11.837 4.26192 11.5781C4.26192 11.3193 4.47183 11.1094 4.73067 11.1094H6.80161C7.06045 11.1094 7.27036 11.3193 7.27036 11.5781C7.27036 11.837 7.06045 12.0469 6.80161 12.0469ZM11.3926 15.7667C11.1504 15.8581 10.8799 15.7358 10.7885 15.4936L10.5555 14.8761H8.94014L8.70441 15.495C8.61225 15.7369 8.34145 15.8584 8.09953 15.7662C7.85761 15.6741 7.73616 15.4033 7.82831 15.1613L9.23644 11.4642C9.25913 11.4047 9.29522 11.3453 9.34463 11.2858C9.43973 11.1714 9.58402 11.1095 9.7328 11.1095C9.94687 11.1095 10.1461 11.225 10.2468 11.4139C10.2571 11.4333 10.264 11.4486 10.2703 11.4654L11.6656 15.1627C11.7571 15.4048 11.6348 15.6753 11.3926 15.7667ZM15.789 15.7115C15.5773 15.8604 15.2849 15.8096 15.1359 15.5978L14.1064 14.1343L13.0752 15.5981C12.9261 15.8097 12.6337 15.8604 12.422 15.7113C12.2104 15.5622 12.1597 15.2698 12.3088 15.0582L13.5334 13.3198L12.498 11.8478C12.349 11.6361 12.3999 11.3437 12.6117 11.1947C12.8235 11.0458 13.1159 11.0967 13.2648 11.3085L14.107 12.5056L14.9505 11.3082C15.0997 11.0965 15.3921 11.0458 15.6038 11.1949C15.8154 11.344 15.8661 11.6364 15.717 11.8481L14.68 13.3201L15.9028 15.0584C16.0517 15.2702 16.0008 15.5626 15.789 15.7115Z" fill="white"/>
<path d="M19.2656 6.09375H13.875C13.4867 6.09375 13.1719 5.77894 13.1719 5.39062V0H1.6875C1.29919 0 0.984375 0.314812 0.984375 0.703125V8.53125H19.2656V6.09375ZM11.0625 7.03125H4.5C4.11169 7.03125 3.79688 6.71644 3.79688 6.32812C3.79688 5.93981 4.11169 5.625 4.5 5.625H11.0625C11.4508 5.625 11.7656 5.93981 11.7656 6.32812C11.7656 6.71644 11.4508 7.03125 11.0625 7.03125ZM11.0625 4.21875H4.5C4.11169 4.21875 3.79688 3.90394 3.79688 3.51562C3.79688 3.12731 4.11169 2.8125 4.5 2.8125H11.0625C11.4508 2.8125 11.7656 3.12731 11.7656 3.51562C11.7656 3.90394 11.4508 4.21875 11.0625 4.21875Z" fill="white"/>
<path d="M22.3125 13.2188H20.6719V22.8281C20.6719 23.4753 21.1965 24 21.8438 24C22.491 24 23.0156 23.4753 23.0156 22.8281V13.9219C23.0156 13.5336 22.7008 13.2188 22.3125 13.2188Z" fill="white"/>
<path d="M19.2656 18.375H0.984375V21.4219C0.984375 22.8457 2.13863 24 3.5625 24H19.5485C19.3681 23.6481 19.2656 23.25 19.2656 22.8281V18.375ZM15.75 21.1875H4.5C4.11169 21.1875 3.79688 20.8727 3.79688 20.4844C3.79688 20.0961 4.11169 19.7812 4.5 19.7812H15.75C16.1383 19.7812 16.4531 20.0961 16.4531 20.4844C16.4531 20.8727 16.1383 21.1875 15.75 21.1875Z" fill="white"/>
</svg>
