<svg width="72" height="72" viewBox="0 0 72 72" fill="none" xmlns="http://www.w3.org/2000/svg">
<path d="M0 35.6254V43.4233C0 44.7691 1.09094 45.86 2.43673 45.86H8.95544C10.1761 49.0788 13.2903 51.374 16.9318 51.374C20.5734 51.374 23.6877 49.0792 24.9083 45.86H48.3917C49.6125 49.0788 52.7266 51.374 56.3683 51.374C60.0099 51.374 63.1242 49.0792 64.3448 45.86H66.9025C69.947 45.86 71.4347 44.5453 71.8082 43.3109C72.7531 40.1873 69.9019 34.5596 69.8582 34.5053C69.4657 34.0168 68.9002 33.6984 68.2791 33.616L53.2237 30.8878C53.2237 30.8878 44.7294 22.7673 39.6915 22.7673L36.6692 22.7684L35.8994 21.3572C35.6531 20.9058 35.1801 20.625 34.6661 20.625H27.9846C27.4704 20.625 26.9973 20.9058 26.7512 21.3572L25.9793 22.7723L22.7148 22.7735C19.4233 22.7735 16.6726 25.2815 13.4875 28.1855C11.9867 29.5538 10.3296 31.0598 8.50197 32.3991L1.69582 33.3043C0.712537 33.6178 0 34.538 0 35.6254ZM53.1193 42.8455C53.1193 41.0537 54.5768 39.5963 56.3684 39.5963C58.1601 39.5963 59.6176 41.0537 59.6176 42.8455C59.6176 44.6371 58.1601 46.0946 56.3684 46.0946C54.5768 46.0946 53.1193 44.6368 53.1193 42.8455ZM37.8969 37.9167H41.6907V34.1232H45.484V37.9167H41.6907V41.7103H37.8969V37.9167ZM34.1032 34.123H37.8968V37.9166H34.1032V34.123ZM26.516 34.123H30.3095V37.9166H34.1032V41.7099H30.3095V37.9166H26.516V34.123ZM13.6828 42.8455C13.6828 41.0537 15.1405 39.5963 16.932 39.5963C18.7236 39.5963 20.1811 41.0537 20.1811 42.8455C20.1811 44.6371 18.7236 46.0946 16.932 46.0946C15.1405 46.0943 13.6828 44.6368 13.6828 42.8455Z" fill="white"/>
</svg>
