<svg width="56" height="56" viewBox="0 0 56 56" fill="none" xmlns="http://www.w3.org/2000/svg">
<path d="M23.5782 0.821526C11.8507 2.79832 2.73392 11.9538 0.83328 23.6622C0.46872 25.8888 0.46872 30.0922 0.83328 32.2997C2.02328 39.536 5.86208 45.7929 11.8698 50.227C13.8466 51.7048 17.8965 53.7012 20.2194 54.3726C25.2095 55.7928 30.8336 55.7928 35.7666 54.3726C37.59 53.835 40.8531 52.3762 42.4844 51.3402C49.2598 47.0982 53.9622 39.9963 55.1522 32.2039C55.3056 31.206 55.44 29.2482 55.44 27.8852C55.44 23.4707 54.6336 20.0155 52.6758 15.9852C48.6836 7.82768 41.2552 2.28088 32.3114 0.822083C30.2193 0.476002 25.5937 0.476006 23.5782 0.821526ZM30.2002 6.48368C37.7815 7.3668 43.9813 11.7236 47.3788 18.5377C48.2233 20.2266 49.0297 22.6834 49.2212 24.1231L49.3556 25.102H41.659H33.9814L33.5782 24.4496C32.657 22.9718 30.9294 21.8198 29.1441 21.4939C26.5916 21.033 23.7698 22.2617 22.4073 24.4496L22.0041 25.102H14.3461H6.68752V24.6607C6.68752 24.411 6.86056 23.5474 7.05208 22.7416C9.29768 13.9894 16.6488 7.53984 25.555 6.50384C27.5324 6.27256 28.2615 6.27256 30.2002 6.48368ZM29.2981 25.6777C31.1024 26.7719 31.1024 29.19 29.2981 30.2842C27.0525 31.6467 24.327 28.9218 25.6894 26.6756C26.1884 25.8692 27.1482 25.2935 27.9927 25.2935C28.3573 25.2935 28.9526 25.4666 29.2981 25.6777ZM22.6184 31.7621C22.983 32.261 23.7126 32.9902 24.2116 33.3553L25.1138 34.0273V41.6858V49.3438L24.1349 49.2094C21.9083 48.9026 18.3193 47.4628 16.016 45.9273C13.8852 44.5071 11.4671 42.0885 10.0464 39.9582C8.51088 37.6544 7.07168 34.0654 6.76424 31.8388L6.62984 30.8599H14.2884H21.9464L22.6184 31.7621ZM49.2212 31.8388C49.0291 33.2786 48.2042 35.7353 47.3402 37.4629C45.229 41.7239 41.7357 45.2172 37.4746 47.3474C35.747 48.1919 33.2909 49.0174 31.8511 49.2089L30.8722 49.3433V41.6853V34.0267L31.7744 33.3547C32.2734 32.9902 33.003 32.2605 33.3676 31.7615L34.0396 30.8594H41.6982H49.3562L49.2212 31.8388Z" fill="white"/>
</svg>
