<svg width="300" height="300" viewBox="0 0 300 300" fill="none" xmlns="http://www.w3.org/2000/svg">
<path d="M150 3C68.82 3 3 68.82 3 150C3 231.18 68.82 297 150 297C231.18 297 297 231.18 297 150C297 68.82 231.18 3 150 3ZM150 265.41C86.34 265.41 34.59 213.63 34.59 150C34.59 86.37 86.34 34.59 150 34.59C213.63 34.59 265.44 86.37 265.44 150C265.44 213.63 213.63 265.41 150 265.41Z" fill="white" fill-opacity="1"/>
<path d="M150 47.7598C93.5098 47.7598 47.7598 93.5398 47.7598 150C47.7598 206.46 93.5398 252.24 150 252.24C206.49 252.24 252.24 206.46 252.24 150C252.24 93.5398 206.49 47.7598 150 47.7598ZM224.52 181.71C224.43 181.65 224.34 181.53 224.28 181.47L187.23 156.99C187.65 154.71 187.95 152.37 187.95 149.97C187.95 147.57 187.68 145.23 187.23 142.95L224.28 118.5C224.37 118.44 224.43 118.32 224.52 118.26C228.66 128.01 231 138.72 231 150C231 161.25 228.66 171.96 224.52 181.71ZM214.17 100.77C214.14 100.77 214.08 100.8 214.02 100.8L174.27 121.11C170.91 118.26 167.07 115.98 162.84 114.45L160.56 69.9298C160.56 69.8698 160.5 69.7798 160.5 69.7198C182.31 72.5998 201.39 84.1198 214.17 100.77ZM149.97 168.03C140.01 168.03 131.94 159.96 131.94 150C131.94 140.04 140.01 131.97 149.97 131.97C159.93 131.97 167.97 140.04 167.97 150C168 159.96 159.93 168.03 149.97 168.03ZM140.16 69.6598C140.16 69.7498 140.1 69.8698 140.07 69.9598L137.43 114.39C132.93 115.98 128.91 118.35 125.37 121.35L85.5598 101.43C85.4998 101.4 85.4098 101.4 85.3498 101.37C98.2798 84.2398 117.81 72.3598 140.16 69.6598ZM75.1798 119.01C75.2398 119.04 75.2698 119.13 75.3298 119.16L112.71 143.37C112.35 145.53 112.05 147.72 112.05 150C112.05 152.28 112.35 154.5 112.74 156.66L75.3598 180.87C75.2998 180.9 75.2698 180.99 75.2098 181.02C71.2198 171.45 68.9998 160.98 68.9998 150C68.9998 139.02 71.2198 128.58 75.1798 119.01ZM85.3798 198.63C85.4398 198.6 85.5298 198.6 85.5898 198.57L125.4 178.68C128.94 181.71 132.96 184.08 137.46 185.64L140.1 230.07C140.1 230.16 140.16 230.28 140.16 230.37C117.81 227.64 98.3098 215.79 85.3798 198.63ZM160.53 230.25C160.53 230.19 160.59 230.13 160.59 230.07L162.9 185.55C167.1 183.99 170.94 181.74 174.33 178.89L214.05 199.2C214.08 199.2 214.14 199.23 214.17 199.23C201.39 215.88 182.31 227.4 160.53 230.25Z" fill="white" fill-opacity=".5"/>
</svg>
