<svg width="72" height="72" viewBox="0 0 72 72" fill="none" xmlns="http://www.w3.org/2000/svg">
<path d="M59.9402 58.0461H62.4602C65.081 58.0461 66.8738 56.2965 66.8738 53.6325V7.74693C66.8738 5.08293 64.7498 2.92293 62.1218 2.92293H51.2498C50.789 1.64133 49.565 0.719727 48.125 0.719727H23.8754C22.4354 0.719727 21.2114 1.64133 20.7578 2.92293H9.88581C7.26501 2.92293 5.13381 5.08293 5.13381 7.74693V53.6397C5.13381 56.3037 6.91941 58.0533 9.54021 58.0533H12.0602L0.720215 71.2797H71.2802L59.9402 58.0461ZM17.1002 66.8733L18.677 64.6701H54.5834L56.477 66.8733H17.1002ZM21.8234 60.2565L23.4002 58.0533H48.917L50.8106 60.2565H21.8234ZM13.9466 42.6165C11.2826 42.6165 9.53301 40.8741 9.53301 38.2101V18.3597C9.53301 15.6957 11.2826 13.9461 13.9466 13.9461H58.0466C60.7106 13.9461 62.4602 15.6957 62.4602 18.3597V38.2029C62.4602 40.8669 60.7106 42.6165 58.0466 42.6165H13.9466Z" fill="white"/>
</svg>
