<svg width="16" height="16" viewBox="0 0 16 16" fill="none" xmlns="http://www.w3.org/2000/svg">
<circle cx="8" cy="8" r="8" fill="white"/>
<g clip-path="url(#clip0)">
<path d="M7.99991 2C5.47357 2 2.94727 2.3158 2.94727 4.52631V10.5263C2.94727 11.7453 3.93884 12.7369 5.1578 12.7369L4.21043 13.6842V14H5.61885L6.88202 12.7369H9.26308L10.5262 14H11.7894V13.6842L10.842 12.7368C12.061 12.7368 13.0526 11.7453 13.0526 10.5263V4.52631C13.0525 2.3158 10.7915 2 7.99991 2ZM5.1578 11.4737C4.63358 11.4737 4.21043 11.0505 4.21043 10.5263C4.21043 10.0021 4.63358 9.57895 5.1578 9.57895C5.68202 9.57895 6.10517 10.0021 6.10517 10.5263C6.10517 11.0505 5.68199 11.4737 5.1578 11.4737ZM7.36831 7.05265H4.21043V4.52631H7.36834V7.05265H7.36831ZM10.842 11.4737C10.3178 11.4737 9.89465 11.0505 9.89465 10.5263C9.89465 10.0021 10.3178 9.57895 10.842 9.57895C11.3662 9.57895 11.7894 10.0021 11.7894 10.5263C11.7894 11.0505 11.3662 11.4737 10.842 11.4737ZM11.7894 7.05265H8.63148V4.52631H11.7894V7.05265Z" fill="black"/>
</g>
<defs>
<clipPath id="clip0">
<rect width="12" height="12" fill="white" transform="translate(2 2)"/>
</clipPath>
</defs>
</svg>
