<svg width="25" height="38" viewBox="0 0 25 38" fill="none" xmlns="http://www.w3.org/2000/svg">
<circle cx="12.5" cy="12.5" r="12.5" fill="white"/>
<path d="M13 38L1 17.5H24L13 38Z" fill="white"/>
<g clip-path="url(#clip0)">
<path d="M12 5C8.63158 5 5.26317 5.42107 5.26317 8.36841V16.3684C5.26317 17.9937 6.58526 19.3158 8.21055 19.3158L6.94739 20.579V21H8.82528L10.5095 19.3158H13.6843L15.3684 21H17.0527V20.5789L15.7895 19.3158C17.4148 19.3158 18.7369 17.9937 18.7369 16.3684V8.36841C18.7369 5.42107 15.7221 5 12 5ZM8.21055 17.6316C7.51159 17.6316 6.94739 17.0674 6.94739 16.3684C6.94739 15.6695 7.51159 15.1053 8.21055 15.1053C8.90951 15.1053 9.47371 15.6695 9.47371 16.3684C9.47371 17.0674 8.90947 17.6316 8.21055 17.6316ZM11.1579 11.7369H6.94739V8.36841H11.1579V11.7369H11.1579ZM15.7895 17.6316C15.0905 17.6316 14.5263 17.0674 14.5263 16.3684C14.5263 15.6695 15.0905 15.1053 15.7895 15.1053C16.4885 15.1053 17.0527 15.6695 17.0527 16.3684C17.0527 17.0674 16.4884 17.6316 15.7895 17.6316ZM17.0527 11.7369H12.8421V8.36841H17.0527V11.7369Z" fill="black"/>
</g>
<defs>
<clipPath id="clip0">
<rect width="16" height="16" fill="white" transform="translate(4 5)"/>
</clipPath>
</defs>
</svg>
