<svg width="72" height="72" viewBox="0 0 72 72" fill="none" xmlns="http://www.w3.org/2000/svg">
<path d="M27.1803 58.0461V25.7109C27.1803 25.2789 27.0435 24.9333 26.7699 24.6525C26.4963 24.3789 26.1435 24.2421 25.7115 24.2421H22.7739C22.3419 24.2421 21.9963 24.3789 21.7155 24.6525C21.4419 24.9261 21.3051 25.2789 21.3051 25.7109V58.0533C21.3051 58.4853 21.4419 58.8309 21.7155 59.1117C21.9891 59.3853 22.3419 59.5221 22.7739 59.5221H25.7115C26.1435 59.5221 26.4891 59.3853 26.7699 59.1117C27.0435 58.8309 27.1803 58.4781 27.1803 58.0461ZM38.9379 58.0461V25.7109C38.9379 25.2789 38.8011 24.9333 38.5275 24.6525C38.2539 24.3789 37.9011 24.2421 37.4691 24.2421H34.5315C34.0995 24.2421 33.7539 24.3789 33.4731 24.6525C33.1995 24.9261 33.0627 25.2789 33.0627 25.7109V58.0533C33.0627 58.4853 33.1995 58.8309 33.4731 59.1117C33.7467 59.3853 34.0995 59.5221 34.5315 59.5221H37.4691C37.9011 59.5221 38.2467 59.3853 38.5275 59.1117C38.8011 58.8309 38.9379 58.4781 38.9379 58.0461ZM50.7027 58.0461V25.7109C50.7027 25.2789 50.5659 24.9333 50.2923 24.6525C50.0187 24.3789 49.6659 24.2421 49.2339 24.2421H46.2963C45.8643 24.2421 45.5187 24.3789 45.2379 24.6525C44.9643 24.9261 44.8275 25.2789 44.8275 25.7109V58.0533C44.8275 58.4853 44.9643 58.8309 45.2379 59.1117C45.5115 59.3853 45.8643 59.5221 46.2963 59.5221H49.2339C49.6659 59.5221 50.0115 59.3853 50.2923 59.1117C50.5659 58.8309 50.7027 58.4781 50.7027 58.0461ZM25.7115 12.4773H46.2891L44.0859 7.10613C43.8699 6.83253 43.6107 6.65973 43.3083 6.60213H28.7427C28.4331 6.66693 28.1739 6.83253 27.9651 7.10613L25.7115 12.4773ZM68.3427 13.9461V16.8837C68.3427 17.3157 68.2059 17.6613 67.9323 17.9421C67.6587 18.2157 67.3059 18.3525 66.8739 18.3525H62.4603V61.8981C62.4603 64.4397 61.7403 66.6357 60.3003 68.4933C58.8603 70.3437 57.1323 71.2725 55.1091 71.2725H16.8914C14.8682 71.2725 13.1402 70.3797 11.7002 68.5869C10.2602 66.7941 9.54024 64.6269 9.54024 62.0853V18.3597H5.13384C4.70184 18.3597 4.35624 18.2229 4.07544 17.9493C3.80184 17.6757 3.66504 17.3229 3.66504 16.8909V13.9533C3.66504 13.5213 3.80184 13.1757 4.07544 12.8949C4.34904 12.6213 4.70184 12.4845 5.13384 12.4845H19.3251L22.5435 4.81653C23.0043 3.68613 23.8323 2.72133 25.0275 1.92213C26.2155 1.11573 27.4251 0.719727 28.6491 0.719727H43.3515C44.5755 0.719727 45.7851 1.11573 46.9803 1.91493C48.1755 2.71413 49.0035 3.67893 49.4643 4.80933L52.6827 12.4773H66.8739C67.3059 12.4773 67.6515 12.6141 67.9323 12.8877C68.2059 13.1685 68.3427 13.5213 68.3427 13.9461Z" fill="white"/>
</svg>
