<svg width="72" height="72" viewBox="0 0 72 72" fill="none" xmlns="http://www.w3.org/2000/svg">
<path d="M14.3987 1.19116L13.93 1.65988V10.0191V18.3783H13.0336C11.999 18.3783 11.4338 18.613 11.1991 19.1372C11.0745 19.3992 11.0335 21.8544 11.0335 28.7103V37.9112L10.0406 38.1732C7.8057 38.7248 7.35066 38.9184 6.63354 39.5664C6.23322 39.925 5.77818 40.5183 5.55786 40.9733L5.16978 41.7596L5.12874 46.436L5.08698 51.0987L4.78386 51.0022C4.61826 50.9475 4.16322 50.8784 3.7629 50.8366C3.1005 50.7675 3.0177 50.7956 2.6181 51.1815L2.2041 51.5955V56.5203C2.2041 60.5897 2.24514 61.4998 2.41074 61.831C2.63178 62.2587 2.82474 62.3415 6.01074 63.4035L7.96914 64.0515L8.02458 66.0106C8.08002 67.6112 8.13474 68.0936 8.38314 68.6177C8.78346 69.5278 9.8037 70.5624 10.6591 70.9491C11.3351 71.2522 11.5418 71.2803 13.9286 71.2803C16.3147 71.2803 16.522 71.2666 17.2118 70.9491C18.1219 70.5351 19.1983 69.3903 19.5158 68.4939C19.6396 68.1353 19.7779 67.2936 19.8196 66.632L19.9024 65.418H36.0002H52.098L52.1808 66.7148C52.2225 67.5701 52.3464 68.2318 52.5256 68.6458C52.926 69.5285 53.9462 70.5632 54.8016 70.9491C55.4776 71.2522 55.6843 71.2803 58.0711 71.2803C60.4572 71.2803 60.6645 71.2666 61.3543 70.9491C62.2507 70.5495 63.3271 69.3903 63.6583 68.4939C63.8239 68.0388 63.9204 67.2526 63.9614 65.9422L64.0305 64.0522L66.5412 63.2105C67.907 62.7555 69.1346 62.3004 69.2584 62.2032C69.7689 61.8173 69.7963 61.5408 69.7963 56.5203V51.5955L69.3823 51.1815C68.982 50.7956 68.8992 50.7675 68.2375 50.8366C67.8372 50.8784 67.3821 50.9468 67.2165 51.0022L66.9134 51.0987L66.8716 46.436L66.8306 41.7596L66.4447 40.9733C66.2236 40.5183 65.7686 39.925 65.369 39.5664C64.6519 38.9184 64.1968 38.7248 61.9756 38.1732L60.9684 37.9112V28.7103C60.9684 21.799 60.9266 19.4129 60.8028 19.1372C60.568 18.613 60.0165 18.3783 58.9682 18.3783H58.0718V10.0191V1.65988L57.6031 1.19116C56.927 0.515083 56.0306 0.570518 55.4236 1.3294C55.2033 1.59148 55.1752 2.26756 55.1752 9.99244C55.1752 17.2896 55.1479 18.379 54.9686 18.379C54.8448 18.379 54.6928 18.1032 54.5546 17.6482C54.4444 17.2623 53.8238 15.1102 53.1888 12.889C52.3752 10.0608 51.9475 8.75044 51.7401 8.53012C51.1749 7.92316 48.5397 7.30252 44.9671 6.91588C43.7395 6.77764 41.1324 6.72292 35.8627 6.72292C29.5864 6.72292 28.1796 6.76395 26.4825 6.97131C23.0063 7.39899 20.7995 7.95052 20.261 8.53012C20.0543 8.75116 19.6267 10.0616 18.8123 12.889C18.178 15.1095 17.5574 17.2616 17.4465 17.6482C17.3083 18.1032 17.1571 18.379 17.0325 18.379C16.8532 18.379 16.8259 17.3033 16.8259 10.1026C16.8259 3.99196 16.7848 1.74339 16.6603 1.48132C16.4673 1.03996 15.8877 0.722435 15.2944 0.722435C14.9913 0.721718 14.7292 0.859962 14.3987 1.19116ZM34.4832 13.951V18.338L33.0071 18.4344C30.0415 18.6274 25.2686 19.4417 21.4202 20.4346L19.8614 20.8349V20.3662C19.8614 20.0076 21.2956 14.6969 22.4275 10.9032C22.5239 10.5857 23.1035 10.4345 25.4486 10.1033C27.6143 9.7858 30.125 9.60652 32.7321 9.56548L34.4839 9.5518V13.951H34.4832ZM42.4838 9.68788C44.7597 9.8398 48.0292 10.2538 48.9948 10.5159C49.2705 10.5987 49.5326 10.7643 49.5744 10.9018C50.7055 14.6955 52.1397 20.0062 52.1397 20.3648V20.8335L50.5946 20.4332C46.7325 19.4403 41.9596 18.626 39.0076 18.433L37.518 18.3365V13.9496V9.54892H38.8701C39.6002 9.55036 41.2281 9.61948 42.4838 9.68788ZM39.8759 24.5861C42.635 25.1513 47.6426 26.9312 51.0079 28.5454C52.6221 29.3043 53.9325 30.5319 54.6223 31.9388C55.1601 33.0425 55.1191 33.6077 54.4704 34.16C53.6424 34.8634 52.6912 34.5459 52.0699 33.3464C51.311 31.8977 50.4974 31.4016 46.276 29.7183C43.5724 28.6426 41.1028 27.842 39.3511 27.4971C37.6267 27.1385 34.1779 27.0968 32.3987 27.4143C30.2056 27.7865 26.6193 29.0141 22.5499 30.7666C21.4879 31.2216 20.4532 31.6356 20.2459 31.6911C20.0255 31.7465 19.7491 31.9805 19.5835 32.257C19.4179 32.5464 19.1003 32.8222 18.7972 32.9468C18.3422 33.1397 18.2457 33.1397 17.8454 32.9468C16.8381 32.478 16.6869 31.3052 17.4731 30.1877C17.9419 29.5253 18.1766 29.3878 21.9285 27.8153C25.391 26.3667 29.1983 25.07 31.2259 24.643C33.3794 24.1995 37.8211 24.1721 39.8759 24.5861ZM39.5592 33.414C43.2146 34.1866 45.808 35.5798 46.2076 37.0148C46.2904 37.2905 46.3459 40.794 46.3459 45.9255V54.3675L46.8427 54.0363L47.3532 53.6914H53.6157C59.2303 53.6914 59.9337 53.7188 60.2786 53.9261C61.0785 54.3948 61.2168 55.526 60.568 56.1884L60.1684 56.5887H54.3336H48.4987L47.1055 57.9682C46.3329 58.7134 45.533 59.4032 45.3256 59.4852C44.8015 59.6782 27.2003 59.6782 26.6762 59.4852C26.4695 59.4024 25.6689 58.7127 24.8971 57.9682L23.5039 56.5887H17.669H11.8341L11.4338 56.1884C10.744 55.4849 10.937 54.2984 11.8204 53.8433C12.0271 53.7332 14.0409 53.6914 18.3861 53.6914H24.6487L25.1591 54.0363L25.6559 54.3675V45.9255C25.6559 40.6839 25.7114 37.2905 25.7942 36.9867C25.9735 36.366 27.0081 35.3724 27.9873 34.8764C28.9377 34.394 30.9098 33.7316 32.3858 33.414C34.1239 33.0418 37.7937 33.0418 39.5592 33.414ZM22.0545 42.1599C22.7025 42.5048 22.7579 42.8223 22.7579 46.3258C22.7579 49.9539 22.7025 50.2433 21.8615 50.6019C21.1718 50.8776 12.6196 50.8913 11.9435 50.6019C11.0471 50.2296 11.0327 50.1468 11.0327 46.2704V42.7668L11.4331 42.3665L11.8334 41.9662H16.7582C20.7434 41.9669 21.737 42.008 22.0545 42.1599ZM60.5673 42.3665L60.9676 42.7668V46.2704C60.9676 50.1461 60.954 50.2296 60.0576 50.6019C59.3815 50.8913 50.8293 50.8776 50.1396 50.6019C49.2979 50.2433 49.2432 49.9676 49.2432 46.284C49.2568 42.7805 49.2986 42.5184 49.9466 42.1599C50.2087 42.0216 51.3816 41.9806 55.2163 41.9669H60.1684L60.5673 42.3665Z" fill="white"/>
<path d="M32.3038 36.4493C31.4485 36.684 30.2756 37.0707 29.7104 37.3327L28.6895 37.8159V38.3674V38.9326H36.0003H43.3112V38.3811C43.3112 37.8706 43.2701 37.8159 42.6632 37.512C41.8078 37.0843 40.5111 36.643 39.1179 36.3118C38.2625 36.1051 37.5181 36.036 35.9312 36.036C34.0966 36.0497 33.6826 36.0907 32.3038 36.4493Z" fill="white"/>
<path d="M28.6895 43.4156V44.8643H36.0003H43.3112V43.4156V41.967H36.0003H28.6895V43.4156Z" fill="white"/>
<path d="M28.6895 49.2782V50.7959H36.0003H43.3112V49.2782V47.7611H36.0003H28.6895V49.2782Z" fill="white"/>
<path d="M28.6895 55.1402V56.5889H36.0003H43.3112V55.1402V53.6916H36.0003H28.6895V55.1402Z" fill="white"/>
<path d="M13.9292 46.3121V47.7607H16.8949H19.8605V46.3121V44.8634H16.8949H13.9292V46.3121Z" fill="white"/>
<path d="M52.1396 46.3121V47.7607H55.1054H58.0711V46.3121V44.8634H55.1054H52.1396V46.3121Z" fill="white"/>
</svg>
