<svg width="56" height="56" viewBox="0 0 56 56" fill="none" xmlns="http://www.w3.org/2000/svg">
<path d="M12.4813 0.618233C12.3631 0.671989 12.1481 0.84391 11.998 1.00463L11.7298 1.29471L11.6973 3.90431L11.6648 6.51391L10.4082 6.55703C9.3128 6.60015 9.07648 6.64271 8.5932 6.88967C7.78792 7.30855 7.3584 7.72743 6.95016 8.49015C6.60632 9.12351 6.58504 9.24167 6.54192 10.4233L6.4988 11.6799L3.87856 11.7124L1.25832 11.7449L0.914478 12.0993C0.613758 12.4001 0.559998 12.5182 0.559998 12.9802C0.559998 13.4422 0.613758 13.5604 0.914478 13.8611L1.25832 14.2156L3.88976 14.2475L6.5212 14.28V15.9874V17.6949L3.88976 17.7273L1.25832 17.7593L0.914478 18.1138C0.613758 18.4145 0.559998 18.5326 0.559998 18.9946C0.559998 19.4566 0.613758 19.5748 0.914478 19.8755L1.25832 20.23L3.88976 20.2619L6.5212 20.2944V22.0018V23.7087L3.88976 23.7412L1.25832 23.7731L0.914478 24.1276C0.613758 24.4283 0.559998 24.5465 0.559998 25.0085C0.559998 25.4705 0.613758 25.5886 0.914478 25.8893L1.25832 26.2438L3.88976 26.2757L6.5212 26.3082V28.0151V29.7225L3.88976 29.755L1.25832 29.7869L0.914478 30.1414C0.613758 30.4421 0.559998 30.5603 0.559998 31.0223C0.559998 31.4843 0.613758 31.6025 0.914478 31.9032L1.25832 32.2577L3.88976 32.2901L6.5212 32.3226V34.0301V35.7375L3.88976 35.7694L1.25832 35.8019L0.914478 36.1564C0.613758 36.4571 0.559998 36.5753 0.559998 37.0373C0.559998 37.4993 0.613758 37.6174 0.914478 37.9181L1.25832 38.2726L3.88976 38.3045L6.5212 38.337V40.0445V41.7519L3.88976 41.7844L1.25832 41.8163L0.914478 42.1708C0.613758 42.4715 0.559998 42.5897 0.559998 43.0517C0.559998 43.5137 0.613758 43.6318 0.914478 43.9325L1.25832 44.287L3.87856 44.3195L6.4988 44.3514L6.54192 45.6081C6.58504 46.7897 6.60632 46.9078 6.95016 47.5412C7.36904 48.3358 7.84168 48.776 8.6688 49.1629C9.16272 49.3886 9.4528 49.4418 10.4625 49.4743L11.6654 49.5174L11.6978 52.1377L11.7303 54.7585L12.0848 55.1023C12.3855 55.403 12.5037 55.4568 12.9657 55.4568C13.4277 55.4568 13.5458 55.403 13.8466 55.1023L14.201 54.7585L14.2335 52.127L14.266 49.4956H15.9734H17.6792L17.7117 52.127L17.7436 54.7585L18.0981 55.1023C18.3988 55.403 18.517 55.4568 18.979 55.4568C19.441 55.4568 19.5591 55.403 19.8598 55.1023L20.2143 54.7585L20.2462 52.127L20.2787 49.4956H21.9856H23.6936L23.7261 52.127L23.7586 54.7585L24.113 55.1023C24.4138 55.403 24.5319 55.4568 24.9939 55.4568C25.4559 55.4568 25.5741 55.403 25.8748 55.1023L26.2293 54.7585L26.2618 52.127L26.2942 49.4956H28H29.7074L29.7394 52.127L29.7718 54.7585L30.1263 55.1023C30.427 55.403 30.5452 55.4568 31.0072 55.4568C31.4692 55.4568 31.5874 55.403 31.8881 55.1023L32.2426 54.7585L32.2745 52.127L32.307 49.4956H34.0144H35.7218L35.7543 52.127L35.7862 54.7585L36.1407 55.1023C36.4414 55.403 36.5596 55.4568 37.0216 55.4568C37.4836 55.4568 37.6018 55.403 37.9025 55.1023L38.257 54.7585L38.2894 52.127L38.3219 49.4956H40.0294H41.7368L41.7687 52.127L41.8012 54.7585L42.1557 55.1023C42.4564 55.403 42.5746 55.4568 43.0366 55.4568C43.4986 55.4568 43.6167 55.403 43.9174 55.1023L44.2719 54.7585L44.3044 52.1377L44.3369 49.5174L45.5398 49.4849C46.6458 49.4418 46.807 49.4099 47.4622 49.0873C48.2787 48.6897 48.7508 48.1958 49.1484 47.3474C49.3741 46.8535 49.4278 46.5634 49.4598 45.5537L49.5029 44.3509L52.1231 44.3189L54.7434 44.2865L55.0872 43.932C55.3879 43.6313 55.4417 43.5131 55.4417 43.0511C55.4417 42.5891 55.3879 42.4709 55.0872 42.1702L54.7434 41.8157L52.1119 41.7838L49.4805 41.7513V40.0439V38.3365L52.1119 38.304L54.7434 38.2721L55.0872 37.9176C55.3879 37.6169 55.4417 37.4987 55.4417 37.0367C55.4417 36.5747 55.3879 36.4565 55.0872 36.1558L54.7434 35.8013L52.1119 35.7689L49.4805 35.7369V34.0295V32.3221L52.1119 32.2896L54.7434 32.2571L55.0872 31.9026C55.3879 31.6019 55.4417 31.4837 55.4417 31.0217C55.4417 30.5597 55.3879 30.4421 55.0872 30.1409L54.7434 29.7864L52.1119 29.7545L49.4805 29.722V28.0145V26.3071L52.1119 26.2746L54.7434 26.2427L55.0872 25.8882C55.3879 25.5875 55.4417 25.4693 55.4417 25.0073C55.4417 24.5453 55.3879 24.4272 55.0872 24.1265L54.7434 23.772L52.1119 23.7401L49.4805 23.7076V22.0001V20.2927L52.1119 20.2602L54.7434 20.2283L55.0872 19.8738C55.3879 19.5731 55.4417 19.4549 55.4417 18.993C55.4417 18.5309 55.3879 18.4128 55.0872 18.1121L54.7434 17.7576L52.1119 17.7257L49.4805 17.6932V15.9857V14.2783L52.1119 14.2458L54.7434 14.2139L55.0872 13.8594C55.3879 13.5587 55.4417 13.4405 55.4417 12.9785C55.4417 12.5165 55.3879 12.3984 55.0872 12.0977L54.7434 11.7432L52.1231 11.7107L49.5029 11.6782L49.4598 10.4753C49.4273 9.46567 49.3741 9.17559 49.1484 8.68167C48.7614 7.85455 48.3213 7.38191 47.5266 6.96303C46.8933 6.61919 46.7751 6.59791 45.5935 6.55479L44.3369 6.51167L44.3044 3.89143L44.2719 1.27119L43.9174 0.927345C43.6167 0.626625 43.4986 0.572868 43.0366 0.572868C42.5746 0.572868 42.4564 0.626625 42.1557 0.927345L41.8012 1.27119L41.7687 3.90263L41.7368 6.53407H40.0294H38.3208L38.2883 3.90263L38.2558 1.27119L37.9014 0.927345C37.6006 0.626625 37.4825 0.572868 37.0205 0.572868C36.5585 0.572868 36.4403 0.626625 36.1396 0.927345L35.7851 1.27119L35.7532 3.90263L35.7207 6.53407H34.0144H32.3064L32.2739 3.90263L32.242 1.27119L31.8875 0.927345C31.5868 0.626625 31.4686 0.572868 31.0066 0.572868C30.5446 0.572868 30.4265 0.626625 30.1258 0.927345L29.7713 1.27119L29.7388 3.90263L29.7069 6.53407H28H26.2926L26.2601 3.90263L26.2276 1.27119L25.8731 0.927345C25.5724 0.626625 25.4542 0.572868 24.9922 0.572868C24.5302 0.572868 24.4121 0.626625 24.1114 0.927345L23.7569 1.27119L23.7244 3.90263L23.6919 6.53407H21.9856H20.2782L20.2457 3.90263L20.2138 1.27119L19.8593 0.927345C19.5586 0.626625 19.4404 0.572868 18.9784 0.572868C18.5164 0.572868 18.3982 0.626625 18.0975 0.927345L17.743 1.27119L17.7111 3.90263L17.6786 6.53407H15.9712H14.2638L14.2313 3.90263L14.1988 1.27119L13.8656 0.937988C13.5122 0.585751 12.8783 0.446312 12.4813 0.618233ZM23.2747 13.8387V15.9869H19.913C16.6482 15.9869 16.5407 15.9975 16.0787 16.2232C15.7567 16.3845 15.5098 16.6208 15.3591 16.8997C15.1228 17.3185 15.1122 17.4261 15.1122 20.3039V23.2898H13.3941H11.6754V17.4905V11.6911H17.4748H23.2742V13.8387H23.2747ZM31.0072 13.5167C31.0072 14.9021 30.9641 15.4285 30.8566 15.643C30.7709 15.8043 29.3317 17.2973 27.6562 18.9722L24.617 22.0007L23.9725 21.775C22.3401 21.1949 20.5145 21.9682 19.7305 23.5581C19.3547 24.3314 19.3547 25.6844 19.7305 26.4577C20.0637 27.1449 20.7077 27.7894 21.3954 28.1221C22.1687 28.4978 23.5217 28.4978 24.295 28.1221C24.9822 27.7894 25.6267 27.1449 25.9599 26.4577C26.3038 25.7488 26.3357 24.4277 26.0243 23.7406L25.8205 23.2786L29.0422 20.0351C32.9622 16.0938 32.7258 16.5015 32.7258 13.6237V11.6905H35.733H38.7402V15.9757V20.2608L36.2488 20.3039L33.7467 20.3358L33.1559 20.6472C32.7583 20.851 32.0606 21.4525 30.9865 22.5266C29.0321 24.4703 28.9352 24.6529 28.8921 26.4034C28.8708 27.0799 28.8277 27.7569 28.7952 27.907C28.7308 28.2077 26.3894 30.6348 25.9386 30.8711C25.7023 30.9999 24.4782 31.0212 18.657 31.0212H11.6754V28.0252V25.018L13.7054 24.9855C15.9286 24.9536 16.025 24.9211 16.5514 24.2121C16.7664 23.9327 16.777 23.7501 16.809 20.8079L16.8414 17.7044H20.3101C23.7362 17.7044 23.7899 17.7044 24.1332 17.4574C24.9278 16.9204 24.9385 16.8879 24.971 14.1495L25.0034 11.69H28.0106H31.0072V13.5167ZM44.3246 28.0151V44.3391H42.3914H40.4583V41.3319C40.4583 37.5945 40.4583 37.5732 39.0622 36.134C38.5465 35.5969 38.0744 35.0493 37.9988 34.9205C37.9238 34.781 37.8806 34.0614 37.8806 33.0305V31.3768L38.6002 31.0117C41.1135 29.7337 41.0379 26.1576 38.4714 24.9009C37.6981 24.5252 36.3451 24.5252 35.5718 24.9009C33.0047 26.1576 32.9297 29.6906 35.4323 31.0117L36.1626 31.3981V33.138C36.1626 35.4469 36.2701 35.7369 37.5586 37.0793C38.0744 37.6163 38.5465 38.164 38.6221 38.2928C38.6971 38.4541 38.7402 39.4637 38.7402 41.4288V44.3391H25.2078H11.6754V42.406V40.4729H15.3272C19.6986 40.4729 19.7092 40.4729 20.9546 39.2913C21.3735 38.8937 21.8243 38.5179 21.9537 38.4429C22.1038 38.3678 22.9634 38.3247 24.4776 38.3247H26.7652L27.1516 39.0549C28.2038 41.0525 30.7065 41.4926 32.4783 40.0002C32.6502 39.8496 32.9616 39.4307 33.1654 39.0549C33.4986 38.4322 33.5306 38.3029 33.5306 37.4657C33.5306 36.7141 33.4768 36.456 33.2623 36.0158C32.0057 33.4493 28.4726 33.3737 27.1516 35.8764L26.7652 36.6066H24.3807C21.4379 36.6066 21.191 36.671 20.0099 37.7882C19.591 38.1858 19.1402 38.5616 19.0109 38.6366C18.8496 38.7117 17.6898 38.7548 15.2303 38.7548H11.6754V35.7476V32.7404H18.7639C25.723 32.7404 25.8524 32.7404 26.4645 32.5147C27.0015 32.3109 27.2916 32.0852 28.6014 30.7641C30.4489 28.9279 30.5777 28.6697 30.5777 26.8766C30.5777 26.1464 30.6314 25.6306 30.7283 25.4055C30.9215 24.9653 33.6493 22.2589 34.0469 22.1082C34.2294 22.0438 35.3573 22.0007 36.7965 22.0007C39.1591 22.0007 39.256 21.9901 39.5993 21.7537C39.7925 21.625 40.0613 21.378 40.1794 21.2167C40.3945 20.916 40.4051 20.7872 40.437 16.2977L40.469 11.6905H42.3914H44.3246V28.0151ZM23.5217 23.4399C24.6277 23.9019 24.8965 25.3411 24.0374 26.2001C23.3391 26.8985 22.3513 26.8985 21.653 26.2001C20.3213 24.8791 21.7924 22.7097 23.5217 23.4399ZM37.6981 26.4471C38.8041 26.9091 39.0729 28.3483 38.2138 29.2073C37.5155 29.9057 36.5277 29.9057 35.8299 29.2073C34.4977 27.8863 35.9688 25.7169 37.6981 26.4471ZM30.8246 35.8982C31.9306 36.3602 32.1994 37.7994 31.3404 38.6585C30.6426 39.3568 29.6542 39.3568 28.9565 38.6585C27.6242 37.3374 29.0954 35.168 30.8246 35.8982Z" fill="white"/>
</svg>
