<svg width="15" height="15" viewBox="0 0 15 15" fill="none" xmlns="http://www.w3.org/2000/svg">
<g clip-path="url(#clip0)">
<path d="M10.7938 3.1306L9.46689 0.857477C9.40377 0.749352 9.30002 0.670602 9.17877 0.639352C9.05814 0.609352 8.92877 0.626852 8.82127 0.691227L4.76501 3.12498L10.7938 3.1306Z" fill="white"/>
<path d="M1.875 3.75C1.53125 3.75 1.25 3.46875 1.25 3.125C1.25 2.78125 1.53125 2.5 1.875 2.5H3.98125L6.06875 1.25H1.875C0.95 1.25 0.18125 1.925 0.03125 2.8125C0.01875 2.8625 0 2.9125 0 2.96875V12.5C0 13.5312 0.84375 14.375 1.875 14.375H12.5C13.1875 14.375 13.75 13.8125 13.75 13.125V11.875H12.1875C10.6375 11.875 9.375 10.6125 9.375 9.0625C9.375 7.5125 10.6375 6.25 12.1875 6.25H13.75V5C13.75 4.3125 13.1875 3.75 12.5 3.75H1.875ZM11.875 2.5C11.875 1.86875 11.4063 1.34375 10.7938 1.2625L11.875 3.125V2.5Z" fill="white"/>
<path d="M14.5312 7.1875H12.1875C11.1537 7.1875 10.3125 8.02875 10.3125 9.0625C10.3125 10.0963 11.1537 10.9375 12.1875 10.9375H14.5312C14.79 10.9375 15 10.7275 15 10.4688V7.65625C15 7.3975 14.79 7.1875 14.5312 7.1875ZM12.1875 9.6875C11.8425 9.6875 11.5625 9.4075 11.5625 9.0625C11.5625 8.7175 11.8425 8.4375 12.1875 8.4375C12.5325 8.4375 12.8125 8.7175 12.8125 9.0625C12.8125 9.4075 12.5325 9.6875 12.1875 9.6875Z" fill="white"/>
</g>
<defs>
<clipPath id="clip0">
<rect width="15" height="15" fill="white"/>
</clipPath>
</defs>
</svg>
