<svg width="50" height="46" viewBox="0 0 50 46" fill="none" xmlns="http://www.w3.org/2000/svg">
<path d="M49.0005 34.4308L31.4834 4.08974C28.6222 -0.922493 21.3868 -0.922493 18.5359 4.08974L1.00855 34.4308C-1.85265 39.443 1.70841 45.6697 7.48226 45.6697H42.465C48.2388 45.6697 51.8617 39.3812 49.0005 34.4308ZM24.9994 38.9387C23.4761 38.9387 22.2102 37.6728 22.2102 36.1495C22.2102 34.6263 23.4761 33.3604 24.9994 33.3604C26.5226 33.3604 27.7885 34.6263 27.7268 36.2216C27.7988 37.6728 26.4608 38.9387 24.9994 38.9387ZM27.5415 20.907C27.418 23.0683 27.2842 25.2194 27.1607 27.3807C27.0989 28.0806 27.0989 28.7187 27.0989 29.4082C27.0372 30.5507 26.1418 31.4358 24.9994 31.4358C23.8569 31.4358 22.9718 30.6124 22.8998 29.47C22.7145 26.1045 22.519 22.8007 22.3337 19.4352C22.272 18.5501 22.2102 17.6547 22.1382 16.7696C22.1382 15.3081 22.9615 14.1039 24.2995 13.7231C25.6375 13.4041 26.9651 14.0422 27.5415 15.3081C27.737 15.7507 27.7988 16.1932 27.7988 16.7078C27.737 18.1178 27.6033 19.5176 27.5415 20.907Z" fill="white"/>
</svg>
