<svg width="30" height="30" viewBox="0 0 30 30" fill="none" xmlns="http://www.w3.org/2000/svg">
<path d="M29.6403 24.3977L17.4563 2.76877C16.4174 0.87981 13.5839 0.87981 12.5449 2.76877L0.360915 24.3977C-0.678002 26.2867 0.644286 28.648 2.81662 28.648H27.0902C29.3569 28.5535 30.6792 26.2867 29.6403 24.3977Z" fill="#E24C4B"/>
<path d="M15.0006 4.18542L27.1846 25.8144H2.81665L15.0006 4.18542Z" fill="white"/>
<path d="M13.0172 14.1028L13.7728 19.1087C13.8672 19.6753 14.3395 20.1476 15.0006 20.1476C15.5673 20.1476 16.1341 19.6753 16.2285 19.1087L16.9841 14.1028C17.173 12.875 16.2285 11.8361 15.0006 11.8361C13.7727 11.836 12.9227 12.875 13.0172 14.1028Z" fill="#3F4448"/>
<path d="M15.0006 23.4534C15.6266 23.4534 16.134 22.9459 16.134 22.3199C16.134 21.694 15.6266 21.1865 15.0006 21.1865C14.3746 21.1865 13.8672 21.694 13.8672 22.3199C13.8672 22.9459 14.3746 23.4534 15.0006 23.4534Z" fill="#3F4448"/>
</svg>
