<svg width="56" height="56" viewBox="0 0 56 56" fill="none" xmlns="http://www.w3.org/2000/svg">
<path d="M20.2513 1.5176C18.0203 2.14872 15.2634 7.24192 14.1272 12.8397C13.3062 16.8381 13.664 18.7113 15.5792 20.6478C16.5055 21.574 17.0526 21.9313 17.9156 22.1838C20.4199 22.9202 22.4616 22.4364 24.229 20.6685C26.1862 18.7113 26.4388 17.3645 25.7864 12.3766C25.3445 8.96728 24.3976 5.26344 23.5553 3.6008C22.5876 1.70688 21.6614 1.11776 20.2513 1.5176Z" fill="white"/>
<path d="M34.183 1.4756C32.5836 2.128 31.005 6.5688 30.2266 12.4824C29.5949 17.3438 29.8687 18.7118 31.8052 20.669C32.7102 21.574 33.2573 21.9318 34.1202 22.1844C36.6246 22.9208 38.6663 22.437 40.4337 20.669C42.3909 18.7118 42.7274 16.8806 41.907 12.8402C40.8968 7.9156 38.5817 3.13824 36.6033 1.93872C35.7409 1.41232 34.7934 1.22304 34.183 1.4756Z" fill="white"/>
<path d="M4.97227 13.4714C4.38315 13.7026 3.07835 15.1547 2.59395 16.1442C0.910588 19.4482 -0.0156514 27.4036 0.952588 30.2445C1.43643 31.7178 2.86779 33.2752 4.27787 33.9063C6.63491 34.9586 9.77035 34.3274 11.3703 32.4962C13.1802 30.4545 13.454 28.5818 12.4645 25.0673C11.0544 19.9741 9.24451 15.9757 7.64515 14.313C6.59291 13.2395 6.00379 13.0502 4.97227 13.4714Z" fill="white"/>
<path d="M48.5783 14.0818C46.979 15.5758 45.0218 19.8274 43.5697 25.0673C43.0439 26.9405 42.9386 27.6982 43.0013 28.7078C43.1906 30.9596 44.4747 32.8328 46.4946 33.8218C48.9776 35.0426 52.0083 34.4109 53.8815 32.2857C55.1443 30.8549 55.4602 29.6548 55.4389 26.5194C55.3969 19.4062 53.1871 13.7026 50.367 13.3241C49.6093 13.2188 49.4413 13.2821 48.5783 14.0818Z" fill="white"/>
<path d="M26.6493 24.8354C25.2392 25.0673 23.9344 25.5511 22.7556 26.3088C21.4508 27.1505 18.9672 29.7388 17.0313 32.3064C15.2214 34.6847 14.3584 35.5477 11.8121 37.5049C9.22377 39.5041 7.49785 41.3773 6.71889 43.0819C6.12977 44.3027 6.02449 44.8078 5.96121 46.5545C5.85593 49.1008 6.25577 50.5322 7.45529 51.9002C9.66561 54.404 12.8643 54.9517 22.1665 54.404C27.5543 54.0882 28.4172 54.0882 33.9517 54.404C37.2137 54.5933 40.623 54.6773 41.4859 54.6146C45.9895 54.2147 48.3258 52.9939 49.5253 50.4056C49.9464 49.5006 50.0091 49.0168 50.0091 46.933C50.0091 44.6393 49.9671 44.4287 49.3355 43.0819C48.5358 41.3986 46.7679 39.4621 44.3268 37.6102C41.7805 35.653 40.7703 34.6427 38.7291 31.9698C36.33 28.8338 33.9517 26.5614 32.2051 25.7197C31.0475 25.1726 28.6272 24.5622 27.9115 24.6462C27.8063 24.6674 27.2384 24.7514 26.6493 24.8354Z" fill="white"/>
</svg>
