<svg width="56" height="47" viewBox="0 0 56 47" fill="none" xmlns="http://www.w3.org/2000/svg">
<path fill-rule="evenodd" clip-rule="evenodd" d="M25.3049 0.00645018C22.8559 0.041539 20.0229 0.286783 18.9149 0.559633C18.5674 0.645217 18.0429 0.830659 17.7494 0.971832C17.1336 1.26801 16.4776 1.8183 16.1134 2.34444C15.6543 3.00761 14.4499 5.23669 13.9693 6.31275C13.5293 7.29762 12.7802 8.6913 12.3663 9.29479C12.0983 9.68554 11.6643 10.1879 11.2148 10.6274C10.4007 11.4236 10.1571 11.817 9.99295 12.6011C9.68525 14.0703 9.68207 15.9669 9.982 19.0649C10.0532 19.8002 10.1004 20.0257 10.2414 20.3056C10.3362 20.4936 10.5201 20.7326 10.6501 20.8366C11.1242 21.216 11.0377 21.1973 14.9077 21.7558C17.3706 22.1111 16.9715 22.1004 27.5722 22.0962C33.296 22.094 37.7913 22.0665 38.358 22.0302C39.5935 21.9511 40.8677 21.8093 41.785 21.6488C42.1804 21.5796 42.9023 21.4691 43.3892 21.4034C43.8763 21.3375 44.4356 21.2287 44.6324 21.1616C45.4171 20.8939 45.7106 20.4755 45.8736 19.3924C46.0235 18.3962 46.0619 16.3825 45.9733 14.1731L45.8938 12.1923L45.7127 12.0037C45.4303 11.7095 43.9051 9.69718 43.3248 8.8531C42.7041 7.95028 42.1251 6.95434 41.7821 6.19937C40.8199 4.0814 39.878 2.58126 38.9494 1.68757C38.0726 0.843676 37.4747 0.581139 35.7344 0.275778C35.2186 0.18529 34.5012 0.127626 33.4023 0.088261C31.7849 0.0304086 27.0044 -0.0178856 25.3049 0.00645018ZM35.753 1.57985C36.0304 1.656 36.4822 1.83188 36.7571 1.97067C37.6411 2.4172 38.2559 3.13507 38.7791 4.33193C39.2095 5.31649 39.5989 6.04153 40.048 6.69438C40.2756 7.02527 40.4795 7.38144 40.501 7.48583C40.5308 7.63065 40.5041 7.71548 40.3883 7.84363C40.2755 7.96865 40.0965 8.04562 39.6895 8.14447C39.2119 8.26042 39.0597 8.27036 38.491 8.22257L37.8398 8.1678L37.984 8.02782C38.1064 7.90897 38.1908 7.88966 38.5436 7.89985C39.0489 7.91438 39.1926 7.83131 39.0953 7.58129C39.014 7.37233 38.7383 7.0847 38.5068 6.9673C38.2922 6.85851 37.4994 6.61546 36.8033 6.44505C35.6513 6.16315 35.1147 6.11158 32.7869 6.0592C31.5399 6.03109 30.1844 5.97148 29.7747 5.92658C29.2857 5.87307 28.128 5.84496 26.4061 5.84483C24.3748 5.84471 23.5267 5.86961 22.6489 5.95519C20.5859 6.15642 17.8544 6.58163 17.3889 6.77406C17.1099 6.88938 16.8934 7.12243 16.7861 7.42295C16.7133 7.62725 16.7138 7.66781 16.7898 7.68473C16.9143 7.7124 19.1894 7.48118 21.0942 7.24725C22.6115 7.06099 22.7482 7.0542 24.2036 7.09419C25.0409 7.11715 26.892 7.16104 28.3171 7.19166C30.1501 7.23103 31.1074 7.27756 31.5885 7.35069C32.0455 7.42018 32.7894 7.46011 33.8558 7.47237C35.5127 7.49149 35.8469 7.53595 36.4725 7.82012C36.7366 7.94016 36.6869 7.94091 29.5803 7.9306C23.6067 7.92186 22.0952 7.93758 20.4464 8.02568C19.3597 8.08366 17.9459 8.14994 17.3046 8.17283C16.0513 8.21766 15.6438 8.1666 15.5242 7.94972C15.488 7.88401 15.4584 7.71378 15.4584 7.57148C15.4584 7.36836 15.5799 7.08684 16.0238 6.2625C16.3348 5.68492 16.8341 4.73124 17.1334 4.14328C17.6346 3.15865 17.7165 3.03654 18.1713 2.59616C18.5404 2.23867 18.7875 2.0616 19.1508 1.89439C19.5819 1.69593 20.2272 1.522 20.8027 1.44918C20.9096 1.43566 24.2036 1.42836 28.1228 1.43295L35.2486 1.44138L35.753 1.57985ZM11.2153 4.99327C11.0371 5.02314 10.6436 5.032 10.3408 5.01308C10.0118 4.99251 9.67896 5.00773 9.51397 5.05093C9.16649 5.14192 8.8161 5.43641 8.72035 5.71793C8.62072 6.01116 8.61742 6.66961 8.7142 6.95315C8.75767 7.08055 8.90543 7.28316 9.0425 7.40339C9.2406 7.57714 9.39614 7.6436 9.8001 7.72711C10.9696 7.9689 11.279 8.14114 11.5582 8.70601L11.7469 9.0874L11.8346 8.87913C11.8829 8.76462 12.0584 8.52938 12.2247 8.35645C12.391 8.18352 12.5936 7.91469 12.675 7.75906C12.8773 7.37188 12.9143 6.73406 12.7736 6.05964C12.5941 5.19965 12.4305 4.99742 11.8859 4.96176C11.6952 4.94925 11.3934 4.96346 11.2153 4.99327ZM43.6051 5.05162C43.5339 5.07998 43.418 5.16525 43.3476 5.24122C43.2304 5.36767 43.2195 5.47357 43.218 6.49064C43.2165 7.57739 43.2205 7.61015 43.3979 7.97915C43.5612 8.31903 44.106 8.95384 44.2343 8.95384C44.2624 8.95384 44.2853 8.91692 44.2853 8.87184C44.2853 8.82675 44.3625 8.63961 44.4567 8.45593C44.591 8.19452 44.6859 8.09649 44.894 8.00474C45.044 7.93865 45.3094 7.88696 45.5032 7.88621C45.692 7.88545 45.9397 7.8386 46.0538 7.78213C46.4246 7.59852 47.0468 7.06766 47.1986 6.80543C47.55 6.19861 47.2387 5.2953 46.597 5.0593C46.3826 4.98044 43.801 4.97384 43.6051 5.05162ZM36.5765 9.05294C38.0307 9.23624 39.185 9.56877 40.5281 10.1912C41.1519 10.4803 41.3748 10.6112 41.3055 10.648C41.252 10.6763 40.8293 10.7717 40.3662 10.8601C39.6836 10.9904 39.1802 11.0343 37.7102 11.0915C36.7126 11.1303 35.4154 11.1888 34.8275 11.2213C34.2396 11.2538 32.7087 11.2989 31.4254 11.3216C28.8998 11.3662 28.7252 11.3499 28.4801 11.0474C28.3924 10.9391 28.3493 10.791 28.3488 10.596C28.3484 10.4364 28.3047 10.1669 28.2516 9.99713C28.1085 9.53903 28.1276 9.34818 28.3372 9.14475L28.5192 8.96811L32.1754 8.96358C35.0641 8.96 35.988 8.97874 36.5765 9.05294ZM12.2939 12.5061C12.5276 12.6117 12.7565 12.6634 12.9967 12.6647C13.4512 12.6672 14.4017 12.7941 15.5555 13.0062C16.0543 13.0979 16.856 13.1959 17.337 13.2239C18.2523 13.2773 18.5944 13.3663 18.8807 13.6259C18.9648 13.7021 19.0767 13.8449 19.1295 13.9434C19.2278 14.1269 19.2353 14.2392 19.2234 15.3546C19.2169 15.9537 19.2046 16.0132 19.057 16.1564C18.9369 16.273 18.8289 16.311 18.6193 16.3107C18.4663 16.3105 17.0876 16.1397 15.5555 15.9312C14.0235 15.7226 12.5076 15.5217 12.187 15.4847C11.8663 15.4478 11.5399 15.3935 11.4616 15.3641C11.3833 15.3348 11.2694 15.2369 11.2084 15.1465C11.1199 15.0153 11.0967 14.8282 11.0932 14.2161C11.09 13.6582 11.1193 13.3529 11.2012 13.0926C11.3357 12.6648 11.5887 12.3495 11.7976 12.3495C11.88 12.3495 12.1033 12.42 12.2939 12.5061ZM44.5001 12.7111C44.5205 12.8408 44.5569 13.2444 44.581 13.6079C44.6554 14.7301 44.4433 15.2803 43.8468 15.512C43.5014 15.6462 42.8111 15.7311 41.435 15.8085C40.144 15.8813 39.2246 15.9845 38.0989 16.1834C37.707 16.2526 37.2689 16.3096 37.1254 16.3102C36.5845 16.3122 36.4052 15.9854 36.4737 15.1229C36.5358 14.3398 36.6345 13.855 36.7775 13.6293C36.9903 13.2933 37.2874 13.2232 38.7467 13.1644C39.7123 13.1254 40.331 13.0629 41.1759 12.9188C42.9892 12.6096 43.7482 12.5005 44.1961 12.4847C44.4571 12.4755 44.4639 12.4806 44.5001 12.7111ZM2.04461 14.5297C1.94549 14.5701 1.81114 14.6821 1.7461 14.7784C1.63261 14.9466 1.62723 15.5396 1.61233 29.5767C1.60384 37.6194 1.59652 44.221 1.59614 44.247C1.59581 44.2729 1.39869 44.2943 1.15822 44.2945C0.545538 44.295 0.254612 44.3858 0.106137 44.6228C-0.00327605 44.7975 -0.0133169 44.9201 0.0107812 45.7942C0.0321585 46.5694 0.0585237 46.7908 0.138721 46.8686C0.228506 46.9558 0.901632 46.9686 6.18876 46.9833C11.7925 46.9991 12.146 46.9936 12.279 46.889C12.3566 46.8279 12.4471 46.6648 12.4801 46.5265C12.5131 46.3881 12.5409 45.9429 12.5417 45.5371C12.5432 44.8195 12.5383 44.7939 12.3651 44.6078C12.226 44.4583 12.1019 44.4024 11.7983 44.3525C11.5764 44.316 10.6078 44.2965 9.54163 44.3071L7.67364 44.3256L7.51726 44.1491L7.36088 43.9727V36.8105C7.36088 31.6954 7.38142 29.6045 7.43279 29.495C7.47237 29.4108 7.57576 29.3104 7.66256 29.272C7.77405 29.2227 9.32591 29.2022 12.94 29.2022H18.0595L18.2489 29.0184C18.4371 28.8356 18.4382 28.8302 18.4382 28.0792C18.4382 27.6638 18.4103 27.2526 18.3762 27.1656C18.3422 27.0786 18.227 26.9635 18.1203 26.91C17.9502 26.8246 17.3103 26.8126 12.8996 26.8126C8.5426 26.8126 7.84744 26.8 7.68349 26.7177C7.57945 26.6654 7.46427 26.5683 7.42761 26.5017C7.3833 26.4213 7.36075 24.4955 7.3605 20.7643C7.3603 17.056 7.33718 15.0675 7.29254 14.9114C7.16693 14.4723 7.18702 14.4757 4.56726 14.4654C2.90508 14.4588 2.17242 14.4775 2.04461 14.5297ZM49.0747 14.5297C48.9756 14.5701 48.8412 14.682 48.7762 14.7784C48.6644 14.944 48.6562 15.2775 48.6256 20.8499L48.5932 26.7463L48.4456 26.8895L48.2979 27.0327L43.1546 27.0382C38.4102 27.0432 37.9981 27.052 37.8416 27.1515C37.7483 27.2109 37.6442 27.3305 37.6101 27.4174C37.5254 27.6338 37.532 28.5723 37.62 28.8174C37.7636 29.2174 37.5461 29.2022 43.1534 29.2022H48.2469L48.4362 29.386L48.6256 29.5698V35.2371C48.6256 40.0348 48.6415 41.0367 48.7294 41.7661C48.8599 42.8501 48.8285 43.4341 48.6185 43.8304C48.4314 44.1833 48.1621 44.3377 47.5586 44.438C47.2372 44.4915 46.9311 44.4888 46.2776 44.4268C44.878 44.2941 44.0705 44.2702 43.8094 44.3539C43.5399 44.4402 43.3418 44.6568 43.2558 44.959C43.2229 45.0746 43.2125 45.5156 43.2326 45.9392C43.2656 46.6345 43.2836 46.7232 43.419 46.8545L43.5688 47L49.6259 46.9833L55.683 46.9667L55.8305 46.8234C55.9509 46.7065 55.9741 46.6254 55.9564 46.3832C55.919 45.8716 55.9227 45.6579 55.9759 45.2591C56.0044 45.0463 56.0081 44.7968 55.9844 44.7048C55.9308 44.4975 55.6141 44.357 55.2007 44.357C55.0381 44.357 54.8071 44.3173 54.6875 44.2688C54.5309 44.2053 54.4486 44.1177 54.3936 43.9561C54.3358 43.786 54.3203 40.2445 54.3297 29.3454C54.3394 18.0525 54.3249 14.9235 54.2622 14.7932C54.2183 14.7019 54.1138 14.5916 54.0301 14.548C53.8195 14.4386 49.3384 14.422 49.0747 14.5297ZM33.6308 18.277C33.9926 18.3946 34.2924 18.6636 34.4908 19.0488C34.6361 19.3307 35.0866 20.5582 35.0866 20.6719C35.0865 20.7262 33.3367 20.7437 28.1066 20.7416C24.2676 20.74 21.0733 20.715 21.0082 20.6859C20.8139 20.599 20.757 20.3554 20.8396 19.9639C21.0448 18.9911 21.6416 18.3457 22.4616 18.2099C22.6068 18.1858 25.106 18.1673 28.0154 18.1687C32.797 18.1709 33.3365 18.1813 33.6308 18.277ZM9.72314 22.458C9.66134 23.5734 9.721 24.8647 9.85387 25.2886C10.0009 25.7575 10.2733 26.0341 10.7201 26.1679C11.0248 26.2591 11.3288 26.2764 12.5433 26.2715C13.9723 26.2658 14.0072 26.2625 14.3247 26.1052C14.7113 25.9137 14.8947 25.734 15.0477 25.3969C15.1387 25.1965 15.1665 24.9187 15.1863 24.0127C15.2183 22.5509 15.2681 22.6244 14.1621 22.5019C12.1271 22.2766 11.0954 22.0826 10.2905 21.774C10.0312 21.6746 9.80833 21.5933 9.79505 21.5933C9.78183 21.5933 9.74944 21.9825 9.72314 22.458ZM45.419 21.7919C44.9315 21.9909 43.7968 22.2979 43.1291 22.4115C42.9029 22.45 42.3092 22.519 41.8097 22.565C40.9855 22.6408 40.8865 22.6632 40.7387 22.8066C40.6005 22.9408 40.568 23.0488 40.5234 23.521C40.4646 24.1461 40.5344 24.8445 40.6947 25.2335C40.7537 25.3765 40.9415 25.6151 41.1131 25.7649C41.3501 25.9717 41.5435 26.071 41.9217 26.18C42.1951 26.2588 42.6369 26.3495 42.9035 26.3816C43.8711 26.4982 45.1933 26.1833 45.6264 25.733C45.9469 25.3998 45.9696 25.2426 45.9696 23.3561C45.9696 22.3865 45.9478 21.5964 45.921 21.6001C45.8943 21.6038 45.6684 21.6902 45.419 21.7919Z" fill="white"/>
<path d="M36.5765 9.05294C38.0307 9.23624 39.185 9.56877 40.5281 10.1912C41.1519 10.4803 41.3748 10.6112 41.3055 10.648C41.252 10.6763 40.8293 10.7717 40.3662 10.8601C39.6836 10.9904 39.1802 11.0343 37.7102 11.0915C36.7126 11.1303 35.4154 11.1888 34.8275 11.2213C34.2396 11.2538 32.7087 11.2989 31.4254 11.3216C28.8998 11.3662 28.7252 11.3499 28.4801 11.0474C28.3924 10.9391 28.3493 10.791 28.3488 10.596C28.3484 10.4364 28.3047 10.1669 28.2516 9.99713C28.1085 9.53903 28.1276 9.34818 28.3372 9.14475L28.5192 8.96811L32.1754 8.96358C35.0641 8.96 35.988 8.97874 36.5765 9.05294Z" fill="white"/>
</svg>
