<svg width="64" height="64" viewBox="0 0 64 64" fill="none" xmlns="http://www.w3.org/2000/svg">
<g id="&#208;&#191;&#208;&#190;&#209;&#134;&#208;&#181;&#208;&#187;&#208;&#190;&#208;&#178;&#208;&#176;&#209;&#130;&#209;&#140;">
<g id="image 31 (Traced)">
<mask id="path-1-outside-1_5902_170" maskUnits="userSpaceOnUse" x="2" y="10" width="61" height="44" fill="black">
<rect fill="white" x="2" y="10" width="61" height="44"/>
<path fill-rule="evenodd" clip-rule="evenodd" d="M34.9897 12.0367C34.4535 12.106 33.6398 12.2958 33.0602 12.4867C31.7065 12.9324 30.3182 13.8211 29.6518 14.6685C29.4795 14.8876 29.1912 15.3437 29.0111 15.6822C28.2687 17.0773 27.2197 17.6809 25.7288 17.5706C25.111 17.5249 24.6898 17.4271 23.368 17.0224C22.3128 16.6992 21.6562 16.6107 20.9634 16.6981C19.9812 16.8221 19.0802 17.1949 18.0222 17.9152C16.7729 18.7658 15.0702 20.229 14.4187 21.0119C12.7229 23.0495 10.6927 26.8543 8.26181 32.5501C7.11409 35.2393 4.9583 40.8456 5.00061 41.031C5.02385 41.1331 5.1413 41.068 8.03962 39.3471C12.7067 36.5761 15.9382 34.421 16.8989 33.4389C17.1041 33.2291 17.3052 32.9419 17.3643 32.7744C17.5117 32.3561 17.8023 31.962 18.3508 31.4366C19.863 29.9881 22.1755 28.7388 23.9252 28.4252C24.7358 28.2799 25.2525 28.3001 25.7173 28.4954C25.9374 28.5878 26.3812 28.7168 26.7033 28.782C27.492 28.9415 28.6928 28.8859 29.63 28.6465C31.0001 28.2966 32.4751 27.5287 33.3423 26.7139C33.5528 26.516 33.8941 26.1141 34.1007 25.8209C34.5293 25.2124 34.975 24.7897 35.711 24.2935C36.3576 23.8577 37.5685 23.2761 38.4176 22.9936C39.6123 22.5962 40.4536 22.4354 41.5451 22.3962C42.334 22.3677 42.6631 22.3848 43.0712 22.4754C44.1103 22.706 44.8723 22.7904 46.5397 22.8597C48.438 22.9386 51.6943 22.8604 53.8331 22.6847C57.1081 22.4156 59.2247 21.9433 59.4593 21.4295C59.5222 21.2916 59.5109 21.2281 59.3959 21.0733C58.9078 20.4163 55.6942 18.7836 51.2915 16.956C48.6195 15.8468 45.3081 14.5586 42.655 13.5961C39.793 12.558 38.7059 12.2276 37.6124 12.0638C37.1462 11.9939 35.4554 11.9764 34.9897 12.0367ZM57.6041 24.0101C57.4515 24.0218 56.8584 24.0652 56.2861 24.1066C50.5818 24.5195 45.0933 25.962 41.3676 28.0276C39.3188 29.1634 37.8482 30.3076 37.2013 31.2694C36.4759 32.3477 35.4602 33.3518 34.4868 33.9529C33.5148 34.5533 32.3774 34.896 31.3395 34.9015C30.7862 34.9044 29.8615 34.7507 29.3272 34.5668C28.7012 34.3515 27.9931 34.2704 26.7694 34.2736C24.7893 34.2789 23.0823 34.5857 20.7689 35.3524C17.6683 36.38 14.492 37.9788 10.9579 40.2908C9.05408 41.5362 6.21014 43.6531 6.25599 43.7905C6.2698 43.8318 6.55969 44.0577 6.90023 44.2925C8.6464 45.4968 11.8204 47.0536 15.7823 48.6493C19.6463 50.2055 23.5101 51.5242 25.2998 51.8977C26.2664 52.0994 27.6867 52.0002 29.2332 51.6231C31.209 51.1413 33.8501 50.1622 35.1876 49.4157C35.4271 49.282 35.887 48.914 36.2097 48.5978C36.6541 48.1623 36.9473 47.9447 37.4191 47.7006C37.7617 47.5234 38.3073 47.2946 38.6316 47.1922C39.123 47.037 39.4177 46.9964 40.4005 46.9487C41.0491 46.9172 41.8291 46.8395 42.1338 46.776C42.9998 46.5955 44.199 46.213 45.2217 45.7909C45.7367 45.5784 46.521 45.2575 46.9645 45.0779C48.4244 44.4865 49.2266 43.9953 50.4646 42.9345C51.1094 42.382 52.1401 41.2506 52.8305 40.3373C54.9837 37.4891 57.0061 33.3802 58.6567 28.5002C59.0272 27.4046 59.784 24.8719 59.9546 24.1561L60 23.9657L58.9408 23.9773C58.3582 23.9837 57.7567 23.9985 57.6041 24.0101Z"/>
</mask>
<path fill-rule="evenodd" clip-rule="evenodd" d="M34.9897 12.0367C34.4535 12.106 33.6398 12.2958 33.0602 12.4867C31.7065 12.9324 30.3182 13.8211 29.6518 14.6685C29.4795 14.8876 29.1912 15.3437 29.0111 15.6822C28.2687 17.0773 27.2197 17.6809 25.7288 17.5706C25.111 17.5249 24.6898 17.4271 23.368 17.0224C22.3128 16.6992 21.6562 16.6107 20.9634 16.6981C19.9812 16.8221 19.0802 17.1949 18.0222 17.9152C16.7729 18.7658 15.0702 20.229 14.4187 21.0119C12.7229 23.0495 10.6927 26.8543 8.26181 32.5501C7.11409 35.2393 4.9583 40.8456 5.00061 41.031C5.02385 41.1331 5.1413 41.068 8.03962 39.3471C12.7067 36.5761 15.9382 34.421 16.8989 33.4389C17.1041 33.2291 17.3052 32.9419 17.3643 32.7744C17.5117 32.3561 17.8023 31.962 18.3508 31.4366C19.863 29.9881 22.1755 28.7388 23.9252 28.4252C24.7358 28.2799 25.2525 28.3001 25.7173 28.4954C25.9374 28.5878 26.3812 28.7168 26.7033 28.782C27.492 28.9415 28.6928 28.8859 29.63 28.6465C31.0001 28.2966 32.4751 27.5287 33.3423 26.7139C33.5528 26.516 33.8941 26.1141 34.1007 25.8209C34.5293 25.2124 34.975 24.7897 35.711 24.2935C36.3576 23.8577 37.5685 23.2761 38.4176 22.9936C39.6123 22.5962 40.4536 22.4354 41.5451 22.3962C42.334 22.3677 42.6631 22.3848 43.0712 22.4754C44.1103 22.706 44.8723 22.7904 46.5397 22.8597C48.438 22.9386 51.6943 22.8604 53.8331 22.6847C57.1081 22.4156 59.2247 21.9433 59.4593 21.4295C59.5222 21.2916 59.5109 21.2281 59.3959 21.0733C58.9078 20.4163 55.6942 18.7836 51.2915 16.956C48.6195 15.8468 45.3081 14.5586 42.655 13.5961C39.793 12.558 38.7059 12.2276 37.6124 12.0638C37.1462 11.9939 35.4554 11.9764 34.9897 12.0367ZM57.6041 24.0101C57.4515 24.0218 56.8584 24.0652 56.2861 24.1066C50.5818 24.5195 45.0933 25.962 41.3676 28.0276C39.3188 29.1634 37.8482 30.3076 37.2013 31.2694C36.4759 32.3477 35.4602 33.3518 34.4868 33.9529C33.5148 34.5533 32.3774 34.896 31.3395 34.9015C30.7862 34.9044 29.8615 34.7507 29.3272 34.5668C28.7012 34.3515 27.9931 34.2704 26.7694 34.2736C24.7893 34.2789 23.0823 34.5857 20.7689 35.3524C17.6683 36.38 14.492 37.9788 10.9579 40.2908C9.05408 41.5362 6.21014 43.6531 6.25599 43.7905C6.2698 43.8318 6.55969 44.0577 6.90023 44.2925C8.6464 45.4968 11.8204 47.0536 15.7823 48.6493C19.6463 50.2055 23.5101 51.5242 25.2998 51.8977C26.2664 52.0994 27.6867 52.0002 29.2332 51.6231C31.209 51.1413 33.8501 50.1622 35.1876 49.4157C35.4271 49.282 35.887 48.914 36.2097 48.5978C36.6541 48.1623 36.9473 47.9447 37.4191 47.7006C37.7617 47.5234 38.3073 47.2946 38.6316 47.1922C39.123 47.037 39.4177 46.9964 40.4005 46.9487C41.0491 46.9172 41.8291 46.8395 42.1338 46.776C42.9998 46.5955 44.199 46.213 45.2217 45.7909C45.7367 45.5784 46.521 45.2575 46.9645 45.0779C48.4244 44.4865 49.2266 43.9953 50.4646 42.9345C51.1094 42.382 52.1401 41.2506 52.8305 40.3373C54.9837 37.4891 57.0061 33.3802 58.6567 28.5002C59.0272 27.4046 59.784 24.8719 59.9546 24.1561L60 23.9657L58.9408 23.9773C58.3582 23.9837 57.7567 23.9985 57.6041 24.0101Z" fill="white"/>
<path fill-rule="evenodd" clip-rule="evenodd" d="M34.9897 12.0367C34.4535 12.106 33.6398 12.2958 33.0602 12.4867C31.7065 12.9324 30.3182 13.8211 29.6518 14.6685C29.4795 14.8876 29.1912 15.3437 29.0111 15.6822C28.2687 17.0773 27.2197 17.6809 25.7288 17.5706C25.111 17.5249 24.6898 17.4271 23.368 17.0224C22.3128 16.6992 21.6562 16.6107 20.9634 16.6981C19.9812 16.8221 19.0802 17.1949 18.0222 17.9152C16.7729 18.7658 15.0702 20.229 14.4187 21.0119C12.7229 23.0495 10.6927 26.8543 8.26181 32.5501C7.11409 35.2393 4.9583 40.8456 5.00061 41.031C5.02385 41.1331 5.1413 41.068 8.03962 39.3471C12.7067 36.5761 15.9382 34.421 16.8989 33.4389C17.1041 33.2291 17.3052 32.9419 17.3643 32.7744C17.5117 32.3561 17.8023 31.962 18.3508 31.4366C19.863 29.9881 22.1755 28.7388 23.9252 28.4252C24.7358 28.2799 25.2525 28.3001 25.7173 28.4954C25.9374 28.5878 26.3812 28.7168 26.7033 28.782C27.492 28.9415 28.6928 28.8859 29.63 28.6465C31.0001 28.2966 32.4751 27.5287 33.3423 26.7139C33.5528 26.516 33.8941 26.1141 34.1007 25.8209C34.5293 25.2124 34.975 24.7897 35.711 24.2935C36.3576 23.8577 37.5685 23.2761 38.4176 22.9936C39.6123 22.5962 40.4536 22.4354 41.5451 22.3962C42.334 22.3677 42.6631 22.3848 43.0712 22.4754C44.1103 22.706 44.8723 22.7904 46.5397 22.8597C48.438 22.9386 51.6943 22.8604 53.8331 22.6847C57.1081 22.4156 59.2247 21.9433 59.4593 21.4295C59.5222 21.2916 59.5109 21.2281 59.3959 21.0733C58.9078 20.4163 55.6942 18.7836 51.2915 16.956C48.6195 15.8468 45.3081 14.5586 42.655 13.5961C39.793 12.558 38.7059 12.2276 37.6124 12.0638C37.1462 11.9939 35.4554 11.9764 34.9897 12.0367ZM57.6041 24.0101C57.4515 24.0218 56.8584 24.0652 56.2861 24.1066C50.5818 24.5195 45.0933 25.962 41.3676 28.0276C39.3188 29.1634 37.8482 30.3076 37.2013 31.2694C36.4759 32.3477 35.4602 33.3518 34.4868 33.9529C33.5148 34.5533 32.3774 34.896 31.3395 34.9015C30.7862 34.9044 29.8615 34.7507 29.3272 34.5668C28.7012 34.3515 27.9931 34.2704 26.7694 34.2736C24.7893 34.2789 23.0823 34.5857 20.7689 35.3524C17.6683 36.38 14.492 37.9788 10.9579 40.2908C9.05408 41.5362 6.21014 43.6531 6.25599 43.7905C6.2698 43.8318 6.55969 44.0577 6.90023 44.2925C8.6464 45.4968 11.8204 47.0536 15.7823 48.6493C19.6463 50.2055 23.5101 51.5242 25.2998 51.8977C26.2664 52.0994 27.6867 52.0002 29.2332 51.6231C31.209 51.1413 33.8501 50.1622 35.1876 49.4157C35.4271 49.282 35.887 48.914 36.2097 48.5978C36.6541 48.1623 36.9473 47.9447 37.4191 47.7006C37.7617 47.5234 38.3073 47.2946 38.6316 47.1922C39.123 47.037 39.4177 46.9964 40.4005 46.9487C41.0491 46.9172 41.8291 46.8395 42.1338 46.776C42.9998 46.5955 44.199 46.213 45.2217 45.7909C45.7367 45.5784 46.521 45.2575 46.9645 45.0779C48.4244 44.4865 49.2266 43.9953 50.4646 42.9345C51.1094 42.382 52.1401 41.2506 52.8305 40.3373C54.9837 37.4891 57.0061 33.3802 58.6567 28.5002C59.0272 27.4046 59.784 24.8719 59.9546 24.1561L60 23.9657L58.9408 23.9773C58.3582 23.9837 57.7567 23.9985 57.6041 24.0101Z" stroke="black" stroke-opacity="0.65" stroke-width="4" mask="url(#path-1-outside-1_5902_170)"/>
</g>
</g>
</svg>
