<svg width="75" height="75" viewBox="0 0 75 75" fill="none" xmlns="http://www.w3.org/2000/svg">
<path d="M18.1083 40.213C13.8866 40.213 10.4688 43.6333 10.4688 47.8549C10.4688 52.0766 13.889 55.4968 18.1083 55.4968C22.3252 55.4968 25.7478 52.0766 25.7478 47.8549C25.7478 43.6333 22.3252 40.213 18.1083 40.213ZM18.1083 50.1637C16.8394 50.1637 15.7995 49.1286 15.7995 47.8573C15.7995 46.586 16.8394 45.5509 18.1083 45.5509C19.3748 45.5509 20.4123 46.586 20.4123 47.8573C20.4123 49.1286 19.3772 50.1637 18.1083 50.1637Z" fill="white"/>
<path d="M73.7359 41.594L72.4861 31.4286C72.2404 29.4776 70.5351 28.0465 68.5673 28.1539L65.8292 28.3065L57.3287 20.6479C56.5082 19.9109 55.4516 19.5054 54.3497 19.5054L37.079 19.5031C33.2032 19.5031 29.4443 20.8268 26.4223 23.2548L16.7865 30.9969L3.82811 34.2359C2.1633 34.6509 0.994594 36.1488 0.994594 37.8637V41.5988C0.446017 41.5964 0 42.04 0 42.5886V47.5282C0 48.2318 0.570043 48.8018 1.27365 48.8018H8.58881C8.5578 48.4846 8.4934 48.1817 8.4934 47.8573C8.4934 42.5457 12.7962 38.2477 18.1054 38.2477C23.4147 38.2477 27.7151 42.5457 27.7151 47.8573C27.7151 48.1841 27.6483 48.487 27.6173 48.8018H47.8741C47.8454 48.4846 47.781 48.1817 47.781 47.8573C47.781 42.5457 52.0838 38.2477 57.3907 38.2477C62.7023 38.2477 66.9979 42.5457 66.9979 47.8573C66.9979 48.1841 66.9359 48.487 66.9025 48.8018H73.7263C74.43 48.8018 74.9976 48.2318 74.9976 47.5282V42.87C75.0095 42.1688 74.4395 41.594 73.7359 41.594ZM48.103 29.1031L24.0086 30.3219L28.6214 26.6131C31.1282 24.5977 34.2431 23.5005 37.4606 23.5005H48.103V29.1031ZM52.1053 28.9004V23.5029H53.6723C54.2161 23.5029 54.7384 23.7032 55.1415 24.0682L60.0596 28.4949L52.1053 28.9004Z" fill="white"/>
<path d="M57.3954 40.213C53.1737 40.213 49.7559 43.6333 49.7559 47.8549C49.7559 52.0766 53.1761 55.4968 57.3954 55.4968C61.6147 55.4968 65.0349 52.0766 65.0349 47.8549C65.0349 43.6333 61.6147 40.213 57.3954 40.213ZM57.3954 50.1637C56.1241 50.1637 55.089 49.1286 55.089 47.8573C55.089 46.586 56.1241 45.5509 57.3954 45.5509C58.6619 45.5509 59.7018 46.586 59.7018 47.8573C59.7018 49.1286 58.6643 50.1637 57.3954 50.1637Z" fill="white"/>
</svg>
