<svg width="75" height="75" viewBox="0 0 75 75" fill="none" xmlns="http://www.w3.org/2000/svg">
<g clip-path="url(#clip0_5437_1856)">
<path d="M37.5 0C16.7906 0 0 16.7906 0 37.5C0 58.2094 16.7906 75 37.5 75C58.2094 75 75 58.2094 75 37.5C75 16.7906 58.2094 0 37.5 0ZM37.625 12.0563C41.75 12.1156 45.8563 13.1031 49.4375 15.1469C51.1531 16.1156 52.4281 17.1531 53.3063 17.9438C50.1249 20.3951 47.69 23.685 46.275 27.4437C46.0875 27.9594 45.8906 28.55 45.7031 29.15C45.2428 30.7848 44.9784 32.4684 44.9156 34.1656C44.9062 34.6719 44.9219 35.3344 44.925 35.9719C44.9625 36.7281 45.0812 37.5938 45.175 38.4375C45.877 42.6247 47.7802 46.5178 50.6531 49.6437C52.3328 51.4464 54.3094 52.9474 56.4969 54.0812C54.2911 56.9158 51.4855 59.2273 48.2812 60.85C44.56 62.7148 40.4195 63.5846 36.2625 63.375C36.0332 63.3642 35.804 63.3507 35.575 63.3344C33.9866 63.2333 32.4123 62.9747 30.875 62.5625C27.6823 61.7343 24.6794 60.2976 22.0312 58.3313C19.6357 56.5656 17.6224 54.3332 16.1125 51.7687C15.425 50.5812 11.4563 43.5063 13.7094 34.7313C14.5882 31.3441 16.2385 28.2061 18.5312 25.5625C16.1196 26.2001 13.8752 27.3537 11.9531 28.9438C12.875 26.7906 16.5812 18.75 25.6781 14.5625C29.4276 12.8592 33.5072 12.0055 37.625 12.0625V12.0563ZM55.4438 19.8938C56.075 20.2875 56.8938 20.8594 57.7438 21.6813C58.0813 22.0031 59.2375 23.1438 60.3063 24.975C61.5969 27.1719 62.0219 29.1219 62.2437 30.1313C62.7627 32.4997 62.7765 34.9509 62.2844 37.325C60.5035 35.183 58.3369 33.3938 55.8969 32.05C54.2519 32.1848 52.6266 32.4992 51.05 32.9875C49.9217 33.3356 48.8242 33.7767 47.7687 34.3062C47.8317 32.6486 48.1122 31.0064 48.6031 29.4219C49.1716 27.5903 50.0214 25.8581 51.1219 24.2875C52.3211 22.6036 53.7799 21.1206 55.4438 19.8938Z" fill="#3083E3"/>
</g>
<defs>
<clipPath id="clip0_5437_1856">
<rect width="75" height="75" fill="white"/>
</clipPath>
</defs>
</svg>
