<svg width="387" height="354" viewBox="0 0 387 354" fill="none" xmlns="http://www.w3.org/2000/svg">
<path d="M158.487 1.84241C153.815 3.92526 148.319 9.63052 138.058 23.2144C129.722 34.2627 119.919 44.1337 111.766 49.9295C103.154 55.997 93.4435 73.5656 88.9545 91.2247C87.1223 98.2883 87.1223 103.631 88.8629 110.242C90.5119 116.581 89.779 122.105 85.8398 133.244C76.7702 158.782 75.3961 160.503 57.1654 168.11C27.4834 180.335 9.71079 193.014 2.93156 206.507C0.274834 211.941 0 213.208 0 220.725C0 228.603 0.183223 229.328 3.66445 236.12C6.41279 241.372 8.42824 243.999 11.6346 246.444C20.3377 252.873 35.0871 257.039 58.6312 259.484C91.7945 263.107 98.4821 264.646 104.712 270.533C109.201 274.789 109.201 274.97 105.078 283.392C98.7569 296.251 69.3497 323.782 46.7217 337.909C37.0109 343.976 30.6898 348.867 30.6898 350.225C30.6898 350.949 30.873 351.493 31.0562 351.493C31.2394 351.493 33.6213 351.946 36.2781 352.398C39.0264 352.942 52.1268 353.395 65.5021 353.395C96.4667 353.395 97.1079 353.213 106.819 343.433C114.881 335.464 123.4 323.057 129.172 311.194C133.111 303.043 135.493 296.07 138.241 284.116C140.348 275.242 142.089 273.612 149.784 273.612C153.082 273.612 158.121 273.974 160.869 274.427C163.618 274.879 168.931 275.694 172.687 276.238C182.398 277.687 221.608 284.207 233.609 286.29C335.938 304.492 349.222 307.571 355.268 314.182C358.292 317.442 356.551 320.703 346.657 331.298C341.618 336.732 336.03 343.252 334.198 345.878C330.9 350.587 330.808 350.768 332.457 352.036C337.129 355.387 346.749 354.391 356.826 349.5C365.621 345.244 379.179 331.66 383.851 322.333C386.966 315.993 387.241 314.907 386.874 309.473C386.6 304.583 386.05 302.953 383.76 300.146C382.294 298.244 379.179 295.799 376.889 294.712C369.102 290.818 327.144 283.03 248.267 270.895C189.177 261.839 177.359 259.665 173.695 257.401C168.198 253.87 185.146 246.353 235.441 229.781L256.603 222.898L262.924 210.039C270.162 195.549 276.116 186.765 284.178 178.796C295.355 167.747 307.814 137.41 306.073 125.366C305.798 123.192 304.516 119.66 303.233 117.487C300.485 112.778 300.21 106.529 302.317 90.2285C303.05 84.2516 303.691 75.0145 303.691 69.7621C303.691 54.2764 300.943 48.1183 291.782 43.5903C285.003 40.2397 224.722 16.513 204.476 9.26828C178.367 -0.0593567 166.824 -1.96112 158.487 1.84241ZM192.292 20.1354C219.959 29.2819 260.817 45.9449 279.414 55.6348C285.552 58.8044 286.926 59.9816 287.843 62.6078C290.866 71.3921 287.568 95.7527 282.346 103.541C279.139 108.159 276.3 108.703 269.062 106.167C258.527 102.454 170.031 68.132 159.404 63.6945C147.403 58.6232 141.539 53.8236 141.539 49.1145C141.539 42.0508 157.205 19.7732 165.267 15.5169C169.756 13.0718 172.504 13.5246 192.292 20.1354ZM143.005 131.524C161.236 137.138 214.279 157.424 233.425 166.117C241.304 169.649 241.396 169.74 241.396 173C241.396 177.437 238.647 187.037 232.418 204.515L227.196 219.276L222.615 220.091C220.142 220.634 210.431 222.264 201.087 223.804C143.646 233.403 139.799 234.49 130.271 244.361C122.209 252.602 120.194 253.688 112.499 253.688C104.254 253.688 99.673 252.873 73.289 246.353C38.5683 237.841 32.2472 235.395 28.3079 228.785C23.2693 220.181 26.8421 210.22 39.3928 198.719C48.9204 189.844 61.1047 182.599 81.9005 173.543C99.5814 165.846 101.23 164.94 105.628 160.956C109.109 157.786 111.124 154.254 114.514 145.289C117.171 138.406 120.652 132.158 123.4 129.441C125.782 127.086 130.18 127.63 143.005 131.524Z" fill="url(#paint0_linear_3036_347)" fill-opacity="0.1"/>
<defs>
<linearGradient id="paint0_linear_3036_347" x1="193.5" y1="354" x2="193.5" y2="0" gradientUnits="userSpaceOnUse">
<stop stop-color="white" stop-opacity="0"/>
<stop offset="0.510417" stop-color="white"/>
<stop offset="1" stop-color="white"/>
</linearGradient>
</defs>
</svg>
