<svg width="75" height="76" viewBox="0 0 75 76" fill="none" xmlns="http://www.w3.org/2000/svg">
<path d="M41.1568 2.54284C41.0165 2.70172 40.9801 2.94004 40.9437 4.00453C40.9021 5.38148 40.7878 6.5466 40.6266 7.3251C40.3824 8.522 39.7535 10.2697 39.0674 11.6625C38.8335 12.1444 38.7503 12.2345 37.9395 12.8488L37.5341 13.156L36.7441 13.2301C36.3075 13.2725 35.611 13.3625 35.19 13.4314C34.7691 13.5055 34.374 13.5638 34.3169 13.5638C34.1142 13.5638 33.7659 12.9071 33.4593 11.9485C33.1838 11.08 32.9031 10.4338 32.6121 10.0049C32.5289 9.87777 32.2379 9.3005 31.9676 8.71265C31.2244 7.10797 30.1797 5.355 29.7223 4.94192C29.4468 4.7036 29.2441 4.65594 29.0986 4.80422C28.9167 4.98428 28.9946 5.27026 29.6183 6.78492C31.2192 10.6722 31.3231 10.9634 31.4842 12.0862C31.5934 12.87 31.583 13.2619 31.4426 13.6167C31.3387 13.8815 31.2971 13.9239 31.0216 14.0616C30.8397 14.1569 30.6058 14.2258 30.4343 14.2416C30.19 14.2628 30.1069 14.2416 29.7794 14.0775C28.5684 13.4631 27.4977 11.8849 27.0196 10.0049C26.9468 9.72418 26.8273 9.10455 26.7545 8.62791C26.5622 7.39925 26.4271 6.73725 26.3127 6.49364C26.136 6.11762 25.7358 5.99052 25.3927 6.20236C25.1121 6.37183 25.0913 6.46716 25.1017 7.3304C25.1381 9.88836 25.8241 12.2398 27.0456 14.0086C27.1859 14.2099 27.2898 14.3846 27.2794 14.3952C27.2483 14.4323 25.611 13.9292 25.1433 13.7385C23.4905 13.0712 22.2119 12.1021 21.2607 10.7887C20.5747 9.84599 20.0445 8.7709 19.4468 7.10797C19.2545 6.56248 19.0466 6.07526 18.9842 6.00641C18.8283 5.84223 18.5528 5.84223 18.3917 6.00641C18.3034 6.09644 18.2514 6.24473 18.2098 6.50423C18.1526 6.82199 18.163 6.96498 18.2566 7.55813C18.6724 10.1902 19.5663 12.065 21.1204 13.5902C21.8792 14.3317 22.6017 14.8401 23.7192 15.4279L24.2597 15.7086L23.636 15.7351C22.9811 15.7616 22.8356 15.8093 22.6952 16.0264C22.5289 16.2859 22.716 16.4924 23.3709 16.7678C24.2909 17.1544 24.847 17.2921 25.8813 17.3822C27.4146 17.5199 28.5736 17.3769 31.4842 16.6884C33.0175 16.3283 33.111 16.3177 35.4083 16.3441C36.9312 16.36 37.5861 16.3865 37.9395 16.4448C39.0102 16.6301 39.556 17.0114 39.6495 17.6311C39.6755 17.8217 39.6547 17.9118 39.5196 18.1871C39.4312 18.3672 39.3169 18.5738 39.2597 18.6426L39.1661 18.7697L38.9842 18.632C38.6776 18.3884 38.0591 18.3354 37.846 18.5261C37.7108 18.6426 37.5029 19.1722 37.4614 19.4953C37.4094 19.8872 37.373 19.9401 37.1131 20.0196C36.7337 20.1361 36.3335 20.4009 35.9541 20.7981C35.5695 21.1953 35.4343 21.2853 35.0185 21.4177C33.8647 21.7831 32.5289 22.2545 32.03 22.4716C30.8241 22.9959 28.5165 24.3358 27.5601 25.0666C26.9936 25.4956 26.6973 25.8769 26.3179 26.666C26.0165 27.3015 25.3564 28.3025 24.8626 28.8691C24.7223 29.0333 24.3948 29.3193 24.1298 29.5046C21.9676 31.0405 21.214 31.6495 19.9769 32.8623C19.4936 33.3336 18.5528 34.1651 17.846 34.7424C16.3127 35.9869 15.8657 36.4106 15.8657 36.6118C15.8657 36.8025 16.0009 37.4433 16.1204 37.814C16.2659 38.2695 16.4219 38.5449 16.6661 38.7938C16.874 39.0056 17.0611 39.1168 17.8927 39.5034C18.0799 39.5882 18.4073 39.8106 18.6204 39.9907C19.53 40.7745 20.0081 40.9704 20.9593 40.9651C22.2223 40.9492 23.3761 40.7109 25.4291 40.033L26.2347 39.7682L28.5476 39.7206C29.821 39.6994 31.058 39.6517 31.3023 39.62C31.5414 39.5882 31.7649 39.5723 31.8013 39.5882C31.9104 39.6305 32.1651 40.5362 32.6537 42.5857C33.6724 46.8542 33.6724 46.8648 33.6204 47.6857C33.584 48.263 33.4333 48.7237 32.451 51.2446C31.9832 52.4309 31.7337 53.2518 31.609 53.9985C31.5674 54.2421 31.5414 55.0895 31.5414 56.4876C31.5362 58.9767 31.5882 58.7384 30.8345 59.6917C29.9562 60.8038 29.4884 61.6035 29.1505 62.5939C28.636 64.1085 28.5788 65.7662 29.0102 66.8571C29.0986 67.0849 29.1713 67.3232 29.1713 67.3867C29.1765 67.7469 29.6027 68.25 30.0081 68.3718C30.1952 68.43 30.216 68.4512 30.19 68.5624C30.1537 68.7054 30.1381 68.7001 31.5102 68.9279C35.3668 69.5687 38.9842 70.0347 41.2036 70.183C43.3189 70.3207 44.3688 70.1512 47.7212 69.145C49.4052 68.6366 52.7368 67.5033 54.3533 66.8889L54.821 66.7089L54.8522 66.4705C54.8678 66.3381 55.0133 65.8615 55.1745 65.4113C55.6682 64.0185 56.0892 62.4244 56.2036 61.5135C56.3127 60.6238 56.1776 59.2256 55.8345 57.6157C55.5799 56.4347 54.873 54.7082 53.8439 52.7328C53.7763 52.6057 53.7711 52.4097 53.7919 51.4882C53.8283 50.1219 53.7659 49.2374 53.4697 47.1085C52.6797 41.41 52.3158 40.0913 50.4551 36.204C50.1485 35.5632 49.7015 34.5729 49.4572 34.0062C48.7451 32.3327 48.3449 31.6389 47.4821 30.585C46.4946 29.3828 45.0445 27.9847 43.3449 26.5813C42.9187 26.2317 42.5861 25.9352 42.6017 25.9193C42.6173 25.9034 42.7264 25.9299 42.846 25.9775C43.3449 26.1841 43.9063 26.2794 44.8834 26.3271C47.3834 26.4489 48.6048 26.0781 50.9749 24.4682C52.0663 23.7267 52.3782 23.4355 52.6849 22.837C52.9135 22.3869 53.0279 21.9844 53.0279 21.6242C53.0279 21.3541 53.0123 21.3171 52.8304 21.1423C52.425 20.7557 51.7961 20.4591 50.9333 20.2473C50.6162 20.1731 50.2992 20.1572 48.8439 20.1625C46.3231 20.1731 45.3044 20.2738 43.8907 20.671C43.5684 20.761 43.293 20.8192 43.2722 20.8034C43.2566 20.7875 43.3865 20.4644 43.558 20.0937C44.135 18.8333 44.4364 17.6417 44.3844 16.8049L44.3584 16.3653L44.6495 15.9575C46.4478 13.4208 47.347 11.7049 47.9083 9.72418C48.1214 8.98804 48.137 8.53259 47.9655 7.98181C47.8927 7.73289 47.7732 7.4681 47.7108 7.38866C47.6069 7.26685 47.5757 7.25626 47.477 7.30922C47.321 7.39395 47.2898 7.4681 47.1131 8.18835C46.926 8.94038 46.8325 9.1787 46.3231 10.0949C45.5071 11.5884 43.7244 14.2522 43.5476 14.2522C43.5268 14.2522 43.3761 14.1304 43.2202 13.9874C42.742 13.5426 41.9572 13.1295 41.1464 12.9018C40.9801 12.8541 40.8137 12.8064 40.7774 12.7958C40.7358 12.78 40.7774 12.584 40.9229 12.1497C41.162 11.4295 41.4894 10.2644 41.8117 9.00922L42.0352 8.13539V6.4142C42.0352 4.67712 41.9936 4.12634 41.8169 3.39549C41.6194 2.58521 41.3855 2.28334 41.1568 2.54284Z" fill="white"/>
<path d="M34.394 3.36187C34.394 4.66673 34.4233 8.95748 34.4526 12.9014C34.4819 16.8454 34.5229 22.8819 34.5464 26.3203L34.5874 32.5625L36.4624 32.5507L38.3374 32.5331L38.3257 29.8587C38.314 26.6201 38.2202 12.6311 38.1675 5.8893L38.1265 0.999018H36.2632H34.394V3.36187Z" fill="#FF3131"/>
<path d="M47.9351 24.8617C44.6245 24.8911 44.5718 24.8911 44.5601 25.0087C44.5483 25.0733 44.5249 25.8139 44.5073 26.6486L44.4663 28.1709L47.5425 28.1298L50.6245 28.0827V30.4691V32.8555H52.3237H54.023V30.5161C54.023 29.2289 54.0054 27.4127 53.9819 26.4899L53.9468 24.803L52.6226 24.8147C51.896 24.8265 49.7866 24.8441 47.9351 24.8617Z" fill="#FF3131"/>
<path d="M21.0825 25.0218L19.8052 25.0395V26.5265C19.8052 27.3377 19.8228 29.1363 19.8462 30.5175L19.8813 33.0332H21.5396H23.1978L23.1626 30.6527L23.1274 28.2722H25.3774C26.6138 28.2722 27.9673 28.2546 28.3833 28.2311L29.1392 28.1958L29.0981 27.1613C29.0806 26.5912 29.0454 25.8682 29.022 25.5508L28.9868 24.9807L25.6704 24.9924C23.8481 25.0042 21.7798 25.016 21.0825 25.0218Z" fill="#FF3131"/>
<path d="M62.2852 37.4455C58.6289 37.469 53.1211 37.5101 50.0566 37.5336L44.4727 37.5689V39.3557V41.1426H46.3359C48.6797 41.1426 65.6836 41.0368 71.0039 40.9898L75 40.9545V39.1677V37.3808L71.9707 37.3926C70.3008 37.3985 65.9414 37.422 62.2852 37.4455Z" fill="#FF3131"/>
<path d="M12.5977 37.6876C8.26172 37.7112 3.65625 37.7523 2.36133 37.7699L0 37.8052V39.5979V41.3906L4.5293 41.3554C11.1094 41.2966 25.2187 41.2025 27.3516 41.2025H29.1797V39.4098V37.6171L24.832 37.6289C22.4355 37.6347 16.9336 37.6583 12.5977 37.6876Z" fill="#FF3131"/>
<path d="M50.6772 46.0036C50.6772 46.033 50.6772 47.0381 50.6831 48.2489L50.689 50.4413L48.2397 50.406C46.8921 50.3825 45.5327 50.3531 45.2222 50.3355L44.6479 50.3002V51.9519V53.6035H48.0933C49.9858 53.6035 52.1069 53.5859 52.8101 53.5624L54.0815 53.5271V49.7418V45.9624H52.3823C51.4507 45.9624 50.6831 45.9801 50.6772 46.0036Z" fill="#FF3131"/>
<path d="M19.9688 50.0004C19.9805 52.0635 19.998 53.7563 20.0039 53.7621C20.0098 53.768 22.0664 53.7563 24.5684 53.7386L29.1211 53.7034V52.0694V50.4412L28.4063 50.4706C26.6074 50.5411 23.3086 50.6352 23.2852 50.6117C23.2734 50.5999 23.2617 49.6125 23.2617 48.4193V46.2563H21.6035H19.9453L19.9688 50.0004Z" fill="#FF3131"/>
<path d="M34.7466 49.6187C34.7466 52.2108 34.8579 69.4561 34.8989 72.9828L34.9341 75.998H36.8091H38.6841L38.6489 70.5435C38.6255 67.5459 38.5845 61.7504 38.5552 57.6595C38.52 53.5686 38.4966 49.6893 38.4966 49.031V47.8437H36.6216H34.7466V49.6187Z" fill="#FF3131"/>
</svg>
