<svg width="49" height="40" viewBox="0 0 49 40" fill="none" xmlns="http://www.w3.org/2000/svg">
<path fill-rule="evenodd" clip-rule="evenodd" d="M21.5482 0.190665C19.2861 0.634924 16.715 1.76041 14.9027 3.09967C13.964 3.79339 13.3598 4.4209 7.86676 10.4059C4.56165 14.0069 1.72583 17.1223 1.56493 17.3289C0.862079 18.2313 0.372485 19.3963 0.135394 20.7308C-0.0434061 21.737 -0.0449375 22.4293 0.129746 23.3083C0.265952 23.9934 3.74336 35.4554 4.11446 36.4424C4.64272 37.8474 5.86732 39.0197 7.50801 39.691L8.1766 39.9646L26.886 39.989C45.5576 40.0133 45.5966 40.013 46.1882 39.8198C47.5267 39.3827 48.5393 38.3003 48.8607 36.9629C48.9764 36.4821 48.9974 33.6169 48.9986 18.1977L49 0L35.7192 0.00788956C23.1691 0.0154035 22.3895 0.0254532 21.5482 0.190665ZM44.8842 10.9891V18.0334H25.6283H6.37242L6.56596 17.822C6.67231 17.7058 8.92635 15.2438 11.5748 12.351C14.2232 9.45812 16.6375 6.87991 16.9398 6.62162C18.3882 5.38408 20.9706 4.25841 22.8571 4.0422C23.2059 4.00218 28.3048 3.96396 34.1878 3.9571L44.8842 3.9448V10.9891ZM44.8842 23.9975V26.0169H40.8162H36.7482V23.9975V21.9782H40.8162H44.8842V23.9975Z" fill="white"/>
</svg>
