<svg width="67" height="50" viewBox="0 0 67 50" fill="none" xmlns="http://www.w3.org/2000/svg">
<circle cx="25" cy="25" r="24" stroke="white" stroke-width="2"/>
<path d="M65.6407 5.11637C65.5001 5.17749 65.0454 5.35612 64.6329 5.51595C63.6344 5.90612 63.6719 5.88731 63.6719 6.01424C63.6719 6.14586 63.6485 6.15526 62.8797 6.47962C62.5563 6.61595 61.2016 7.18475 59.8751 7.74885C58.5485 8.30825 57.2922 8.83945 57.086 8.92407C56.8797 9.00868 56.2797 9.26253 55.7501 9.48817C54.8126 9.88774 53.5751 10.4048 52.8204 10.7104C51.9626 11.063 51.3438 11.3121 50.9922 11.4625C50.6454 11.6083 47.4204 12.9386 45.9532 13.5403C45.6063 13.6813 45.0766 13.9023 44.7813 14.0245C44.486 14.1467 43.886 14.3865 43.4454 14.5557C42.6204 14.8754 42.1751 15.0352 39.0157 16.1399C38.6547 16.2668 38.5985 16.2997 38.0782 16.704C37.6563 17.033 37.2204 17.3339 36.9813 17.4655C36.8641 17.5266 36.7563 17.536 36.461 17.5172C36.1422 17.4937 36.0672 17.5031 36.0016 17.5689C35.8797 17.6912 35.8985 17.9826 36.0391 18.1518C36.1047 18.2318 36.1563 18.3117 36.1563 18.3352C36.1563 18.3963 35.786 18.6971 35.5938 18.7959C35.4063 18.8899 35.0313 19.2377 35.0313 19.3129C35.0313 19.3412 34.961 19.4493 34.8766 19.5527C34.7922 19.6514 34.6704 19.8065 34.6094 19.8959C34.5532 19.9805 34.4266 20.0839 34.3329 20.1215L34.1688 20.192L33.9532 19.957C33.7001 19.6749 33.5126 19.5715 33.2454 19.5715C32.9829 19.5715 32.3079 19.783 32.1766 19.9053C31.886 20.1779 31.586 20.8501 31.4454 21.5506L31.361 21.9595L31.0047 22.1617C30.8079 22.2698 30.4094 22.4954 30.1235 22.66C29.6126 22.9514 29.5001 22.9843 29.5001 22.8339C29.5001 22.7117 29.0266 21.6822 28.7407 21.1839C28.5907 20.9206 28.4688 20.695 28.4688 20.6809C28.4688 20.6668 28.5391 20.554 28.6282 20.4318C28.8344 20.1403 29.036 19.7454 29.0735 19.5621L29.1016 19.4164L30.3204 19.4258C31.7547 19.4352 32.1532 19.3741 32.8001 19.0591C33.2547 18.8382 33.6579 18.4433 33.8547 18.0202C33.9672 17.7852 33.9766 17.71 33.9719 17.1929C33.9719 16.7134 33.9532 16.5912 33.8688 16.4172C33.8126 16.3044 33.7235 16.1822 33.6719 16.1493C33.536 16.0647 32.8657 16.013 31.2344 15.9565C28.7688 15.8672 28.9657 15.8954 28.8297 15.6087C28.7876 15.5241 28.5532 15.2044 28.3047 14.8942C28.0516 14.5839 27.7188 14.1514 27.5641 13.9305C26.6688 12.6848 26.0501 12.0407 25.4032 11.6788C24.7985 11.345 24.5079 11.2792 23.8047 11.3215C23.4954 11.3403 23.0735 11.3826 22.8672 11.4155C22.661 11.4484 22.2297 11.5189 21.9063 11.5707C21.5829 11.6224 21.1657 11.6929 20.9782 11.7258C20.6501 11.7869 20.636 11.7869 20.5657 11.6835C20.4157 11.4672 19.7641 11.5989 19.6563 11.8621C19.5719 12.0642 19.2438 12.3134 18.6766 12.6048C17.9922 12.9574 17.8422 13.0702 17.1766 13.7189C16.3376 14.5369 15.9344 15.0634 15.6532 15.7168C15.5782 15.886 15.4469 16.1728 15.3626 16.3608C15.2782 16.5489 15.1938 16.7604 15.1751 16.8309C15.1563 16.9014 15.1235 16.986 15.1047 17.0142C15.0813 17.0424 15.0344 17.2775 14.9922 17.5407C14.9547 17.804 14.8797 18.1706 14.8329 18.3587C14.7813 18.5467 14.7297 18.7959 14.7157 18.9134C14.6688 19.2377 14.636 19.2612 14.4532 19.1249C14.1813 18.9275 14.0688 19.0027 14.1719 19.3129C14.2188 19.4587 14.2188 19.4963 14.1438 19.5762C14.0454 19.6843 14.0829 19.736 14.3079 19.7924C14.4954 19.8394 14.5469 19.9241 14.4063 19.9617C14.3032 19.9899 14.2751 20.1356 14.3782 20.1356C14.411 20.1356 14.5376 20.1779 14.6547 20.2296C14.8329 20.3095 14.8891 20.3659 14.9829 20.5728C15.0672 20.7561 15.086 20.8454 15.0532 20.93C15.0251 21.01 15.0344 21.0711 15.086 21.1416C15.1235 21.198 15.2313 21.3484 15.3251 21.4847C15.5126 21.7527 15.5079 21.7856 15.2407 22.11C15.1704 22.1993 15.1094 22.3074 15.1094 22.3497C15.1094 22.392 15.0766 22.4531 15.0391 22.486C15.0016 22.5189 14.9688 22.5706 14.9688 22.5988C14.9688 22.6318 14.9079 22.7399 14.8282 22.8433C14.6594 23.0689 14.6547 23.1629 14.8047 23.3557C14.9172 23.5108 14.9172 23.5108 14.8282 23.6142C14.7626 23.6894 14.7344 23.7929 14.7344 23.9527C14.7344 24.0749 14.7251 24.1783 14.711 24.1783C14.6969 24.1783 14.4907 24.0843 14.2516 23.9715C14.0079 23.854 13.7172 23.7459 13.5813 23.7318L13.3422 23.7035L13.1407 23.9292C12.8688 24.2394 12.761 24.4745 12.7282 24.8082C12.7188 24.9681 12.6766 25.1373 12.6438 25.189C12.6063 25.2407 12.5782 25.3818 12.5782 25.504C12.5782 25.6215 12.5547 25.7813 12.5266 25.8565C12.4891 25.9506 12.4938 26.0352 12.536 26.1621C12.5922 26.3313 12.5876 26.336 12.3532 26.6087C12.2219 26.7591 12.0485 26.98 11.9594 27.0976C11.8751 27.2198 11.6829 27.4642 11.5329 27.6382C11.0969 28.1506 10.8157 28.6065 10.6844 29.0108C10.5485 29.4151 10.5157 29.4574 10.1641 29.6595C9.86412 29.8335 9.29693 30.3741 9.11412 30.6608C8.89849 30.9946 8.60787 31.7279 8.45318 32.3249C8.29381 32.936 7.98443 34.4826 7.98443 34.6659C7.98443 34.7365 7.95162 34.8164 7.91412 34.8493C7.87662 34.8822 7.84381 34.9292 7.84381 34.9574C7.84381 35.0232 7.52506 35.9352 7.45943 36.0433C7.43599 36.095 7.39381 36.3771 7.37037 36.6779C7.30943 37.4018 7.16412 38.2762 7.06568 38.483C6.99068 38.6335 6.99068 38.6852 7.04693 38.9249C7.07974 39.0753 7.17349 39.3574 7.24849 39.5501C7.40318 39.9356 7.45006 40.2882 7.43599 40.9463C7.43131 41.2894 7.44068 41.3835 7.49224 41.3835C7.52506 41.3835 7.56256 41.3553 7.57662 41.3224C7.62349 41.186 8.42974 40.904 8.45318 42.6057C8.46724 43.6023 9.47187 43.4822 9.5 43.9993C9.56562 45.198 11.9719 44.9758 12 44.9993C12.0094 45.0087 13.975 48.5035 20.5 48.4988L28 48.5L31.5672 48.7168C30.6204 46.7518 29.2938 43.4095 29.3735 43.1933C29.3876 43.1604 29.5001 43.1181 29.6266 43.104C29.7485 43.0852 29.9266 43.0523 30.0157 43.0288C30.1047 43.0053 30.5594 42.9112 31.0282 42.8219C31.4922 42.7326 31.9329 42.6339 32.0032 42.6057C32.1485 42.554 32.7204 42.3941 33.1094 42.3001C33.2501 42.2672 33.5688 42.2249 33.8126 42.2108C34.1829 42.1826 34.4032 42.1309 35.1251 41.8912C35.6032 41.7313 36.1188 41.5433 36.2735 41.4728C36.4282 41.407 36.7657 41.28 37.0188 41.1954C37.5813 41.0168 37.9329 40.8429 38.2516 40.5937C38.4485 40.4386 38.5376 40.3117 38.7579 39.8698C39.1047 39.1929 39.1891 39.0706 39.7376 38.4689C40.0938 38.0788 40.2016 37.9283 40.2579 37.7403C40.2954 37.6087 40.4313 37.2702 40.5672 36.9882C41.3172 35.3805 41.4485 34.9809 41.3735 34.5108C41.3594 34.4074 41.3688 34.304 41.3969 34.2711C41.4251 34.2382 41.4626 34.1206 41.4813 34.0172C41.5001 33.8903 41.5657 33.7587 41.6688 33.6506C41.8469 33.4578 41.9126 33.2087 41.8329 33.0347C41.786 32.9313 41.7579 32.9219 41.4579 32.9219C41.2797 32.9219 41.1204 32.9031 41.1063 32.8796C41.0922 32.8561 41.1813 32.5129 41.3079 32.1181C41.6172 31.145 41.6922 30.8818 41.9454 29.8664C42.1985 28.8416 42.2922 28.4843 42.7282 26.9518C42.911 26.3172 43.1407 25.4382 43.2391 25.001C43.6657 23.13 43.8157 22.6694 44.1672 22.1194C44.4016 21.7621 44.8094 21.4471 45.2313 21.3108C45.4094 21.2497 45.6344 21.1651 45.7282 21.1181C45.8266 21.0664 45.9391 21.0288 45.986 21.0288C46.0329 21.0241 46.1454 20.9629 46.2344 20.8877C46.3235 20.8078 46.4126 20.7467 46.4313 20.7467C46.4501 20.7467 46.5579 20.6809 46.6751 20.6057C46.7876 20.5258 46.9704 20.4318 47.0782 20.3941C47.3454 20.3001 47.5329 20.1544 47.6219 19.9805C47.6876 19.8582 47.6922 19.7642 47.6594 19.454C47.6079 18.9087 47.6172 18.6407 47.7063 18.3352C47.8422 17.8886 48.1047 17.6488 48.5641 17.5501C48.686 17.5219 48.8969 17.442 49.0235 17.3715C49.2485 17.2493 49.2579 17.2352 49.2954 16.986C49.3141 16.845 49.3422 16.5112 49.3563 16.248L49.3844 15.7638L49.9751 15.4254C50.3032 15.242 50.8985 14.8754 51.2969 14.6074C51.9813 14.1514 52.0422 14.1232 52.3282 14.0903C52.4969 14.0715 52.6704 14.0386 52.7172 14.0151C52.8485 13.9446 52.9376 13.686 52.9376 13.357V13.0608L53.6735 12.76C54.3626 12.4779 54.4141 12.4638 54.5266 12.5249C54.6063 12.5719 54.6485 12.6377 54.6485 12.7083C54.6532 12.807 54.6719 12.8258 54.7844 12.8117C54.9766 12.7882 55.4079 12.6189 55.5016 12.5296C55.5766 12.4544 55.5672 12.4497 55.3657 12.4356C55.2438 12.4262 55.1266 12.3933 55.0985 12.3604C54.9907 12.2335 55.3282 12.0219 56.3594 11.5801C56.9126 11.345 57.4329 11.1194 57.5079 11.0865C57.5876 11.0489 58.3469 10.7198 59.1954 10.3578C65.0547 7.83347 66.8829 7.01552 66.9626 6.86509C67.0422 6.71466 66.9766 6.43731 66.7938 6.16936C66.6766 5.99073 66.6251 5.86381 66.6251 5.74159C66.6251 5.50655 66.5547 5.33261 66.3766 5.14928C66.1985 4.96595 66.0157 4.95655 65.6407 5.11637ZM41.1719 19.3929C41.1719 19.4211 41.0547 19.6655 40.9141 19.9335C40.6985 20.3377 40.6188 20.5587 40.4454 21.2309C40.0563 22.7587 39.5829 24.3241 39.3344 24.8882C39.2922 24.9775 39.236 25.1232 39.2032 25.2125C39.1094 25.4617 38.5657 26.6886 38.336 27.1634C38.0032 27.8497 37.4829 28.5924 37.3797 28.5313C37.3516 28.5125 37.1547 28.2493 36.9532 27.9484C36.7469 27.6476 36.4891 27.2668 36.3813 27.1117C36.2688 26.9518 36.1047 26.6698 36.0157 26.4818L35.8516 26.1386L35.9876 26.0399C36.0672 25.9882 36.3204 25.7484 36.5594 25.5134C37.0188 25.0621 37.0094 25.0809 37.0704 24.5074C37.0844 24.357 37.1594 24.1219 37.2438 23.9527C37.3797 23.68 37.3891 23.6424 37.3422 23.4121C37.3141 23.2805 37.2813 23.1347 37.2626 23.0971C37.2391 23.036 37.3141 23.0266 37.8063 23.0266C38.336 23.0266 38.411 23.0172 38.7016 22.8903C39.0672 22.7352 39.4891 22.3779 39.6297 22.1053C39.6954 21.9689 39.7188 21.8279 39.7188 21.5176C39.7188 21.1651 39.7001 21.0805 39.6016 20.9065C39.4891 20.7185 39.2641 20.5681 38.8985 20.4412C38.8141 20.4129 38.8235 20.4035 38.9547 20.3471C39.2641 20.2155 39.4657 20.1168 39.6485 19.9993C39.8547 19.8723 41.0219 19.3459 41.1157 19.3412C41.1438 19.3365 41.1719 19.36 41.1719 19.3929ZM38.7719 20.8689C39.1141 21.1604 39.236 21.5082 39.1329 21.8655C38.9876 22.3544 38.5563 22.8151 38.2469 22.8151C38.1344 22.8151 38.0641 22.7681 37.9516 22.6271C37.7641 22.4061 37.7594 22.345 37.9188 22.345C38.3735 22.345 38.6641 21.56 38.4063 21.0523L38.3079 20.8642L38.411 20.7796C38.5422 20.6715 38.5469 20.6715 38.7719 20.8689ZM37.2251 21.9078C37.2485 21.9548 37.2907 22.0912 37.3188 22.2087C37.3516 22.3309 37.3891 22.4672 37.4032 22.5142C37.4266 22.5753 37.4219 22.5894 37.3844 22.5565C37.3188 22.4907 37.0985 21.8279 37.1454 21.8279C37.1688 21.8279 37.2016 21.8655 37.2251 21.9078ZM32.8282 27.1164C33.0719 27.2386 33.0672 27.2386 33.161 27.8074C33.2219 28.2211 33.1938 29.0578 33.1094 29.2929C33.0719 29.3916 32.9688 29.4997 32.8047 29.6078C32.4344 29.857 32.0126 30.3741 31.7454 30.91C31.511 31.3753 31.511 31.38 31.4126 31.2954C31.361 31.2437 31.1922 31.0322 31.0376 30.8206C30.7469 30.4164 30.4657 30.1954 30.2407 30.1954C29.9782 30.1954 29.9501 29.8899 30.1844 29.5796C30.2501 29.4903 30.3766 29.2694 30.4704 29.0907C30.686 28.6582 30.9954 28.2493 31.7219 27.4313L32.3219 26.7638L32.4626 26.8813C32.5422 26.9518 32.7063 27.0553 32.8282 27.1164ZM30.4376 30.5198C30.6251 30.6467 30.9532 31.0087 30.9532 31.0933C30.9532 31.1121 30.8547 31.1215 30.7329 31.1121C30.6063 31.098 30.3297 31.0792 30.1094 31.0698C29.6782 31.0463 29.5469 31.0134 29.5469 30.9288C29.5469 30.8253 30.0204 30.3835 30.1282 30.3835C30.1891 30.3835 30.3251 30.4446 30.4376 30.5198Z" fill="white"/>
<mask id="path-3-inside-1_3298_36" fill="white">
<path d="M50 25C50 29.1113 48.9861 33.1591 47.048 36.7849C45.11 40.4107 42.3077 43.5026 38.8893 45.7867C35.4709 48.0708 31.5419 49.4766 27.4504 49.8796C23.359 50.2826 19.2312 49.6703 15.4329 48.097C11.6346 46.5237 8.2829 44.0379 5.67474 40.8598C3.06657 37.6818 1.28244 33.9095 0.480368 29.8773C-0.321702 25.845 -0.116949 21.6771 1.07649 17.7429C2.26993 13.8086 4.41522 10.2294 7.32233 7.32233L8.73654 8.73655C6.062 11.4111 4.08834 14.7039 2.99037 18.3235C1.89241 21.943 1.70403 25.7774 2.44194 29.4871C3.17984 33.1968 4.82125 36.6672 7.22076 39.591C9.62027 42.5149 12.7038 44.8018 16.1983 46.2492C19.6927 47.6967 23.4902 48.26 27.2544 47.8892C31.0186 47.5185 34.6332 46.2252 37.7781 44.1238C40.923 42.0224 43.5012 39.1779 45.2842 35.8421C47.0672 32.5064 48 28.7824 48 25H50Z"/>
</mask>
<path d="M50 25C50 29.1113 48.9861 33.1591 47.048 36.7849C45.11 40.4107 42.3077 43.5026 38.8893 45.7867C35.4709 48.0708 31.5419 49.4766 27.4504 49.8796C23.359 50.2826 19.2312 49.6703 15.4329 48.097C11.6346 46.5237 8.2829 44.0379 5.67474 40.8598C3.06657 37.6818 1.28244 33.9095 0.480368 29.8773C-0.321702 25.845 -0.116949 21.6771 1.07649 17.7429C2.26993 13.8086 4.41522 10.2294 7.32233 7.32233L8.73654 8.73655C6.062 11.4111 4.08834 14.7039 2.99037 18.3235C1.89241 21.943 1.70403 25.7774 2.44194 29.4871C3.17984 33.1968 4.82125 36.6672 7.22076 39.591C9.62027 42.5149 12.7038 44.8018 16.1983 46.2492C19.6927 47.6967 23.4902 48.26 27.2544 47.8892C31.0186 47.5185 34.6332 46.2252 37.7781 44.1238C40.923 42.0224 43.5012 39.1779 45.2842 35.8421C47.0672 32.5064 48 28.7824 48 25H50Z" stroke="white" stroke-width="4" mask="url(#path-3-inside-1_3298_36)"/>
</svg>
