<svg width="35" height="36" viewBox="0 0 35 36" fill="none" xmlns="http://www.w3.org/2000/svg">
<path d="M30.625 29.667C30.625 30.4405 30.3177 31.1824 29.7707 31.7294C29.2237 32.2764 28.4819 32.5837 27.7083 32.5837H7.29167C6.51812 32.5837 5.77625 32.2764 5.22927 31.7294C4.68229 31.1824 4.375 30.4405 4.375 29.667C4.38946 27.0101 5.31037 24.4377 6.98542 22.3753C7.44631 21.8116 8.1014 21.4406 8.82193 21.3354C9.54245 21.2301 10.2763 21.3982 10.8792 21.8066C12.8301 23.132 15.1342 23.8406 17.4927 23.8406C19.8512 23.8406 22.1554 23.132 24.1063 21.8066C24.7103 21.394 25.4474 21.2234 26.1713 21.3288C26.8953 21.4341 27.5532 21.8077 28.0146 22.3753C29.6896 24.4377 30.6105 27.0101 30.625 29.667ZM17.5 20.917C19.2306 20.917 20.9223 20.4038 22.3612 19.4424C23.8002 18.4809 24.9217 17.1143 25.5839 15.5155C26.2462 13.9166 26.4195 12.1573 26.0819 10.46C25.7443 8.76262 24.9109 7.20352 23.6872 5.97981C22.4635 4.7561 20.9044 3.92275 19.207 3.58512C17.5097 3.2475 15.7504 3.42078 14.1515 4.08305C12.5527 4.74532 11.1861 5.86683 10.2246 7.30576C9.26318 8.74469 8.75 10.4364 8.75 12.167C8.75 14.4876 9.67187 16.7132 11.3128 18.3542C12.9538 19.9951 15.1794 20.917 17.5 20.917Z" fill="white"/>
</svg>
