<svg width="20" height="20" viewBox="0 0 20 20" fill="none" xmlns="http://www.w3.org/2000/svg">
<path d="M15.8984 19.9994H4.10156C1.8402 19.9994 0 18.1592 0 15.8979C0 15.574 0.26207 15.3119 0.585938 15.3119H19.4141C19.7379 15.3119 20 15.574 20 15.8979C20 18.1592 18.1598 19.9994 15.8984 19.9994Z" fill="#F2C94C"/>
<path d="M10 0C4.50742 0 0 3.41719 0 7.61719C0 7.94105 0.26207 8.20312 0.585938 8.20312H19.4141C19.7379 8.20312 20 7.94105 20 7.61719C20 3.41719 15.4926 0 10 0ZM5.6877 4.51582L4.51582 5.6877C4.28695 5.91656 3.91617 5.9166 3.68727 5.6877C3.4584 5.45883 3.4584 5.08801 3.68727 4.85914L4.85914 3.68727C5.08801 3.4584 5.45883 3.4584 5.6877 3.68727C5.91656 3.91613 5.9166 4.28695 5.6877 4.51582ZM9.24238 4.51582L8.07051 5.6877C7.84164 5.91656 7.47086 5.9166 7.24195 5.6877C7.01309 5.45883 7.01309 5.08801 7.24195 4.85914L8.41383 3.68727C8.6427 3.4584 9.01352 3.4584 9.24238 3.68727C9.47125 3.91613 9.47129 4.28695 9.24238 4.51582ZM12.758 4.51582L11.5861 5.6877C11.3573 5.91656 10.9865 5.9166 10.7576 5.6877C10.5287 5.45883 10.5287 5.08801 10.7576 4.85914L11.9295 3.68727C12.1583 3.4584 12.5291 3.4584 12.758 3.68727C12.9869 3.91613 12.9869 4.28695 12.758 4.51582ZM15.9871 4.51582L14.8153 5.6877C14.5864 5.91656 14.2156 5.9166 13.9867 5.6877C13.7579 5.45883 13.7579 5.08801 13.9867 4.85914L15.1586 3.68727C15.3875 3.4584 15.7583 3.4584 15.9871 3.68727C16.216 3.91613 16.216 4.28695 15.9871 4.51582Z" fill="#F2C94C"/>
<path d="M0.585938 10.5854C0.867188 10.5854 1.11328 10.6206 1.32422 10.6791C1.24152 10.9456 1.21836 11.0252 1.17188 11.851C1.01953 11.7924 0.83207 11.7573 0.585938 11.7573C0.257773 11.7573 0 11.4995 0 11.1714C0 10.8432 0.257773 10.5854 0.585938 10.5854Z" fill="#F2C94C"/>
<path d="M20 11.1714C20 11.4995 19.7422 11.7573 19.4141 11.7573C19.1679 11.7573 18.9805 11.7924 18.8281 11.851C18.8155 11.6261 18.8394 11.2062 18.6758 10.6791C18.8867 10.6206 19.1328 10.5854 19.4141 10.5854C19.7422 10.5854 20 10.8432 20 11.1714Z" fill="#F2C94C"/>
<path d="M1.32422 10.6785C1.85156 10.8074 2.20313 11.0652 2.4961 11.2879C2.85938 11.5574 3.12887 11.7566 3.71481 11.7566C4.30075 11.7566 4.5586 11.5574 4.92188 11.2878C5.34376 10.9714 5.89845 10.5848 6.8711 10.5848C7.85544 10.5848 8.37107 10.9714 8.79294 11.2878C9.1563 11.5574 9.41408 11.7566 10 11.7566C10.586 11.7566 10.8437 11.5574 11.2071 11.2878C11.629 10.9714 12.1446 10.5848 13.1289 10.5848C14.1016 10.5848 14.6563 10.9714 15.0781 11.2878C15.4414 11.5573 15.6993 11.7566 16.2852 11.7566C16.8712 11.7566 17.1407 11.5574 17.5039 11.2878C17.7969 11.0652 18.1485 10.8074 18.6758 10.6784C18.5522 10.218 18.3463 9.79331 18.0814 9.41284H1.91859C1.65375 9.79331 1.44781 10.218 1.32422 10.6785Z" fill="#F2C94C"/>
<path d="M18.0896 14.1002C18.5391 13.4588 18.8105 12.6847 18.8282 11.8502C18.5938 11.9322 18.4181 12.0728 18.2071 12.2252C17.7852 12.5416 17.2696 12.9283 16.2852 12.9283C15.3126 12.9283 14.7969 12.5416 14.3751 12.2252C14.0118 11.9556 13.7149 11.7564 13.1289 11.7564C12.543 11.7564 12.2735 11.9556 11.9102 12.2252C11.5001 12.5416 10.9727 12.9283 10.0001 12.9283C9.0274 12.9283 8.50001 12.5416 8.08989 12.2252C7.72661 11.9556 7.45712 11.7564 6.87118 11.7564C6.28524 11.7564 5.98833 11.9556 5.62505 12.2252C5.20317 12.5416 4.68754 12.9283 3.71485 12.9283C2.73051 12.9283 2.21488 12.5416 1.79301 12.2252C1.58199 12.0728 1.40625 11.9322 1.17188 11.8502C1.18953 12.6847 1.46098 13.4588 1.91043 14.1002H18.0896Z" fill="#F2C94C"/>
</svg>
