<svg width="16" height="20" viewBox="0 0 16 20" fill="none" xmlns="http://www.w3.org/2000/svg">
<path d="M14.0048 14.2963L10.8205 12.7043C10.5202 12.554 10.3335 12.252 10.3335 11.916V10.789C10.4098 10.6957 10.4902 10.5893 10.5732 10.472C10.9862 9.88867 11.3172 9.23933 11.5578 8.539C12.0282 8.32333 12.3335 7.85833 12.3335 7.33333V6C12.3335 5.679 12.2135 5.368 12.0002 5.125V3.352C12.0188 3.16867 12.0922 2.07733 11.3028 1.177C10.6182 0.396 9.50716 0 8.00016 0C6.49316 0 5.38216 0.396 4.6975 1.17667C3.90816 2.077 3.9815 3.16867 4.00016 3.352V5.125C3.78683 5.368 3.66683 5.679 3.66683 6V7.33333C3.66683 7.739 3.85116 8.11733 4.16583 8.36967C4.47116 9.57867 5.11016 10.4897 5.3335 10.782V11.885C5.3335 12.2077 5.1575 12.5037 4.8745 12.6583L1.90083 14.2803C0.933829 14.808 0.333496 15.8193 0.333496 16.9207V18C0.333496 19.582 5.3485 20 8.00016 20C10.6518 20 15.6668 19.582 15.6668 18V16.9857C15.6668 15.8397 15.0298 14.809 14.0048 14.2963Z" fill="white"/>
</svg>
