<svg width="48" height="47" viewBox="0 0 48 47" fill="none" xmlns="http://www.w3.org/2000/svg">
<path fill-rule="evenodd" clip-rule="evenodd" d="M8.78644 0.00848528C8.6833 0.0182704 8.3563 0.0483598 8.05977 0.0752804C5.97175 0.265102 3.81791 0.815182 1.96515 1.63185C1.30505 1.92283 0.56146 2.3299 0.336475 2.52344C0.0125224 2.80216 -0.0906172 3.25778 0.0846267 3.63587C0.211582 3.90976 2.3221 7.00277 2.5213 7.20688C2.72275 7.41329 3.08595 7.53719 3.34825 7.489C3.44131 7.47186 3.80113 7.3176 4.14791 7.14611C4.53853 6.95293 5.07711 6.73821 5.56351 6.58165C6.85116 6.16723 7.80009 5.99151 9.24729 5.89954C9.88061 5.85929 10.2178 5.85934 10.6386 5.89968C12.2144 6.05077 13.841 6.74786 15.5458 8.0026C15.9531 8.30231 16.0753 8.41596 16.0522 8.4732C15.982 8.64681 15.9742 8.86038 16.0306 9.06536C16.0859 9.26598 16.2491 9.43991 18.0467 11.2131L20.0027 13.1426L20.0041 15.5085C20.0054 17.7282 20.0114 17.8987 20.1012 18.2693C20.2084 18.7115 20.3537 19.058 20.607 19.4756C20.7397 19.6944 22.0801 21.0359 26.573 25.4465C29.7602 28.5752 32.4978 31.2269 32.6566 31.3392C33.0347 31.6066 33.6405 31.882 34.0792 31.9858C34.3286 32.0449 34.6078 32.0686 35.0402 32.0676C35.5224 32.0664 35.7246 32.0452 36.0086 31.9658C36.2061 31.9107 36.4828 31.8156 36.6236 31.7546L36.8797 31.6437L38.6322 33.3622C39.7602 34.4683 40.4527 35.1131 40.5753 35.1716C40.8047 35.281 41.1428 35.2892 41.3825 35.1912C41.4783 35.152 41.6254 35.0549 41.7091 34.9755C41.793 34.896 41.8613 34.8505 41.8611 34.8745C41.8596 35.0199 41.5932 35.9079 41.4345 36.2961C41.0244 37.2995 40.5047 38.0621 39.6815 38.8688C39.3721 39.172 38.9185 39.5592 38.6735 39.7292C38.1115 40.1193 37.2535 40.5408 36.5883 40.7536C36.3052 40.8441 35.8305 40.9624 35.5335 41.0164C35.0264 41.1087 34.7993 41.1163 31.8211 41.1402L28.6488 41.1657L28.4456 41.3055C28.3338 41.3825 28.1896 41.5375 28.1252 41.6501L28.0079 41.8548V44.0828V46.3109L28.1252 46.5156C28.1896 46.6282 28.3339 46.7832 28.4457 46.8602L28.6491 47L32.0556 46.9993C35.3135 46.9987 35.4898 46.9943 36.0957 46.8998C37.4701 46.6852 38.5326 46.389 39.6922 45.8974C41.2005 45.2579 42.6893 44.2649 43.8922 43.0961C44.847 42.1685 45.6292 41.1597 46.2799 40.0172C46.964 38.8161 47.4761 37.4427 47.7386 36.1054C47.9427 35.0656 47.9786 34.6868 47.9776 33.5857C47.9767 32.67 47.9628 32.4678 47.8736 32.0697C47.7263 31.4128 47.5647 30.9523 47.2642 30.3333L47.0012 29.7914L47.4299 29.3686C47.6656 29.1361 47.891 28.8689 47.9308 28.775C48.0303 28.5397 48.0217 28.2085 47.9103 27.9841C47.8507 27.8642 47.2129 27.2053 46.1303 26.1452L44.443 24.4931L45.0893 23.8482C45.4447 23.4935 45.8257 23.0905 45.936 22.9526C46.1827 22.644 46.4591 22.1129 46.5913 21.6935C46.7399 21.2218 46.7941 20.6402 46.7361 20.1392C46.677 19.6271 46.4717 19.0062 46.2245 18.5915C46.1238 18.4225 45.8836 18.1093 45.6907 17.8955C45.4978 17.6818 43.9892 16.1853 42.3383 14.5702L39.3366 11.6335L39.4499 11.4144C39.6262 11.0735 39.7983 10.43 39.8287 9.99812C39.8631 9.50868 39.7583 8.87834 39.5632 8.40071C39.305 7.769 39.0642 7.47058 37.8601 6.29071C37.1604 5.60502 36.6155 5.11071 36.4335 4.99659C36.0534 4.75826 35.5328 4.54708 35.1109 4.46011C34.636 4.36222 33.9057 4.37159 33.4462 4.48147C33.2399 4.53081 31.3096 5.26304 29.1565 6.10865L25.2419 7.64611L23.3667 5.81965C21.776 4.27043 21.4621 3.98505 21.2984 3.93948C21.1923 3.90994 21.053 3.88578 20.989 3.88578C20.8214 3.88578 20.576 3.97421 20.4108 4.09416L20.2678 4.19799L19.8951 3.89942C19.04 3.21456 17.8265 2.39297 16.9439 1.90124C15.2907 0.980335 13.5602 0.373796 11.7869 0.0936573C11.4724 0.0439508 10.9322 0.014825 10.146 0.00513178C9.50139 -0.00286169 8.88958 -0.00134578 8.78644 0.00848528ZM2.59805 11.8288C2.49491 11.8757 2.35994 11.9616 2.2981 12.0196C2.16266 12.1468 1.63505 12.9364 1.17575 13.6994C0.768678 14.3756 0.327615 15.2645 0.152746 15.7611C0.0414488 16.0773 0.0231179 16.2026 0.021477 16.657C0.0199299 17.079 0.0404642 17.2499 0.123539 17.5068C0.334225 18.1585 0.801261 18.7533 1.40008 19.1325C1.56501 19.237 1.87035 19.3771 2.07869 19.444C2.39918 19.5468 2.54029 19.5655 2.99654 19.5655C3.45495 19.5655 3.59335 19.547 3.92082 19.442C4.38091 19.2944 4.93196 18.9475 5.21246 18.629C5.50237 18.2996 5.75239 17.8731 5.87016 17.5068C5.95244 17.2508 5.97316 17.0776 5.97161 16.657C5.96997 16.2026 5.95164 16.0773 5.84034 15.7611C5.66477 15.2625 5.22319 14.3733 4.81649 13.6994C4.35044 12.9271 3.82757 12.1441 3.69428 12.019C3.52406 11.8592 3.231 11.7435 2.99654 11.7435C2.88051 11.7435 2.70119 11.7819 2.59805 11.8288Z" fill="white"/>
</svg>
