<svg width="56" height="42" viewBox="0 0 56 42" fill="none" xmlns="http://www.w3.org/2000/svg">
<mask id="path-1-outside-1_5902_203" maskUnits="userSpaceOnUse" x="0" y="0" width="56" height="42" fill="black">
<rect fill="white" width="56" height="42"/>
<path fill-rule="evenodd" clip-rule="evenodd" d="M38.282 2.04184C37.1024 2.12239 35.6581 2.40926 34.6565 2.76208C33.1474 3.2936 31.559 4.28959 30.4066 5.42688C28.6792 7.1316 27.4238 9.58425 26.9103 12.2571C26.6934 13.3863 26.6976 15.4308 26.9194 16.6849C27.011 17.2031 27.2297 18.0608 27.4054 18.591C27.8147 19.8272 28.7226 21.5833 29.4521 22.5505C30.4862 23.9212 31.9779 25.1094 33.4613 25.7438C34.4847 26.1816 35.1933 26.3512 36.2401 26.4089C36.9565 26.4484 37.2654 26.4241 37.6501 26.298C38.6674 25.9645 39.4355 25.0888 39.6742 23.9901C39.756 23.614 39.7543 23.3534 39.6672 22.9167C39.4615 21.8849 38.8761 21.1648 37.8757 20.7127C37.4305 20.5116 37.2586 20.4865 36.5348 20.5171C35.8219 20.5471 35.5949 20.6017 34.9289 20.903C34.5023 21.0961 34.006 21.2541 33.8259 21.2541C33.3079 21.2541 32.558 20.8301 32.1821 20.3248C31.647 19.6054 31.1015 18.4478 30.8221 17.4385C30.5945 16.6166 30.5618 16.3283 30.5648 15.1776C30.5676 14.1532 30.6132 13.6863 30.7691 13.0872C31.0466 12.021 31.4679 11.084 32.0744 10.1844C32.6505 9.32979 33.7899 8.20785 34.6541 7.64382C35.3661 7.17918 36.444 6.71463 37.4317 6.44679C38.058 6.27693 38.4468 6.2417 39.7139 6.23953C40.9994 6.23746 41.3744 6.271 42.0813 6.4516C43.0815 6.70709 44.0956 7.10796 44.7561 7.50901C46.7099 8.69548 48.1832 10.5418 49.201 13.0794C49.5476 13.9434 49.8206 14.9277 50.0312 16.0725C50.2508 17.2656 50.2513 19.9726 50.0324 21.3415C49.6188 23.9264 48.7966 26.1224 47.5606 27.9429C46.9383 28.8595 46.7629 29.0703 45.9014 29.9374C45.1706 30.6729 44.7566 30.9315 44.4786 30.8262C44.2386 30.7353 44.376 30.3837 45.022 29.4355C46.3982 27.4158 47.3083 25.0728 47.7259 22.4747C47.9381 21.1551 48.0939 18.7693 48.0242 17.9096C47.9205 16.634 47.6842 15.4094 47.3487 14.4088C46.7394 12.5922 45.9743 11.3567 44.7723 10.2488C43.9481 9.48919 42.8836 8.905 41.7937 8.61408C41.2329 8.46448 40.7457 8.41313 39.8094 8.40512C38.3813 8.39288 37.8597 8.49509 36.7547 9.00364C35.0327 9.79603 33.862 11.0314 33.1805 12.7756C32.8412 13.6439 32.6473 14.907 32.7405 15.6425L32.8085 16.1804L33.1588 15.5071C33.8829 14.1148 34.9178 13.2173 36.3494 12.7401C36.9876 12.5273 38.4006 12.3788 38.6306 12.5002C38.7306 12.5531 38.788 12.6353 38.7581 12.683C38.7282 12.7307 38.3561 12.9482 37.9311 13.1665C37.4237 13.427 36.9403 13.7756 36.5233 14.182C35.5775 15.1034 35.0118 16.1897 34.8026 17.4857C34.6854 18.2117 34.6779 18.6209 34.7789 18.7779C34.836 18.8664 34.9602 18.8588 35.3264 18.7443C35.9922 18.5362 37.3724 18.5379 38.0911 18.7479C38.4061 18.8399 38.8968 19.046 39.1815 19.2058C39.8809 19.5986 40.698 20.4271 41.0719 21.1227C42.0754 22.9901 41.7722 25.3233 40.3334 26.8044C39.8397 27.3125 39.0803 27.8233 38.4656 28.0607C38.0219 28.2321 36.8209 28.414 36.1335 28.414C34.8501 28.414 33.1335 29.071 32.1876 29.9242C31.2151 30.8013 30.6801 31.9055 30.4851 33.4382C30.3933 34.1603 30.4004 34.4482 30.5281 35.1925C30.8387 37.0033 31.8675 38.424 33.4603 39.2418C33.877 39.4558 34.5486 39.7143 34.9527 39.8163C35.8597 40.0453 37.3183 40.062 38.4176 39.8563C40.1528 39.5314 42.3272 38.6102 44.1362 37.4335C45.3981 36.6126 46.1973 35.9846 47.3121 34.9377C49.103 33.2559 50.7136 31.0882 51.8371 28.8477C52.5776 27.3712 53.042 26.125 53.4208 24.5985C53.8357 22.926 53.9975 21.5317 54 19.6054C54.0047 15.9783 53.3473 12.8864 51.9672 10.0431C51.6529 9.39545 51.114 8.4479 50.7697 7.93747C50.0073 6.80724 48.5983 5.33804 47.4987 4.52699C46.5698 3.84171 44.9412 3.01022 43.8245 2.6511C42.9009 2.35415 41.2386 2.06483 40.1435 2.01047C39.6972 1.98833 38.8596 2.00246 38.282 2.04184Z"/>
<path fill-rule="evenodd" clip-rule="evenodd" d="M22.5606 18.2092H7.70597V15.1945H22.5606V18.2092Z"/>
<path fill-rule="evenodd" clip-rule="evenodd" d="M25.2648 28.0003L11.087 35.5301L12.5346 38.1848L26.7124 30.655L25.2648 28.0003Z"/>
<path fill-rule="evenodd" clip-rule="evenodd" d="M24.5892 24.1615L3.79062 29.6615L3 26.7495L23.7986 21.2495L24.5892 24.1615Z"/>
</mask>
<path fill-rule="evenodd" clip-rule="evenodd" d="M38.282 2.04184C37.1024 2.12239 35.6581 2.40926 34.6565 2.76208C33.1474 3.2936 31.559 4.28959 30.4066 5.42688C28.6792 7.1316 27.4238 9.58425 26.9103 12.2571C26.6934 13.3863 26.6976 15.4308 26.9194 16.6849C27.011 17.2031 27.2297 18.0608 27.4054 18.591C27.8147 19.8272 28.7226 21.5833 29.4521 22.5505C30.4862 23.9212 31.9779 25.1094 33.4613 25.7438C34.4847 26.1816 35.1933 26.3512 36.2401 26.4089C36.9565 26.4484 37.2654 26.4241 37.6501 26.298C38.6674 25.9645 39.4355 25.0888 39.6742 23.9901C39.756 23.614 39.7543 23.3534 39.6672 22.9167C39.4615 21.8849 38.8761 21.1648 37.8757 20.7127C37.4305 20.5116 37.2586 20.4865 36.5348 20.5171C35.8219 20.5471 35.5949 20.6017 34.9289 20.903C34.5023 21.0961 34.006 21.2541 33.8259 21.2541C33.3079 21.2541 32.558 20.8301 32.1821 20.3248C31.647 19.6054 31.1015 18.4478 30.8221 17.4385C30.5945 16.6166 30.5618 16.3283 30.5648 15.1776C30.5676 14.1532 30.6132 13.6863 30.7691 13.0872C31.0466 12.021 31.4679 11.084 32.0744 10.1844C32.6505 9.32979 33.7899 8.20785 34.6541 7.64382C35.3661 7.17918 36.444 6.71463 37.4317 6.44679C38.058 6.27693 38.4468 6.2417 39.7139 6.23953C40.9994 6.23746 41.3744 6.271 42.0813 6.4516C43.0815 6.70709 44.0956 7.10796 44.7561 7.50901C46.7099 8.69548 48.1832 10.5418 49.201 13.0794C49.5476 13.9434 49.8206 14.9277 50.0312 16.0725C50.2508 17.2656 50.2513 19.9726 50.0324 21.3415C49.6188 23.9264 48.7966 26.1224 47.5606 27.9429C46.9383 28.8595 46.7629 29.0703 45.9014 29.9374C45.1706 30.6729 44.7566 30.9315 44.4786 30.8262C44.2386 30.7353 44.376 30.3837 45.022 29.4355C46.3982 27.4158 47.3083 25.0728 47.7259 22.4747C47.9381 21.1551 48.0939 18.7693 48.0242 17.9096C47.9205 16.634 47.6842 15.4094 47.3487 14.4088C46.7394 12.5922 45.9743 11.3567 44.7723 10.2488C43.9481 9.48919 42.8836 8.905 41.7937 8.61408C41.2329 8.46448 40.7457 8.41313 39.8094 8.40512C38.3813 8.39288 37.8597 8.49509 36.7547 9.00364C35.0327 9.79603 33.862 11.0314 33.1805 12.7756C32.8412 13.6439 32.6473 14.907 32.7405 15.6425L32.8085 16.1804L33.1588 15.5071C33.8829 14.1148 34.9178 13.2173 36.3494 12.7401C36.9876 12.5273 38.4006 12.3788 38.6306 12.5002C38.7306 12.5531 38.788 12.6353 38.7581 12.683C38.7282 12.7307 38.3561 12.9482 37.9311 13.1665C37.4237 13.427 36.9403 13.7756 36.5233 14.182C35.5775 15.1034 35.0118 16.1897 34.8026 17.4857C34.6854 18.2117 34.6779 18.6209 34.7789 18.7779C34.836 18.8664 34.9602 18.8588 35.3264 18.7443C35.9922 18.5362 37.3724 18.5379 38.0911 18.7479C38.4061 18.8399 38.8968 19.046 39.1815 19.2058C39.8809 19.5986 40.698 20.4271 41.0719 21.1227C42.0754 22.9901 41.7722 25.3233 40.3334 26.8044C39.8397 27.3125 39.0803 27.8233 38.4656 28.0607C38.0219 28.2321 36.8209 28.414 36.1335 28.414C34.8501 28.414 33.1335 29.071 32.1876 29.9242C31.2151 30.8013 30.6801 31.9055 30.4851 33.4382C30.3933 34.1603 30.4004 34.4482 30.5281 35.1925C30.8387 37.0033 31.8675 38.424 33.4603 39.2418C33.877 39.4558 34.5486 39.7143 34.9527 39.8163C35.8597 40.0453 37.3183 40.062 38.4176 39.8563C40.1528 39.5314 42.3272 38.6102 44.1362 37.4335C45.3981 36.6126 46.1973 35.9846 47.3121 34.9377C49.103 33.2559 50.7136 31.0882 51.8371 28.8477C52.5776 27.3712 53.042 26.125 53.4208 24.5985C53.8357 22.926 53.9975 21.5317 54 19.6054C54.0047 15.9783 53.3473 12.8864 51.9672 10.0431C51.6529 9.39545 51.114 8.4479 50.7697 7.93747C50.0073 6.80724 48.5983 5.33804 47.4987 4.52699C46.5698 3.84171 44.9412 3.01022 43.8245 2.6511C42.9009 2.35415 41.2386 2.06483 40.1435 2.01047C39.6972 1.98833 38.8596 2.00246 38.282 2.04184Z" fill="white"/>
<path fill-rule="evenodd" clip-rule="evenodd" d="M22.5606 18.2092H7.70597V15.1945H22.5606V18.2092Z" fill="white"/>
<path fill-rule="evenodd" clip-rule="evenodd" d="M25.2648 28.0003L11.087 35.5301L12.5346 38.1848L26.7124 30.655L25.2648 28.0003Z" fill="white"/>
<path fill-rule="evenodd" clip-rule="evenodd" d="M24.5892 24.1615L3.79062 29.6615L3 26.7495L23.7986 21.2495L24.5892 24.1615Z" fill="white"/>
<path fill-rule="evenodd" clip-rule="evenodd" d="M38.282 2.04184C37.1024 2.12239 35.6581 2.40926 34.6565 2.76208C33.1474 3.2936 31.559 4.28959 30.4066 5.42688C28.6792 7.1316 27.4238 9.58425 26.9103 12.2571C26.6934 13.3863 26.6976 15.4308 26.9194 16.6849C27.011 17.2031 27.2297 18.0608 27.4054 18.591C27.8147 19.8272 28.7226 21.5833 29.4521 22.5505C30.4862 23.9212 31.9779 25.1094 33.4613 25.7438C34.4847 26.1816 35.1933 26.3512 36.2401 26.4089C36.9565 26.4484 37.2654 26.4241 37.6501 26.298C38.6674 25.9645 39.4355 25.0888 39.6742 23.9901C39.756 23.614 39.7543 23.3534 39.6672 22.9167C39.4615 21.8849 38.8761 21.1648 37.8757 20.7127C37.4305 20.5116 37.2586 20.4865 36.5348 20.5171C35.8219 20.5471 35.5949 20.6017 34.9289 20.903C34.5023 21.0961 34.006 21.2541 33.8259 21.2541C33.3079 21.2541 32.558 20.8301 32.1821 20.3248C31.647 19.6054 31.1015 18.4478 30.8221 17.4385C30.5945 16.6166 30.5618 16.3283 30.5648 15.1776C30.5676 14.1532 30.6132 13.6863 30.7691 13.0872C31.0466 12.021 31.4679 11.084 32.0744 10.1844C32.6505 9.32979 33.7899 8.20785 34.6541 7.64382C35.3661 7.17918 36.444 6.71463 37.4317 6.44679C38.058 6.27693 38.4468 6.2417 39.7139 6.23953C40.9994 6.23746 41.3744 6.271 42.0813 6.4516C43.0815 6.70709 44.0956 7.10796 44.7561 7.50901C46.7099 8.69548 48.1832 10.5418 49.201 13.0794C49.5476 13.9434 49.8206 14.9277 50.0312 16.0725C50.2508 17.2656 50.2513 19.9726 50.0324 21.3415C49.6188 23.9264 48.7966 26.1224 47.5606 27.9429C46.9383 28.8595 46.7629 29.0703 45.9014 29.9374C45.1706 30.6729 44.7566 30.9315 44.4786 30.8262C44.2386 30.7353 44.376 30.3837 45.022 29.4355C46.3982 27.4158 47.3083 25.0728 47.7259 22.4747C47.9381 21.1551 48.0939 18.7693 48.0242 17.9096C47.9205 16.634 47.6842 15.4094 47.3487 14.4088C46.7394 12.5922 45.9743 11.3567 44.7723 10.2488C43.9481 9.48919 42.8836 8.905 41.7937 8.61408C41.2329 8.46448 40.7457 8.41313 39.8094 8.40512C38.3813 8.39288 37.8597 8.49509 36.7547 9.00364C35.0327 9.79603 33.862 11.0314 33.1805 12.7756C32.8412 13.6439 32.6473 14.907 32.7405 15.6425L32.8085 16.1804L33.1588 15.5071C33.8829 14.1148 34.9178 13.2173 36.3494 12.7401C36.9876 12.5273 38.4006 12.3788 38.6306 12.5002C38.7306 12.5531 38.788 12.6353 38.7581 12.683C38.7282 12.7307 38.3561 12.9482 37.9311 13.1665C37.4237 13.427 36.9403 13.7756 36.5233 14.182C35.5775 15.1034 35.0118 16.1897 34.8026 17.4857C34.6854 18.2117 34.6779 18.6209 34.7789 18.7779C34.836 18.8664 34.9602 18.8588 35.3264 18.7443C35.9922 18.5362 37.3724 18.5379 38.0911 18.7479C38.4061 18.8399 38.8968 19.046 39.1815 19.2058C39.8809 19.5986 40.698 20.4271 41.0719 21.1227C42.0754 22.9901 41.7722 25.3233 40.3334 26.8044C39.8397 27.3125 39.0803 27.8233 38.4656 28.0607C38.0219 28.2321 36.8209 28.414 36.1335 28.414C34.8501 28.414 33.1335 29.071 32.1876 29.9242C31.2151 30.8013 30.6801 31.9055 30.4851 33.4382C30.3933 34.1603 30.4004 34.4482 30.5281 35.1925C30.8387 37.0033 31.8675 38.424 33.4603 39.2418C33.877 39.4558 34.5486 39.7143 34.9527 39.8163C35.8597 40.0453 37.3183 40.062 38.4176 39.8563C40.1528 39.5314 42.3272 38.6102 44.1362 37.4335C45.3981 36.6126 46.1973 35.9846 47.3121 34.9377C49.103 33.2559 50.7136 31.0882 51.8371 28.8477C52.5776 27.3712 53.042 26.125 53.4208 24.5985C53.8357 22.926 53.9975 21.5317 54 19.6054C54.0047 15.9783 53.3473 12.8864 51.9672 10.0431C51.6529 9.39545 51.114 8.4479 50.7697 7.93747C50.0073 6.80724 48.5983 5.33804 47.4987 4.52699C46.5698 3.84171 44.9412 3.01022 43.8245 2.6511C42.9009 2.35415 41.2386 2.06483 40.1435 2.01047C39.6972 1.98833 38.8596 2.00246 38.282 2.04184Z" stroke="black" stroke-opacity="0.65" stroke-width="4" mask="url(#path-1-outside-1_5902_203)"/>
<path fill-rule="evenodd" clip-rule="evenodd" d="M22.5606 18.2092H7.70597V15.1945H22.5606V18.2092Z" stroke="black" stroke-opacity="0.65" stroke-width="4" mask="url(#path-1-outside-1_5902_203)"/>
<path fill-rule="evenodd" clip-rule="evenodd" d="M25.2648 28.0003L11.087 35.5301L12.5346 38.1848L26.7124 30.655L25.2648 28.0003Z" stroke="black" stroke-opacity="0.65" stroke-width="4" mask="url(#path-1-outside-1_5902_203)"/>
<path fill-rule="evenodd" clip-rule="evenodd" d="M24.5892 24.1615L3.79062 29.6615L3 26.7495L23.7986 21.2495L24.5892 24.1615Z" stroke="black" stroke-opacity="0.65" stroke-width="4" mask="url(#path-1-outside-1_5902_203)"/>
</svg>
