<svg width="25" height="25" viewBox="0 0 25 25" fill="none" xmlns="http://www.w3.org/2000/svg">
<path d="M21.3431 3.65691C16.4673 -1.21889 8.53333 -1.21937 3.65704 3.65691C-1.21925 8.5332 -1.21877 16.4667 3.65704 21.343C8.53284 26.2192 16.4668 26.2192 21.3431 21.343C26.2189 16.4667 26.2189 8.53272 21.3431 3.65691ZM17.4317 17.4315C17.056 17.8072 16.4471 17.8072 16.0714 17.4315L12.5001 13.8602L8.75891 17.6013C8.38326 17.977 7.77432 17.977 7.39867 17.6013C7.02301 17.2257 7.02301 16.6167 7.39867 16.2411L11.1398 12.4999L7.56846 8.92858C7.1928 8.55292 7.1928 7.94351 7.56846 7.56833C7.94411 7.19268 8.55305 7.19268 8.9287 7.56833L12.5001 11.1397L15.9011 7.7386C16.2768 7.36295 16.8857 7.36295 17.2614 7.7386C17.637 8.11426 17.637 8.72319 17.2614 9.09885L13.8603 12.4999L17.4317 16.0713C17.8073 16.4469 17.8073 17.0559 17.4317 17.4315Z" fill="#FF2424"/>
</svg>
