<svg width="50" height="50" viewBox="0 0 50 50" fill="none" xmlns="http://www.w3.org/2000/svg">
<circle cx="25" cy="25" r="24" stroke="white" stroke-width="2"/>
<g clip-path="url(#clip0_3305_1328)">
<path d="M49.5649 33.5516C48.9848 34.132 48.0438 34.132 47.4634 33.5518L46.1763 32.2649C45.7652 31.8537 45.2185 31.6273 44.6372 31.6273C44.0558 31.6273 43.5094 31.8537 43.0982 32.2649L33.088 42.2751C32.0843 43.2787 30.7659 43.7805 29.4474 43.7805C28.129 43.7805 26.8106 43.2789 25.8068 42.2751C23.7995 40.2675 23.7995 37.0012 25.8068 34.9937L42.2643 18.5362C45.7028 15.0977 45.7028 9.50285 42.2643 6.06454L42.0441 5.84441L34.8919 13.5187L36.4404 15.0672C37.0207 15.6477 37.0207 16.5885 36.4404 17.1689C36.1501 17.4589 35.7697 17.604 35.3894 17.604C35.0092 17.604 34.6288 17.4589 34.3385 17.1689L32.864 15.6943L25.7117 23.3688L26.9249 24.582C27.5053 25.1624 27.5053 26.1034 26.9249 26.6835C26.6349 26.9738 26.2544 27.1188 25.8742 27.1188C25.494 27.1188 25.1135 26.9738 24.8235 26.6837L23.6842 25.5444L19.5276 30.0045C19.6185 30.081 19.7095 30.1577 19.7953 30.2415C21.675 32.0735 21.7139 35.0931 19.8821 36.9731C18.9784 37.9004 17.7677 38.411 16.4729 38.411C15.2246 38.411 14.0447 37.9309 13.1507 37.0597C13.116 37.0258 13.0829 36.9907 13.0494 36.956L9.05852 41.2384C8.7837 41.5332 8.40069 41.704 7.99768 41.7112C7.98896 41.7114 7.98024 41.7114 7.97152 41.7114C7.57782 41.7114 7.19957 41.555 6.92079 41.2763L4.43533 38.7908C4.15021 38.5057 3.99329 38.1169 4.00022 37.7137C4.00735 37.3105 4.17795 36.9275 4.47298 36.6529L40.9932 2.61791C41.5787 2.07184 42.4913 2.08809 43.0572 2.65417C43.1109 2.70787 43.1583 2.76572 43.2021 2.82516C43.2613 2.86895 43.319 2.91591 43.3727 2.96961L45.3321 4.96249C45.5262 5.18441 45.654 5.35877 45.8026 5.58168C48.962 10.1726 48.4448 16.5588 44.3659 20.6381L27.9083 37.0955C27.4974 37.5065 27.2709 38.0531 27.2709 38.6347C27.2709 39.216 27.4974 39.7625 27.9083 40.1736C28.7569 41.0222 30.138 41.0224 30.9862 40.1736L40.9964 30.1634C43.0039 28.1563 46.2701 28.1563 48.2776 30.1634L49.5645 31.4503C50.1453 32.0303 50.1453 32.9713 49.5649 33.5516Z" fill="white"/>
</g>
<defs>
<clipPath id="clip0_3305_1328">
<rect width="46" height="46" fill="white" transform="translate(4)"/>
</clipPath>
</defs>
</svg>
