<svg width="38" height="49" viewBox="0 0 38 49" fill="none" xmlns="http://www.w3.org/2000/svg">
<path fill-rule="evenodd" clip-rule="evenodd" d="M7.67358 0.146072C4.77444 0.222069 2.16294 0.293964 1.87024 0.305821C1.46502 0.322282 1.27759 0.353901 1.08463 0.438504C0.767349 0.577591 0.432276 0.894488 0.258074 1.22024C0.131567 1.45684 0.12219 1.52463 0.0848359 2.47102C0.0631431 3.02136 0.0319723 13.4062 0.015652 25.5485C-0.0120723 46.1309 -0.00832165 47.6436 0.0710498 47.8926C0.197355 48.289 0.469377 48.6105 0.856553 48.8209L1.186 49H17.5823H33.9787L34.2321 48.8771C34.5984 48.6994 34.931 48.3503 35.0611 48.007L35.1698 47.7205V28.7694C35.1698 11.8804 35.1613 9.79428 35.0921 9.59686C34.905 9.06273 34.8793 9.04286 31.5478 6.85125C28.3777 4.76585 28.1713 4.64698 27.7226 4.64763C27.6232 4.64778 25.3522 4.97208 22.6761 5.36832C20 5.76452 17.8083 6.08522 17.8057 6.08097C17.8032 6.07672 17.3621 4.92505 16.8256 3.52167C16.289 2.1183 15.7949 0.875826 15.7275 0.760555C15.5708 0.492338 15.2256 0.213514 14.8984 0.0907874C14.6787 0.00843608 14.5187 -0.00457202 13.7931 0.00118157C13.3265 0.00483384 10.5727 0.0700244 7.67358 0.146072ZM30.8109 0.0883359C30.531 0.179192 30.2639 0.347297 30.0724 0.553125C29.7982 0.847909 28.7576 2.52766 28.6522 2.8456C28.5333 3.20463 28.5786 3.61873 28.7815 4.02549C28.8688 4.20045 29.0174 4.40633 29.1118 4.48297C29.3469 4.67389 34.5372 7.8242 34.7896 7.92927C34.9189 7.983 35.1265 8.01312 35.3622 8.01227C35.6735 8.01112 35.7837 7.9858 36.0588 7.85212C36.2398 7.76412 36.4562 7.61017 36.5442 7.50681C36.8397 7.15924 37.8573 5.47824 37.9397 5.20132C38.1025 4.65408 37.9279 4.01968 37.5084 3.63439C37.379 3.51552 36.1201 2.71812 34.7108 1.86244C33.3015 1.00676 32.047 0.25519 31.9232 0.192301C31.7612 0.110099 31.591 0.0736267 31.3178 0.0626198C31.1087 0.0541646 30.8806 0.0657218 30.8109 0.0883359ZM13.2235 3.26231C13.2235 3.27102 13.5081 4.01818 13.856 4.92275C14.2038 5.82726 14.4833 6.57167 14.4769 6.57693C14.4705 6.58218 12.002 6.94971 8.99137 7.39359C5.98072 7.83751 3.46537 8.21235 3.40171 8.22655L3.28595 8.25237L3.31996 5.88705C3.33866 4.58609 3.35756 3.51692 3.36197 3.51112C3.36633 3.50531 4.73739 3.46474 6.40875 3.42101C8.08006 3.37728 10.0975 3.3236 10.892 3.30179C12.7451 3.25091 13.2235 3.2428 13.2235 3.26231ZM5.09117 13.6727C5.31737 13.7749 5.77332 14.1989 7.83582 16.2251L10.3092 18.6549L17.6065 18.6555L24.9039 18.6561L27.4139 16.186C30.226 13.4187 30.0903 13.5247 30.8109 13.5315C31.0951 13.5341 31.2503 13.5632 31.426 13.6469C31.7661 13.8087 32.0345 14.0542 32.2063 14.3605C32.3436 14.6051 32.3568 14.6703 32.3565 15.1039C32.3563 15.5233 32.3404 15.6086 32.2206 15.8293C32.1234 16.0087 31.3668 16.7874 29.5473 18.5809L27.0096 21.0822V27.9606V34.839L29.5884 37.3917C32.0133 39.7921 32.1736 39.9616 32.2747 40.2339C32.5685 41.0258 32.2278 41.8933 31.4806 42.2555C31.2354 42.3744 31.1289 42.3957 30.7856 42.3946C30.476 42.3936 30.3197 42.3667 30.125 42.2805C29.916 42.1882 29.4069 41.7107 27.3122 39.6427L24.7545 37.1176H17.609H10.4635L7.92811 39.614C5.9124 41.5987 5.33567 42.139 5.11403 42.2507C4.8751 42.371 4.77368 42.3914 4.40445 42.3935C4.04667 42.3955 3.9309 42.3751 3.72153 42.2734C3.39999 42.1173 3.09015 41.8114 2.93197 41.494C2.82938 41.2882 2.8081 41.1716 2.80916 40.8199C2.81012 40.477 2.83374 40.3462 2.93111 40.1445C3.02594 39.9481 3.61636 39.3352 5.67951 37.2916L8.30713 34.6889V27.9619V21.2349L5.6789 18.6322C3.65001 16.6229 3.02452 15.9745 2.93587 15.7886C2.77799 15.4575 2.74479 14.9826 2.85604 14.6468C3.02898 14.1248 3.37024 13.7845 3.91281 13.5929C4.25437 13.4723 4.71702 13.5036 5.09117 13.6727ZM11.5509 27.8868V33.9156H17.6584H23.7658V27.8868V21.8581H17.6584H11.5509V27.8868Z" fill="white"/>
</svg>
