<svg width="75" height="75" viewBox="0 0 75 75" fill="none" xmlns="http://www.w3.org/2000/svg">
<path d="M20.0483 65.0787C14.6573 62.5769 10.1863 60.4924 10.1128 60.4463C10.0218 60.3874 10.2331 57.5904 10.7755 51.6671C11.2135 46.8842 11.5744 42.7629 11.5774 42.5085L11.5828 42.0478L10.8508 41.9942C9.56216 41.8978 8.5143 41.1692 7.97046 39.9933C7.7086 39.4276 7.70025 39.2438 7.70025 34.0629C7.70025 28.7535 7.70228 28.7117 7.99285 28.0812C8.34766 27.3113 8.67513 26.9465 9.38691 26.5281L9.92792 26.2121V18.0772V9.94187H8.56784C7.44928 9.94187 7.11036 9.8883 6.65927 9.67402C4.98227 8.86241 4.99625 6.42759 6.68284 5.61116C7.1809 5.37009 7.46742 5.35938 12.2279 5.35938C16.836 5.36205 17.2895 5.35938 17.7569 5.59509C18.6744 6.0183 19.0936 6.68634 19.0936 7.72402C19.0936 8.37973 18.8874 8.83777 18.373 9.32473C17.7845 9.88134 17.4543 9.93705 14.7572 9.93705H12.2195V23.796V37.6549L13.0151 37.8049C19.544 39.0467 25.479 43.934 28.9837 50.9546C31.3239 55.6421 32.6225 61.1594 32.8048 67.1878L32.8789 69.6381H31.3645L29.8502 69.6328L20.0483 65.0787ZM35.2603 53.0926C35.2603 43.9897 35.2432 36.5422 35.2223 36.5422C35.1363 36.5422 15.0604 32.9744 14.7924 32.9117C14.5127 32.8474 14.5025 32.7992 14.5378 31.7331L14.5748 30.6226L39.8114 30.569L65.0481 30.5154V31.6592C65.0481 32.7403 65.0325 32.8067 64.7617 32.871C64.6041 32.9246 60.2649 33.6842 55.1189 34.5944C49.9729 35.5051 45.4621 36.3103 45.0948 36.3837L44.4269 36.5176L44.3948 53.0256L44.3626 69.5331L39.8118 69.5867L35.2609 69.6403L35.2603 53.0926ZM46.7579 67.3801C47.0189 60.0317 48.7574 53.6824 51.8998 48.6022C54.9214 43.7176 59.3228 40.0646 64.124 38.4558C65.3216 38.054 67.1887 37.6222 67.2893 37.7229C67.3448 37.7765 69.6363 60.3906 69.5897 60.4228C69.5768 60.4228 65.0939 62.5088 59.6269 65.039L49.6868 69.6392H48.1823H46.6777L46.7579 67.3801ZM14.7077 25.5628C15.2067 21.7035 15.7633 19.7572 17.1379 17.0658C20.0348 11.3937 25.5363 7.51241 32.7338 6.06277C35.3752 5.53241 36.5593 5.42473 39.843 5.42848C45.4516 5.43384 49.247 6.2358 53.4002 8.28866C55.6149 9.38366 57.2178 10.5194 58.8692 12.1646C62.2985 15.5813 64.1536 19.6506 64.8609 25.3083L64.9445 25.9763H39.7993H14.6542L14.7077 25.5628ZM53.2315 18.6933C54.6659 18.0344 55.6463 16.7599 55.8302 15.3151C55.8768 14.9454 55.885 14.6471 55.8479 14.6471C55.8109 14.6471 55.4926 14.8399 55.1405 15.0756C53.235 16.3581 50.1977 16.5221 48.0843 15.456C47.7173 15.2738 47.2595 15.0113 47.067 14.8731L46.7169 14.6267V15.141C46.7169 16.6849 47.9329 18.2069 49.6866 18.8583C50.6473 19.2172 52.2519 19.1369 53.2314 18.6869L53.2315 18.6933Z" fill="white"/>
</svg>
