<svg width="50" height="53" viewBox="0 0 50 53" fill="none" xmlns="http://www.w3.org/2000/svg">
<mask id="path-1-outside-1_5902_199" maskUnits="userSpaceOnUse" x="-1" y="0" width="52" height="53" fill="black">
<rect fill="white" x="-1" width="52" height="53"/>
<path fill-rule="evenodd" clip-rule="evenodd" d="M9.32996 2.14078C7.81456 2.68808 6.72569 3.84095 6.35276 5.29295C6.2082 5.85565 6.21006 7.04831 6.35641 7.61795C6.7274 9.06217 7.93046 10.308 9.38832 10.7575C10.0104 10.9493 11.1626 10.9526 11.832 10.7644C13.2926 10.3537 14.5232 9.08286 14.9152 7.58051C14.9748 7.35219 15.024 6.83598 15.0244 6.43337C15.026 5.1463 14.5751 4.09162 13.6409 3.19742C13.1197 2.69857 12.7055 2.44202 12.0062 2.18486C11.5578 2.01986 11.3731 1.99578 10.5966 2.00054C9.93901 2.00461 9.60449 2.04167 9.32996 2.14078ZM38.287 2.06447C38.2052 2.10032 37.909 2.22335 37.6289 2.33793C36.4129 2.83534 35.433 3.99259 35.0756 5.35349C34.9427 5.85935 34.9481 7.06831 35.0856 7.60368C35.4724 9.10965 36.6703 10.3359 38.1869 10.7787C38.7859 10.9536 40.0103 10.9429 40.6116 10.7575C42.1127 10.2946 43.3844 8.92971 43.6856 7.45808C43.8221 6.79175 43.745 5.45991 43.5385 4.91578C43.1011 3.76283 42.1658 2.78454 41.0253 2.28683C40.4736 2.04605 40.3973 2.03307 39.4408 2.01661C38.8881 2.00718 38.3689 2.02869 38.287 2.06447ZM23.082 3.88481C22.9892 3.92262 21.9436 4.85827 20.7585 5.96412C19.2012 7.4171 18.5616 8.06275 18.4521 8.29206C18.246 8.7238 18.2524 9.2794 18.4681 9.67718C18.5602 9.84709 19.4939 10.8969 20.5429 12.0101C23.405 15.0469 23.3884 15.0334 23.7751 14.6412C23.947 14.467 23.9578 14.4068 23.9578 13.6223C23.9578 12.9023 23.9772 12.769 24.1001 12.6444C24.2862 12.4557 24.9718 12.3119 25.6699 12.3154C26.9472 12.3218 27.8828 12.9754 28.6934 14.4279C29.1366 15.222 29.5408 15.4394 30.0642 15.1649C30.4421 14.9667 30.538 14.6724 30.5691 13.6141C30.6326 11.4545 29.9966 9.85463 28.4584 8.30542C27.4361 7.2758 26.3491 6.6109 24.8064 6.07152C24.3223 5.90222 23.9003 5.72243 23.8687 5.67201C23.8371 5.62159 23.8107 5.2805 23.8101 4.91405C23.809 4.27904 23.7987 4.23745 23.5914 4.02716C23.3557 3.78819 23.334 3.78216 23.082 3.88481ZM7.06051 12.0766C6.31264 12.2408 5.67545 12.5963 5.1162 13.1612C4.55539 13.7279 4.23858 14.3041 3.82412 15.5116C2.76122 18.608 2.14369 22.684 2.02228 27.406C1.98082 29.0165 1.99079 29.2854 2.10744 29.7081C2.26673 30.2853 2.57081 30.9118 2.88613 31.3125C3.01401 31.4751 3.13289 31.6789 3.15023 31.7654C3.16758 31.8519 3.2345 33.2643 3.29889 34.9041C3.36327 36.5439 3.46533 39.1253 3.52562 40.6405C3.58592 42.1558 3.66899 44.2617 3.71023 45.3203C3.75139 46.3789 3.80402 47.4517 3.82702 47.7045C3.97679 49.3463 5.54958 50.4017 7.01689 49.845C7.8133 49.5428 8.48055 48.7087 8.58335 47.8866C8.60673 47.6998 8.72545 45.8656 8.84723 43.8107C8.96894 41.7557 9.10375 39.548 9.1467 38.9045C9.18972 38.261 9.30726 36.3759 9.40797 34.7154C9.66642 30.4544 9.66553 30.4645 9.82162 29.9351C9.93276 29.558 9.97169 29.112 10.0059 27.8217C10.063 25.6671 10.2333 23.5783 10.3623 23.4474C10.4441 23.3644 10.5925 23.418 11.2358 23.763C12.738 24.5687 13.8497 24.8304 15.7325 24.8214C17.123 24.8148 17.9593 24.7018 19.3055 24.3383C21.6089 23.7164 22.1172 23.4333 22.5987 22.5041C22.7772 22.1595 22.8027 22.0254 22.8027 21.431C22.8027 20.8399 22.7767 20.7016 22.6028 20.3661C22.3388 19.8571 21.7473 19.3254 21.2572 19.1567C20.6753 18.9563 20.1698 18.9929 19.1938 19.3058C17.8316 19.7427 17.0919 19.8877 15.993 19.9334C15.2114 19.9659 14.874 19.9479 14.4747 19.8524C13.4057 19.5969 12.64 18.9821 12.1051 17.9498C11.7899 17.3417 11.7716 17.2372 11.8493 16.4871C12.0667 14.3887 10.7109 12.5009 8.68265 12.078C7.99924 11.9355 7.70432 11.9352 7.06051 12.0766ZM41.2479 12.0724C39.3201 12.4972 37.9594 14.3818 38.1423 16.3739C38.1728 16.706 38.194 17.0722 38.1894 17.1877C38.1758 17.5287 37.6503 18.4499 37.2077 18.9085C36.4142 19.7308 35.5799 19.9983 34.0069 19.9343C32.9194 19.8902 32.0149 19.7101 30.6944 19.275C29.5608 18.9015 28.8286 18.9651 28.1119 19.4996C27.4898 19.9635 27.1586 20.6375 27.1586 21.4397C27.1586 22.2748 27.5268 22.9878 28.1869 23.4312C28.6135 23.7177 30.3129 24.2794 31.5092 24.5292C34.3237 25.117 36.4996 24.9063 38.5806 23.8443C39.3675 23.4428 39.5617 23.3705 39.6402 23.4501C39.767 23.5787 39.9382 25.7022 39.9922 27.8157C40.0252 29.1128 40.0629 29.5439 40.1765 29.9292C40.3347 30.4659 40.3344 30.4617 40.5924 34.7154C40.6931 36.3759 40.8106 38.261 40.8534 38.9045C40.8962 39.548 41.031 41.7557 41.1527 43.8107C41.2744 45.8656 41.3932 47.6998 41.4165 47.8866C41.5604 49.0368 42.66 50 43.8293 50C44.1726 50 44.3652 49.9463 44.7846 49.7335C45.3803 49.4313 45.7087 49.0929 45.9719 48.5099C46.1898 48.0273 46.1484 48.7364 46.5878 37.961C46.6673 36.0099 46.752 33.853 46.7759 33.1681C46.8286 31.6588 46.8248 31.6797 47.1138 31.3125C47.4291 30.9118 47.7332 30.2853 47.8925 29.7081C48.0092 29.285 48.0191 29.0141 47.9779 27.3682C47.8453 22.0737 46.9884 17.137 45.7246 14.3876C44.9029 12.5999 43.0956 11.6653 41.2479 12.0724ZM18.7785 30.7441C18.4567 30.9431 18.3235 31.2881 18.2655 32.0736C18.2005 32.9542 18.3237 33.9278 18.6119 34.8093C19.3425 37.0433 21.5099 39.0131 24.2004 39.8884C24.6598 40.0378 24.954 40.1761 25.0006 40.2645C25.0412 40.3413 25.0744 40.6967 25.0744 41.0542C25.0744 41.6436 25.0914 41.7213 25.2571 41.8893C25.6065 42.2437 25.6942 42.1951 27.1678 40.8292C29.7508 38.4352 30.2762 37.9138 30.4292 37.5934C30.6329 37.1669 30.6276 36.6723 30.4153 36.2752C30.2082 35.8878 25.8833 31.2845 25.586 31.1349C25.3897 31.0361 25.3523 31.0401 25.1666 31.1805C24.9683 31.3302 24.9617 31.3594 24.9255 32.2489C24.8976 32.9354 24.8596 33.1924 24.7731 33.2798C24.5904 33.4646 23.6209 33.6408 23.0274 33.5971C21.7331 33.5019 20.9948 32.9328 20.0595 31.3095C19.6776 30.6466 19.2449 30.4556 18.7785 30.7441Z"/>
</mask>
<path fill-rule="evenodd" clip-rule="evenodd" d="M9.32996 2.14078C7.81456 2.68808 6.72569 3.84095 6.35276 5.29295C6.2082 5.85565 6.21006 7.04831 6.35641 7.61795C6.7274 9.06217 7.93046 10.308 9.38832 10.7575C10.0104 10.9493 11.1626 10.9526 11.832 10.7644C13.2926 10.3537 14.5232 9.08286 14.9152 7.58051C14.9748 7.35219 15.024 6.83598 15.0244 6.43337C15.026 5.1463 14.5751 4.09162 13.6409 3.19742C13.1197 2.69857 12.7055 2.44202 12.0062 2.18486C11.5578 2.01986 11.3731 1.99578 10.5966 2.00054C9.93901 2.00461 9.60449 2.04167 9.32996 2.14078ZM38.287 2.06447C38.2052 2.10032 37.909 2.22335 37.6289 2.33793C36.4129 2.83534 35.433 3.99259 35.0756 5.35349C34.9427 5.85935 34.9481 7.06831 35.0856 7.60368C35.4724 9.10965 36.6703 10.3359 38.1869 10.7787C38.7859 10.9536 40.0103 10.9429 40.6116 10.7575C42.1127 10.2946 43.3844 8.92971 43.6856 7.45808C43.8221 6.79175 43.745 5.45991 43.5385 4.91578C43.1011 3.76283 42.1658 2.78454 41.0253 2.28683C40.4736 2.04605 40.3973 2.03307 39.4408 2.01661C38.8881 2.00718 38.3689 2.02869 38.287 2.06447ZM23.082 3.88481C22.9892 3.92262 21.9436 4.85827 20.7585 5.96412C19.2012 7.4171 18.5616 8.06275 18.4521 8.29206C18.246 8.7238 18.2524 9.2794 18.4681 9.67718C18.5602 9.84709 19.4939 10.8969 20.5429 12.0101C23.405 15.0469 23.3884 15.0334 23.7751 14.6412C23.947 14.467 23.9578 14.4068 23.9578 13.6223C23.9578 12.9023 23.9772 12.769 24.1001 12.6444C24.2862 12.4557 24.9718 12.3119 25.6699 12.3154C26.9472 12.3218 27.8828 12.9754 28.6934 14.4279C29.1366 15.222 29.5408 15.4394 30.0642 15.1649C30.4421 14.9667 30.538 14.6724 30.5691 13.6141C30.6326 11.4545 29.9966 9.85463 28.4584 8.30542C27.4361 7.2758 26.3491 6.6109 24.8064 6.07152C24.3223 5.90222 23.9003 5.72243 23.8687 5.67201C23.8371 5.62159 23.8107 5.2805 23.8101 4.91405C23.809 4.27904 23.7987 4.23745 23.5914 4.02716C23.3557 3.78819 23.334 3.78216 23.082 3.88481ZM7.06051 12.0766C6.31264 12.2408 5.67545 12.5963 5.1162 13.1612C4.55539 13.7279 4.23858 14.3041 3.82412 15.5116C2.76122 18.608 2.14369 22.684 2.02228 27.406C1.98082 29.0165 1.99079 29.2854 2.10744 29.7081C2.26673 30.2853 2.57081 30.9118 2.88613 31.3125C3.01401 31.4751 3.13289 31.6789 3.15023 31.7654C3.16758 31.8519 3.2345 33.2643 3.29889 34.9041C3.36327 36.5439 3.46533 39.1253 3.52562 40.6405C3.58592 42.1558 3.66899 44.2617 3.71023 45.3203C3.75139 46.3789 3.80402 47.4517 3.82702 47.7045C3.97679 49.3463 5.54958 50.4017 7.01689 49.845C7.8133 49.5428 8.48055 48.7087 8.58335 47.8866C8.60673 47.6998 8.72545 45.8656 8.84723 43.8107C8.96894 41.7557 9.10375 39.548 9.1467 38.9045C9.18972 38.261 9.30726 36.3759 9.40797 34.7154C9.66642 30.4544 9.66553 30.4645 9.82162 29.9351C9.93276 29.558 9.97169 29.112 10.0059 27.8217C10.063 25.6671 10.2333 23.5783 10.3623 23.4474C10.4441 23.3644 10.5925 23.418 11.2358 23.763C12.738 24.5687 13.8497 24.8304 15.7325 24.8214C17.123 24.8148 17.9593 24.7018 19.3055 24.3383C21.6089 23.7164 22.1172 23.4333 22.5987 22.5041C22.7772 22.1595 22.8027 22.0254 22.8027 21.431C22.8027 20.8399 22.7767 20.7016 22.6028 20.3661C22.3388 19.8571 21.7473 19.3254 21.2572 19.1567C20.6753 18.9563 20.1698 18.9929 19.1938 19.3058C17.8316 19.7427 17.0919 19.8877 15.993 19.9334C15.2114 19.9659 14.874 19.9479 14.4747 19.8524C13.4057 19.5969 12.64 18.9821 12.1051 17.9498C11.7899 17.3417 11.7716 17.2372 11.8493 16.4871C12.0667 14.3887 10.7109 12.5009 8.68265 12.078C7.99924 11.9355 7.70432 11.9352 7.06051 12.0766ZM41.2479 12.0724C39.3201 12.4972 37.9594 14.3818 38.1423 16.3739C38.1728 16.706 38.194 17.0722 38.1894 17.1877C38.1758 17.5287 37.6503 18.4499 37.2077 18.9085C36.4142 19.7308 35.5799 19.9983 34.0069 19.9343C32.9194 19.8902 32.0149 19.7101 30.6944 19.275C29.5608 18.9015 28.8286 18.9651 28.1119 19.4996C27.4898 19.9635 27.1586 20.6375 27.1586 21.4397C27.1586 22.2748 27.5268 22.9878 28.1869 23.4312C28.6135 23.7177 30.3129 24.2794 31.5092 24.5292C34.3237 25.117 36.4996 24.9063 38.5806 23.8443C39.3675 23.4428 39.5617 23.3705 39.6402 23.4501C39.767 23.5787 39.9382 25.7022 39.9922 27.8157C40.0252 29.1128 40.0629 29.5439 40.1765 29.9292C40.3347 30.4659 40.3344 30.4617 40.5924 34.7154C40.6931 36.3759 40.8106 38.261 40.8534 38.9045C40.8962 39.548 41.031 41.7557 41.1527 43.8107C41.2744 45.8656 41.3932 47.6998 41.4165 47.8866C41.5604 49.0368 42.66 50 43.8293 50C44.1726 50 44.3652 49.9463 44.7846 49.7335C45.3803 49.4313 45.7087 49.0929 45.9719 48.5099C46.1898 48.0273 46.1484 48.7364 46.5878 37.961C46.6673 36.0099 46.752 33.853 46.7759 33.1681C46.8286 31.6588 46.8248 31.6797 47.1138 31.3125C47.4291 30.9118 47.7332 30.2853 47.8925 29.7081C48.0092 29.285 48.0191 29.0141 47.9779 27.3682C47.8453 22.0737 46.9884 17.137 45.7246 14.3876C44.9029 12.5999 43.0956 11.6653 41.2479 12.0724ZM18.7785 30.7441C18.4567 30.9431 18.3235 31.2881 18.2655 32.0736C18.2005 32.9542 18.3237 33.9278 18.6119 34.8093C19.3425 37.0433 21.5099 39.0131 24.2004 39.8884C24.6598 40.0378 24.954 40.1761 25.0006 40.2645C25.0412 40.3413 25.0744 40.6967 25.0744 41.0542C25.0744 41.6436 25.0914 41.7213 25.2571 41.8893C25.6065 42.2437 25.6942 42.1951 27.1678 40.8292C29.7508 38.4352 30.2762 37.9138 30.4292 37.5934C30.6329 37.1669 30.6276 36.6723 30.4153 36.2752C30.2082 35.8878 25.8833 31.2845 25.586 31.1349C25.3897 31.0361 25.3523 31.0401 25.1666 31.1805C24.9683 31.3302 24.9617 31.3594 24.9255 32.2489C24.8976 32.9354 24.8596 33.1924 24.7731 33.2798C24.5904 33.4646 23.6209 33.6408 23.0274 33.5971C21.7331 33.5019 20.9948 32.9328 20.0595 31.3095C19.6776 30.6466 19.2449 30.4556 18.7785 30.7441Z" fill="white"/>
<path fill-rule="evenodd" clip-rule="evenodd" d="M9.32996 2.14078C7.81456 2.68808 6.72569 3.84095 6.35276 5.29295C6.2082 5.85565 6.21006 7.04831 6.35641 7.61795C6.7274 9.06217 7.93046 10.308 9.38832 10.7575C10.0104 10.9493 11.1626 10.9526 11.832 10.7644C13.2926 10.3537 14.5232 9.08286 14.9152 7.58051C14.9748 7.35219 15.024 6.83598 15.0244 6.43337C15.026 5.1463 14.5751 4.09162 13.6409 3.19742C13.1197 2.69857 12.7055 2.44202 12.0062 2.18486C11.5578 2.01986 11.3731 1.99578 10.5966 2.00054C9.93901 2.00461 9.60449 2.04167 9.32996 2.14078ZM38.287 2.06447C38.2052 2.10032 37.909 2.22335 37.6289 2.33793C36.4129 2.83534 35.433 3.99259 35.0756 5.35349C34.9427 5.85935 34.9481 7.06831 35.0856 7.60368C35.4724 9.10965 36.6703 10.3359 38.1869 10.7787C38.7859 10.9536 40.0103 10.9429 40.6116 10.7575C42.1127 10.2946 43.3844 8.92971 43.6856 7.45808C43.8221 6.79175 43.745 5.45991 43.5385 4.91578C43.1011 3.76283 42.1658 2.78454 41.0253 2.28683C40.4736 2.04605 40.3973 2.03307 39.4408 2.01661C38.8881 2.00718 38.3689 2.02869 38.287 2.06447ZM23.082 3.88481C22.9892 3.92262 21.9436 4.85827 20.7585 5.96412C19.2012 7.4171 18.5616 8.06275 18.4521 8.29206C18.246 8.7238 18.2524 9.2794 18.4681 9.67718C18.5602 9.84709 19.4939 10.8969 20.5429 12.0101C23.405 15.0469 23.3884 15.0334 23.7751 14.6412C23.947 14.467 23.9578 14.4068 23.9578 13.6223C23.9578 12.9023 23.9772 12.769 24.1001 12.6444C24.2862 12.4557 24.9718 12.3119 25.6699 12.3154C26.9472 12.3218 27.8828 12.9754 28.6934 14.4279C29.1366 15.222 29.5408 15.4394 30.0642 15.1649C30.4421 14.9667 30.538 14.6724 30.5691 13.6141C30.6326 11.4545 29.9966 9.85463 28.4584 8.30542C27.4361 7.2758 26.3491 6.6109 24.8064 6.07152C24.3223 5.90222 23.9003 5.72243 23.8687 5.67201C23.8371 5.62159 23.8107 5.2805 23.8101 4.91405C23.809 4.27904 23.7987 4.23745 23.5914 4.02716C23.3557 3.78819 23.334 3.78216 23.082 3.88481ZM7.06051 12.0766C6.31264 12.2408 5.67545 12.5963 5.1162 13.1612C4.55539 13.7279 4.23858 14.3041 3.82412 15.5116C2.76122 18.608 2.14369 22.684 2.02228 27.406C1.98082 29.0165 1.99079 29.2854 2.10744 29.7081C2.26673 30.2853 2.57081 30.9118 2.88613 31.3125C3.01401 31.4751 3.13289 31.6789 3.15023 31.7654C3.16758 31.8519 3.2345 33.2643 3.29889 34.9041C3.36327 36.5439 3.46533 39.1253 3.52562 40.6405C3.58592 42.1558 3.66899 44.2617 3.71023 45.3203C3.75139 46.3789 3.80402 47.4517 3.82702 47.7045C3.97679 49.3463 5.54958 50.4017 7.01689 49.845C7.8133 49.5428 8.48055 48.7087 8.58335 47.8866C8.60673 47.6998 8.72545 45.8656 8.84723 43.8107C8.96894 41.7557 9.10375 39.548 9.1467 38.9045C9.18972 38.261 9.30726 36.3759 9.40797 34.7154C9.66642 30.4544 9.66553 30.4645 9.82162 29.9351C9.93276 29.558 9.97169 29.112 10.0059 27.8217C10.063 25.6671 10.2333 23.5783 10.3623 23.4474C10.4441 23.3644 10.5925 23.418 11.2358 23.763C12.738 24.5687 13.8497 24.8304 15.7325 24.8214C17.123 24.8148 17.9593 24.7018 19.3055 24.3383C21.6089 23.7164 22.1172 23.4333 22.5987 22.5041C22.7772 22.1595 22.8027 22.0254 22.8027 21.431C22.8027 20.8399 22.7767 20.7016 22.6028 20.3661C22.3388 19.8571 21.7473 19.3254 21.2572 19.1567C20.6753 18.9563 20.1698 18.9929 19.1938 19.3058C17.8316 19.7427 17.0919 19.8877 15.993 19.9334C15.2114 19.9659 14.874 19.9479 14.4747 19.8524C13.4057 19.5969 12.64 18.9821 12.1051 17.9498C11.7899 17.3417 11.7716 17.2372 11.8493 16.4871C12.0667 14.3887 10.7109 12.5009 8.68265 12.078C7.99924 11.9355 7.70432 11.9352 7.06051 12.0766ZM41.2479 12.0724C39.3201 12.4972 37.9594 14.3818 38.1423 16.3739C38.1728 16.706 38.194 17.0722 38.1894 17.1877C38.1758 17.5287 37.6503 18.4499 37.2077 18.9085C36.4142 19.7308 35.5799 19.9983 34.0069 19.9343C32.9194 19.8902 32.0149 19.7101 30.6944 19.275C29.5608 18.9015 28.8286 18.9651 28.1119 19.4996C27.4898 19.9635 27.1586 20.6375 27.1586 21.4397C27.1586 22.2748 27.5268 22.9878 28.1869 23.4312C28.6135 23.7177 30.3129 24.2794 31.5092 24.5292C34.3237 25.117 36.4996 24.9063 38.5806 23.8443C39.3675 23.4428 39.5617 23.3705 39.6402 23.4501C39.767 23.5787 39.9382 25.7022 39.9922 27.8157C40.0252 29.1128 40.0629 29.5439 40.1765 29.9292C40.3347 30.4659 40.3344 30.4617 40.5924 34.7154C40.6931 36.3759 40.8106 38.261 40.8534 38.9045C40.8962 39.548 41.031 41.7557 41.1527 43.8107C41.2744 45.8656 41.3932 47.6998 41.4165 47.8866C41.5604 49.0368 42.66 50 43.8293 50C44.1726 50 44.3652 49.9463 44.7846 49.7335C45.3803 49.4313 45.7087 49.0929 45.9719 48.5099C46.1898 48.0273 46.1484 48.7364 46.5878 37.961C46.6673 36.0099 46.752 33.853 46.7759 33.1681C46.8286 31.6588 46.8248 31.6797 47.1138 31.3125C47.4291 30.9118 47.7332 30.2853 47.8925 29.7081C48.0092 29.285 48.0191 29.0141 47.9779 27.3682C47.8453 22.0737 46.9884 17.137 45.7246 14.3876C44.9029 12.5999 43.0956 11.6653 41.2479 12.0724ZM18.7785 30.7441C18.4567 30.9431 18.3235 31.2881 18.2655 32.0736C18.2005 32.9542 18.3237 33.9278 18.6119 34.8093C19.3425 37.0433 21.5099 39.0131 24.2004 39.8884C24.6598 40.0378 24.954 40.1761 25.0006 40.2645C25.0412 40.3413 25.0744 40.6967 25.0744 41.0542C25.0744 41.6436 25.0914 41.7213 25.2571 41.8893C25.6065 42.2437 25.6942 42.1951 27.1678 40.8292C29.7508 38.4352 30.2762 37.9138 30.4292 37.5934C30.6329 37.1669 30.6276 36.6723 30.4153 36.2752C30.2082 35.8878 25.8833 31.2845 25.586 31.1349C25.3897 31.0361 25.3523 31.0401 25.1666 31.1805C24.9683 31.3302 24.9617 31.3594 24.9255 32.2489C24.8976 32.9354 24.8596 33.1924 24.7731 33.2798C24.5904 33.4646 23.6209 33.6408 23.0274 33.5971C21.7331 33.5019 20.9948 32.9328 20.0595 31.3095C19.6776 30.6466 19.2449 30.4556 18.7785 30.7441Z" stroke="black" stroke-opacity="0.65" stroke-width="4" mask="url(#path-1-outside-1_5902_199)"/>
</svg>
