<svg width="50" height="37" viewBox="0 0 50 37" fill="none" xmlns="http://www.w3.org/2000/svg">
<mask id="path-1-outside-1_5902_201" maskUnits="userSpaceOnUse" x="0" y="0" width="50" height="37" fill="black">
<rect fill="white" width="50" height="37"/>
<path fill-rule="evenodd" clip-rule="evenodd" d="M5.10051 2.12151C3.51687 2.51766 2.27996 3.93402 2.07332 5.5878C1.97556 6.36987 1.97556 30.6201 2.07332 31.4022C2.28457 33.0926 3.59692 34.5475 5.22573 34.8968C5.86753 35.0344 44.1325 35.0344 44.7743 34.8968C46.4085 34.5463 47.7148 33.0982 47.9267 31.4022C48.0251 30.6143 48.0241 6.36705 47.9256 5.57819C47.7707 4.33785 46.8994 3.04254 45.8574 2.50363C44.8093 1.96137 46.2228 1.99525 24.9607 2.00346C9.71743 2.00937 5.44733 2.03469 5.10051 2.12151ZM16.7523 9.3607C16.9844 9.43216 17.3617 9.65106 17.5909 9.84702C17.8202 10.0431 18.1089 10.2264 18.2324 10.2545C19.0564 10.4414 19.5121 10.8309 19.7582 11.5582C19.9633 12.1645 19.9646 13.6915 19.7608 14.6671C19.6254 15.3153 19.6233 15.4188 19.7397 15.7591C19.8882 16.1931 19.9065 16.7916 19.7817 17.1301C19.7342 17.2593 19.566 17.5298 19.408 17.7314C19.25 17.933 19.0726 18.2568 19.0138 18.4509C18.873 18.915 18.6329 19.3161 18.1834 19.8384L17.8156 20.2655V21.1492C17.8156 22.1093 17.8886 22.3495 18.2998 22.7403C18.6554 23.0785 19.1897 23.3722 20.2959 23.8374C22.6287 24.8184 23.4152 25.4826 23.8156 26.8098C24.007 27.4443 24.0071 27.4473 23.8393 27.6205C23.719 27.7445 22.8922 27.7591 16.0195 27.7591C8.98436 27.7591 8.3222 27.7468 8.19271 27.6132C8.00737 27.422 8.07622 27.0082 8.41329 26.2882C8.88079 25.2894 9.7891 24.6301 11.9003 23.757C13.0286 23.2905 13.6279 22.9178 13.9502 22.4822C14.1617 22.1966 14.183 22.0928 14.2094 21.2246L14.238 20.2781L13.791 19.7688C13.5227 19.4632 13.2155 18.9729 13.0228 18.5429C12.8463 18.1487 12.634 17.7682 12.5511 17.6974C12.3279 17.5068 12.0892 16.909 12.0871 16.5351C12.0861 16.355 12.1606 16.0103 12.2527 15.7692C12.4123 15.3513 12.414 15.297 12.2869 14.6022C12.0978 13.5678 12.1597 12.0095 12.417 11.3305C12.6536 10.706 13.214 10.0512 13.7875 9.72923C14.6006 9.27273 15.9301 9.10748 16.7523 9.3607ZM41.3758 12.4442C41.8736 12.6588 42.0706 13.2915 41.8049 13.8217C41.5285 14.3731 41.7923 14.3539 34.8813 14.3278L28.5955 14.3041L28.3178 14.0176C28.0981 13.791 28.0401 13.6582 28.0401 13.3817C28.0401 12.9946 28.2689 12.6062 28.6004 12.4305C28.9247 12.2585 40.9751 12.2716 41.3758 12.4442ZM41.1808 17.5275C41.8558 17.7209 42.156 18.5339 41.7492 19.0672C41.3704 19.5641 41.5119 19.5539 34.9882 19.5518C29.323 19.5499 28.957 19.5405 28.6285 19.3865C28.3016 19.2334 27.9935 18.8009 27.9935 18.495C27.9935 18.1891 28.3016 17.7566 28.6285 17.6034C28.9569 17.4495 29.3206 17.44 34.9213 17.4387C38.7179 17.4377 40.9795 17.4698 41.1808 17.5275ZM41.4243 22.7756C42.1087 23.1407 42.0785 24.2428 41.3758 24.5457C40.9726 24.7194 28.9263 24.7313 28.5948 24.5582C28.2468 24.3766 27.972 23.8816 28.0259 23.5335C28.0753 23.2148 28.3532 22.8462 28.635 22.726C28.729 22.6858 31.5887 22.6504 34.9897 22.6473C40.357 22.6425 41.2065 22.6594 41.4243 22.7756Z"/>
</mask>
<path fill-rule="evenodd" clip-rule="evenodd" d="M5.10051 2.12151C3.51687 2.51766 2.27996 3.93402 2.07332 5.5878C1.97556 6.36987 1.97556 30.6201 2.07332 31.4022C2.28457 33.0926 3.59692 34.5475 5.22573 34.8968C5.86753 35.0344 44.1325 35.0344 44.7743 34.8968C46.4085 34.5463 47.7148 33.0982 47.9267 31.4022C48.0251 30.6143 48.0241 6.36705 47.9256 5.57819C47.7707 4.33785 46.8994 3.04254 45.8574 2.50363C44.8093 1.96137 46.2228 1.99525 24.9607 2.00346C9.71743 2.00937 5.44733 2.03469 5.10051 2.12151ZM16.7523 9.3607C16.9844 9.43216 17.3617 9.65106 17.5909 9.84702C17.8202 10.0431 18.1089 10.2264 18.2324 10.2545C19.0564 10.4414 19.5121 10.8309 19.7582 11.5582C19.9633 12.1645 19.9646 13.6915 19.7608 14.6671C19.6254 15.3153 19.6233 15.4188 19.7397 15.7591C19.8882 16.1931 19.9065 16.7916 19.7817 17.1301C19.7342 17.2593 19.566 17.5298 19.408 17.7314C19.25 17.933 19.0726 18.2568 19.0138 18.4509C18.873 18.915 18.6329 19.3161 18.1834 19.8384L17.8156 20.2655V21.1492C17.8156 22.1093 17.8886 22.3495 18.2998 22.7403C18.6554 23.0785 19.1897 23.3722 20.2959 23.8374C22.6287 24.8184 23.4152 25.4826 23.8156 26.8098C24.007 27.4443 24.0071 27.4473 23.8393 27.6205C23.719 27.7445 22.8922 27.7591 16.0195 27.7591C8.98436 27.7591 8.3222 27.7468 8.19271 27.6132C8.00737 27.422 8.07622 27.0082 8.41329 26.2882C8.88079 25.2894 9.7891 24.6301 11.9003 23.757C13.0286 23.2905 13.6279 22.9178 13.9502 22.4822C14.1617 22.1966 14.183 22.0928 14.2094 21.2246L14.238 20.2781L13.791 19.7688C13.5227 19.4632 13.2155 18.9729 13.0228 18.5429C12.8463 18.1487 12.634 17.7682 12.5511 17.6974C12.3279 17.5068 12.0892 16.909 12.0871 16.5351C12.0861 16.355 12.1606 16.0103 12.2527 15.7692C12.4123 15.3513 12.414 15.297 12.2869 14.6022C12.0978 13.5678 12.1597 12.0095 12.417 11.3305C12.6536 10.706 13.214 10.0512 13.7875 9.72923C14.6006 9.27273 15.9301 9.10748 16.7523 9.3607ZM41.3758 12.4442C41.8736 12.6588 42.0706 13.2915 41.8049 13.8217C41.5285 14.3731 41.7923 14.3539 34.8813 14.3278L28.5955 14.3041L28.3178 14.0176C28.0981 13.791 28.0401 13.6582 28.0401 13.3817C28.0401 12.9946 28.2689 12.6062 28.6004 12.4305C28.9247 12.2585 40.9751 12.2716 41.3758 12.4442ZM41.1808 17.5275C41.8558 17.7209 42.156 18.5339 41.7492 19.0672C41.3704 19.5641 41.5119 19.5539 34.9882 19.5518C29.323 19.5499 28.957 19.5405 28.6285 19.3865C28.3016 19.2334 27.9935 18.8009 27.9935 18.495C27.9935 18.1891 28.3016 17.7566 28.6285 17.6034C28.9569 17.4495 29.3206 17.44 34.9213 17.4387C38.7179 17.4377 40.9795 17.4698 41.1808 17.5275ZM41.4243 22.7756C42.1087 23.1407 42.0785 24.2428 41.3758 24.5457C40.9726 24.7194 28.9263 24.7313 28.5948 24.5582C28.2468 24.3766 27.972 23.8816 28.0259 23.5335C28.0753 23.2148 28.3532 22.8462 28.635 22.726C28.729 22.6858 31.5887 22.6504 34.9897 22.6473C40.357 22.6425 41.2065 22.6594 41.4243 22.7756Z" fill="white"/>
<path fill-rule="evenodd" clip-rule="evenodd" d="M5.10051 2.12151C3.51687 2.51766 2.27996 3.93402 2.07332 5.5878C1.97556 6.36987 1.97556 30.6201 2.07332 31.4022C2.28457 33.0926 3.59692 34.5475 5.22573 34.8968C5.86753 35.0344 44.1325 35.0344 44.7743 34.8968C46.4085 34.5463 47.7148 33.0982 47.9267 31.4022C48.0251 30.6143 48.0241 6.36705 47.9256 5.57819C47.7707 4.33785 46.8994 3.04254 45.8574 2.50363C44.8093 1.96137 46.2228 1.99525 24.9607 2.00346C9.71743 2.00937 5.44733 2.03469 5.10051 2.12151ZM16.7523 9.3607C16.9844 9.43216 17.3617 9.65106 17.5909 9.84702C17.8202 10.0431 18.1089 10.2264 18.2324 10.2545C19.0564 10.4414 19.5121 10.8309 19.7582 11.5582C19.9633 12.1645 19.9646 13.6915 19.7608 14.6671C19.6254 15.3153 19.6233 15.4188 19.7397 15.7591C19.8882 16.1931 19.9065 16.7916 19.7817 17.1301C19.7342 17.2593 19.566 17.5298 19.408 17.7314C19.25 17.933 19.0726 18.2568 19.0138 18.4509C18.873 18.915 18.6329 19.3161 18.1834 19.8384L17.8156 20.2655V21.1492C17.8156 22.1093 17.8886 22.3495 18.2998 22.7403C18.6554 23.0785 19.1897 23.3722 20.2959 23.8374C22.6287 24.8184 23.4152 25.4826 23.8156 26.8098C24.007 27.4443 24.0071 27.4473 23.8393 27.6205C23.719 27.7445 22.8922 27.7591 16.0195 27.7591C8.98436 27.7591 8.3222 27.7468 8.19271 27.6132C8.00737 27.422 8.07622 27.0082 8.41329 26.2882C8.88079 25.2894 9.7891 24.6301 11.9003 23.757C13.0286 23.2905 13.6279 22.9178 13.9502 22.4822C14.1617 22.1966 14.183 22.0928 14.2094 21.2246L14.238 20.2781L13.791 19.7688C13.5227 19.4632 13.2155 18.9729 13.0228 18.5429C12.8463 18.1487 12.634 17.7682 12.5511 17.6974C12.3279 17.5068 12.0892 16.909 12.0871 16.5351C12.0861 16.355 12.1606 16.0103 12.2527 15.7692C12.4123 15.3513 12.414 15.297 12.2869 14.6022C12.0978 13.5678 12.1597 12.0095 12.417 11.3305C12.6536 10.706 13.214 10.0512 13.7875 9.72923C14.6006 9.27273 15.9301 9.10748 16.7523 9.3607ZM41.3758 12.4442C41.8736 12.6588 42.0706 13.2915 41.8049 13.8217C41.5285 14.3731 41.7923 14.3539 34.8813 14.3278L28.5955 14.3041L28.3178 14.0176C28.0981 13.791 28.0401 13.6582 28.0401 13.3817C28.0401 12.9946 28.2689 12.6062 28.6004 12.4305C28.9247 12.2585 40.9751 12.2716 41.3758 12.4442ZM41.1808 17.5275C41.8558 17.7209 42.156 18.5339 41.7492 19.0672C41.3704 19.5641 41.5119 19.5539 34.9882 19.5518C29.323 19.5499 28.957 19.5405 28.6285 19.3865C28.3016 19.2334 27.9935 18.8009 27.9935 18.495C27.9935 18.1891 28.3016 17.7566 28.6285 17.6034C28.9569 17.4495 29.3206 17.44 34.9213 17.4387C38.7179 17.4377 40.9795 17.4698 41.1808 17.5275ZM41.4243 22.7756C42.1087 23.1407 42.0785 24.2428 41.3758 24.5457C40.9726 24.7194 28.9263 24.7313 28.5948 24.5582C28.2468 24.3766 27.972 23.8816 28.0259 23.5335C28.0753 23.2148 28.3532 22.8462 28.635 22.726C28.729 22.6858 31.5887 22.6504 34.9897 22.6473C40.357 22.6425 41.2065 22.6594 41.4243 22.7756Z" stroke="black" stroke-opacity="0.65" stroke-width="4" mask="url(#path-1-outside-1_5902_201)"/>
</svg>
