<svg width="20" height="20" viewBox="0 0 20 20" fill="none" xmlns="http://www.w3.org/2000/svg">
<path d="M9.99431 2.7262C5.63491 -1.29337 0.0920186 2.23834 0.00112711 7.02614C-0.0220352 8.24632 0.31208 9.43488 0.977146 10.5306H5.28791L6.05465 9.18342C6.27729 8.79228 6.81607 8.77968 7.05133 9.16962L8.66906 11.8495L11.0272 6.60153C11.2328 6.1436 11.8457 6.12907 12.0725 6.57312L14.094 10.5306H19.0115C22.6542 4.52874 15.4549 -2.30866 9.99431 2.7262Z" fill="#FF3737"/>
<path d="M13.2285 11.4392L11.5905 8.23236L9.27421 13.3873C9.07715 13.8258 8.49755 13.8639 8.25042 13.4545L6.57203 10.6741L6.12234 11.4642C6.01645 11.6502 5.82576 11.764 5.61995 11.764H1.9043C2.02077 11.8925 1.4 11.2394 9.58137 19.8196C9.80987 20.0593 10.1793 20.0593 10.4078 19.8196C18.4633 11.3715 17.9686 11.8923 18.0849 11.764H13.7443C13.5288 11.7641 13.3307 11.6393 13.2285 11.4392Z" fill="#FF3737"/>
</svg>
