<svg width="38" height="54" viewBox="0 0 38 54" fill="none" xmlns="http://www.w3.org/2000/svg">
<path fill-rule="evenodd" clip-rule="evenodd" d="M21.6703 0.880157C21.6703 1.65508 21.6258 1.8681 21.2984 2.66067C20.5818 4.39558 20.1299 5.56317 20.1622 5.59655C20.1801 5.61504 20.3534 5.58156 20.5473 5.52214C21.0596 5.36513 22.4577 5.39001 23.0809 5.56721C23.8513 5.78629 24.8763 6.41112 25.4653 7.02085C25.7448 7.30998 26.1351 7.84594 26.3328 8.21172C26.9869 9.42236 27.0108 9.64538 27.0108 14.5322V18.9213H24.3405H21.6703V20.1271V21.3329L22.7506 22.4391L23.831 23.5453L23.2456 24.1831C22.9237 24.5339 22.263 25.2514 21.7773 25.7776C19.7348 27.9905 18.1784 29.7394 18.1784 29.8214C18.1784 29.8698 18.2666 30.1037 18.3744 30.3414C18.4823 30.5791 18.8106 31.3237 19.1041 31.9961C19.3977 32.6684 19.9855 33.994 20.4105 34.9418L21.1831 36.6651L20.8381 37.2273C20.6482 37.5364 20.1803 38.2889 19.7981 38.8993L19.1034 40.0093L19.4369 40.1563C19.6202 40.2371 20.4866 40.6059 21.3622 40.9756C22.2377 41.3454 23.578 41.9192 24.3405 42.2507C25.1031 42.5823 25.8098 42.8801 25.911 42.9128C26.0121 42.9453 26.0815 43.0082 26.065 43.0526C26.0354 43.1324 24.8494 44.1337 23.3973 45.3048C20.9826 47.2524 21.156 47.0775 21.1645 47.5574C21.1687 47.7975 21.2734 48.9986 21.3973 50.2264L21.6225 52.4587L29.8112 52.4859L38 52.5131V35.7172V18.9213H35.2343H32.4686L32.4296 14.0049C32.393 9.41078 32.3764 9.03639 32.1755 8.29134C31.6971 6.51752 31.0453 5.16572 30.0483 3.87992C29.1354 2.70234 27.8632 1.64976 26.5187 0.959244C26.1741 0.782362 25.4785 0.494185 24.9729 0.318791C24.1619 0.0376299 23.913 0 22.8618 0H21.6703V0.880157ZM14.2928 1.65348C13.8786 1.73183 13.3009 1.87618 13.009 1.9744C12.2112 2.2427 10.7419 3.01879 10.0295 3.54805C8.65445 4.5697 7.42325 6.06798 6.60378 7.7169C6.26363 8.40125 5.7798 10.0713 5.65748 10.983C5.59206 11.4712 5.54595 13.6266 5.54595 16.2018V20.5891L3.15811 20.5694C1.84485 20.5586 0.597011 20.5722 0.385135 20.5995L0 20.6493V37.3246V54H8.12532H16.2506L16.1853 53.4419C16.0431 52.2282 15.717 48.8592 15.7402 48.8436C15.8535 48.7677 17.6027 47.3676 18.3838 46.7274C18.9204 46.2877 19.6934 45.6753 20.1016 45.3665C20.5097 45.0577 20.8448 44.7757 20.8462 44.7397C20.8475 44.7037 19.9821 44.3118 18.923 43.8687C15.3689 42.3819 13.9167 41.7565 13.8362 41.6777C13.7923 41.6346 13.8408 41.4836 13.9443 41.342C14.0477 41.2005 14.5118 40.4753 14.9757 39.7307L15.8192 38.3768L15.0344 36.5949C14.6029 35.6148 13.932 34.1076 13.5438 33.2454C13.1555 32.3832 12.8391 31.6178 12.8405 31.5446C12.8419 31.4714 13.195 31.0287 13.6251 30.561C14.4231 29.6932 16.7189 27.1819 17.8522 25.937L18.4814 25.2461L17.4055 24.1282L16.3297 23.0103V21.7896V20.5689L13.6595 20.588L10.9892 20.6073V16.1694C10.9892 11.2588 10.999 11.1671 11.6611 9.93005C11.8515 9.57426 12.1967 9.08125 12.4281 8.83442C12.9058 8.32493 13.9233 7.61389 14.4152 7.44594C14.6953 7.35027 14.7872 7.22441 15.021 6.61638C15.1726 6.22212 15.5275 5.32559 15.8097 4.62402C16.2904 3.42932 16.3231 3.28943 16.3263 2.41831L16.3297 1.48819L15.6878 1.49967C15.3348 1.50605 14.707 1.57525 14.2928 1.65348Z" fill="white"/>
</svg>
