<svg width="25" height="25" viewBox="0 0 25 25" fill="none" xmlns="http://www.w3.org/2000/svg">
<path d="M12.5 0C5.59647 0 0 5.59647 0 12.5C0 19.4035 5.59647 25 12.5 25C19.4035 25 25 19.4036 25 12.5C25 5.59641 19.4035 0 12.5 0ZM14.5833 20.5087C14.5833 20.9802 14.201 21.3625 13.7295 21.3625H11.3871C10.9155 21.3625 10.5333 20.9802 10.5333 20.5087V11.0042C10.5333 10.5327 10.9155 10.1504 11.3871 10.1504H13.7295C14.201 10.1504 14.5833 10.5326 14.5833 11.0042V20.5087ZM12.5 8.53261C11.3294 8.53261 10.3804 7.58364 10.3804 6.41304C10.3804 5.24245 11.3294 4.29348 12.5 4.29348C13.6706 4.29348 14.6196 5.24245 14.6196 6.41304C14.6196 7.58364 13.6706 8.53261 12.5 8.53261Z" fill="white"/>
</svg>
