<svg width="76" height="75" viewBox="0 0 76 75" fill="none" xmlns="http://www.w3.org/2000/svg">
<path d="M39.2426 20.2501L29.0129 24.7854L31.2806 29.9002L41.5102 25.3649L39.2426 20.2501Z" fill="white"/>
<path d="M57.9967 11.9354L56.2917 12.6913L55.5359 10.9864C55.3091 10.4749 54.817 10.2851 54.3055 10.5119L49.1907 12.7796C48.6792 13.0063 48.4894 13.4984 48.7162 14.0099L49.4721 15.7149L40.9474 19.4943L43.593 25.4616C43.8198 25.973 43.63 26.4652 43.1185 26.6919L31.1838 31.9832C30.6724 32.21 30.1802 32.0202 29.9535 31.5087L27.3078 25.5413L19.6356 28.9428L18.8798 27.238C18.653 26.7265 18.1609 26.5367 17.6494 26.7635L12.5346 29.0311C12.0231 29.2579 11.8711 29.8353 12.0601 30.2615L12.816 31.9665L8.55359 33.8562C8.04211 34.083 7.89015 34.6604 8.07909 35.0866L9.21292 37.644C9.28852 37.8145 9.4493 37.9471 9.61021 38.0798L11.1149 38.9428C12.2126 39.5782 12.8173 40.9421 12.5511 42.1822L12.1802 43.8767C12.1706 44.085 12.1609 44.2932 12.2365 44.4637L13.3703 47.0212C13.5971 47.5326 14.0892 47.7224 14.6007 47.4957L17.8401 46.0595C18.6925 45.6815 19.6487 45.7676 20.3773 46.2606C21.1059 46.7535 21.6069 47.6535 21.483 48.5245L20.8737 62.565C20.8334 65.235 22.3935 67.6034 24.7972 68.8837C26.6806 69.6807 28.8488 69.7396 30.8947 68.8325L40.5276 64.5617C42.0621 63.8814 43.0481 62.4243 43.0875 60.6727C43.127 58.9211 42.1532 57.4148 40.6389 56.7602L39.0016 56.058C38.7177 55.8779 38.6421 55.7073 38.5287 55.4516L37.6461 47.4787L42.1642 45.4756C46.0003 43.7748 47.7086 39.3454 46.0078 35.5093L45.2898 33.8896L50.4046 31.6219C50.9161 31.3952 51.1058 30.9031 50.8791 30.3916L61.1087 25.8562C61.6202 25.6295 61.81 25.1374 61.5832 24.6259L60.4494 22.0685L62.1544 21.3126C62.6658 21.0858 62.8556 20.5937 62.6289 20.0822L59.2274 12.41C59.0381 11.9837 58.5082 11.7086 57.9967 11.9354ZM14.1429 30.3581L17.5527 28.8463L17.9306 29.6987L14.5208 31.2105L14.1429 30.3581ZM15.936 36.7032L26.1657 32.1679C26.6771 31.9411 27.1693 32.1309 27.396 32.6424C27.6228 33.1539 27.433 33.646 26.9215 33.8728L16.6919 38.4081C16.1804 38.6349 15.6883 38.4451 15.4615 37.9336C15.2725 37.5075 15.4245 36.93 15.936 36.7032ZM18.2037 41.8181C17.6922 42.0448 17.2001 41.855 16.9733 41.3435C16.7466 40.8321 16.9363 40.3399 17.4478 40.1132L27.6775 35.5779C28.1889 35.3511 28.6811 35.5409 28.9078 36.0524C29.1346 36.5638 28.9448 37.056 28.4333 37.2827L18.2037 41.8181ZM30.8857 47.4158C31.3015 48.3536 30.8744 49.4609 29.9367 49.8767C28.9989 50.2924 27.8915 49.8654 27.4758 48.9276C27.06 47.9899 27.4871 46.8825 28.4249 46.4668C29.3626 46.051 30.47 46.4781 30.8857 47.4158ZM35.4803 44.6648L35.7431 47.0984L36.7577 55.8288C36.7955 55.914 36.7955 55.914 36.8333 55.9993C37.0505 56.7191 37.5232 57.3255 38.1763 57.648C38.1763 57.648 38.214 57.7332 38.2993 57.6954L39.9743 58.4828C40.8734 58.9002 41.4219 59.6771 41.3735 60.7185C41.4105 61.7221 40.8323 62.4885 39.8945 62.9043L30.1764 67.2128C28.6419 67.8931 27.0135 67.9011 25.6696 67.1708C23.8714 66.336 22.7464 64.4887 22.7955 62.5289L23.3952 48.6967C23.5103 47.1156 22.7446 45.619 21.4483 44.7656C21.3253 44.7182 21.2875 44.6329 21.1644 44.5855L24.4038 43.1493L24.6701 62.6158C24.6974 63.8278 25.397 64.9457 26.5422 65.458C27.356 65.9132 28.3596 65.8762 29.3826 65.4227L33.4744 63.6086C34.5826 63.1172 35.3032 61.9817 35.153 60.7223L33.099 39.2943L34.7186 38.5762L35.4803 44.6648ZM31.2553 57.4522C31.6711 58.39 31.244 59.4974 30.3062 59.9131C29.3685 60.3289 28.2611 59.9018 27.8454 58.964C27.4296 58.0263 27.8567 56.9189 28.7944 56.5032C29.7322 56.0875 30.8396 56.5146 31.2553 57.4522ZM44.3027 36.2652C45.5877 39.1636 44.3064 42.4857 41.4081 43.7707L37.4014 45.5471L36.7816 40.0077C38.0683 41.0692 39.5166 41.3451 42.0355 41.0445C42.1207 41.0067 42.2438 41.0541 42.329 41.0163C42.6699 40.8652 42.8976 40.4582 42.8317 40.0795C42.8132 39.5776 42.3307 39.1795 41.8289 39.1981C38.9787 39.4417 38.1649 38.9864 37.0962 37.7262C37.0584 37.6409 36.9732 37.6787 36.9354 37.5934L43.5846 34.6454L44.3028 36.2652L44.3027 36.2652ZM59.5002 24.5293L50.123 28.6867C49.7072 27.7489 50.1343 26.6416 51.072 26.2258L58.7443 22.8243L59.5002 24.5293ZM54.5869 13.4471L51.177 14.9589L50.7991 14.1065L54.2089 12.5947L54.5869 13.4471Z" fill="white"/>
<path d="M34.3943 2.36285C34.3943 3.66771 34.4236 7.95846 34.4529 11.9024C34.4822 15.8464 34.5232 21.8828 34.5466 25.3213L34.5876 31.5635L36.4626 31.5517L38.3376 31.5341L38.3259 28.8597C38.3142 25.6211 38.2205 11.632 38.1677 4.89028L38.1267 -5.899e-06H36.2634H34.3943V2.36285Z" fill="#FF3131"/>
<path d="M47.9353 23.8627C44.6248 23.8921 44.572 23.8921 44.5603 24.0097C44.5486 24.0743 44.5251 24.8149 44.5076 25.6495L44.4666 27.1719L47.5427 27.1307L50.6248 27.0837V29.4701V31.8564H52.324H54.0232V29.5171C54.0232 28.2299 54.0056 26.4137 53.9822 25.4908L53.947 23.8039L52.6228 23.8157C51.8962 23.8274 49.7869 23.8451 47.9353 23.8627Z" fill="#FF3131"/>
<path d="M21.0823 24.0226L19.8049 24.0402V25.5273C19.8049 26.3384 19.8225 28.137 19.8459 29.5183L19.8811 32.0339H21.5393H23.1975L23.1624 29.6534L23.1272 27.273H25.3772C26.6135 27.273 27.967 27.2553 28.3831 27.2318L29.1389 27.1966L29.0979 26.1621C29.0803 25.5919 29.0452 24.869 29.0217 24.5516L28.9866 23.9814L25.6702 23.9932C23.8479 24.0049 21.7795 24.0167 21.0823 24.0226Z" fill="#FF3131"/>
<path d="M62.2852 36.4463C58.6289 36.4698 53.1211 36.511 50.0566 36.5345L44.4727 36.5698V38.3566V40.1434H46.3359C48.6797 40.1434 65.6836 40.0376 71.0039 39.9906L75 39.9553V38.1685V36.3817L71.9707 36.3934C70.3008 36.3993 65.9414 36.4228 62.2852 36.4463Z" fill="#FF3131"/>
<path d="M12.5977 36.6885C8.26172 36.712 3.65625 36.7532 2.36133 36.7708L0 36.8061V38.5988V40.3915L4.5293 40.3562C11.1094 40.2974 25.2187 40.2034 27.3516 40.2034H29.1797V38.4107V36.618L24.832 36.6297C22.4355 36.6356 16.9336 36.6591 12.5977 36.6885Z" fill="#FF3131"/>
<path d="M50.6772 45.0044C50.6772 45.0338 50.6772 46.0389 50.6831 47.2497L50.689 49.4421L48.2397 49.4069C46.8921 49.3834 45.5327 49.354 45.2222 49.3363L44.6479 49.3011V50.9527V52.6044H48.0933C49.9858 52.6044 52.1069 52.5867 52.8101 52.5632L54.0815 52.528V48.7427V44.9633H52.3823C51.4507 44.9633 50.6831 44.9809 50.6772 45.0044Z" fill="#FF3131"/>
<path d="M19.9688 49.0012C19.9805 51.0643 19.998 52.7571 20.0039 52.763C20.0098 52.7689 22.0664 52.7571 24.5684 52.7395L29.1211 52.7042V51.0702V49.4421L28.4063 49.4715C26.6074 49.542 23.3086 49.636 23.2852 49.6125C23.2734 49.6008 23.2617 48.6133 23.2617 47.4201V45.2571H21.6035H19.9453L19.9688 49.0012Z" fill="#FF3131"/>
<path d="M34.7463 48.6196C34.7463 51.2117 34.8577 68.457 34.8987 71.9836L34.9338 74.9989H36.8088H38.6838L38.6487 69.5444C38.6252 66.5467 38.5842 60.7513 38.5549 56.6603C38.5198 52.5694 38.4963 48.6901 38.4963 48.0318V46.8445H36.6213H34.7463V48.6196Z" fill="#FF3131"/>
</svg>
