<svg width="55" height="34" viewBox="0 0 55 34" fill="none" xmlns="http://www.w3.org/2000/svg">
<path fill-rule="evenodd" clip-rule="evenodd" d="M26.2262 0.0448619C26.2035 0.0676092 25.9533 0.109418 25.6701 0.137664C24.7145 0.233153 24.4529 0.287085 23.0346 0.681039C22.7945 0.747718 22.4998 0.844394 22.3797 0.895888C22.2597 0.947319 22.007 1.05181 21.8184 1.12805C20.5209 1.65224 18.8253 2.65006 18.0761 3.33035C17.9903 3.40822 17.7663 3.59845 17.5782 3.75312C16.358 4.75662 15.1305 6.35112 14.0182 8.37751C13.7244 8.91289 13.3417 9.60493 12.7828 10.6116C12.6158 10.9124 12.3352 11.4186 12.1591 11.7365C11.983 12.0544 11.6949 12.5747 11.5188 12.8926C11.3427 13.2105 11.0658 13.7097 10.9034 14.0019C10.7409 14.294 10.4678 14.7861 10.2962 15.0955C10.1247 15.4048 9.84405 15.911 9.67253 16.2203C9.50101 16.5297 9.21659 17.0429 9.04052 17.3608C8.86444 17.6787 8.58003 18.192 8.40851 18.5013C8.23698 18.8107 7.95631 19.3169 7.78479 19.6262C7.61327 19.9355 7.32886 20.4488 7.15278 20.7667C6.97671 21.0846 6.69978 21.5838 6.53736 21.8759C6.37495 22.1681 6.10176 22.6602 5.93024 22.9695C5.75872 23.2789 5.47804 23.7851 5.30652 24.0944C5.135 24.4038 4.85433 24.9099 4.68281 25.2193C4.51129 25.5286 4.23061 26.0348 4.05909 26.3442C3.88757 26.6535 3.59941 27.1737 3.41879 27.5003C3.23816 27.8268 2.95374 28.34 2.78678 28.6408C2.61981 28.9415 2.34288 29.4407 2.17136 29.75C1.99984 30.0593 1.71916 30.5655 1.54764 30.8749C0.0752389 33.5303 -0.0170708 33.7077 0.00195252 33.8433C0.0190423 33.9646 0.0733679 33.9688 1.84621 33.9848C3.01181 33.9954 3.71636 33.9781 3.79289 33.9371C3.85888 33.9017 4.07194 33.5708 4.26629 33.2018C4.46064 32.8328 4.84067 32.1161 5.11074 31.6092C6.22145 29.5242 6.64296 28.7309 7.16108 27.7502C7.46071 27.1831 7.93411 26.2903 8.2131 25.7661C8.49208 25.2419 8.9449 24.3913 9.21933 23.8757C9.49377 23.3601 9.94284 22.5165 10.2173 22.0009C10.4917 21.4853 10.9408 20.6417 11.2152 20.1261C11.4897 19.6106 11.9387 18.7669 12.2132 18.2514C12.4876 17.7358 12.9404 16.8851 13.2194 16.3609C13.4984 15.8368 13.9718 14.9439 14.2714 14.3768C16.3984 10.351 16.4633 10.2367 17.3425 8.97182C17.7461 8.39126 18.6465 7.23014 18.8211 7.06516C18.8757 7.01361 19.0461 6.81713 19.1999 6.62859C19.3536 6.43999 19.5921 6.17283 19.7298 6.03491C19.8675 5.89693 20.1341 5.65802 20.3223 5.50397C20.5105 5.34993 20.7066 5.18013 20.7581 5.1267C21.2878 4.57639 22.8293 3.53833 23.7861 3.08757C25.0051 2.51326 25.6241 2.30891 26.7457 2.1105C27.3005 2.01232 47.1818 2.01307 47.952 2.11125C49.0378 2.24967 50.017 2.58406 50.7007 3.04995C51.4865 3.58532 51.9024 4.04814 52.2832 4.81087C52.5007 5.24675 52.8469 6.53341 52.9149 7.1589C52.9374 7.36513 52.9736 13.4615 52.9955 20.7065C53.0306 32.3183 53.0464 33.8861 53.1289 33.9383C53.1803 33.9709 53.5782 33.998 54.0132 33.9986C54.6498 33.9993 54.8231 33.9804 54.902 33.9013C54.9905 33.8126 55 32.3852 55 19.1227C55 8.65679 54.9803 4.35679 54.9313 4.14451C54.7888 3.52683 54.7206 3.33235 54.4636 2.81166C53.9271 1.72417 53.2827 1.07849 52.1973 0.54093C51.6776 0.28346 51.4835 0.215094 50.867 0.0722978C50.539 -0.00363081 26.3016 -0.0306293 26.2262 0.0448619ZM27.1511 4.0652C27.0825 4.09495 26.9336 4.1212 26.8203 4.12363C26.4955 4.13051 25.3744 4.53265 24.6126 4.91548C23.9639 5.24138 22.8209 5.96511 22.5356 6.23045C22.467 6.29426 22.2572 6.47305 22.0692 6.62772C21.6278 6.99099 20.6805 7.9405 20.3223 8.37882C20.1684 8.56718 20.0239 8.73528 20.0011 8.75247C19.9783 8.76965 19.6832 9.15354 19.3453 9.60549C18.6899 10.4821 17.8366 11.8717 17.2017 13.0957C16.7833 13.9023 16.0291 15.3319 15.2153 16.8609C14.9363 17.3851 14.4835 18.2357 14.2091 18.7513C13.9346 19.2669 13.4855 20.1105 13.2111 20.6261C12.9367 21.1416 12.4837 21.9923 12.2044 22.5165C11.9252 23.0407 11.6022 23.6523 11.4867 23.8757L11.2767 24.2819L11.5634 25.0943C11.838 25.8725 12.0653 26.5034 12.5874 27.9377C12.7187 28.2986 12.9409 28.9103 13.0811 29.2969C13.2212 29.6836 13.4506 30.3164 13.5909 30.703C13.7312 31.0897 13.9807 31.7857 14.1455 32.2497C14.6506 33.672 14.7186 33.8406 14.8205 33.9214C14.8988 33.9834 18.6024 33.9995 32.8656 33.9995C49.1309 33.9995 50.8214 33.9903 50.9106 33.9009C50.9999 33.8115 51.007 32.5655 50.9868 20.6368C50.9651 7.73433 50.9553 7.08966 50.7716 6.37268C50.681 6.01897 50.2495 5.24294 50.0101 5.00309C49.7707 4.76325 48.9962 4.33092 48.6432 4.24012C47.9371 4.05845 47.3026 4.04658 37.4112 4.02908C31.8087 4.01921 27.2201 4.03539 27.1511 4.0652ZM31.5959 8.16954C32.1241 8.56461 32.1914 9.23979 31.7507 9.7211C31.6562 9.82422 31.4531 10.0633 31.2994 10.2523C31.1457 10.4413 31.0051 10.6101 30.987 10.6272C30.9689 10.6444 30.8287 10.8132 30.6754 11.0022C30.5221 11.1912 30.3536 11.3881 30.3009 11.4397C30.2482 11.4912 30.0797 11.6881 29.9264 11.8771C29.7731 12.0661 29.6329 12.2349 29.6148 12.2521C29.5967 12.2692 29.4565 12.438 29.3032 12.627C29.15 12.8161 28.9814 13.0129 28.9287 13.0645C28.876 13.116 28.7075 13.3129 28.5542 13.5019C28.4009 13.691 28.2607 13.8597 28.2426 13.8769C28.2245 13.8941 28.0843 14.0628 27.931 14.2518C27.7778 14.4409 27.6093 14.6377 27.5565 14.6893C27.5038 14.7408 27.3353 14.9377 27.1821 15.1267C27.0288 15.3158 26.8886 15.4845 26.8705 15.5017C26.8524 15.5189 26.7122 15.6876 26.5589 15.8766C26.4056 16.0657 26.2371 16.2625 26.1844 16.3141C26.1317 16.3656 25.9631 16.5625 25.8099 16.7515C25.6566 16.9406 25.5164 17.1093 25.4983 17.1265C25.4802 17.1437 25.34 17.3124 25.1867 17.5014C25.0334 17.6905 24.8649 17.8873 24.8122 17.9389C24.7595 17.9904 24.591 18.1873 24.4377 18.3763C24.2844 18.5654 24.1442 18.7341 24.1261 18.7513C24.108 18.7685 23.9678 18.9372 23.8145 19.1262C23.6613 19.3153 23.4927 19.5121 23.44 19.5637C23.3873 19.6153 23.2188 19.8121 23.0656 20.0011C22.9122 20.1902 22.772 20.3589 22.7539 20.3761C22.7359 20.3933 22.5956 20.562 22.4423 20.7511C22.2891 20.9401 22.1206 21.137 22.0679 21.1885C22.0152 21.2401 21.8463 21.4367 21.6925 21.6253C21.189 22.2433 21.1044 22.3412 20.8193 22.6359C20.3982 23.0712 19.8628 23.122 19.4416 22.7669C18.9782 22.3762 18.958 21.7172 19.3954 21.251C19.476 21.1651 19.6678 20.9401 19.8217 20.7511C19.9755 20.562 20.1163 20.3933 20.1343 20.3761C20.1524 20.3589 20.2926 20.1902 20.446 20.0011C20.5992 19.8121 20.7677 19.6153 20.8204 19.5637C20.8731 19.5121 21.0417 19.3153 21.1949 19.1262C21.3482 18.9372 21.4884 18.7685 21.5065 18.7513C21.5246 18.7341 21.6648 18.5654 21.8181 18.3763C21.9714 18.1873 22.1399 17.9904 22.1926 17.9389C22.2453 17.8873 22.4138 17.6905 22.5671 17.5014C22.7204 17.3124 22.8606 17.1437 22.8787 17.1265C22.8968 17.1093 23.037 16.9406 23.1903 16.7515C23.3435 16.5625 23.5121 16.3656 23.5648 16.3141C23.6175 16.2625 23.786 16.0657 23.9393 15.8766C24.0926 15.6876 24.2328 15.5189 24.2509 15.5017C24.2689 15.4845 24.4092 15.3158 24.5625 15.1267C24.7157 14.9377 24.8842 14.7408 24.9369 14.6893C24.9897 14.6377 25.1582 14.4409 25.3114 14.2518C25.4647 14.0628 25.6049 13.8941 25.623 13.8769C25.6411 13.8597 25.7813 13.691 25.9346 13.5019C26.0879 13.3129 26.2564 13.116 26.3091 13.0645C26.3618 13.0129 26.5304 12.8161 26.6836 12.627C26.8369 12.438 26.9771 12.2692 26.9952 12.2521C27.0133 12.2349 27.1535 12.0661 27.3068 11.8771C27.4601 11.6881 27.6286 11.4912 27.6813 11.4397C27.734 11.3881 27.9025 11.1912 28.0558 11.0022C28.2091 10.8132 28.3493 10.6444 28.3674 10.6272C28.3855 10.6101 28.5257 10.4413 28.679 10.2523C28.8322 10.0633 29.0008 9.8664 29.0535 9.81484C29.1062 9.76329 29.2751 9.56668 29.4288 9.37802C30.1924 8.44088 30.438 8.17966 30.6439 8.0858C30.8932 7.97218 31.3906 8.01593 31.5959 8.16954ZM34.5897 15.1687C35.1179 15.5638 35.1852 16.239 34.7445 16.7203C34.6501 16.8234 34.447 17.0624 34.2932 17.2515C34.1395 17.4405 33.9989 17.6092 33.9808 17.6264C33.9627 17.6436 33.8224 17.8123 33.669 18.0014C33.5155 18.1904 33.3752 18.3592 33.3571 18.3763C33.339 18.3935 33.1987 18.5623 33.0452 18.7513C32.8918 18.9403 32.7515 19.1091 32.7334 19.1262C32.7153 19.1434 32.575 19.3122 32.4215 19.5012C32.2681 19.6902 32.1278 19.859 32.1097 19.8762C32.0916 19.8933 31.9512 20.0621 31.7978 20.2511C31.6444 20.4402 31.504 20.6089 31.486 20.6261C31.4679 20.6433 31.3275 20.812 31.1741 21.001C31.0207 21.1901 30.8803 21.3588 30.8622 21.376C30.8442 21.3932 30.7034 21.5617 30.5495 21.7503C30.0683 22.3404 29.9642 22.4617 29.7365 22.6981C28.988 23.4751 27.7112 22.6018 28.1429 21.6083C28.191 21.4977 28.2962 21.3369 28.3769 21.251C28.4574 21.1651 28.6493 20.9401 28.8032 20.7511C28.957 20.562 29.0977 20.3933 29.1158 20.3761C29.1339 20.3589 29.2743 20.1902 29.4277 20.0011C29.5811 19.8121 29.7215 19.6434 29.7396 19.6262C29.7576 19.609 29.898 19.4403 30.0514 19.2512C30.2048 19.0622 30.3452 18.8935 30.3633 18.8763C30.3814 18.8591 30.5217 18.6904 30.6751 18.5013C30.8286 18.3123 30.9689 18.1436 30.987 18.1264C31.0051 18.1092 31.1454 17.9405 31.2988 17.7514C31.4523 17.5624 31.5926 17.3936 31.6107 17.3765C31.6288 17.3593 31.7691 17.1905 31.9226 17.0015C32.076 16.8125 32.2163 16.6437 32.2344 16.6265C32.2525 16.6094 32.3928 16.4406 32.5463 16.2516C32.6997 16.0625 32.84 15.8938 32.8581 15.8766C32.8762 15.8594 33.0157 15.694 33.1681 15.5089C33.3205 15.3238 33.5306 15.1335 33.635 15.086C33.8871 14.9714 34.3834 15.0144 34.5897 15.1687ZM42.4215 15.087C42.8437 15.2638 43.0872 15.742 42.9978 16.2193C42.9677 16.38 42.0328 17.6294 39.4321 20.9844C37.4935 23.4854 35.8128 25.6214 35.6975 25.7311C35.0059 26.3883 33.8911 25.7386 34.0701 24.7826C34.0991 24.628 34.4959 24.0701 35.4368 22.861C37.4338 20.2949 39.3564 17.817 40.0559 16.9078C41.4421 15.1057 41.5407 15.0098 42.0131 15.0042C42.1257 15.0029 42.3095 15.0401 42.4215 15.087ZM47.4112 19.0865C47.8461 19.2685 48.0973 19.7873 47.9741 20.2486C47.9056 20.5052 44.7943 24.6915 44.5559 24.848C44.471 24.9038 44.2916 24.9641 44.157 24.9822C43.4756 25.0737 42.9216 24.4768 43.0503 23.7896C43.1101 23.4704 46.289 19.2563 46.5799 19.1108C46.842 18.9795 47.1352 18.971 47.4112 19.0865ZM9.81012 27.0648C9.74712 27.1346 9.45173 27.6618 9.15384 28.2365C8.85596 28.8111 8.38393 29.7101 8.10494 30.2343C7.82596 30.7585 7.37719 31.6022 7.10775 32.1091C6.8383 32.616 6.52351 33.2035 6.40825 33.4144C6.06702 34.0389 5.86905 33.9995 9.34663 33.9995C10.9862 33.9995 12.3721 33.9824 12.4264 33.9616C12.5505 33.9138 12.5493 33.6703 12.423 33.3433C12.3304 33.1032 12.1444 32.5947 11.5948 31.078C11.4546 30.6913 11.2277 30.0656 11.0905 29.6875C10.9533 29.3094 10.7313 28.6978 10.5972 28.3283C10.1885 27.2021 10.1474 27.0979 10.08 27.0164C9.99075 26.9087 9.94341 26.9171 9.81012 27.0648Z" fill="white"/>
</svg>
