<svg width="64" height="64" viewBox="0 0 64 64" fill="none" xmlns="http://www.w3.org/2000/svg">
<mask id="path-1-outside-1_5902_168" maskUnits="userSpaceOnUse" x="5" y="7" width="53" height="51" fill="black">
<rect fill="white" x="5" y="7" width="53" height="51"/>
<path fill-rule="evenodd" clip-rule="evenodd" d="M50.3251 9.26323C48.3827 9.4048 46.6705 9.53454 46.5203 9.55148C46.1917 9.58861 45.8081 9.75275 45.5679 9.95909C45.4709 10.0424 45.3153 10.2483 45.222 10.4165C45.0648 10.7002 45.0525 10.7541 45.0527 11.1603C45.0529 11.5057 45.0757 11.6464 45.1602 11.8259C45.306 12.1352 45.643 12.4813 45.9458 12.6326C46.1274 12.7234 46.2994 12.7639 46.5696 12.7798C46.7748 12.7918 47.5968 12.7533 48.3963 12.6943C49.1959 12.6353 49.873 12.5945 49.9011 12.6037C49.9292 12.6128 47.4395 15.0785 44.3685 18.0829L38.7849 23.5455L32.2272 18.1072C28.2835 14.8366 25.5646 12.6156 25.4061 12.535C25.25 12.4556 25.0207 12.3885 24.8437 12.3704C24.6121 12.3467 24.4628 12.364 24.1788 12.4471L23.8127 12.5543L15.5415 20.6413C8.5704 27.4572 7.24906 28.7704 7.13515 28.996C7.0184 29.2272 7 29.3232 7 29.7016C7 30.1083 7.01224 30.1617 7.17081 30.4479C7.35938 30.7881 7.62635 31.0294 7.99882 31.1964C8.18833 31.2813 8.33333 31.306 8.64148 31.3056C9.41103 31.3046 8.67874 31.9609 17.1811 23.6516L24.7756 16.2295L25.1895 16.5707C25.4171 16.7584 28.3973 19.2247 31.812 22.0514C37.1262 26.4505 38.0612 27.2058 38.3033 27.2951C38.5319 27.3795 38.6622 27.3955 38.984 27.3789C39.2659 27.3642 39.4472 27.3261 39.6057 27.248C39.767 27.1687 41.5724 25.434 46.0597 21.0471C51.0126 16.2051 52.2899 14.9808 52.2899 15.0756C52.2899 15.1413 52.2318 15.8694 52.1607 16.6937L52.0315 18.1925L52.1362 18.5295C52.2166 18.7885 52.2978 18.9276 52.4871 19.1302C52.6549 19.3098 52.8333 19.4383 53.0464 19.5329C53.3107 19.6503 53.4192 19.671 53.7441 19.666C54.0414 19.6615 54.1915 19.6321 54.4042 19.5368C54.7729 19.3717 55.1389 18.998 55.2714 18.6513C55.3601 18.4195 55.4247 17.7972 55.7069 14.4554C56.0351 10.5689 56.0374 10.5288 55.9542 10.2185C55.9081 10.0463 55.7964 9.80444 55.706 9.68117C55.4928 9.3903 55.0827 9.11213 54.7708 9.04668C54.6347 9.01811 54.3734 8.99723 54.1901 9.0003C54.0067 9.00336 52.2675 9.12172 50.3251 9.26323ZM20.7536 28.1169C20.6852 28.1373 20.5397 28.1988 20.4303 28.2536C20.306 28.3158 18.8582 29.6986 16.5753 31.9355C13.3016 35.1431 12.9037 35.5495 12.77 35.8216L12.6208 36.1254V45.4447V54.764L12.7514 55.0317C12.9353 55.4085 13.1844 55.6682 13.5232 55.8361L13.8146 55.9806H17.7442H21.6738L21.9554 55.8453C22.2931 55.6831 22.5589 55.4082 22.7366 55.0375L22.8676 54.764L22.8822 42.1598C22.8954 30.7507 22.8893 29.5279 22.8175 29.2636C22.6745 28.7373 22.2431 28.2926 21.7313 28.1439C21.4692 28.0677 20.9648 28.0538 20.7536 28.1169ZM27.6291 28.1428C27.1001 28.3045 26.7138 28.7004 26.5512 29.2475C26.4808 29.4843 26.4743 30.7791 26.4859 42.1617L26.4988 54.8127L26.6212 55.056C26.8027 55.4167 27.1902 55.7742 27.5375 55.9013C27.8269 56.0072 27.8275 56.0072 31.6894 55.994L35.5518 55.9806L35.8005 55.8613C36.1442 55.6963 36.4895 55.336 36.6299 54.9958L36.7456 54.7153V45.4204V36.1254L36.6062 35.8304C36.4807 35.5648 36.0986 35.1757 32.7512 31.9061C29.2184 28.4553 29.0214 28.2718 28.7477 28.1741C28.4165 28.0559 27.9559 28.043 27.6291 28.1428ZM48.4262 28.1386C48.3119 28.1751 48.144 28.2504 48.0531 28.3061C47.9622 28.3617 46.2513 30.0124 44.2512 31.9743C41.3621 34.8082 40.5902 35.5914 40.4957 35.7847L40.3767 36.0281V45.4447V54.8613L40.4939 55.0803C40.6534 55.3785 40.9727 55.6947 41.2721 55.8509L41.5208 55.9806H45.4753H49.4298L49.6536 55.866C49.9584 55.71 50.2815 55.3976 50.4412 55.1047L50.5738 54.8613L50.5866 42.1261L50.5994 29.3909L50.4923 29.1107C50.3612 28.768 50.0226 28.4004 49.6795 28.2285C49.4863 28.1317 49.3397 28.0999 49.0318 28.0878C48.7875 28.0782 48.5537 28.0978 48.4262 28.1386Z"/>
</mask>
<path fill-rule="evenodd" clip-rule="evenodd" d="M50.3251 9.26323C48.3827 9.4048 46.6705 9.53454 46.5203 9.55148C46.1917 9.58861 45.8081 9.75275 45.5679 9.95909C45.4709 10.0424 45.3153 10.2483 45.222 10.4165C45.0648 10.7002 45.0525 10.7541 45.0527 11.1603C45.0529 11.5057 45.0757 11.6464 45.1602 11.8259C45.306 12.1352 45.643 12.4813 45.9458 12.6326C46.1274 12.7234 46.2994 12.7639 46.5696 12.7798C46.7748 12.7918 47.5968 12.7533 48.3963 12.6943C49.1959 12.6353 49.873 12.5945 49.9011 12.6037C49.9292 12.6128 47.4395 15.0785 44.3685 18.0829L38.7849 23.5455L32.2272 18.1072C28.2835 14.8366 25.5646 12.6156 25.4061 12.535C25.25 12.4556 25.0207 12.3885 24.8437 12.3704C24.6121 12.3467 24.4628 12.364 24.1788 12.4471L23.8127 12.5543L15.5415 20.6413C8.5704 27.4572 7.24906 28.7704 7.13515 28.996C7.0184 29.2272 7 29.3232 7 29.7016C7 30.1083 7.01224 30.1617 7.17081 30.4479C7.35938 30.7881 7.62635 31.0294 7.99882 31.1964C8.18833 31.2813 8.33333 31.306 8.64148 31.3056C9.41103 31.3046 8.67874 31.9609 17.1811 23.6516L24.7756 16.2295L25.1895 16.5707C25.4171 16.7584 28.3973 19.2247 31.812 22.0514C37.1262 26.4505 38.0612 27.2058 38.3033 27.2951C38.5319 27.3795 38.6622 27.3955 38.984 27.3789C39.2659 27.3642 39.4472 27.3261 39.6057 27.248C39.767 27.1687 41.5724 25.434 46.0597 21.0471C51.0126 16.2051 52.2899 14.9808 52.2899 15.0756C52.2899 15.1413 52.2318 15.8694 52.1607 16.6937L52.0315 18.1925L52.1362 18.5295C52.2166 18.7885 52.2978 18.9276 52.4871 19.1302C52.6549 19.3098 52.8333 19.4383 53.0464 19.5329C53.3107 19.6503 53.4192 19.671 53.7441 19.666C54.0414 19.6615 54.1915 19.6321 54.4042 19.5368C54.7729 19.3717 55.1389 18.998 55.2714 18.6513C55.3601 18.4195 55.4247 17.7972 55.7069 14.4554C56.0351 10.5689 56.0374 10.5288 55.9542 10.2185C55.9081 10.0463 55.7964 9.80444 55.706 9.68117C55.4928 9.3903 55.0827 9.11213 54.7708 9.04668C54.6347 9.01811 54.3734 8.99723 54.1901 9.0003C54.0067 9.00336 52.2675 9.12172 50.3251 9.26323ZM20.7536 28.1169C20.6852 28.1373 20.5397 28.1988 20.4303 28.2536C20.306 28.3158 18.8582 29.6986 16.5753 31.9355C13.3016 35.1431 12.9037 35.5495 12.77 35.8216L12.6208 36.1254V45.4447V54.764L12.7514 55.0317C12.9353 55.4085 13.1844 55.6682 13.5232 55.8361L13.8146 55.9806H17.7442H21.6738L21.9554 55.8453C22.2931 55.6831 22.5589 55.4082 22.7366 55.0375L22.8676 54.764L22.8822 42.1598C22.8954 30.7507 22.8893 29.5279 22.8175 29.2636C22.6745 28.7373 22.2431 28.2926 21.7313 28.1439C21.4692 28.0677 20.9648 28.0538 20.7536 28.1169ZM27.6291 28.1428C27.1001 28.3045 26.7138 28.7004 26.5512 29.2475C26.4808 29.4843 26.4743 30.7791 26.4859 42.1617L26.4988 54.8127L26.6212 55.056C26.8027 55.4167 27.1902 55.7742 27.5375 55.9013C27.8269 56.0072 27.8275 56.0072 31.6894 55.994L35.5518 55.9806L35.8005 55.8613C36.1442 55.6963 36.4895 55.336 36.6299 54.9958L36.7456 54.7153V45.4204V36.1254L36.6062 35.8304C36.4807 35.5648 36.0986 35.1757 32.7512 31.9061C29.2184 28.4553 29.0214 28.2718 28.7477 28.1741C28.4165 28.0559 27.9559 28.043 27.6291 28.1428ZM48.4262 28.1386C48.3119 28.1751 48.144 28.2504 48.0531 28.3061C47.9622 28.3617 46.2513 30.0124 44.2512 31.9743C41.3621 34.8082 40.5902 35.5914 40.4957 35.7847L40.3767 36.0281V45.4447V54.8613L40.4939 55.0803C40.6534 55.3785 40.9727 55.6947 41.2721 55.8509L41.5208 55.9806H45.4753H49.4298L49.6536 55.866C49.9584 55.71 50.2815 55.3976 50.4412 55.1047L50.5738 54.8613L50.5866 42.1261L50.5994 29.3909L50.4923 29.1107C50.3612 28.768 50.0226 28.4004 49.6795 28.2285C49.4863 28.1317 49.3397 28.0999 49.0318 28.0878C48.7875 28.0782 48.5537 28.0978 48.4262 28.1386Z" fill="white"/>
<path fill-rule="evenodd" clip-rule="evenodd" d="M50.3251 9.26323C48.3827 9.4048 46.6705 9.53454 46.5203 9.55148C46.1917 9.58861 45.8081 9.75275 45.5679 9.95909C45.4709 10.0424 45.3153 10.2483 45.222 10.4165C45.0648 10.7002 45.0525 10.7541 45.0527 11.1603C45.0529 11.5057 45.0757 11.6464 45.1602 11.8259C45.306 12.1352 45.643 12.4813 45.9458 12.6326C46.1274 12.7234 46.2994 12.7639 46.5696 12.7798C46.7748 12.7918 47.5968 12.7533 48.3963 12.6943C49.1959 12.6353 49.873 12.5945 49.9011 12.6037C49.9292 12.6128 47.4395 15.0785 44.3685 18.0829L38.7849 23.5455L32.2272 18.1072C28.2835 14.8366 25.5646 12.6156 25.4061 12.535C25.25 12.4556 25.0207 12.3885 24.8437 12.3704C24.6121 12.3467 24.4628 12.364 24.1788 12.4471L23.8127 12.5543L15.5415 20.6413C8.5704 27.4572 7.24906 28.7704 7.13515 28.996C7.0184 29.2272 7 29.3232 7 29.7016C7 30.1083 7.01224 30.1617 7.17081 30.4479C7.35938 30.7881 7.62635 31.0294 7.99882 31.1964C8.18833 31.2813 8.33333 31.306 8.64148 31.3056C9.41103 31.3046 8.67874 31.9609 17.1811 23.6516L24.7756 16.2295L25.1895 16.5707C25.4171 16.7584 28.3973 19.2247 31.812 22.0514C37.1262 26.4505 38.0612 27.2058 38.3033 27.2951C38.5319 27.3795 38.6622 27.3955 38.984 27.3789C39.2659 27.3642 39.4472 27.3261 39.6057 27.248C39.767 27.1687 41.5724 25.434 46.0597 21.0471C51.0126 16.2051 52.2899 14.9808 52.2899 15.0756C52.2899 15.1413 52.2318 15.8694 52.1607 16.6937L52.0315 18.1925L52.1362 18.5295C52.2166 18.7885 52.2978 18.9276 52.4871 19.1302C52.6549 19.3098 52.8333 19.4383 53.0464 19.5329C53.3107 19.6503 53.4192 19.671 53.7441 19.666C54.0414 19.6615 54.1915 19.6321 54.4042 19.5368C54.7729 19.3717 55.1389 18.998 55.2714 18.6513C55.3601 18.4195 55.4247 17.7972 55.7069 14.4554C56.0351 10.5689 56.0374 10.5288 55.9542 10.2185C55.9081 10.0463 55.7964 9.80444 55.706 9.68117C55.4928 9.3903 55.0827 9.11213 54.7708 9.04668C54.6347 9.01811 54.3734 8.99723 54.1901 9.0003C54.0067 9.00336 52.2675 9.12172 50.3251 9.26323ZM20.7536 28.1169C20.6852 28.1373 20.5397 28.1988 20.4303 28.2536C20.306 28.3158 18.8582 29.6986 16.5753 31.9355C13.3016 35.1431 12.9037 35.5495 12.77 35.8216L12.6208 36.1254V45.4447V54.764L12.7514 55.0317C12.9353 55.4085 13.1844 55.6682 13.5232 55.8361L13.8146 55.9806H17.7442H21.6738L21.9554 55.8453C22.2931 55.6831 22.5589 55.4082 22.7366 55.0375L22.8676 54.764L22.8822 42.1598C22.8954 30.7507 22.8893 29.5279 22.8175 29.2636C22.6745 28.7373 22.2431 28.2926 21.7313 28.1439C21.4692 28.0677 20.9648 28.0538 20.7536 28.1169ZM27.6291 28.1428C27.1001 28.3045 26.7138 28.7004 26.5512 29.2475C26.4808 29.4843 26.4743 30.7791 26.4859 42.1617L26.4988 54.8127L26.6212 55.056C26.8027 55.4167 27.1902 55.7742 27.5375 55.9013C27.8269 56.0072 27.8275 56.0072 31.6894 55.994L35.5518 55.9806L35.8005 55.8613C36.1442 55.6963 36.4895 55.336 36.6299 54.9958L36.7456 54.7153V45.4204V36.1254L36.6062 35.8304C36.4807 35.5648 36.0986 35.1757 32.7512 31.9061C29.2184 28.4553 29.0214 28.2718 28.7477 28.1741C28.4165 28.0559 27.9559 28.043 27.6291 28.1428ZM48.4262 28.1386C48.3119 28.1751 48.144 28.2504 48.0531 28.3061C47.9622 28.3617 46.2513 30.0124 44.2512 31.9743C41.3621 34.8082 40.5902 35.5914 40.4957 35.7847L40.3767 36.0281V45.4447V54.8613L40.4939 55.0803C40.6534 55.3785 40.9727 55.6947 41.2721 55.8509L41.5208 55.9806H45.4753H49.4298L49.6536 55.866C49.9584 55.71 50.2815 55.3976 50.4412 55.1047L50.5738 54.8613L50.5866 42.1261L50.5994 29.3909L50.4923 29.1107C50.3612 28.768 50.0226 28.4004 49.6795 28.2285C49.4863 28.1317 49.3397 28.0999 49.0318 28.0878C48.7875 28.0782 48.5537 28.0978 48.4262 28.1386Z" stroke="black" stroke-opacity="0.65" stroke-width="4" mask="url(#path-1-outside-1_5902_168)"/>
</svg>
