<svg width="75" height="75" viewBox="0 0 75 75" fill="none" xmlns="http://www.w3.org/2000/svg">
<path d="M75 21.0938V63.2812C75 67.1631 71.8506 70.3125 67.9688 70.3125H7.03125C3.14941 70.3125 0 67.1631 0 63.2812V21.0938C0 17.2119 3.14941 14.0625 7.03125 14.0625H19.9219L21.7236 9.24316C22.749 6.50391 25.3711 4.6875 28.3008 4.6875H46.6846C49.6143 4.6875 52.2363 6.50391 53.2617 9.24316L55.0781 14.0625H67.9688C71.8506 14.0625 75 17.2119 75 21.0938ZM55.0781 42.1875C55.0781 32.4902 47.1973 24.6094 37.5 24.6094C27.8027 24.6094 19.9219 32.4902 19.9219 42.1875C19.9219 51.8848 27.8027 59.7656 37.5 59.7656C47.1973 59.7656 55.0781 51.8848 55.0781 42.1875Z" fill="#F2C94C"/>
<circle cx="37.5" cy="42.5" r="12.5" fill="white"/>
</svg>
