<svg width="42" height="42" viewBox="0 0 42 42" fill="none" xmlns="http://www.w3.org/2000/svg">
<path d="M20.9997 9.24023C16.5045 9.24023 12.8613 12.8066 12.8613 17.2058C12.8613 21.605 18.2973 27.4394 20.9997 32.7602C23.8173 27.4394 29.1381 21.6074 29.1381 17.2058C29.1381 12.8066 25.4949 9.24023 20.9997 9.24023ZM20.9997 21.7514C18.4725 21.7514 16.4229 19.7354 16.4229 17.2466C16.4205 14.7602 18.4701 12.7442 20.9997 12.7442C23.5269 12.7442 25.5789 14.7602 25.5789 17.249C25.5789 19.7354 23.5269 21.7514 20.9997 21.7514ZM20.9997 15.245C19.8765 15.245 18.9645 16.1402 18.9645 17.2466C18.9645 18.353 19.8765 19.2482 20.9997 19.2482C22.1229 19.2482 23.0349 18.353 23.0349 17.2466C23.0349 16.1426 22.1229 15.245 20.9997 15.245Z" fill="#FEB000"/>
<circle cx="21" cy="21" r="20.5" stroke="#FEB000"/>
</svg>
