<svg width="56" height="52" viewBox="0 0 56 52" fill="none" xmlns="http://www.w3.org/2000/svg">
<path fill-rule="evenodd" clip-rule="evenodd" d="M32.8795 2.14524C32.3552 2.43839 32.1856 3.19418 32.5248 3.72511C32.6263 3.88384 33.2049 4.40943 33.8108 4.8931C35.2313 6.02728 37.4305 8.23878 38.621 9.73032C39.1361 10.3757 39.6725 11.0118 39.8128 11.1438C40.2781 11.5814 41.2515 11.3849 41.5156 10.8001C41.7152 10.358 41.6649 9.957 41.3512 9.48667C40.3168 7.93614 36.9869 4.47056 34.9976 2.87448C34.0714 2.13116 33.8441 1.99685 33.5176 2.00006C33.3056 2.00219 33.0185 2.06747 32.8795 2.14524ZM24.8866 3.27152C24.7703 3.32006 24.5635 3.48103 24.4271 3.62931C24.1226 3.96012 24.0864 4.52656 24.3443 4.92372C24.4466 5.08128 24.7471 5.33911 25.0121 5.49678C26.0084 6.08947 28.2996 7.6415 29.0976 8.26438C30.4967 9.35631 32.3932 11.1215 33.5148 12.3758C34.5967 13.5856 36.3315 15.8437 37.0268 16.9473C37.4877 17.6787 37.8683 17.9977 38.2804 17.9977C38.9535 17.9977 39.416 17.5332 39.4196 16.8536C39.4216 16.4722 39.3143 16.2423 38.7222 15.3601C37.1204 12.9727 35.7049 11.2717 33.5929 9.19544C31.823 7.45535 30.3115 6.22687 28.2165 4.82547C25.8055 3.21264 25.4383 3.04121 24.8866 3.27152ZM15.9539 5.57999C15.4761 5.78886 15.0351 6.21482 14.7814 6.71246C14.5562 7.1542 14.5109 8.09039 14.691 8.57662C14.7521 8.74175 17.3424 11.4451 20.447 14.5841C23.7048 17.8778 26.1406 20.4231 26.2071 20.6031C26.368 21.0385 26.2478 21.4652 25.875 21.7818C25.6472 21.9752 25.4338 22.0514 25.1195 22.0514H24.6815L17.1728 14.4824C11.951 9.2187 9.54443 6.86319 9.27106 6.74841C8.72295 6.5182 7.7911 6.53623 7.30779 6.78638C6.79984 7.04923 6.50417 7.37619 6.23735 7.97017C5.99358 8.51293 5.96726 8.89899 6.13196 9.51696C6.22963 9.88329 7.2304 10.9406 13.1995 16.9843C17.0242 20.8566 20.2313 24.1436 20.3265 24.2887C20.5972 24.7012 20.546 25.1959 20.1911 25.5966C19.9281 25.8936 19.8115 25.945 19.4004 25.945H18.9181L12.7583 19.7435C6.13227 13.0727 6.34486 13.256 5.25856 13.2804C4.06159 13.3073 3.0439 14.3816 3.06346 15.5975C3.07731 16.458 3.16907 16.5616 10.3106 23.784C14.0965 27.6128 17.2288 30.8577 17.2712 30.9947C17.3871 31.3695 17.25 31.909 16.9717 32.1728C16.6318 32.495 16.0318 32.5816 15.6925 32.3572C15.5464 32.2607 13.2324 29.9517 10.5501 27.2262C7.06867 23.6887 5.53944 22.2054 5.2056 22.0423C4.83392 21.8607 4.5985 21.8228 4.05831 21.8575C3.51887 21.8922 3.28704 21.9662 2.93523 22.2163C2.32432 22.6506 2 23.3035 2 24.0992C2 24.5113 2.07009 24.8627 2.20402 25.1226C2.48955 25.6765 23.3489 46.6598 24.0938 47.1423C24.906 47.6684 25.5033 47.9621 26.3645 48.2584C28.0611 48.8424 30.1561 48.9822 31.8636 48.6254C33.759 48.2293 35.3016 47.4462 36.7833 46.1279C38.1363 44.924 42.4843 40.4398 43.058 39.6566C43.9632 38.4208 44.5051 37.0825 45.8674 32.7189C46.5727 30.4601 47.2633 28.3604 47.4023 28.0528C47.5412 27.7454 47.8342 27.2174 48.0532 26.8794C48.2723 26.5416 49.5995 25.089 51.0025 23.6515C53.3249 21.2718 53.5745 20.9807 53.7909 20.3979C53.9794 19.8905 54.021 19.592 53.9914 18.9578C53.9471 18.0088 53.6548 17.319 53.0297 16.6882C52.8012 16.4577 52.3456 16.1436 52.0173 15.9902C51.5315 15.7632 51.2724 15.7129 50.6274 15.7205C49.2281 15.7369 49.2709 15.7039 44.7075 20.2811C41.6027 23.3952 40.5123 24.4243 40.1091 24.6208C39.6641 24.8375 39.4215 24.8783 38.5763 24.8783C37.7454 24.8783 37.4879 24.8365 37.0843 24.6358C36.7225 24.4559 34.2418 22.0134 27.4652 15.1649C20.3897 8.01433 18.2158 5.87719 17.8101 5.67322C17.206 5.36941 16.5152 5.33474 15.9539 5.57999ZM3.91444 34.148C3.59255 34.3279 3.38282 34.7094 3.37795 35.1232C3.37362 35.4999 4.18464 36.8929 5.47189 38.7198C8.19545 42.5852 11.6647 45.9315 15.6398 48.5272C17.3765 49.6613 17.9996 50.0005 18.3454 50C18.8331 49.9994 19.3083 49.6408 19.4489 49.1675C19.5517 48.821 19.5437 48.6901 19.401 48.389C19.2677 48.1074 18.9558 47.8628 17.9984 47.2884C16.4768 46.3758 14.7852 45.16 13.3182 43.925C11.9591 42.7806 9.73292 40.4934 8.64113 39.1195C7.64131 37.8614 6.329 35.975 5.8404 35.0934C5.63743 34.7272 5.34979 34.3312 5.20137 34.2134C4.89058 33.9666 4.29289 33.9362 3.91444 34.148Z" fill="white"/>
<path d="M31.6823 4.26377L31.6821 4.26353C31.06 3.28984 31.3225 1.87029 32.3912 1.27252L31.6823 4.26377ZM31.6823 4.26377C31.7711 4.40271 31.8966 4.53291 31.971 4.6084C32.0664 4.70518 32.1817 4.8143 32.3063 4.9275C32.5565 5.15476 32.8689 5.42079 33.1868 5.67458C34.5463 6.75998 36.6931 8.91796 37.8394 10.3541C38.102 10.6832 38.3706 11.0105 38.5929 11.2742C38.7957 11.5146 39.006 11.7578 39.1276 11.8721L39.1277 11.8723C39.6674 12.3797 40.3944 12.4452 40.9375 12.3355C41.4814 12.2258 42.1234 11.8838 42.427 11.2116L42.427 11.2115M31.6823 4.26377L42.427 11.2115M42.427 11.2115C42.5902 10.8501 42.6713 10.4543 42.6181 10.0298C42.5665 9.61691 42.3972 9.25275 42.1831 8.93173L41.3512 9.48667L42.427 11.2115ZM33.5076 1.00011L33.5078 1.0001C33.8814 0.996441 34.1971 1.09296 34.5414 1.29637C34.8271 1.46521 35.1715 1.73181 35.6234 2.0945L33.5076 1.00011ZM33.5076 1.00011C33.315 1.00204 33.1179 1.03086 32.9494 1.06919M33.5076 1.00011L32.9494 1.06919M23.6913 2.95212L23.6913 2.9521C23.8026 2.83113 23.9306 2.71701 24.0501 2.62397C24.1536 2.54338 24.3183 2.4251 24.5014 2.3487L23.6913 2.95212ZM23.6913 2.95212C23.0549 3.64357 23.0177 4.71705 23.5056 5.46839C23.6364 5.66975 23.8253 5.84838 23.9659 5.96908C24.1239 6.10466 24.3118 6.24373 24.5008 6.35619L24.5008 6.35621M23.6913 2.95212L24.5008 6.35621M24.5008 6.35621C25.4661 6.93044 27.7218 8.45909 28.4823 9.05268L28.4824 9.05271M24.5008 6.35621L28.4824 9.05271M28.4824 9.05271C29.8371 10.11 31.6895 11.8348 32.7693 13.0423L32.7694 13.0424M28.4824 9.05271L32.7694 13.0424M32.7694 13.0424C33.8227 14.2202 35.5213 16.4338 36.1808 17.4804M32.7694 13.0424L36.1808 17.4804M15.5534 4.66371L15.5535 4.66366C16.4178 4.28597 17.4208 4.35811 18.2594 4.77982L15.5534 4.66371ZM15.5534 4.66371C14.8479 4.9721 14.2412 5.57028 13.8905 6.25826L13.8905 6.25833M15.5534 4.66371L13.8905 6.25833M13.8905 6.25833C13.685 6.66147 13.6053 7.16868 13.5854 7.57944M13.8905 6.25833L13.5854 7.57944M20.447 14.5841L19.736 15.2873C18.181 13.7151 16.7535 12.2506 15.7056 11.157C15.1823 10.6108 14.7505 10.1538 14.444 9.82094C14.2915 9.6554 14.1647 9.5148 14.0715 9.40683C14.0258 9.35383 13.9808 9.30028 13.9427 9.25132C13.9241 9.2274 13.8997 9.19522 13.8753 9.15902C13.8749 9.15843 13.8744 9.15772 13.8739 9.15691C13.8599 9.13631 13.7984 9.0458 13.7533 8.92401L20.447 14.5841ZM20.447 14.5841L19.736 15.2873C21.3626 16.9317 22.7819 18.3873 23.8013 19.4526C24.3117 19.9859 24.7183 20.4177 24.9995 20.7249C25.1018 20.8367 25.1844 20.9287 25.2479 21.0012C25.2422 21.0068 25.2355 21.0129 25.2278 21.0195C25.2092 21.0352 25.1975 21.0435 25.1918 21.0472C25.1818 21.0488 25.1595 21.0514 25.1195 21.0514H25.0981L17.8827 13.7781L17.1728 14.4824M20.447 14.5841L17.1728 14.4824M17.1728 14.4824L17.8827 13.7781C15.2713 11.1458 13.3599 9.23656 12.0657 7.96991C11.4195 7.33741 10.9217 6.85964 10.5652 6.53042C10.3879 6.36668 10.2376 6.23228 10.1175 6.13155C10.0579 6.08163 9.99697 6.03251 9.93838 5.9896L9.93821 5.98948C9.89946 5.9611 9.79262 5.88284 9.65829 5.82642L17.1728 14.4824ZM5.32513 7.56046L5.32516 7.5604C5.67102 6.79047 6.11229 6.27908 6.84812 5.89829L5.32513 7.56046ZM5.32513 7.56046C5.1713 7.90298 5.06065 8.25322 5.03379 8.64738C5.00725 9.03681 5.06704 9.40437 5.16568 9.77449L5.16571 9.7746M5.32513 7.56046L5.16571 9.7746M5.16571 9.7746C5.25279 10.1012 5.47302 10.3884 5.6646 10.6222C5.8896 10.8968 6.23136 11.2741 6.73767 11.809C7.75515 12.884 9.50611 14.6678 12.488 17.687L12.488 17.687M5.16571 9.7746L12.488 17.687M12.488 17.687C14.3994 19.6221 16.1558 21.4104 17.4458 22.7326C18.091 23.3938 18.6183 23.9372 18.9895 24.3235C19.1754 24.5171 19.32 24.6689 19.42 24.7756C19.4499 24.8076 19.4747 24.8343 19.4947 24.8561C19.4888 24.8707 19.4747 24.8972 19.4424 24.9337C19.439 24.9376 19.4356 24.9413 19.4325 24.9449C19.4226 24.945 19.4119 24.945 19.4004 24.945H19.3343L13.4678 19.0388C13.272 18.8418 13.0821 18.6505 12.8978 18.4649C9.98401 15.5309 8.47661 14.0131 7.58384 13.2437C7.11282 12.8378 6.71254 12.5484 6.2904 12.3991C5.89134 12.2579 5.52805 12.2707 5.30924 12.2783C5.28267 12.2793 5.25823 12.2801 5.23611 12.2806M12.488 17.687L2.06359 15.6136M2.06359 15.6136L2.06359 15.6136C2.03543 13.8626 3.47492 12.3202 5.23611 12.2806M2.06359 15.6136C2.06788 15.8805 2.08065 16.2279 2.30348 16.6723C2.48881 17.0419 2.80219 17.4447 3.2654 17.9679C4.20638 19.0308 6.04251 20.8898 9.59956 24.4871C11.4905 26.3995 13.2171 28.165 14.4753 29.4683C15.1048 30.1204 15.6145 30.6543 15.968 31.032C16.1037 31.177 16.2137 31.2961 16.2975 31.3886M2.06359 15.6136L16.2975 31.3886M5.23611 12.2806L5.25856 13.2804L5.23608 12.2806C5.23609 12.2806 5.2361 12.2806 5.23611 12.2806ZM16.2975 31.3886C16.2899 31.416 16.2808 31.4382 16.2731 31.4533C16.2698 31.4551 16.2657 31.4572 16.2609 31.4594C16.2452 31.4666 16.227 31.4726 16.2082 31.4767C16.1333 31.4059 16.0311 31.3074 15.903 31.1823C15.6275 30.9135 15.2437 30.5336 14.7787 30.0697C13.8493 29.1423 12.6024 27.8859 11.2628 26.5248C9.52149 24.7554 8.2619 23.4931 7.39374 22.6511C6.96051 22.2308 6.61698 21.9077 6.35589 21.6759C6.22573 21.5603 6.10798 21.4602 6.00479 21.3794C5.91693 21.3106 5.78697 21.2134 5.64459 21.1438L5.64452 21.1438C5.40316 21.0259 5.1547 20.9299 4.85418 20.8815C4.5701 20.8358 4.28781 20.8407 3.99418 20.8596C3.99414 20.8596 3.9941 20.8596 3.99407 20.8596L16.2975 31.3886ZM43.058 39.6566L43.8647 40.2475C43.6799 40.4999 43.256 40.973 42.7591 41.5089C42.2431 42.0652 41.5981 42.7424 40.9308 43.4306C39.6058 44.7972 38.1561 46.245 37.448 46.875C35.8391 48.3065 34.1388 49.1715 32.0681 49.6042C30.179 49.999 27.901 49.8448 26.0392 49.204L52.4406 15.0842M43.058 39.6566L43.8648 40.2475C44.8846 38.8552 45.4684 37.3527 46.822 33.017C47.1734 31.8915 47.5208 30.8068 47.7972 29.9666C47.9355 29.5462 48.0551 29.1897 48.148 28.9211C48.1946 28.7866 48.2334 28.6771 48.2639 28.5942C48.2792 28.5527 48.2915 28.5203 48.301 28.4961C48.3087 28.4765 48.3127 28.4669 48.3136 28.4646M43.058 39.6566C43.9632 38.4208 44.5051 37.0825 45.8674 32.7189C46.5727 30.4601 47.2633 28.3604 47.4023 28.0528M43.058 39.6566C42.4843 40.4398 38.1363 44.924 36.7833 46.1279C35.3016 47.4462 33.759 48.2293 31.8636 48.6254L47.4023 28.0528M48.3136 28.4646C48.4283 28.2109 48.6954 27.7273 48.8922 27.4236M48.3136 28.4646L48.3136 28.4647C48.314 28.4639 48.314 28.4638 48.3136 28.4646ZM48.8922 27.4236C48.8913 27.425 48.9103 27.3971 48.9656 27.3281C49.016 27.2652 49.0834 27.1844 49.1676 27.0864C49.3358 26.8907 49.5587 26.6407 49.8221 26.3523C50.3484 25.7763 51.0233 25.0618 51.7181 24.35L51.7181 24.35C52.8698 23.1698 53.54 22.4751 53.9458 22.0016C54.384 21.4903 54.5703 21.1716 54.7283 20.7461M48.8922 27.4236L48.0532 26.8794M48.8922 27.4236C48.8922 27.4235 48.8923 27.4234 48.8924 27.4233L48.0532 26.8794M54.7283 20.7461C54.7283 20.7461 54.7284 20.746 54.7284 20.746L53.7909 20.3979L54.7283 20.7461ZM54.7283 20.7461C54.8374 20.4526 54.9197 20.1771 54.9634 19.8632C55.006 19.5567 55.0062 19.2529 54.9903 18.9112C54.9353 17.7337 54.5521 16.8039 53.74 15.9844C53.4194 15.6609 52.8634 15.2817 52.4406 15.0842M52.4406 15.0842C52.4406 15.0842 52.4406 15.0842 52.4407 15.0842L52.0173 15.9902L52.4406 15.0842ZM52.4406 15.0842C52.1604 14.9532 51.8911 14.8475 51.5725 14.7857M52.4406 15.0842L51.5725 14.7857M48.0532 26.8794C47.8342 27.2174 47.5412 27.7454 47.4023 28.0528M48.0532 26.8794C48.2723 26.5416 49.5995 25.089 51.0025 23.6515L47.4023 28.0528M2.37802 35.1117L2.37802 35.1115C2.38647 34.3929 2.74821 33.6545 3.42615 33.2753L2.37802 35.1117ZM2.37802 35.1117C2.37568 35.3149 2.42397 35.4958 2.45938 35.6092C2.49966 35.7381 2.55293 35.87 2.6105 35.9979C2.72594 36.2541 2.88603 36.5539 3.07638 36.8808C3.45897 37.5379 4.00103 38.3684 4.65443 39.2958C7.45117 43.265 11.0124 46.6999 15.093 49.3645L15.6398 48.5272M2.37802 35.1117L15.6398 48.5272M15.6398 48.5272L15.093 49.3645C15.9604 49.9309 16.5808 50.3195 17.0361 50.5674M15.6398 48.5272L17.0361 50.5674M18.5128 46.4308L18.5128 46.4309C18.9922 46.7184 19.3576 46.9511 19.626 47.1617C19.9054 47.3809 20.1464 47.6266 20.3047 47.9607C20.3047 47.9609 20.3048 47.961 20.3049 47.9612L19.401 48.389L18.5128 46.4308ZM18.5128 46.4308C17.0403 45.5477 15.3918 44.3635 13.9623 43.16C12.6534 42.0579 10.4739 39.8184 9.42403 38.4973C8.44088 37.2602 7.16599 35.4223 6.71505 34.6087C6.59277 34.3881 6.44798 34.1633 6.30958 33.9727C6.19213 33.8109 6.01442 33.5821 5.82329 33.4303L5.82316 33.4302M18.5128 46.4308L5.82316 33.4302M5.82316 33.4302C5.45632 33.1389 5.00645 33.029 4.63404 33.01M5.82316 33.4302L4.63404 33.01M32.9494 1.06919C32.7939 1.10455 32.5815 1.16613 32.3914 1.27244L32.9494 1.06919ZM36.1808 17.4804C36.6415 18.2116 37.2837 18.9977 38.2804 18.9977M36.1808 17.4804L38.2804 18.9977M38.2804 18.9977C38.8534 18.9977 39.402 18.7955 39.8097 18.3861M38.2804 18.9977L39.8097 18.3861M39.8097 18.3861C40.2167 17.9774 40.4166 17.4293 40.4196 16.8589M39.8097 18.3861L40.4196 16.8589M40.4196 16.8589C40.4214 16.5272 40.3659 16.2273 40.1998 15.8716M40.4196 16.8589L40.1998 15.8716M40.1998 15.8716C40.0613 15.575 39.8423 15.2346 39.5527 14.803M40.1998 15.8716L39.5527 14.803M39.5527 14.803C37.9119 12.3576 36.4528 10.6046 34.294 8.48235M39.5527 14.803L38.7222 15.3601L39.5526 14.8029C39.5526 14.8029 39.5526 14.8029 39.5527 14.803ZM39.5527 14.803L34.294 8.48235M34.294 8.48235C32.4788 6.69776 30.9186 5.42989 28.7725 3.9943C27.5918 3.20442 26.8248 2.70666 26.2772 2.45114C25.9899 2.31703 25.6866 2.21151 25.3598 2.19212C25.0092 2.17131 24.7262 2.25486 24.5014 2.34869L34.294 8.48235ZM13.5854 7.57944C13.5653 7.99472 13.5971 8.50216 13.7531 8.92363L13.5854 7.57944ZM51.5725 14.7857C51.2649 14.726 50.9576 14.7165 50.6157 14.7206M51.5725 14.7857L50.6157 14.7206M50.6157 14.7206C50.5947 14.7208 50.5733 14.721 50.5516 14.7212M50.6157 14.7206L50.5516 14.7212M50.5516 14.7212C50.2477 14.7243 49.8773 14.728 49.4951 14.8304M50.5516 14.7212L49.4951 14.8304M49.4951 14.8304C49.0578 14.9475 48.6701 15.1699 48.2437 15.4983M49.4951 14.8304L48.2437 15.4983M48.2437 15.4983C47.4668 16.0968 46.3209 17.2463 44.2042 19.3696M48.2437 15.4983L44.2042 19.3696M44.2042 19.3696L43.9994 19.575M44.2042 19.3696L43.9994 19.575M43.9994 19.575C42.4465 21.1325 41.4075 22.1584 40.7088 22.8177M43.9994 19.575L40.7088 22.8177M40.7088 22.8177C40.3589 23.148 40.1051 23.376 39.9211 23.5293M40.7088 22.8177L39.9211 23.5293M39.9211 23.5293C39.7636 23.6605 39.6896 23.709 39.6726 23.7202M39.9211 23.5293L39.6726 23.7202M39.6726 23.7202C39.668 23.7232 39.6676 23.7235 39.671 23.7218M39.6726 23.7202L39.671 23.7218M39.671 23.7218L40.1091 24.6208M39.671 23.7218L40.1091 24.6208M40.1091 24.6208L39.6711 23.7218C39.5016 23.8043 39.4241 23.8283 39.3271 23.8446M40.1091 24.6208L39.3271 23.8446M40.1091 24.6208C39.6641 24.8375 39.4215 24.8783 38.5763 24.8783C37.7454 24.8783 37.4879 24.8365 37.0843 24.6358L40.1091 24.6208ZM39.3271 23.8446C39.1962 23.8666 38.9995 23.8783 38.5763 23.8783M39.3271 23.8446L38.5763 23.8783M38.5763 23.8783C38.162 23.8783 37.9617 23.8666 37.8304 23.8452M38.5763 23.8783L37.8304 23.8452M37.8304 23.8452C37.7451 23.8314 37.6815 23.8128 37.574 23.762L37.8304 23.8452ZM17.0361 50.5674C17.4472 50.7912 17.8921 51.0006 18.3467 51L17.0361 50.5674ZM4.63404 33.01C4.25459 32.9907 3.81446 33.0581 3.42645 33.2751L4.63404 33.01ZM25.2691 20.9495L25.2691 20.9498L25.2691 20.9495ZM9.6582 5.82639C9.21553 5.64048 8.69595 5.57874 8.24578 5.58745C7.80327 5.59601 7.27862 5.67549 6.8482 5.89825L9.6582 5.82639ZM25.1984 21.0458C25.1985 21.0458 25.1979 21.046 25.1965 21.0463L25.1984 21.0458ZM19.5516 24.9195C19.5514 24.9193 19.5492 24.9167 19.5455 24.9123C19.5499 24.9174 19.5518 24.9196 19.5516 24.9195ZM16.3133 31.574C16.3186 31.5784 16.3214 31.5808 16.3211 31.5807C16.3209 31.5806 16.3184 31.5785 16.3133 31.574ZM20.4075 49.4522L20.4075 49.4521L18.3469 51C19.2844 50.9987 20.1432 50.3419 20.4075 49.4522Z" stroke="black" stroke-opacity="0.65" stroke-width="2"/>
</svg>
