<svg width="53" height="25" viewBox="0 0 53 25" fill="none" xmlns="http://www.w3.org/2000/svg">
<path fill-rule="evenodd" clip-rule="evenodd" d="M2.61119 0.187162C2.49727 0.304133 2.40415 0.662395 2.40415 0.982945C2.40415 1.39586 3.20468 1.97943 5.15277 2.98678C7.9163 4.41568 12.0649 7.42335 13.6603 9.15426L14.518 10.0846L11.7572 10.4633C8.43995 10.9178 3.58927 12.1511 1.65762 13.0309C-0.126888 13.8436 -0.396939 14.7362 0.495472 16.8724C0.850264 17.7219 1.23672 19.0347 1.35405 19.7906C1.67718 21.8718 2.31848 22.3454 4.81257 22.3454C6.56635 22.3454 6.97391 22.4493 7.29394 22.9772C7.92623 24.0194 10.1435 24.9935 11.8836 24.9935C13.638 24.9935 14.5388 24.6103 15.9067 23.2821L16.8379 22.378L26.0964 22.3259C35.2135 22.2745 35.3619 22.284 35.817 22.9529C36.0712 23.3265 36.8636 23.9446 37.5779 24.3262C39.1206 25.1508 41.5517 25.23 42.9199 24.5004C43.4278 24.2294 44.3726 23.4183 45.0195 22.6973C45.987 21.6196 46.4008 21.3857 47.3475 21.3815C49.1625 21.3738 52.1545 20.5375 52.5971 19.9143C52.8588 19.5458 53 18.3086 53 16.3837C53 14.1498 52.8386 12.9766 52.3435 11.6145C51.2918 8.72057 51.0857 8.60296 47.0592 8.60296H43.6016L41.1252 6.16704L38.6488 3.73079L31.313 3.86982C22.9523 4.02801 22.7778 4.07244 19.9199 6.7618L18.2472 8.33579L15.5886 6.28113C10.6801 2.48822 3.60355 -0.834891 2.61119 0.187162Z" fill="white"/>
</svg>
