<svg width="44" height="36" viewBox="0 0 44 36" fill="none" xmlns="http://www.w3.org/2000/svg">
<path fill-rule="evenodd" clip-rule="evenodd" d="M25.468 0.0574356C30.4116 0.436429 36.269 2.92217 39.7602 6.12313C42.621 8.74574 44 11.5343 44 14.6961C44 17.8578 42.621 20.6464 39.7602 23.269C36.8876 25.9028 32.2352 28.1633 28.0044 28.9812C26.2625 29.3179 24.2337 29.4559 23.39 29.2953C19.8325 28.6174 18.1012 23.8383 18.1012 14.6961C18.1012 5.70201 19.7618 0.962667 23.1998 0.144118C23.8968 -0.02182 24.2552 -0.0355203 25.468 0.0574356Z" fill="white"/>
<path d="M0 36L16.0778 27.0368C15.7299 25.9391 15.4468 24.6894 15.2281 23.2859C13.5046 24.248 11.532 25.3511 9.2792 26.6121L0 31.8062V36Z" fill="white"/>
<path d="M0 25.4479L14.7062 17.2493C14.6798 16.4319 14.6667 15.5821 14.6667 14.6998C14.6667 14.175 14.6713 13.6617 14.6805 13.16L0 21.3443V25.4479Z" fill="white"/>
<path d="M0 14.9691L15.1652 6.51463C15.4329 4.65218 15.8091 3.05139 16.2956 1.70756L0 10.7922V14.9691Z" fill="white"/>
</svg>
