<svg width="75" height="75" viewBox="0 0 75 75" fill="none" xmlns="http://www.w3.org/2000/svg">
<path d="M11.7561 25.8374C15.2549 23.1187 18.1574 24.9937 22.0311 29.4787C22.4661 29.9849 23.0511 29.3924 23.3849 29.1037C23.7149 28.8112 28.8261 24.2099 29.0774 23.9999C29.3249 23.7787 29.6249 23.3662 29.2311 22.9049C28.2826 21.7317 27.3537 20.5428 26.4449 19.3387C19.6649 10.4699 44.9924 4.45494 41.1036 4.36119C39.1236 4.30869 31.1811 4.21494 29.9924 4.34619C25.1811 4.85244 19.1399 9.34869 16.0986 11.4449C12.1199 14.1674 10.6349 15.7649 10.3911 15.9862C9.26611 16.9687 10.2111 19.2374 8.17111 21.0262C6.01486 22.9124 4.66861 21.4837 3.41986 22.5787C2.80111 23.1262 1.06861 24.4237 0.573609 24.8549C0.0748593 25.2937 -0.0151407 26.0324 0.494859 26.6212C0.494859 26.6212 5.23486 31.8562 5.63236 32.3212C6.02611 32.7787 7.09861 33.1762 7.75861 32.5874C8.42236 32.0024 10.1286 30.5137 10.4136 30.2512C10.7061 30.0037 10.2261 27.0224 11.7561 25.8374ZM33.1611 27.7762C32.7111 27.2549 32.1524 27.2399 31.6724 27.6674L26.2949 32.3624C26.0873 32.5508 25.9607 32.8123 25.9418 33.092C25.923 33.3717 26.0132 33.6479 26.1936 33.8624L57.2961 69.2587C58.0236 70.0949 59.2836 70.1812 60.1124 69.4574L63.7499 66.4087C64.1502 66.0561 64.3953 65.5598 64.4318 65.0275C64.4683 64.4953 64.2934 63.9701 63.9449 63.5662L33.1611 27.7762ZM74.6324 12.7124C74.3549 10.8599 73.3949 11.2462 72.8961 12.0299C72.3974 12.8212 70.1924 16.1624 69.2849 17.6774C68.3849 19.1774 66.1649 22.1437 62.0324 19.2149C57.7274 16.1737 59.2236 14.0512 59.9736 12.6224C60.7274 11.1862 63.0411 7.15869 63.3749 6.65994C63.7086 6.15369 63.3186 4.68369 61.9836 5.29869C60.6449 5.91369 52.5224 9.14244 51.3974 13.7737C50.2461 18.4837 52.3611 22.6949 48.2099 26.8762L43.1736 32.1262L48.2324 37.9987L54.4349 32.1112C55.9124 30.6262 59.0699 29.1824 61.9274 29.8349C68.0511 31.2187 71.3924 28.9199 73.4061 25.1174C75.2136 21.7199 74.9136 14.5649 74.6324 12.7124ZM10.2711 63.9487C9.89601 64.3266 9.68552 64.8375 9.68552 65.3699C9.68552 65.9024 9.89601 66.4133 10.2711 66.7912L13.8374 70.2787C14.6174 71.0624 15.8549 70.7324 16.6349 69.9487L35.0361 51.8587L29.3999 45.4312L10.2711 63.9487Z" fill="#D79477"/>
</svg>
