<svg width="13" height="25" viewBox="0 0 13 25" fill="none" xmlns="http://www.w3.org/2000/svg">
<path d="M11.6923 22.3021L11.343 23.73C10.2951 24.1436 9.45796 24.4584 8.83463 24.6749C8.21062 24.892 7.48556 25 6.65945 25C5.39082 25 4.40406 24.6892 3.70028 24.0719C2.99651 23.4522 2.64451 22.6669 2.64451 21.7142C2.64451 21.3453 2.67005 20.966 2.72315 20.5795C2.7767 20.1926 2.86185 19.7568 2.97836 19.2697L4.28799 14.6343C4.4045 14.1904 4.50354 13.7699 4.58286 13.3722C4.66329 12.9769 4.70206 12.6133 4.70206 12.2859C4.70206 11.6939 4.5795 11.2799 4.33549 11.0471C4.09149 10.815 3.62589 10.6971 2.93467 10.6971C2.59611 10.6971 2.24815 10.7513 1.89346 10.8562C1.5372 10.9615 1.2327 11.0632 0.977051 11.1578L1.32726 9.72871C2.18518 9.3794 3.00525 9.08028 3.78968 8.83202C4.57412 8.58309 5.31531 8.45851 6.0164 8.45851C7.27629 8.45851 8.24849 8.76301 8.9312 9.372C9.61391 9.98145 9.95516 10.7715 9.95516 11.745C9.95516 11.9465 9.93275 12.3014 9.88458 12.8086C9.83752 13.317 9.74992 13.7829 9.6222 14.2066L8.31817 18.8233C8.21129 19.1941 8.11517 19.6181 8.0316 20.0951C7.94533 20.569 7.90411 20.9311 7.90411 21.1739C7.90411 21.787 8.04078 22.2055 8.31481 22.428C8.59085 22.6505 9.06631 22.7612 9.74162 22.7612C10.0587 22.7612 10.4194 22.7049 10.8203 22.5945C11.22 22.484 11.5115 22.387 11.6923 22.3021ZM12.023 2.91951C12.023 3.72389 11.7199 4.41086 11.1106 4.97571C10.503 5.54258 9.77075 5.82625 8.91417 5.82625C8.0549 5.82625 7.32088 5.54258 6.70628 4.97571C6.0928 4.41063 5.78539 3.72389 5.78539 2.91951C5.78539 2.1167 6.0928 1.42861 6.70628 0.856583C7.31976 0.285453 8.05512 0 8.91417 0C9.77053 0 10.503 0.286125 11.1106 0.856583C11.7203 1.42861 12.023 2.11692 12.023 2.91951Z" fill="white" fill-opacity="0.5"/>
</svg>
