<svg width="52" height="50" viewBox="0 0 52 50" fill="none" xmlns="http://www.w3.org/2000/svg">
<path fill-rule="evenodd" clip-rule="evenodd" d="M36.9231 7.0389L29.853 14.0777L29.8728 14.326C29.9067 14.7506 29.7799 15.7355 29.6314 16.2016C29.5534 16.4466 29.3665 16.896 29.2162 17.2003L28.9428 17.7535L31.5634 20.3074L34.1841 22.8613L34.7684 22.583C35.5431 22.214 36.2785 22.0301 37.1505 21.9876L37.8368 21.9541L44.9184 14.8896L52 7.82523L48.0619 3.91264C45.8959 1.7607 44.0943 0 44.0585 0C44.0226 0 40.8117 3.1675 36.9231 7.0389ZM10.3921 1.16495C10.0069 1.1965 8.5431 1.40607 8.44474 1.4437C8.39723 1.4619 8.35831 1.4962 8.35831 1.51998C8.35831 1.6367 9.6514 2.98604 12.5432 5.88702L14.4525 7.80241L14.3116 8.33759C13.4644 11.5558 12.8172 13.8334 12.7272 13.9134C12.6791 13.9562 9.80523 14.7538 8.77936 15.0091C8.46717 15.0868 7.85093 15.2493 7.40989 15.3704L6.60801 15.5905L4.16413 13.1705C1.69585 10.7264 0.435858 9.52063 0.350156 9.52063C0.296261 9.52063 0.130676 10.3961 0.0518106 11.098C-0.0193154 11.7316 -0.0169992 12.6638 0.05746 13.3395C0.136721 14.0589 0.353828 15.0549 0.569353 15.6876C0.805498 16.3808 1.38857 17.5815 1.78002 18.1807C2.21469 18.8461 2.50913 19.2214 3.03204 19.7769C4.40044 21.2304 6.28311 22.3517 8.24532 22.8821C9.07533 23.1065 9.98059 23.1744 11.5916 23.1331C12.9248 23.099 13.3089 23.0525 14.126 22.8262L14.4986 22.723L21.4985 29.6788C40.1986 48.2609 39.9097 47.9756 40.9272 48.865C41.4967 49.3629 42.0625 49.6668 42.7915 49.8666C43.1629 49.9683 43.3995 49.991 44.1191 49.9939C45.1218 49.9979 45.4868 49.926 46.2474 49.5744C47.0861 49.1866 47.7171 48.6841 48.2519 47.9778C48.668 47.4285 48.9898 46.7808 49.1519 46.1666C49.3221 45.5215 49.3595 44.4977 49.2352 43.8813C49.0983 43.202 48.9099 42.6961 48.5991 42.1732C48.3667 41.7824 47.9844 41.3705 45.9269 39.2944C43.2097 36.5527 37.951 31.3098 28.3299 21.7503L21.7295 15.1922L21.8547 14.7162C21.9309 14.4265 22.0032 13.9061 22.0391 13.3873C22.1118 12.3412 22.0626 10.6352 21.9428 10.0436C21.8058 9.36678 21.3786 8.15529 21.0136 7.40806C20.4089 6.17038 19.9079 5.44422 19.0364 4.54213C18.7408 4.23623 18.3184 3.83833 18.0976 3.65789C17.1282 2.86565 15.9411 2.21104 14.6919 1.77968C13.9547 1.52516 12.883 1.27734 12.2564 1.2165C11.7963 1.17183 10.6835 1.14101 10.3921 1.16495ZM13.8416 35.7404L9.35362 40.2169L9.13827 40.0229C9.0198 39.9162 8.87585 39.8289 8.81828 39.8289C8.76077 39.8289 8.14431 40.2841 7.44847 40.8405L6.18328 41.852L5.58168 42.7981C5.25079 43.3185 4.26158 44.8723 3.38332 46.2511C2.50512 47.6299 1.77516 48.8146 1.76115 48.8836C1.74172 48.9799 1.82618 49.1027 2.1213 49.4076C2.33332 49.6265 2.58941 49.8567 2.69031 49.9189C2.84414 50.0137 2.89476 50.0209 3.00323 49.9638C3.17526 49.8731 5.96234 48.135 7.82161 46.9588C8.34983 46.6247 9.0368 46.1909 9.34825 45.9947C9.76597 45.7316 9.98975 45.5449 10.2017 45.2827C10.3596 45.0872 10.823 44.5145 11.2314 44.0101C11.6398 43.5056 11.9739 43.043 11.9739 42.9821C11.9739 42.9212 11.8804 42.7681 11.7661 42.6419L11.5583 42.4125L16.101 37.8823L20.6439 33.352L20.3059 33.0092C19.8208 32.5171 18.4734 31.2969 18.3954 31.2791C18.3592 31.2708 16.3099 33.2784 13.8416 35.7404ZM45.4864 43.9024C45.8941 44.1015 46.2786 44.5226 46.4372 44.944C46.5328 45.1981 46.5541 45.3597 46.5391 45.7173C46.5233 46.0913 46.488 46.2343 46.3341 46.5459C46.1158 46.9878 45.8214 47.265 45.3157 47.5046C45.0426 47.634 44.8769 47.6743 44.6096 47.6764C44.1673 47.6799 43.7728 47.5483 43.4129 47.2775C43.066 47.0164 42.7919 46.6202 42.6707 46.2047C42.5499 45.7903 42.5958 45.225 42.7833 44.8165C42.9657 44.4192 43.3228 44.0391 43.6859 43.8557C43.9554 43.7197 44.0236 43.7097 44.571 43.7267C45.0835 43.7427 45.208 43.7666 45.4864 43.9024Z" fill="white"/>
</svg>
