<svg width="75" height="70" viewBox="0 0 75 70" fill="none" xmlns="http://www.w3.org/2000/svg">
<g clip-path="url(#clip0_5437_1352)">
<path d="M1.76951 0.181602C1.51755 0.304649 1.2363 0.527306 0.855445 0.914024C0.175758 1.59957 -0.0234609 1.88082 0.0292734 2.0566C0.099586 2.2734 0.62107 2.72457 2.08005 3.82613C3.5742 4.95113 4.1074 5.4316 4.21287 5.75387C4.24802 5.8652 4.30076 6.19918 4.33005 6.49801C4.38865 7.14254 4.4238 7.18941 5.27341 7.78121C6.0117 8.29684 7.01951 9.05856 7.88084 9.75582C8.84763 10.541 9.56248 10.998 10.0195 11.1386C10.3359 11.2324 10.5469 11.25 11.25 11.2382C12.0937 11.2207 12.0996 11.2207 12.3867 11.3906C12.539 11.4785 13.1191 11.9179 13.6758 12.3574C15.1406 13.5293 15.8379 14.0683 17.0215 14.9414C18.4863 16.0254 19.5117 16.8515 22.7812 19.5644C23.7539 20.3671 24.0762 20.6718 24.0469 20.7363C23.8769 21.1464 23.373 22.7343 23.3027 23.08C23.1972 23.5722 23.0859 23.7539 22.4765 24.4218C22.2304 24.6855 22.0195 24.9609 22.0019 25.0371C21.9551 25.2246 22.0488 25.4472 22.3476 25.8339C22.4883 26.0156 22.6172 26.2089 22.6347 26.2675C22.6875 26.414 22.3594 26.7656 22.1015 26.8359C21.6035 26.9707 20.7422 27.6093 20.3965 28.0957C20.2031 28.3593 20.1855 28.4238 20.1855 28.7695C20.1855 29.1152 20.209 29.1972 20.4082 29.5136C20.5254 29.7129 20.6426 29.9472 20.6601 30.0468C20.707 30.2929 20.4961 30.4453 20.0215 30.498C19.3652 30.5742 18.709 31.0312 18.4219 31.6171C18.2051 32.0566 18.2402 32.3964 18.539 32.8125C19.0488 33.5214 18.9316 33.7324 17.9121 33.9257C17.1445 34.0781 16.3652 34.6464 16.0019 35.332C15.7617 35.7773 15.7676 35.9824 16.0312 36.416C16.1484 36.6093 16.2656 36.8261 16.2949 36.8906C16.3476 37.0429 16.289 37.1074 15.8496 37.3535C15.4863 37.5586 14.5664 38.4433 14.3789 38.7656C14.25 38.9882 14.2441 39.0293 14.3027 39.3515C14.4492 40.1718 14.6484 40.6113 15.1406 41.2031C15.7148 41.8945 16.8691 42.791 17.7597 43.2421C18.2695 43.5 19.2304 43.8164 20.0039 43.9804C20.8652 44.1621 22.2949 44.2324 22.9687 44.1269C23.666 44.0156 23.8418 43.9043 24.8496 42.8964C26.6367 41.1093 26.9472 40.5 28.0957 36.5918C28.9629 33.6445 29.332 32.9179 30.1465 32.5136C30.6738 32.2558 30.9609 32.2324 31.3769 32.4257C32.2851 32.8418 33.2929 33.58 34.0605 34.3945C34.6758 35.0507 34.9922 35.5019 35.5957 36.6093L36.0644 37.4707L37.0605 37.7988C38.0742 38.1328 38.6719 38.3847 38.789 38.5312C38.8418 38.5898 38.8125 38.6894 38.666 38.9648C38.3613 39.5449 33.3047 46.2304 31.9101 47.9004C31.6933 48.1582 31.4238 48.5156 31.3008 48.6914C30.9199 49.2539 30.082 50.3496 29.6953 50.7714C29.1445 51.3867 28.8222 51.7793 28.5058 52.2363C28.0898 52.8222 26.0508 55.3593 25.1601 56.3906C23.5137 58.3007 23.1504 58.7871 22.7461 59.6308C22.4531 60.2461 22.459 60.4921 22.7812 61.1308C23.1035 61.7636 23.4668 62.1679 24.0469 62.5429C24.3105 62.7128 24.7851 63.0586 25.1074 63.3105C26.1211 64.1132 26.6777 64.5234 26.8301 64.5878C27.0469 64.6816 27.832 65.2265 28.4472 65.7128C29.7187 66.7265 30.2812 66.9961 30.4101 66.6562C30.4394 66.58 30.6914 66.2695 30.9785 65.9648C31.2597 65.6601 31.7285 65.0976 32.0215 64.7168C32.6777 63.8378 33.7734 62.4668 34.5117 61.582C35.0742 60.9082 35.707 60.0878 36.334 59.2031C36.5215 58.9511 36.8906 58.5 37.1601 58.2128C37.664 57.6679 39.9551 55.0664 40.3066 54.6445C40.4121 54.5097 40.7812 54.041 41.1211 53.5898C41.4609 53.1445 41.8652 52.6464 42.0176 52.4765L42.2929 52.1777L42.5742 52.2539C43.4765 52.4882 44.9648 53.4082 46.7637 54.8496C47.291 55.2656 47.9472 55.7636 48.2226 55.9453C48.9668 56.4433 49.2773 56.748 49.2773 56.9882C49.2773 57.2636 48.8554 58.0429 48.3164 58.7695C47.7246 59.5605 47.5019 60.0351 47.2558 61.0253C46.9922 62.0859 46.9277 62.7128 46.998 63.4394C47.0801 64.2714 47.332 65.6074 47.4609 65.9062C47.8125 66.6914 50.332 68.4492 51.8554 68.9648C52.5527 69.205 54.4453 69.1816 55.459 68.9296C57.0176 68.5371 57.9492 67.7226 58.6172 66.1699C59.0976 65.0507 59.4961 63.6093 59.7656 62.0214C60.0879 60.1289 60.5859 58.1777 60.9258 57.5097C61.582 56.2031 62.5664 55.623 64.0488 55.6757C64.7578 55.6992 64.834 55.7343 65.543 56.3671C65.7656 56.5664 66.1582 56.8652 66.416 57.0351C68.7012 58.541 69.457 59.0214 69.6094 59.08C69.8203 59.1562 69.8848 59.1035 70.5117 58.3593C71.1269 57.6211 73.0312 55.6406 73.5351 55.207C73.7754 55.0019 74.0918 54.7734 74.2383 54.6972C74.6015 54.5039 75 53.9003 75 53.5312C75 53.455 74.9473 53.2265 74.8769 53.0214C74.8066 52.8164 74.748 52.4941 74.7422 52.3125C74.7305 51.9961 74.707 51.955 74.4082 51.6152C73.5703 50.6718 72.5566 49.8164 71.8476 49.4589C71.4023 49.2304 70.4062 48.4921 68.4902 46.9511C66.2285 45.1347 65.6719 44.7011 65.291 44.4726C64.9687 44.2734 64.9336 44.2675 64.3652 44.2675C63.8613 44.2617 63.7383 44.2441 63.4922 44.1211C63.2461 43.998 62.1621 43.1543 60.0058 41.4023C59.7363 41.1796 59.0097 40.6699 58.3945 40.2656C57.7793 39.8554 56.1679 38.6953 54.8144 37.6757C53.4609 36.6562 51.8906 35.4961 51.3281 35.0976C50.3613 34.4179 49.9453 34.0898 47.6953 32.2851C47.1972 31.8808 46.3183 31.2129 45.7441 30.7968C45.1758 30.3808 44.3437 29.748 43.8984 29.3964C42.8847 28.5879 42.2168 28.1425 41.4609 27.7793C40.7578 27.4394 39.9961 26.8945 39.5508 26.4082C38.8652 25.664 38.7422 25.5527 38.5137 25.5117C38.2207 25.4589 37.9804 25.2714 37.5937 24.7968C37.2187 24.3339 36.9785 24.1816 36.3926 24.0527C36.0644 23.9765 35.9297 23.9121 35.8125 23.7773C35.7246 23.6836 35.4961 23.5136 35.3027 23.3964C34.8222 23.1093 34.582 22.8691 34.5117 22.6054C34.4238 22.2949 34.0664 22.0136 33.4277 21.7675C32.959 21.5859 32.8476 21.5156 32.5429 21.1933C32.2676 20.9004 32.0683 20.7597 31.582 20.5136C31.2422 20.3437 30.873 20.1152 30.7617 20.0097C30.6504 19.9043 30.3222 19.6992 30.0293 19.5527C29.7422 19.4062 29.3379 19.1718 29.1445 19.0254C28.5644 18.5976 28.4648 18.5625 27.6914 18.5097C27.2988 18.4804 26.8652 18.4453 26.7187 18.4277C26.291 18.3691 25.6816 17.9355 22.957 15.75C21.1758 14.3261 19.7051 13.1836 17.4902 11.5136C15.4746 9.99606 14.7422 9.3984 14.1269 8.79488C13.5586 8.2441 13.3535 7.93356 13.2949 7.54684C13.2656 7.37691 13.166 7.11324 13.0605 6.94918C12.791 6.51559 12.7793 6.33981 13.0019 5.90035C13.1015 5.70113 13.3945 5.2441 13.6582 4.89254C14.4551 3.81441 14.5781 3.43356 14.25 3.10543C13.9863 2.84176 13.6758 2.78316 12.6562 2.78902C11.5898 2.79488 11.0039 2.90035 9.80857 3.31051C9.3867 3.45699 8.94138 3.57418 8.81834 3.57418C8.69529 3.57418 8.42576 3.50387 8.22068 3.42184C8.00974 3.33981 7.63474 3.2402 7.38279 3.19332C7.13084 3.14645 6.80857 3.0527 6.66795 2.98238C5.90623 2.59566 5.06248 1.85738 4.83396 1.37106C4.63474 0.95504 4.49412 0.86129 4.11326 0.914024C3.74412 0.960899 3.49802 0.849571 3.20505 0.503868C2.97068 0.216759 2.5781 -3.8147e-05 2.30271 -3.8147e-05C2.20896 -3.8147e-05 1.96287 0.0819931 1.76951 0.181602ZM2.49021 0.820274C2.58396 0.919884 2.58396 0.95504 2.51365 1.12496C2.47263 1.23043 2.32029 1.45309 2.18552 1.62301C2.0449 1.79293 1.93357 1.95113 1.93357 1.97457C1.93357 2.00387 2.03318 2.0859 2.15037 2.16793C2.67771 2.52535 2.94724 2.76559 2.86521 2.81832C2.7656 2.87691 2.51951 2.82418 2.4199 2.71871C2.37888 2.6777 2.16795 2.63082 1.95115 2.60738C1.72849 2.58395 1.46482 2.54293 1.35935 2.50777C1.14841 2.44332 0.878883 2.13277 0.878883 1.94527C0.878883 1.74606 1.35935 1.10152 1.66404 0.890587C1.99802 0.667931 2.32615 0.638634 2.49021 0.820274ZM3.35154 1.33004C3.48045 1.44723 3.4863 1.57027 3.3574 1.7109C3.25193 1.82809 2.98826 1.85152 2.88279 1.74606C2.80662 1.66988 2.78904 1.47066 2.84763 1.32418C2.89451 1.20113 3.21091 1.20113 3.35154 1.33004ZM4.50584 2.14449C4.62302 2.29098 4.62302 2.30856 4.53513 2.41402C4.35349 2.60738 3.93162 2.50191 4.01365 2.27926C4.15427 1.8691 4.15427 1.8691 4.27146 1.93356C4.33591 1.96285 4.44138 2.06246 4.50584 2.14449ZM5.99412 3.26949C6.08201 3.35738 6.15232 3.46871 6.15232 3.50387C6.15232 3.62106 5.78904 3.80856 5.55466 3.80856C5.18552 3.80856 5.14451 3.49801 5.48435 3.22848C5.69529 3.06441 5.80662 3.07027 5.99412 3.26949ZM13.6172 3.4277C13.7636 3.57418 13.6406 3.77926 13.0136 4.42379C12.5683 4.88082 12.4277 5.06832 12.3867 5.2441C12.3398 5.43746 12.3047 5.47848 12.1875 5.47848C12.0703 5.47848 12.0351 5.44332 12.0234 5.32027C12.0117 5.20895 12.0703 5.09176 12.2695 4.8691C12.4101 4.7109 12.6386 4.38277 12.7793 4.1484C13.0371 3.69137 13.3359 3.33981 13.4531 3.33981C13.4941 3.33981 13.5644 3.38082 13.6172 3.4277ZM8.14451 4.18356C8.63084 4.49996 9.13474 4.95113 9.20506 5.14449C9.23435 5.21481 9.30466 5.29098 9.3574 5.30856C9.41599 5.32613 9.58006 5.39645 9.72068 5.46676C10.0136 5.60738 10.3125 6.01754 10.3125 6.26949C10.3125 6.49801 10.3652 6.51559 10.5761 6.35738C10.8164 6.16988 10.9277 6.17574 11.0566 6.36324C11.3672 6.81441 11.5664 6.97848 11.8652 7.01949C12.1054 7.05465 12.164 7.08395 12.1758 7.18941C12.1992 7.34762 11.9531 7.48824 11.4551 7.59371C10.9336 7.70504 10.7988 7.76949 10.6992 7.95699C10.6523 8.05074 10.5644 8.14449 10.5117 8.16793C10.3945 8.21481 10.1367 8.0566 10.1367 7.93941C10.1367 7.81051 9.96677 7.67574 9.80857 7.67574C9.70896 7.67574 9.58591 7.59371 9.44529 7.43551C9.3281 7.30074 8.92381 6.96676 8.55466 6.69137C7.87498 6.1816 7.39451 5.73629 7.04295 5.28512C6.86716 5.06246 6.82029 5.03902 6.59763 5.03902C6.1406 5.03902 6.08787 4.81051 6.45701 4.44723C6.59763 4.31246 6.83787 4.12496 7.00193 4.03121C7.38865 3.80856 7.59959 3.83199 8.14451 4.18356ZM5.54295 6.39254C5.6367 6.49215 5.83005 6.63863 5.97654 6.72652C6.35154 6.93746 6.56248 7.1484 6.56248 7.3066C6.56248 7.51168 6.41599 7.52926 6.12302 7.35348C5.5781 7.03707 5.27341 6.67965 5.27341 6.35738C5.27341 6.16402 5.33201 6.16988 5.54295 6.39254ZM7.57615 8.08004C7.95115 8.49606 7.78709 8.6484 7.33006 8.32027C7.06638 8.12691 6.93748 7.91598 6.99607 7.76363C7.02537 7.6816 7.04881 7.6816 7.19529 7.75777C7.28904 7.80465 7.45896 7.95113 7.57615 8.08004ZM8.64841 8.61324C8.94724 8.8652 9.43357 9.04684 9.70896 9.01168C9.84373 8.99996 9.86716 8.96481 9.87302 8.81832C9.87302 8.68356 9.90232 8.63668 10.0019 8.62496C10.2011 8.59566 10.2773 8.91207 10.1719 9.31637C10.0722 9.70309 10.1074 9.81441 10.4238 10.0664C10.6992 10.289 10.7109 10.3418 10.5351 10.5293C10.3769 10.6992 10.3242 10.6992 10.3008 10.5351C10.289 10.4296 10.2304 10.3945 10.0664 10.3652C9.72654 10.3125 9.28123 9.91988 9.17576 9.58004C9.15818 9.50973 8.98826 9.3691 8.80662 9.25777C8.33201 8.97066 8.08591 8.74215 8.08591 8.58981C8.08591 8.29684 8.27927 8.30856 8.64841 8.61324ZM12.539 8.59566C12.539 8.70699 12.2636 8.68941 12.2226 8.57809C12.2051 8.52535 12.1992 8.4609 12.2168 8.4316C12.2636 8.36129 12.539 8.49606 12.539 8.59566ZM13.7519 9.47457C14.3027 9.87887 14.8476 10.4004 14.8008 10.4765C14.7363 10.582 14.4961 10.4355 13.9922 9.99606C13.7578 9.79098 13.4824 9.58004 13.3769 9.52731C13.1601 9.41598 13.1015 9.34566 13.1484 9.22848C13.1894 9.11129 13.3418 9.17574 13.7519 9.47457ZM15.7031 10.9277C15.7617 10.998 15.7617 11.0332 15.7031 11.1035C15.5566 11.2793 15.3457 11.1445 15.4336 10.9277C15.4511 10.8808 15.5039 10.8398 15.5449 10.8398C15.5918 10.8398 15.6621 10.8808 15.7031 10.9277ZM14.1679 11.4961C14.2851 11.6132 14.25 11.6718 14.0801 11.6484C13.8926 11.625 13.8105 11.4257 13.9863 11.4257C14.0508 11.4257 14.1269 11.455 14.1679 11.4961ZM16.6699 11.6894C16.6699 11.8711 16.3828 11.8535 16.3594 11.6718C16.3418 11.5546 16.3594 11.5371 16.5058 11.5546C16.623 11.5664 16.6699 11.6015 16.6699 11.6894ZM15.041 12.082C15.3281 12.2754 15.4687 12.4804 15.3222 12.4804C15.1933 12.4804 14.5898 12.0175 14.5898 11.9179C14.5898 11.8183 14.7246 11.8652 15.041 12.082ZM17.8008 12.539C17.8066 12.6211 17.789 12.7265 17.7539 12.7734C17.7012 12.8496 17.6836 12.8437 17.6074 12.75C17.5605 12.6855 17.5195 12.5683 17.5195 12.4921C17.5195 12.2929 17.7773 12.3339 17.8008 12.539ZM16.2304 12.8613C16.3594 12.9961 16.3594 13.0195 16.2773 13.1015C16.1601 13.2187 15.9668 13.166 15.8437 12.9785C15.6621 12.6972 15.9902 12.6035 16.2304 12.8613ZM18.9668 13.4531C19.1894 13.664 19.1953 13.7871 18.9902 13.8164C18.7558 13.8515 18.3457 13.3711 18.4922 13.2304C18.5566 13.166 18.7617 13.2597 18.9668 13.4531ZM17.0097 13.4824C17.2148 13.5879 17.4609 13.8398 17.4609 13.9511C17.4609 14.0918 17.3086 14.1972 17.1738 14.1504C17.0273 14.1035 16.6992 13.7168 16.6992 13.5879C16.6992 13.4121 16.7988 13.3769 17.0097 13.4824ZM19.7871 14.2089C20.0625 14.4726 20.1035 14.5429 20.0449 14.6132C19.9336 14.748 19.7402 14.6425 19.5293 14.332C19.3359 14.0449 19.289 13.8867 19.3945 13.8867C19.4297 13.8867 19.6054 14.0332 19.7871 14.2089ZM21.0351 15.1054C21.1758 15.2168 21.1523 15.3515 21 15.3515C20.8887 15.3515 20.6719 15.1289 20.7129 15.0586C20.7656 14.9707 20.8887 14.9882 21.0351 15.1054ZM21.7265 15.6855C21.75 15.8554 21.5918 15.8671 21.5039 15.7089C21.416 15.5449 21.4277 15.5156 21.5801 15.539C21.6621 15.5507 21.7148 15.6035 21.7265 15.6855ZM21.7558 17.3789C22.0547 17.5957 22.3828 17.8066 22.4883 17.8593C22.6172 17.9238 22.6758 17.9941 22.6758 18.0879C22.6758 18.2929 22.541 18.2519 22.166 17.9472C21.9785 17.7949 21.6562 17.5781 21.4453 17.4609C21.1758 17.3144 21.0586 17.2148 21.0469 17.1211C21.0117 16.9043 21.1816 16.9629 21.7558 17.3789ZM23.4258 18.5097C23.8711 18.7382 24.0527 19.1074 23.7422 19.1484C23.666 19.1601 23.5488 19.1191 23.4844 19.0605C23.2969 18.8964 23.0683 18.3984 23.1738 18.3984C23.1914 18.3984 23.3027 18.4511 23.4258 18.5097ZM28.2187 19.1953C28.3125 19.33 28.3125 19.3593 28.2246 19.5351C28.1367 19.7226 28.0781 19.7578 27.5742 19.9218C27.4453 19.9629 27.1523 20.1152 26.9179 20.2558C26.6777 20.3964 26.3906 20.5312 26.2734 20.5488C26.1211 20.5722 26.0449 20.625 25.998 20.7363C25.8867 21 25.7754 21.0937 25.5703 21.0937C25.4062 21.0937 25.3652 21.1171 25.3359 21.2519C25.2656 21.539 24.9609 21.7675 24.9609 21.539C24.9609 21.375 25.5058 20.3847 25.6758 20.2441C25.7637 20.1679 25.875 20.0039 25.916 19.8808C26.0449 19.4765 26.9648 19.0546 27.7265 19.0488C28.0898 19.0429 28.1308 19.0546 28.2187 19.1953ZM24.539 19.5351C24.5156 19.7168 24.3281 19.7226 24.2519 19.5468C24.1992 19.4296 24.1992 19.3769 24.2578 19.3066C24.3281 19.2246 24.3457 19.2246 24.4453 19.3183C24.5039 19.3711 24.5508 19.4707 24.539 19.5351ZM29.6953 20.25C29.8535 20.3613 29.8594 20.4843 29.707 20.707C29.4609 21.0937 28.8691 21.2812 28.6933 21.0351C28.5879 20.8828 28.5351 20.9414 28.5351 21.2168C28.5351 21.3398 28.4883 21.4921 28.4238 21.5683C28.3183 21.7031 28.3066 21.7031 28.2012 21.6035C28.1367 21.5507 28.0488 21.5039 27.9961 21.5039C27.8847 21.5039 27.4219 21.832 26.7539 22.3711C26.4668 22.6054 26.1972 22.7929 26.1445 22.7812C25.8808 22.7285 26.0508 22.5058 27.2344 21.375C28.2187 20.4316 28.6699 20.1562 29.2324 20.1562C29.4375 20.1562 29.6133 20.1914 29.6953 20.25ZM31.2656 21.2109C31.6172 21.3457 31.6933 21.7089 31.4121 21.9082C31.3183 21.9726 30.9316 22.1718 30.5508 22.3418C29.3437 22.8808 28.5058 23.4316 28.3652 23.7773C28.2715 23.9941 28.1601 24.0468 28.0371 23.9296C27.8437 23.7363 27.9726 23.4082 28.2715 23.332C28.3945 23.2968 28.4765 23.2207 28.5469 23.0742C28.6758 22.7988 29.2558 22.289 29.5488 22.1894C29.7304 22.1308 29.7949 22.0722 29.8476 21.914C29.9238 21.6796 30.3457 21.3691 30.7558 21.2461C31.0957 21.1406 31.0722 21.1406 31.2656 21.2109ZM24.6679 22.166C24.6679 22.207 24.6269 22.3007 24.5742 22.3769C24.4336 22.5703 24.3222 22.4414 24.457 22.2421C24.5625 22.0781 24.6679 22.0429 24.6679 22.166ZM33.5156 22.3769C33.5976 22.4355 33.6972 22.5468 33.7441 22.6289C33.8203 22.7636 33.8203 22.7988 33.7324 22.9277C33.6152 23.1093 33.0469 23.3847 32.5195 23.5254C31.664 23.7539 30.5215 24.457 30.2929 24.9023C30.2109 25.0546 30.1347 25.1367 30.0586 25.1367C29.7656 25.1367 29.7597 24.4804 30.0469 24.3632C30.334 24.2519 30.375 24.2168 30.4101 24.0761C30.4336 23.9824 30.5332 23.8945 30.709 23.8066C30.8554 23.7363 31.2304 23.4492 31.5351 23.1621C32.4726 22.2949 33.0703 22.0546 33.5156 22.3769ZM34.7578 23.9707C34.916 24.0117 34.9922 24.0703 35.0156 24.1699C35.0625 24.3691 35.0097 24.4921 34.8633 24.4921C34.6933 24.4921 34.3652 24.6738 33.9609 24.9843C33.5273 25.3242 33.3574 25.3769 33.2168 25.207C33.0937 25.0488 33.0469 25.0429 33.0469 25.1894C33.0469 25.3418 32.8008 25.6933 32.3789 26.1328C31.9277 26.5957 31.7519 26.8476 31.7051 27.0937C31.6758 27.2402 31.6347 27.2754 31.5234 27.2754C31.1133 27.2754 31.5 26.25 32.1035 25.7226C32.332 25.5234 32.4609 25.3652 32.4844 25.248C32.5371 24.9785 33.0058 24.5156 33.3633 24.3867C33.5449 24.3164 33.6914 24.2168 33.7324 24.1347C33.8437 23.9179 34.3066 23.8418 34.7578 23.9707ZM23.3262 24.7558C23.4199 24.8086 23.6836 25.0136 23.9179 25.2129C24.832 26.0097 25.1836 26.2734 25.5234 26.4316C26.1387 26.7129 26.7012 27.4804 26.291 27.4804C26.1211 27.4804 25.664 27.164 24.8554 26.4961C24.5215 26.2148 24.0351 25.8339 23.7715 25.6464C23.1914 25.2304 22.9101 24.9726 22.9101 24.8437C22.9101 24.6445 23.0508 24.6152 23.3262 24.7558ZM36.7676 24.9257C36.9961 25.0781 37.0195 25.289 36.8262 25.4882C36.6211 25.705 36.123 25.916 35.9414 25.875C35.8652 25.8515 35.7656 25.7578 35.7129 25.664C35.6074 25.4589 35.5957 25.0546 35.7012 24.9726C35.9297 24.7793 36.5097 24.7558 36.7676 24.9257ZM35.4668 25.5879C35.7012 25.9336 35.7656 26.1386 35.6601 26.2382C35.4844 26.4199 35.1211 26.3086 35.0859 26.0625C35.0683 25.9218 34.8926 25.7929 34.8222 25.8632C34.7988 25.8867 34.7637 26.0859 34.7461 26.2968L34.7168 26.6894L34.4707 26.707C34.2539 26.7246 34.2129 26.748 34.1836 26.8828C34.125 27.1816 34.0488 27.3046 33.9258 27.3046C33.7207 27.3046 33.7734 26.9648 34.0488 26.5429C34.3535 26.0683 35.0332 25.3711 35.1972 25.3711C35.2676 25.3711 35.373 25.4531 35.4668 25.5879ZM38.4609 26.2851C38.5429 26.3671 38.5429 26.3906 38.4668 26.5429C38.3379 26.789 37.9394 27.1054 37.6523 27.1875C37.2187 27.3046 36.914 27.0703 36.914 26.6132C36.914 26.3671 37.084 26.3613 37.2832 26.6015C37.3652 26.6953 37.4472 26.7773 37.459 26.7773C37.4765 26.7773 37.5058 26.6777 37.5293 26.5546C37.5527 26.4375 37.5937 26.3027 37.6289 26.2617C37.7226 26.1562 38.3496 26.1679 38.4609 26.2851ZM36.7265 27.0527C36.7441 27.2343 36.6035 27.5976 36.5156 27.5976C36.4922 27.5918 36.4101 27.5566 36.3281 27.5097C36.0996 27.3808 36.0351 27.4043 36.0351 27.6152C36.0351 27.8554 35.9121 28.0429 35.7773 27.9902C35.6426 27.9375 35.6601 27.6504 35.8183 27.416C35.9707 27.1875 36.4804 26.8242 36.6152 26.8476C36.6738 26.8593 36.7148 26.9414 36.7265 27.0527ZM39.1699 27.539C39.1933 27.58 39.3047 27.5859 39.457 27.5683C39.6679 27.5332 39.7207 27.5507 39.8613 27.6914C40.0429 27.873 40.0722 28.1484 39.9199 28.3125C39.8496 28.3886 39.7383 28.4179 39.4922 28.4179C39.0762 28.4179 38.8242 28.5058 38.7012 28.6875C38.6543 28.7636 38.5722 28.8281 38.5195 28.8281C38.3847 28.8281 38.0156 29.1035 37.2715 29.7597C36.6094 30.3515 36.3867 30.4687 36.3867 30.2285C36.3867 30.0351 36.4863 29.9004 36.6855 29.83L36.873 29.7656L36.832 29.3261C36.791 28.8515 36.8027 28.8281 37.0781 28.9687C37.166 29.0097 37.2949 29.0683 37.3711 29.0859C37.4941 29.1269 37.5 29.1152 37.5 28.7461C37.5 28.3886 37.582 28.1836 37.7285 28.1836C37.8047 28.1836 37.9101 28.3242 37.9101 28.4296C37.9101 28.5703 38.0801 28.6347 38.1504 28.5293C38.1797 28.4824 38.1914 28.3886 38.1738 28.3125C38.1035 28.0136 39.0234 27.2988 39.1699 27.539ZM27.1875 27.6914C27.3164 27.8027 27.3633 27.8906 27.3515 27.9961C27.3281 28.1953 27.2461 28.2129 27.0117 28.0546C26.7246 27.8554 26.6601 27.7265 26.8008 27.6211C26.9531 27.5097 26.9707 27.5156 27.1875 27.6914ZM22.2656 27.8144C22.2656 27.8671 22.166 28.0429 22.0371 28.207C21.914 28.3711 21.7851 28.6113 21.7558 28.7402C21.6972 29.0156 21.539 29.0742 21.3398 28.8867C21.1465 28.705 21.1699 28.4121 21.3984 28.1484C21.6972 27.8144 22.2656 27.5918 22.2656 27.8144ZM35.4375 28.0546C35.4668 28.2304 35.3496 28.4179 35.2148 28.4179C35.0683 28.4179 35.0566 28.207 35.1914 28.0195C35.3027 27.8613 35.414 27.8789 35.4375 28.0546ZM27.9902 28.2421C28.0957 28.3007 28.248 28.4589 28.3301 28.5937C28.4355 28.7578 28.582 28.8808 28.8457 29.0097C29.8652 29.5195 30.4629 29.9531 30.3457 30.0937C30.2695 30.1875 30.1933 30.1582 29.6191 29.8066C28.6406 29.2031 27.5976 28.3476 27.5976 28.1601C27.5976 28.0839 27.8086 28.1308 27.9902 28.2421ZM41.9062 28.6054C42.2051 28.9804 42.4219 29.1796 42.539 29.1796C42.6387 29.1796 43.0078 29.5429 43.0078 29.6425C43.0078 29.7656 43.3066 30 43.459 30C43.7109 30 43.8867 30.1523 43.8867 30.3632C43.8867 30.5097 43.8222 30.6093 43.582 30.832C43.4121 30.9902 43.248 31.1074 43.2129 31.0957C43.1836 31.0839 43.0722 30.9375 42.9726 30.7675C42.873 30.5976 42.709 30.3691 42.6211 30.2519C42.4512 30.0468 42.4453 30.0468 41.9472 30.0293C41.3496 30.0117 41.1094 29.9179 41.0859 29.6894C41.0625 29.4843 40.9394 29.4843 40.6699 29.6894C40.3535 29.9179 39.9609 30.3105 39.9609 30.3867C39.9609 30.4218 39.75 30.6914 39.4863 30.9726C38.8945 31.6289 38.1445 32.6132 37.916 33.0468C37.6816 33.4804 37.6816 33.6914 37.9101 33.9257C38.0976 34.1191 38.1328 34.2597 38.0039 34.3125C37.8105 34.3886 37.3125 33.8379 37.2012 33.4277C37.125 33.1523 37.2129 33.0058 37.5293 32.8711C37.8047 32.7539 37.9101 32.6132 37.9101 32.373C37.9101 32.1738 38.0097 31.9921 38.1152 31.9921C38.1621 31.9921 38.25 31.8808 38.3086 31.7402C38.4199 31.4941 39.5215 30.2754 40.8457 28.9336C41.5137 28.2597 41.6074 28.2304 41.9062 28.6054ZM23.9883 30.4804C24.0703 30.6152 23.9707 30.791 23.8125 30.791C23.6953 30.791 23.6308 30.5976 23.6953 30.4336C23.7363 30.3222 23.9004 30.3515 23.9883 30.4804ZM31.4414 30.7382C31.541 30.8613 31.6699 30.9609 31.7754 30.9785C32.0976 31.0429 32.6426 31.7343 32.5547 31.9687C32.4902 32.1445 32.3379 32.1269 32.1211 31.9218C31.8457 31.6582 31.5 31.4414 31.166 31.33C30.9258 31.248 30.8965 31.248 30.7324 31.3476C30.6387 31.4062 30.3984 31.4941 30.2051 31.5527C29.4902 31.7578 28.8164 32.2265 28.7226 32.6015C28.6758 32.7773 28.664 32.7832 28.3711 32.7714L28.0664 32.7597L28.084 33.2402C28.0957 33.6504 28.0781 33.7441 27.9726 33.8964C27.7265 34.248 27.6621 34.4414 27.5683 35.1796C27.4512 36.0937 27.334 36.5566 27.1875 36.6914C27.123 36.75 27.041 36.9785 26.9824 37.248C26.7949 38.1679 26.584 38.8418 26.3086 39.4218C25.9453 40.1836 25.6406 40.6289 25.0312 41.2734C24.7558 41.5664 24.4863 41.9179 24.4219 42.0468C24.334 42.2461 24.2812 42.2988 24.1172 42.3281C23.9824 42.3515 23.8652 42.4336 23.7656 42.5683C23.584 42.8027 22.7637 43.2363 22.4062 43.2832C21.9433 43.3418 21.9316 42.9843 22.3887 42.5742C22.5117 42.4629 22.7109 42.3398 22.834 42.3105C23.1504 42.2226 23.7656 41.7363 24.5859 40.9277C25.3711 40.1543 25.5469 39.8847 25.5469 39.4453C25.5469 39.2226 25.5762 39.123 25.6875 39.0058C25.834 38.8476 25.8574 38.7714 25.9512 38.1562C26.0156 37.7636 26.0918 37.6171 26.2324 37.6171C26.3086 37.6171 26.3144 37.5586 26.2851 37.3066C26.1738 36.4218 26.1797 36.1875 26.2969 35.83C26.3613 35.6367 26.4316 35.3027 26.4551 35.0859C26.4785 34.8046 26.5371 34.6347 26.6367 34.5C26.9238 34.1015 27.0117 33.9492 27.0117 33.8379C27.0117 33.4277 28.0605 32.2031 29.0566 31.4531L29.6777 30.9902L30 31.0195C30.3926 31.0605 30.7207 30.955 30.75 30.791C30.7851 30.6035 30.8789 30.5273 31.0898 30.5273C31.2422 30.5273 31.3183 30.5683 31.4414 30.7382ZM26.0683 31.0136C26.4492 31.207 26.4785 31.289 26.2793 31.5761C26.0625 31.8984 25.9219 31.9218 25.5176 31.7285L25.1894 31.5644L25.0195 31.6933C24.6445 31.9687 23.7187 31.7695 23.5957 31.3886C23.5547 31.2539 23.5605 31.1953 23.6367 31.125C23.7187 31.0429 23.8418 31.0254 24.3574 31.0429C24.8203 31.0488 25.0019 31.0371 25.0722 30.9726C25.125 30.9316 25.207 30.8789 25.2539 30.8613C25.4004 30.8027 25.7988 30.873 26.0683 31.0136ZM45.0586 31.0254C45.1933 31.1836 45.1406 31.4062 44.9238 31.6289C44.8066 31.7461 44.666 31.9746 44.6074 32.1386C44.4082 32.6718 44.1211 32.5312 44.1211 31.8984C44.1211 31.5879 44.1445 31.5058 44.2734 31.3476C44.4199 31.1718 44.7832 30.9433 44.9179 30.9375C44.9531 30.9375 45.0176 30.9785 45.0586 31.0254ZM27.3808 31.4062C27.4277 31.5937 27.2929 31.7871 27.1054 31.7871C26.7773 31.7871 26.7539 31.4707 27.0703 31.3066C27.2344 31.2246 27.3398 31.2597 27.3808 31.4062ZM20.0976 31.4355C20.0976 31.541 19.8398 32.0625 19.6758 32.2968C19.5527 32.4785 19.3887 32.5078 19.2773 32.373C19.1015 32.1621 19.2773 31.7402 19.6523 31.4765C19.8633 31.3242 20.0976 31.3066 20.0976 31.4355ZM23.3613 31.9453C23.3379 32.1211 23.3554 32.2031 23.4433 32.291C23.6367 32.4843 23.8418 32.4961 24.334 32.3203C25.084 32.0566 25.2832 32.1796 25.2597 32.8886C25.248 33.2695 25.2539 33.2812 25.4121 33.3398C25.8633 33.5039 25.9746 33.6562 25.8164 33.8964C25.6758 34.1074 25.3887 34.1367 25.0195 33.9785L24.709 33.8437L24.5976 33.9843C24.4687 34.1425 24.5039 34.3125 24.7031 34.4941C24.8906 34.6699 24.9902 34.664 25.2715 34.4707C25.4472 34.3476 25.5176 34.33 25.5937 34.3769C25.7461 34.4707 25.7402 34.5996 25.582 34.7871C25.2597 35.1738 24.4922 35.4257 24.082 35.2851C23.9297 35.2324 23.8945 35.2324 23.8652 35.3144C23.8008 35.4726 23.9297 35.707 24.1465 35.8242C24.3515 35.9355 24.3515 35.9355 24.5332 35.8066C24.6621 35.707 24.7676 35.6777 24.9668 35.6953C25.1894 35.7129 25.2304 35.7363 25.2773 35.8769C25.3769 36.1523 25.2246 36.3339 24.7969 36.4804C24.3633 36.6328 24.123 36.7793 24.1582 36.873C24.1699 36.914 24.3164 37.0195 24.4863 37.1132C24.8496 37.3066 24.9023 37.4004 24.7441 37.5761C24.5039 37.8398 24.4746 37.9511 24.6152 38.1386C24.7558 38.3261 24.7265 38.5195 24.5508 38.6132C24.3984 38.6953 24.2637 38.625 24.2285 38.4609C24.2109 38.3847 24.1875 38.2558 24.1699 38.1738C24.1347 38.0039 23.8711 37.8515 23.625 37.8515C23.4258 37.8515 23.0859 37.9629 23.0859 38.0214C23.0859 38.0449 23.1914 38.1504 23.3262 38.2558C23.4902 38.3906 23.5547 38.4843 23.5429 38.5722C23.5019 38.8476 22.6933 38.9238 22.5586 38.666C22.4765 38.5195 22.582 38.3203 22.7344 38.3203C22.8926 38.3203 22.9219 38.2324 22.8047 38.1269C22.6758 38.0156 22.3008 37.9101 22.0195 37.9101C21.7441 37.9101 21.7383 37.9863 21.9726 38.4609C22.166 38.8535 22.1484 38.9414 21.8262 39.1406C21.7148 39.2109 21.6211 39.2695 21.6211 39.2754C21.6211 39.2812 21.7617 39.2871 21.9316 39.2871C22.1601 39.2871 22.2832 39.3222 22.4179 39.4218C22.5937 39.5566 22.6113 39.5566 22.7695 39.4629C22.8633 39.416 23.0273 39.3046 23.1387 39.2285C23.373 39.0586 23.5898 39.0468 23.9941 39.1933C24.7851 39.4687 23.9297 39.8437 22.2949 39.9316C21.9433 39.955 21.5742 39.9433 21.4746 39.914C21.3105 39.8671 21.2988 39.8437 21.2988 39.5859C21.2929 39.3281 21.2754 39.2871 20.9883 39.0234C20.8183 38.8711 20.6836 38.7246 20.6836 38.7011C20.6836 38.6836 20.7773 38.5781 20.8945 38.4726C21.1465 38.2441 21.1172 38.1445 20.7949 38.1445C20.3496 38.1445 20.1679 37.6933 20.4785 37.3418C20.6191 37.1836 20.6191 37.1836 20.625 37.3066C20.625 37.4707 20.6836 37.4765 20.9297 37.3242C21.1816 37.1718 21.2461 37.1777 21.5215 37.3652C21.6972 37.4882 21.7676 37.5058 21.8437 37.4589C22.0019 37.3652 21.9961 37.2246 21.8262 37.0546C21.6797 36.9082 21.6562 36.9023 21.082 36.9257C20.6367 36.9375 20.4844 36.9257 20.4668 36.8671C20.4258 36.7558 20.8535 36.3691 20.9883 36.4043C21.0527 36.4218 21.1347 36.3808 21.2109 36.2871C21.3515 36.1113 21.3574 35.9824 21.2402 35.8242C21.041 35.5605 21.1933 35.0566 21.5215 34.8984C21.7441 34.7929 21.8906 34.8339 22.0605 35.0683C22.2422 35.3027 22.248 35.5254 22.0781 35.6425C21.7617 35.8535 22.3125 36.1523 22.7929 36.0351C23.0801 35.9648 23.3203 35.83 23.3203 35.7421C23.3203 35.7129 23.1797 35.6484 23.0039 35.6015C22.6172 35.4902 22.5703 35.4316 22.5 35.0214C22.4472 34.6875 22.3711 34.5175 22.1191 34.166C21.8086 33.7382 22.0078 33.5566 22.7461 33.5859L23.2324 33.6035L23.25 33.3867C23.2617 33.2285 23.2324 33.1347 23.1387 33.041C22.9746 32.8769 22.916 32.5605 22.9746 32.1328C23.0215 31.7812 23.1387 31.6171 23.3027 31.6816C23.3672 31.7109 23.3847 31.7754 23.3613 31.9453ZM33.4336 32.1679C33.6152 32.3261 33.8086 32.4609 33.8613 32.4609C33.9844 32.4609 34.7402 32.8945 35.1562 33.1992C35.332 33.3281 35.666 33.5332 35.8945 33.6562C36.1933 33.8144 36.4687 34.0312 36.8847 34.4472C37.2012 34.7695 37.5 35.0976 37.5527 35.1855C37.6406 35.332 37.6406 35.3437 37.5293 35.4257C37.4179 35.5078 37.3945 35.4902 37.1191 35.1914C36.9609 35.0214 36.709 34.8222 36.5625 34.7519C36.416 34.6816 36.0234 34.3886 35.6836 34.0957C34.9219 33.4336 34.5703 33.1933 33.8789 32.8535C33.0703 32.455 32.7656 32.1855 32.8535 31.9453C32.9121 31.8046 33.1054 31.8808 33.4336 32.1679ZM43.7402 32.2089C43.8633 32.3261 43.9277 32.4902 44.0683 33.0351C44.1269 33.2754 44.2441 33.6211 44.332 33.8086C44.4726 34.1191 44.4844 34.2773 44.3672 34.2773C44.3437 34.2773 44.1855 34.1894 44.0156 34.0781C43.8398 33.9668 43.5879 33.8613 43.4355 33.8379C43.1133 33.791 42.9316 33.6152 42.8379 33.2519C42.75 32.8945 42.7558 32.7656 42.8789 32.7011C43.0371 32.6191 43.2539 32.748 43.3887 33.0175C43.4531 33.1406 43.541 33.2519 43.582 33.2695C43.6992 33.3046 43.664 33.0586 43.5058 32.7656C43.3652 32.5019 43.3183 32.2324 43.4004 32.1504C43.4707 32.08 43.6406 32.1093 43.7402 32.2089ZM26.2734 32.25C26.5078 32.3437 26.5605 32.4199 26.5137 32.5722C26.4492 32.7773 25.9453 32.8945 25.7929 32.7421C25.6875 32.6367 25.7051 32.3027 25.8281 32.2324C25.9629 32.1504 26.0449 32.1562 26.2734 32.25ZM22.5879 32.9648C22.7051 33.2695 22.6582 33.375 22.4355 33.2871C22.3594 33.2578 22.2187 33.1523 22.125 33.0586C21.9082 32.8242 21.9492 32.6953 22.2539 32.6953C22.4707 32.6953 22.4883 32.707 22.5879 32.9648ZM41.6601 32.8242C41.6601 32.9179 41.4785 33.1054 41.3847 33.1054C41.2617 33.1054 41.2969 32.8886 41.4375 32.789C41.5664 32.6953 41.6601 32.7129 41.6601 32.8242ZM42.5859 33.4511C42.7148 33.873 42.6797 34.1074 42.4277 34.4472C42.3047 34.6113 42.1699 34.8281 42.1289 34.9218C41.9707 35.3027 41.666 35.1328 41.6133 34.6347C41.5957 34.4062 41.6133 34.2949 41.7129 34.125C41.8535 33.8847 42.416 33.2226 42.4804 33.2226C42.5039 33.2226 42.5508 33.3222 42.5859 33.4511ZM45.1172 34.1543C45.1933 34.2187 45.3105 34.3828 45.3808 34.5175C45.4804 34.7285 45.5332 34.7754 45.7207 34.8164C46.0547 34.8867 46.2773 35.0214 46.3828 35.2207C46.5176 35.4843 46.4238 35.5546 46.0957 35.4257C45.5449 35.2148 44.7656 34.4296 44.8535 34.166C44.9004 34.0136 44.9297 34.0136 45.1172 34.1543ZM41.3086 34.6875C41.4668 34.8457 41.5429 35.0566 41.5429 35.332C41.5429 35.6191 41.4551 35.6718 41.2676 35.5019C41.1269 35.3613 41.1211 35.3613 41.039 35.4726C40.9101 35.6484 40.9394 35.7949 41.1914 36.2929C41.3847 36.6738 41.4199 36.7968 41.3906 36.9609C41.3554 37.1308 41.3672 37.1543 41.4551 37.1367C41.5605 37.1191 41.625 37.0371 41.6836 36.8379C41.7363 36.6796 41.9238 36.8086 42.1347 37.1367C42.3574 37.4941 42.4394 37.7929 42.3633 37.9921C42.2812 38.2148 42.1758 38.1796 41.9004 37.8515C41.7187 37.6406 41.5898 37.5468 41.4082 37.4941C41.0976 37.4121 40.7988 37.1015 40.7519 36.8086C40.6875 36.457 40.664 36.3925 40.5117 36.2285C40.4062 36.1171 40.3711 36.0117 40.3711 35.8242C40.3711 35.5019 40.4531 35.332 40.6816 35.1855C40.8047 35.1093 40.8808 35.0039 40.9043 34.8691C40.9687 34.5644 41.1211 34.5 41.3086 34.6875ZM18.0469 34.8574C18.0469 35.0976 17.2148 35.9765 16.9922 35.9765C16.7871 35.9765 16.7285 35.7363 16.8691 35.4609C16.998 35.2031 17.1972 35.0449 17.5898 34.8632C17.9121 34.7168 18.0469 34.7168 18.0469 34.8574ZM38.625 36.0117C38.7949 36.1582 39.0117 36.2929 39.0996 36.3105C39.2929 36.3515 39.4512 36.5625 39.3984 36.7031C39.3808 36.7558 39.3515 36.7968 39.334 36.7968C39.2168 36.7968 38.1445 35.8945 38.1445 35.7949C38.1445 35.6777 38.332 35.7597 38.625 36.0117ZM47.291 35.8359C47.5312 35.9589 47.5019 36.123 47.2324 36.123C47.0156 36.123 46.8926 35.9941 46.9512 35.8359C46.998 35.7187 47.0683 35.7187 47.291 35.8359ZM48.3047 36.6914C48.3457 36.7617 48.3398 36.8144 48.2871 36.8789C48.164 37.0254 48.0469 36.9902 48.0469 36.8086C48.0469 36.5449 48.1758 36.4921 48.3047 36.6914ZM43.664 38.2031C43.8281 38.2031 43.8984 38.2441 44.0508 38.4316C44.1562 38.5664 44.4726 38.8007 44.7832 38.9882C45.3691 39.3339 46.0312 39.8554 47.4902 41.1035C48.3515 41.8418 48.8613 42.1875 49.1074 42.1875C49.2363 42.1875 49.3652 42.3457 49.4824 42.6386C49.5879 42.9082 49.6289 42.9257 49.8105 42.8261C50.0625 42.6972 50.4082 43.1015 50.4785 43.5996C50.5195 43.8867 50.584 43.9629 50.6484 43.7988C50.6953 43.6757 50.9355 43.6875 51.1992 43.8222C51.3222 43.8867 51.7207 44.1504 52.0898 44.4199C52.8984 45.0058 53.3672 45.2929 53.5019 45.2929C53.5547 45.2929 53.6426 45.2285 53.6953 45.1464C53.8125 44.9707 53.8887 44.9648 54.082 45.1171C54.2695 45.2636 54.416 45.2636 54.4629 45.1171C54.5097 44.9648 54.457 44.7304 54.2812 44.2851C54.1992 44.0918 54.1465 43.8984 54.164 43.8574C54.1992 43.7636 54.791 43.5351 54.9961 43.5351C55.2129 43.5351 55.3418 43.623 55.8984 44.1211C56.5195 44.6777 56.7949 44.8886 57.1113 45.0527C57.2461 45.1171 57.3926 45.2461 57.4336 45.3339C57.4804 45.4336 57.6621 45.5742 57.9375 45.7207C58.4414 45.9902 58.5469 46.1543 58.5234 46.5996C58.5117 46.8339 58.4883 46.8984 58.4179 46.8808C58.0488 46.7812 58.0254 46.7929 57.8379 47.1152C57.5097 47.6894 57.5449 48.1816 57.9199 48.2988C58.1836 48.3808 58.3301 48.5449 58.5058 48.9433C58.7519 49.4941 58.8984 49.664 59.1679 49.7109C59.3965 49.7461 59.4551 49.7929 59.8242 50.2265C59.9238 50.3437 60.0937 50.4726 60.1992 50.5078C60.2988 50.5371 60.5039 50.6894 60.6504 50.8359C60.791 50.9824 61.0195 51.1523 61.1484 51.2109C61.2832 51.2695 61.4707 51.416 61.5586 51.539C61.9277 52.0136 62.0215 52.0898 62.3203 52.166C62.5137 52.2187 62.748 52.3476 62.9824 52.5351C63.1816 52.6933 63.5039 52.9453 63.6972 53.0976C63.8847 53.25 64.1543 53.4023 64.2949 53.4433C64.4297 53.4785 64.5703 53.5195 64.6113 53.5312C64.6523 53.5429 64.7226 53.6367 64.7637 53.7421C64.8633 53.9824 65.25 54.3339 65.5898 54.498C65.7363 54.5625 66.1992 54.9023 66.6211 55.2421C68.0566 56.4023 68.2383 56.5312 68.4492 56.5312C68.5547 56.5312 68.8359 56.5898 69.0703 56.6601C69.3047 56.7304 69.5566 56.7714 69.6328 56.7539C69.709 56.7363 69.9551 56.5781 70.1719 56.4082C70.7051 55.9921 70.834 55.9277 70.875 56.039C70.9277 56.1796 70.8047 56.3437 70.1015 57.0761C69.7324 57.457 69.4336 57.8144 69.4336 57.8613C69.4336 58.0078 69.1465 57.9668 68.8008 57.7675C68.209 57.4336 67.0019 56.625 66.8262 56.4375C66.7324 56.3378 66.5332 56.2089 66.3808 56.1445C66.2051 56.0683 65.9883 55.8867 65.7246 55.5878C65.4023 55.2304 65.2383 55.1074 64.8457 54.9082C64.289 54.6328 63.6562 54.1875 62.4433 53.2207C61.541 52.4941 61.1836 52.2656 60.9668 52.2656C60.8789 52.2656 60.7558 52.1718 60.6211 52.0019C60.4687 51.8203 60.3281 51.7207 60.1582 51.6679C59.9883 51.6211 59.8125 51.4921 59.6015 51.2695C59.4258 51.0937 59.1797 50.8945 59.0449 50.83C58.9043 50.7597 58.6875 50.5664 58.5234 50.3613C58.2012 49.9629 58.084 49.8808 57.9902 49.9746C57.8672 50.0976 57.7617 50.039 57.375 49.6406C57.1582 49.4179 56.7129 49.0664 56.3906 48.8496C56.0625 48.6386 55.4648 48.2109 55.0605 47.9062C54.6504 47.6015 54.1289 47.2382 53.8945 47.1035C53.6601 46.9687 53.0742 46.5351 52.5879 46.1425C52.1015 45.75 51.3984 45.1992 51.0293 44.9296C50.2969 44.3847 50.1914 44.2851 50.1035 44.0507C50.0625 43.9394 49.9804 43.875 49.8164 43.8339C49.3945 43.7168 48.5273 43.0312 48.0176 42.4101C47.7539 42.0879 47.6367 42.0293 47.6367 42.2226C47.6367 42.3339 47.4316 42.3281 47.3144 42.2109C47.2617 42.1582 47.1562 41.9882 47.0801 41.8359C46.8926 41.4668 46.7519 41.373 46.4707 41.4082C46.2597 41.4375 46.2363 41.4257 46.0664 41.1855C45.9726 41.0449 45.7793 40.8632 45.6445 40.7812C45.1758 40.5 44.9121 40.2773 44.8535 40.1074C44.789 39.9023 44.707 39.832 44.6015 39.873C44.4785 39.9199 44.1797 39.7382 43.8281 39.3984C43.6523 39.2343 43.3945 39.0468 43.2597 38.9941C43.0605 38.9121 42.9961 38.8476 42.8906 38.6074C42.7969 38.3847 42.5976 37.5234 42.5976 37.33C42.5976 37.3183 42.791 37.5117 43.0254 37.7578C43.4004 38.1445 43.4824 38.2031 43.664 38.2031ZM49.6523 37.7285C49.8691 37.9218 50.1621 38.1328 50.3027 38.1972C50.5898 38.332 50.707 38.4961 50.6543 38.6718C50.5957 38.8476 50.4316 38.8125 50.1152 38.5664C49.7871 38.3027 49.0429 37.5234 49.0429 37.4414C49.0429 37.2949 49.2949 37.4121 49.6523 37.7285ZM40.8398 38.2675C40.9922 38.5898 41.25 38.8476 41.4258 38.8476C41.4902 38.8476 41.6719 38.9648 41.8359 39.1113C42 39.2578 42.2461 39.4277 42.3808 39.498C42.8262 39.7207 43.1133 40.0781 43.0371 40.3183C43.0137 40.3828 42.8496 40.5996 42.6738 40.7988C42.4922 40.998 42.1289 41.4668 41.8594 41.8359C41.3144 42.5918 41.1621 42.7734 41.0566 42.7734C41.0156 42.7734 40.916 42.6914 40.834 42.5859L40.6758 42.3984L40.1543 42.498C39.5156 42.6211 39.1406 42.6269 38.9883 42.5156C38.8887 42.4394 38.8887 42.4101 38.9531 42.3046C39 42.2343 39.0117 42.1875 38.9824 42.1992C38.959 42.2109 38.8359 42.2695 38.7187 42.3339C38.5078 42.4394 38.4961 42.4394 38.3789 42.3339C38.2793 42.2402 38.1972 42.2343 37.7344 42.2636C37.2129 42.3046 37.207 42.3046 37.207 42.1699C37.207 41.9414 37.5058 41.5488 38.3262 40.6875C38.7597 40.2363 39.2695 39.6328 39.4629 39.3398C39.7851 38.8593 40.5644 37.9687 40.664 37.9687C40.6816 37.9687 40.7637 38.1035 40.8398 38.2675ZM20.3262 38.7949C20.4902 38.9238 20.625 39.0586 20.625 39.0879C20.625 39.123 20.4902 39.1406 20.3203 39.1289C20.0508 39.1113 20.0039 39.0937 19.9336 38.9472C19.8574 38.789 19.8808 38.5546 19.9746 38.5546C20.0039 38.5546 20.1562 38.6601 20.3262 38.7949ZM15.6035 39.0468C15.6562 39.5859 16.3008 40.916 16.541 40.9921C16.6523 41.0273 16.8633 41.4023 16.8047 41.4609C16.7168 41.5488 16.459 41.373 15.9609 40.875C15.2695 40.1836 14.9707 39.6093 15.082 39.164C15.1289 38.9941 15.4511 38.6543 15.5273 38.7011C15.5508 38.7129 15.5859 38.8711 15.6035 39.0468ZM51.375 39.0234C51.3808 39.1054 51.3633 39.2109 51.3281 39.2578C51.2812 39.3339 51.2637 39.3281 51.1875 39.2285C51.1347 39.164 51.0937 39.0527 51.0937 38.9765C51.0937 38.7773 51.3515 38.8183 51.375 39.0234ZM52.7988 40.1894C53.5137 40.7285 53.7012 40.916 53.6543 41.039C53.5898 41.1972 53.4316 41.1445 53.1972 40.8867C53.0742 40.7461 52.8281 40.5703 52.664 40.4882C52.4062 40.3711 52.3242 40.289 52.1894 40.0312C52.0664 39.8086 52.0429 39.7265 52.1074 39.7265C52.1543 39.7265 52.4648 39.9316 52.7988 40.1894ZM56.3672 40.6054C56.4258 40.5761 56.4844 40.5117 56.5019 40.4648C56.5605 40.3183 56.8828 40.1836 57.0703 40.2246C57.3457 40.2832 57.8496 40.6464 59.1504 41.7129C59.8301 42.2636 60.6152 42.8847 60.9023 43.0839C62.0801 43.9101 62.4316 44.1914 64.5762 46.0371C64.998 46.4004 65.168 46.5879 65.2441 46.7754L65.3437 47.0214L65.4609 46.8574C65.6719 46.5703 65.7832 46.6406 66.0703 47.2558C66.334 47.8183 66.4219 47.9179 66.457 47.6777C66.4922 47.4199 66.6973 47.4902 67.0957 47.8945C67.3125 48.1113 67.5469 48.2929 67.6465 48.3164C67.7461 48.3398 68.0098 48.5332 68.2324 48.7441C68.4609 48.955 68.8828 49.3007 69.1699 49.5058C69.9082 50.0332 70.541 50.5254 71.6601 51.4453C72.8672 52.4355 73.6289 52.998 73.9043 53.1152C74.0801 53.1855 74.1211 53.2382 74.1211 53.3671C74.1211 53.7597 73.5176 54.4336 73.1719 54.4336C72.9316 54.4336 72.8027 54.3515 72.3457 53.9238C72.1113 53.707 71.8769 53.5371 71.7715 53.5136C71.6777 53.4961 71.5488 53.4082 71.4785 53.3144C71.414 53.2207 71.1797 53.039 70.9629 52.9101C70.5937 52.6992 70.4473 52.5586 70.0898 52.0957C70.0078 51.9843 69.8613 51.8906 69.709 51.8496C69.3515 51.7558 69.2051 51.6738 69.1699 51.5566C69.1465 51.498 68.9824 51.3691 68.8008 51.2695C68.6191 51.1699 68.0332 50.7363 67.5 50.2968C66.9668 49.8632 66.2988 49.3476 66.0058 49.1543C65.7187 48.9668 65.4199 48.7675 65.3437 48.7148C65.2676 48.6621 65.1269 48.4921 65.0332 48.3398C64.9101 48.1347 64.7988 48.0351 64.6523 47.9882C64.541 47.9472 64.289 47.7656 64.0898 47.5722C63.8613 47.3496 63.6504 47.2031 63.5097 47.1679C63.3457 47.1211 63.1933 47.0039 62.9531 46.7285C62.7187 46.4648 62.5488 46.33 62.4082 46.289C62.2793 46.2539 62.0918 46.1074 61.8808 45.8847C61.6699 45.6621 61.4883 45.5214 61.3769 45.498C61.0957 45.4394 61.0312 45.3867 60.8789 45.082C60.7617 44.8593 60.6914 44.789 60.5508 44.7597C60.2929 44.7129 59.8711 44.4023 59.3086 43.8632C58.7402 43.3183 58.5937 43.125 58.5351 42.8671L58.4941 42.6855L58.4004 42.9023C58.2539 43.2421 58.0664 43.2129 57.7969 42.8086C57.5976 42.5097 57.3222 42.3046 57.1172 42.3046C57 42.3046 56.8594 42.1406 56.7012 41.83C56.5957 41.6191 56.5254 41.5546 56.2851 41.4726C55.9453 41.3554 55.8047 41.2382 55.6582 40.9453C55.5527 40.7343 55.5058 40.3125 55.582 40.2363C55.6054 40.2187 55.7637 40.3007 55.9453 40.4296C56.1914 40.6054 56.2851 40.6464 56.3672 40.6054ZM44.6836 41.1269C44.9297 41.2793 45.3281 42.041 45.2695 42.2636C45.2519 42.3457 45.0117 42.6386 44.7422 42.914C44.4785 43.1836 44.2265 43.4941 44.1855 43.6054C43.9922 44.1152 44.0273 44.08 43.6992 44.0449C43.4179 44.0097 43.4062 44.0097 43.5 44.1152C43.5527 44.1679 43.5937 44.2734 43.5937 44.3379C43.5937 44.5312 43.1484 45.0879 42.4043 45.8261C41.7773 46.4414 41.6836 46.5761 41.7129 46.7988C41.7304 46.9336 41.6015 47.1093 41.4844 47.1093C41.4258 47.1093 41.332 47.0507 41.2793 46.9746C41.1855 46.8515 41.1797 46.8632 41.2148 47.2441C41.2558 47.6894 41.209 47.83 40.9629 47.9589C40.8574 48.0117 40.7637 48.123 40.7226 48.2519C40.6758 48.3867 40.5762 48.5097 40.4414 48.5976C40.1367 48.791 39.9785 48.9785 39.6387 49.5293C39.416 49.8867 39.2871 50.039 39.1113 50.1328C38.9355 50.2207 38.8711 50.2968 38.8418 50.4375C38.7949 50.6777 38.5898 50.9824 38.1738 51.4511C37.998 51.6504 37.5351 52.2246 37.1543 52.7285C36.7676 53.2324 36.2578 53.8593 36.0176 54.123C35.625 54.5566 35.5371 54.6972 35.4258 55.0312C35.4082 55.0839 35.2676 55.1894 35.1152 55.2656C34.8691 55.3828 34.834 55.4238 34.8222 55.5937C34.8105 55.8222 34.6582 56.0332 33.9668 56.7714C33.6797 57.0761 33.2871 57.539 33.0879 57.7968C32.6367 58.4062 32.4258 58.6289 32.1562 58.8046C31.9629 58.9277 31.9336 58.9804 31.8984 59.2382C31.875 59.3964 31.8281 59.5312 31.7929 59.5371C31.7578 59.5371 31.6523 59.5488 31.5527 59.5488C31.4121 59.5605 31.3769 59.5898 31.3476 59.7363C31.289 60.0117 31.1953 60.1464 30.7324 60.6562C29.9707 61.4765 29.0625 62.7539 29.0625 62.9941C29.0625 63.0527 29.0097 63.1113 28.9512 63.1347C28.8867 63.1523 28.5879 63.4336 28.2832 63.75C27.9726 64.0722 27.6797 64.3359 27.6269 64.3359C27.5801 64.3359 27.4043 64.2304 27.2402 64.1015C27.0762 63.9726 26.8476 63.8437 26.7246 63.8086C26.4844 63.7441 26.373 63.6445 26.2265 63.3574C26.0801 63.0703 26.1094 62.9648 26.4316 62.5957C26.5957 62.4082 26.7715 62.1738 26.8125 62.0742C26.8535 61.9687 26.9824 61.8339 27.0937 61.7695C27.2461 61.6816 27.3164 61.582 27.3691 61.3945C27.4629 61.0664 27.5039 61.0195 27.7148 60.9726C27.8144 60.955 27.9082 60.8906 27.9258 60.8378C28.0137 60.5625 28.1484 60.3867 28.834 59.6777C29.3379 59.1503 29.6367 58.7871 29.7715 58.5293C29.9765 58.1484 30.4512 57.5976 30.5742 57.5976C30.6152 57.5976 30.7031 57.6562 30.7676 57.7207L30.8965 57.8496L30.8554 57.5273C30.832 57.3398 30.8379 57.1406 30.8789 57.0468C30.9082 56.9589 31.1601 56.6543 31.4238 56.3789C31.6933 56.0976 31.9629 55.7929 32.0215 55.705C32.0801 55.6171 32.1679 55.5468 32.2207 55.5586C32.3906 55.5878 32.4609 55.4882 32.4609 55.2304C32.4609 55.0605 32.5019 54.9257 32.5722 54.8378L32.6894 54.6972L32.9297 54.832C33.0644 54.9082 33.1875 54.955 33.2051 54.9433C33.2168 54.9257 33.1992 54.8027 33.164 54.6679C33.0469 54.2402 33.3105 53.7656 33.5859 53.9121C33.6621 53.9531 33.6972 53.9472 33.7148 53.8945C33.7265 53.8535 33.7676 53.7128 33.8027 53.5781C33.8496 53.4082 33.9258 53.3027 34.084 53.1972C34.2187 53.1093 34.3183 52.9921 34.3476 52.8808C34.3711 52.7812 34.4648 52.664 34.5527 52.6113C34.6523 52.5586 34.8633 52.2773 35.0801 51.9082C35.4785 51.2343 35.625 51.0527 35.8359 50.9765C35.9179 50.9414 35.9941 50.8711 36.0117 50.8183C36.0762 50.6074 36.1289 50.5488 36.3222 50.4843C36.4804 50.4375 36.539 50.3671 36.5976 50.1914C36.6445 50.0683 36.7676 49.8632 36.8789 49.7402C36.9902 49.6171 37.1543 49.3711 37.2363 49.1953C37.3418 48.9668 37.4355 48.8554 37.5293 48.832C37.6113 48.8144 37.6933 48.7324 37.7285 48.6269C37.8105 48.3867 38.3086 47.7656 38.5488 47.6015C38.6953 47.5019 38.7773 47.4785 38.8535 47.5195C39.0058 47.6074 39.0234 47.5957 39.0234 47.4023C39.0234 47.2031 39.1699 46.875 39.2578 46.875C39.2871 46.875 39.3926 46.7343 39.4922 46.5586C39.5918 46.3886 39.7207 46.2011 39.7851 46.1425C39.8965 46.0429 39.9082 46.0429 40.0195 46.1425C40.0957 46.2129 40.1367 46.3242 40.1367 46.4707C40.1367 46.7168 40.2129 46.8046 40.3418 46.6992C40.459 46.5996 40.4531 46.4648 40.3125 46.0722C40.1601 45.6269 40.166 45.457 40.3476 45.2402C40.5351 45.0117 40.6289 45.0117 40.7226 45.2343C40.8222 45.4804 40.8984 45.4511 40.8984 45.1757C40.8984 44.9004 40.9922 44.666 41.1269 44.6308C41.1797 44.6191 41.2676 44.4726 41.3262 44.3027C41.4492 43.957 42.1054 43.207 42.3457 43.1484C42.5156 43.1015 42.5976 42.9609 42.5976 42.7031C42.5976 42.4101 42.6621 42.3457 42.914 42.3984L43.1308 42.4336L43.0957 42.2285C43.0605 42.0351 43.0781 41.9941 43.3828 41.666C43.5644 41.4726 43.7109 41.2734 43.7109 41.2265C43.7109 41.0039 44.3672 40.9336 44.6836 41.1269ZM54.5215 41.4492C54.7441 41.5429 54.8496 41.7773 54.7265 41.9238C54.6328 42.0351 54.4629 41.9472 54.3457 41.7187C54.2578 41.5488 54.2285 41.3671 54.2871 41.3671C54.3047 41.3671 54.4101 41.4023 54.5215 41.4492ZM18.0879 42.0527C18.5566 42.2402 18.9258 42.5039 18.9258 42.6562C18.9258 42.8144 18.832 42.8027 18.3047 42.5976C17.7363 42.3691 17.3437 42.1054 17.3437 41.9472C17.3437 41.8418 17.3672 41.83 17.5371 41.8652C17.6367 41.8886 17.8887 41.9765 18.0879 42.0527ZM55.5176 42.2168C55.7695 42.416 56.039 42.8027 55.9922 42.9199C55.9629 43.0019 55.9394 43.0019 55.7988 42.9257C55.4883 42.7675 55.0898 42.2578 55.166 42.1289C55.2246 42.0351 55.3066 42.0586 55.5176 42.2168ZM47.1621 43.0195C47.6367 43.2597 48.2226 43.8105 48.2226 44.0214C48.2226 44.2031 48.0879 44.3203 47.9297 44.2675C47.7715 44.2148 47.6367 44.332 47.6367 44.5136C47.6367 44.6953 47.0097 45.3515 46.8281 45.3515C46.664 45.3515 46.4004 44.9062 46.3594 44.5546C46.3359 44.3496 46.2949 44.2675 46.1601 44.1738C46.0664 44.1035 45.9609 43.9804 45.9258 43.8925L45.8613 43.7402L45.8203 43.9218C45.7441 44.2734 45.5976 44.3437 45.4804 44.0918C45.3515 43.8046 45.4101 43.5527 45.6211 43.4765C45.6972 43.4472 45.8086 43.3183 45.8789 43.1894C46.1133 42.7265 46.4824 42.6738 47.1621 43.0195ZM56.6426 43.0136C56.7597 43.2129 57.9785 44.1796 58.5176 44.5019C58.7109 44.6132 58.9277 44.7714 59.0039 44.8535C59.1387 44.9941 59.1211 45.1171 58.9687 45.1171C58.7695 45.1171 57.3691 44.1152 56.7597 43.541C56.373 43.1718 56.291 43.0546 56.3437 42.9257C56.4023 42.7793 56.5254 42.8144 56.6426 43.0136ZM59.7539 45.4804C59.8711 45.5976 59.8359 45.6562 59.666 45.6328C59.4785 45.6093 59.3965 45.4101 59.5722 45.4101C59.6367 45.4101 59.7129 45.4394 59.7539 45.4804ZM60.7265 46.1074C60.8203 46.2129 60.9316 46.6406 60.8613 46.6406C60.8379 46.6406 60.7558 46.541 60.6738 46.4238C60.4512 46.0957 60.4922 45.8496 60.7265 46.1074ZM49.3594 46.5527C49.664 46.6054 50.0039 46.7109 50.1738 46.8046C50.4961 46.9746 50.9179 47.4199 50.9179 47.5839C50.9179 47.6367 50.8535 47.8183 50.7715 47.9765C50.6894 48.1406 50.5722 48.4746 50.5137 48.7207C50.3496 49.3652 50.2969 49.4062 49.4238 49.6289C49.1367 49.705 48.7324 49.8339 48.5332 49.9218C47.6015 50.3437 47.1797 51.2109 47.7012 51.6445C47.9648 51.8671 48.2109 51.914 49.4238 51.9726C50.1094 52.0019 50.6484 52.0605 50.8301 52.1132C51.1875 52.2246 51.9492 52.6523 52.3008 52.9394L52.5586 53.1503L52.4648 53.3378C52.1953 53.8535 51.3574 54.7851 51.1523 54.7851C51.0293 54.7851 50.7129 54.5742 49.4531 53.6425C48.791 53.1503 48.0176 52.5996 47.7246 52.4121C46.1484 51.3984 45.498 50.8886 45.2285 50.4609C44.9121 49.9629 45.0293 49.2539 45.5449 48.4687C45.8379 48.041 47.1328 46.6113 47.3496 46.4824C47.5254 46.3769 48.6094 46.4179 49.3594 46.5527ZM61.8222 47.0449C61.9394 47.1386 61.9453 47.1679 61.8808 47.25C61.8281 47.3086 61.7519 47.332 61.6758 47.3086C61.5469 47.2734 61.3476 47.0742 61.3476 46.9863C61.3476 46.8925 61.6816 46.9336 61.8222 47.0449ZM52.0722 47.707C52.1074 47.748 52.1484 47.8535 52.1719 47.9414C52.1894 48.0351 52.2773 48.1289 52.3711 48.1757C52.6699 48.3222 52.5176 48.5156 52.1719 48.4336C51.9492 48.375 51.7969 48.1875 51.7969 47.9707C51.7969 47.6953 51.9492 47.5546 52.0722 47.707ZM63.082 48.0644C63.2344 48.3515 63.0703 48.4336 62.8418 48.1875C62.7012 48.0351 62.6484 47.8183 62.7363 47.7363C62.789 47.6836 62.9824 47.8652 63.082 48.0644ZM64.0488 48.6972C64.2012 48.8496 64.1836 49.1308 64.0137 49.1308C63.8965 49.1308 63.6328 48.7968 63.6328 48.6562C63.6328 48.5332 63.9082 48.5566 64.0488 48.6972ZM55.1719 48.9375C55.3301 49.1308 55.3301 49.1308 55.2949 49.8046C55.248 50.6367 55.1191 51.3808 54.9609 51.7031C54.8965 51.8379 54.8203 52.0781 54.791 52.2304C54.7207 52.5996 54.416 53.0332 53.7187 53.7597C53.0976 54.4101 52.8164 54.6152 52.7578 54.4687C52.7109 54.3457 52.8164 54.1757 53.1972 53.7656C53.9062 52.9921 54.1523 52.6171 54.2285 52.166C54.2461 52.0312 54.3457 51.8203 54.4394 51.7031C54.5332 51.5859 54.6387 51.3867 54.6738 51.2578C54.7441 50.9765 54.8437 49.8808 54.8437 49.2714C54.8437 48.6796 54.9023 48.6211 55.1719 48.9375ZM51.9082 48.8613C52.0195 48.9316 51.9609 49.1425 51.7265 49.4882C51.375 50.0039 50.8769 50.2031 51.1054 49.7343C51.2168 49.4941 51.7207 48.8086 51.7793 48.8086C51.8086 48.8086 51.8613 48.832 51.9082 48.8613ZM65.0859 49.5527C65.2207 49.6523 65.2734 49.7402 65.2617 49.8222C65.2324 50.0156 65.0508 50.0156 64.8515 49.8222C64.3887 49.3828 64.5762 49.1718 65.0859 49.5527ZM66.0234 50.2324C66.334 50.5546 66.164 50.8125 65.8359 50.5195C65.7246 50.414 65.5078 50.0273 65.5078 49.9218C65.5078 49.8222 65.8066 50.0039 66.0234 50.2324ZM50.7715 50.0449C50.8125 50.1035 50.6484 50.332 50.5664 50.332C50.5371 50.332 50.5019 50.291 50.4844 50.2382C50.414 50.0625 50.6777 49.8867 50.7715 50.0449ZM49.8164 50.3906C49.5351 50.625 48.457 50.9179 48.457 50.7656C48.457 50.625 49.3769 50.2793 49.7461 50.2793H49.9512L49.8164 50.3906ZM67.125 51.0937C67.2246 51.2402 67.2656 51.3632 67.2363 51.4277C67.2012 51.5214 67.1777 51.5097 67.0254 51.3398C66.8613 51.1582 66.791 50.8593 66.914 50.8593C66.9433 50.8593 67.043 50.9648 67.125 51.0937ZM53.3496 51.0586C53.5898 51.164 53.6601 51.3574 53.5605 51.6855C53.4609 52.0136 53.291 52.1718 53.0801 52.125C52.7578 52.0605 52.3828 51.6855 52.3828 51.4277C52.3828 51.205 52.6289 51.0527 53.1035 50.9824C53.1269 50.9824 53.2383 51.0117 53.3496 51.0586ZM68.0742 51.8496C68.2734 52.1132 68.3144 52.2656 68.1855 52.2656C68.0332 52.2656 67.7344 51.8496 67.7344 51.6504C67.7344 51.498 67.8633 51.5742 68.0742 51.8496ZM69.0996 52.4589C69.2402 52.5586 69.2578 52.8457 69.1289 52.9277C68.9941 53.0156 68.789 52.8281 68.789 52.6171C68.789 52.3769 68.9062 52.3125 69.0996 52.4589ZM70.3476 53.5546C70.5117 53.7832 70.6465 53.8886 71.0332 54.0761C71.584 54.3457 72.3633 54.9726 72.3633 55.1425C72.3633 55.207 72.2695 55.3125 72.1289 55.4003C71.6543 55.6992 71.4316 55.705 71.6601 55.4121C71.8008 55.2363 71.8066 55.0371 71.6836 54.873C71.6367 54.8086 71.2207 54.5039 70.7637 54.1992C69.9023 53.6191 69.6973 53.4082 69.8379 53.2382C69.9433 53.1093 70.0957 53.2031 70.3476 53.5546ZM57.7148 54.0175C57.8027 54.1816 57.7851 54.3515 57.6797 54.4394C57.5039 54.58 57.2168 54.2753 57.3105 54.0351C57.375 53.8711 57.6269 53.8593 57.7148 54.0175ZM59.1504 54.1406C59.2383 54.2343 59.2383 54.2695 59.1797 54.3457C59.1387 54.3925 59.0742 54.4336 59.0273 54.4336C58.916 54.4336 58.7695 54.2636 58.7695 54.1347C58.7695 53.9824 59.0097 53.9882 59.1504 54.1406ZM60.2344 54.1113C60.4219 54.205 60.457 54.3046 60.3398 54.4218C60.1758 54.5859 59.707 54.3808 59.707 54.1347C59.707 53.9941 59.9824 53.9824 60.2344 54.1113ZM56.2558 54.2343C56.3203 54.3164 56.3144 54.3398 56.2207 54.4101C56.0976 54.5039 55.9629 54.5156 55.8457 54.4394C55.7812 54.3984 55.7929 54.3632 55.8926 54.2636C56.039 54.1171 56.1504 54.1054 56.2558 54.2343ZM63.1289 54.7617C63.2402 54.8027 63.2519 54.9668 63.1523 55.0664C63.1113 55.1074 62.9707 55.1367 62.8301 55.1367C62.6953 55.1367 62.4316 55.1953 62.2441 55.2597C62.0625 55.33 61.8398 55.3886 61.7519 55.3828C61.6523 55.3828 61.541 55.4355 61.459 55.5293C61.3828 55.6113 61.1953 55.7402 61.0429 55.8164C60.7734 55.9511 60.6562 56.0918 60.1582 56.8652C59.9355 57.2109 59.7949 57.2636 59.707 57.0351C59.6191 56.8066 59.6894 56.5488 59.8594 56.4843C59.9355 56.455 60.0469 56.3261 60.1113 56.2031C60.2519 55.9277 60.3281 55.8632 60.5683 55.8105C60.6797 55.7871 60.7734 55.7285 60.791 55.6582C60.8496 55.4765 62.0215 54.9843 62.9004 54.7675C62.9648 54.7558 63.0234 54.7382 63.0293 54.7324C63.0351 54.7324 63.0762 54.7441 63.1289 54.7617ZM57.8847 54.9843C57.9902 55.1132 57.9433 55.4531 57.8203 55.4765C57.6855 55.5 57.5683 55.2539 57.6211 55.0546C57.6621 54.8847 57.7793 54.8554 57.8847 54.9843ZM56.2969 55.1132C56.4726 55.2363 56.4492 55.4531 56.2617 55.4765C56.1211 55.5 55.8984 55.3476 55.8984 55.2246C55.8984 55.1425 56.0215 55.0195 56.1035 55.0195C56.1387 55.0195 56.2265 55.0605 56.2969 55.1132ZM54.8554 55.2949C54.9785 55.4062 54.9961 55.5937 54.8789 55.6406C54.7031 55.705 54.375 55.4003 54.4629 55.2539C54.5215 55.166 54.7383 55.1836 54.8554 55.2949ZM58.9101 55.2304C59.0273 55.2773 59.0332 55.5234 58.916 55.5703C58.7051 55.6464 58.5351 55.4355 58.6875 55.2832C58.7929 55.1836 58.7871 55.1836 58.9101 55.2304ZM58.3008 56.5253C58.3769 56.8828 58.3535 57.0117 58.2012 57.0117C58.0722 57.0117 57.6562 56.6074 57.6562 56.4785C57.6562 56.4257 57.7558 56.2968 57.873 56.1914C58.0722 56.0156 58.0898 56.0097 58.1601 56.1035C58.2012 56.1621 58.2656 56.3496 58.3008 56.5253ZM55.166 56.3378C55.2539 56.4492 55.3594 56.6601 55.4062 56.8183C55.4824 57.0761 55.4824 57.0996 55.3769 57.2109C55.2129 57.375 55.0078 57.2695 54.8554 56.9414C54.6562 56.5253 54.6387 56.3964 54.7793 56.2558C54.9433 56.0918 54.9902 56.0976 55.166 56.3378ZM56.7246 56.3144C56.8828 56.4726 56.8652 56.9121 56.7012 56.9414C56.4668 56.9882 56.1035 56.455 56.25 56.2793C56.3554 56.1562 56.5781 56.1679 56.7246 56.3144ZM53.7012 56.6191C53.8769 56.789 54.0234 56.9589 54.0234 56.9941C54.0234 57.0878 53.6133 57.4336 53.5371 57.4043C53.3847 57.3574 53.1797 56.3086 53.3144 56.3086C53.3496 56.3086 53.5254 56.4492 53.7012 56.6191ZM59.6543 57.6621C59.748 57.8496 59.6894 58.3359 59.5371 58.5351C59.4433 58.6699 59.414 58.7871 59.414 59.0742C59.414 59.2793 59.373 59.5898 59.3262 59.7656C59.2793 59.9414 59.1855 60.2871 59.1211 60.5273C59.0566 60.7675 58.9629 61.2949 58.9101 61.6933C58.7695 62.8476 58.6758 63.2929 58.5117 63.5976C58.4121 63.791 58.3594 63.9726 58.3594 64.1601C58.3594 65.1972 57.2578 67.3418 56.6543 67.4707C56.5547 67.4941 56.332 67.6406 56.1621 67.7929C55.7637 68.1562 55.6406 68.1738 53.6133 68.1738C52.2539 68.1738 52.0195 68.1621 51.7383 68.0625C51.1465 67.8632 50.0156 67.2832 49.7344 67.0312C49.4648 66.7968 49.4531 66.7734 49.4531 66.4687C49.4531 66.1933 49.4355 66.1523 49.3359 66.1523C49.2773 66.1523 49.1953 66.205 49.1601 66.2695C49.0605 66.4511 48.8672 66.4101 48.5273 66.1347C47.9707 65.6894 47.959 65.6367 47.959 63.6621C47.9648 62.5429 47.9883 61.8222 48.041 61.541C48.1113 61.1308 48.2285 60.9199 48.3105 61.0488C48.3281 61.0839 48.3691 61.7226 48.3984 62.4726C48.4512 63.9257 48.4804 64.0957 48.7793 64.6875C49.2597 65.6425 50.0859 66.498 50.6601 66.6386C50.8945 66.6972 50.9707 66.7558 51.1113 66.9609C51.416 67.4121 51.9258 67.5586 53.2148 67.5586C54.7851 67.5586 55.9746 67.3183 56.373 66.914C56.4961 66.791 56.6836 66.6621 56.7949 66.6269C56.9472 66.5742 57.0293 66.4863 57.1699 66.2226C57.2637 66.041 57.4512 65.7011 57.5859 65.4785C57.8554 65.0214 58.0078 64.5175 58.0078 64.0722C58.0078 63.3281 58.5176 59.5195 58.6816 59.0332C58.9219 58.3183 59.3672 57.539 59.5371 57.539C59.5605 57.539 59.6133 57.5976 59.6543 57.6621ZM55.623 57.7148C55.916 57.9492 55.9453 58.5351 55.664 58.5351C55.4531 58.5351 55.3242 58.4296 55.2246 58.166C55.0488 57.7031 55.2773 57.4453 55.623 57.7148ZM25.5351 57.8261C25.9101 58.1015 26.1914 58.4121 26.1914 58.5527C26.1914 58.623 26.1504 58.8105 26.1035 58.9687C25.9453 59.4843 26.0039 59.9179 26.2265 59.9765C26.4258 60.0293 26.7187 60.3808 26.7187 60.5742C26.7187 60.8437 26.0097 61.8925 25.5234 62.3437C25.3828 62.4726 25.3476 62.4785 25.1836 62.414C24.6269 62.2031 23.5722 61.3359 23.291 60.8496C23.1562 60.6211 23.1445 60.5742 23.2031 60.3164C23.3086 59.8418 23.7012 59.0976 24.0469 58.7285C24.2168 58.541 24.375 58.33 24.3984 58.2539C24.457 58.0781 24.9961 57.6562 25.1601 57.6562C25.2363 57.6562 25.4004 57.7324 25.5351 57.8261ZM57.1758 57.791C57.2051 57.9375 57.082 58.0664 56.9179 58.0664C56.8066 58.0664 56.7773 58.0371 56.7773 57.9199C56.7773 57.6796 57.1347 57.5625 57.1758 57.791ZM53.9707 57.8261C54.0703 57.8847 54.1992 57.9199 54.2637 57.9082C54.3984 57.873 54.6679 58.0957 54.6679 58.2363C54.6679 58.289 54.6152 58.4062 54.5508 58.5058C54.3926 58.7461 54.4043 58.8632 54.6094 59.0097C54.7031 59.08 54.791 59.1738 54.8086 59.2207C54.8554 59.3378 54.75 59.5136 54.5801 59.625C54.4453 59.7128 54.4219 59.7128 54.2871 59.625C54.1465 59.5312 54.0234 59.2207 54.0234 58.9336C54.0234 58.8515 53.9531 58.6933 53.8711 58.5937C53.7129 58.4121 53.6191 57.9902 53.6894 57.8027C53.7363 57.6914 53.748 57.6914 53.9707 57.8261ZM53.1914 58.1484C53.3144 58.2714 53.2383 58.4062 52.998 58.5058C52.6465 58.6582 52.1484 58.5937 52.1484 58.3945C52.1484 58.0898 52.9453 57.9023 53.1914 58.1484ZM57.3633 58.916C57.4043 58.9687 57.4219 59.0625 57.3984 59.1562C57.3457 59.3496 57.1113 59.3378 57.082 59.1328C57.041 58.8515 57.2051 58.7285 57.3633 58.916ZM56.1035 58.9628C56.3379 59.1386 56.0097 59.5253 55.6816 59.4609C55.5176 59.4316 55.5176 59.2031 55.6875 59.0332C55.8515 58.8691 55.9453 58.8515 56.1035 58.9628ZM53.4375 59.4433C53.4375 59.5898 53.414 59.707 53.3789 59.707C53.3496 59.707 53.3203 59.5898 53.3203 59.4433C53.3203 59.2968 53.3496 59.1796 53.3789 59.1796C53.414 59.1796 53.4375 59.2968 53.4375 59.4433ZM53.0683 59.455C53.0976 59.5429 52.8633 59.7773 52.7812 59.7539C52.7402 59.7363 52.6875 59.6836 52.6523 59.625C52.5996 59.5488 52.6113 59.5078 52.7051 59.4375C52.834 59.3378 53.0332 59.3496 53.0683 59.455ZM52.0898 59.5253C52.1777 59.6894 52.1601 59.8593 52.0547 59.9472C51.9726 60.0117 51.9492 60.0058 51.8789 59.9121C51.791 59.7949 51.7676 59.5195 51.8379 59.455C51.9082 59.3789 52.0254 59.414 52.0898 59.5253ZM56.0976 59.9648C56.2031 60.041 56.332 60.1992 56.3965 60.3164C56.4961 60.5039 56.5019 60.539 56.4258 60.5859C56.1621 60.75 55.7812 60.457 55.7812 60.0937C55.7812 59.789 55.8398 59.7656 56.0976 59.9648ZM53.8359 60.4218C53.8769 60.9316 53.3496 61.3183 53.0156 61.0136C52.7051 60.7324 53.0918 60.1523 53.5722 60.1875C53.8066 60.205 53.8183 60.2109 53.8359 60.4218ZM54.791 60.2343C54.8613 60.2753 54.9023 60.3574 54.9023 60.4687C54.9023 60.6679 54.75 60.7793 54.5918 60.6972C54.4922 60.6386 54.3164 60.3515 54.3164 60.2343C54.3164 60.1582 54.6387 60.1582 54.791 60.2343ZM52.3242 60.7382C52.459 60.8964 52.5 60.9961 52.4883 61.1308C52.4707 61.3066 52.459 61.3183 52.2656 61.3007C52.1543 61.2949 51.9316 61.2832 51.7734 61.2714C51.5332 61.2597 51.4804 61.2363 51.4394 61.1191C51.3808 60.9726 51.4804 60.6972 51.6035 60.6621C51.6445 60.6445 51.7207 60.6914 51.7793 60.7558C51.9199 60.9257 51.9726 60.9082 51.9726 60.7031C51.9726 60.4628 52.0898 60.4746 52.3242 60.7382ZM56.6836 61.2832C56.8008 61.4121 56.7715 61.5761 56.6015 61.7285C56.5019 61.8164 56.4609 61.8222 56.3379 61.7695C56.1445 61.6816 56.1328 61.3945 56.3203 61.2656C56.4902 61.1425 56.5605 61.1484 56.6836 61.2832ZM55.2773 61.541C55.3652 61.6054 55.3711 61.6406 55.3183 61.7461C55.2246 61.9218 55.0371 61.9628 54.8965 61.8398C54.7558 61.7168 54.7558 61.6054 54.8906 61.5293C55.0312 61.4472 55.1543 61.4531 55.2773 61.541ZM53.6133 61.7285C53.6719 61.7988 53.6719 61.8339 53.6133 61.9043C53.4668 62.08 53.2558 61.9453 53.3437 61.7285C53.3613 61.6816 53.414 61.6406 53.4551 61.6406C53.5019 61.6406 53.5722 61.6816 53.6133 61.7285ZM52.6875 61.9043C52.7812 62.1093 52.6933 62.1796 52.3008 62.2148C51.7265 62.2617 51.6679 62.1269 52.1426 61.875C52.4414 61.7168 52.6054 61.7285 52.6875 61.9043ZM51.1816 62.2617C51.1816 62.4023 51.1582 62.4316 51.0351 62.4316C50.8594 62.4316 50.8125 62.2793 50.9531 62.1445C51.0879 62.0097 51.1816 62.0566 51.1816 62.2617ZM30.8027 62.5136C30.6152 62.8007 30.6035 63.0058 30.7676 63.2812C30.9082 63.5156 31.0371 63.6328 31.1601 63.6328C31.2129 63.6328 31.4297 63.4453 31.6465 63.2168C31.9101 62.9414 32.0801 62.8066 32.1504 62.8242C32.3554 62.8593 32.2851 63.0293 31.8984 63.4628C31.3711 64.0429 31.0547 64.4824 30.6445 65.1855C30.4512 65.5078 30.2226 65.8652 30.1289 65.9765L29.9531 66.1816L29.7363 66.0761C29.2265 65.8359 28.5469 65.0097 28.6172 64.7226C28.7109 64.3418 30.2695 62.5546 30.5683 62.4785C30.6504 62.4609 30.7383 62.3789 30.7676 62.2968C30.8086 62.1855 30.8437 62.1679 30.8906 62.2148C30.9375 62.2617 30.914 62.3437 30.8027 62.5136ZM55.6465 62.6718C55.875 62.8476 55.8926 62.9707 55.6933 63.0234C55.459 63.082 55.2597 63.0058 55.2187 62.8418C55.1367 62.5019 55.3242 62.4257 55.6465 62.6718ZM54.2285 62.7773C54.6094 62.8769 54.6914 63.0058 54.4863 63.1875C54.2988 63.3457 53.8711 63.4336 53.7539 63.3339C53.6719 63.2636 53.6367 62.8066 53.7129 62.7363C53.7656 62.6777 53.8945 62.6894 54.2285 62.7773ZM53.0683 63.0175C53.1387 63.1464 53.2148 63.3222 53.2324 63.4101L53.2734 63.5742H52.8926C52.289 63.5742 52.0488 63.4101 52.2363 63.123C52.3594 62.9414 52.6758 62.748 52.8222 62.7656C52.8867 62.7773 52.9922 62.8828 53.0683 63.0175ZM51.4687 63C51.6504 63.2636 51.5273 63.9023 51.3398 63.6796C51.1933 63.5039 51.1816 62.8711 51.3281 62.8711C51.3574 62.8711 51.4219 62.9296 51.4687 63ZM54.7851 63.9609C54.7851 64.1074 54.3867 64.4531 54.2226 64.4531C54.123 64.4531 54.0762 64.4121 54.0469 64.3125C54 64.1191 54.0586 64.0429 54.2461 64.0429C54.334 64.0371 54.4687 64.0019 54.5508 63.955C54.7441 63.8437 54.7851 63.8496 54.7851 63.9609ZM53.4375 64.2714C53.4668 64.3359 53.4785 64.4296 53.4609 64.4765C53.3906 64.664 52.8867 64.664 52.8105 64.4765C52.7168 64.2246 53.3027 64.0312 53.4375 64.2714ZM51.9609 64.5351C51.9902 64.7929 51.8847 64.8515 51.7676 64.6347C51.6679 64.4296 51.6972 64.3183 51.8437 64.3476C51.9023 64.3593 51.9492 64.4355 51.9609 64.5351ZM52.2539 65.4609C52.3711 65.5781 52.3359 65.6367 52.166 65.6132C51.9785 65.5898 51.8965 65.3906 52.0722 65.3906C52.1367 65.3906 52.2129 65.4199 52.2539 65.4609Z" fill="white"/>
<path d="M7.82809 5.63672C7.73434 5.77148 7.75192 5.85938 7.87496 5.85938C7.99215 5.85938 8.09176 5.71289 8.05074 5.60156C8.00387 5.47266 7.93356 5.48438 7.82809 5.63672Z" fill="white"/>
<path d="M9.46286 6.04688C9.52732 6.25195 9.78513 6.67969 9.84372 6.67969C9.94333 6.67969 9.90818 6.49805 9.74411 6.20508C9.58591 5.90625 9.39255 5.80078 9.46286 6.04688Z" fill="white"/>
<path d="M10.7227 7.25977C10.7227 7.35938 10.752 7.44141 10.7813 7.44141C10.8164 7.44141 10.8398 7.37695 10.8398 7.30078C10.8398 7.21875 10.8164 7.13672 10.7813 7.11914C10.7461 7.0957 10.7227 7.16016 10.7227 7.25977Z" fill="white"/>
<path d="M24.0468 32.9004C23.9882 33.0469 24.0761 33.2871 24.2578 33.4629C24.4687 33.6797 24.7031 33.6914 24.7968 33.4922C24.8789 33.3047 24.8378 33.2109 24.5976 33.0293C24.3398 32.8418 24.0937 32.7773 24.0468 32.9004Z" fill="white"/>
<path d="M23.2148 34.2539C22.9628 34.4296 23.1035 34.6757 23.5136 34.7754C23.8242 34.8574 23.9707 34.5175 23.7304 34.2773C23.5898 34.1367 23.3964 34.125 23.2148 34.2539Z" fill="white"/>
<path d="M22.6699 36.7969C22.4238 37.0195 22.4179 37.0371 22.5234 37.1133C22.6523 37.2187 23.2324 37.3476 23.3554 37.3008C23.4023 37.2832 23.4375 37.2363 23.4375 37.1894C23.4375 37.0605 23.0976 36.5625 23.0097 36.5625C22.9628 36.5625 22.8105 36.6679 22.6699 36.7969Z" fill="white"/>
<path d="M45.5273 40.0312C45.4511 40.1953 45.5449 40.5117 45.6621 40.4765C45.7675 40.4355 45.7851 40.0547 45.6797 39.9668C45.6035 39.9023 45.58 39.914 45.5273 40.0312Z" fill="white"/>
<path d="M55.5469 44.3555C55.5469 44.4141 55.834 45.4395 55.8984 45.6153C55.9629 45.7793 55.9746 45.7793 56.0156 45.6738C56.1504 45.3574 56.0273 44.8653 55.7461 44.543C55.6406 44.4258 55.5527 44.3379 55.5469 44.3555Z" fill="white"/>
<path d="M55.0195 44.8945C55.0195 45.0176 55.0488 45.1172 55.0781 45.1172C55.1543 45.1172 55.1543 44.8828 55.0781 44.7656C55.0371 44.7012 55.0195 44.7363 55.0195 44.8945Z" fill="white"/>
<path d="M54.6504 45.914C54.5859 45.9784 54.6035 46.2187 54.6679 46.2597C54.7031 46.2772 54.7441 46.2597 54.7558 46.2128C54.7968 46.1132 54.709 45.8612 54.6504 45.914Z" fill="white"/>
<path d="M56.1738 46.2129C56.1035 46.2773 56.127 46.3887 56.2441 46.5293L56.3496 46.6641L56.4199 46.5352C56.5312 46.3301 56.3262 46.0605 56.1738 46.2129Z" fill="white"/>
<path d="M54.8848 46.5058C54.8144 46.5761 54.8437 46.8691 54.9433 47.1211C55.0371 47.3613 55.043 47.3672 55.084 47.2265C55.207 46.7929 55.0723 46.3125 54.8848 46.5058Z" fill="white"/>
<path d="M55.5469 46.7578C55.5469 46.9335 55.623 46.9921 55.6934 46.8749C55.7402 46.7988 55.6699 46.582 55.5996 46.582C55.5703 46.582 55.5469 46.6581 55.5469 46.7578Z" fill="white"/>
<path d="M56.5254 47.2265C56.5078 47.2968 56.5137 47.414 56.543 47.4785C56.5898 47.6015 56.5898 47.6015 56.6309 47.4492C56.6543 47.3613 56.6484 47.25 56.6133 47.1972C56.5664 47.1093 56.5547 47.1093 56.5254 47.2265Z" fill="white"/>
<path d="M41.7011 40.5819C41.6367 40.6464 41.6543 40.8866 41.7187 40.9276C41.7539 40.9452 41.7949 40.9276 41.8066 40.8808C41.8476 40.7812 41.7597 40.5292 41.7011 40.5819Z" fill="white"/>
<path d="M59.3379 43.1015C59.2793 43.166 59.2851 43.4062 59.3496 43.4472C59.4258 43.4941 59.4902 43.2597 59.4316 43.1543C59.4023 43.1015 59.3613 43.084 59.3379 43.1015Z" fill="white"/>
<path d="M64.3945 46.752C64.3945 46.8516 64.4238 46.9336 64.4531 46.9336C64.4883 46.9336 64.5117 46.8691 64.5117 46.793C64.5117 46.7109 64.4883 46.6289 64.4531 46.6113C64.418 46.5879 64.3945 46.6523 64.3945 46.752Z" fill="white"/>
<path d="M43.5761 42.0527C43.5058 42.1172 43.5351 42.3047 43.6113 42.3047C43.7109 42.3047 43.8281 42.1875 43.8281 42.0879C43.8281 42.0117 43.6406 41.9824 43.5761 42.0527Z" fill="white"/>
<path d="M41.543 45.3223C41.543 45.5098 41.5605 45.6504 41.5781 45.627C41.5957 45.6094 41.6133 45.4746 41.6133 45.3223C41.6133 45.1699 41.5957 45.0352 41.5781 45.0117C41.5605 44.9941 41.543 45.1348 41.543 45.3223Z" fill="white"/>
<path d="M40.4121 47.3788C40.3887 47.4023 40.3711 47.4726 40.3711 47.5312C40.3711 47.6191 40.4062 47.6425 40.5352 47.6249C40.6465 47.6132 40.6934 47.5722 40.6934 47.4902C40.6934 47.373 40.5 47.2968 40.4121 47.3788Z" fill="white"/>
<path d="M38.6719 49.3887C38.6719 49.4824 38.7012 49.582 38.7305 49.5996C38.7656 49.623 38.7891 49.5645 38.7891 49.459C38.7891 49.3652 38.7656 49.2656 38.7305 49.248C38.6953 49.2246 38.6719 49.2832 38.6719 49.3887Z" fill="white"/>
<path d="M37.9922 50.0508C38.0332 50.2734 38.3027 50.7422 38.3848 50.7422C38.4609 50.7422 38.3906 50.4785 38.2207 50.1387C38.0625 49.8164 37.9336 49.7695 37.9922 50.0508Z" fill="white"/>
<path d="M37.3828 50.1562C37.3828 50.3027 37.4063 50.3847 37.4414 50.3613C37.4766 50.3437 37.5 50.2499 37.5 50.1562C37.5 50.0624 37.4766 49.9687 37.4414 49.9511C37.4063 49.9277 37.3828 50.0097 37.3828 50.1562Z" fill="white"/>
<path d="M32.2852 57.5977C32.2852 57.6914 32.3086 57.7734 32.3379 57.7734C32.4082 57.7734 32.4492 57.6504 32.4141 57.5215C32.373 57.3574 32.2852 57.4043 32.2852 57.5977Z" fill="white"/>
<path d="M29.8652 59.6484C29.8477 59.7245 29.8535 59.83 29.8828 59.8769C29.9297 59.9589 29.9355 59.9589 29.9766 59.8652C29.9941 59.8066 29.9883 59.7011 29.959 59.6308C29.9004 59.5077 29.9004 59.5077 29.8652 59.6484Z" fill="white"/>
<path d="M46.7578 44.4082C46.7578 44.5078 46.7871 44.5898 46.8164 44.5898C46.8516 44.5898 46.875 44.5254 46.875 44.4492C46.875 44.3672 46.8516 44.2852 46.8164 44.2676C46.7813 44.2441 46.7578 44.3086 46.7578 44.4082Z" fill="white"/>
</g>
<defs>
<clipPath id="clip0_5437_1352">
<rect width="75" height="69.1406" fill="white"/>
</clipPath>
</defs>
</svg>
