<svg width="75" height="75" viewBox="0 0 75 75" fill="none" xmlns="http://www.w3.org/2000/svg">
<g clip-path="url(#clip0_3306_1333)">
<path d="M53.2081 13.0689C54.3331 14.3064 56.5456 15.6252 59.3768 15.6252C62.205 15.6252 64.4175 14.3064 65.5425 13.0689C65.6487 12.9533 65.7644 12.8439 65.8863 12.7438L69.202 10.0563C65.5926 4.0563 61.5832 0.88125 61.2801 0.646875C60.1582 -0.215625 58.5958 -0.215625 57.4708 0.646875C57.1708 0.88125 53.2145 4.0125 49.627 9.9312L52.9457 12.8124C53.0393 12.894 53.1268 12.9784 53.2081 13.0689Z" fill="#7CD2E4"/>
<path d="M22.4004 54.8594C23.3567 56.2938 25.2942 56.6845 26.7348 55.725L31.2504 52.7156V56.25C31.2504 61.4219 27.0441 65.625 21.8754 65.625C16.7067 65.625 12.5004 61.4219 12.5004 56.25V45.6813L14.2285 46.5469C14.6754 46.7719 15.1536 46.875 15.6223 46.875C16.7691 46.875 17.8723 46.2438 18.4223 45.15C19.1942 43.6031 18.5661 41.7281 17.0224 40.9563L12.5006 38.6938V33.1813L14.2286 34.0469C14.6756 34.2719 15.1537 34.375 15.6224 34.375C16.7693 34.375 17.8724 33.7438 18.4225 32.65C19.1943 31.1032 18.5662 29.2282 17.0225 28.4563L12.5007 26.1939V20.6814L14.2288 21.547C14.6757 21.772 15.1538 21.8751 15.6226 21.8751C16.7694 21.8751 17.8726 21.2439 18.4226 20.1501C19.1945 18.6032 18.5663 16.7282 17.0227 15.9564L12.5004 13.6938V3.12495C12.5004 1.39995 11.1035 0 9.37547 0C7.6474 0 6.25052 1.39995 6.25052 3.12495V10.5687L4.52245 9.7062C2.98172 8.93437 1.10672 9.55942 0.331676 11.1032C-0.443373 12.647 0.184752 14.5251 1.72855 15.2969L6.25038 17.5563V23.0688L4.5223 22.2063C2.98172 21.4312 1.10672 22.0563 0.331676 23.6032C-0.443373 25.147 0.184752 27.025 1.72855 27.7969L6.25038 30.0562V35.5687L4.5223 34.7062C2.98172 33.9344 1.10672 34.5593 0.331676 36.1031C-0.443373 37.6469 0.184752 39.525 1.72855 40.2968L6.25038 42.5562V56.25C6.25038 64.8656 13.2598 71.875 21.8754 71.875C30.4911 71.875 37.5005 64.8656 37.5005 56.25V41.0376L23.2661 50.5251C21.8286 51.4813 21.4411 53.425 22.4004 54.8594Z" fill="white"/>
<path d="M69.8057 50.2944C72.6151 45.8912 74.9995 39.6943 74.9995 31.2507C74.9995 25.2069 73.7713 20.0569 72.0557 15.7882L69.9932 17.4633C67.3651 20.232 63.415 21.8758 59.3744 21.8758C55.315 21.8758 51.3463 20.2165 48.7213 17.4227L46.7308 15.6914C44.9964 19.9789 43.7495 25.1632 43.7495 31.2508C43.7495 39.6946 46.1371 45.8915 48.9463 50.2945L44.062 65.4727C43.7151 66.6539 43.6558 67.8007 43.8963 68.8945C44.6962 72.4352 47.8495 75.0007 51.3932 75.0007C53.2963 75.0007 56.0369 74.7788 57.8526 72.832C58.2588 72.3977 58.8526 71.8758 59.3744 71.8758C59.8963 71.8758 60.4931 72.3977 60.8995 72.8351C62.7151 74.7788 65.4557 75.0007 67.3588 75.0007C70.9026 75.0007 74.0557 72.4351 74.8558 68.8789C75.0964 67.8007 75.037 66.6539 74.6683 65.4038L69.8057 50.2944Z" fill="#7CD2E4"/>
</g>
<defs>
<clipPath id="clip0_3306_1333">
<rect width="75" height="75" fill="white"/>
</clipPath>
</defs>
</svg>
