<svg width="15" height="15" viewBox="0 0 15 15" fill="none" xmlns="http://www.w3.org/2000/svg">
<g clip-path="url(#clip0_3305_1271)">
<path d="M14.9946 0.388575C14.985 0.180504 14.8186 0.0139717 14.6105 0.00446021C14.6066 0.004299 14.5115 0 14.3449 0C13.2509 0 9.6581 0.174486 7.11735 2.30249L5.10273 1.99984C5.05119 1.9921 4.99869 1.98818 4.94684 1.98818C4.46529 1.98818 4.04813 2.3149 3.93243 2.78279L3.33772 5.18668C3.26872 5.46547 3.31515 5.75275 3.46836 5.99565C3.62162 6.23854 3.86091 6.40416 4.14212 6.46198L4.47002 6.52942C4.2389 7.28873 4.09924 8.0201 4.01541 8.65382L0.66493 9.4084C0.332994 9.48321 0.0848885 9.73679 0.0175018 10.0703C-0.049885 10.4039 0.0802671 10.734 0.357122 10.9317C0.390547 10.9556 0.427465 10.9743 0.466532 10.9869L2.53881 11.6622C2.91572 11.7849 3.21397 12.0832 3.33686 12.4602L4.01202 14.5324C4.0247 14.5716 4.0434 14.6084 4.06726 14.6419C4.22923 14.8686 4.48083 14.9986 4.75768 14.9986C5.15991 14.9986 5.50248 14.7253 5.59061 14.334L6.346 10.9802C6.87155 10.9104 7.46196 10.8025 8.07828 10.6374L8.03088 11.6495C8.0168 11.9467 8.21762 12.2086 8.50823 12.2722L9.2957 12.4446C9.33858 12.454 9.38249 12.4588 9.42623 12.4588C9.7494 12.4588 10.016 12.2058 10.0331 11.8829L10.1406 9.86544C10.8924 9.48896 11.6203 8.99919 12.2571 8.36246C15.1907 5.42882 15.004 0.592993 14.9946 0.388575ZM12.1212 2.55151L12.0555 2.59068C11.9261 2.66796 11.7837 2.70466 11.6432 2.70466C11.3687 2.70466 11.1012 2.56446 10.9502 2.31162C10.7221 1.92934 10.847 1.43452 11.2293 1.20635L11.2949 1.16718C11.6773 0.938954 12.172 1.06405 12.4002 1.44624C12.6283 1.82852 12.5034 2.32334 12.1212 2.55151Z" fill="#7CD2E4"/>
</g>
<defs>
<clipPath id="clip0_3305_1271">
<rect width="15" height="15" fill="white"/>
</clipPath>
</defs>
</svg>
