<svg width="53" height="54" viewBox="0 0 53 54" fill="none" xmlns="http://www.w3.org/2000/svg">
<mask id="path-1-outside-1_5902_167" maskUnits="userSpaceOnUse" x="-1" y="0" width="54" height="54" fill="black">
<rect fill="white" x="-1" width="54" height="54"/>
<path fill-rule="evenodd" clip-rule="evenodd" d="M24.7401 2.07103C22.3113 2.32512 19.9749 3.00782 17.8449 4.08586C16.9384 4.5446 16.4444 4.8371 15.595 5.4178C13.7375 6.68759 12.1871 8.17779 10.8466 9.98164C10.5382 10.3967 10.1081 11.0248 9.89073 11.3774C9.00494 12.8148 8.22981 14.5311 7.74567 16.1274C7.48341 16.9921 7.18702 18.3527 7.06396 19.2572L6.99067 19.796L5.75952 21.7386C5.08234 22.807 4.0344 24.4588 3.43063 25.4092C2.82693 26.3597 2.25803 27.281 2.16645 27.4564C2.01602 27.7447 2 27.8382 2 28.4268C2 29.0496 2.00915 29.0952 2.20807 29.466C2.32254 29.6793 2.53926 29.9685 2.68963 30.1086C2.99535 30.3934 3.32617 30.5546 5.42176 31.4395L6.87946 32.0551V36.0438C6.87946 39.4363 6.89394 40.104 6.97643 40.5107C7.17652 41.497 7.66895 42.3763 8.43082 43.1078C8.94835 43.6047 9.44888 43.9297 10.0484 44.1583C10.8642 44.4693 11.1579 44.4938 14.066 44.4938H16.7611V48.2469V52H27.901H39.0409L39.042 48.7587C39.0437 43.1793 39.1665 41.6505 39.7875 39.4721C40.2793 37.7473 40.8871 36.5655 42.6928 33.824C43.4693 32.6453 44.1709 31.5584 44.2519 31.4089L44.3994 31.1369L44.2519 31.1793C42.0601 31.8095 40.6244 32.0024 38.5575 31.9446C37.1087 31.904 36.0755 31.7649 34.802 31.4388C34.335 31.3192 33.5993 31.0935 33.1672 30.9372C31.3882 30.2936 29.3002 29.0715 27.901 27.855C25.4042 25.6841 23.6537 23.0896 22.6447 20.0643C21.7438 17.3633 21.5108 14.3576 21.985 11.5534C22.1516 10.568 22.4808 9.32643 22.8129 8.43015C23.2361 7.28846 23.9384 5.89392 24.5771 4.92692C25.1952 3.99113 25.9943 2.97965 26.5448 2.43635C26.7337 2.24988 26.8883 2.07537 26.8883 2.04864C26.8883 1.98536 25.412 2.00074 24.7401 2.07103ZM36.3545 2.09622C36.2797 2.14913 36.1894 2.24746 36.1538 2.31476C36.1182 2.38201 36.0206 3.02792 35.937 3.75019C35.8534 4.47246 35.7787 5.06669 35.7711 5.07072C35.7635 5.07475 35.5141 5.17878 35.2168 5.30192C34.5085 5.59535 33.7613 6.0286 33.0911 6.53455L32.5489 6.9438L31.3653 6.42599C30.1253 5.88356 29.8534 5.82035 29.6109 6.01811C29.5387 6.07711 28.938 7.07854 28.276 8.24361C27.2741 10.007 27.0724 10.4026 27.0724 10.6048C27.0724 10.7585 27.1157 10.8945 27.1904 10.9755C27.2552 11.0459 27.7542 11.435 28.299 11.8402L29.2897 12.5769L29.2518 12.8251C29.0732 13.9929 29.0565 14.7532 29.1892 15.6787C29.2381 16.0199 29.279 16.3182 29.28 16.3416C29.2811 16.3651 28.8119 16.738 28.2372 17.1703C27.6625 17.6027 27.1654 18.0074 27.1324 18.0697C26.9664 18.3831 27.0435 18.5623 28.2651 20.7033C28.9211 21.853 29.5049 22.8462 29.5624 22.9105C29.62 22.9748 29.7578 23.0445 29.8686 23.0656C30.0339 23.0969 30.2937 23.0066 31.3108 22.5646L32.5514 22.0254L32.712 22.1547C32.8003 22.2258 33.1597 22.4815 33.5107 22.7228C34.1696 23.1759 34.8545 23.5484 35.389 23.7443C35.5578 23.8061 35.7161 23.8739 35.7408 23.8949C35.7654 23.9159 35.8552 24.5274 35.9403 25.2537C36.0254 25.98 36.1234 26.6278 36.1581 26.6934C36.1928 26.7589 36.3019 26.8548 36.4005 26.9063C36.5515 26.9852 36.9617 27 39.0032 27C40.429 27 41.4915 26.9751 41.584 26.9395C41.8871 26.8231 41.9566 26.5948 42.1122 25.205L42.2577 23.9054L42.5367 23.7996C42.9893 23.6278 44.0145 23.0947 44.4114 22.8247C44.6139 22.6869 44.9375 22.4525 45.1302 22.3038L45.4809 22.0336L46.6906 22.5627C47.356 22.8537 47.9781 23.0918 48.073 23.0918C48.1763 23.0918 48.3182 23.0234 48.4268 22.9212C48.5265 22.8274 49.1406 21.8154 49.7916 20.6725C50.7306 19.0237 50.9752 18.5478 50.9755 18.3695C50.9758 18.2458 50.937 18.0972 50.8893 18.0392C50.8417 17.9812 50.3368 17.5833 49.7674 17.1548C48.8146 16.438 48.7348 16.363 48.7649 16.2134C48.9456 15.3132 48.9732 14.1021 48.8343 13.1672C48.7862 12.8435 48.7519 12.5764 48.758 12.5734C48.7641 12.5705 49.2313 12.2224 49.7962 11.7999C50.8506 11.0111 51.0617 10.7767 50.9861 10.478C50.9269 10.244 48.553 6.13021 48.4125 6.01811C48.3386 5.95918 48.1815 5.91129 48.0633 5.91166C47.9312 5.91216 47.3881 6.11266 46.6536 6.43213L45.4587 6.95186L45.2437 6.76104C44.7091 6.2866 43.3471 5.48468 42.5834 5.19479C42.422 5.1335 42.28 5.06656 42.2679 5.04603C42.2558 5.0255 42.185 4.45037 42.1104 3.76799C42.0359 3.08561 41.9349 2.44045 41.886 2.33431C41.837 2.2281 41.7279 2.10949 41.6436 2.07066C41.5369 2.02153 40.729 2 38.9903 2C36.8308 2 36.4719 2.01309 36.3545 2.09622ZM39.8122 10.1937C40.8983 10.3942 42.0154 11.1467 42.641 12.0993C43.083 12.7722 43.3344 13.6359 43.3363 14.4878C43.3391 15.7944 42.7093 17.1067 41.6919 17.9137C41.2671 18.2507 40.6182 18.5772 40.0843 18.7225C39.5536 18.8669 38.5346 18.8693 37.9975 18.7274C37.1156 18.4944 36.2076 17.9197 35.6987 17.2724C35.1645 16.5929 34.8585 15.8697 34.7385 15.0034C34.6531 14.3859 34.7298 13.6855 34.9542 13.0331C35.1756 12.3898 35.4531 11.9568 36.0069 11.3908C36.4189 10.9697 36.5993 10.8373 37.081 10.602C37.3994 10.4466 37.8533 10.2783 38.0896 10.228C38.6109 10.1172 39.3207 10.103 39.8122 10.1937Z"/>
</mask>
<path fill-rule="evenodd" clip-rule="evenodd" d="M24.7401 2.07103C22.3113 2.32512 19.9749 3.00782 17.8449 4.08586C16.9384 4.5446 16.4444 4.8371 15.595 5.4178C13.7375 6.68759 12.1871 8.17779 10.8466 9.98164C10.5382 10.3967 10.1081 11.0248 9.89073 11.3774C9.00494 12.8148 8.22981 14.5311 7.74567 16.1274C7.48341 16.9921 7.18702 18.3527 7.06396 19.2572L6.99067 19.796L5.75952 21.7386C5.08234 22.807 4.0344 24.4588 3.43063 25.4092C2.82693 26.3597 2.25803 27.281 2.16645 27.4564C2.01602 27.7447 2 27.8382 2 28.4268C2 29.0496 2.00915 29.0952 2.20807 29.466C2.32254 29.6793 2.53926 29.9685 2.68963 30.1086C2.99535 30.3934 3.32617 30.5546 5.42176 31.4395L6.87946 32.0551V36.0438C6.87946 39.4363 6.89394 40.104 6.97643 40.5107C7.17652 41.497 7.66895 42.3763 8.43082 43.1078C8.94835 43.6047 9.44888 43.9297 10.0484 44.1583C10.8642 44.4693 11.1579 44.4938 14.066 44.4938H16.7611V48.2469V52H27.901H39.0409L39.042 48.7587C39.0437 43.1793 39.1665 41.6505 39.7875 39.4721C40.2793 37.7473 40.8871 36.5655 42.6928 33.824C43.4693 32.6453 44.1709 31.5584 44.2519 31.4089L44.3994 31.1369L44.2519 31.1793C42.0601 31.8095 40.6244 32.0024 38.5575 31.9446C37.1087 31.904 36.0755 31.7649 34.802 31.4388C34.335 31.3192 33.5993 31.0935 33.1672 30.9372C31.3882 30.2936 29.3002 29.0715 27.901 27.855C25.4042 25.6841 23.6537 23.0896 22.6447 20.0643C21.7438 17.3633 21.5108 14.3576 21.985 11.5534C22.1516 10.568 22.4808 9.32643 22.8129 8.43015C23.2361 7.28846 23.9384 5.89392 24.5771 4.92692C25.1952 3.99113 25.9943 2.97965 26.5448 2.43635C26.7337 2.24988 26.8883 2.07537 26.8883 2.04864C26.8883 1.98536 25.412 2.00074 24.7401 2.07103ZM36.3545 2.09622C36.2797 2.14913 36.1894 2.24746 36.1538 2.31476C36.1182 2.38201 36.0206 3.02792 35.937 3.75019C35.8534 4.47246 35.7787 5.06669 35.7711 5.07072C35.7635 5.07475 35.5141 5.17878 35.2168 5.30192C34.5085 5.59535 33.7613 6.0286 33.0911 6.53455L32.5489 6.9438L31.3653 6.42599C30.1253 5.88356 29.8534 5.82035 29.6109 6.01811C29.5387 6.07711 28.938 7.07854 28.276 8.24361C27.2741 10.007 27.0724 10.4026 27.0724 10.6048C27.0724 10.7585 27.1157 10.8945 27.1904 10.9755C27.2552 11.0459 27.7542 11.435 28.299 11.8402L29.2897 12.5769L29.2518 12.8251C29.0732 13.9929 29.0565 14.7532 29.1892 15.6787C29.2381 16.0199 29.279 16.3182 29.28 16.3416C29.2811 16.3651 28.8119 16.738 28.2372 17.1703C27.6625 17.6027 27.1654 18.0074 27.1324 18.0697C26.9664 18.3831 27.0435 18.5623 28.2651 20.7033C28.9211 21.853 29.5049 22.8462 29.5624 22.9105C29.62 22.9748 29.7578 23.0445 29.8686 23.0656C30.0339 23.0969 30.2937 23.0066 31.3108 22.5646L32.5514 22.0254L32.712 22.1547C32.8003 22.2258 33.1597 22.4815 33.5107 22.7228C34.1696 23.1759 34.8545 23.5484 35.389 23.7443C35.5578 23.8061 35.7161 23.8739 35.7408 23.8949C35.7654 23.9159 35.8552 24.5274 35.9403 25.2537C36.0254 25.98 36.1234 26.6278 36.1581 26.6934C36.1928 26.7589 36.3019 26.8548 36.4005 26.9063C36.5515 26.9852 36.9617 27 39.0032 27C40.429 27 41.4915 26.9751 41.584 26.9395C41.8871 26.8231 41.9566 26.5948 42.1122 25.205L42.2577 23.9054L42.5367 23.7996C42.9893 23.6278 44.0145 23.0947 44.4114 22.8247C44.6139 22.6869 44.9375 22.4525 45.1302 22.3038L45.4809 22.0336L46.6906 22.5627C47.356 22.8537 47.9781 23.0918 48.073 23.0918C48.1763 23.0918 48.3182 23.0234 48.4268 22.9212C48.5265 22.8274 49.1406 21.8154 49.7916 20.6725C50.7306 19.0237 50.9752 18.5478 50.9755 18.3695C50.9758 18.2458 50.937 18.0972 50.8893 18.0392C50.8417 17.9812 50.3368 17.5833 49.7674 17.1548C48.8146 16.438 48.7348 16.363 48.7649 16.2134C48.9456 15.3132 48.9732 14.1021 48.8343 13.1672C48.7862 12.8435 48.7519 12.5764 48.758 12.5734C48.7641 12.5705 49.2313 12.2224 49.7962 11.7999C50.8506 11.0111 51.0617 10.7767 50.9861 10.478C50.9269 10.244 48.553 6.13021 48.4125 6.01811C48.3386 5.95918 48.1815 5.91129 48.0633 5.91166C47.9312 5.91216 47.3881 6.11266 46.6536 6.43213L45.4587 6.95186L45.2437 6.76104C44.7091 6.2866 43.3471 5.48468 42.5834 5.19479C42.422 5.1335 42.28 5.06656 42.2679 5.04603C42.2558 5.0255 42.185 4.45037 42.1104 3.76799C42.0359 3.08561 41.9349 2.44045 41.886 2.33431C41.837 2.2281 41.7279 2.10949 41.6436 2.07066C41.5369 2.02153 40.729 2 38.9903 2C36.8308 2 36.4719 2.01309 36.3545 2.09622ZM39.8122 10.1937C40.8983 10.3942 42.0154 11.1467 42.641 12.0993C43.083 12.7722 43.3344 13.6359 43.3363 14.4878C43.3391 15.7944 42.7093 17.1067 41.6919 17.9137C41.2671 18.2507 40.6182 18.5772 40.0843 18.7225C39.5536 18.8669 38.5346 18.8693 37.9975 18.7274C37.1156 18.4944 36.2076 17.9197 35.6987 17.2724C35.1645 16.5929 34.8585 15.8697 34.7385 15.0034C34.6531 14.3859 34.7298 13.6855 34.9542 13.0331C35.1756 12.3898 35.4531 11.9568 36.0069 11.3908C36.4189 10.9697 36.5993 10.8373 37.081 10.602C37.3994 10.4466 37.8533 10.2783 38.0896 10.228C38.6109 10.1172 39.3207 10.103 39.8122 10.1937Z" fill="white"/>
<path fill-rule="evenodd" clip-rule="evenodd" d="M24.7401 2.07103C22.3113 2.32512 19.9749 3.00782 17.8449 4.08586C16.9384 4.5446 16.4444 4.8371 15.595 5.4178C13.7375 6.68759 12.1871 8.17779 10.8466 9.98164C10.5382 10.3967 10.1081 11.0248 9.89073 11.3774C9.00494 12.8148 8.22981 14.5311 7.74567 16.1274C7.48341 16.9921 7.18702 18.3527 7.06396 19.2572L6.99067 19.796L5.75952 21.7386C5.08234 22.807 4.0344 24.4588 3.43063 25.4092C2.82693 26.3597 2.25803 27.281 2.16645 27.4564C2.01602 27.7447 2 27.8382 2 28.4268C2 29.0496 2.00915 29.0952 2.20807 29.466C2.32254 29.6793 2.53926 29.9685 2.68963 30.1086C2.99535 30.3934 3.32617 30.5546 5.42176 31.4395L6.87946 32.0551V36.0438C6.87946 39.4363 6.89394 40.104 6.97643 40.5107C7.17652 41.497 7.66895 42.3763 8.43082 43.1078C8.94835 43.6047 9.44888 43.9297 10.0484 44.1583C10.8642 44.4693 11.1579 44.4938 14.066 44.4938H16.7611V48.2469V52H27.901H39.0409L39.042 48.7587C39.0437 43.1793 39.1665 41.6505 39.7875 39.4721C40.2793 37.7473 40.8871 36.5655 42.6928 33.824C43.4693 32.6453 44.1709 31.5584 44.2519 31.4089L44.3994 31.1369L44.2519 31.1793C42.0601 31.8095 40.6244 32.0024 38.5575 31.9446C37.1087 31.904 36.0755 31.7649 34.802 31.4388C34.335 31.3192 33.5993 31.0935 33.1672 30.9372C31.3882 30.2936 29.3002 29.0715 27.901 27.855C25.4042 25.6841 23.6537 23.0896 22.6447 20.0643C21.7438 17.3633 21.5108 14.3576 21.985 11.5534C22.1516 10.568 22.4808 9.32643 22.8129 8.43015C23.2361 7.28846 23.9384 5.89392 24.5771 4.92692C25.1952 3.99113 25.9943 2.97965 26.5448 2.43635C26.7337 2.24988 26.8883 2.07537 26.8883 2.04864C26.8883 1.98536 25.412 2.00074 24.7401 2.07103ZM36.3545 2.09622C36.2797 2.14913 36.1894 2.24746 36.1538 2.31476C36.1182 2.38201 36.0206 3.02792 35.937 3.75019C35.8534 4.47246 35.7787 5.06669 35.7711 5.07072C35.7635 5.07475 35.5141 5.17878 35.2168 5.30192C34.5085 5.59535 33.7613 6.0286 33.0911 6.53455L32.5489 6.9438L31.3653 6.42599C30.1253 5.88356 29.8534 5.82035 29.6109 6.01811C29.5387 6.07711 28.938 7.07854 28.276 8.24361C27.2741 10.007 27.0724 10.4026 27.0724 10.6048C27.0724 10.7585 27.1157 10.8945 27.1904 10.9755C27.2552 11.0459 27.7542 11.435 28.299 11.8402L29.2897 12.5769L29.2518 12.8251C29.0732 13.9929 29.0565 14.7532 29.1892 15.6787C29.2381 16.0199 29.279 16.3182 29.28 16.3416C29.2811 16.3651 28.8119 16.738 28.2372 17.1703C27.6625 17.6027 27.1654 18.0074 27.1324 18.0697C26.9664 18.3831 27.0435 18.5623 28.2651 20.7033C28.9211 21.853 29.5049 22.8462 29.5624 22.9105C29.62 22.9748 29.7578 23.0445 29.8686 23.0656C30.0339 23.0969 30.2937 23.0066 31.3108 22.5646L32.5514 22.0254L32.712 22.1547C32.8003 22.2258 33.1597 22.4815 33.5107 22.7228C34.1696 23.1759 34.8545 23.5484 35.389 23.7443C35.5578 23.8061 35.7161 23.8739 35.7408 23.8949C35.7654 23.9159 35.8552 24.5274 35.9403 25.2537C36.0254 25.98 36.1234 26.6278 36.1581 26.6934C36.1928 26.7589 36.3019 26.8548 36.4005 26.9063C36.5515 26.9852 36.9617 27 39.0032 27C40.429 27 41.4915 26.9751 41.584 26.9395C41.8871 26.8231 41.9566 26.5948 42.1122 25.205L42.2577 23.9054L42.5367 23.7996C42.9893 23.6278 44.0145 23.0947 44.4114 22.8247C44.6139 22.6869 44.9375 22.4525 45.1302 22.3038L45.4809 22.0336L46.6906 22.5627C47.356 22.8537 47.9781 23.0918 48.073 23.0918C48.1763 23.0918 48.3182 23.0234 48.4268 22.9212C48.5265 22.8274 49.1406 21.8154 49.7916 20.6725C50.7306 19.0237 50.9752 18.5478 50.9755 18.3695C50.9758 18.2458 50.937 18.0972 50.8893 18.0392C50.8417 17.9812 50.3368 17.5833 49.7674 17.1548C48.8146 16.438 48.7348 16.363 48.7649 16.2134C48.9456 15.3132 48.9732 14.1021 48.8343 13.1672C48.7862 12.8435 48.7519 12.5764 48.758 12.5734C48.7641 12.5705 49.2313 12.2224 49.7962 11.7999C50.8506 11.0111 51.0617 10.7767 50.9861 10.478C50.9269 10.244 48.553 6.13021 48.4125 6.01811C48.3386 5.95918 48.1815 5.91129 48.0633 5.91166C47.9312 5.91216 47.3881 6.11266 46.6536 6.43213L45.4587 6.95186L45.2437 6.76104C44.7091 6.2866 43.3471 5.48468 42.5834 5.19479C42.422 5.1335 42.28 5.06656 42.2679 5.04603C42.2558 5.0255 42.185 4.45037 42.1104 3.76799C42.0359 3.08561 41.9349 2.44045 41.886 2.33431C41.837 2.2281 41.7279 2.10949 41.6436 2.07066C41.5369 2.02153 40.729 2 38.9903 2C36.8308 2 36.4719 2.01309 36.3545 2.09622ZM39.8122 10.1937C40.8983 10.3942 42.0154 11.1467 42.641 12.0993C43.083 12.7722 43.3344 13.6359 43.3363 14.4878C43.3391 15.7944 42.7093 17.1067 41.6919 17.9137C41.2671 18.2507 40.6182 18.5772 40.0843 18.7225C39.5536 18.8669 38.5346 18.8693 37.9975 18.7274C37.1156 18.4944 36.2076 17.9197 35.6987 17.2724C35.1645 16.5929 34.8585 15.8697 34.7385 15.0034C34.6531 14.3859 34.7298 13.6855 34.9542 13.0331C35.1756 12.3898 35.4531 11.9568 36.0069 11.3908C36.4189 10.9697 36.5993 10.8373 37.081 10.602C37.3994 10.4466 37.8533 10.2783 38.0896 10.228C38.6109 10.1172 39.3207 10.103 39.8122 10.1937Z" stroke="black" stroke-opacity="0.65" stroke-width="4" mask="url(#path-1-outside-1_5902_167)"/>
</svg>
