<svg width="31" height="56" viewBox="0 0 31 56" fill="none" xmlns="http://www.w3.org/2000/svg">
<path fill-rule="evenodd" clip-rule="evenodd" d="M1.63569 0.0953993C1.78728 0.149461 2.02782 0.296889 2.17023 0.422959C2.67172 0.867029 12.2273 10.9213 12.3052 11.0868C12.3485 11.1791 12.4147 11.3819 12.4521 11.5377C12.5112 11.7836 12.5081 11.8592 12.4282 12.1109C12.3103 12.482 11.9575 12.8598 11.6148 12.9819C11.2985 13.0947 11.1477 13.0945 10.8175 12.9809C10.5761 12.8979 10.1189 12.4356 5.35782 7.46005C1.69284 3.63008 0.137285 1.96857 0.0792885 1.82198C-0.0233955 1.56268 -0.0268745 1.10754 0.0719604 0.860154C0.199608 0.540589 0.513542 0.227955 0.831644 0.10345C1.17941 -0.0326282 1.27408 -0.0335784 1.63569 0.0953993ZM26.446 8.8196C26.8619 8.96781 27.149 9.25518 27.2828 9.65715C27.3546 9.87317 27.3652 10.5575 27.3652 15.0227V20.1406L28.3965 21.2044C28.9637 21.7895 29.628 22.4553 29.8728 22.684C30.4974 23.2675 30.8128 23.6806 30.9152 24.0491C30.9916 24.3236 31 25.6579 31 37.4316C31 50.3182 30.9984 50.5169 30.8926 51.035C30.8335 51.3241 30.7242 51.7653 30.6497 52.0153C30.3842 52.9062 29.6213 54.0446 28.9003 54.6259C28.0015 55.3505 27.3895 55.6438 26.2555 55.8936C25.7349 56.0082 25.6298 56.0101 20.7586 55.9907C15.4972 55.9698 15.4725 55.9685 14.7064 55.6937C12.8274 55.0196 11.4635 53.4725 10.9619 51.4464L10.7946 50.7702V37.4936C10.7946 25.2726 10.8016 24.195 10.8833 23.9414C10.9593 23.7053 11.1111 23.5222 11.9462 22.6596C12.482 22.1061 13.2602 21.3136 13.6755 20.8985L14.4305 20.1438L14.4299 14.9566C14.4295 10.5517 14.4411 9.74224 14.5067 9.5895C14.6613 9.2294 15.0169 8.91906 15.4125 8.79875C15.6676 8.72121 16.3242 8.7112 20.9322 8.71467C25.8301 8.71836 26.1805 8.72501 26.446 8.8196ZM11.6782 13.8206C11.9544 13.9464 12.3268 14.3839 12.4273 14.7005C12.5075 14.953 12.5101 15.0251 12.4481 15.2953C12.3568 15.6936 12.2152 15.9083 11.8963 16.1324L11.6377 16.3141H7.71843C5.08473 16.3141 3.74977 16.2947 3.64864 16.2548C3.29617 16.1158 2.88517 15.4979 2.88399 15.1052C2.88255 14.6257 3.20583 14.0681 3.59513 13.8785L3.87234 13.7435L7.69427 13.7451C10.7402 13.7464 11.5491 13.7617 11.6782 13.8206ZM11.6766 17.1166C12.0379 17.2929 12.3127 17.6239 12.4209 18.013C12.5012 18.3022 12.5013 18.351 12.4218 18.6371C12.3648 18.8422 12.2483 19.0556 12.0783 19.2661C11.9368 19.4413 9.59956 21.9023 6.8845 24.735C2.37239 29.4426 1.92536 29.8932 1.6846 29.9763C1.32091 30.1019 1.03289 30.0894 0.71859 29.9344C0.400114 29.7773 0.254932 29.6227 0.108364 29.2846C-0.0239868 28.9793 -0.0317917 28.6692 0.0836143 28.3022C0.162992 28.0498 0.601055 27.5757 5.30869 22.6484C9.75116 17.9985 10.4869 17.2509 10.7411 17.1281C11.106 16.9519 11.3334 16.9491 11.6766 17.1166ZM13.6918 51.1555C13.5756 51.277 13.6244 51.4948 13.8483 51.8542C14.2395 52.4822 14.8267 52.9423 15.5857 53.2154C15.8785 53.3208 16.0667 53.3247 20.8311 53.3247C25.1534 53.3247 25.8136 53.3137 26.0975 53.2367C26.7375 53.0633 27.3741 52.6281 27.7626 52.0986C28.164 51.5515 28.2588 51.2617 28.0734 51.1488C27.9286 51.0606 13.7762 51.0671 13.6918 51.1555Z" fill="white"/>
</svg>
