<svg width="17" height="17" viewBox="0 0 17 17" fill="none" xmlns="http://www.w3.org/2000/svg">
<g clip-path="url(#clip0_4482_4930)">
<path d="M12.7559 16.5698V11.0074C12.7559 10.7519 12.8599 10.52 13.0277 10.3522C13.1955 10.1844 13.4273 10.0803 13.6829 10.0803H15.6607V8.44287H15.6592C15.6591 8.28583 15.5789 8.1328 15.4343 8.04634C14.5836 7.53696 14.1619 6.47397 14.1619 5.44541C14.1619 4.56348 14.4999 3.81505 15.006 3.22529C15.4501 2.70781 15.2005 1.90382 14.5422 1.72786L10.9388 0.764814L10.9387 0.765185C10.7346 0.710458 10.5127 0.801772 10.4101 0.996576C9.76468 2.2221 8.21537 2.65346 7.03422 1.94355C6.66797 1.72344 6.36523 1.40862 6.15902 1.03292C6.06774 0.829367 5.83981 0.716206 5.61732 0.77566L2.05452 1.72786C1.3962 1.90378 1.14661 2.70781 1.59069 3.22529C2.75259 4.57924 2.77092 7.05217 1.17556 8.04486C1.02436 8.12118 0.920654 8.27792 0.920654 8.45888V10.0804H2.89835C3.15394 10.0804 3.38576 10.1845 3.55353 10.3522C3.72132 10.52 3.8254 10.7519 3.8254 11.0074V16.5699H12.7559V16.5698ZM5.21705 10.0805H11.3653C11.6213 10.0805 11.8289 10.288 11.8289 10.544C11.8289 10.8 11.6213 11.0075 11.3653 11.0075H5.21705C4.96106 11.0075 4.75353 10.8 4.75353 10.544C4.75353 10.288 4.96106 10.0805 5.21705 10.0805ZM5.21705 11.9346H11.3653C11.6213 11.9346 11.8289 12.1421 11.8289 12.3981C11.8289 12.6541 11.6213 12.8616 11.3653 12.8616H5.21705C4.96106 12.8616 4.75353 12.6541 4.75353 12.3981C4.75353 12.1421 4.96106 11.9346 5.21705 11.9346ZM5.21705 13.7887H11.3653C11.6213 13.7887 11.8289 13.9962 11.8289 14.2522C11.8289 14.5082 11.6213 14.7157 11.3653 14.7157H5.21705C4.96106 14.7157 4.75353 14.5082 4.75353 14.2522C4.75353 13.9962 4.96106 13.7887 5.21705 13.7887Z" fill="#5F99D7"/>
<path d="M2.89275 11.008C2.89284 11.0079 2.8929 11.0079 2.89275 11.0079L2.89262 11.008L2.89247 11.0081C2.89253 11.0082 2.89259 11.0081 2.89259 11.008L2.89265 11.0079C2.89271 11.0078 2.89268 11.0078 2.89265 11.0079H0.915039V16.1068C0.915039 16.3628 1.12257 16.5703 1.37856 16.5703H2.89275V11.008Z" fill="#5F99D7"/>
<path d="M13.6773 11.0079L13.6775 11.0081C13.6775 11.0081 13.6774 11.008 13.6773 11.0079L13.6773 11.0078C13.6773 11.0078 13.6772 11.0079 13.6773 11.0079V16.5704H15.1915C15.4475 16.5704 15.655 16.3628 15.655 16.1068V11.0078H13.6773V11.0079Z" fill="#5F99D7"/>
</g>
<defs>
<clipPath id="clip0_4482_4930">
<rect width="15.8203" height="15.8203" fill="white" transform="translate(0.375 0.749512)"/>
</clipPath>
</defs>
</svg>
