<svg width="49" height="36" viewBox="0 0 49 36" fill="none" xmlns="http://www.w3.org/2000/svg">
<path fill-rule="evenodd" clip-rule="evenodd" d="M39.3956 4.1586L32.624 8.32298L30.3911 6.70005C26.3484 3.76142 24.5333 2.71937 22.1725 1.98222C19.5947 1.17728 18.8716 1.12636 9.05354 1.05946L0 0.997685V29.9262H17.7376L17.7401 29.0091C17.7469 26.5753 18.7437 24.2275 20.5281 22.442C22.4896 20.4794 24.6134 19.5912 27.3454 19.5912C30.0245 19.5912 32.1928 20.4816 34.083 22.3578C35.8133 24.0755 36.7008 26.0491 36.8957 28.6133L36.9971 29.9457L45.6003 29.8528L46.3575 29.4562C47.3183 28.9531 48.2296 27.9294 48.6625 26.8665C48.9929 26.0556 49 25.9228 49 20.6091C49 15.2954 48.9929 15.1626 48.6625 14.3517C48.2303 13.2908 47.3948 12.3519 46.3918 11.8005L45.6003 11.3653L36.5837 11.2186L37.9879 10.3497C38.7603 9.87182 41.4541 8.2348 43.9744 6.71178C46.4946 5.18877 48.6398 3.8339 48.7413 3.70097C49.0915 3.24303 48.9521 2.5232 48.314 1.49435C47.9773 0.951614 47.5708 0.392147 47.4107 0.25085C46.7488 -0.332973 46.5076 -0.215299 39.3956 4.1586ZM11.825 4.92921C12.1909 5.09501 12.8999 5.65345 13.4007 6.17036C14.5745 7.38203 17.8789 11.1852 17.8826 11.3287C17.884 11.3891 14.8484 11.4387 11.1367 11.4387H4.38798L4.48509 8.99425C4.53845 7.6498 4.5822 6.09113 4.5822 5.53034V4.51075L7.87104 4.56929C10.7973 4.62153 11.2332 4.66114 11.825 4.92921Z" fill="white"/>
<path d="M33.3804 29.6471C33.3804 33.1557 30.5782 36 27.1216 36C23.6649 36 20.8627 33.1557 20.8627 29.6471C20.8627 26.1384 23.6649 23.2941 27.1216 23.2941C30.5782 23.2941 33.3804 26.1384 33.3804 29.6471Z" fill="white"/>
</svg>
