<svg width="75" height="75" viewBox="0 0 75 75" fill="none" xmlns="http://www.w3.org/2000/svg">
<path d="M54.9109 24.1137L52.4407 18.9007C52.2506 18.4255 51.7903 18.1141 51.2788 18.1141H50.0281V16.8634C50.0281 16.173 49.4678 15.6127 48.7774 15.6127H38.7718C38.0814 15.6127 37.5211 16.173 37.5211 16.8634V18.1141H33.769C33.6877 18.1215 33.6064 18.1303 33.5251 18.1378L27.3917 19.3648H23.7634C23.073 19.3648 22.5127 19.9251 22.5127 20.6155V21.8662H10.0057C10.0057 21.1758 9.4466 20.6155 8.75503 20.6155H1.2507C0.560309 20.6155 0 21.1758 0 21.8662V24.3676C0 25.0579 0.560309 25.6183 1.2507 25.6183H8.75489C9.44645 25.6183 10.0056 25.0579 10.0056 24.3676H22.5126V25.6183C22.5126 26.3086 23.0729 26.869 23.7633 26.869H26.2647H53.7802C54.4706 26.869 55.0309 26.3086 55.0309 25.6183V24.649C55.0309 24.4639 54.9897 24.2813 54.9109 24.1137Z" fill="#AFE243"/>
<path d="M71.2899 33.1226H68.7885V30.6212C68.7885 29.9308 68.2282 29.3705 67.5378 29.3705H16.2589C15.5685 29.3705 15.0082 29.9308 15.0082 30.6212V33.1226H6.25332C5.92182 33.1226 5.60292 33.2538 5.36913 33.4891L0.366337 38.4917C-0.121461 38.9795 -0.121461 39.7725 0.366337 40.2603L4.11843 44.0124C4.60623 44.5002 5.39916 44.5002 5.88696 44.0124L8.90618 40.9931C9.14129 40.758 9.45902 40.6266 9.79037 40.6266H71.2899C71.9803 40.6266 72.5406 40.0663 72.5406 39.3759V34.3731C72.5406 33.6829 71.9803 33.1226 71.2899 33.1226Z" fill="#AFE243"/>
<path d="M74.8134 47.3818C74.1931 44.8379 72.2745 43.1281 70.0395 43.1281C70.0282 43.1281 70.0157 43.1268 70.0044 43.1281H12.4722C10.2372 43.1281 8.31856 44.8379 7.69819 47.3818C7.12412 49.7394 7.81201 52.7748 10.6011 54.2193L19.356 59.2221C19.5448 59.331 19.7587 59.3872 19.9764 59.3872H62.5353C62.7529 59.3872 62.9668 59.331 63.1556 59.2221L71.8655 54.2444C74.7009 52.7748 75.3875 49.7394 74.8134 47.3818Z" fill="#AFE243"/>
</svg>
