<svg width="46" height="46" viewBox="0 0 46 46" fill="none" xmlns="http://www.w3.org/2000/svg">
<path fill-rule="evenodd" clip-rule="evenodd" d="M5.32727 0.0620307C4.03296 0.179783 2.6563 0.825601 1.75226 1.73893C0.687261 2.81508 0.297313 3.72028 0.102766 5.56813C0.0378107 6.18473 -0.00165336 13.0288 5.31939e-05 23.3761C0.002933 41.3015 -0.00879952 40.8719 0.516392 42.2701C0.999133 43.5552 2.52565 45.108 3.76268 45.5726C4.08394 45.6932 4.76176 45.8474 5.26904 45.9151C6.55183 46.0864 41.0213 45.9737 41.6449 45.7961C43.0315 45.4012 44.6198 44.1162 45.2968 42.8415C46.0738 41.3785 46.0224 42.8815 45.9789 22.8944C45.9424 6.13634 45.9275 4.91653 45.7505 4.23892C45.2338 2.26165 43.2903 0.48701 41.2182 0.100568C40.761 0.015358 35.5994 -0.0120462 23.1394 0.00465321C13.5481 0.0174989 5.53259 0.0434044 5.32727 0.0620307ZM40.4481 4.93869C40.6061 5.04253 40.82 5.25716 40.9234 5.4157C41.1012 5.68803 41.1116 6.65648 41.1116 23.0157V40.3275L40.8886 40.6298C40.4017 41.2899 41.6477 41.2481 23.0044 41.2307L5.96392 41.215L5.60299 40.9912C4.85296 40.5259 4.90234 41.7999 4.90127 22.8893C4.90031 4.62215 4.87237 5.58098 5.41868 5.08492C5.53952 4.97509 5.79647 4.84738 5.98952 4.80103C6.18258 4.75478 13.9502 4.72438 23.2508 4.73338C39.2111 4.7489 40.1772 4.76046 40.4481 4.93869ZM12.8201 9.47762L12.5801 9.52836V23.1695V36.8106H15.5666H18.5531V32.7506V28.6907L19.4863 28.6512C19.9997 28.6296 21.3456 28.6021 22.4773 28.5901C24.7476 28.5662 25.5783 28.4724 27.0835 28.0693C30.912 27.0441 33.4338 24.272 34.0186 20.4455C34.4445 17.6589 33.4312 14.251 31.5941 12.2909C30.3085 10.9194 28.9687 10.1995 26.7999 9.71516C25.7963 9.491 25.4876 9.48008 19.4063 9.45407C15.9159 9.43908 12.952 9.44979 12.8201 9.47762ZM21.5395 14.8059C22.6248 14.8352 23.8967 14.9113 24.366 14.9749C26.3446 15.2435 27.5277 16.3789 27.822 18.2914C28.1795 20.6155 27.1282 22.3142 24.8587 23.0792C24.4801 23.2068 23.7049 23.2566 21.5129 23.2941L18.6597 23.3432V18.9995V14.6558L19.113 14.7042C19.3624 14.7309 20.4543 14.7766 21.5395 14.8059Z" fill="white"/>
</svg>
