<svg width="15" height="15" viewBox="0 0 15 15" fill="none" xmlns="http://www.w3.org/2000/svg">
<path d="M12.6625 12.3441C13.064 14.1866 11.0633 14.5864 10.1821 14.3465C9.3008 14.1066 7.50332 14.0667 7.50332 14.0667C7.50332 14.0667 5.70085 14.1067 4.8196 14.3465C3.93835 14.5881 1.93598 14.1866 2.33579 12.3441C2.7356 10.5017 4.4981 10.5816 4.9812 8.09783C5.46265 5.61401 7.505 5.77393 7.505 5.77393C7.505 5.77393 9.54235 5.61401 10.0238 8.09783C10.5036 10.5816 12.2627 10.5017 12.6625 12.3441ZM9.35246 5.61235C10.4369 5.92552 11.6347 5.06928 12.0295 3.69992C12.4243 2.33224 11.8663 0.969545 10.7818 0.656377C9.69729 0.343182 8.49955 1.19945 8.10472 2.56881C7.70992 3.93649 8.26799 5.29918 9.35246 5.61235ZM13.847 5.11428C12.8025 4.68779 11.5198 5.41081 10.9817 6.73015C10.4436 8.04954 10.8534 9.46387 11.8979 9.88864C12.9424 10.3134 14.2251 9.5921 14.7632 8.27274C15.3013 6.95338 14.8915 5.54074 13.847 5.11428ZM5.64589 5.61235C6.73037 5.29916 7.28844 3.93649 6.89364 2.56881C6.49884 1.20113 5.29941 0.344869 4.21656 0.658065C3.13374 0.971233 2.57402 2.3339 2.96882 3.70161C3.36365 5.06928 4.56142 5.92552 5.64589 5.61235ZM3.10209 9.88864C4.14661 9.46218 4.55641 8.04785 4.01832 6.73015C3.48023 5.41245 2.19751 4.68779 1.15301 5.11428C0.108523 5.54074 -0.301277 6.95507 0.236811 8.27274C0.774872 9.5921 2.0576 10.3151 3.10209 9.88864Z" fill="#F2C94C"/>
</svg>
