<svg width="75" height="75" viewBox="0 0 75 75" fill="none" xmlns="http://www.w3.org/2000/svg">
<g clip-path="url(#clip0_5437_1620)">
<path d="M75 66.6667C75 68.8768 74.122 70.9964 72.5592 72.5592C70.9964 74.122 68.8768 75 66.6667 75H8.33333C6.1232 75 4.00358 74.122 2.44078 72.5592C0.877974 70.9964 0 68.8768 0 66.6667V8.33333C0 6.1232 0.877974 4.00358 2.44078 2.44078C4.00358 0.877974 6.1232 0 8.33333 0L66.6667 0C68.8768 0 70.9964 0.877974 72.5592 2.44078C74.122 4.00358 75 6.1232 75 8.33333V66.6667Z" fill="#FE254C"/>
<path d="M37.5 14.5833C40.3764 14.5833 42.7083 12.2514 42.7083 9.37496C42.7083 6.49848 40.3764 4.16663 37.5 4.16663C34.6235 4.16663 32.2916 6.49848 32.2916 9.37496C32.2916 12.2514 34.6235 14.5833 37.5 14.5833Z" fill="white"/>
<path d="M36.4 38.0625C42.8854 37.6105 56.3854 36.6709 56.3854 30.5667C56.3854 24.3313 43.175 23.8688 37.5333 23.6709L36.8979 23.648C15.4104 22.7417 19.1 17.6 21.1292 17.6C21.7 18.1125 23.6063 19.5792 26.775 19.5792C27.8625 19.5792 28.9979 19.4042 30.15 19.0563C30.2457 19.0303 30.3309 18.9752 30.394 18.8987C30.457 18.8222 30.4948 18.7281 30.5021 18.6292C30.504 18.5304 30.4752 18.4334 30.4195 18.3516C30.3639 18.2699 30.2843 18.2075 30.1917 18.173L27.1479 16.9709L31.8813 16.0355C31.9609 16.0211 32.0359 15.9876 32.0998 15.9379C32.1636 15.8882 32.2145 15.8237 32.2479 15.75C32.2785 15.6783 32.2897 15.5998 32.2806 15.5223C32.2714 15.4448 32.2422 15.3711 32.1959 15.3084C32.0875 15.1667 29.5521 11.5521 25.2063 11.5521C19.2708 11.5521 14.4958 14.6417 14.4958 19.9667C14.4958 26.4042 29.75 28.2105 36.5729 28.2105C49.6396 28.2105 50.3021 29.9584 50.3021 30.3084C50.3021 32.1521 45.6625 33.2625 36.5104 33.6105C26.7354 33.9813 20.4188 36.7375 20.4188 40.6334C20.4188 44.3042 25.1521 46.4896 36.2479 47.9417C41.2979 48.6021 47.3188 49.7125 47.3188 51.248C47.3167 51.2667 46.7875 53.2959 36.4208 54.5917C26.7354 55.8063 25.4917 58.0855 25.4917 59.9334C25.4917 62.4355 29.0271 64.1459 36.6188 65.3125C42.4083 66.2021 44.0313 68.2646 44.8104 69.2563C45.1396 69.673 45.4 70.0042 45.85 70.0042C45.8917 70.0042 45.9958 69.9917 46.0354 69.9834C46.4667 69.8834 46.7042 69.425 46.6729 68.7542C46.6521 68.2563 46.1958 63.8438 37.2542 62.4938C31.6771 61.6521 31.2458 60.3105 31.2458 59.9188C31.2458 59.723 31.4958 58.7105 36.3604 58.0292C37.0354 57.9792 52.9438 56.725 52.9438 51.1125C52.9438 46.4959 43.6479 44.8146 35.4479 43.3355C31.3146 42.5875 26.1708 41.6584 26.1708 40.6834C26.1729 39.8125 27.9458 38.65 36.4 38.0625Z" fill="white"/>
<path d="M25.6396 15.2959C26.5141 15.2959 27.2229 14.8836 27.2229 14.3751C27.2229 13.8665 26.5141 13.4542 25.6396 13.4542C24.7652 13.4542 24.0563 13.8665 24.0563 14.3751C24.0563 14.8836 24.7652 15.2959 25.6396 15.2959Z" fill="#FE254C"/>
<path d="M33.3334 51.2625H35.4167V59.3292H33.3334V51.2625ZM39.5834 51.2625H41.6667V59.3292H39.5834V51.2625ZM33.3334 31.4062H35.4167V39.4729H33.3334V31.4062ZM39.5834 31.4062H41.6667V39.4729H39.5834V31.4062Z" fill="#FE254C"/>
<path d="M35.4166 41.2709L39.5833 42.0605V24.2667L35.4166 24.0917V41.2709ZM39.5833 45.3938L35.4166 44.625V60.1605C36.5375 60.2959 38.4125 60.7375 39.5833 61.0313V45.3938ZM35.4166 63.198V68.75C35.4166 69.3026 35.6361 69.8325 36.0268 70.2232C36.4175 70.6139 36.9474 70.8334 37.5 70.8334C38.0525 70.8334 38.5824 70.6139 38.9731 70.2232C39.3638 69.8325 39.5833 69.3026 39.5833 68.75V64.048C37.775 63.6334 36.6208 63.4688 35.4166 63.198ZM39.5833 21.7459V11.1042C39.5833 10.5517 39.3638 10.0218 38.9731 9.63107C38.5824 9.24037 38.0525 9.02087 37.5 9.02087C36.9474 9.02087 36.4175 9.24037 36.0268 9.63107C35.6361 10.0218 35.4166 10.5517 35.4166 11.1042V21.5542L39.5833 21.7459Z" fill="white"/>
</g>
<defs>
<clipPath id="clip0_5437_1620">
<rect width="75" height="75" fill="white"/>
</clipPath>
</defs>
</svg>
